<svg width="350" height="350" viewBox="0 0 350 350" fill="none" xmlns="http://www.w3.org/2000/svg">
<g clip-path="url(#clip0_2766_5921)">
<path d="M137.844 187.701L196.049 172.105L227.067 287.868C231.374 303.941 221.836 320.462 205.763 324.769C189.69 329.076 173.169 319.537 168.862 303.464L137.844 187.701Z" fill="white" stroke="#212132" stroke-width="4.87317"/>
<path d="M24.8873 179.842C32.9481 177.682 41.2336 182.466 43.3935 190.527C45.5534 198.587 40.7698 206.873 32.7089 209.033C24.6481 211.193 16.3626 206.409 14.2027 198.348C12.0428 190.287 16.8265 182.002 24.8873 179.842Z" fill="#FFDD65" stroke="#212132" stroke-width="4.87317"/>
<mask id="path-3-inside-1_2766_5921" fill="white">
<path fill-rule="evenodd" clip-rule="evenodd" d="M90.7611 92.0913C90.8825 92.0588 91.0039 92.0265 91.1253 91.9946L197.451 63.5048C204.026 61.7428 208.91 56.4071 211.161 49.9821C216.542 34.6207 225.372 24.053 237.133 20.9017C266.9 12.9257 304.166 55.4803 320.368 115.95C336.571 176.42 325.575 231.906 295.809 239.882C284.216 242.988 271.486 238.431 259.306 228.136C254.144 223.773 247.295 221.634 240.767 223.384L133.063 252.243C133.062 252.243 133.062 252.243 133.061 252.242V252.242C133.061 252.241 133.06 252.241 133.06 252.241C89.0583 263.701 43.9851 237.517 32.1977 193.526C20.4102 149.534 46.3533 104.322 90.1901 92.2464C90.1905 92.2463 90.1907 92.246 90.1906 92.2457V92.2457C90.1905 92.2453 90.1907 92.245 90.191 92.2449L90.3973 92.1896C90.5184 92.1566 90.6397 92.1238 90.7611 92.0913Z"/>
</mask>
<path fill-rule="evenodd" clip-rule="evenodd" d="M90.7611 92.0913C90.8825 92.0588 91.0039 92.0265 91.1253 91.9946L197.451 63.5048C204.026 61.7428 208.91 56.4071 211.161 49.9821C216.542 34.6207 225.372 24.053 237.133 20.9017C266.9 12.9257 304.166 55.4803 320.368 115.95C336.571 176.42 325.575 231.906 295.809 239.882C284.216 242.988 271.486 238.431 259.306 228.136C254.144 223.773 247.295 221.634 240.767 223.384L133.063 252.243C133.062 252.243 133.062 252.243 133.061 252.242V252.242C133.061 252.241 133.06 252.241 133.06 252.241C89.0583 263.701 43.9851 237.517 32.1977 193.526C20.4102 149.534 46.3533 104.322 90.1901 92.2464C90.1905 92.2463 90.1907 92.246 90.1906 92.2457V92.2457C90.1905 92.2453 90.1907 92.245 90.191 92.2449L90.3973 92.1896C90.5184 92.1566 90.6397 92.1238 90.7611 92.0913Z" fill="white"/>
<path d="M91.1253 91.9946L92.3654 96.7073L92.376 96.7045L92.3866 96.7017L91.1253 91.9946ZM295.809 239.882L294.547 235.175L295.809 239.882ZM32.1977 193.526L27.4906 194.787L32.1977 193.526ZM90.3973 92.1896L91.6586 96.8967L91.6692 96.8939L91.6797 96.891L90.3973 92.1896ZM90.1901 92.2464L91.4843 96.9446L91.4843 96.9446L90.1901 92.2464ZM133.06 252.241L134.288 256.957L133.06 252.241ZM259.306 228.136L256.16 231.858L259.306 228.136ZM133.063 252.243L134.324 256.95L133.063 252.243ZM197.451 63.5048L196.189 58.7977L197.451 63.5048ZM211.161 49.9821L206.562 48.3711L211.161 49.9821ZM89.8852 87.2818C89.7566 87.3157 89.6281 87.3498 89.4998 87.3842L92.0224 96.7984C92.1369 96.7677 92.2513 96.7373 92.3654 96.7073L89.8852 87.2818ZM196.189 58.7977L89.8641 87.2874L92.3866 96.7017L198.712 68.2119L196.189 58.7977ZM215.76 51.593C220.881 36.9731 228.845 28.1674 238.394 25.6088L235.872 16.1946C221.899 19.9386 212.202 32.2684 206.562 48.3711L215.76 51.593ZM238.394 25.6088C250.496 22.3663 265.468 29.1791 280.171 45.9692C294.644 62.4964 307.711 87.5387 315.661 117.211L325.076 114.689C316.824 83.8917 303.156 57.4218 287.503 39.5482C272.081 21.9376 253.537 11.4611 235.872 16.1946L238.394 25.6088ZM315.661 117.211C323.612 146.884 324.817 175.104 320.547 196.654C316.209 218.546 306.649 231.933 294.547 235.175L297.07 244.589C314.735 239.856 325.557 221.511 330.107 198.549C334.726 175.244 333.328 145.486 325.076 114.689L315.661 117.211ZM294.547 235.175C285.135 237.697 274.025 234.196 262.452 224.414L256.16 231.858C268.948 242.666 283.297 248.28 297.07 244.589L294.547 235.175ZM134.324 256.95L242.028 228.091L239.505 218.677L131.802 247.536L134.324 256.95ZM27.4906 194.787C39.9716 241.367 87.6968 269.091 134.288 256.957L131.831 247.525C90.4198 258.311 47.9986 233.667 36.9048 192.265L27.4906 194.787ZM88.896 87.5482C42.479 100.334 15.0094 148.207 27.4906 194.787L36.9048 192.265C25.8109 150.862 50.2275 108.309 91.4843 96.9446L88.896 87.5482ZM89.1361 87.4825L88.9297 87.5378L91.4523 96.952L91.6586 96.8967L89.1361 87.4825ZM89.4998 87.3842C89.3716 87.4185 89.2433 87.4532 89.1149 87.4882L91.6797 96.891C91.7936 96.86 91.9078 96.8291 92.0224 96.7984L89.4998 87.3842ZM94.8977 90.9844C95.5942 93.5837 94.0516 96.2555 91.4523 96.952L88.9297 87.5378C86.3297 88.2345 84.7868 90.907 85.4835 93.5069L94.8977 90.9844ZM91.4843 96.9446C94.0319 96.2428 95.6002 93.6061 94.8977 90.9844L85.4835 93.5069C84.7811 90.8858 86.3491 88.2498 88.896 87.5482L91.4843 96.9446ZM137.769 250.981C137.061 248.34 134.37 246.864 131.831 247.525L134.288 256.957C131.751 257.617 129.061 256.142 128.354 253.503L137.769 250.981ZM262.452 224.414C256.334 219.243 247.881 216.432 239.505 218.677L242.028 228.091C246.71 226.836 251.954 228.302 256.16 231.858L262.452 224.414ZM131.802 247.536C134.401 246.839 137.072 248.382 137.769 250.981L128.354 253.503C129.051 256.104 131.724 257.647 134.324 256.95L131.802 247.536ZM198.712 68.2119C207.147 65.9517 213.09 59.2161 215.76 51.593L206.562 48.3711C204.731 53.5982 200.906 57.5338 196.189 58.7977L198.712 68.2119Z" fill="#212132" mask="url(#path-3-inside-1_2766_5921)"/>
<path d="M243.1 43.2057C253.858 40.3232 266.651 46.479 278.777 60.3458C290.788 74.0801 301.561 94.7899 308.112 119.236C314.662 143.683 315.687 167.004 312.153 184.904C308.584 202.976 300.583 214.704 289.825 217.586C279.067 220.469 266.275 214.313 254.148 200.446C242.137 186.712 231.364 166.002 224.813 141.556C218.263 117.11 217.238 93.7877 220.773 75.8881C224.341 57.8158 232.342 46.0883 243.1 43.2057Z" fill="white" stroke="#212132" stroke-width="4.87317"/>
<mask id="path-6-inside-2_2766_5921" fill="white">
<path fill-rule="evenodd" clip-rule="evenodd" d="M292.008 123.552C286.862 104.349 267.123 92.9523 247.92 98.0979C241.03 99.9438 229.166 105.27 217.021 112.229C213.592 75.5696 223.214 46.0079 242.473 40.8477C266.775 34.336 297.217 69.1474 310.468 118.601C323.72 168.055 314.761 213.424 290.459 219.936C271.202 225.095 248.09 204.31 232.731 170.852C246.728 170.806 259.665 169.486 266.554 167.641C285.757 162.495 297.154 142.756 292.008 123.552Z"/>
</mask>
<path fill-rule="evenodd" clip-rule="evenodd" d="M292.008 123.552C286.862 104.349 267.123 92.9523 247.92 98.0979C241.03 99.9438 229.166 105.27 217.021 112.229C213.592 75.5696 223.214 46.0079 242.473 40.8477C266.775 34.336 297.217 69.1474 310.468 118.601C323.72 168.055 314.761 213.424 290.459 219.936C271.202 225.095 248.09 204.31 232.731 170.852C246.728 170.806 259.665 169.486 266.554 167.641C285.757 162.495 297.154 142.756 292.008 123.552Z" fill="#FFDD65"/>
<path d="M217.021 112.229L212.169 112.683L212.874 120.221L219.444 116.457L217.021 112.229ZM310.468 118.601L315.176 117.34L315.176 117.34L310.468 118.601ZM290.459 219.936L289.198 215.228L290.459 219.936ZM232.731 170.852L232.715 165.979L225.143 166.004L228.302 172.885L232.731 170.852ZM266.554 167.641L265.292 162.933L265.292 162.933L266.554 167.641ZM249.181 102.805C265.785 98.356 282.852 108.21 287.301 124.814L296.715 122.291C290.873 100.488 268.462 87.5486 246.658 93.3907L249.181 102.805ZM219.444 116.457C231.457 109.574 242.894 104.49 249.181 102.805L246.658 93.3907C239.167 95.398 226.876 100.966 214.598 108L219.444 116.457ZM221.873 111.775C220.203 93.9213 221.749 78.105 225.842 66.3256C229.97 54.4458 236.327 47.5395 243.734 45.5548L241.211 36.1406C229.36 39.3161 221.276 49.7708 216.636 63.1267C211.96 76.5829 210.41 93.8769 212.169 112.683L221.873 111.775ZM243.734 45.5548C253.098 43.0456 264.998 48.2824 276.946 61.9454C288.663 75.3433 299.286 95.6967 305.761 119.862L315.176 117.34C308.4 92.0519 297.176 70.2727 284.283 55.5294C271.622 41.0512 256.149 32.1381 241.211 36.1406L243.734 45.5548ZM305.761 119.862C312.237 144.028 313.213 166.966 309.765 184.428C306.249 202.234 298.562 212.719 289.198 215.228L291.72 224.643C306.658 220.64 315.601 205.185 319.327 186.316C323.121 167.101 321.951 142.628 315.176 117.34L305.761 119.862ZM289.198 215.228C281.791 217.213 272.834 214.411 263.32 206.188C253.887 198.035 244.64 185.113 237.16 168.819L228.302 172.885C236.181 190.049 246.17 204.248 256.947 213.562C267.643 222.807 279.87 227.818 291.72 224.643L289.198 215.228ZM265.292 162.933C259.006 164.618 246.559 165.933 232.715 165.979L232.747 175.725C246.896 175.678 260.324 174.355 267.815 172.348L265.292 162.933ZM287.301 124.814C291.75 141.418 281.896 158.484 265.292 162.933L267.815 172.348C289.618 166.505 302.557 144.094 296.715 122.291L287.301 124.814Z" fill="#212132" mask="url(#path-6-inside-2_2766_5921)"/>
<path d="M202.618 308.619C202.966 309.919 204.302 310.691 205.602 310.342C206.902 309.994 207.674 308.658 207.325 307.358L202.618 308.619ZM183.748 238.195L202.618 308.619L207.325 307.358L188.455 236.934L183.748 238.195Z" fill="#212132"/>
<path d="M190.48 33.0566C183.545 55.9172 175.839 114.584 200.498 166.367" stroke="#212132" stroke-width="4.87317" stroke-linecap="round" stroke-linejoin="round"/>
<path d="M157.309 58.7872C153.023 74.4582 148.503 114.028 164.708 146.941" stroke="#212132" stroke-width="4.87317" stroke-linecap="round" stroke-linejoin="round"/>
<path d="M133.15 74.813C130.599 83.1561 127.462 104.581 135.333 123.538" stroke="#212132" stroke-width="4.87317" stroke-linecap="round" stroke-linejoin="round"/>
</g>
<defs>
<clipPath id="clip0_2766_5921">
<rect width="350" height="350" fill="white"/>
</clipPath>
</defs>
</svg>
