<svg width="350" height="350" viewBox="0 0 350 350" fill="none" xmlns="http://www.w3.org/2000/svg">
<g clip-path="url(#clip0_2766_5899)">
<path d="M273.073 55.3604C267.454 65.0936 255.008 68.4284 245.275 62.809C235.542 57.1895 232.207 44.7437 237.826 35.0105C243.446 25.2773 255.892 21.9425 265.625 27.562C275.358 33.1814 278.693 45.6272 273.073 55.3604Z" fill="#FFDD65" stroke="#212132" stroke-width="4.87317"/>
<mask id="path-2-inside-1_2766_5899" fill="white">
<path fill-rule="evenodd" clip-rule="evenodd" d="M297.104 188.155C296.979 188.373 296.853 188.59 296.726 188.806L266.198 241.681C262.795 247.576 263.067 254.822 266.201 260.865C276.655 281.02 278.847 299.975 270.534 314.375C250.524 349.032 177.229 344.176 106.824 303.527C36.4191 262.879 -4.43436 201.832 15.5752 167.174C23.7747 152.972 40.9219 145.405 63.1513 144.218C69.9008 143.857 76.2485 140.475 79.628 134.622L110.814 80.607C110.814 80.6064 110.815 80.6062 110.815 80.6066V80.6066C110.816 80.6069 110.817 80.6067 110.817 80.6061L110.819 80.6031C140.518 29.1617 206.296 11.5366 257.738 41.2363C309.179 70.936 326.804 136.714 297.104 188.155Z"/>
</mask>
<path fill-rule="evenodd" clip-rule="evenodd" d="M297.104 188.155C296.979 188.373 296.853 188.59 296.726 188.806L266.198 241.681C262.795 247.576 263.067 254.822 266.201 260.865C276.655 281.02 278.847 299.975 270.534 314.375C250.524 349.032 177.229 344.176 106.824 303.527C36.4191 262.879 -4.43436 201.832 15.5752 167.174C23.7747 152.972 40.9219 145.405 63.1513 144.218C69.9008 143.857 76.2485 140.475 79.628 134.622L110.814 80.607C110.814 80.6064 110.815 80.6062 110.815 80.6066V80.6066C110.816 80.6069 110.817 80.6067 110.817 80.6061L110.819 80.6031C140.518 29.1617 206.296 11.5366 257.738 41.2363C309.179 70.936 326.804 136.714 297.104 188.155Z" fill="white"/>
<path d="M296.726 188.806L292.522 186.34L292.514 186.355L292.506 186.369L296.726 188.806ZM106.824 303.527L104.387 307.748L106.824 303.527ZM15.5752 167.174L11.3549 164.738L15.5752 167.174ZM110.819 80.6031L106.598 78.1665L106.598 78.1665L110.819 80.6031ZM63.1513 144.218L63.4113 149.084L63.1513 144.218ZM110.814 80.607L106.593 78.1705L110.814 80.607ZM266.198 241.681L261.978 239.244L266.198 241.681ZM266.201 260.865L261.875 263.109L266.201 260.865ZM300.929 191.271C301.062 191.045 301.194 190.819 301.325 190.592L292.884 185.719C292.764 185.927 292.644 186.134 292.522 186.34L300.929 191.271ZM270.419 244.117L300.946 191.242L292.506 186.369L261.978 239.244L270.419 244.117ZM261.875 263.109C271.985 282.601 273.423 299.624 266.314 311.938L274.754 316.811C284.272 300.326 281.324 279.439 270.527 258.621L261.875 263.109ZM266.314 311.938C257.749 326.772 236.981 334.255 207.899 332.328C179.167 330.424 143.959 319.34 109.261 299.307L104.387 307.748C140.094 328.363 176.737 340.031 207.255 342.053C237.425 344.052 263.309 336.634 274.754 316.811L266.314 311.938ZM109.261 299.307C74.5623 279.274 47.3593 254.325 31.3442 230.394C15.1346 206.172 11.2308 184.445 19.7955 169.611L11.3549 164.738C-0.0900205 184.561 6.42815 210.686 23.2442 235.815C40.2547 261.233 68.6809 287.133 104.387 307.748L109.261 299.307ZM19.7955 169.611C26.8073 157.466 41.9387 150.231 63.4113 149.084L62.8913 139.351C39.905 140.58 20.742 148.479 11.3549 164.738L19.7955 169.611ZM106.593 78.1705L75.4078 132.185L83.8483 137.058L115.034 83.0436L106.593 78.1705ZM106.598 78.1665L106.597 78.1695L115.037 83.0427L115.039 83.0397L106.598 78.1665ZM260.174 37.016C206.402 5.97066 137.644 24.3944 106.598 78.1665L115.039 83.0397C143.393 33.9291 206.19 17.1026 255.301 45.4566L260.174 37.016ZM301.325 190.592C332.37 136.82 313.946 68.0614 260.174 37.016L255.301 45.4566C304.412 73.8106 321.238 136.608 292.884 185.719L301.325 190.592ZM108.379 84.8269C110.71 86.1729 113.691 85.3741 115.037 83.0427L106.597 78.1695C107.942 75.8393 110.922 75.041 113.252 76.3863L108.379 84.8269ZM63.4113 149.084C71.5536 148.649 79.5253 144.546 83.8483 137.058L75.4078 132.185C72.9716 136.405 68.248 139.065 62.8913 139.351L63.4113 149.084ZM115.034 83.0436C113.688 85.3738 110.709 86.1722 108.379 84.8269L113.252 76.3863C110.92 75.0403 107.939 75.8391 106.593 78.1705L115.034 83.0436ZM261.978 239.244C257.625 246.785 258.091 255.813 261.875 263.109L270.527 258.621C268.042 253.831 267.965 248.368 270.419 244.117L261.978 239.244Z" fill="#212132" mask="url(#path-2-inside-1_2766_5899)"/>
<path d="M245.198 299.752C237.751 312.65 219.968 318.739 196.019 317.136C172.246 315.544 143.229 306.376 114.691 289.9C86.1533 273.424 63.7055 252.878 50.4404 233.086C37.0773 213.147 33.4594 194.702 40.9062 181.804C48.353 168.906 66.1354 162.817 90.0846 164.42C113.858 166.012 142.875 175.179 171.413 191.656C199.95 208.132 222.398 228.677 235.663 248.47C249.026 268.409 252.644 286.853 245.198 299.752Z" fill="white" stroke="#212132" stroke-width="4.87317"/>
<mask id="path-5-inside-2_2766_5899" fill="white">
<path fill-rule="evenodd" clip-rule="evenodd" d="M125.89 270.516C148.249 283.425 176.839 275.764 189.748 253.405C194.378 245.385 200.381 229.602 205.143 212.062C241.95 242.574 260.256 278.552 247.312 300.973C230.976 329.268 171.056 325.256 113.477 292.013C55.8979 258.77 22.464 208.883 38.8 180.588C51.7449 158.167 92.0575 156.032 136.886 172.653C124.077 185.548 113.41 198.638 108.779 206.658C95.8703 229.017 103.531 257.607 125.89 270.516Z"/>
</mask>
<path fill-rule="evenodd" clip-rule="evenodd" d="M125.89 270.516C148.249 283.425 176.839 275.764 189.748 253.405C194.378 245.385 200.381 229.602 205.143 212.062C241.95 242.574 260.256 278.552 247.312 300.973C230.976 329.268 171.056 325.256 113.477 292.013C55.8979 258.77 22.464 208.883 38.8 180.588C51.7449 158.167 92.0575 156.032 136.886 172.653C124.077 185.548 113.41 198.638 108.779 206.658C95.8703 229.017 103.531 257.607 125.89 270.516Z" fill="#FFDD65"/>
<path d="M205.143 212.062L208.253 208.31L202.425 203.478L200.441 210.785L205.143 212.062ZM247.312 300.973L251.532 303.409L251.532 303.409L247.312 300.973ZM38.8 180.588L34.5797 178.152L38.8 180.588ZM136.886 172.653L140.343 176.087L145.679 170.716L138.58 168.083L136.886 172.653ZM108.779 206.658L112.999 209.095L112.999 209.095L108.779 206.658ZM185.527 250.969C173.964 270.997 148.354 277.859 128.326 266.296L123.453 274.736C148.143 288.991 179.713 280.531 193.968 255.842L185.527 250.969ZM200.441 210.785C195.718 228.178 189.846 243.488 185.527 250.969L193.968 255.842C198.91 247.282 205.044 231.026 209.846 213.339L200.441 210.785ZM202.033 215.813C220.069 230.764 233.326 246.863 240.498 261.675C247.717 276.583 248.413 289.318 243.091 298.536L251.532 303.409C259.154 290.207 257.17 273.742 249.27 257.428C241.324 241.017 227.025 223.871 208.253 208.31L202.033 215.813ZM243.091 298.536C236.366 310.185 219.865 316.293 196.186 314.707C172.858 313.146 144.2 304.124 115.913 287.793L111.04 296.233C140.333 313.145 170.424 322.751 195.535 324.432C220.294 326.089 241.922 320.055 251.532 303.409L243.091 298.536ZM115.913 287.793C87.6271 271.461 65.4847 251.153 52.4684 231.732C39.256 212.018 36.2946 194.674 43.0203 183.025L34.5797 178.152C24.9693 194.798 30.5569 216.544 44.3722 237.158C58.3836 258.064 81.7477 279.321 111.04 296.233L115.913 287.793ZM43.0203 183.025C48.3425 173.807 59.7198 168.042 76.2404 166.84C92.6549 165.646 113.226 169.078 135.192 177.222L138.58 168.083C115.718 159.607 93.7181 155.796 75.533 157.119C57.4539 158.435 42.2024 164.949 34.5797 178.152L43.0203 183.025ZM112.999 209.095C117.318 201.614 127.642 188.874 140.343 176.087L133.429 169.218C120.512 182.221 109.501 195.661 104.559 204.221L112.999 209.095ZM128.326 266.296C108.298 254.732 101.436 229.123 112.999 209.095L104.559 204.221C90.3043 228.911 98.7636 260.482 123.453 274.736L128.326 266.296Z" fill="#212132" mask="url(#path-5-inside-2_2766_5899)"/>
<path d="M205.787 101.19C202.067 115.073 191.143 125.81 176.138 131.821C161.133 137.832 142.19 139.035 122.899 133.866C103.609 128.698 87.8052 118.184 77.8156 105.475C67.8265 92.7673 63.7346 78.0064 67.4544 64.1236C71.1743 50.2409 82.0985 39.5035 97.1032 33.4928C112.109 27.4818 131.052 26.2781 150.342 31.447C169.633 36.6158 185.436 47.1299 195.426 59.8383C205.415 72.5461 209.507 87.3071 205.787 101.19Z" fill="white" stroke="#212132" stroke-width="4.87317"/>
<path d="M110.036 75.5252C108.469 81.3719 102.459 84.8416 96.6127 83.275C90.7659 81.7084 87.2962 75.6986 88.8629 69.8519C90.4295 64.0052 96.4392 60.5354 102.286 62.1021C108.133 63.6687 111.602 69.6784 110.036 75.5252Z" fill="#FFDD65" stroke="#212132" stroke-width="4.87317"/>
<path d="M147.223 85.492C145.657 91.3387 139.647 94.8084 133.8 93.2418C127.953 91.6752 124.484 85.6655 126.05 79.8187C127.617 73.972 133.627 70.5022 139.473 72.0689C145.32 73.6355 148.79 79.6452 147.223 85.492Z" fill="#FFDD65" stroke="#212132" stroke-width="4.87317"/>
<circle cx="173.832" cy="92.6202" r="10.9599" transform="rotate(15 173.832 92.6202)" fill="#FFDD65" stroke="#212132" stroke-width="4.87317"/>
<path d="M295.559 181.534L317.499 169.336L305.302 191.276C304.343 193 304.926 195.173 306.618 196.187L328.15 209.088L303.052 209.495C301.079 209.527 299.488 211.118 299.456 213.09L299.05 238.189L286.149 216.656C285.135 214.964 282.961 214.382 281.237 215.34L259.298 227.537L271.495 205.598C272.454 203.874 271.871 201.7 270.179 200.687L248.647 187.785L273.745 187.379C275.717 187.347 277.308 185.756 277.34 183.784L277.747 158.685L290.648 180.218C291.662 181.91 293.836 182.492 295.559 181.534Z" fill="#FFDD65" stroke="#212132" stroke-width="4.87317"/>
</g>
<defs>
<clipPath id="clip0_2766_5899">
<rect width="350" height="350" fill="white"/>
</clipPath>
</defs>
</svg>
