<svg width="350" height="350" viewBox="0 0 350 350" fill="none" xmlns="http://www.w3.org/2000/svg">
<path d="M48.6798 296.03C48.6798 300.426 51.8987 305.182 59.1389 309.957C66.2816 314.667 76.7787 319.003 89.969 322.682C116.315 330.03 152.853 334.606 193.309 334.606C233.766 334.606 270.303 330.03 296.649 322.682C309.84 319.003 320.337 314.667 327.479 309.957C334.72 305.182 337.938 300.426 337.938 296.03C337.938 291.635 334.72 286.878 327.479 282.104C320.337 277.394 309.84 273.058 296.649 269.379C270.303 262.031 233.766 257.454 193.309 257.454C152.853 257.454 116.315 262.031 89.969 269.379C76.7787 273.058 66.2816 277.394 59.1389 282.104C51.8987 286.878 48.6798 291.635 48.6798 296.03Z" fill="white" stroke="#212132" stroke-width="4.88869"/>
<path d="M48.9082 298.617C50.0458 302.863 54.3862 306.624 62.6153 309.362C70.7337 312.063 81.9954 313.534 95.6884 313.674C123.039 313.953 159.516 308.917 198.594 298.446C237.672 287.975 271.779 274.098 295.326 260.181C307.115 253.214 316.132 246.309 321.812 239.91C327.57 233.425 329.448 227.997 328.311 223.752C327.173 219.506 322.833 215.744 314.603 213.007C306.485 210.306 295.223 208.834 281.53 208.695C254.18 208.416 217.703 213.452 178.625 223.923C139.547 234.394 105.439 248.271 81.8926 262.187C70.104 269.155 61.0868 276.06 55.4065 282.458C49.6487 288.944 47.7706 294.372 48.9082 298.617Z" fill="#FFDD65" stroke="#212132" stroke-width="4.88869"/>
<path d="M49.9818 301.214C52.1795 305.021 57.3456 307.531 66.0029 308.045C74.5437 308.553 85.8024 307.059 99.065 303.65C125.556 296.841 159.486 282.536 194.523 262.307C229.559 242.079 258.913 219.847 278.055 200.31C287.639 190.529 294.562 181.525 298.393 173.875C302.276 166.12 302.685 160.391 300.487 156.585C298.289 152.778 293.123 150.268 284.466 149.754C275.925 149.246 264.667 150.74 251.404 154.149C224.913 160.958 190.983 175.263 155.946 195.492C120.91 215.72 91.5562 237.952 72.4136 257.489C62.8299 267.27 55.9072 276.274 52.0764 283.924C48.1934 291.679 47.7841 297.408 49.9818 301.214Z" fill="white" stroke="#212132" stroke-width="4.88869"/>
<path d="M51.1705 302.609C54.2785 305.717 59.9181 306.804 68.4136 305.061C76.7948 303.341 87.2834 298.984 99.2117 292.258C123.038 278.825 152.109 256.225 180.716 227.618C209.323 199.011 231.923 169.939 245.357 146.113C252.082 134.185 256.439 123.697 258.159 115.315C259.903 106.82 258.815 101.18 255.707 98.0722C252.599 94.9642 246.959 93.8768 238.464 95.6204C230.083 97.3406 219.594 101.697 207.666 108.423C183.84 121.856 154.768 144.456 126.161 173.063C97.5543 201.67 74.9547 230.742 61.521 254.568C54.7954 266.496 50.4388 276.985 48.7187 285.366C46.9751 293.861 48.0624 299.501 51.1705 302.609Z" fill="#FFDD65" stroke="#212132" stroke-width="4.88869"/>
<path d="M52.0405 303.175C55.8471 305.373 61.576 304.964 69.3307 301.081C76.9811 297.25 85.9847 290.327 95.7659 280.744C115.303 261.601 137.535 232.247 157.763 197.211C177.991 162.174 192.297 128.244 199.106 101.753C202.515 88.4907 204.009 77.232 203.501 68.6911C202.986 60.0339 200.476 54.8678 196.67 52.6701C192.863 50.4724 187.134 50.8817 179.38 54.7647C171.729 58.5955 162.726 65.5182 152.944 75.1019C133.407 94.2444 111.175 123.598 90.9472 158.635C70.7189 193.671 56.4137 227.601 49.6043 254.092C46.1952 267.355 44.7017 278.614 45.2094 287.154C45.724 295.812 48.234 300.978 52.0405 303.175Z" fill="white" stroke="#212132" stroke-width="4.88869"/>
<path d="M51.5073 303.746C55.753 304.883 61.1807 303.005 67.6662 297.247C74.0645 291.567 80.9696 282.55 87.9371 270.761C101.854 247.214 115.731 213.107 126.202 174.029C136.673 134.951 141.709 98.474 141.43 71.1234C141.29 57.4304 139.819 46.1687 137.118 38.0503C134.38 29.8212 130.619 25.4808 126.373 24.3432C122.127 23.2056 116.7 25.0837 110.214 30.8414C103.816 36.5217 96.9107 45.5389 89.9432 57.3276C76.0263 80.8745 62.1493 114.982 51.6784 154.06C41.2075 193.138 36.1715 229.615 36.4505 256.965C36.5901 270.658 38.0615 281.92 40.7624 290.039C43.5002 298.268 47.2617 302.608 51.5073 303.746Z" fill="#FFDD65" stroke="#212132" stroke-width="4.88869"/>
<path d="M50.1377 304.566C54.5331 304.566 59.2899 301.347 64.0641 294.107C68.7742 286.964 73.1102 276.467 76.7891 263.277C84.1375 236.931 88.7139 200.393 88.7139 159.937C88.7139 119.48 84.1375 82.9433 76.7891 56.5969C73.1102 43.4065 68.7742 32.9094 64.0641 25.7667C59.2899 18.5266 54.5331 15.3076 50.1377 15.3076C45.7423 15.3076 40.9856 18.5266 36.2113 25.7667C31.5012 32.9094 27.1652 43.4065 23.4863 56.5969C16.138 82.9433 11.5615 119.48 11.5615 159.937C11.5615 200.393 16.138 236.931 23.4863 263.277C27.1652 276.467 31.5012 286.964 36.2113 294.107C40.9856 301.347 45.7423 304.566 50.1377 304.566Z" fill="white" stroke="#212132" stroke-width="4.88869"/>
<path d="M90.5703 146.035C134.728 157.516 229.11 214.356 245.187 306.49" stroke="#212132" stroke-width="4.88869"/>
<path d="M125.773 85.3145C150.305 93.2146 195.101 107.998 229.307 152.673" stroke="#212132" stroke-width="4.88869"/>
<path d="M203.805 165.262C219.252 174.702 252.722 201.95 263.02 235.419" stroke="#212132" stroke-width="4.88869"/>
</svg>
