<svg width="350" height="350" viewBox="0 0 350 350" fill="none" xmlns="http://www.w3.org/2000/svg">
<g clip-path="url(#clip0_2766_5873)">
<path d="M16.9462 92.8617C4.17241 114.987 9.37687 145.374 29.3628 177.087C49.2811 208.693 83.5501 240.999 127.507 266.378C171.464 291.756 216.577 305.281 253.907 306.728C291.365 308.18 320.283 297.493 333.057 275.368C345.831 253.244 340.627 222.856 320.641 191.143C300.722 159.537 266.453 127.231 222.496 101.852C178.539 76.4736 133.427 62.9489 96.0959 61.502C58.6385 60.0503 29.72 70.7368 16.9462 92.8617Z" fill="white" stroke="#212132" stroke-width="4.88869"/>
<path d="M333.054 92.8617C345.828 114.987 340.623 145.374 320.637 177.087C300.719 208.693 266.45 240.999 222.493 266.378C178.536 291.756 133.423 305.281 96.0926 306.728C58.6351 308.18 29.7166 297.493 16.9428 275.368C4.16904 253.244 9.3735 222.856 29.3595 191.143C49.2778 159.537 83.5467 127.231 127.504 101.852C171.461 76.4736 216.573 62.9489 253.904 61.502C291.362 60.0503 320.28 70.7368 333.054 92.8617Z" fill="#FFDD65" stroke="#212132" stroke-width="4.88869"/>
<path d="M175.01 17.3963L211.835 136.564L212.368 138.287H214.171H333.67L236.889 212.22L235.534 213.255L236.038 214.884L272.94 334.303L176.494 260.625L175.01 259.492L173.527 260.625L77.0808 334.303L113.983 214.884L114.487 213.255L113.132 212.22L16.3512 138.287H135.85H137.653L138.186 136.564L175.01 17.3963Z" fill="white" stroke="#212132" stroke-width="4.88869"/>
<path d="M175.008 15.4395V258.919" stroke="#212132" stroke-width="4.88869"/>
<path d="M236.664 213.637L17.2089 138.702" stroke="#212132" stroke-width="4.88869"/>
<path d="M112.914 213.637L332.369 138.702" stroke="#212132" stroke-width="4.88869"/>
<path d="M214.109 135.804L77.2225 333.721" stroke="#212132" stroke-width="4.88869"/>
<path d="M136.172 136.819L273.059 334.737" stroke="#212132" stroke-width="4.88869"/>
<ellipse cx="175.008" cy="192.249" rx="14.867" ry="15.6321" fill="white"/>
</g>
<defs>
<clipPath id="clip0_2766_5873">
<rect width="350" height="350" fill="white"/>
</clipPath>
</defs>
</svg>
