<svg width="350" height="350" viewBox="0 0 350 350" fill="none" xmlns="http://www.w3.org/2000/svg">
<mask id="path-1-inside-1_2766_5854" fill="white">
<path fill-rule="evenodd" clip-rule="evenodd" d="M133.218 76.1472L54.3481 12.2148L12.5234 76.1472L57.9331 163.979L17.901 266.151L98.5628 245.097L123.608 248.808L91.5693 329.486L193.923 252.867L237.368 240.511L296.932 318.517L332.781 144.859L296.932 27.7504L215.672 71.3672L133.218 76.1472Z"/>
</mask>
<path fill-rule="evenodd" clip-rule="evenodd" d="M133.218 76.1472L54.3481 12.2148L12.5234 76.1472L57.9331 163.979L17.901 266.151L98.5628 245.097L123.608 248.808L91.5693 329.486L193.923 252.867L237.368 240.511L296.932 318.517L332.781 144.859L296.932 27.7504L215.672 71.3672L133.218 76.1472Z" fill="#FFDD65"/>
<path d="M54.3481 12.2148L57.4266 8.41716L53.2209 5.00803L50.2571 9.53849L54.3481 12.2148ZM133.218 76.1472L130.139 79.9449L131.61 81.1373L133.5 81.0277L133.218 76.1472ZM12.5234 76.1472L8.43242 73.4709L6.87062 75.8582L8.1808 78.3924L12.5234 76.1472ZM57.9331 163.979L62.4849 165.763L63.2927 163.701L62.2758 161.734L57.9331 163.979ZM17.901 266.151L13.3492 264.367L9.8472 273.305L19.1356 270.881L17.901 266.151ZM98.5628 245.097L99.2793 240.262L98.2929 240.115L97.3282 240.367L98.5628 245.097ZM123.608 248.808L128.151 250.612L130.429 244.876L124.324 243.972L123.608 248.808ZM91.5693 329.486L87.0258 327.681L80.6333 343.779L94.4989 333.399L91.5693 329.486ZM193.923 252.867L192.586 248.165L191.717 248.412L190.993 248.953L193.923 252.867ZM237.368 240.511L241.253 237.544L239.233 234.898L236.03 235.808L237.368 240.511ZM296.932 318.517L293.046 321.484L299.552 330.004L301.719 319.505L296.932 318.517ZM332.781 144.859L337.569 145.848L337.822 144.623L337.456 143.428L332.781 144.859ZM296.932 27.7504L301.606 26.3194L299.864 20.628L294.619 23.443L296.932 27.7504ZM215.672 71.3672L215.955 76.2477L217.033 76.1853L217.984 75.6747L215.672 71.3672ZM51.2697 16.0125L130.139 79.9449L136.296 72.3495L57.4266 8.41716L51.2697 16.0125ZM16.6145 78.8236L58.4391 14.8912L50.2571 9.53849L8.43242 73.4709L16.6145 78.8236ZM62.2758 161.734L16.8661 73.902L8.1808 78.3924L53.5905 166.224L62.2758 161.734ZM22.4528 267.934L62.4849 165.763L53.3814 162.196L13.3492 264.367L22.4528 267.934ZM97.3282 240.367L16.6664 261.421L19.1356 270.881L99.7974 249.828L97.3282 240.367ZM124.324 243.972L99.2793 240.262L97.8464 249.933L122.891 253.644L124.324 243.972ZM96.1129 331.29L128.151 250.612L119.064 247.003L87.0258 327.681L96.1129 331.29ZM190.993 248.953L88.6397 325.572L94.4989 333.399L196.853 256.781L190.993 248.953ZM236.03 235.808L192.586 248.165L195.26 257.569L238.705 245.213L236.03 235.808ZM300.817 315.55L241.253 237.544L233.482 243.477L293.046 321.484L300.817 315.55ZM327.993 143.871L292.144 317.529L301.719 319.505L337.569 145.848L327.993 143.871ZM292.257 29.1814L328.107 146.29L337.456 143.428L301.606 26.3194L292.257 29.1814ZM217.984 75.6747L299.244 32.0578L294.619 23.443L213.36 67.0598L217.984 75.6747ZM133.5 81.0277L215.955 76.2477L215.389 66.4868L132.935 71.2667L133.5 81.0277Z" fill="#212132" mask="url(#path-1-inside-1_2766_5854)"/>
<path d="M239.004 238.162L180.188 236.664" stroke="#212132" stroke-width="4.88869"/>
<path d="M98.4141 243.202L136.442 228.053" stroke="#212132" stroke-width="4.88869"/>
<path d="M99.0703 318.875L165.103 244.432" stroke="#212132" stroke-width="4.88869"/>
<path d="M23.2344 261.268L94.8903 208.15" stroke="#212132" stroke-width="4.88869"/>
<path d="M238.695 238.71L277.852 206.176" stroke="#212132" stroke-width="4.88869"/>
<path d="M132.406 78.0996L74.7075 64.6327" stroke="#212132" stroke-width="4.88869"/>
<path d="M74.1344 90.5627L55.0649 16.1021" stroke="#212132" stroke-width="4.88869"/>
<path d="M59.9922 164.043L62.598 209.755" stroke="#212132" stroke-width="4.88869"/>
<path d="M58.4531 164.043L83.8534 167.651" stroke="#212132" stroke-width="4.88869"/>
<path d="M216.084 73.2305L140.031 103.409" stroke="#212132" stroke-width="4.88869"/>
<path d="M329.627 146.467L278.938 104.787" stroke="#212132" stroke-width="4.88869"/>
<path d="M217.133 114.522L295.964 31.3867" stroke="#212132" stroke-width="4.88869"/>
<path d="M190.271 145.94L240.899 138.061L205.148 161.229L201.364 163.68L205.484 165.513L252.544 186.451L201.32 181.053L196.836 180.58L198.887 184.595L218.264 222.534L178.359 190.397L176.246 188.696L174.773 190.974L152.47 225.467L150.402 184.444L150.266 181.734L147.585 182.151L96.9571 190.03L132.708 166.863L136.491 164.411L132.372 162.578L85.3119 141.641L136.536 147.039L141.02 147.511L138.969 143.496L119.592 105.557L159.497 137.694L161.61 139.396L163.083 137.118L185.386 102.624L187.454 143.648L187.59 146.357L190.271 145.94Z" fill="white" stroke="#212132" stroke-width="4.88869"/>
</svg>
