<svg width="350" height="350" viewBox="0 0 350 350" fill="none" xmlns="http://www.w3.org/2000/svg">
<path d="M177.534 59.6296L149.421 32.1859L142.203 9.77148L177.534 25.7278V59.6296Z" fill="white" stroke="#212132" stroke-width="4.88869"/>
<path d="M186.151 26.8408L173.001 57.5372L198.684 43.6196L210.634 19.7188L186.151 26.8408Z" fill="white"/>
<path d="M171.797 60.3493L186.151 26.8408L210.634 19.7188L198.684 43.6196L173.001 57.5372L171.797 60.3493Z" stroke="#212132" stroke-width="4.88869"/>
<path d="M169.684 51.4919L119.52 44.1719L97.4811 62.4271L65.7496 78.873L26.7031 137.948L42.3441 178.794L94.3151 266.816L294.275 231.529L327.881 140.791L314.868 127.379L308.889 98.3244L280.657 83.5592L249.051 78.8732L215.299 48.5001L169.684 51.4919Z" fill="white" stroke="#212132" stroke-width="4.88869"/>
<path d="M99.1016 64.2539L161.672 74.9752" stroke="#212132" stroke-width="4.88869"/>
<path d="M159.414 56.2285L99.0312 62.5416L142.426 158.516" stroke="#212132" stroke-width="4.88869"/>
<path d="M65.5234 79.043L88.0022 99.8777L86.1149 130.704L133.926 159.013" stroke="#212132" stroke-width="4.88869"/>
<path d="M215.282 48.582L153.867 92.3997L177.212 116.479L170.899 168.455L164.314 116.479" stroke="#212132" stroke-width="4.88869"/>
<path d="M86.1898 130.727L52.0391 159.395" stroke="#212132" stroke-width="4.88869"/>
<path d="M308.897 98.4746L257.488 130.975M206.078 163.475L257.488 130.975M257.488 130.975L295.284 158.953" stroke="#212132" stroke-width="4.88869"/>
<path d="M294.218 118.719L311.548 127.586L288.172 138.871" stroke="#212132" stroke-width="4.88869"/>
<path d="M247.322 79.6836L199.648 97.109M247.322 79.6836L192.281 138.805M247.322 79.6836V104.459L234.376 131.225" stroke="#212132" stroke-width="4.88869"/>
<path d="M138.293 338.442L93.7633 129.812H337.874L293.344 338.442H138.293Z" fill="#FFDD65" stroke="#212132" stroke-width="4.88869"/>
<path d="M56.6756 338.442L12.1461 129.812H274.486L229.956 338.442H56.6756Z" fill="#FFDD65" stroke="#212132" stroke-width="4.88869"/>
<path d="M237.999 179.085C245.123 191.424 242.444 208.52 231.151 226.643C219.922 244.665 200.487 263.108 175.45 277.563C150.413 292.019 124.724 299.628 103.501 300.342C82.1602 301.06 66.0147 294.832 58.891 282.493C51.7674 270.155 54.4462 253.058 65.7388 234.935C76.9685 216.913 96.4028 198.47 121.44 184.015C146.477 169.56 172.166 161.951 193.389 161.236C214.73 160.518 230.875 166.747 237.999 179.085Z" fill="white" stroke="#212132" stroke-width="4.88869"/>
<path d="M122.083 203.341L128.805 178.256L103.72 171.534" stroke="#212132" stroke-width="4.88869"/>
<path d="M174.706 258.034L167.984 283.119L193.069 289.841" stroke="#212132" stroke-width="4.88869"/>
</svg>
