<svg width="350" height="350" viewBox="0 0 350 350" fill="none" xmlns="http://www.w3.org/2000/svg">
<g clip-path="url(#clip0_2766_5815)">
<mask id="path-1-inside-1_2766_5815" fill="white">
<path fill-rule="evenodd" clip-rule="evenodd" d="M174.993 339.79C251.161 339.79 312.907 322.881 312.907 302.023C312.907 302.023 312.907 302.023 312.907 302.023V283.204H294.592C270.779 271.88 226.137 264.256 174.993 264.256C123.848 264.256 79.206 271.88 55.3934 283.204H37.0782L37.0782 301.987C37.0781 301.999 37.0781 302.011 37.0781 302.023C37.0781 322.881 98.8246 339.79 174.993 339.79Z"/>
</mask>
<path fill-rule="evenodd" clip-rule="evenodd" d="M174.993 339.79C251.161 339.79 312.907 322.881 312.907 302.023C312.907 302.023 312.907 302.023 312.907 302.023V283.204H294.592C270.779 271.88 226.137 264.256 174.993 264.256C123.848 264.256 79.206 271.88 55.3934 283.204H37.0782L37.0782 301.987C37.0781 301.999 37.0781 302.011 37.0781 302.023C37.0781 322.881 98.8246 339.79 174.993 339.79Z" fill="#FFDD65"/>
<path d="M312.907 283.204H317.78V278.33H312.907V283.204ZM294.592 283.204L292.499 287.605L293.492 288.077H294.592V283.204ZM55.3934 283.204V288.077H56.4931L57.4863 287.605L55.3934 283.204ZM37.0782 283.204V278.33H32.205V283.204H37.0782ZM37.0782 301.987L41.9513 302.004L41.9514 301.995V301.987H37.0782ZM308.034 302.023C308.034 304.666 306.019 308.361 299.421 312.633C293.037 316.767 283.476 320.674 271.226 324.028C246.796 330.719 212.77 334.917 174.993 334.917V344.663C213.383 344.663 248.315 340.408 273.8 333.429C286.508 329.949 297.144 325.718 304.718 320.814C312.077 316.049 317.78 309.809 317.78 302.023H308.034ZM308.034 302.023C308.034 301.879 308.04 301.751 308.049 301.645C308.053 301.591 308.058 301.542 308.062 301.498C308.067 301.454 308.072 301.414 308.077 301.379C308.081 301.344 308.086 301.313 308.09 301.287C308.094 301.261 308.098 301.239 308.1 301.222C308.103 301.205 308.106 301.191 308.107 301.183C308.108 301.179 308.108 301.175 308.109 301.173C308.109 301.171 308.109 301.17 308.109 301.17C308.109 301.17 308.109 301.17 308.109 301.17C308.109 301.17 308.109 301.17 308.109 301.17C308.109 301.17 308.109 301.17 308.109 301.17C308.109 301.17 308.109 301.17 308.109 301.171C308.109 301.171 308.109 301.172 308.109 301.173C308.108 301.175 308.108 301.179 308.107 301.183C308.106 301.191 308.103 301.205 308.1 301.222C308.097 301.239 308.094 301.261 308.09 301.287C308.086 301.313 308.081 301.344 308.077 301.379C308.072 301.414 308.067 301.454 308.062 301.498C308.058 301.542 308.053 301.592 308.049 301.645C308.04 301.752 308.034 301.879 308.034 302.023H317.78C317.78 302.167 317.774 302.294 317.766 302.401C317.762 302.454 317.757 302.504 317.752 302.548C317.747 302.592 317.742 302.632 317.738 302.667C317.733 302.702 317.728 302.733 317.724 302.759C317.721 302.785 317.717 302.807 317.714 302.824C317.711 302.841 317.709 302.855 317.707 302.863C317.707 302.867 317.706 302.871 317.706 302.873C317.705 302.874 317.705 302.876 317.705 302.876C317.705 302.876 317.705 302.876 317.705 302.876C317.705 302.876 317.705 302.876 317.705 302.876C317.705 302.876 317.705 302.876 317.705 302.876C317.705 302.875 317.705 302.875 317.705 302.875C317.705 302.874 317.706 302.874 317.706 302.873C317.706 302.87 317.707 302.867 317.707 302.863C317.709 302.855 317.711 302.841 317.714 302.824C317.717 302.807 317.721 302.785 317.725 302.759C317.728 302.733 317.733 302.702 317.738 302.667C317.742 302.632 317.747 302.592 317.752 302.548C317.757 302.503 317.762 302.454 317.766 302.401C317.774 302.294 317.78 302.166 317.78 302.023H308.034ZM308.034 283.204V302.023H317.78V283.204H308.034ZM294.592 288.077H312.907V278.33H294.592V288.077ZM174.993 269.129C225.879 269.129 269.66 276.743 292.499 287.605L296.685 278.803C271.899 267.016 226.396 259.383 174.993 259.383V269.129ZM57.4863 287.605C80.3254 276.743 124.107 269.129 174.993 269.129V259.383C123.59 259.383 78.0866 267.016 53.3006 278.803L57.4863 287.605ZM37.0782 288.077H55.3934V278.33H37.0782V288.077ZM41.9514 301.987L41.9514 283.204H32.205L32.205 301.987H41.9514ZM41.9513 302.023C41.9513 302.017 41.9513 302.01 41.9513 302.004L32.205 301.971C32.205 301.988 32.205 302.006 32.205 302.023H41.9513ZM174.993 334.917C137.215 334.917 103.19 330.719 78.7595 324.028C66.5096 320.674 56.9488 316.767 50.5646 312.633C43.9667 308.361 41.9513 304.666 41.9513 302.023H32.205C32.205 309.809 37.9078 316.049 45.2677 320.814C52.8412 325.718 63.4775 329.949 76.1853 333.429C101.67 340.408 136.602 344.663 174.993 344.663V334.917Z" fill="#212132" mask="url(#path-1-inside-1_2766_5815)"/>
<path d="M310.471 283.791C310.471 287.72 307.533 292.051 300.745 296.446C294.063 300.772 284.234 304.76 271.869 308.146C247.175 314.908 212.923 319.121 174.993 319.121C137.062 319.121 102.81 314.908 78.1159 308.146C65.7516 304.76 55.9219 300.772 49.2404 296.446C42.452 292.051 39.5147 287.72 39.5147 283.791C39.5147 279.862 42.452 275.53 49.2404 271.135C55.9219 266.809 65.7516 262.821 78.1159 259.435C102.81 252.673 137.062 248.46 174.993 248.46C212.923 248.46 247.175 252.673 271.869 259.435C284.234 262.821 294.063 266.809 300.745 271.135C307.533 275.53 310.471 279.862 310.471 283.791Z" fill="white" stroke="#212132" stroke-width="4.87317"/>
<path d="M299.82 80.0722C304.963 86.706 307.464 94.8002 306.603 103.813C305.309 117.352 297.689 127.306 287.307 134.275C277.275 141.007 264.237 145.308 250.279 148.286C224.129 153.866 190.943 155.519 159.356 157.092L159.356 157.093C157.235 157.198 155.122 157.303 153.018 157.41C118.734 159.138 87.3253 161.081 65.9051 167.324C55.1526 170.458 48.7093 174.202 45.4619 177.978C42.9164 180.938 41.4632 184.866 43.5103 192.103C44.9927 197.344 47.9703 200.505 52.91 202.635C58.4323 205.016 66.5575 206.098 77.5344 205.576C99.5103 204.53 127.962 197.409 158.317 189.4C160.639 188.787 162.972 188.17 165.312 187.55L165.392 187.529C192.92 180.239 221.448 172.684 245.336 169.951C258.325 168.465 270.895 168.271 281.701 170.772C292.74 173.327 302.832 178.948 308.855 189.594C312.799 196.565 314.345 203.95 313.36 211.41C312.399 218.692 309.139 225.215 304.857 230.903C296.479 242.03 282.835 251.726 267.985 260.128C240.626 275.608 204.799 289.033 177.005 299.448L177.005 299.448H116.486C182.872 274.008 231.063 254.838 256.764 240.296C270.88 232.309 281.166 224.485 286.653 217.197C289.304 213.677 290.461 210.769 290.77 208.427C291.056 206.261 290.728 203.827 289.023 200.815C287.056 197.338 283.452 194.566 276.564 192.972C269.443 191.324 259.854 191.225 247.926 192.59C225.777 195.124 198.85 202.248 170.78 209.675L170.78 209.675C168.57 210.26 166.353 210.846 164.13 211.433C134.372 219.284 103.462 227.155 78.6174 228.337C66.1838 228.928 54.0334 227.934 43.8884 223.56C33.1607 218.934 25.0793 210.662 21.584 198.305C17.7808 184.86 19.9259 172.726 28.1846 163.122C35.7414 154.333 47.3082 149.009 59.5289 145.448C84.0551 138.299 118.445 136.338 151.87 134.652C153.748 134.557 155.623 134.463 157.496 134.37C189.81 132.754 221.249 131.181 245.523 126.001C258.358 123.263 268.106 119.718 274.608 115.354C280.76 111.226 283.424 106.83 283.92 101.644C284.224 98.4615 283.433 96.1248 281.811 94.0331C279.997 91.6932 276.738 89.1917 271.522 86.9887C260.989 82.5391 245.216 80.4669 227.436 81.3975C209.833 82.3188 191.383 86.1278 175.918 92.4453C160.179 98.8743 149.029 107.271 143.856 116.357L124.055 105.081C132.86 89.6182 149.445 78.6448 167.301 71.3509C185.43 63.9454 206.434 59.679 226.245 58.6422C245.88 57.6145 265.483 59.7015 280.389 65.9982C287.894 69.1683 294.87 73.6867 299.82 80.0722Z" fill="#FFDD65" stroke="#212132" stroke-width="4.87317"/>
<path d="M157.517 69.8607L203.258 17.9938L183.724 73.8681L182.018 78.7486L186.868 76.958L257.657 50.8237L200.682 91.931L195.483 95.682L201.861 96.3311L271.756 103.444L197.384 116.205L192.289 117.079L196.207 120.453L241.061 159.075L175.514 137.027L172.291 135.943L172.301 139.343L172.468 196.864L143.852 146.966L142.16 144.016L139.911 146.567L94.1701 198.434L113.704 142.559L115.41 137.679L110.56 139.47L39.7714 165.604L96.7462 124.496L101.945 120.745L95.5672 120.096L25.672 112.984L100.044 100.222L105.14 99.3481L101.222 95.9746L56.3676 57.3529L121.914 79.4006L125.137 80.4848L125.127 77.0841L124.96 19.5636L153.576 69.4613L155.268 72.4113L157.517 69.8607Z" fill="white" stroke="#212132" stroke-width="4.87317"/>
<path d="M278.382 176.085L292.796 165.029L293.394 183.186L278.382 176.085Z" fill="white" stroke="#212132" stroke-width="4.87317"/>
<path d="M299.323 101.486L311.646 114.834L293.619 117.083L299.323 101.486Z" fill="white" stroke="#212132" stroke-width="4.87317"/>
<path d="M245.279 255.803L245.114 237.637L259.98 248.078L245.279 255.803Z" fill="white" stroke="#212132" stroke-width="4.87317"/>
<path d="M157.278 209.162L153.439 226.918L141.237 213.46L157.278 209.162Z" fill="white" stroke="#212132" stroke-width="4.87317"/>
<path d="M43.9893 219.608L26.6927 225.162L32.2464 207.865L43.9893 219.608Z" fill="white" stroke="#212132" stroke-width="4.87317"/>
</g>
<defs>
<clipPath id="clip0_2766_5815">
<rect width="350" height="350" fill="white"/>
</clipPath>
</defs>
</svg>
