<svg width="128" height="128" viewBox="0 0 128 128" fill="none" xmlns="http://www.w3.org/2000/svg">
<g clip-path="url(#clip0_1130_1655)">
<path d="M60.8864 59.0213L5.88301 81.619C12.1285 72.351 17.6236 62.6306 22.332 52.5522C22.822 51.5034 22.3183 50.2398 21.1728 50.0734C19.2997 49.8011 17.2822 50.0943 15.2664 50.9831C13.3206 51.8395 11.2938 51.9802 9.48372 51.2243C4.97311 49.3407 3.49186 42.6005 6.17623 36.1723C8.86061 29.7441 14.6954 26.0589 19.206 27.9425C21.0078 28.6949 22.3308 30.2274 23.088 32.2055C23.8812 34.2645 25.1006 35.9052 26.6216 37.0416C27.5462 37.7325 28.7933 37.2011 29.1933 36.1184C33.0448 25.6961 36.0899 14.962 38.2883 4.01768L60.8864 59.0213Z" fill="#FFE999" stroke="#7B61FF" stroke-width="4" stroke-linejoin="round"/>
<path fill-rule="evenodd" clip-rule="evenodd" d="M83.484 114.026L60.886 59.0214L5.88257 81.6192C16.8398 83.8196 27.5813 86.8693 38.0152 90.7266C39.101 91.128 39.6311 92.3807 38.9334 93.3045C37.7928 94.8148 36.1519 96.0247 34.0934 96.8098C32.1076 97.5687 30.5673 98.8934 29.8114 100.704C27.9278 105.214 31.6129 111.049 38.0411 113.733C44.4693 116.418 51.2096 114.936 53.0932 110.426C53.8456 108.624 53.7091 106.604 52.857 104.665C51.9736 102.643 51.6873 100.619 51.97 98.7416C52.1419 97.6002 53.4024 97.1015 54.448 97.5902C64.5141 102.295 74.2265 107.788 83.484 114.026Z" fill="url(#paint0_linear_1130_1655)" stroke="#7B61FF" stroke-width="4" stroke-linejoin="round"/>
<path fill-rule="evenodd" clip-rule="evenodd" d="M38.2896 4.01788L60.8876 59.022L115.891 36.4243C104.934 34.2238 94.1922 31.1742 83.7584 27.3168C82.6726 26.9154 82.1425 25.6627 82.8401 24.739C83.9808 23.2286 85.6217 22.0187 87.6801 21.2336C89.6659 20.4747 91.2063 19.15 91.9622 17.3399C93.8458 12.8293 90.1606 6.99443 83.7324 4.31006C77.3042 1.62569 70.5639 3.10693 68.6803 7.61755C67.928 9.41927 68.0645 11.4393 68.9165 13.3783C69.8 15.4003 70.0863 17.4243 69.8035 19.3018C69.6316 20.4432 68.3712 20.9419 67.3255 20.4533C57.2594 15.7489 47.5471 10.2557 38.2896 4.01788Z" fill="url(#paint1_linear_1130_1655)" stroke="#7B61FF" stroke-width="4" stroke-linejoin="round"/>
<path fill-rule="evenodd" clip-rule="evenodd" d="M83.4848 114.025L60.8868 59.0214L115.89 36.4237C109.645 45.6917 104.15 55.4121 99.4411 65.4905C98.9512 66.5393 99.4548 67.8029 100.6 67.9694C102.473 68.2416 104.491 67.9484 106.507 67.0596C108.453 66.2033 110.479 66.0625 112.289 66.8184C116.8 68.702 118.281 75.4422 115.597 81.8704C112.913 88.2987 107.078 91.9838 102.567 90.1002C100.765 89.3478 99.4424 87.8153 98.6851 85.8372C97.8919 83.7782 96.6726 82.1375 95.1516 81.0011C94.227 80.3102 92.9799 80.8416 92.5798 81.9243C88.7284 92.3466 85.6831 103.081 83.4848 114.025Z" fill="#FFE999" stroke="#7B61FF" stroke-width="4" stroke-linejoin="round"/>
<path d="M82.7238 121.886H58.202L18.0391 27.6389L47.8586 27.6389L70.4629 80.6822L93.0672 27.6389H122.887L82.7238 121.886Z" fill="#FFDD65" stroke="#7B61FF" stroke-width="4" stroke-linecap="square"/>
</g>
<defs>
<linearGradient id="paint0_linear_1130_1655" x1="26.1881" y1="106.769" x2="63.6638" y2="59.0217" gradientUnits="userSpaceOnUse">
<stop stop-color="#7B61FF"/>
<stop offset="1" stop-color="#7B61FF" stop-opacity="0"/>
</linearGradient>
<linearGradient id="paint1_linear_1130_1655" x1="85.201" y1="5.65222" x2="62.2639" y2="59.0217" gradientUnits="userSpaceOnUse">
<stop stop-color="#FFF8E0"/>
<stop offset="1" stop-color="#7B61FF"/>
</linearGradient>
<clipPath id="clip0_1130_1655">
<rect width="128" height="128" fill="white"/>
</clipPath>
</defs>
</svg>
