<svg width="128" height="128" viewBox="0 0 128 128" fill="none" xmlns="http://www.w3.org/2000/svg">
<g clip-path="url(#clip0_1130_1656)">
<path d="M113.394 17.64C110.259 23.0699 103.315 24.9304 97.8853 21.7954C92.4553 18.6604 90.5948 11.7171 93.7298 6.28715C96.8648 0.857182 103.808 -1.00326 109.238 2.13173C114.668 5.26673 116.528 12.21 113.394 17.64Z" fill="#FFE999"/>
<path fill-rule="evenodd" clip-rule="evenodd" d="M99.8853 18.3313C103.402 20.3617 107.899 19.1568 109.929 15.64C111.96 12.1232 110.755 7.62626 107.238 5.59583C103.721 3.56541 99.2244 4.77035 97.1939 8.28715C95.1635 11.804 96.3685 16.3009 99.8853 18.3313ZM97.8853 21.7954C103.315 24.9304 110.259 23.0699 113.394 17.64C116.528 12.21 114.668 5.26673 109.238 2.13173C103.808 -1.00326 96.8648 0.857182 93.7298 6.28715C90.5948 11.7171 92.4553 18.6604 97.8853 21.7954Z" fill="#7B61FF"/>
<path fill-rule="evenodd" clip-rule="evenodd" d="M114.951 69.19C114.017 70.8072 112.992 72.3382 111.884 73.7802C111.074 74.8359 110.293 75.917 109.628 77.0697V77.0697C105.589 84.0658 106.311 92.5724 108.001 100.472C109.109 105.65 108.815 110.646 106.751 114.849C105.614 117.167 104.126 119.349 102.285 121.159C92.1496 131.122 66.2112 128.333 41.2132 113.9C13.9289 98.1479 -1.90323 74.4899 5.85114 61.059C8.19478 56.9996 12.4247 54.3391 17.94 53.0375C24.3319 51.5291 30.5968 48.5752 33.8805 42.8875L42.7588 27.51C42.7588 27.5099 42.7589 27.5099 42.7589 27.51L42.759 27.51C42.759 27.51 42.7591 27.51 42.7591 27.5099V27.5099C54.2687 7.57467 79.7599 0.744337 99.6951 12.254C119.63 23.7636 126.461 49.2547 114.951 69.19Z" fill="#FFDD65"/>
<path fill-rule="evenodd" clip-rule="evenodd" d="M108.712 71.3439C109.713 70.0405 110.641 68.6552 111.487 67.19C121.892 49.1679 115.717 26.1231 97.6951 15.7181C79.673 5.31301 56.6283 11.4878 46.2232 29.5099C46.2156 29.5231 46.2079 29.5362 46.2002 29.5492L37.3446 44.8875C33.2393 51.9983 25.6496 55.328 18.8587 56.9306C14.0547 58.0643 10.9458 60.2347 9.31524 63.059C6.62015 67.727 7.56663 75.194 13.717 84.3845C19.7077 93.3365 29.9848 102.799 43.2132 110.436C55.3231 117.428 67.5374 121.522 77.7814 122.705C88.2402 123.912 95.7133 122.01 99.4807 118.306C100.949 116.862 102.188 115.068 103.161 113.086C104.728 109.895 105.064 105.863 104.089 101.309C102.37 93.2735 101.325 83.4501 106.164 75.0697C106.958 73.6934 107.861 72.4518 108.712 71.3439ZM111.884 73.7802C112.992 72.3382 114.017 70.8072 114.951 69.19C126.461 49.2547 119.63 23.7636 99.6951 12.254C79.7599 0.744337 54.2687 7.57467 42.7591 27.5099L42.759 27.51L42.7589 27.51L42.7588 27.51L33.8805 42.8875C30.5968 48.5752 24.3319 51.5291 17.94 53.0375C12.4247 54.3391 8.19479 56.9996 5.85114 61.059C-1.90323 74.4899 13.9289 98.1479 41.2132 113.9C66.2112 128.333 92.1496 131.122 102.285 121.159C104.126 119.349 105.614 117.167 106.751 114.849C108.815 110.646 109.109 105.65 108.001 100.472C106.311 92.5724 105.589 84.0657 109.628 77.0697C110.293 75.917 111.074 74.8359 111.884 73.7802Z" fill="#7B61FF"/>
<path d="M98.1393 111.695C92.1436 122.08 69.0048 119.946 46.4573 106.928C23.9099 93.9102 10.492 74.9386 16.4876 64.5538C22.4833 54.169 45.6221 56.3035 68.1696 69.3213C90.717 82.3391 104.135 101.311 98.1393 111.695Z" fill="#FFDD65"/>
<path fill-rule="evenodd" clip-rule="evenodd" d="M78.8726 114.105C87.9051 114.938 92.9299 112.718 94.6751 109.695C96.4204 106.673 95.8302 101.211 90.5923 93.8055C85.5723 86.7077 77.0596 79.0727 66.1696 72.7854C55.2796 66.498 44.4111 62.9432 35.7542 62.1447C26.7217 61.3115 21.697 63.5309 19.9517 66.5538C18.2065 69.5767 18.7967 75.038 24.0346 82.4438C29.0545 89.5415 37.5673 97.1765 48.4573 103.464C59.3473 109.751 70.2158 113.306 78.8726 114.105ZM46.4573 106.928C69.0048 119.946 92.1436 122.08 98.1393 111.695C104.135 101.311 90.717 82.3391 68.1696 69.3213C45.6221 56.3035 22.4833 54.169 16.4876 64.5538C10.492 74.9386 23.9099 93.9102 46.4573 106.928Z" fill="#7B61FF"/>
<path fill-rule="evenodd" clip-rule="evenodd" d="M51.0136 99.0388C59.7692 104.094 70.7077 101.539 75.4455 93.3331C77.1451 90.3894 79.291 84.5632 80.9402 78.068C95.4525 89.8457 102.892 103.467 98.1405 111.696C92.1448 122.08 69.0061 119.946 46.4586 106.928C23.9111 93.9104 10.4932 74.9388 16.4889 64.554C21.24 56.3249 36.7556 55.957 54.2115 62.6362C49.4111 67.312 45.4385 72.0835 43.7389 75.0273C39.0011 83.2335 42.2581 93.9838 51.0136 99.0388Z" fill="url(#paint0_linear_1130_1656)"/>
<path fill-rule="evenodd" clip-rule="evenodd" d="M78.9096 95.3326C72.9471 105.66 59.4674 108.538 49.0136 102.502C38.5598 96.4669 34.3123 83.3542 40.2748 73.0268C41.6141 70.7071 44.0168 67.6237 46.9534 64.3909C40.8507 62.5844 35.2997 61.8053 30.7575 62.0003C24.6698 62.2617 21.3227 64.1811 19.953 66.5535C18.2077 69.5764 18.798 75.0377 24.0358 82.4435C29.0558 89.5412 37.5686 97.1762 48.4586 103.464C59.3486 109.751 70.2171 113.306 78.8739 114.104C87.9064 114.937 92.9311 112.718 94.6764 109.695C96.0461 107.323 96.0348 103.464 93.2174 98.0616C91.1152 94.0305 87.665 89.6128 83.0492 85.2309C81.7179 89.3904 80.2489 93.0129 78.9096 95.3326ZM79.7715 82.2942C80.1789 80.9351 80.5719 79.518 80.9402 78.0675C82.1125 79.0189 83.2386 79.9823 84.3158 80.9539C96.5747 92.0105 102.508 104.131 98.1405 111.695C92.1448 122.08 69.0061 119.945 46.4586 106.928C23.9111 93.9099 10.4932 74.9383 16.4889 64.5535C20.8562 56.9892 34.3192 56.0672 50.0241 61.1555C51.4041 61.6026 52.8015 62.0962 54.2115 62.6357C53.1395 63.6799 52.1088 64.7288 51.1355 65.7611C47.7502 69.3515 45.0589 72.7404 43.7389 75.0268C39.0011 83.233 42.2581 93.9833 51.0136 99.0383C59.7692 104.093 70.7077 101.539 75.4455 93.3326C76.7656 91.0463 78.3549 87.0211 79.7715 82.2942Z" fill="#7B61FF"/>
<path d="M79.8642 38.9046C76.3915 51.8649 59.5476 58.6124 42.2424 53.9755C24.9372 49.3386 13.7237 35.0732 17.1965 22.1128C20.6692 9.15244 37.513 2.40496 54.8182 7.04188C72.1234 11.6788 83.3369 25.9442 79.8642 38.9046Z" fill="#FFE999"/>
<path fill-rule="evenodd" clip-rule="evenodd" d="M64.753 49.3259C70.6828 46.9505 74.6637 42.8583 76.0005 37.8693C77.3373 32.8803 75.9358 27.3459 71.9882 22.3239C68.0398 17.3008 61.6817 13.022 53.783 10.9056C45.8842 8.78912 38.2386 9.31562 32.3076 11.6915C26.3778 14.0669 22.397 18.1591 21.0602 23.1481C19.7234 28.1371 21.1248 33.6714 25.0725 38.6935C29.0209 43.7165 35.3789 47.9953 43.2777 50.1118C51.1764 52.2283 58.8221 51.7018 64.753 49.3259ZM42.2424 53.9755C59.5476 58.6124 76.3915 51.8649 79.8642 38.9046C83.3369 25.9442 72.1234 11.6788 54.8182 7.04188C37.513 2.40496 20.6692 9.15244 17.1965 22.1128C13.7237 35.0732 24.9372 49.3386 42.2424 53.9755Z" fill="#7B61FF"/>
<path d="M39.131 27.9902C38.3889 30.7597 35.5422 32.4033 32.7726 31.6612C30.0031 30.9191 28.3595 28.0723 29.1016 25.3028C29.8437 22.5332 32.6905 20.8897 35.46 21.6318C38.2296 22.3739 39.8731 25.2206 39.131 27.9902Z" fill="#7B61FF"/>
<path fill-rule="evenodd" clip-rule="evenodd" d="M33.8079 27.7975C34.4436 27.9678 35.097 27.5906 35.2673 26.9549C35.4377 26.3192 35.0604 25.6658 34.4247 25.4955C33.7891 25.3251 33.1357 25.7024 32.9653 26.3381C32.795 26.9737 33.1722 27.6271 33.8079 27.7975ZM32.7726 31.6612C35.5422 32.4033 38.3889 30.7597 39.131 27.9902C39.8731 25.2206 38.2296 22.3739 35.46 21.6318C32.6905 20.8897 29.8437 22.5332 29.1016 25.3028C28.3595 28.0723 30.0031 30.9191 32.7726 31.6612Z" fill="#7B61FF"/>
<path d="M53.5451 31.8522C52.803 34.6218 49.9562 36.2653 47.1867 35.5232C44.4172 34.7811 42.7736 31.9344 43.5157 29.1648C44.2578 26.3953 47.1045 24.7517 49.8741 25.4938C52.6436 26.2359 54.2872 29.0827 53.5451 31.8522Z" fill="#7B61FF"/>
<path fill-rule="evenodd" clip-rule="evenodd" d="M48.222 31.6595C48.8577 31.8299 49.5111 31.4526 49.6814 30.8169C49.8517 30.1813 49.4745 29.5279 48.8388 29.3575C48.2031 29.1872 47.5497 29.5644 47.3794 30.2001C47.2091 30.8358 47.5863 31.4892 48.222 31.6595ZM47.1867 35.5232C49.9562 36.2653 52.803 34.6218 53.5451 31.8522C54.2872 29.0827 52.6436 26.2359 49.8741 25.4938C47.1045 24.7517 44.2578 26.3953 43.5157 29.1648C42.7736 31.9344 44.4172 34.7811 47.1867 35.5232Z" fill="#7B61FF"/>
<path d="M67.9592 35.7143C67.2171 38.4838 64.3703 40.1274 61.6008 39.3853C58.8312 38.6432 57.1877 35.7964 57.9298 33.0269C58.6718 30.2574 61.5186 28.6138 64.2881 29.3559C67.0577 30.098 68.7012 32.9447 67.9592 35.7143Z" fill="#7B61FF"/>
<path fill-rule="evenodd" clip-rule="evenodd" d="M62.636 35.5216C63.2717 35.6919 63.9251 35.3147 64.0954 34.679C64.2658 34.0433 63.8885 33.3899 63.2529 33.2196C62.6172 33.0493 61.9638 33.4265 61.7935 34.0622C61.6231 34.6979 62.0004 35.3513 62.636 35.5216ZM61.6008 39.3853C64.3703 40.1274 67.2171 38.4838 67.9592 35.7143C68.7012 32.9447 67.0577 30.098 64.2881 29.3559C61.5186 28.6138 58.6718 30.2574 57.9298 33.0269C57.1877 35.7964 58.8312 38.6432 61.6008 39.3853Z" fill="#7B61FF"/>
</g>
<defs>
<linearGradient id="paint0_linear_1130_1656" x1="67.5758" y1="70.352" x2="46.4586" y2="106.928" gradientUnits="userSpaceOnUse">
<stop offset="0.195833" stop-color="#212132"/>
<stop offset="1" stop-color="#7B61FF"/>
</linearGradient>
<clipPath id="clip0_1130_1656">
<rect width="128" height="128" fill="white"/>
</clipPath>
</defs>
</svg>
