<svg width="128" height="128" viewBox="0 0 128 128" fill="none" xmlns="http://www.w3.org/2000/svg">
<g clip-path="url(#clip0_1130_1652)">
<path d="M126 100C126 103.204 124.524 106.415 121.533 109.509C118.532 112.613 114.093 115.499 108.453 117.967C97.179 122.899 81.464 126 64 126C46.536 126 30.821 122.899 19.5468 117.967C13.9067 115.499 9.46807 112.613 6.46734 109.509C3.47591 106.415 2 103.204 2 100C2 96.7957 3.47591 93.5855 6.46734 90.4913C9.46807 87.3874 13.9067 84.5009 19.5468 82.0333C30.821 77.1009 46.536 74 64 74C81.464 74 97.179 77.1009 108.453 82.0333C114.093 84.5009 118.532 87.3874 121.533 90.4913C124.524 93.5855 126 96.7957 126 100Z" fill="#7B61FF" stroke="#7B61FF" stroke-width="4"/>
<path d="M58.626 83.3904L43.4453 107.402C35.5336 101.889 29.047 93.5748 26.3942 83.4173C23.5695 72.6015 25.0379 59.4907 34.1082 45.1441C44.2722 29.0679 63.5275 19.0678 80.5826 13.0833C89.0638 10.1073 96.9011 8.15858 102.618 6.95436C104.521 6.55371 106.186 6.23586 107.561 5.99027L93.0336 28.9679L75.9679 55.9607L66.9693 29.3515C66.6155 28.3051 65.4804 27.7437 64.434 28.0976C63.3877 28.4514 62.8263 29.5865 63.1801 30.6329L73.2169 60.312L61.0879 79.4964L45.6362 50.378C45.1184 49.4023 43.9077 49.0311 42.932 49.5488C41.9563 50.0666 41.5851 51.2773 42.1028 52.253L58.626 83.3904ZM110.942 8.12782C111.309 9.47481 111.737 11.1158 112.19 13.0061C113.555 18.6874 115.155 26.6031 116.104 35.5411C118.012 53.5146 117.236 75.198 107.072 91.2743C98.0019 105.621 86.7877 112.57 75.8056 114.657C65.4919 116.616 55.1995 114.322 46.8262 109.539L62.0069 85.528L97.2217 87.1009C98.3252 87.1502 99.2597 86.2956 99.309 85.1921C99.3583 84.0887 98.5037 83.1542 97.4002 83.1049L64.4689 81.634L76.5977 62.4499L107.726 58.7965C108.823 58.6678 109.608 57.6741 109.479 56.577C109.35 55.48 108.357 54.6951 107.26 54.8238L79.348 58.0996L96.4146 31.1055L110.942 8.12782Z" fill="#FFF8E0" stroke="#7B61FF" stroke-width="4" stroke-linecap="round" stroke-linejoin="round"/>
<path d="M57.4538 67.5873C54.814 73.4201 50.1358 77.8214 44.8397 80.4748L38.1579 64.4136L51.9657 46.527C52.6407 45.6526 52.479 44.3966 51.6047 43.7217C50.7303 43.0467 49.4744 43.2083 48.7994 44.0827L36.3883 60.16L31.2875 47.8991L40.8609 30.2048C41.3866 29.2333 41.0251 28.0197 40.0536 27.4941C39.0821 26.9684 37.8685 27.3299 37.3428 28.3014L29.3106 43.1471L21.8664 25.2532L15.6657 10.3486C16.1521 10.5328 16.6741 10.7345 17.228 10.9539C20.7521 12.3498 25.5493 14.4534 30.6433 17.2829C40.9172 22.9894 52.0243 31.4436 56.6979 42.6775C60.8868 52.7466 60.3726 61.1383 57.4538 67.5873ZM27.5942 49.4352L32.6952 61.6964L12.5429 59.1662C11.447 59.0285 10.4469 59.8054 10.3093 60.9014C10.1717 61.9974 10.9486 62.9974 12.0446 63.135L34.4647 65.95L41.1466 82.0113C35.5312 83.8972 29.1116 84.1128 23.1137 81.8736C16.4819 79.3977 10.1674 73.847 5.97845 63.7779C1.30489 52.5439 3.13812 38.7063 6.33288 27.3966C7.91692 21.7889 9.80643 16.9034 11.3006 13.4198C11.5354 12.8723 11.7603 12.3598 11.9726 11.885L18.1732 26.7896L25.6168 44.6821L9.43529 39.9119C8.37579 39.5996 7.26371 40.2053 6.95138 41.2648C6.63906 42.3243 7.24475 43.4364 8.30425 43.7487L27.5942 49.4352Z" fill="#FFDD65" stroke="#7B61FF" stroke-width="4" stroke-linecap="round" stroke-linejoin="round"/>
</g>
<defs>
<clipPath id="clip0_1130_1652">
<rect width="128" height="128" fill="white"/>
</clipPath>
</defs>
</svg>
