<svg width="128" height="128" viewBox="0 0 128 128" fill="none" xmlns="http://www.w3.org/2000/svg">
<circle cx="64" cy="64" r="60" fill="#7B61FF" stroke="#7B61FF" stroke-width="4"/>
<path d="M21.5736 21.5736C27.1451 16.0021 33.7595 11.5825 41.039 8.56723C48.3185 5.55195 56.1207 4 64 4L64 64L21.5736 21.5736Z" fill="#FFF8E0" stroke="#7B61FF" stroke-width="4"/>
<path d="M4 64C4 56.1207 5.55195 48.3185 8.56723 41.039C11.5825 33.7595 16.0021 27.1451 21.5736 21.5736L64 64L4 64Z" fill="#FFE999" stroke="#7B61FF" stroke-width="4"/>
<path d="M64 4C71.8793 4 79.6815 5.55195 86.961 8.56723C94.2406 11.5825 100.855 16.0021 106.426 21.5736L64 64L64 4Z" fill="#FFF1C1" stroke="#7B61FF" stroke-width="4"/>
<path d="M106.426 21.5736C111.998 27.1451 116.417 33.7595 119.433 41.039C122.448 48.3185 124 56.1207 124 64L64 64L106.426 21.5736Z" fill="#FFE999" stroke="#7B61FF" stroke-width="4"/>
<path d="M21.5736 106.426C16.0021 100.855 11.5825 94.2405 8.56723 86.961C5.55195 79.6815 4 71.8793 4 64L64 64L21.5736 106.426Z" fill="#FFE999" stroke="#7B61FF" stroke-width="4"/>
<path d="M64 124C56.1207 124 48.3185 122.448 41.039 119.433C33.7595 116.417 27.1451 111.998 21.5736 106.426L64 64L64 124Z" fill="#FFDD65" stroke="#7B61FF" stroke-width="4"/>
<path d="M124 64C124 71.8793 122.448 79.6815 119.433 86.961C116.417 94.2405 111.998 100.855 106.426 106.426L64 64L124 64Z" fill="#FFDD65" stroke="#7B61FF" stroke-width="4"/>
<path d="M106.426 106.426C100.855 111.998 94.2405 116.417 86.961 119.433C79.6815 122.448 71.8793 124 64 124L64 64L106.426 106.426Z" fill="#FFDD65" stroke="#7B61FF" stroke-width="4"/>
</svg>
