<svg width="128" height="128" viewBox="0 0 128 128" fill="none" xmlns="http://www.w3.org/2000/svg">
<g clip-path="url(#clip0_1130_1659)">
<path d="M8.25391 43.8892L64.0018 21.5889V68.7747L8.25391 43.8892Z" fill="url(#paint0_linear_1130_1659)"/>
<path d="M119.75 43.8892L64.0021 21.5889V68.7747L119.75 43.8892Z" fill="url(#paint1_linear_1130_1659)"/>
<path d="M9.63999 45.4266L63.8456 23.7432L118.051 45.4265L124.997 62.0835L118.779 64.8594L117.594 65.3883V66.6857V101.817L63.8456 125.81L10.0977 101.817V66.6857V65.3883L8.9129 64.8594L2.69447 62.0835L9.63999 45.4266Z" fill="#FFDD65" stroke="#7B61FF" stroke-width="4"/>
<path d="M8.25391 43.9287L64.0018 68.8142V128L8.25391 103.115V43.9287Z" fill="#7B61FF"/>
<path d="M10.2539 101.817V47.0117L62.0018 70.1116V124.917L10.2539 101.817Z" fill="url(#paint2_linear_1130_1659)" stroke="#7B61FF" stroke-width="4"/>
<path d="M31.2862 55.681L30.422 57.4846L32.2256 58.3488L60.1669 71.7365L60.8859 72.0811L61.6448 71.8364L76.4 67.0786L77.2183 66.8147L77.5898 66.0393L97.6762 24.1175L98.5404 22.3139L96.7368 21.4497L58.6493 3.20053L56.8457 2.33633L55.9815 4.13998L31.2862 55.681Z" fill="#FFF1C1" stroke="#7B61FF" stroke-width="4"/>
<path d="M2.85072 62.0835L9.31082 46.5907L61.405 69.8452L54.9449 85.338L2.85072 62.0835Z" fill="#FFDD65" stroke="#7B61FF" stroke-width="4"/>
<path d="M63.8438 69.3086V125.244" stroke="#7B61FF" stroke-width="4"/>
<path d="M74.1912 34.3451C72.0454 27.1643 69.5832 27.1853 61.3734 29.498C53.1636 31.8108 51.0721 33.0725 52.4408 37.653" stroke="#7B61FF" stroke-width="4"/>
<path d="M54.7737 45.4537C56.9194 52.6346 59.3816 52.6136 67.5915 50.3008C75.8013 47.9881 77.8927 46.7263 76.5241 42.1458" stroke="#7B61FF" stroke-width="4"/>
<path d="M52.442 37.6527C53.8725 42.4399 56.2729 42.2121 64.4828 39.8994" stroke="#7B61FF" stroke-width="4"/>
<path d="M76.5228 42.1452C75.0923 37.3579 72.6919 37.5857 64.4821 39.8985" stroke="#7B61FF" stroke-width="4"/>
<path d="M69.4648 56.5647L59.5051 23.2336" stroke="#7B61FF" stroke-width="4"/>
<path d="M119.75 43.9287L63.5646 68.8767L71.5646 88.0626L127.75 63.1146L119.75 43.9287Z" fill="#7B61FF"/>
</g>
<defs>
<linearGradient id="paint0_linear_1130_1659" x1="36.1279" y1="21.5889" x2="36.1279" y2="68.7747" gradientUnits="userSpaceOnUse">
<stop offset="0.169792" stop-color="#FFE999"/>
<stop offset="1" stop-color="#FFE999" stop-opacity="0"/>
</linearGradient>
<linearGradient id="paint1_linear_1130_1659" x1="91.876" y1="21.5889" x2="91.876" y2="68.7747" gradientUnits="userSpaceOnUse">
<stop offset="0.169792" stop-color="#FFE999"/>
<stop offset="1" stop-color="#FFE999" stop-opacity="0"/>
</linearGradient>
<linearGradient id="paint2_linear_1130_1659" x1="36.1279" y1="43.9287" x2="36.1279" y2="128" gradientUnits="userSpaceOnUse">
<stop stop-color="#212132"/>
<stop offset="1" stop-color="#7B61FF"/>
</linearGradient>
<clipPath id="clip0_1130_1659">
<rect width="128" height="128" fill="white"/>
</clipPath>
</defs>
</svg>
