<svg width="260" height="260" viewBox="0 0 260 260" fill="none" xmlns="http://www.w3.org/2000/svg">
<path d="M32.9922 15.7344H227.016C233.747 15.7344 239.204 21.1909 239.204 27.9219V221.946C239.204 228.677 233.747 234.133 227.016 234.133H32.9922C26.2612 234.133 20.8047 228.677 20.8047 221.946V27.9219C20.8047 21.1909 26.2612 15.7344 32.9922 15.7344Z" fill="#F1F5F7" stroke="#3E5F72" stroke-width="8.125" stroke-linejoin="round"/>
<path d="M32.9922 187.159H227.016C233.747 187.159 239.204 192.615 239.204 199.346V221.947C239.204 228.678 233.747 234.134 227.016 234.134H32.9922C26.2612 234.134 20.8047 228.678 20.8047 221.947V199.346C20.8047 192.615 26.2612 187.159 32.9922 187.159Z" fill="#3E5F72" stroke="#3E5F72" stroke-width="8.125" stroke-linejoin="round"/>
<path d="M57.4785 63.7107H202.524" stroke="#3E5F72" stroke-width="8.125" stroke-linecap="round" stroke-linejoin="round"/>
<path d="M57.4785 95.8081H202.524" stroke="#3E5F72" stroke-width="8.125" stroke-linecap="round" stroke-linejoin="round"/>
<path d="M202.521 197.844L202.521 255.617L176.745 231.771L150.968 255.617L150.968 197.844L202.521 197.844Z" fill="#C7D5DE" stroke="#3E5F72" stroke-width="8.125" stroke-linecap="round" stroke-linejoin="round"/>
</svg>
