<svg width="260" height="260" viewBox="0 0 260 260" fill="none" xmlns="http://www.w3.org/2000/svg">
<g clip-path="url(#clip0_2799_2951)">
<path d="M255.938 203.125C255.938 209.634 252.94 216.154 246.863 222.44C240.768 228.744 231.752 234.608 220.296 239.62C197.395 249.639 165.474 255.938 130 255.938C94.5263 255.938 62.6051 249.639 39.7044 239.62C28.2481 234.608 19.232 228.744 13.1368 222.44C7.06044 216.154 4.0625 209.634 4.0625 203.125C4.0625 196.616 7.06044 190.096 13.1368 183.81C19.232 177.506 28.2481 171.642 39.7044 166.63C62.6051 156.611 94.5263 150.312 130 150.312C165.474 150.312 197.395 156.611 220.296 166.63C231.752 171.642 240.768 177.506 246.863 183.81C252.94 190.096 255.938 196.616 255.938 203.125Z" fill="#3E5F72" stroke="#3E5F72" stroke-width="8.125"/>
<path d="M119.084 169.388L88.248 218.161C72.1773 206.963 59.0014 190.075 53.613 169.443C47.8753 147.473 50.8579 120.842 69.2821 91.7001C89.9276 59.0452 129.04 38.7325 163.683 26.5766C180.911 20.5316 196.83 16.5733 208.444 14.1272C212.307 13.3134 215.691 12.6677 218.483 12.1689L188.974 58.8423L154.31 113.671L136.031 59.6213C135.312 57.4959 133.007 56.3556 130.881 57.0744C128.756 57.7931 127.616 60.0988 128.334 62.2242L148.722 122.51L124.085 161.478L92.6982 102.331C91.6465 100.35 89.1873 99.5955 87.2054 100.647C85.2235 101.699 84.4694 104.158 85.5211 106.14L119.084 169.388ZM225.35 16.5108C226.097 19.2468 226.965 22.5802 227.887 26.4197C230.657 37.96 233.909 54.0387 235.836 72.194C239.712 108.703 238.136 152.747 217.49 185.402C199.066 214.543 176.287 228.659 153.98 232.898C133.03 236.878 112.124 232.218 95.1155 222.503L125.951 173.73L197.481 176.925C199.723 177.025 201.621 175.289 201.721 173.048C201.821 170.806 200.085 168.908 197.844 168.808L130.952 165.82L155.589 126.852L218.818 119.432C221.046 119.17 222.641 117.152 222.379 114.923C222.118 112.695 220.099 111.1 217.871 111.362L161.175 118.016L195.842 63.1842L225.35 16.5108Z" fill="#F1F5F7" stroke="#3E5F72" stroke-width="8.125" stroke-linecap="round" stroke-linejoin="round"/>
<path d="M116.702 137.288C111.339 149.136 101.837 158.076 91.0792 163.466L77.5068 130.841L105.554 94.5089C106.925 92.7329 106.597 90.1817 104.821 88.8107C103.045 87.4397 100.493 87.768 99.1223 89.544L73.9123 122.201L63.5513 97.296L82.9973 61.3546C84.065 59.3812 83.3308 56.916 81.3574 55.8483C79.3841 54.7807 76.9189 55.5149 75.8512 57.4882L59.5357 87.6436L44.4146 51.2966L31.8195 21.0216C32.8074 21.3957 33.8678 21.8055 34.9929 22.2511C42.1513 25.0865 51.8955 29.3596 62.2428 35.1069C83.1117 46.6983 105.673 63.8708 115.166 86.6898C123.675 107.143 122.63 124.188 116.702 137.288ZM56.0493 100.416L66.4106 125.322L25.4763 120.182C23.2502 119.903 21.2189 121.481 20.9394 123.707C20.6599 125.933 22.2379 127.964 24.4641 128.244L70.0051 133.962L83.5775 166.586C72.1712 170.417 59.1315 170.855 46.9482 166.307C33.4775 161.278 20.6511 150.003 12.1423 129.55C2.64909 106.731 6.37284 78.6232 12.8622 55.6503C16.0798 44.2597 19.9178 34.3361 22.9529 27.26C23.4299 26.1479 23.8867 25.1069 24.3178 24.1424L36.9128 54.4175L52.0327 90.7615L19.164 81.0721C17.0119 80.4377 14.753 81.668 14.1185 83.8201C13.4841 85.9722 14.7144 88.2311 16.8665 88.8655L56.0493 100.416Z" fill="#C7D5DE" stroke="#3E5F72" stroke-width="8.125" stroke-linecap="round" stroke-linejoin="round"/>
</g>
<defs>
<clipPath id="clip0_2799_2951">
<rect width="260" height="260" fill="white"/>
</clipPath>
</defs>
</svg>
