<svg width="260" height="260" viewBox="0 0 260 260" fill="none" xmlns="http://www.w3.org/2000/svg">
<path fill-rule="evenodd" clip-rule="evenodd" d="M207.784 200.159C230.864 186.67 245.341 167.261 245.341 145.689C245.341 104.948 193.702 71.9209 130.002 71.9209C66.302 71.9209 14.6631 104.948 14.6631 145.689C14.6631 186.43 66.302 219.458 130.002 219.458C144.578 219.458 158.523 217.729 171.362 214.573L178.692 251.874L207.784 200.159Z" fill="#3E5F72" stroke="#3E5F72" stroke-width="8.125" stroke-linejoin="round"/>
<circle cx="13.5037" cy="13.5037" r="13.5037" transform="matrix(-0.965926 -0.258819 -0.258819 0.965926 101.11 137.526)" fill="#3E5F72" stroke="#3E5F72" stroke-width="8.125" stroke-linejoin="round"/>
<circle cx="13.5037" cy="13.5037" r="13.5037" transform="matrix(-0.965926 -0.258819 -0.258819 0.965926 146.544 137.526)" fill="#3E5F72" stroke="#3E5F72" stroke-width="8.125" stroke-linejoin="round"/>
<circle cx="13.5037" cy="13.5037" r="13.5037" transform="matrix(-0.965926 -0.258819 -0.258819 0.965926 191.969 137.524)" fill="#3E5F72" stroke="#3E5F72" stroke-width="8.125" stroke-linejoin="round"/>
<path fill-rule="evenodd" clip-rule="evenodd" d="M212.191 147.085C236.578 132.468 251.875 111.437 251.875 88.0615C251.875 43.9139 197.31 8.125 130 8.125C62.6903 8.125 8.125 43.9139 8.125 88.0615C8.125 132.209 62.6903 167.998 130 167.998C145.403 167.998 160.138 166.124 173.705 162.705L181.449 203.125L212.191 147.085Z" fill="#F1F5F7" stroke="#3E5F72" stroke-width="8.125" stroke-linejoin="round"/>
<circle cx="13.5037" cy="13.5037" r="13.5037" transform="matrix(-0.965926 -0.258819 -0.258819 0.965926 101.11 76.8145)" fill="white" stroke="#3E5F72" stroke-width="8.125" stroke-linejoin="round"/>
<circle cx="13.5037" cy="13.5037" r="13.5037" transform="matrix(-0.965926 -0.258819 -0.258819 0.965926 146.544 76.8145)" fill="white" stroke="#3E5F72" stroke-width="8.125" stroke-linejoin="round"/>
<circle cx="13.5037" cy="13.5037" r="13.5037" transform="matrix(-0.965926 -0.258819 -0.258819 0.965926 191.969 76.8125)" fill="white" stroke="#3E5F72" stroke-width="8.125" stroke-linejoin="round"/>
</svg>
