<svg width="260" height="260" viewBox="0 0 260 260" fill="none" xmlns="http://www.w3.org/2000/svg">
<g clip-path="url(#clip0_2799_2949)">
<path d="M123.675 119.887L11.9497 165.789C24.6359 146.963 35.7977 127.218 45.3618 106.747C46.3571 104.616 45.334 102.05 43.007 101.711C39.2024 101.158 35.1044 101.754 31.0097 103.559C27.0573 105.299 22.9405 105.585 19.2637 104.049C10.1015 100.223 7.09272 86.5321 12.5454 73.4748C17.998 60.4175 29.85 52.9321 39.0122 56.7582C42.6719 58.2865 45.3593 61.3994 46.8975 65.4173C48.5086 69.5996 50.9854 72.9324 54.0749 75.2407C55.9531 76.644 58.4862 75.5646 59.2988 73.3654C67.122 52.1951 73.3076 30.3916 77.773 8.16086L123.675 119.887Z" fill="#7397AB" stroke="#3E5F72" stroke-width="8.125" stroke-linejoin="round"/>
<path fill-rule="evenodd" clip-rule="evenodd" d="M169.576 231.614L123.674 119.887L11.9486 165.788C34.2054 170.258 56.0242 176.452 77.218 184.288C79.4235 185.103 80.5003 187.648 79.0832 189.524C76.7662 192.592 73.4331 195.049 69.2519 196.644C65.2182 198.186 62.0894 200.877 60.554 204.553C56.7279 213.716 64.2134 225.568 77.2706 231.02C90.3279 236.473 104.019 233.464 107.845 224.302C109.373 220.642 109.096 216.539 107.365 212.6C105.571 208.493 104.989 204.382 105.564 200.568C105.913 198.25 108.473 197.237 110.597 198.229C131.044 207.785 150.772 218.943 169.576 231.614Z" fill="#3E5F72" stroke="#3E5F72" stroke-width="8.125" stroke-linejoin="round"/>
<path fill-rule="evenodd" clip-rule="evenodd" d="M77.7754 8.16064L123.678 119.888L235.403 73.9861C213.146 69.5165 191.328 63.3218 170.134 55.4867C167.928 54.6713 166.852 52.1267 168.269 50.2503C170.586 47.1824 173.919 44.7248 178.1 43.1301C182.134 41.5886 185.262 38.8977 186.798 35.2209C190.624 26.0588 183.138 14.2068 170.081 8.75413C157.024 3.3015 143.333 6.31028 139.507 15.4725C137.978 19.1322 138.256 23.2354 139.986 27.1741C141.781 31.2811 142.362 35.3925 141.788 39.2061C141.439 41.5245 138.879 42.5376 136.755 41.545C116.308 31.9892 96.5796 20.8312 77.7754 8.16064Z" fill="#C7D5DE" stroke="#3E5F72" stroke-width="8.125" stroke-linejoin="round"/>
<path fill-rule="evenodd" clip-rule="evenodd" d="M169.578 231.614L123.676 119.887L235.401 73.9854C222.715 92.8111 211.553 112.556 201.989 133.027C200.994 135.158 202.017 137.724 204.344 138.063C208.149 138.616 212.247 138.02 216.341 136.215C220.294 134.475 224.411 134.189 228.087 135.725C237.25 139.551 240.258 153.242 234.806 166.299C229.353 179.356 217.501 186.842 208.339 183.016C204.679 181.488 201.992 178.375 200.454 174.357C198.842 170.174 196.366 166.842 193.276 164.533C191.398 163.13 188.865 164.209 188.052 166.409C180.229 187.579 174.043 209.383 169.578 231.614Z" fill="#7397AB" stroke="#3E5F72" stroke-width="8.125" stroke-linejoin="round"/>
<path d="M168.032 247.581H118.223L36.6416 56.1431L97.2126 56.1431L143.128 163.887L189.043 56.1431H249.614L168.032 247.581Z" fill="#F1F5F7" stroke="#3E5F72" stroke-width="8.125" stroke-linecap="square"/>
</g>
<defs>
<clipPath id="clip0_2799_2949">
<rect width="260" height="260" fill="white"/>
</clipPath>
</defs>
</svg>
