<svg width="260" height="260" viewBox="0 0 260 260" fill="none" xmlns="http://www.w3.org/2000/svg">
<circle cx="130" cy="130" r="121.875" fill="#3E5F72" stroke="#3E5F72" stroke-width="8.125"/>
<path d="M43.8214 43.8214C55.1385 32.5042 68.5739 23.527 83.3605 17.4022C98.147 11.2774 113.995 8.125 130 8.125L130 130L43.8214 43.8214Z" fill="#F1F5F7" stroke="#3E5F72" stroke-width="8.125"/>
<path d="M8.125 130C8.125 113.995 11.2774 98.147 17.4022 83.3604C23.527 68.5739 32.5042 55.1385 43.8214 43.8213L130 130L8.125 130Z" fill="#C7D5DE" stroke="#3E5F72" stroke-width="8.125"/>
<path d="M130 8.12499C146.005 8.125 161.853 11.2774 176.64 17.4022C191.426 23.527 204.862 32.5042 216.179 43.8214L130 130L130 8.12499Z" fill="#E3EAEE" stroke="#3E5F72" stroke-width="8.125"/>
<path d="M216.179 43.8214C227.496 55.1385 236.473 68.5739 242.598 83.3605C248.723 98.147 251.875 113.995 251.875 130L130 130L216.179 43.8214Z" fill="#C7D5DE" stroke="#3E5F72" stroke-width="8.125"/>
<path d="M43.8214 216.179C32.5042 204.862 23.527 191.426 17.4022 176.64C11.2774 161.853 8.125 146.005 8.125 130L130 130L43.8214 216.179Z" fill="#C7D5DE" stroke="#3E5F72" stroke-width="8.125"/>
<path d="M130 251.875C113.995 251.875 98.147 248.723 83.3604 242.598C68.5739 236.473 55.1385 227.496 43.8213 216.179L130 130L130 251.875Z" fill="#7397AB" stroke="#3E5F72" stroke-width="8.125"/>
<path d="M251.875 130C251.875 146.005 248.723 161.853 242.598 176.64C236.473 191.426 227.496 204.862 216.179 216.179L130 130L251.875 130Z" fill="#7397AB" stroke="#3E5F72" stroke-width="8.125"/>
<path d="M216.179 216.179C204.862 227.496 191.426 236.473 176.64 242.598C161.853 248.723 146.005 251.875 130 251.875L130 130L216.179 216.179Z" fill="#3E5F72" stroke="#3E5F72" stroke-width="8.125"/>
</svg>
