<svg width="260" height="260" viewBox="0 0 260 260" fill="none" xmlns="http://www.w3.org/2000/svg">
<path d="M130 243.752L12.1875 166.338L247.813 166.338L130 243.752Z" fill="#3E5F72" stroke="#3E5F72" stroke-width="8.125" stroke-linejoin="round"/>
<path d="M74.4117 132.382H185.588L247.812 166.337H12.1875L74.4117 132.382Z" fill="#3E5F72" stroke="#3E5F72" stroke-width="8.125" stroke-linejoin="round"/>
<path d="M158.268 132.382H101.737L85.4873 166.196H174.518L158.268 132.382Z" fill="#3E5F72" stroke="#3E5F72" stroke-width="8.125" stroke-linejoin="round"/>
<path d="M130.003 243.751L85.4873 166.196H174.518L130.003 243.751Z" fill="#3E5F72" stroke="#3E5F72" stroke-width="8.125" stroke-linejoin="round"/>
<path d="M130 202.937L12.1875 73.1687L247.813 73.1687L130 202.937Z" fill="#C7D5DE" stroke="#3E5F72" stroke-width="8.125" stroke-linejoin="round"/>
<path d="M74.4117 16.25L185.588 16.25L247.812 73.1687L12.1875 73.1687L74.4117 16.25Z" fill="#F1F5F7" stroke="#3E5F72" stroke-width="8.125" stroke-linejoin="round"/>
<path d="M158.268 16.25L101.737 16.25L85.4873 72.9309H174.518L158.268 16.25Z" fill="#C7D5DE" stroke="#3E5F72" stroke-width="8.125" stroke-linejoin="round"/>
<path d="M130.003 202.936L85.4873 72.9307H174.518L130.003 202.936Z" fill="#F1F5F7" stroke="#3E5F72" stroke-width="8.125" stroke-linejoin="round"/>
</svg>
