<svg width="1920" height="1920" viewBox="0 0 1920 1920" fill="none" xmlns="http://www.w3.org/2000/svg">
<g clip-path="url(#clip0_2773_2777)">
<mask id="path-1-inside-1_2773_2777" fill="white">
<path fill-rule="evenodd" clip-rule="evenodd" d="M204.45 1050.73C63.8394 984.544 47.9446 722.502 168.948 465.446C289.952 208.39 502.033 53.6625 642.644 119.852C783.254 186.042 799.149 448.084 678.146 705.14C557.142 962.196 345.061 1116.92 204.45 1050.73ZM398.272 458.73C377.448 448.928 375.095 410.122 393.014 372.055C410.933 333.987 442.34 311.074 463.164 320.876C483.987 330.678 486.34 369.484 468.421 407.551C450.502 445.618 419.095 468.532 398.272 458.73ZM531.901 437.457C513.982 475.525 516.336 514.331 537.159 524.133C557.982 533.935 589.389 511.021 607.308 472.954C625.228 434.886 622.874 396.081 602.051 386.279C581.228 376.477 549.821 399.39 531.901 437.457Z"/>
</mask>
<path fill-rule="evenodd" clip-rule="evenodd" d="M204.45 1050.73C63.8394 984.544 47.9446 722.502 168.948 465.446C289.952 208.39 502.033 53.6625 642.644 119.852C783.254 186.042 799.149 448.084 678.146 705.14C557.142 962.196 345.061 1116.92 204.45 1050.73ZM398.272 458.73C377.448 448.928 375.095 410.122 393.014 372.055C410.933 333.987 442.34 311.074 463.164 320.876C483.987 330.678 486.34 369.484 468.421 407.551C450.502 445.618 419.095 468.532 398.272 458.73ZM531.901 437.457C513.982 475.525 516.336 514.331 537.159 524.133C557.982 533.935 589.389 511.021 607.308 472.954C625.228 434.886 622.874 396.081 602.051 386.279C581.228 376.477 549.821 399.39 531.901 437.457Z" fill="url(#paint0_linear_2773_2777)"/>
<path d="M531.901 437.457L526.111 434.732L526.111 434.732L531.901 437.457ZM607.308 472.954L601.518 470.228L601.518 470.228L607.308 472.954ZM163.158 462.72C102.289 592.029 75.7043 722.872 82.2055 830.052C88.6904 936.961 128.315 1021.97 201.725 1056.52L207.176 1044.94C139.975 1013.31 101.346 934.2 94.9821 829.277C88.6341 724.625 114.604 595.919 174.739 468.172L163.158 462.72ZM645.369 114.062C571.96 79.5057 481.197 103.135 394.671 166.262C307.926 229.548 224.027 333.412 163.158 462.72L174.739 468.172C234.873 340.424 317.516 238.396 402.215 176.602C487.134 114.648 572.716 94.009 639.918 125.643L645.369 114.062ZM683.936 707.866C744.805 578.557 771.39 447.714 764.888 340.534C758.403 233.625 718.779 148.618 645.369 114.062L639.918 125.643C707.119 157.276 745.747 236.386 752.112 341.309C758.46 445.961 732.49 574.667 672.355 702.414L683.936 707.866ZM201.725 1056.52C275.134 1091.08 365.897 1067.45 452.423 1004.32C539.168 941.038 623.067 837.174 683.936 707.866L672.355 702.414C612.221 830.162 529.578 932.19 444.879 993.984C359.96 1055.94 274.378 1076.58 207.176 1044.94L201.725 1056.52ZM387.224 369.329C377.896 389.143 373.698 409.43 374.726 426.379C375.738 443.057 382.03 458.158 395.546 464.52L400.997 452.939C393.69 449.499 388.394 440.296 387.503 425.604C386.628 411.183 390.212 393.034 398.805 374.78L387.224 369.329ZM465.889 315.085C452.374 308.723 436.726 313.496 423.228 323.344C409.51 333.352 396.551 349.515 387.224 369.329L398.805 374.78C407.397 356.527 419.1 342.2 430.772 333.684C442.663 325.009 453.13 323.226 460.438 326.666L465.889 315.085ZM474.212 410.277C483.539 390.462 487.737 370.175 486.709 353.226C485.697 336.548 479.405 321.447 465.889 315.085L460.438 326.666C467.745 330.106 473.041 339.309 473.932 354.001C474.807 368.423 471.223 386.572 462.631 404.825L474.212 410.277ZM395.546 464.52C409.061 470.882 424.709 466.11 438.207 456.262C451.925 446.254 464.884 430.091 474.212 410.277L462.631 404.825C454.038 423.078 442.335 437.406 430.663 445.921C418.772 454.596 408.305 456.379 400.997 452.939L395.546 464.52ZM539.884 518.342C532.577 514.902 527.281 505.699 526.39 491.007C525.515 476.586 529.099 458.436 537.692 440.183L526.111 434.732C516.783 454.546 512.585 474.833 513.613 491.782C514.625 508.46 520.917 523.561 534.433 529.923L539.884 518.342ZM601.518 470.228C592.925 488.481 581.222 502.809 569.55 511.324C557.659 519.999 547.192 521.782 539.884 518.342L534.433 529.923C547.948 536.285 563.596 531.512 577.094 521.664C590.812 511.657 603.772 495.494 613.099 475.68L601.518 470.228ZM599.325 392.069C606.632 395.509 611.928 404.712 612.82 419.404C613.694 433.825 610.11 451.975 601.518 470.228L613.099 475.68C622.426 455.865 626.624 435.578 625.596 418.629C624.584 401.951 618.292 386.85 604.776 380.488L599.325 392.069ZM537.692 440.183C546.284 421.93 557.987 407.603 569.659 399.087C581.55 390.412 592.017 388.629 599.325 392.069L604.776 380.488C591.261 374.126 575.613 378.899 562.115 388.747C548.398 398.755 535.438 414.918 526.111 434.732L537.692 440.183Z" fill="url(#paint1_linear_2773_2777)" mask="url(#path-1-inside-1_2773_2777)"/>
<path d="M541.881 640.987C485.639 760.464 387.066 832.381 321.711 801.616C256.356 770.852 248.968 649.056 305.21 529.578" stroke="url(#paint2_linear_2773_2777)" stroke-width="6.4" stroke-linecap="round"/>
<path d="M1773.38 203.716L1738.99 769.357C1738.37 779.478 1726.1 784.132 1718.93 776.962L1614.84 672.878C1607.75 665.784 1596.25 665.784 1589.16 672.878L404.105 1857.93C396.804 1865.23 384.311 1860.26 384.025 1849.93L377.051 1597.97C376.894 1592.3 372.336 1587.74 366.668 1587.59L114.702 1580.61C104.381 1580.33 99.4074 1567.83 106.708 1560.53L1291.76 375.481C1298.85 368.388 1298.85 356.886 1291.76 349.792L1187.67 245.709C1180.5 238.538 1185.16 226.262 1195.28 225.646L1760.92 191.259C1767.97 190.83 1773.81 196.666 1773.38 203.716Z" fill="url(#paint3_linear_2773_2777)" stroke="url(#paint4_linear_2773_2777)" stroke-width="6.4"/>
<path d="M980.701 952.533C984.122 948.482 990.666 951.841 989.369 956.982L918.45 1238.17C917.563 1241.69 920.602 1244.95 924.176 1244.31L1245.32 1187.08C1250.73 1186.12 1253.51 1193.32 1248.85 1196.24L997.571 1353.83C994.084 1356.02 994.585 1361.25 998.424 1362.73L1325.71 1489.31C1331.05 1491.37 1329.3 1499.32 1323.59 1498.96L990.019 1477.77C985.66 1477.49 983.066 1482.54 985.833 1485.92L1197.52 1744.59C1201.14 1749.01 1195.7 1755.07 1190.91 1751.94L897.268 1559.82C893.824 1557.56 889.285 1560.2 889.541 1564.31L907.998 1860.35C908.34 1865.83 900.867 1867.77 898.496 1862.82L757.771 1568.53C756.205 1565.25 751.782 1564.69 749.44 1567.46L562.327 1789.01C558.907 1793.06 552.363 1789.7 553.659 1784.56L624.578 1503.37C625.466 1499.85 622.426 1496.59 618.853 1497.23L297.709 1554.46C292.298 1555.42 289.519 1548.22 294.175 1545.3L545.458 1387.71C548.945 1385.52 548.444 1380.3 544.605 1378.81L217.316 1252.24C211.982 1250.17 213.729 1242.22 219.436 1242.58L553.01 1263.77C557.369 1264.05 559.962 1259 557.196 1255.62L345.507 996.952C341.886 992.527 347.329 986.47 352.114 989.601L645.76 1181.72C649.204 1183.98 653.744 1181.34 653.488 1177.23L635.031 881.194C634.689 875.709 642.161 873.768 644.532 878.726L785.257 1173.01C786.823 1176.29 791.246 1176.86 793.588 1174.08L980.701 952.533Z" fill="#AE5EFF" stroke="#FFDD65" stroke-width="6.4"/>
<mask id="path-6-inside-2_2773_2777" fill="white">
<path fill-rule="evenodd" clip-rule="evenodd" d="M887.886 702.158C888.756 697.387 893.866 694.691 898.296 696.668L1151.19 809.525C1156.74 812.002 1162.77 807.177 1161.58 801.218L1011.78 55.5929C1010.16 47.508 998.562 47.6117 997.083 55.7243L921.518 470.083C920.648 474.855 915.537 477.55 911.108 475.574L658.825 362.99C653.16 360.462 647.056 365.529 648.499 371.562L810.228 1048.12C812.11 1055.99 823.414 1055.69 824.866 1047.72L887.886 702.158Z"/>
</mask>
<path fill-rule="evenodd" clip-rule="evenodd" d="M887.886 702.158C888.756 697.387 893.866 694.691 898.296 696.668L1151.19 809.525C1156.74 812.002 1162.77 807.177 1161.58 801.218L1011.78 55.5929C1010.16 47.508 998.562 47.6117 997.083 55.7243L921.518 470.083C920.648 474.855 915.537 477.55 911.108 475.574L658.825 362.99C653.16 360.462 647.056 365.529 648.499 371.562L810.228 1048.12C812.11 1055.99 823.414 1055.69 824.866 1047.72L887.886 702.158Z" fill="url(#paint5_linear_2773_2777)"/>
<path d="M810.228 1048.12L804.003 1049.61L810.228 1048.12ZM824.866 1047.72L818.57 1046.58L824.866 1047.72ZM658.825 362.99L656.217 368.834L658.825 362.99ZM921.518 470.083L927.814 471.231L921.518 470.083ZM911.108 475.574L913.716 469.729L911.108 475.574ZM1011.78 55.5929L1005.5 56.8535L1011.78 55.5929ZM997.083 55.7243L990.786 54.5761L997.083 55.7243ZM1151.19 809.525L1148.58 815.369L1151.19 809.525ZM1161.58 801.218L1167.85 799.958L1161.58 801.218ZM898.296 696.668L895.688 702.512L895.688 702.512L898.296 696.668ZM887.886 702.158L894.182 703.307L887.886 702.158ZM895.688 702.512L1148.58 815.369L1153.8 803.681L900.904 690.823L895.688 702.512ZM1167.85 799.958L1018.05 54.3323L1005.5 56.8535L1155.3 802.479L1167.85 799.958ZM990.786 54.5761L915.222 468.935L927.814 471.231L1003.38 56.8725L990.786 54.5761ZM913.716 469.729L661.434 357.145L656.217 368.834L908.499 481.418L913.716 469.729ZM642.274 373.05L804.003 1049.61L816.452 1046.63L654.723 370.074L642.274 373.05ZM831.162 1048.87L894.182 703.307L881.589 701.01L818.57 1046.58L831.162 1048.87ZM804.003 1049.61C807.495 1064.22 828.468 1063.65 831.162 1048.87L818.57 1046.58C818.483 1047.05 818.322 1047.18 818.254 1047.24C818.128 1047.34 817.881 1047.45 817.534 1047.46C817.188 1047.47 816.935 1047.37 816.803 1047.28C816.733 1047.23 816.564 1047.1 816.452 1046.63L804.003 1049.61ZM661.434 357.145C650.923 352.455 639.598 361.856 642.274 373.05L654.723 370.074C654.515 369.202 655.398 368.469 656.217 368.834L661.434 357.145ZM915.222 468.935C915.096 469.625 914.357 470.015 913.716 469.729L908.499 481.418C916.718 485.086 926.2 480.085 927.814 471.231L915.222 468.935ZM1018.05 54.3323C1015.04 39.3321 993.531 39.5245 990.786 54.5761L1003.38 56.8725C1003.43 56.5928 1003.51 56.4418 1003.55 56.3701C1003.59 56.2965 1003.64 56.245 1003.7 56.2011C1003.82 56.1035 1004.08 55.9875 1004.43 55.9843C1004.79 55.9811 1005.05 56.0926 1005.17 56.1879C1005.23 56.2308 1005.28 56.2814 1005.33 56.3542C1005.37 56.4251 1005.45 56.5748 1005.5 56.8535L1018.05 54.3323ZM1148.58 815.369C1158.88 819.965 1170.07 811.014 1167.85 799.958L1155.3 802.479C1155.47 803.341 1154.6 804.039 1153.8 803.681L1148.58 815.369ZM900.904 690.823C892.686 687.156 883.204 692.157 881.589 701.01L894.182 703.307C894.308 702.616 895.047 702.226 895.688 702.512L900.904 690.823Z" fill="url(#paint6_linear_2773_2777)" mask="url(#path-6-inside-2_2773_2777)"/>
<path d="M1443.39 1233.22C1549.07 1204.18 1643.43 1178.25 1709.69 1084.12C1835.27 905.698 1637.46 683.011 1437.06 871.447L1437.02 871.531C1470.22 598.466 1173.64 570.906 1104.22 777.753C1067.59 886.886 1102.56 978.279 1141.73 1080.63C1169.52 1153.24 1199.41 1231.37 1207.36 1325.26L1207.4 1325.18C1287.77 1275.99 1368.43 1253.82 1443.39 1233.22Z" fill="url(#paint7_linear_2773_2777)" stroke="url(#paint8_linear_2773_2777)" stroke-width="6.4" stroke-linejoin="round"/>
<mask id="path-9-inside-3_2773_2777" fill="white">
<path fill-rule="evenodd" clip-rule="evenodd" d="M1889.35 1389.03C1937.87 1524.94 1775.78 1707.03 1527.32 1795.72C1278.85 1884.42 1038.1 1846.15 989.585 1710.24C941.066 1574.33 1103.15 1392.24 1351.62 1303.55C1600.08 1214.85 1840.83 1253.12 1889.35 1389.03ZM1372.71 1649.16C1379.89 1669.28 1355.89 1696.25 1319.09 1709.38C1282.3 1722.52 1246.64 1716.85 1239.46 1696.72C1232.27 1676.6 1256.28 1649.63 1293.07 1636.5C1329.87 1623.36 1365.52 1629.03 1372.71 1649.16ZM1271.15 1575.11C1307.95 1561.98 1331.95 1535.01 1324.77 1514.88C1317.58 1494.76 1281.93 1489.09 1245.13 1502.22C1208.34 1515.36 1184.33 1542.32 1191.52 1562.45C1198.7 1582.58 1234.36 1588.25 1271.15 1575.11Z"/>
</mask>
<path fill-rule="evenodd" clip-rule="evenodd" d="M1889.35 1389.03C1937.87 1524.94 1775.78 1707.03 1527.32 1795.72C1278.85 1884.42 1038.1 1846.15 989.585 1710.24C941.066 1574.33 1103.15 1392.24 1351.62 1303.55C1600.08 1214.85 1840.83 1253.12 1889.35 1389.03ZM1372.71 1649.16C1379.89 1669.28 1355.89 1696.25 1319.09 1709.38C1282.3 1722.52 1246.64 1716.85 1239.46 1696.72C1232.27 1676.6 1256.28 1649.63 1293.07 1636.5C1329.87 1623.36 1365.52 1629.03 1372.71 1649.16ZM1271.15 1575.11C1307.95 1561.98 1331.95 1535.01 1324.77 1514.88C1317.58 1494.76 1281.93 1489.09 1245.13 1502.22C1208.34 1515.36 1184.33 1542.32 1191.52 1562.45C1198.7 1582.58 1234.36 1588.25 1271.15 1575.11Z" fill="url(#paint9_linear_2773_2777)"/>
<path d="M1319.09 1709.38L1316.94 1703.36L1316.94 1703.36L1319.09 1709.38ZM1372.71 1649.16L1366.68 1651.31L1366.68 1651.31L1372.71 1649.16ZM1239.46 1696.72L1245.49 1694.57L1245.49 1694.57L1239.46 1696.72ZM1293.07 1636.5L1295.22 1642.53L1295.22 1642.53L1293.07 1636.5ZM1324.77 1514.88L1330.79 1512.73L1330.79 1512.73L1324.77 1514.88ZM1271.15 1575.11L1273.3 1581.14L1271.15 1575.11ZM1245.13 1502.22L1247.28 1508.25L1245.13 1502.22ZM1191.52 1562.45L1185.49 1564.6L1185.49 1564.6L1191.52 1562.45ZM1529.47 1801.75C1654.51 1757.11 1758.13 1688.88 1824.48 1614.34C1890.66 1540 1920.79 1458.07 1895.38 1386.88L1883.32 1391.18C1906.43 1455.91 1879.78 1532.97 1814.92 1605.83C1750.25 1678.48 1648.59 1745.64 1525.17 1789.7L1529.47 1801.75ZM983.557 1712.39C1008.97 1783.58 1084.17 1827.9 1182.47 1843.53C1281.03 1859.2 1404.43 1846.39 1529.47 1801.75L1525.17 1789.7C1401.75 1833.76 1280.54 1846.16 1184.48 1830.89C1088.15 1815.57 1018.72 1772.81 995.612 1708.09L983.557 1712.39ZM1349.47 1297.52C1224.42 1342.16 1120.81 1410.39 1054.45 1484.93C988.276 1559.27 958.145 1641.2 983.557 1712.39L995.612 1708.09C972.506 1643.36 999.16 1566.3 1064.01 1493.44C1128.69 1420.79 1230.35 1353.63 1353.77 1309.57L1349.47 1297.52ZM1895.38 1386.88C1869.97 1315.69 1794.76 1271.37 1696.47 1255.74C1597.91 1240.07 1474.51 1252.88 1349.47 1297.52L1353.77 1309.57C1477.19 1265.51 1598.4 1253.11 1694.46 1268.38C1790.79 1283.7 1860.22 1326.46 1883.32 1391.18L1895.38 1386.88ZM1321.24 1715.41C1340.45 1708.55 1356.63 1697.99 1367.17 1686.15C1377.54 1674.51 1383.48 1660.3 1378.73 1647.01L1366.68 1651.31C1369.12 1658.14 1366.65 1667.48 1357.61 1677.64C1348.75 1687.59 1334.53 1697.08 1316.94 1703.36L1321.24 1715.41ZM1233.43 1698.88C1238.18 1712.17 1251.77 1719.4 1267.17 1721.85C1282.83 1724.34 1302.03 1722.27 1321.24 1715.41L1316.94 1703.36C1299.36 1709.63 1282.34 1711.3 1269.18 1709.21C1255.75 1707.07 1247.93 1701.41 1245.49 1694.57L1233.43 1698.88ZM1290.92 1630.47C1271.71 1637.33 1255.54 1647.89 1244.99 1659.73C1234.63 1671.38 1228.69 1685.58 1233.43 1698.88L1245.49 1694.57C1243.05 1687.74 1245.51 1678.4 1254.55 1668.24C1263.41 1658.29 1277.64 1648.8 1295.22 1642.53L1290.92 1630.47ZM1378.73 1647.01C1373.99 1633.71 1360.39 1626.48 1345 1624.03C1329.34 1621.54 1310.13 1623.61 1290.92 1630.47L1295.22 1642.53C1312.81 1636.25 1329.83 1634.58 1342.99 1636.67C1356.42 1638.81 1364.24 1644.48 1366.68 1651.31L1378.73 1647.01ZM1318.74 1517.04C1321.18 1523.87 1318.71 1533.21 1309.67 1543.36C1300.81 1553.32 1286.59 1562.81 1269 1569.08L1273.3 1581.14C1292.51 1574.28 1308.69 1563.72 1319.23 1551.87C1329.6 1540.23 1335.54 1526.03 1330.79 1512.73L1318.74 1517.04ZM1247.28 1508.25C1264.87 1501.97 1281.89 1500.31 1295.05 1502.4C1308.48 1504.54 1316.3 1510.2 1318.74 1517.04L1330.79 1512.73C1326.05 1499.44 1312.45 1492.21 1297.06 1489.76C1281.4 1487.27 1262.19 1489.34 1242.98 1496.2L1247.28 1508.25ZM1197.55 1560.3C1195.11 1553.47 1197.57 1544.13 1206.61 1533.97C1215.47 1524.02 1229.7 1514.53 1247.28 1508.25L1242.98 1496.2C1223.77 1503.05 1207.6 1513.62 1197.05 1525.46C1186.69 1537.1 1180.75 1551.31 1185.49 1564.6L1197.55 1560.3ZM1269 1569.08C1251.42 1575.36 1234.4 1577.03 1221.24 1574.93C1207.81 1572.8 1199.99 1567.13 1197.55 1560.3L1185.49 1564.6C1190.24 1577.9 1203.83 1585.13 1219.23 1587.58C1234.89 1590.06 1254.09 1588 1273.3 1581.14L1269 1569.08Z" fill="url(#paint10_linear_2773_2777)" mask="url(#path-9-inside-3_2773_2777)"/>
<path d="M1689.39 1589.38C1573.91 1630.6 1462.01 1612.81 1439.46 1549.64C1416.91 1486.47 1492.24 1401.84 1607.73 1360.61" stroke="url(#paint11_linear_2773_2777)" stroke-width="6.4" stroke-linecap="round"/>
</g>
<defs>
<linearGradient id="paint0_linear_2773_2777" x1="678.146" y1="705.14" x2="168.948" y2="465.446" gradientUnits="userSpaceOnUse">
<stop stop-color="#FFC8D8"/>
<stop offset="0.2" stop-color="#FFC1F2"/>
<stop offset="0.4" stop-color="#ECBAFF"/>
<stop offset="0.6" stop-color="#C5B3FF"/>
<stop offset="0.8" stop-color="#ACC2FF"/>
<stop offset="1" stop-color="#A5E9FF"/>
</linearGradient>
<linearGradient id="paint1_linear_2773_2777" x1="678.146" y1="705.14" x2="168.948" y2="465.446" gradientUnits="userSpaceOnUse">
<stop stop-color="#FFAA5C"/>
<stop offset="0.315625" stop-color="#FF7082"/>
<stop offset="0.664583" stop-color="#FF49C0"/>
<stop offset="1" stop-color="#AE5EFF"/>
</linearGradient>
<linearGradient id="paint2_linear_2773_2777" x1="254.292" y1="637.745" x2="490.964" y2="749.153" gradientUnits="userSpaceOnUse">
<stop stop-color="#FFAA5C"/>
<stop offset="0.315625" stop-color="#FF7082"/>
<stop offset="0.664583" stop-color="#FF49C0"/>
<stop offset="1" stop-color="#AE5EFF"/>
</linearGradient>
<linearGradient id="paint3_linear_2773_2777" x1="297.902" y1="1637.45" x2="1772.46" y2="198.728" gradientUnits="userSpaceOnUse">
<stop stop-color="#FFDD65"/>
<stop offset="0.253125" stop-color="#FFAA5C"/>
<stop offset="0.508333" stop-color="#FF7082"/>
<stop offset="0.747917" stop-color="#FF49C0"/>
<stop offset="1" stop-color="#AE5EFF"/>
</linearGradient>
<linearGradient id="paint4_linear_2773_2777" x1="1762.22" y1="219.208" x2="287.662" y2="1642.57" gradientUnits="userSpaceOnUse">
<stop stop-color="#FFDD65"/>
<stop offset="0.253125" stop-color="#FFAA5C"/>
<stop offset="0.508333" stop-color="#FF7082"/>
<stop offset="0.747917" stop-color="#FF49C0"/>
<stop offset="1" stop-color="#AE5EFF"/>
</linearGradient>
<linearGradient id="paint5_linear_2773_2777" x1="1059.07" y1="253.779" x2="795.321" y2="1049" gradientUnits="userSpaceOnUse">
<stop stop-color="#FFDD65"/>
<stop offset="1" stop-color="#FFAA5C"/>
</linearGradient>
<linearGradient id="paint6_linear_2773_2777" x1="1036.18" y1="57.2101" x2="790.66" y2="1047.45" gradientUnits="userSpaceOnUse">
<stop stop-color="#FFAA5C"/>
<stop offset="0.315625" stop-color="#FF7082"/>
<stop offset="0.664583" stop-color="#FF49C0"/>
<stop offset="1" stop-color="#AE5EFF"/>
</linearGradient>
<linearGradient id="paint7_linear_2773_2777" x1="1505.06" y1="737.115" x2="1207.36" y2="1325.26" gradientUnits="userSpaceOnUse">
<stop stop-color="#EBFF6E"/>
<stop offset="0.2" stop-color="#F5FF6C"/>
<stop offset="0.4" stop-color="#FFFE6A"/>
<stop offset="0.6" stop-color="#FFF369"/>
<stop offset="0.8" stop-color="#FFE867"/>
<stop offset="1" stop-color="#FFDD65"/>
</linearGradient>
<linearGradient id="paint8_linear_2773_2777" x1="1505.06" y1="737.115" x2="1207.36" y2="1325.26" gradientUnits="userSpaceOnUse">
<stop stop-color="#FFAA5C"/>
<stop offset="0.315625" stop-color="#FF7082"/>
<stop offset="0.664583" stop-color="#FF49C0"/>
<stop offset="1" stop-color="#AE5EFF"/>
</linearGradient>
<linearGradient id="paint9_linear_2773_2777" x1="1351.62" y1="1303.55" x2="1527.32" y2="1795.72" gradientUnits="userSpaceOnUse">
<stop stop-color="#EBFF6E"/>
<stop offset="0.2" stop-color="#D1FE76"/>
<stop offset="0.4" stop-color="#BBFD7D"/>
<stop offset="0.6" stop-color="#A8FC84"/>
<stop offset="0.8" stop-color="#97FC8C"/>
<stop offset="1" stop-color="#93FB9C"/>
</linearGradient>
<linearGradient id="paint10_linear_2773_2777" x1="1351.62" y1="1303.55" x2="1527.32" y2="1795.72" gradientUnits="userSpaceOnUse">
<stop stop-color="#FFAA5C"/>
<stop offset="0.315625" stop-color="#FF7082"/>
<stop offset="0.664583" stop-color="#FF49C0"/>
<stop offset="1" stop-color="#AE5EFF"/>
</linearGradient>
<linearGradient id="paint11_linear_2773_2777" x1="1503.18" y1="1397.94" x2="1584.84" y2="1626.7" gradientUnits="userSpaceOnUse">
<stop stop-color="#FFAA5C"/>
<stop offset="0.315625" stop-color="#FF7082"/>
<stop offset="0.664583" stop-color="#FF49C0"/>
<stop offset="1" stop-color="#AE5EFF"/>
</linearGradient>
<clipPath id="clip0_2773_2777">
<rect width="1920" height="1920" fill="white"/>
</clipPath>
</defs>
</svg>
