<svg width="1920" height="1920" viewBox="0 0 1920 1920" fill="none" xmlns="http://www.w3.org/2000/svg">
<g clip-path="url(#clip0_2773_2801)">
<mask id="path-1-inside-1_2773_2801" fill="white">
<path d="M75.5074 1310.72C75.5074 1184.65 98.3686 1059.82 142.786 943.343C187.203 826.87 252.306 721.04 334.378 631.896C416.45 542.752 513.884 472.039 621.117 423.794C728.349 375.55 843.28 350.719 959.348 350.719C1075.42 350.719 1190.35 375.55 1297.58 423.794C1404.81 472.039 1502.24 542.752 1584.32 631.896C1666.39 721.041 1731.49 826.87 1775.91 943.343C1820.33 1059.82 1843.19 1184.65 1843.19 1310.72L959.347 1310.72L75.5074 1310.72Z"/>
</mask>
<path d="M75.5074 1310.72C75.5074 1184.65 98.3686 1059.82 142.786 943.343C187.203 826.87 252.306 721.04 334.378 631.896C416.45 542.752 513.884 472.039 621.117 423.794C728.349 375.55 843.28 350.719 959.348 350.719C1075.42 350.719 1190.35 375.55 1297.58 423.794C1404.81 472.039 1502.24 542.752 1584.32 631.896C1666.39 721.041 1731.49 826.87 1775.91 943.343C1820.33 1059.82 1843.19 1184.65 1843.19 1310.72L959.347 1310.72L75.5074 1310.72Z" fill="#F1F5F7" stroke="#212132" stroke-width="12.8" mask="url(#path-1-inside-1_2773_2801)"/>
<rect x="531.809" y="349.253" width="787.2" height="564.032" fill="white" stroke="#212132" stroke-width="6.4"/>
<path d="M528.609 523.096L1322.21 523.096M1076.38 711.983H1322.21" stroke="#212132" stroke-width="6.4"/>
<path d="M648.477 325.57L648.477 952.322" stroke="#212132" stroke-width="6.4"/>
<path d="M1054.84 302.873L859.677 496.986C843.091 513.683 843.913 542.348 865.062 557.57C880.538 568.644 903.334 565.816 918.06 550.994L1139.23 330.699C1164.97 304.793 1164.83 262.769 1138.93 237.03C1113.02 211.292 1071 211.429 1045.26 237.335L935.672 349.44" stroke="#212132" stroke-width="6.4"/>
<path d="M1093.52 957.784L766.081 792.063L766.081 679.767L1153.91 876.056L1153.91 1045.23L766.075 1241.51L766.075 1129.22L1093.52 963.494L1099.16 960.639L1093.52 957.784Z" fill="#FFDD65" stroke="#212132" stroke-width="6.4"/>
<mask id="mask0_2773_2801" style="mask-type:alpha" maskUnits="userSpaceOnUse" x="75" y="1310" width="1769" height="354">
<rect x="1843.21" y="1664" width="1767.68" height="353.28" transform="rotate(-180 1843.21 1664)" fill="#212132" fill-opacity="0.38"/>
</mask>
<g mask="url(#mask0_2773_2801)">
<path fill-rule="evenodd" clip-rule="evenodd" d="M4631.76 457.08L1024.29 3978.78L1013.45 3968.2L4620.92 446.498L4631.76 457.08Z" fill="white" fill-opacity="0.6"/>
<path fill-rule="evenodd" clip-rule="evenodd" d="M4699.75 457.08L1092.28 3978.78L1081.44 3968.2L4688.91 446.498L4699.75 457.08Z" fill="white" fill-opacity="0.6"/>
<path fill-rule="evenodd" clip-rule="evenodd" d="M4767.72 457.08L1160.25 3978.78L1149.41 3968.2L4756.88 446.498L4767.72 457.08Z" fill="white" fill-opacity="0.6"/>
<path fill-rule="evenodd" clip-rule="evenodd" d="M4835.71 457.08L1228.24 3978.78L1217.4 3968.2L4824.87 446.498L4835.71 457.08Z" fill="white" fill-opacity="0.6"/>
<path fill-rule="evenodd" clip-rule="evenodd" d="M4903.69 457.08L1296.21 3978.78L1285.38 3968.2L4892.85 446.498L4903.69 457.08Z" fill="white" fill-opacity="0.6"/>
<path fill-rule="evenodd" clip-rule="evenodd" d="M4971.67 457.08L1364.2 3978.78L1353.36 3968.2L4960.83 446.498L4971.67 457.08Z" fill="white" fill-opacity="0.6"/>
<path fill-rule="evenodd" clip-rule="evenodd" d="M5039.66 457.08L1432.19 3978.78L1421.35 3968.2L5028.82 446.498L5039.66 457.08Z" fill="white" fill-opacity="0.6"/>
<path fill-rule="evenodd" clip-rule="evenodd" d="M5107.64 457.08L1500.17 3978.78L1489.33 3968.2L5096.8 446.498L5107.64 457.08Z" fill="white" fill-opacity="0.6"/>
<path fill-rule="evenodd" clip-rule="evenodd" d="M5175.62 457.08L1568.15 3978.78L1557.31 3968.2L5164.78 446.498L5175.62 457.08Z" fill="white" fill-opacity="0.6"/>
<path fill-rule="evenodd" clip-rule="evenodd" d="M5243.62 457.08L1636.14 3978.78L1625.3 3968.2L5232.78 446.498L5243.62 457.08Z" fill="white" fill-opacity="0.6"/>
<path fill-rule="evenodd" clip-rule="evenodd" d="M5311.59 457.08L1704.12 3978.78L1693.28 3968.2L5300.75 446.498L5311.59 457.08Z" fill="white" fill-opacity="0.6"/>
<path fill-rule="evenodd" clip-rule="evenodd" d="M5379.56 457.08L1772.09 3978.78L1761.25 3968.2L5368.72 446.498L5379.56 457.08Z" fill="white" fill-opacity="0.6"/>
<path fill-rule="evenodd" clip-rule="evenodd" d="M5447.55 457.08L1840.08 3978.78L1829.24 3968.2L5436.71 446.498L5447.55 457.08Z" fill="white" fill-opacity="0.6"/>
<path fill-rule="evenodd" clip-rule="evenodd" d="M4563.78 457.08L956.309 3978.78L945.469 3968.2L4552.94 446.498L4563.78 457.08Z" fill="white" fill-opacity="0.6"/>
<path fill-rule="evenodd" clip-rule="evenodd" d="M4495.8 457.08L888.324 3978.78L877.484 3968.2L4484.96 446.498L4495.8 457.08Z" fill="white" fill-opacity="0.6"/>
<path fill-rule="evenodd" clip-rule="evenodd" d="M4427.82 457.08L820.348 3978.78L809.508 3968.2L4416.98 446.498L4427.82 457.08Z" fill="white" fill-opacity="0.6"/>
<path fill-rule="evenodd" clip-rule="evenodd" d="M4359.83 457.08L752.356 3978.78L741.516 3968.2L4348.99 446.498L4359.83 457.08Z" fill="white" fill-opacity="0.6"/>
<path fill-rule="evenodd" clip-rule="evenodd" d="M4291.86 457.08L684.387 3978.78L673.547 3968.2L4281.02 446.498L4291.86 457.08Z" fill="white" fill-opacity="0.6"/>
<path fill-rule="evenodd" clip-rule="evenodd" d="M4223.87 457.08L616.395 3978.78L605.555 3968.2L4213.03 446.498L4223.87 457.08Z" fill="white" fill-opacity="0.6"/>
<path fill-rule="evenodd" clip-rule="evenodd" d="M4155.87 457.08L548.402 3978.78L537.562 3968.2L4145.03 446.498L4155.87 457.08Z" fill="white" fill-opacity="0.6"/>
<path fill-rule="evenodd" clip-rule="evenodd" d="M4087.9 457.08L480.434 3978.78L469.594 3968.2L4077.06 446.498L4087.9 457.08Z" fill="white" fill-opacity="0.6"/>
<path fill-rule="evenodd" clip-rule="evenodd" d="M4019.93 457.08L412.457 3978.78L401.617 3968.2L4009.09 446.498L4019.93 457.08Z" fill="white" fill-opacity="0.6"/>
<path fill-rule="evenodd" clip-rule="evenodd" d="M3951.94 457.08L344.465 3978.78L333.625 3968.2L3941.1 446.498L3951.94 457.08Z" fill="white" fill-opacity="0.6"/>
<path fill-rule="evenodd" clip-rule="evenodd" d="M3883.95 457.08L276.481 3978.78L265.641 3968.2L3873.11 446.498L3883.95 457.08Z" fill="white" fill-opacity="0.6"/>
<path fill-rule="evenodd" clip-rule="evenodd" d="M3815.98 457.08L208.504 3978.78L197.664 3968.2L3805.14 446.498L3815.98 457.08Z" fill="white" fill-opacity="0.6"/>
<path fill-rule="evenodd" clip-rule="evenodd" d="M3747.98 457.08L140.512 3978.78L129.672 3968.2L3737.14 446.498L3747.98 457.08Z" fill="white" fill-opacity="0.6"/>
<path fill-rule="evenodd" clip-rule="evenodd" d="M3680 457.08L72.5275 3978.78L61.6875 3968.2L3669.16 446.498L3680 457.08Z" fill="white" fill-opacity="0.6"/>
<path fill-rule="evenodd" clip-rule="evenodd" d="M3612.02 457.08L4.55089 3978.78L-6.28906 3968.2L3601.18 446.498L3612.02 457.08Z" fill="white" fill-opacity="0.6"/>
<path fill-rule="evenodd" clip-rule="evenodd" d="M3544.03 457.08L-63.4413 3978.78L-74.2812 3968.2L3533.19 446.498L3544.03 457.08Z" fill="white" fill-opacity="0.6"/>
<path fill-rule="evenodd" clip-rule="evenodd" d="M3476.06 457.08L-131.41 3978.78L-142.25 3968.2L3465.22 446.498L3476.06 457.08Z" fill="white" fill-opacity="0.6"/>
<path fill-rule="evenodd" clip-rule="evenodd" d="M3408.07 457.08L-199.402 3978.78L-210.242 3968.2L3397.23 446.498L3408.07 457.08Z" fill="white" fill-opacity="0.6"/>
<path fill-rule="evenodd" clip-rule="evenodd" d="M3340.09 457.08L-267.379 3978.78L-278.219 3968.2L3329.25 446.498L3340.09 457.08Z" fill="white" fill-opacity="0.6"/>
<path fill-rule="evenodd" clip-rule="evenodd" d="M3272.11 457.08L-335.363 3978.78L-346.203 3968.2L3261.27 446.498L3272.11 457.08Z" fill="white" fill-opacity="0.6"/>
<path fill-rule="evenodd" clip-rule="evenodd" d="M3204.12 457.08L-403.355 3978.78L-414.195 3968.2L3193.28 446.498L3204.12 457.08Z" fill="white" fill-opacity="0.6"/>
<path fill-rule="evenodd" clip-rule="evenodd" d="M3136.14 457.08L-471.332 3978.78L-482.172 3968.2L3125.3 446.498L3136.14 457.08Z" fill="white" fill-opacity="0.6"/>
<path fill-rule="evenodd" clip-rule="evenodd" d="M3068.17 457.08L-539.301 3978.78L-550.141 3968.2L3057.33 446.498L3068.17 457.08Z" fill="white" fill-opacity="0.6"/>
<path fill-rule="evenodd" clip-rule="evenodd" d="M3000.18 457.08L-607.293 3978.78L-618.133 3968.2L2989.34 446.498L3000.18 457.08Z" fill="white" fill-opacity="0.6"/>
<path fill-rule="evenodd" clip-rule="evenodd" d="M2930.98 457.869L-676.496 3979.57L-687.336 3968.99L2920.14 447.287L2930.98 457.869Z" fill="white" fill-opacity="0.6"/>
<path fill-rule="evenodd" clip-rule="evenodd" d="M2858.22 457.869L-749.254 3979.57L-760.094 3968.99L2847.38 447.287L2858.22 457.869Z" fill="white" fill-opacity="0.6"/>
<path fill-rule="evenodd" clip-rule="evenodd" d="M2785.48 457.869L-821.996 3979.57L-832.836 3968.99L2774.64 447.287L2785.48 457.869Z" fill="white" fill-opacity="0.6"/>
<path fill-rule="evenodd" clip-rule="evenodd" d="M2712.73 457.869L-894.738 3979.57L-905.578 3968.99L2701.89 447.287L2712.73 457.869Z" fill="white" fill-opacity="0.6"/>
<path fill-rule="evenodd" clip-rule="evenodd" d="M2640 457.869L-967.473 3979.57L-978.312 3968.99L2629.16 447.287L2640 457.869Z" fill="white" fill-opacity="0.6"/>
<path fill-rule="evenodd" clip-rule="evenodd" d="M2567.26 457.869L-1040.21 3979.57L-1051.05 3968.99L2556.42 447.287L2567.26 457.869Z" fill="white" fill-opacity="0.6"/>
<path fill-rule="evenodd" clip-rule="evenodd" d="M2494.51 457.869L-1112.96 3979.57L-1123.8 3968.99L2483.67 447.287L2494.51 457.869Z" fill="white" fill-opacity="0.6"/>
<path fill-rule="evenodd" clip-rule="evenodd" d="M2421.77 457.869L-1185.7 3979.57L-1196.54 3968.99L2410.93 447.287L2421.77 457.869Z" fill="white" fill-opacity="0.6"/>
<path fill-rule="evenodd" clip-rule="evenodd" d="M2349.01 457.869L-1258.46 3979.57L-1269.3 3968.99L2338.17 447.287L2349.01 457.869Z" fill="white" fill-opacity="0.6"/>
<path fill-rule="evenodd" clip-rule="evenodd" d="M2276.27 457.869L-1331.2 3979.57L-1342.04 3968.99L2265.43 447.287L2276.27 457.869Z" fill="white" fill-opacity="0.6"/>
<path fill-rule="evenodd" clip-rule="evenodd" d="M2203.53 457.869L-1403.94 3979.57L-1414.78 3968.99L2192.69 447.287L2203.53 457.869Z" fill="white" fill-opacity="0.6"/>
<path fill-rule="evenodd" clip-rule="evenodd" d="M2130.8 457.869L-1476.68 3979.57L-1487.52 3968.99L2119.96 447.287L2130.8 457.869Z" fill="white" fill-opacity="0.6"/>
<path fill-rule="evenodd" clip-rule="evenodd" d="M2058.05 457.869L-1549.42 3979.57L-1560.26 3968.99L2047.21 447.287L2058.05 457.869Z" fill="white" fill-opacity="0.6"/>
<path fill-rule="evenodd" clip-rule="evenodd" d="M1985.31 457.869L-1622.16 3979.57L-1633 3968.99L1974.47 447.287L1985.31 457.869Z" fill="white" fill-opacity="0.6"/>
<path fill-rule="evenodd" clip-rule="evenodd" d="M1912.55 457.869L-1694.92 3979.57L-1705.76 3968.99L1901.71 447.287L1912.55 457.869Z" fill="white" fill-opacity="0.6"/>
<path fill-rule="evenodd" clip-rule="evenodd" d="M1839.83 457.869L-1767.64 3979.57L-1778.48 3968.99L1828.99 447.287L1839.83 457.869Z" fill="white" fill-opacity="0.6"/>
<path fill-rule="evenodd" clip-rule="evenodd" d="M1767.08 457.869L-1840.39 3979.57L-1851.23 3968.99L1756.24 447.287L1767.08 457.869Z" fill="white" fill-opacity="0.6"/>
<path fill-rule="evenodd" clip-rule="evenodd" d="M1694.33 457.869L-1913.14 3979.57L-1923.98 3968.99L1683.49 447.287L1694.33 457.869Z" fill="white" fill-opacity="0.6"/>
<path fill-rule="evenodd" clip-rule="evenodd" d="M1621.59 457.869L-1985.88 3979.57L-1996.72 3968.99L1610.75 447.287L1621.59 457.869Z" fill="white" fill-opacity="0.6"/>
<path fill-rule="evenodd" clip-rule="evenodd" d="M1548.85 457.869L-2058.62 3979.57L-2069.46 3968.99L1538.01 447.287L1548.85 457.869Z" fill="white" fill-opacity="0.6"/>
<path fill-rule="evenodd" clip-rule="evenodd" d="M1476.11 457.869L-2131.36 3979.57L-2142.2 3968.99L1465.27 447.287L1476.11 457.869Z" fill="white" fill-opacity="0.6"/>
<path fill-rule="evenodd" clip-rule="evenodd" d="M1403.37 457.869L-2204.11 3979.57L-2214.95 3968.99L1392.53 447.287L1403.37 457.869Z" fill="white" fill-opacity="0.6"/>
<path fill-rule="evenodd" clip-rule="evenodd" d="M1330.62 457.869L-2276.85 3979.57L-2287.69 3968.99L1319.78 447.287L1330.62 457.869Z" fill="white" fill-opacity="0.6"/>
<path fill-rule="evenodd" clip-rule="evenodd" d="M1257.87 457.869L-2349.61 3979.57L-2360.45 3968.99L1247.03 447.287L1257.87 457.869Z" fill="white" fill-opacity="0.6"/>
<path fill-rule="evenodd" clip-rule="evenodd" d="M1185.13 457.869L-2422.34 3979.57L-2433.18 3968.99L1174.29 447.287L1185.13 457.869Z" fill="white" fill-opacity="0.6"/>
<path fill-rule="evenodd" clip-rule="evenodd" d="M1112.39 457.869L-2495.08 3979.57L-2505.92 3968.99L1101.55 447.287L1112.39 457.869Z" fill="white" fill-opacity="0.6"/>
<path fill-rule="evenodd" clip-rule="evenodd" d="M1039.65 457.869L-2567.82 3979.57L-2578.66 3968.99L1028.81 447.287L1039.65 457.869Z" fill="white" fill-opacity="0.6"/>
<path fill-rule="evenodd" clip-rule="evenodd" d="M966.905 457.869L-2640.57 3979.57L-2651.41 3968.99L956.065 447.287L966.905 457.869Z" fill="white" fill-opacity="0.6"/>
<path fill-rule="evenodd" clip-rule="evenodd" d="M894.163 457.869L-2713.31 3979.57L-2724.15 3968.99L883.323 447.287L894.163 457.869Z" fill="white" fill-opacity="0.6"/>
<path fill-rule="evenodd" clip-rule="evenodd" d="M821.42 457.869L-2786.05 3979.57L-2796.89 3968.99L810.58 447.287L821.42 457.869Z" fill="white" fill-opacity="0.6"/>
<path fill-rule="evenodd" clip-rule="evenodd" d="M748.663 457.869L-2858.81 3979.57L-2869.65 3968.99L737.823 447.287L748.663 457.869Z" fill="white" fill-opacity="0.6"/>
<path fill-rule="evenodd" clip-rule="evenodd" d="M675.928 457.869L-2931.54 3979.57L-2942.38 3968.99L665.088 447.287L675.928 457.869Z" fill="white" fill-opacity="0.6"/>
<path fill-rule="evenodd" clip-rule="evenodd" d="M603.186 457.869L-3004.29 3979.57L-3015.12 3968.99L592.346 447.287L603.186 457.869Z" fill="white" fill-opacity="0.6"/>
<path fill-rule="evenodd" clip-rule="evenodd" d="M530.444 457.869L-3077.03 3979.57L-3087.87 3968.99L519.604 447.287L530.444 457.869Z" fill="white" fill-opacity="0.6"/>
<path fill-rule="evenodd" clip-rule="evenodd" d="M457.702 457.869L-3149.77 3979.57L-3160.61 3968.99L446.862 447.287L457.702 457.869Z" fill="white" fill-opacity="0.6"/>
<path fill-rule="evenodd" clip-rule="evenodd" d="M384.959 457.869L-3222.51 3979.57L-3233.35 3968.99L374.119 447.287L384.959 457.869Z" fill="white" fill-opacity="0.6"/>
<path fill-rule="evenodd" clip-rule="evenodd" d="M312.202 457.869L-3295.27 3979.57L-3306.11 3968.99L301.362 447.287L312.202 457.869Z" fill="white" fill-opacity="0.6"/>
<path fill-rule="evenodd" clip-rule="evenodd" d="M239.467 457.869L-3368 3979.57L-3378.84 3968.99L228.627 447.287L239.467 457.869Z" fill="white" fill-opacity="0.6"/>
<path fill-rule="evenodd" clip-rule="evenodd" d="M166.741 457.869L-3440.73 3979.57L-3451.57 3968.99L155.901 447.287L166.741 457.869Z" fill="white" fill-opacity="0.6"/>
<path fill-rule="evenodd" clip-rule="evenodd" d="M93.9829 457.869L-3513.49 3979.57L-3524.33 3968.99L83.1429 447.287L93.9829 457.869Z" fill="white" fill-opacity="0.6"/>
</g>
<rect x="1843.19" y="1656.32" width="1767.68" height="348.16" transform="rotate(-180 1843.19 1656.32)" fill="#C1D0FF"/>
<rect x="1839.99" y="1662.08" width="1761.28" height="355.84" transform="rotate(-180 1839.99 1662.08)" stroke="#212132" stroke-width="6.4"/>
<mask id="mask1_2773_2801" style="mask-type:alpha" maskUnits="userSpaceOnUse" x="75" y="1308" width="1769" height="349">
<rect x="1843.19" y="1656.32" width="1767.68" height="348.16" transform="rotate(-180 1843.19 1656.32)" fill="#7397AB"/>
</mask>
<g mask="url(#mask1_2773_2801)">
<path fill-rule="evenodd" clip-rule="evenodd" d="M4633.01 -736.627L1025.54 2700.06L1014.7 2689.74L4622.17 -746.954L4633.01 -736.627Z" fill="#212132" fill-opacity="0.1"/>
<path fill-rule="evenodd" clip-rule="evenodd" d="M4701 -736.627L1093.53 2700.06L1082.69 2689.74L4690.16 -746.954L4701 -736.627Z" fill="#212132" fill-opacity="0.1"/>
<path fill-rule="evenodd" clip-rule="evenodd" d="M4768.97 -736.627L1161.5 2700.06L1150.66 2689.74L4758.13 -746.954L4768.97 -736.627Z" fill="#212132" fill-opacity="0.1"/>
<path fill-rule="evenodd" clip-rule="evenodd" d="M4836.96 -736.627L1229.49 2700.06L1218.65 2689.74L4826.12 -746.954L4836.96 -736.627Z" fill="#212132" fill-opacity="0.1"/>
<path fill-rule="evenodd" clip-rule="evenodd" d="M4904.95 -736.627L1297.48 2700.06L1286.64 2689.74L4894.11 -746.954L4904.95 -736.627Z" fill="#212132" fill-opacity="0.1"/>
<path fill-rule="evenodd" clip-rule="evenodd" d="M4972.92 -736.627L1365.45 2700.06L1354.61 2689.74L4962.08 -746.954L4972.92 -736.627Z" fill="#212132" fill-opacity="0.1"/>
<path fill-rule="evenodd" clip-rule="evenodd" d="M5040.91 -736.627L1433.44 2700.06L1422.6 2689.74L5030.07 -746.954L5040.91 -736.627Z" fill="#212132" fill-opacity="0.1"/>
<path fill-rule="evenodd" clip-rule="evenodd" d="M5108.89 -736.627L1501.42 2700.06L1490.58 2689.74L5098.05 -746.954L5108.89 -736.627Z" fill="#212132" fill-opacity="0.1"/>
<path fill-rule="evenodd" clip-rule="evenodd" d="M5176.87 -736.627L1569.4 2700.06L1558.56 2689.74L5166.03 -746.954L5176.87 -736.627Z" fill="#212132" fill-opacity="0.1"/>
<path fill-rule="evenodd" clip-rule="evenodd" d="M5244.87 -736.627L1637.39 2700.06L1626.55 2689.74L5234.03 -746.954L5244.87 -736.627Z" fill="#212132" fill-opacity="0.1"/>
<path fill-rule="evenodd" clip-rule="evenodd" d="M5312.84 -736.627L1705.37 2700.06L1694.53 2689.74L5302 -746.954L5312.84 -736.627Z" fill="#212132" fill-opacity="0.1"/>
<path fill-rule="evenodd" clip-rule="evenodd" d="M5380.81 -736.627L1773.34 2700.06L1762.5 2689.74L5369.97 -746.954L5380.81 -736.627Z" fill="#212132" fill-opacity="0.1"/>
<path fill-rule="evenodd" clip-rule="evenodd" d="M5448.8 -736.627L1841.33 2700.06L1830.49 2689.74L5437.96 -746.954L5448.8 -736.627Z" fill="#212132" fill-opacity="0.1"/>
<path fill-rule="evenodd" clip-rule="evenodd" d="M4565.03 -736.627L957.559 2700.06L946.719 2689.74L4554.19 -746.954L4565.03 -736.627Z" fill="#212132" fill-opacity="0.1"/>
<path fill-rule="evenodd" clip-rule="evenodd" d="M4497.05 -736.627L889.574 2700.06L878.734 2689.74L4486.21 -746.954L4497.05 -736.627Z" fill="#212132" fill-opacity="0.1"/>
<path fill-rule="evenodd" clip-rule="evenodd" d="M4429.07 -736.627L821.598 2700.06L810.758 2689.74L4418.23 -746.954L4429.07 -736.627Z" fill="#212132" fill-opacity="0.1"/>
<path fill-rule="evenodd" clip-rule="evenodd" d="M4361.08 -736.627L753.606 2700.06L742.766 2689.74L4350.24 -746.954L4361.08 -736.627Z" fill="#212132" fill-opacity="0.1"/>
<path fill-rule="evenodd" clip-rule="evenodd" d="M4293.11 -736.627L685.637 2700.06L674.797 2689.74L4282.27 -746.954L4293.11 -736.627Z" fill="#212132" fill-opacity="0.1"/>
<path fill-rule="evenodd" clip-rule="evenodd" d="M4225.12 -736.627L617.645 2700.06L606.805 2689.74L4214.28 -746.954L4225.12 -736.627Z" fill="#212132" fill-opacity="0.1"/>
<path fill-rule="evenodd" clip-rule="evenodd" d="M4157.12 -736.627L549.652 2700.06L538.812 2689.74L4146.28 -746.954L4157.12 -736.627Z" fill="#212132" fill-opacity="0.1"/>
<path fill-rule="evenodd" clip-rule="evenodd" d="M4089.15 -736.627L481.684 2700.06L470.844 2689.74L4078.31 -746.954L4089.15 -736.627Z" fill="#212132" fill-opacity="0.1"/>
<path fill-rule="evenodd" clip-rule="evenodd" d="M4021.18 -736.627L413.707 2700.06L402.867 2689.74L4010.34 -746.954L4021.18 -736.627Z" fill="#212132" fill-opacity="0.1"/>
<path fill-rule="evenodd" clip-rule="evenodd" d="M3953.19 -736.627L345.715 2700.06L334.875 2689.74L3942.35 -746.954L3953.19 -736.627Z" fill="#212132" fill-opacity="0.1"/>
<path fill-rule="evenodd" clip-rule="evenodd" d="M3885.2 -736.627L277.731 2700.06L266.891 2689.74L3874.36 -746.954L3885.2 -736.627Z" fill="#212132" fill-opacity="0.1"/>
<path fill-rule="evenodd" clip-rule="evenodd" d="M3817.22 -736.627L209.754 2700.06L198.914 2689.74L3806.38 -746.954L3817.22 -736.627Z" fill="#212132" fill-opacity="0.1"/>
<path fill-rule="evenodd" clip-rule="evenodd" d="M3749.23 -736.627L141.762 2700.06L130.922 2689.74L3738.39 -746.954L3749.23 -736.627Z" fill="#212132" fill-opacity="0.1"/>
<path fill-rule="evenodd" clip-rule="evenodd" d="M3681.25 -736.627L73.7775 2700.06L62.9375 2689.74L3670.41 -746.954L3681.25 -736.627Z" fill="#212132" fill-opacity="0.1"/>
<path fill-rule="evenodd" clip-rule="evenodd" d="M3613.27 -736.627L5.80089 2700.06L-5.03906 2689.74L3602.43 -746.954L3613.27 -736.627Z" fill="#212132" fill-opacity="0.1"/>
<path fill-rule="evenodd" clip-rule="evenodd" d="M3545.28 -736.627L-62.1913 2700.06L-73.0312 2689.74L3534.44 -746.954L3545.28 -736.627Z" fill="#212132" fill-opacity="0.1"/>
<path fill-rule="evenodd" clip-rule="evenodd" d="M3477.31 -736.627L-130.16 2700.06L-141 2689.74L3466.47 -746.954L3477.31 -736.627Z" fill="#212132" fill-opacity="0.1"/>
<path fill-rule="evenodd" clip-rule="evenodd" d="M3409.32 -736.627L-198.152 2700.06L-208.992 2689.74L3398.48 -746.954L3409.32 -736.627Z" fill="#212132" fill-opacity="0.1"/>
<path fill-rule="evenodd" clip-rule="evenodd" d="M3341.34 -736.627L-266.129 2700.06L-276.969 2689.74L3330.5 -746.954L3341.34 -736.627Z" fill="#212132" fill-opacity="0.1"/>
<path fill-rule="evenodd" clip-rule="evenodd" d="M3273.36 -736.627L-334.113 2700.06L-344.953 2689.74L3262.52 -746.954L3273.36 -736.627Z" fill="#212132" fill-opacity="0.1"/>
<path fill-rule="evenodd" clip-rule="evenodd" d="M3205.37 -736.627L-402.105 2700.06L-412.945 2689.74L3194.53 -746.954L3205.37 -736.627Z" fill="#212132" fill-opacity="0.1"/>
<path fill-rule="evenodd" clip-rule="evenodd" d="M3137.39 -736.627L-470.082 2700.06L-480.922 2689.74L3126.55 -746.954L3137.39 -736.627Z" fill="#212132" fill-opacity="0.1"/>
<path fill-rule="evenodd" clip-rule="evenodd" d="M3069.42 -736.627L-538.051 2700.06L-548.891 2689.74L3058.58 -746.954L3069.42 -736.627Z" fill="#212132" fill-opacity="0.1"/>
<path fill-rule="evenodd" clip-rule="evenodd" d="M3001.43 -736.627L-606.043 2700.06L-616.883 2689.74L2990.59 -746.954L3001.43 -736.627Z" fill="#212132" fill-opacity="0.1"/>
<path fill-rule="evenodd" clip-rule="evenodd" d="M2932.22 -735.854L-675.246 2700.84L-686.086 2690.51L2921.38 -746.18L2932.22 -735.854Z" fill="#212132" fill-opacity="0.1"/>
<path fill-rule="evenodd" clip-rule="evenodd" d="M2859.47 -735.854L-748.004 2700.84L-758.844 2690.51L2848.63 -746.18L2859.47 -735.854Z" fill="#212132" fill-opacity="0.1"/>
<path fill-rule="evenodd" clip-rule="evenodd" d="M2786.72 -735.854L-820.746 2700.84L-831.586 2690.51L2775.88 -746.18L2786.72 -735.854Z" fill="#212132" fill-opacity="0.1"/>
<path fill-rule="evenodd" clip-rule="evenodd" d="M2713.98 -735.854L-893.488 2700.84L-904.328 2690.51L2703.14 -746.18L2713.98 -735.854Z" fill="#212132" fill-opacity="0.1"/>
<path fill-rule="evenodd" clip-rule="evenodd" d="M2641.25 -735.854L-966.223 2700.84L-977.062 2690.51L2630.41 -746.18L2641.25 -735.854Z" fill="#212132" fill-opacity="0.1"/>
<path fill-rule="evenodd" clip-rule="evenodd" d="M2568.51 -735.854L-1038.96 2700.84L-1049.8 2690.51L2557.67 -746.18L2568.51 -735.854Z" fill="#212132" fill-opacity="0.1"/>
<path fill-rule="evenodd" clip-rule="evenodd" d="M2495.76 -735.854L-1111.71 2700.84L-1122.55 2690.51L2484.92 -746.18L2495.76 -735.854Z" fill="#212132" fill-opacity="0.1"/>
<path fill-rule="evenodd" clip-rule="evenodd" d="M2423.02 -735.854L-1184.45 2700.84L-1195.29 2690.51L2412.18 -746.18L2423.02 -735.854Z" fill="#212132" fill-opacity="0.1"/>
<path fill-rule="evenodd" clip-rule="evenodd" d="M2350.26 -735.854L-1257.21 2700.84L-1268.05 2690.51L2339.42 -746.18L2350.26 -735.854Z" fill="#212132" fill-opacity="0.1"/>
<path fill-rule="evenodd" clip-rule="evenodd" d="M2277.52 -735.854L-1329.95 2700.84L-1340.79 2690.51L2266.68 -746.18L2277.52 -735.854Z" fill="#212132" fill-opacity="0.1"/>
<path fill-rule="evenodd" clip-rule="evenodd" d="M2204.78 -735.854L-1402.69 2700.84L-1413.53 2690.51L2193.94 -746.18L2204.78 -735.854Z" fill="#212132" fill-opacity="0.1"/>
<path fill-rule="evenodd" clip-rule="evenodd" d="M2132.05 -735.854L-1475.43 2700.84L-1486.27 2690.51L2121.21 -746.18L2132.05 -735.854Z" fill="#212132" fill-opacity="0.1"/>
<path fill-rule="evenodd" clip-rule="evenodd" d="M2059.3 -735.854L-1548.17 2700.84L-1559.01 2690.51L2048.46 -746.18L2059.3 -735.854Z" fill="#212132" fill-opacity="0.1"/>
<path fill-rule="evenodd" clip-rule="evenodd" d="M1986.56 -735.854L-1620.91 2700.84L-1631.75 2690.51L1975.72 -746.18L1986.56 -735.854Z" fill="#212132" fill-opacity="0.1"/>
<path fill-rule="evenodd" clip-rule="evenodd" d="M1913.8 -735.854L-1693.67 2700.84L-1704.51 2690.51L1902.96 -746.18L1913.8 -735.854Z" fill="#212132" fill-opacity="0.1"/>
<path fill-rule="evenodd" clip-rule="evenodd" d="M1841.08 -735.854L-1766.39 2700.84L-1777.23 2690.51L1830.24 -746.18L1841.08 -735.854Z" fill="#212132" fill-opacity="0.1"/>
<path fill-rule="evenodd" clip-rule="evenodd" d="M1768.33 -735.854L-1839.14 2700.84L-1849.98 2690.51L1757.49 -746.18L1768.33 -735.854Z" fill="#212132" fill-opacity="0.1"/>
<path fill-rule="evenodd" clip-rule="evenodd" d="M1695.58 -735.854L-1911.89 2700.84L-1922.73 2690.51L1684.74 -746.18L1695.58 -735.854Z" fill="#212132" fill-opacity="0.1"/>
<path fill-rule="evenodd" clip-rule="evenodd" d="M1622.84 -735.854L-1984.63 2700.84L-1995.47 2690.51L1612 -746.18L1622.84 -735.854Z" fill="#212132" fill-opacity="0.1"/>
<path fill-rule="evenodd" clip-rule="evenodd" d="M1550.1 -735.854L-2057.37 2700.84L-2068.21 2690.51L1539.26 -746.18L1550.1 -735.854Z" fill="#212132" fill-opacity="0.1"/>
<path fill-rule="evenodd" clip-rule="evenodd" d="M1477.36 -735.854L-2130.11 2700.84L-2140.95 2690.51L1466.52 -746.18L1477.36 -735.854Z" fill="#212132" fill-opacity="0.1"/>
<path fill-rule="evenodd" clip-rule="evenodd" d="M1404.62 -735.854L-2202.86 2700.84L-2213.7 2690.51L1393.78 -746.18L1404.62 -735.854Z" fill="#212132" fill-opacity="0.1"/>
<path fill-rule="evenodd" clip-rule="evenodd" d="M1331.87 -735.854L-2275.6 2700.84L-2286.44 2690.51L1321.03 -746.18L1331.87 -735.854Z" fill="#212132" fill-opacity="0.1"/>
<path fill-rule="evenodd" clip-rule="evenodd" d="M1259.12 -735.854L-2348.36 2700.84L-2359.2 2690.51L1248.28 -746.18L1259.12 -735.854Z" fill="#212132" fill-opacity="0.1"/>
<path fill-rule="evenodd" clip-rule="evenodd" d="M1186.38 -735.854L-2421.09 2700.84L-2431.93 2690.51L1175.54 -746.18L1186.38 -735.854Z" fill="#212132" fill-opacity="0.1"/>
<path fill-rule="evenodd" clip-rule="evenodd" d="M1113.64 -735.854L-2493.83 2700.84L-2504.67 2690.51L1102.8 -746.18L1113.64 -735.854Z" fill="#212132" fill-opacity="0.1"/>
<path fill-rule="evenodd" clip-rule="evenodd" d="M1040.9 -735.854L-2566.57 2700.84L-2577.41 2690.51L1030.06 -746.18L1040.9 -735.854Z" fill="#212132" fill-opacity="0.1"/>
<path fill-rule="evenodd" clip-rule="evenodd" d="M968.154 -735.854L-2639.32 2700.84L-2650.16 2690.51L957.314 -746.18L968.154 -735.854Z" fill="#212132" fill-opacity="0.1"/>
<path fill-rule="evenodd" clip-rule="evenodd" d="M895.412 -735.854L-2712.06 2700.84L-2722.9 2690.51L884.572 -746.18L895.412 -735.854Z" fill="#212132" fill-opacity="0.1"/>
<path fill-rule="evenodd" clip-rule="evenodd" d="M822.67 -735.854L-2784.8 2700.84L-2795.64 2690.51L811.83 -746.18L822.67 -735.854Z" fill="#212132" fill-opacity="0.1"/>
<path fill-rule="evenodd" clip-rule="evenodd" d="M749.912 -735.854L-2857.56 2700.84L-2868.4 2690.51L739.072 -746.18L749.912 -735.854Z" fill="#212132" fill-opacity="0.1"/>
<path fill-rule="evenodd" clip-rule="evenodd" d="M677.178 -735.854L-2930.29 2700.84L-2941.13 2690.51L666.338 -746.18L677.178 -735.854Z" fill="#212132" fill-opacity="0.1"/>
<path fill-rule="evenodd" clip-rule="evenodd" d="M604.436 -735.854L-3003.04 2700.84L-3013.88 2690.51L593.596 -746.18L604.436 -735.854Z" fill="#212132" fill-opacity="0.1"/>
<path fill-rule="evenodd" clip-rule="evenodd" d="M531.693 -735.854L-3075.78 2700.84L-3086.62 2690.51L520.854 -746.18L531.693 -735.854Z" fill="#212132" fill-opacity="0.1"/>
<path fill-rule="evenodd" clip-rule="evenodd" d="M458.951 -735.854L-3148.52 2700.84L-3159.36 2690.51L448.111 -746.18L458.951 -735.854Z" fill="#212132" fill-opacity="0.1"/>
<path fill-rule="evenodd" clip-rule="evenodd" d="M386.209 -735.854L-3221.26 2700.84L-3232.1 2690.51L375.369 -746.18L386.209 -735.854Z" fill="#212132" fill-opacity="0.1"/>
<path fill-rule="evenodd" clip-rule="evenodd" d="M313.451 -735.854L-3294.02 2700.84L-3304.86 2690.51L302.611 -746.18L313.451 -735.854Z" fill="#212132" fill-opacity="0.1"/>
<path fill-rule="evenodd" clip-rule="evenodd" d="M240.717 -735.854L-3366.75 2700.84L-3377.59 2690.51L229.877 -746.18L240.717 -735.854Z" fill="#212132" fill-opacity="0.1"/>
<path fill-rule="evenodd" clip-rule="evenodd" d="M167.99 -735.854L-3439.48 2700.84L-3450.32 2690.51L157.15 -746.18L167.99 -735.854Z" fill="#212132" fill-opacity="0.1"/>
<path fill-rule="evenodd" clip-rule="evenodd" d="M95.2325 -735.854L-3512.24 2700.84L-3523.08 2690.51L84.3926 -746.18L95.2325 -735.854Z" fill="#212132" fill-opacity="0.1"/>
</g>
<path d="M946.843 1783.71C946.843 1646.22 855.462 1534.72 742.773 1534.72C630.084 1534.72 538.703 1646.22 538.703 1783.71C538.703 1838.89 553.439 1889.96 578.351 1931.19C614.606 1991.1 633.37 2063.81 633.37 2137.93V3624.96H852.811V2136.78C852.811 2062.91 871.469 1990.46 907.407 1930.67C932.213 1889.58 946.843 1838.63 946.843 1783.71Z" fill="white" stroke="#212132" stroke-width="6.4"/>
<path d="M946.843 1783.71C946.843 1646.22 855.462 1534.72 742.773 1534.72C630.084 1534.72 538.703 1646.22 538.703 1783.71C538.703 1838.89 553.439 1889.96 578.351 1931.19C614.606 1991.1 633.37 2063.81 633.37 2137.93V2176.64L644.959 2160.29C652.697 2149.37 668.904 2149.37 676.642 2160.29V2160.29C682.982 2169.23 695.467 2171.16 704.208 2164.54L726.009 2148.02C734.858 2141.32 747.019 2141.08 756.122 2147.44L781.713 2165.3C790.664 2171.55 802.99 2169.32 809.177 2160.33V2160.33C816.994 2148.97 833.769 2148.97 841.585 2160.33L852.811 2176.64V2136.78C852.811 2062.91 871.469 1990.46 907.407 1930.67C932.213 1889.58 946.843 1838.63 946.843 1783.71Z" fill="#212132" stroke="#212132" stroke-width="6.4"/>
<path d="M828.147 1836.16C828.147 1883.24 789.981 1921.41 742.902 1921.41C695.822 1921.41 657.656 1883.24 657.656 1836.16" stroke="white" stroke-width="6.4"/>
<path d="M1380.58 1783.71C1380.58 1646.22 1289.2 1534.72 1176.51 1534.72C1063.82 1534.72 972.438 1646.22 972.438 1783.71C972.438 1838.89 987.173 1889.96 1012.09 1931.19C1048.34 1991.1 1067.1 2063.81 1067.1 2137.93V3624.96H1286.55V2136.78C1286.55 2062.91 1305.2 1990.46 1341.14 1930.67C1365.95 1889.58 1380.58 1838.63 1380.58 1783.71Z" fill="white" stroke="#212132" stroke-width="6.4"/>
<path d="M1380.58 1783.71C1380.58 1646.22 1289.2 1534.72 1176.51 1534.72C1063.82 1534.72 972.438 1646.22 972.438 1783.71C972.438 1838.89 987.173 1889.96 1012.09 1931.19C1048.34 1991.1 1067.1 2063.81 1067.1 2137.93V2176.64L1078.69 2160.29C1086.43 2149.37 1102.64 2149.37 1110.38 2160.29V2160.29C1116.72 2169.23 1129.2 2171.16 1137.94 2164.54L1159.74 2148.02C1168.59 2141.32 1180.75 2141.08 1189.86 2147.44L1215.45 2165.3C1224.4 2171.55 1236.72 2169.32 1242.91 2160.33V2160.33C1250.73 2148.97 1267.5 2148.97 1275.32 2160.33L1286.55 2176.64V2136.78C1286.55 2062.91 1305.2 1990.46 1341.14 1930.67C1365.95 1889.58 1380.58 1838.63 1380.58 1783.71Z" fill="#212132" stroke="#212132" stroke-width="6.4"/>
<path d="M1261.88 1836.16C1261.88 1883.24 1223.72 1921.41 1176.64 1921.41C1129.56 1921.41 1091.39 1883.24 1091.39 1836.16" stroke="white" stroke-width="6.4"/>
<path d="M1814.31 1783.71C1814.31 1646.22 1722.93 1534.72 1610.24 1534.72C1497.55 1534.72 1406.17 1646.22 1406.17 1783.71C1406.17 1838.89 1420.91 1889.96 1445.82 1931.19C1482.08 1991.1 1500.84 2063.81 1500.84 2137.93V3624.96H1720.28V2136.78C1720.28 2062.91 1738.94 1990.46 1774.88 1930.67C1799.68 1889.58 1814.31 1838.63 1814.31 1783.71Z" fill="white" stroke="#212132" stroke-width="6.4"/>
<path d="M1814.31 1783.71C1814.31 1646.22 1722.93 1534.72 1610.24 1534.72C1497.55 1534.72 1406.17 1646.22 1406.17 1783.71C1406.17 1838.89 1420.91 1889.96 1445.82 1931.19C1482.08 1991.1 1500.84 2063.81 1500.84 2137.93V2176.64L1512.43 2160.29C1520.17 2149.37 1536.37 2149.37 1544.11 2160.29V2160.29C1550.45 2169.23 1562.94 2171.16 1571.68 2164.54L1593.48 2148.02C1602.33 2141.32 1614.49 2141.08 1623.59 2147.44L1649.18 2165.3C1658.13 2171.55 1670.46 2169.32 1676.65 2160.33V2160.33C1684.46 2148.97 1701.24 2148.97 1709.05 2160.33L1720.28 2176.64V2136.78C1720.28 2062.91 1738.94 1990.46 1774.88 1930.67C1799.68 1889.58 1814.31 1838.63 1814.31 1783.71Z" fill="#212132" stroke="#212132" stroke-width="6.4"/>
<path d="M1695.62 1836.16C1695.62 1883.24 1657.45 1921.41 1610.37 1921.41C1563.29 1921.41 1525.12 1883.24 1525.12 1836.16" stroke="white" stroke-width="6.4"/>
<path d="M513.1 1783.71C513.1 1646.22 421.72 1534.72 309.031 1534.72C196.342 1534.72 104.961 1646.22 104.961 1783.71C104.961 1838.89 119.696 1889.96 144.609 1931.19C180.864 1991.1 199.628 2063.81 199.628 2137.93V3624.96H419.069V2136.78C419.069 2062.91 437.727 1990.46 473.665 1930.67C498.471 1889.58 513.1 1838.63 513.1 1783.71Z" fill="white" stroke="#212132" stroke-width="6.4"/>
<path d="M513.1 1783.71C513.1 1646.22 421.72 1534.72 309.031 1534.72C196.342 1534.72 104.961 1646.22 104.961 1783.71C104.961 1838.89 119.696 1889.96 144.609 1931.19C180.864 1991.1 199.628 2063.81 199.628 2137.93V2176.64L211.217 2160.29C218.955 2149.37 235.162 2149.37 242.9 2160.29V2160.29C249.24 2169.23 261.725 2171.16 270.465 2164.54L292.267 2148.02C301.116 2141.32 313.277 2141.08 322.379 2147.44L347.971 2165.3C356.921 2171.55 369.247 2169.32 375.435 2160.33V2160.33C383.252 2148.97 400.027 2148.97 407.843 2160.33L419.069 2176.64V2136.78C419.069 2062.91 437.727 1990.46 473.665 1930.67C498.471 1889.58 513.1 1838.63 513.1 1783.71Z" fill="#212132" stroke="#212132" stroke-width="6.4"/>
<path d="M394.405 1836.16C394.405 1883.24 356.239 1921.41 309.159 1921.41C262.08 1921.41 223.914 1883.24 223.914 1836.16" stroke="white" stroke-width="6.4"/>
<g clip-path="url(#clip1_2773_2801)">
<path d="M565.817 499.777C565.817 493.247 565.912 486.845 566.198 480.444C567.532 450.099 571.154 411.944 565.054 382.367C553.999 328.976 502.059 301.448 467.845 281.986C449.832 271.743 427.722 268.542 411.616 283.522C405.611 289.284 400.846 297.094 394.937 302.984C388.076 309.898 379.975 314.251 372.827 320.653C357.674 334.481 347.667 358.168 346.809 382.751C346.428 392.994 347.572 403.237 346.904 413.48C345.665 430.637 339.471 446.13 334.61 462.134C309.736 543.822 333.371 610.273 345.665 690.553C349.192 713.599 359.77 732.421 364.536 754.571C368.348 771.856 367.776 784.532 379.308 797.592C381.5 800.024 383.882 802.329 385.598 805.274C387.408 808.219 388.457 811.932 389.314 815.517C391.506 824.736 392.269 834.594 392.936 844.197C396.272 887.986 398.845 926.525 407.803 968.137C419.621 1022.55 403.896 1079.91 393.984 1134.97C386.169 1178.5 381.881 1224.08 387.599 1268.26C390.458 1290.92 395.986 1313.2 396.462 1336.12C397.129 1367.87 388.266 1398.47 382.071 1429.07C371.493 1480.93 368.062 1534.83 359.484 1587.2C350.717 1641.1 353.099 1693.72 353.099 1749.42C353.099 1870.29 353.099 1991.15 353.099 2112.15C353.099 2220.21 353.099 2328.4 353.099 2436.47C353.099 2447.86 353.099 2459.39 353.099 2470.78H550.377C550.377 2409.84 550.377 2348.89 550.377 2287.94C550.377 2125.85 550.377 1963.75 550.377 1801.66C550.377 1728.55 550.377 1655.57 550.377 1582.46C550.377 1548.91 548.662 1514.34 551.712 1481.44C554.761 1447.89 556.858 1417.42 550.663 1384C537.893 1315.25 525.884 1247.64 515.973 1177.73C511.97 1149.44 507.967 1121.01 499.676 1094.38C489.764 1062.37 473.563 1030.62 477.566 996.305C479.567 979.148 486.524 964.04 492.242 948.547C510.636 899.125 518.07 842.405 513.4 787.477C512.733 779.41 511.78 770.96 513.876 763.278C516.926 752.395 525.217 746.249 530.554 737.158C542.563 717.184 538.56 687.992 543.516 663.281C546.851 646.636 554.285 631.912 558.86 615.779C569.534 579.544 565.817 538.7 565.817 499.777Z" fill="#212132" stroke="#212132" stroke-width="6.4"/>
</g>
<g clip-path="url(#clip2_2773_2801)">
<path d="M1695.9 526.108C1695.9 388.619 1604.52 277.117 1491.83 277.117C1379.14 277.117 1287.76 388.619 1287.76 526.108C1287.76 581.282 1302.49 632.361 1327.41 673.582C1363.66 733.493 1382.42 806.206 1382.42 880.327V2367.36H1601.87V879.175C1601.87 805.31 1620.52 732.853 1656.46 673.07C1681.27 631.977 1695.9 581.026 1695.9 526.108Z" fill="white" stroke="#212132" stroke-width="6.4"/>
<path d="M1695.9 526.108C1695.9 388.619 1604.52 277.117 1491.83 277.117C1379.14 277.117 1287.76 388.619 1287.76 526.108C1287.76 581.282 1302.49 632.361 1327.41 673.582C1363.66 733.493 1382.42 806.206 1382.42 880.327V919.037L1394.01 902.683C1401.75 891.763 1417.96 891.763 1425.7 902.683V902.683C1432.04 911.63 1444.52 913.555 1453.26 906.934L1475.06 890.419C1483.91 883.716 1496.07 883.48 1505.18 889.834L1530.77 907.701C1539.72 913.949 1552.04 911.715 1558.23 902.723V902.723C1566.05 891.364 1582.82 891.364 1590.64 902.723L1601.87 919.037V879.175C1601.87 805.31 1620.52 732.853 1656.46 673.07C1681.27 631.977 1695.9 581.026 1695.9 526.108Z" fill="#212132" stroke="#212132" stroke-width="6.4"/>
<path d="M1577.2 578.559C1577.2 625.638 1539.04 663.804 1491.96 663.804C1444.88 663.804 1406.71 625.638 1406.71 578.559" stroke="white" stroke-width="6.4"/>
</g>
<path d="M1616.01 238.918L1619.2 227.222L1622.38 238.918C1634.79 284.489 1670.73 319.874 1716.49 331.566L1732.99 335.782L1717.67 339.698C1671.27 351.553 1635.01 387.749 1623.08 434.13L1619.2 449.235L1615.31 434.13C1603.38 387.749 1567.13 351.553 1520.73 339.698L1505.4 335.782L1521.9 331.566C1567.66 319.874 1603.6 284.489 1616.01 238.918Z" fill="#F1F5F7" stroke="#212132" stroke-width="6.4"/>
<rect x="1840.01" y="1916.8" width="1761.28" height="257.28" transform="rotate(-180 1840.01 1916.8)" fill="#7397AB" stroke="#212132" stroke-width="6.4"/>
<mask id="mask2_2773_2801" style="mask-type:alpha" maskUnits="userSpaceOnUse" x="75" y="1656" width="1769" height="264">
<rect x="1840.01" y="1916.8" width="1761.28" height="257.28" transform="rotate(-180 1840.01 1916.8)" fill="#7397AB" stroke="#212132" stroke-width="6.4"/>
</mask>
<g mask="url(#mask2_2773_2801)">
</g>
</g>
<defs>
<clipPath id="clip0_2773_2801">
<rect width="1920" height="1920" fill="white"/>
</clipPath>
<clipPath id="clip1_2773_2801">
<rect width="249.6" height="2204.16" fill="white" transform="translate(321.281 270.078)"/>
</clipPath>
<clipPath id="clip2_2773_2801">
<rect width="413.44" height="2096.64" fill="white" transform="translate(1285.12 273.92)"/>
</clipPath>
</defs>
</svg>
