<svg width="1920" height="1920" viewBox="0 0 1920 1920" fill="none" xmlns="http://www.w3.org/2000/svg">
<g clip-path="url(#clip0_2773_3175)">
<g opacity="0.5">
<path d="M483.597 1619.83L422.018 1790.39C364.565 1768.87 311.346 1726.72 280.623 1666.65C249.401 1605.6 241.258 1525.74 275.955 1429.64C315.058 1321.34 415.323 1237.99 506.343 1181.58C551.786 1153.42 594.779 1132.07 626.412 1117.76C642.227 1110.6 655.195 1105.21 664.204 1101.61C667.173 1100.42 669.712 1099.43 671.781 1098.63L610.833 1267.44L540.766 1461.5L445.812 1304.3C444.898 1302.79 442.931 1302.3 441.418 1303.22C439.906 1304.13 439.42 1306.1 440.334 1307.61L537.969 1469.24L486.1 1612.9L350.521 1453.61C349.376 1452.27 347.356 1452.1 346.01 1453.25C344.665 1454.4 344.502 1456.41 345.648 1457.76L483.597 1619.83ZM677.8 1100.81C678.883 1102.74 680.202 1105.13 681.728 1107.94C686.358 1116.46 692.891 1128.9 700.486 1144.5C715.68 1175.72 735.116 1219.62 752.088 1270.31C786.082 1371.85 809.969 1500.03 770.866 1608.33C736.169 1704.43 678.889 1760.67 615.868 1787.69C553.856 1814.28 485.984 1812.71 428.038 1792.56L489.617 1622.01L699.286 1585.44C701.027 1585.14 702.192 1583.48 701.888 1581.74C701.585 1580 699.927 1578.84 698.186 1579.14L492.12 1615.08L543.988 1471.42L722.444 1409.47C724.114 1408.89 724.997 1407.07 724.418 1405.4C723.838 1403.73 722.015 1402.84 720.345 1403.42L546.785 1463.67L616.852 1269.61L677.8 1100.81Z" fill="#C5DE5D" stroke="#7B61FF" stroke-width="6.4" stroke-linecap="round" stroke-linejoin="round"/>
<path d="M455.39 1533.88C446.46 1576.25 420.738 1611.39 388.855 1634.63L321.948 1539.21L380.837 1414.16C381.59 1412.56 380.904 1410.66 379.306 1409.9C377.707 1409.15 375.8 1409.84 375.047 1411.43L317.716 1533.18L261.907 1453.59L295.663 1335.6C296.149 1333.9 295.166 1332.13 293.467 1331.64C291.768 1331.15 289.996 1332.14 289.51 1333.84L257.179 1446.84L181.229 1338.53L115.404 1244.65C116.273 1244.75 117.22 1244.86 118.241 1244.97C124.514 1245.7 133.586 1246.88 144.749 1248.68C167.08 1252.28 197.752 1258.36 231.123 1268.31C298.014 1288.25 375.089 1323.51 418 1384.71C456.117 1439.07 464.545 1490.44 455.39 1533.88ZM256.667 1457.26L312.476 1536.85L178.485 1549.26C176.725 1549.43 175.43 1550.99 175.594 1552.75C175.757 1554.51 177.315 1555.8 179.075 1555.64L316.708 1542.89L383.614 1638.3C350.906 1660.36 309.098 1672.57 266.221 1666.52C222.26 1660.33 176.84 1634.9 138.722 1580.54C95.8116 1519.34 88.926 1434.87 92.973 1365.18C94.992 1330.42 99.7207 1299.51 103.946 1277.29C106.058 1266.18 108.043 1257.25 109.497 1251.1C109.734 1250.1 109.957 1249.18 110.164 1248.33L175.989 1342.2L251.938 1450.52L134.728 1442.37C132.965 1442.25 131.436 1443.58 131.314 1445.34C131.191 1447.1 132.521 1448.63 134.284 1448.76L256.667 1457.26Z" fill="#DCEC9A" stroke="#7B61FF" stroke-width="6.4" stroke-linecap="round" stroke-linejoin="round"/>
</g>
<g opacity="0.5">
<mask id="path-3-inside-1_2773_3175" fill="white">
<path fill-rule="evenodd" clip-rule="evenodd" d="M1296.71 591.446C1262.51 483.458 1109.49 483.458 1075.29 591.446L1037.22 711.655C1017.05 775.347 947.304 808.891 884.866 784.93L767.021 739.707C661.158 699.082 565.756 818.556 628.971 912.59L699.34 1017.27C736.625 1072.73 719.399 1148.1 661.711 1181.91L552.834 1245.73C455.026 1303.06 489.075 1452.04 602.103 1461.31L727.925 1471.63C794.59 1477.1 842.855 1537.54 833.358 1603.67L815.434 1728.47C799.333 1840.58 937.193 1906.89 1014.92 1824.41L1101.45 1732.6C1147.3 1683.96 1224.71 1683.96 1270.55 1732.6L1357.08 1824.41C1434.81 1906.89 1572.67 1840.58 1556.57 1728.47L1538.64 1603.67C1529.15 1537.54 1577.41 1477.1 1644.08 1471.63L1769.9 1461.31C1882.93 1452.04 1916.98 1303.06 1819.17 1245.73L1710.29 1181.91C1652.6 1148.1 1635.38 1072.73 1672.66 1017.27L1743.03 912.59C1806.25 818.556 1710.84 699.082 1604.98 739.707L1487.14 784.93C1424.7 808.891 1354.95 775.347 1334.78 711.655L1296.71 591.446ZM1186 1414.13C1311.42 1414.13 1413.09 1312.46 1413.09 1187.04C1413.09 1061.62 1311.42 959.953 1186 959.953C1060.58 959.953 958.907 1061.62 958.907 1187.04C958.907 1312.46 1060.58 1414.13 1186 1414.13Z"/>
</mask>
<path fill-rule="evenodd" clip-rule="evenodd" d="M1296.71 591.446C1262.51 483.458 1109.49 483.458 1075.29 591.446L1037.22 711.655C1017.05 775.347 947.304 808.891 884.866 784.93L767.021 739.707C661.158 699.082 565.756 818.556 628.971 912.59L699.34 1017.27C736.625 1072.73 719.399 1148.1 661.711 1181.91L552.834 1245.73C455.026 1303.06 489.075 1452.04 602.103 1461.31L727.925 1471.63C794.59 1477.1 842.855 1537.54 833.358 1603.67L815.434 1728.47C799.333 1840.58 937.193 1906.89 1014.92 1824.41L1101.45 1732.6C1147.3 1683.96 1224.71 1683.96 1270.55 1732.6L1357.08 1824.41C1434.81 1906.89 1572.67 1840.58 1556.57 1728.47L1538.64 1603.67C1529.15 1537.54 1577.41 1477.1 1644.08 1471.63L1769.9 1461.31C1882.93 1452.04 1916.98 1303.06 1819.17 1245.73L1710.29 1181.91C1652.6 1148.1 1635.38 1072.73 1672.66 1017.27L1743.03 912.59C1806.25 818.556 1710.84 699.082 1604.98 739.707L1487.14 784.93C1424.7 808.891 1354.95 775.347 1334.78 711.655L1296.71 591.446ZM1186 1414.13C1311.42 1414.13 1413.09 1312.46 1413.09 1187.04C1413.09 1061.62 1311.42 959.953 1186 959.953C1060.58 959.953 958.907 1061.62 958.907 1187.04C958.907 1312.46 1060.58 1414.13 1186 1414.13Z" fill="#C1D0FF"/>
<path d="M1075.29 591.446L1081.39 593.378L1081.39 593.378L1075.29 591.446ZM1296.71 591.446L1302.81 589.514L1302.81 589.514L1296.71 591.446ZM1037.22 711.655L1043.32 713.588L1043.32 713.588L1037.22 711.655ZM884.866 784.93L887.158 778.955L887.158 778.955L884.866 784.93ZM767.021 739.707L764.728 745.682L764.728 745.682L767.021 739.707ZM628.971 912.59L623.659 916.161L623.659 916.161L628.971 912.59ZM699.34 1017.27L704.652 1013.7L704.652 1013.7L699.34 1017.27ZM661.711 1181.91L664.948 1187.43L664.948 1187.43L661.711 1181.91ZM552.834 1245.73L556.07 1251.25L556.07 1251.25L552.834 1245.73ZM602.103 1461.31L601.58 1467.69L601.58 1467.69L602.103 1461.31ZM727.925 1471.63L728.448 1465.25L728.448 1465.25L727.925 1471.63ZM833.358 1603.67L827.023 1602.76L827.023 1602.76L833.358 1603.67ZM815.434 1728.47L821.769 1729.38L821.769 1729.38L815.434 1728.47ZM1014.92 1824.41L1010.27 1820.02L1010.27 1820.02L1014.92 1824.41ZM1101.45 1732.6L1106.11 1736.99L1106.11 1736.99L1101.45 1732.6ZM1270.55 1732.6L1265.89 1736.99L1265.89 1736.99L1270.55 1732.6ZM1357.08 1824.41L1352.42 1828.8L1352.42 1828.8L1357.08 1824.41ZM1556.57 1728.47L1562.9 1727.56L1562.9 1727.56L1556.57 1728.47ZM1538.64 1603.67L1532.31 1604.58L1532.31 1604.58L1538.64 1603.67ZM1644.08 1471.63L1643.55 1465.25L1643.55 1465.25L1644.08 1471.63ZM1769.9 1461.31L1770.42 1467.69L1770.42 1467.69L1769.9 1461.31ZM1819.17 1245.73L1815.93 1251.25L1815.93 1251.25L1819.17 1245.73ZM1710.29 1181.91L1713.53 1176.39L1713.53 1176.39L1710.29 1181.91ZM1672.66 1017.27L1667.35 1013.7L1667.35 1013.7L1672.66 1017.27ZM1743.03 912.59L1748.34 916.161L1748.34 916.161L1743.03 912.59ZM1604.98 739.707L1607.27 745.682L1607.27 745.682L1604.98 739.707ZM1487.14 784.93L1484.84 778.955L1484.84 778.955L1487.14 784.93ZM1334.78 711.655L1328.68 713.588L1328.68 713.588L1334.78 711.655ZM1081.39 593.378C1113.71 491.347 1258.29 491.347 1290.61 593.378L1302.81 589.514C1266.72 475.569 1105.28 475.569 1069.19 589.513L1081.39 593.378ZM1043.32 713.588L1081.39 593.378L1069.19 589.513L1031.12 709.723L1043.32 713.588ZM882.573 790.905C948.445 816.184 1022.04 780.799 1043.32 713.588L1031.12 709.723C1012.06 769.895 946.163 801.598 887.158 778.955L882.573 790.905ZM764.728 745.682L882.573 790.905L887.158 778.955L769.314 733.732L764.728 745.682ZM634.282 909.019C574.573 820.201 664.671 707.286 764.728 745.682L769.314 733.732C657.645 690.879 556.938 816.912 623.659 916.161L634.282 909.019ZM704.652 1013.7L634.282 909.019L623.659 916.161L694.029 1020.84L704.652 1013.7ZM664.948 1187.43C725.815 1151.76 743.997 1072.22 704.652 1013.7L694.029 1020.84C729.253 1073.23 712.983 1144.44 658.475 1176.39L664.948 1187.43ZM556.07 1251.25L664.948 1187.43L658.475 1176.39L549.597 1240.21L556.07 1251.25ZM602.627 1454.93C495.815 1446.17 463.67 1305.41 556.07 1251.25L549.597 1240.21C446.382 1300.71 482.334 1457.91 601.58 1467.69L602.627 1454.93ZM728.448 1465.25L602.627 1454.93L601.58 1467.69L727.401 1478.01L728.448 1465.25ZM839.693 1604.58C849.715 1534.79 798.78 1471.02 728.448 1465.25L727.401 1478.01C790.4 1483.18 835.995 1540.29 827.023 1602.76L839.693 1604.58ZM821.769 1729.38L839.693 1604.58L827.023 1602.76L809.099 1727.56L821.769 1729.38ZM1010.27 1820.02C936.804 1897.97 806.56 1835.28 821.769 1729.38L809.099 1727.56C792.106 1845.89 937.582 1915.8 1019.58 1828.8L1010.27 1820.02ZM1096.79 1728.22L1010.27 1820.02L1019.58 1828.8L1106.11 1736.99L1096.79 1728.22ZM1275.21 1728.22C1226.84 1676.89 1145.16 1676.89 1096.79 1728.22L1106.11 1736.99C1149.43 1691.03 1222.58 1691.03 1265.89 1736.99L1275.21 1728.22ZM1361.74 1820.02L1275.21 1728.22L1265.89 1736.99L1352.42 1828.8L1361.74 1820.02ZM1550.23 1729.38C1565.44 1835.28 1435.2 1897.97 1361.74 1820.02L1352.42 1828.8C1434.42 1915.8 1579.9 1845.89 1562.9 1727.56L1550.23 1729.38ZM1532.31 1604.58L1550.23 1729.38L1562.9 1727.56L1544.98 1602.76L1532.31 1604.58ZM1643.55 1465.25C1573.22 1471.02 1522.29 1534.79 1532.31 1604.58L1544.98 1602.76C1536.01 1540.29 1581.6 1483.18 1644.6 1478.01L1643.55 1465.25ZM1769.38 1454.93L1643.55 1465.25L1644.6 1478.01L1770.42 1467.69L1769.38 1454.93ZM1815.93 1251.25C1908.33 1305.41 1876.19 1446.17 1769.38 1454.93L1770.42 1467.69C1889.67 1457.91 1925.62 1300.71 1822.41 1240.21L1815.93 1251.25ZM1707.05 1187.43L1815.93 1251.25L1822.41 1240.21L1713.53 1176.39L1707.05 1187.43ZM1667.35 1013.7C1628.01 1072.22 1646.19 1151.76 1707.05 1187.43L1713.53 1176.39C1659.02 1144.44 1642.75 1073.23 1677.97 1020.84L1667.35 1013.7ZM1737.72 909.019L1667.35 1013.7L1677.97 1020.84L1748.34 916.161L1737.72 909.019ZM1607.27 745.682C1707.33 707.286 1797.43 820.201 1737.72 909.019L1748.34 916.161C1815.06 816.912 1714.36 690.879 1602.69 733.732L1607.27 745.682ZM1489.43 790.905L1607.27 745.682L1602.69 733.732L1484.84 778.955L1489.43 790.905ZM1328.68 713.588C1349.97 780.799 1423.56 816.184 1489.43 790.905L1484.84 778.955C1425.84 801.598 1359.94 769.895 1340.88 709.723L1328.68 713.588ZM1290.61 593.378L1328.68 713.588L1340.88 709.723L1302.81 589.514L1290.61 593.378ZM1406.69 1187.04C1406.69 1308.93 1307.88 1407.73 1186 1407.73V1420.53C1314.95 1420.53 1419.49 1316 1419.49 1187.04H1406.69ZM1186 966.353C1307.88 966.353 1406.69 1065.16 1406.69 1187.04H1419.49C1419.49 1058.09 1314.95 953.553 1186 953.553V966.353ZM965.307 1187.04C965.307 1065.16 1064.11 966.353 1186 966.353V953.553C1057.04 953.553 952.507 1058.09 952.507 1187.04H965.307ZM1186 1407.73C1064.11 1407.73 965.307 1308.93 965.307 1187.04H952.507C952.507 1316 1057.04 1420.53 1186 1420.53V1407.73Z" fill="#7B61FF" mask="url(#path-3-inside-1_2773_3175)"/>
</g>
<g opacity="0.5">
<rect x="45.2674" y="232.258" width="664.568" height="798.131" transform="rotate(-9.26984 45.2674 232.258)" fill="#FFC8D8" stroke="#7B61FF" stroke-width="6.4"/>
<path d="M413 453.084L510.938 969.863" stroke="#7B61FF" stroke-width="6.4"/>
<path d="M251.859 479.385L303.613 796.475" stroke="#7B61FF" stroke-width="6.4"/>
<path d="M781.523 616.779L125.351 723.877" stroke="#7B61FF" stroke-width="6.4"/>
<path d="M797.789 716.395L141.617 823.492" stroke="#7B61FF" stroke-width="6.4"/>
<path d="M763.312 487.099L104.266 594.666" stroke="#7B61FF" stroke-width="6.4"/>
<path d="M748.757 397.9L89.7109 505.467" stroke="#7B61FF" stroke-width="6.4"/>
<path d="M609.448 137.934L574.725 229.679C570.439 241.004 554.6 241.493 549.623 230.454V230.454C544.679 219.489 528.976 219.878 524.581 231.074L514.209 257.494C509.775 268.788 493.936 269.18 488.949 258.12V258.12C483.961 247.059 468.122 247.451 463.689 258.745L453.419 284.903C448.985 296.198 433.146 296.59 428.159 285.529V285.529C423.172 274.468 407.333 274.86 402.899 286.154L392.629 312.313C388.195 323.607 372.356 323.999 367.369 312.938V312.938C362.382 301.877 346.543 302.269 342.109 313.563L331.84 339.722C327.406 351.016 311.567 351.408 306.58 340.347V340.347C301.592 329.286 285.753 329.678 281.319 340.972L270.947 367.392C266.552 378.589 250.849 378.977 245.905 368.012V368.012C240.928 356.973 225.089 357.463 220.803 368.788L174.681 490.652" stroke="#7B61FF" stroke-width="6.4"/>
</g>
<rect x="262.296" y="188.81" width="664.568" height="798.131" transform="rotate(5.83481 262.296 188.81)" fill="#FFC8D8" stroke="#7B61FF" stroke-width="6.4"/>
<path d="M559.766 497.828L519.656 1022.27" stroke="#7B61FF" stroke-width="6.4"/>
<path d="M397.344 481.23L364.682 800.852" stroke="#7B61FF" stroke-width="6.4"/>
<path d="M872.922 751.906L211.511 684.317" stroke="#7B61FF" stroke-width="6.4"/>
<path d="M862.656 852.318L201.246 784.729" stroke="#7B61FF" stroke-width="6.4"/>
<path d="M889.128 621.956L224.82 554.07" stroke="#7B61FF" stroke-width="6.4"/>
<path d="M898.315 532.052L234.008 464.166" stroke="#7B61FF" stroke-width="6.4"/>
<path d="M831.574 244.76L774.144 324.287C767.055 334.104 751.636 330.449 749.707 318.495V318.495C747.791 306.62 732.53 302.903 725.369 312.568L708.47 335.372C701.246 345.121 685.852 341.372 683.92 329.393V329.393C681.987 317.415 666.593 313.666 659.37 323.415L642.638 345.994C635.415 355.742 620.021 351.993 618.088 340.015V340.015C616.155 328.037 600.761 324.288 593.538 334.036L576.806 356.615C569.583 366.364 554.189 362.615 552.256 350.636V350.636C550.324 338.658 534.93 334.909 527.706 344.658L510.975 367.236C503.751 376.985 488.357 373.236 486.424 361.258V361.258C484.492 349.279 469.098 345.53 461.874 355.279L444.976 378.083C437.814 387.748 422.553 384.031 420.637 372.156V372.156C418.709 360.202 403.289 356.547 396.2 366.364L319.916 472" stroke="#7B61FF" stroke-width="6.4"/>
<g opacity="0.5">
<path fill-rule="evenodd" clip-rule="evenodd" d="M956.764 234.783C908.193 355.653 1050.84 527.323 1276.85 622.752L1117.54 842.04L1414 667.596C1601.04 711.216 1764.12 677.176 1804.94 575.617C1854.52 452.231 1704.84 275.908 1470.63 181.789C1236.41 87.6706 1006.35 111.397 956.764 234.783ZM1211.57 383.525C1233.93 392.512 1259.34 381.668 1268.33 359.305C1277.32 336.942 1266.47 311.529 1244.11 302.542C1221.75 293.556 1196.33 304.399 1187.35 326.762C1178.36 349.125 1189.2 374.539 1211.57 383.525ZM1422.2 421.141C1413.21 443.503 1387.8 454.347 1365.44 445.361C1343.07 436.374 1332.23 410.961 1341.22 388.598C1350.2 366.235 1375.62 355.391 1397.98 364.378C1420.34 373.364 1431.19 398.778 1422.2 421.141ZM1519.29 507.188C1541.65 516.174 1567.07 505.331 1576.05 482.968C1585.04 460.605 1574.2 435.191 1551.83 426.205C1529.47 417.219 1504.06 428.062 1495.07 450.425C1486.08 472.788 1496.93 498.202 1519.29 507.188Z" fill="#FFE999"/>
<path d="M1276.85 622.752L1279.44 624.632L1281.81 621.371L1278.1 619.804L1276.85 622.752ZM956.764 234.783L953.795 233.59L956.764 234.783ZM1117.54 842.04L1114.95 840.16L1119.16 844.798L1117.54 842.04ZM1414 667.596L1414.73 664.48L1413.48 664.189L1412.38 664.838L1414 667.596ZM1804.94 575.617L1801.97 574.424L1801.97 574.424L1804.94 575.617ZM1470.63 181.789L1471.82 178.82L1470.63 181.789ZM1268.33 359.305L1271.3 360.498L1271.3 360.498L1268.33 359.305ZM1211.57 383.525L1210.37 386.494L1210.37 386.494L1211.57 383.525ZM1244.11 302.542L1242.92 305.511L1242.92 305.511L1244.11 302.542ZM1187.35 326.762L1190.32 327.955L1190.32 327.955L1187.35 326.762ZM1365.44 445.361L1366.63 442.392L1366.63 442.392L1365.44 445.361ZM1422.2 421.141L1425.17 422.334L1425.17 422.334L1422.2 421.141ZM1397.98 364.378L1396.79 367.347L1396.79 367.347L1397.98 364.378ZM1576.05 482.968L1579.02 484.161L1579.02 484.161L1576.05 482.968ZM1519.29 507.188L1518.1 510.157L1518.1 510.157L1519.29 507.188ZM1495.07 450.425L1498.04 451.618L1498.04 451.618L1495.07 450.425ZM1278.1 619.804C1165.46 572.246 1073.75 505.749 1016.3 436.269C958.759 366.672 936.097 294.795 959.733 235.976L953.795 233.59C928.86 295.642 953.234 370.034 1011.37 440.347C1069.61 510.776 1162.23 577.828 1275.61 625.7L1278.1 619.804ZM1120.13 843.921L1279.44 624.632L1274.26 620.871L1114.95 840.16L1120.13 843.921ZM1412.38 664.838L1115.92 839.282L1119.16 844.798L1415.63 670.354L1412.38 664.838ZM1801.97 574.424C1782.11 623.845 1732.31 657.299 1663.59 672.929C1594.93 688.547 1507.91 686.211 1414.73 664.48L1413.28 670.712C1507.13 692.602 1595.17 695.056 1665.01 679.169C1734.8 663.294 1786.95 628.948 1807.91 576.81L1801.97 574.424ZM1469.43 184.758C1586.16 231.664 1681.67 299 1741.77 369.799C1801.97 440.724 1826.09 514.38 1801.97 574.424L1807.91 576.81C1833.36 513.467 1807.43 437.269 1746.65 365.657C1685.75 293.918 1589.31 226.033 1471.82 178.82L1469.43 184.758ZM959.733 235.976C983.862 175.932 1052.24 139.449 1144.79 129.905C1237.16 120.378 1352.71 137.853 1469.43 184.758L1471.82 178.82C1354.33 131.607 1237.73 113.885 1144.13 123.539C1050.69 133.175 979.249 170.247 953.795 233.59L959.733 235.976ZM1265.36 358.112C1257.03 378.835 1233.48 388.883 1212.76 380.556L1210.37 386.494C1234.38 396.14 1261.65 384.501 1271.3 360.498L1265.36 358.112ZM1242.92 305.511C1263.64 313.839 1273.69 337.389 1265.36 358.112L1271.3 360.498C1280.94 336.495 1269.3 309.218 1245.3 299.573L1242.92 305.511ZM1190.32 327.955C1198.64 307.232 1222.19 297.184 1242.92 305.511L1245.3 299.573C1221.3 289.927 1194.02 301.566 1184.38 325.569L1190.32 327.955ZM1212.76 380.556C1192.04 372.229 1181.99 348.678 1190.32 327.955L1184.38 325.569C1174.73 349.572 1186.37 376.849 1210.37 386.494L1212.76 380.556ZM1364.24 448.33C1388.25 457.975 1415.52 446.336 1425.17 422.334L1419.23 419.947C1410.9 440.67 1387.35 450.719 1366.63 442.392L1364.24 448.33ZM1338.25 387.405C1328.6 411.407 1340.24 438.685 1364.24 448.33L1366.63 442.392C1345.91 434.064 1335.86 410.514 1344.19 389.791L1338.25 387.405ZM1399.17 361.408C1375.17 351.763 1347.89 363.402 1338.25 387.405L1344.19 389.791C1352.51 369.068 1376.06 359.019 1396.79 367.347L1399.17 361.408ZM1425.17 422.334C1434.81 398.331 1423.18 371.054 1399.17 361.408L1396.79 367.347C1417.51 375.674 1427.56 399.224 1419.23 419.947L1425.17 422.334ZM1573.08 481.775C1564.76 502.498 1541.21 512.546 1520.48 504.219L1518.1 510.157C1542.1 519.803 1569.38 508.164 1579.02 484.161L1573.08 481.775ZM1550.64 429.174C1571.36 437.502 1581.41 461.052 1573.08 481.775L1579.02 484.161C1588.67 460.158 1577.03 432.881 1553.03 423.236L1550.64 429.174ZM1498.04 451.618C1506.37 430.895 1529.92 420.847 1550.64 429.174L1553.03 423.236C1529.02 413.59 1501.75 425.229 1492.1 449.232L1498.04 451.618ZM1520.48 504.219C1499.76 495.891 1489.71 472.341 1498.04 451.618L1492.1 449.232C1482.46 473.235 1494.09 500.512 1518.1 510.157L1520.48 504.219Z" fill="#7B61FF"/>
</g>
<mask id="path-23-inside-2_2773_3175" fill="white">
<path fill-rule="evenodd" clip-rule="evenodd" d="M1193.96 485.765C1144.27 383.97 992.92 406.438 974.947 518.278L954.939 642.775C944.338 708.738 880.275 752.16 814.995 737.627L691.787 710.199C581.106 685.56 504.282 817.748 580.619 901.48L665.597 994.688C710.621 1044.07 704.65 1121.16 652.553 1163.08L554.227 1242.19C465.897 1313.26 521.454 1455.63 634.619 1448.2L760.591 1439.93C827.337 1435.55 883.954 1488.25 884.27 1555.05L884.867 1681.13C885.403 1794.4 1031.5 1839.74 1096.28 1746.74L1168.39 1643.23C1206.59 1588.38 1283.17 1577.01 1335.66 1618.39L1434.73 1696.5C1523.73 1766.67 1650.36 1680.84 1617.97 1572.31L1581.91 1451.49C1562.81 1387.47 1601.67 1320.6 1666.81 1305.4L1789.76 1276.72C1900.2 1250.95 1912 1098.58 1806.83 1056.24L1689.77 1009.1C1627.74 984.124 1599.63 912.099 1628.37 851.764L1682.6 737.889C1731.33 635.592 1619.41 531.422 1520.66 587.152L1410.74 649.189C1352.49 682.058 1278.58 659.12 1249.27 599.081L1193.96 485.765ZM1205.25 1315.79C1329.31 1297.37 1414.95 1181.87 1396.53 1057.82C1378.11 933.756 1262.62 848.117 1138.56 866.533C1014.5 884.95 928.858 1000.45 947.275 1124.51C965.692 1248.57 1081.19 1334.21 1205.25 1315.79Z"/>
</mask>
<path fill-rule="evenodd" clip-rule="evenodd" d="M1193.96 485.765C1144.27 383.97 992.92 406.438 974.947 518.278L954.939 642.775C944.338 708.738 880.275 752.16 814.995 737.627L691.787 710.199C581.106 685.56 504.282 817.748 580.619 901.48L665.597 994.688C710.621 1044.07 704.65 1121.16 652.553 1163.08L554.227 1242.19C465.897 1313.26 521.454 1455.63 634.619 1448.2L760.591 1439.93C827.337 1435.55 883.954 1488.25 884.27 1555.05L884.867 1681.13C885.403 1794.4 1031.5 1839.74 1096.28 1746.74L1168.39 1643.23C1206.59 1588.38 1283.17 1577.01 1335.66 1618.39L1434.73 1696.5C1523.73 1766.67 1650.36 1680.84 1617.97 1572.31L1581.91 1451.49C1562.81 1387.47 1601.67 1320.6 1666.81 1305.4L1789.76 1276.72C1900.2 1250.95 1912 1098.58 1806.83 1056.24L1689.77 1009.1C1627.74 984.124 1599.63 912.099 1628.37 851.764L1682.6 737.889C1731.33 635.592 1619.41 531.422 1520.66 587.152L1410.74 649.189C1352.49 682.058 1278.58 659.12 1249.27 599.081L1193.96 485.765ZM1205.25 1315.79C1329.31 1297.37 1414.95 1181.87 1396.53 1057.82C1378.11 933.756 1262.62 848.117 1138.56 866.533C1014.5 884.95 928.858 1000.45 947.275 1124.51C965.692 1248.57 1081.19 1334.21 1205.25 1315.79Z" fill="#C1D0FF"/>
<path d="M974.947 518.278L981.265 519.293L981.265 519.293L974.947 518.278ZM1193.96 485.765L1188.21 488.572L1188.21 488.572L1193.96 485.765ZM954.939 642.775L961.258 643.79L961.258 643.79L954.939 642.775ZM814.995 737.627L813.604 743.874L813.604 743.874L814.995 737.627ZM691.787 710.199L693.178 703.952L693.178 703.952L691.787 710.199ZM580.619 901.48L575.89 905.791L575.89 905.791L580.619 901.48ZM665.597 994.688L670.327 990.376L670.327 990.376L665.597 994.688ZM652.553 1163.08L648.541 1158.09L648.541 1158.09L652.553 1163.08ZM554.227 1242.19L558.239 1247.18L558.239 1247.18L554.227 1242.19ZM634.619 1448.2L635.038 1454.58L635.038 1454.58L634.619 1448.2ZM760.591 1439.93L760.172 1433.54L760.172 1433.54L760.591 1439.93ZM884.27 1555.05L877.87 1555.08L877.87 1555.08L884.27 1555.05ZM884.867 1681.13L891.267 1681.1L884.867 1681.13ZM1096.28 1746.74L1091.03 1743.09L1091.03 1743.09L1096.28 1746.74ZM1168.39 1643.23L1173.64 1646.88L1173.64 1646.88L1168.39 1643.23ZM1335.66 1618.39L1339.62 1613.37L1339.62 1613.37L1335.66 1618.39ZM1434.73 1696.5L1430.77 1701.53L1430.77 1701.53L1434.73 1696.5ZM1617.97 1572.31L1611.83 1574.14L1611.83 1574.14L1617.97 1572.31ZM1581.91 1451.49L1588.04 1449.66L1588.04 1449.66L1581.91 1451.49ZM1666.81 1305.4L1665.36 1299.17L1665.36 1299.17L1666.81 1305.4ZM1789.76 1276.72L1791.21 1282.95L1791.21 1282.95L1789.76 1276.72ZM1806.83 1056.24L1804.44 1062.18L1804.44 1062.18L1806.83 1056.24ZM1689.77 1009.1L1692.16 1003.16L1692.16 1003.16L1689.77 1009.1ZM1628.37 851.764L1622.59 849.012L1622.59 849.012L1628.37 851.764ZM1682.6 737.889L1688.38 740.641L1688.38 740.641L1682.6 737.889ZM1520.66 587.152L1517.52 581.578L1517.52 581.578L1520.66 587.152ZM1410.74 649.189L1413.88 654.762L1413.88 654.762L1410.74 649.189ZM1249.27 599.081L1243.52 601.888L1243.52 601.888L1249.27 599.081ZM981.265 519.293C998.247 413.623 1141.26 392.392 1188.21 488.572L1199.71 482.957C1147.29 375.547 987.592 399.254 968.628 517.262L981.265 519.293ZM961.258 643.79L981.265 519.293L968.628 517.262L948.62 641.759L961.258 643.79ZM813.604 743.874C882.474 759.206 950.072 713.398 961.258 643.79L948.62 641.759C938.605 704.078 878.075 745.113 816.385 731.38L813.604 743.874ZM690.396 716.446L813.604 743.874L816.385 731.38L693.178 703.952L690.396 716.446ZM585.349 897.168C513.245 818.08 585.785 693.158 690.396 716.446L693.178 703.952C576.427 677.962 495.318 817.416 575.89 905.791L585.349 897.168ZM670.327 990.376L585.349 897.168L575.89 905.791L660.868 999L670.327 990.376ZM656.565 1168.06C711.534 1123.83 717.839 1042.49 670.327 990.376L660.868 999C703.404 1045.66 697.766 1118.48 648.541 1158.09L656.565 1168.06ZM558.239 1247.18L656.565 1168.06L648.541 1158.09L550.215 1237.2L558.239 1247.18ZM634.199 1441.81C527.26 1448.83 474.793 1314.32 558.239 1247.18L550.215 1237.2C457.002 1312.2 515.648 1462.42 635.038 1454.58L634.199 1441.81ZM760.172 1433.54L634.199 1441.81L635.038 1454.58L761.01 1446.32L760.172 1433.54ZM890.67 1555.02C890.337 1484.52 830.589 1428.92 760.172 1433.54L761.01 1446.32C824.084 1442.18 877.572 1491.98 877.87 1555.08L890.67 1555.02ZM891.267 1681.1L890.67 1555.02L877.87 1555.08L878.467 1681.16L891.267 1681.1ZM1091.03 1743.09C1029.81 1830.97 891.773 1788.09 891.267 1681.1L878.467 1681.16C879.033 1800.7 1033.2 1848.5 1101.53 1750.4L1091.03 1743.09ZM1163.14 1639.57L1091.03 1743.09L1101.53 1750.4L1173.64 1646.88L1163.14 1639.57ZM1339.62 1613.37C1284.24 1569.7 1203.45 1581.7 1163.14 1639.57L1173.64 1646.88C1209.74 1595.06 1282.1 1584.32 1331.7 1623.42L1339.62 1613.37ZM1438.69 1691.48L1339.62 1613.37L1331.7 1623.42L1430.77 1701.53L1438.69 1691.48ZM1611.83 1574.14C1642.43 1676.66 1522.8 1757.79 1438.69 1691.48L1430.77 1701.53C1524.65 1775.55 1658.28 1685.02 1624.1 1570.48L1611.83 1574.14ZM1575.78 1453.32L1611.83 1574.14L1624.1 1570.48L1588.04 1449.66L1575.78 1453.32ZM1665.36 1299.17C1596.64 1315.2 1555.62 1385.76 1575.78 1453.32L1588.04 1449.66C1570 1389.19 1606.71 1326 1668.27 1311.63L1665.36 1299.17ZM1788.3 1270.48L1665.36 1299.17L1668.27 1311.63L1791.21 1282.95L1788.3 1270.48ZM1804.44 1062.18C1903.8 1102.18 1892.67 1246.14 1788.3 1270.48L1791.21 1282.95C1907.73 1255.77 1920.21 1094.99 1809.23 1050.3L1804.44 1062.18ZM1687.38 1015.04L1804.44 1062.18L1809.23 1050.3L1692.16 1003.16L1687.38 1015.04ZM1622.59 849.012C1592.27 912.682 1621.93 988.684 1687.38 1015.04L1692.16 1003.16C1633.55 979.564 1607 911.516 1634.15 854.516L1622.59 849.012ZM1676.83 735.137L1622.59 849.012L1634.15 854.516L1688.38 740.641L1676.83 735.137ZM1523.81 592.725C1617.14 540.052 1722.85 638.514 1676.83 735.137L1688.38 740.641C1739.81 632.67 1621.68 522.792 1517.52 581.578L1523.81 592.725ZM1413.88 654.762L1523.81 592.725L1517.52 581.578L1407.59 643.615L1413.88 654.762ZM1243.52 601.888C1274.45 665.245 1352.44 689.44 1413.88 654.762L1407.59 643.615C1352.55 674.677 1282.71 652.995 1255.02 596.273L1243.52 601.888ZM1188.21 488.572L1243.52 601.888L1255.02 596.273L1199.71 482.957L1188.21 488.572ZM1390.2 1058.75C1408.1 1179.32 1324.87 1291.56 1204.31 1309.46L1206.19 1322.12C1333.74 1303.18 1421.8 1184.43 1402.86 1056.88L1390.2 1058.75ZM1139.5 872.864C1260.06 854.966 1372.3 938.193 1390.2 1058.75L1402.86 1056.88C1383.93 929.32 1265.17 841.267 1137.62 860.203L1139.5 872.864ZM953.606 1123.57C935.708 1003.01 1018.93 890.761 1139.5 872.864L1137.62 860.203C1010.06 879.138 922.009 997.892 940.944 1125.45L953.606 1123.57ZM1204.31 1309.46C1083.75 1327.36 971.503 1244.13 953.606 1123.57L940.944 1125.45C959.88 1253 1078.63 1341.06 1206.19 1322.12L1204.31 1309.46Z" fill="#7B61FF" mask="url(#path-23-inside-2_2773_3175)"/>
<path fill-rule="evenodd" clip-rule="evenodd" d="M1036.03 119.292C966.861 229.674 1076.92 423.843 1282.5 557.709L1086.94 745.399L1409.57 626.087C1585.96 702.078 1752.5 697.396 1810.62 604.644C1881.23 491.961 1765.06 291.964 1551.17 157.938C1337.27 23.9113 1106.63 6.60899 1036.03 119.292ZM1260.53 310.721C1280.95 323.517 1307.88 317.335 1320.68 296.912C1333.47 276.489 1327.29 249.559 1306.87 236.763C1286.45 223.966 1259.52 230.148 1246.72 250.571C1233.92 270.994 1240.1 297.924 1260.53 310.721ZM1461.21 384.961C1448.41 405.384 1421.48 411.566 1401.06 398.769C1380.64 385.972 1374.45 359.042 1387.25 338.619C1400.05 318.197 1426.98 312.014 1447.4 324.811C1467.82 337.608 1474 364.538 1461.21 384.961ZM1541.57 486.817C1562 499.614 1588.93 493.432 1601.72 473.009C1614.52 452.586 1608.34 425.656 1587.91 412.859C1567.49 400.062 1540.56 406.244 1527.77 426.667C1514.97 447.09 1521.15 474.02 1541.57 486.817Z" fill="#FFE999"/>
<path d="M1282.5 557.709L1284.72 560.018L1287.63 557.227L1284.25 555.027L1282.5 557.709ZM1036.03 119.292L1038.74 120.991L1036.03 119.292ZM1086.94 745.399L1084.73 743.09L1088.05 748.4L1086.94 745.399ZM1409.57 626.087L1410.84 623.148L1409.66 622.642L1408.46 623.086L1409.57 626.087ZM1810.62 604.644L1813.33 606.343L1813.33 606.343L1810.62 604.644ZM1551.17 157.938L1552.86 155.226L1551.17 157.938ZM1320.68 296.912L1317.96 295.213L1317.96 295.213L1320.68 296.912ZM1260.53 310.721L1262.23 308.009L1262.23 308.009L1260.53 310.721ZM1306.87 236.763L1308.57 234.051L1308.57 234.051L1306.87 236.763ZM1246.72 250.571L1249.43 252.27L1249.43 252.27L1246.72 250.571ZM1401.06 398.769L1399.36 401.481L1399.36 401.481L1401.06 398.769ZM1461.21 384.961L1463.92 386.66L1463.92 386.66L1461.21 384.961ZM1387.25 338.619L1384.54 336.92L1384.54 336.92L1387.25 338.619ZM1447.4 324.811L1445.7 327.523L1445.7 327.523L1447.4 324.811ZM1601.72 473.009L1604.43 474.708L1604.43 474.708L1601.72 473.009ZM1527.77 426.667L1525.05 424.968L1525.05 424.968L1527.77 426.667ZM1284.25 555.027C1181.79 488.315 1103.28 406.66 1059.02 328.123C1014.68 249.454 1005.08 174.706 1038.74 120.991L1033.31 117.593C997.806 174.26 1008.65 251.787 1053.44 331.265C1098.31 410.875 1177.63 493.237 1280.76 560.391L1284.25 555.027ZM1089.16 747.708L1284.72 560.018L1280.29 555.4L1084.73 743.09L1089.16 747.708ZM1408.46 623.086L1085.83 742.398L1088.05 748.4L1410.68 629.088L1408.46 623.086ZM1807.91 602.945C1779.63 648.08 1724.7 672.207 1654.3 675.448C1583.96 678.685 1498.71 661.006 1410.84 623.148L1408.31 629.026C1496.82 667.159 1583.04 685.134 1654.59 681.841C1726.1 678.55 1783.5 653.96 1813.33 606.343L1807.91 602.945ZM1549.47 160.649C1656.07 227.443 1738.17 310.597 1784.81 390.902C1831.54 471.35 1842.27 548.11 1807.91 602.945L1813.33 606.343C1849.58 548.495 1837.53 468.915 1790.35 387.687C1743.09 306.316 1660.16 222.458 1552.86 155.226L1549.47 160.649ZM1038.74 120.991C1073.1 66.1558 1146.85 42.33 1239.62 49.2898C1332.23 56.2372 1442.87 93.8554 1549.47 160.649L1552.86 155.226C1445.57 87.9935 1333.94 49.9474 1240.1 42.9078C1146.43 35.8805 1069.56 59.745 1033.31 117.593L1038.74 120.991ZM1317.96 295.213C1306.11 314.138 1281.15 319.867 1262.23 308.009L1258.83 313.432C1280.75 327.167 1309.65 320.532 1323.39 298.611L1317.96 295.213ZM1305.17 239.474C1324.09 251.333 1329.82 276.288 1317.96 295.213L1323.39 298.611C1337.12 276.691 1330.49 247.786 1308.57 234.051L1305.17 239.474ZM1249.43 252.27C1261.29 233.345 1286.24 227.616 1305.17 239.474L1308.57 234.051C1286.65 220.316 1257.74 226.951 1244.01 248.872L1249.43 252.27ZM1262.23 308.009C1243.3 296.151 1237.57 271.195 1249.43 252.27L1244.01 248.872C1230.27 270.792 1236.91 299.697 1258.83 313.432L1262.23 308.009ZM1399.36 401.481C1421.28 415.216 1450.18 408.58 1463.92 386.66L1458.5 383.262C1446.64 402.187 1421.68 407.916 1402.76 396.057L1399.36 401.481ZM1384.54 336.92C1370.8 358.841 1377.44 387.746 1399.36 401.481L1402.76 396.057C1383.83 384.199 1378.1 359.244 1389.96 340.319L1384.54 336.92ZM1449.1 322.099C1427.18 308.364 1398.27 315 1384.54 336.92L1389.96 340.319C1401.82 321.393 1426.78 315.664 1445.7 327.523L1449.1 322.099ZM1463.92 386.66C1477.65 364.739 1471.02 335.835 1449.1 322.099L1445.7 327.523C1464.63 339.381 1470.35 364.336 1458.5 383.262L1463.92 386.66ZM1599.01 471.31C1587.15 490.235 1562.2 495.964 1543.27 484.105L1539.87 489.529C1561.79 503.264 1590.7 496.628 1604.43 474.708L1599.01 471.31ZM1586.22 415.571C1605.14 427.429 1610.87 452.384 1599.01 471.31L1604.43 474.708C1618.17 452.787 1611.53 423.883 1589.61 410.147L1586.22 415.571ZM1530.48 428.366C1542.34 409.441 1567.29 403.712 1586.22 415.571L1589.61 410.147C1567.69 396.412 1538.79 403.048 1525.05 424.968L1530.48 428.366ZM1543.27 484.105C1524.35 472.247 1518.62 447.292 1530.48 428.366L1525.05 424.968C1511.32 446.889 1517.95 475.794 1539.87 489.529L1543.27 484.105Z" fill="#7B61FF"/>
<path d="M468.837 1795.36C410.578 1761.33 371.466 1705.83 353.197 1647.27L526.925 1595.32L681.033 1742.12C682.312 1743.33 684.338 1743.29 685.557 1742.01C686.776 1740.73 686.727 1738.7 685.447 1737.48L533.987 1593.21L680.319 1549.45L836.266 1656.06C837.725 1657.06 839.716 1656.68 840.714 1655.22C841.711 1653.76 841.337 1651.77 839.878 1650.78L688.209 1547.09L885.886 1487.99L1057.83 1436.57C1056.92 1438.59 1055.79 1441.07 1054.44 1443.97C1050.34 1452.76 1044.23 1465.41 1036.2 1480.8C1020.14 1511.58 996.42 1553.32 965.763 1597.11C904.36 1684.84 815.529 1780.28 705.209 1813.27C607.321 1842.54 528.045 1829.95 468.837 1795.36ZM678.487 1543.32L532.154 1587.08L579.555 1383.34C579.956 1381.62 578.885 1379.9 577.164 1379.5C575.443 1379.1 573.722 1380.17 573.322 1381.89L525.091 1589.19L351.364 1641.13C334.484 1582.15 336.714 1514.3 366.729 1453.87C397.232 1392.46 456.582 1338.41 554.47 1309.14C664.789 1276.16 791.435 1307.17 890.915 1346.79C940.582 1366.57 983.319 1388.43 1013.64 1405.35C1028.8 1413.8 1040.85 1421.02 1049.1 1426.12C1051.82 1427.8 1054.13 1429.25 1056 1430.44L884.052 1481.86L686.378 1540.96L756.26 1371.13C756.933 1369.5 756.153 1367.63 754.519 1366.95C752.884 1366.28 751.014 1367.06 750.342 1368.69L678.487 1543.32Z" fill="#C5DE5D" stroke="#7B61FF" stroke-width="6.4" stroke-linecap="round" stroke-linejoin="round"/>
<path d="M577.399 1515.39C538.028 1533.42 494.476 1533.64 456.833 1521.83L493.738 1411.3L629.289 1384.25C631.022 1383.91 632.147 1382.22 631.801 1380.49C631.455 1378.75 629.77 1377.63 628.037 1377.98L496.072 1404.3L526.856 1312.1L641.781 1269.05C643.436 1268.43 644.275 1266.59 643.655 1264.93C643.035 1263.28 641.191 1262.44 639.536 1263.06L529.463 1304.29L571.356 1178.81L607.664 1070.05C608.105 1070.81 608.583 1071.63 609.095 1072.53C612.243 1078 616.692 1085.99 621.886 1096.04C632.275 1116.13 645.626 1144.41 657.478 1177.15C681.237 1242.78 698.738 1325.71 675.069 1396.61C654.044 1459.58 617.766 1496.91 577.399 1515.39ZM520.785 1310.07L490.002 1402.28L400.322 1301.95C399.144 1300.63 397.121 1300.52 395.803 1301.7C394.486 1302.88 394.372 1304.9 395.55 1306.22L487.667 1409.27L450.763 1519.81C413.575 1506.64 378.896 1480.29 358.25 1442.23C337.081 1403.2 330.505 1351.57 351.53 1288.59C375.199 1217.7 439.01 1161.91 497.433 1123.72C526.579 1104.66 554.24 1090.08 574.616 1080.25C584.802 1075.35 593.16 1071.63 598.966 1069.14C599.91 1068.74 600.787 1068.37 601.594 1068.03L565.286 1176.78L523.394 1302.26L460.222 1203.19C459.272 1201.7 457.294 1201.27 455.804 1202.22C454.314 1203.17 453.876 1205.14 454.826 1206.63L520.785 1310.07Z" fill="#DCEC9A" stroke="#7B61FF" stroke-width="6.4" stroke-linecap="round" stroke-linejoin="round"/>
<circle cx="1690.73" cy="822.264" r="110.026" fill="#212132"/>
<path d="M1697.01 787.018H1692.9C1691.99 793.405 1689.25 794.774 1684.23 794.774H1678.76V798.88H1690.16V851.806H1697.01V787.018Z" fill="#C1D0FF"/>
<circle cx="1604.21" cy="1321.02" r="110.026" fill="#212132"/>
<path d="M1621.47 1346.83H1580.1V1340.68C1594.03 1332.49 1614.51 1323.89 1614.51 1307.1C1614.51 1299.72 1610.41 1293.17 1600.17 1293.17C1592.39 1293.17 1586.41 1298.5 1586.41 1305.87C1586.41 1313.24 1592.39 1316.52 1592.39 1316.52L1588.62 1320.2C1588.62 1320.2 1580.92 1316.11 1580.92 1305.87C1580.92 1295.22 1589.93 1287.85 1600.17 1287.85C1613.28 1287.85 1620.24 1296.04 1620.24 1306.28C1620.24 1323.07 1605.09 1332.08 1587.06 1341.09V1341.5H1621.47V1346.83Z" fill="#C1D0FF"/>
<circle cx="1249.85" cy="1659.2" r="110.026" fill="#212132"/>
<path d="M1224.31 1669.79H1230.46C1230.46 1676.34 1234.55 1683.3 1245.61 1683.3C1256.67 1683.3 1260.77 1677.57 1260.77 1671.02C1260.77 1662.41 1253.39 1659.96 1245.61 1659.96H1237.83V1655.04H1245.2C1253.39 1655.04 1258.72 1651.76 1258.72 1644.39C1258.72 1637.84 1254.21 1633.33 1245.2 1633.33C1236.19 1633.33 1231.68 1639.48 1231.68 1646.85H1225.54C1225.54 1636.61 1233.32 1628.01 1245.2 1628.01C1257.9 1628.01 1264.86 1634.97 1264.86 1644.39C1264.86 1655.04 1255.85 1656.68 1255.85 1656.68V1657.5C1255.85 1657.5 1266.91 1658.73 1266.91 1671.02C1266.91 1680.44 1259.95 1688.63 1245.61 1688.63C1232.09 1688.63 1224.31 1680.44 1224.31 1669.79Z" fill="#C1D0FF"/>
<path d="M1656.28 1179.53L1710.28 1152.81M1656.28 1179.53L1628.52 1126.06M1656.28 1179.53C1656.28 1179.53 1667.48 1147.72 1673.48 1126.97C1687.06 1079.99 1715.83 995.374 1691.78 871.714" stroke="#212132" stroke-width="6.4" stroke-linecap="round" stroke-linejoin="round"/>
<path d="M1392.23 1594.28L1451.73 1603.74M1392.23 1594.28L1400.54 1534.6M1392.23 1594.28C1392.23 1594.28 1419.78 1574.81 1436.67 1561.36C1470.03 1534.81 1536.26 1481.89 1587.12 1392.7" stroke="#212132" stroke-width="6.4" stroke-linecap="round" stroke-linejoin="round"/>
</g>
<defs>
<clipPath id="clip0_2773_3175">
<rect width="1920" height="1920" fill="white"/>
</clipPath>
</defs>
</svg>
