<svg width="1920" height="1920" viewBox="0 0 1920 1920" fill="none" xmlns="http://www.w3.org/2000/svg">
<rect x="63.9844" y="64" width="1792" height="1792" rx="32" fill="url(#paint0_linear_2773_3252)"/>
<mask id="mask0_2773_3252" style="mask-type:alpha" maskUnits="userSpaceOnUse" x="63" y="64" width="1793" height="1792">
<rect x="63.9844" y="64" width="1792" height="1792" rx="32" fill="#C4C4C4"/>
</mask>
<g mask="url(#mask0_2773_3252)">
<path d="M1481.69 1223.29L1891.23 1169.24V2411.88H1071.3V1169.24L1480.85 1223.29L1481.27 1223.34L1481.69 1223.29Z" fill="#3E5F72" stroke="#3E5F72" stroke-width="6.4"/>
<path d="M1823.43 994.536V1904.82H1139.12V994.536H1481.28H1823.43Z" fill="#3E5F72" stroke="#3E5F72" stroke-width="6.4"/>
<mask id="path-5-inside-1_2773_3252" fill="white">
<path fill-rule="evenodd" clip-rule="evenodd" d="M1547.5 901.241C1527.04 862.956 1435.5 862.956 1415.04 901.241L1392.26 943.858C1380.19 966.439 1338.47 978.331 1301.12 969.836L1230.62 953.803C1167.28 939.401 1110.21 981.757 1148.03 1015.09L1190.13 1052.21C1212.43 1071.87 1202.13 1098.59 1167.62 1110.58L1102.48 1133.2C1043.97 1153.53 1064.34 1206.34 1131.96 1209.63L1207.23 1213.29C1247.11 1215.23 1275.98 1236.66 1270.3 1260.1L1259.58 1304.35C1249.95 1344.09 1332.42 1367.6 1378.92 1338.36L1430.68 1305.81C1458.11 1288.57 1504.42 1288.57 1531.85 1305.81L1583.61 1338.36C1630.11 1367.6 1712.59 1344.09 1702.95 1304.35L1692.23 1260.1C1686.55 1236.66 1715.42 1215.23 1755.31 1213.29L1830.58 1209.63C1898.2 1206.34 1918.57 1153.53 1860.05 1133.2L1794.92 1110.58C1760.41 1098.59 1750.1 1071.87 1772.41 1052.21L1814.5 1015.09C1852.32 981.757 1795.25 939.401 1731.92 953.803L1661.42 969.836C1624.06 978.331 1582.34 966.439 1570.27 943.858L1547.5 901.241ZM1481.27 1192.9C1556.3 1192.9 1617.12 1156.86 1617.12 1112.39C1617.12 1067.93 1556.3 1031.88 1481.27 1031.88C1406.24 1031.88 1345.41 1067.93 1345.41 1112.39C1345.41 1156.86 1406.24 1192.9 1481.27 1192.9Z"/>
</mask>
<path fill-rule="evenodd" clip-rule="evenodd" d="M1547.5 901.241C1527.04 862.956 1435.5 862.956 1415.04 901.241L1392.26 943.858C1380.19 966.439 1338.47 978.331 1301.12 969.836L1230.62 953.803C1167.28 939.401 1110.21 981.757 1148.03 1015.09L1190.13 1052.21C1212.43 1071.87 1202.13 1098.59 1167.62 1110.58L1102.48 1133.2C1043.97 1153.53 1064.34 1206.34 1131.96 1209.63L1207.23 1213.29C1247.11 1215.23 1275.98 1236.66 1270.3 1260.1L1259.58 1304.35C1249.95 1344.09 1332.42 1367.6 1378.92 1338.36L1430.68 1305.81C1458.11 1288.57 1504.42 1288.57 1531.85 1305.81L1583.61 1338.36C1630.11 1367.6 1712.59 1344.09 1702.95 1304.35L1692.23 1260.1C1686.55 1236.66 1715.42 1215.23 1755.31 1213.29L1830.58 1209.63C1898.2 1206.34 1918.57 1153.53 1860.05 1133.2L1794.92 1110.58C1760.41 1098.59 1750.1 1071.87 1772.41 1052.21L1814.5 1015.09C1852.32 981.757 1795.25 939.401 1731.92 953.803L1661.42 969.836C1624.06 978.331 1582.34 966.439 1570.27 943.858L1547.5 901.241ZM1481.27 1192.9C1556.3 1192.9 1617.12 1156.86 1617.12 1112.39C1617.12 1067.93 1556.3 1031.88 1481.27 1031.88C1406.24 1031.88 1345.41 1067.93 1345.41 1112.39C1345.41 1156.86 1406.24 1192.9 1481.27 1192.9Z" fill="#F1F5F7"/>
<path d="M1415.04 901.241L1409.39 898.224L1409.39 898.224L1415.04 901.241ZM1547.5 901.241L1541.85 904.257L1541.85 904.257L1547.5 901.241ZM1392.26 943.858L1397.91 946.875L1397.91 946.875L1392.26 943.858ZM1301.12 969.836L1302.53 963.595L1302.53 963.595L1301.12 969.836ZM1230.62 953.803L1229.2 960.044L1229.2 960.044L1230.62 953.803ZM1148.03 1015.09L1143.8 1019.9L1143.8 1019.9L1148.03 1015.09ZM1190.13 1052.21L1185.89 1057.01L1185.89 1057.01L1190.13 1052.21ZM1167.62 1110.58L1165.52 1104.53L1165.52 1104.53L1167.62 1110.58ZM1102.48 1133.2L1104.58 1139.25L1104.58 1139.25L1102.48 1133.2ZM1131.96 1209.63L1132.27 1203.24L1132.27 1203.24L1131.96 1209.63ZM1207.23 1213.29L1207.54 1206.9L1207.54 1206.9L1207.23 1213.29ZM1270.3 1260.1L1276.52 1261.61L1276.52 1261.61L1270.3 1260.1ZM1259.58 1304.35L1253.36 1302.84L1253.36 1302.84L1259.58 1304.35ZM1378.92 1338.36L1375.51 1332.94L1375.51 1332.94L1378.92 1338.36ZM1430.68 1305.81L1434.09 1311.23L1434.09 1311.23L1430.68 1305.81ZM1531.85 1305.81L1535.26 1300.39L1535.26 1300.39L1531.85 1305.81ZM1583.61 1338.36L1580.21 1343.78L1580.21 1343.78L1583.61 1338.36ZM1702.95 1304.35L1709.17 1302.84L1709.17 1302.84L1702.95 1304.35ZM1692.23 1260.1L1698.45 1258.59L1698.45 1258.59L1692.23 1260.1ZM1755.31 1213.29L1755 1206.9L1755 1206.9L1755.31 1213.29ZM1830.58 1209.63L1830.27 1203.24L1830.27 1203.24L1830.58 1209.63ZM1860.05 1133.2L1862.15 1127.16L1862.15 1127.16L1860.05 1133.2ZM1794.92 1110.58L1797.02 1104.53L1797.02 1104.53L1794.92 1110.58ZM1772.41 1052.21L1768.17 1047.4L1768.17 1047.4L1772.41 1052.21ZM1814.5 1015.09L1810.27 1010.29L1810.27 1010.29L1814.5 1015.09ZM1731.92 953.803L1733.34 960.044L1733.34 960.044L1731.92 953.803ZM1661.42 969.836L1660 963.595L1660 963.595L1661.42 969.836ZM1570.27 943.858L1564.63 946.875L1564.63 946.875L1570.27 943.858ZM1420.68 904.257C1424.86 896.444 1432.96 890.079 1443.9 885.635C1454.78 881.213 1467.94 878.927 1481.27 878.927C1494.59 878.927 1507.75 881.213 1518.64 885.635C1529.57 890.079 1537.68 896.444 1541.85 904.257L1553.14 898.224C1547.09 886.895 1536.07 878.904 1523.45 873.776C1510.78 868.627 1495.94 866.127 1481.27 866.127C1466.59 866.127 1451.75 868.627 1439.08 873.776C1426.46 878.904 1415.45 886.895 1409.39 898.224L1420.68 904.257ZM1397.91 946.875L1420.68 904.257L1409.39 898.224L1386.62 940.842L1397.91 946.875ZM1299.7 976.077C1319.44 980.567 1340.3 979.678 1357.92 974.655C1375.34 969.691 1390.71 960.336 1397.91 946.875L1386.62 940.842C1381.74 949.961 1370.22 957.842 1354.42 962.345C1338.82 966.79 1320.14 967.6 1302.53 963.595L1299.7 976.077ZM1229.2 960.044L1299.7 976.077L1302.53 963.595L1232.04 947.563L1229.2 960.044ZM1152.26 1010.29C1143.95 1002.97 1141.72 996.022 1142.43 990.198C1143.17 984.09 1147.33 977.528 1155.21 971.686C1170.95 960 1199.08 953.195 1229.2 960.044L1232.04 947.563C1198.82 940.009 1166.75 947.182 1147.58 961.407C1137.99 968.522 1131.02 977.899 1129.72 988.659C1128.38 999.703 1133.2 1010.55 1143.8 1019.9L1152.26 1010.29ZM1194.36 1047.4L1152.26 1010.29L1143.8 1019.9L1185.89 1057.01L1194.36 1047.4ZM1169.72 1116.62C1187.97 1110.28 1201.12 1099.61 1206.15 1086.57C1211.4 1072.97 1207.11 1058.65 1194.36 1047.4L1185.89 1057.01C1195.44 1065.43 1197.16 1074.3 1194.21 1081.97C1191.03 1090.2 1181.77 1098.89 1165.52 1104.53L1169.72 1116.62ZM1104.58 1139.25L1169.72 1116.62L1165.52 1104.53L1100.38 1127.16L1104.58 1139.25ZM1132.27 1203.24C1099.58 1201.65 1080.79 1188.22 1075.89 1175.5C1073.54 1169.4 1074.09 1162.97 1078.21 1156.82C1082.46 1150.47 1090.78 1144.04 1104.58 1139.25L1100.38 1127.16C1084.92 1132.53 1073.85 1140.32 1067.57 1149.7C1061.17 1159.26 1060.07 1170.06 1063.95 1180.11C1071.51 1199.71 1096.71 1214.33 1131.64 1216.02L1132.27 1203.24ZM1207.54 1206.9L1132.27 1203.24L1131.64 1216.02L1206.92 1219.68L1207.54 1206.9ZM1276.52 1261.61C1280.18 1246.51 1272.38 1232.93 1259.66 1223.49C1246.93 1214.04 1228.44 1207.91 1207.54 1206.9L1206.92 1219.68C1225.89 1220.6 1241.78 1226.16 1252.04 1233.77C1262.31 1241.39 1266.1 1250.25 1264.08 1258.59L1276.52 1261.61ZM1265.8 1305.85L1276.52 1261.61L1264.08 1258.59L1253.36 1302.84L1265.8 1305.85ZM1375.51 1332.94C1354.18 1346.36 1323.92 1347.9 1299.95 1341.07C1288.02 1337.67 1278.3 1332.36 1272.22 1326.09C1266.3 1319.98 1264.01 1313.22 1265.8 1305.85L1253.36 1302.84C1250.33 1315.34 1254.73 1326.43 1263.03 1334.99C1271.16 1343.39 1283.15 1349.59 1296.45 1353.38C1322.94 1360.93 1357.16 1359.6 1382.33 1343.78L1375.51 1332.94ZM1427.28 1300.39L1375.51 1332.94L1382.33 1343.78L1434.09 1311.23L1427.28 1300.39ZM1535.26 1300.39C1520.27 1290.97 1500.57 1286.48 1481.27 1286.48C1461.96 1286.48 1442.26 1290.97 1427.28 1300.39L1434.09 1311.23C1446.53 1303.41 1463.7 1299.28 1481.27 1299.28C1498.83 1299.28 1516 1303.41 1528.44 1311.23L1535.26 1300.39ZM1587.02 1332.94L1535.26 1300.39L1528.44 1311.23L1580.21 1343.78L1587.02 1332.94ZM1696.73 1305.85C1698.52 1313.22 1696.23 1319.98 1690.31 1326.09C1684.24 1332.36 1674.51 1337.67 1662.58 1341.07C1638.62 1347.9 1608.35 1346.36 1587.02 1332.94L1580.21 1343.78C1605.37 1359.6 1639.6 1360.93 1666.09 1353.38C1679.38 1349.59 1691.38 1343.39 1699.51 1334.99C1707.8 1326.43 1712.2 1315.34 1709.17 1302.84L1696.73 1305.85ZM1686.01 1261.61L1696.73 1305.85L1709.17 1302.84L1698.45 1258.59L1686.01 1261.61ZM1755 1206.9C1734.09 1207.91 1715.6 1214.04 1702.87 1223.49C1690.15 1232.93 1682.35 1246.51 1686.01 1261.61L1698.45 1258.59C1696.43 1250.25 1700.23 1241.39 1710.5 1233.77C1720.75 1226.16 1736.64 1220.6 1755.62 1219.68L1755 1206.9ZM1830.27 1203.24L1755 1206.9L1755.62 1219.68L1830.89 1216.02L1830.27 1203.24ZM1857.95 1139.25C1871.75 1144.04 1880.08 1150.47 1884.32 1156.82C1888.44 1162.97 1889 1169.4 1886.64 1175.5C1881.74 1188.22 1862.95 1201.65 1830.27 1203.24L1830.89 1216.02C1865.82 1214.33 1891.03 1199.71 1898.59 1180.11C1902.46 1170.06 1901.36 1159.26 1894.96 1149.7C1888.68 1140.32 1877.61 1132.53 1862.15 1127.16L1857.95 1139.25ZM1792.82 1116.62L1857.95 1139.25L1862.15 1127.16L1797.02 1104.53L1792.82 1116.62ZM1768.17 1047.4C1755.42 1058.65 1751.14 1072.97 1756.38 1086.57C1761.41 1099.61 1774.56 1110.28 1792.82 1116.62L1797.02 1104.53C1780.76 1098.89 1771.5 1090.2 1768.33 1081.97C1765.37 1074.3 1767.09 1065.43 1776.64 1057.01L1768.17 1047.4ZM1810.27 1010.29L1768.17 1047.4L1776.64 1057.01L1818.74 1019.9L1810.27 1010.29ZM1733.34 960.044C1763.45 953.195 1791.58 960 1807.33 971.686C1815.2 977.528 1819.37 984.09 1820.11 990.198C1820.81 996.022 1818.58 1002.97 1810.27 1010.29L1818.74 1019.9C1829.34 1010.55 1834.15 999.703 1832.81 988.659C1831.51 977.899 1824.54 968.522 1814.96 961.407C1795.79 947.182 1763.71 940.009 1730.5 947.563L1733.34 960.044ZM1662.84 976.077L1733.34 960.044L1730.5 947.563L1660 963.595L1662.84 976.077ZM1564.63 946.875C1571.82 960.336 1587.19 969.691 1604.61 974.655C1622.23 979.678 1643.09 980.567 1662.84 976.077L1660 963.595C1642.39 967.6 1623.71 966.79 1608.12 962.345C1592.32 957.842 1580.79 949.961 1575.92 940.842L1564.63 946.875ZM1541.85 904.257L1564.63 946.875L1575.92 940.842L1553.14 898.224L1541.85 904.257ZM1610.72 1112.39C1610.72 1131.45 1597.65 1149.84 1574.07 1163.82C1550.63 1177.71 1517.84 1186.5 1481.27 1186.5V1199.3C1519.73 1199.3 1554.86 1190.08 1580.59 1174.83C1606.19 1159.66 1623.52 1137.8 1623.52 1112.39H1610.72ZM1481.27 1038.28C1517.84 1038.28 1550.63 1047.08 1574.07 1060.97C1597.65 1074.94 1610.72 1093.33 1610.72 1112.39H1623.52C1623.52 1086.99 1606.19 1065.13 1580.59 1049.96C1554.86 1034.71 1519.73 1025.48 1481.27 1025.48V1038.28ZM1351.81 1112.39C1351.81 1093.33 1364.89 1074.94 1388.47 1060.97C1411.9 1047.08 1444.7 1038.28 1481.27 1038.28V1025.48C1442.81 1025.48 1407.67 1034.71 1381.94 1049.96C1356.35 1065.13 1339.01 1086.99 1339.01 1112.39H1351.81ZM1481.27 1186.5C1444.7 1186.5 1411.9 1177.71 1388.47 1163.82C1364.89 1149.84 1351.81 1131.45 1351.81 1112.39H1339.01C1339.01 1137.8 1356.35 1159.66 1381.94 1174.83C1407.67 1190.08 1442.81 1199.3 1481.27 1199.3V1186.5Z" fill="#3E5F72" mask="url(#path-5-inside-1_2773_3252)"/>
<path d="M1557.13 640.563H1553.93V643.763V1126.45L1553.93 1182.67C1533.07 1190.69 1508.1 1195.38 1481.23 1195.38C1455.77 1195.38 1432.01 1191.17 1411.84 1183.9V1050.01L1411.84 643.763V640.563H1408.64H1322.45L1481.23 450.755L1640.02 640.563H1557.13Z" fill="#FFDD65" stroke="#3E5F72" stroke-width="6.4"/>
<path d="M960.451 930.923L1370 876.877V2375.51H550.067V876.877L959.614 930.923L960.032 930.978L960.451 930.923Z" fill="#7B61FF" stroke="#7B61FF" stroke-width="6.4"/>
<path d="M960.451 930.923L1370 876.877V2375.51H550.067V876.877L959.614 930.923L960.032 930.978L960.451 930.923Z" fill="#7B61FF" stroke="#7B61FF" stroke-width="6.4"/>
<path d="M1302.2 702.171V1612.46H617.888V702.171H960.041H1302.2Z" fill="#7B61FF" stroke="#7B61FF" stroke-width="6.4"/>
<mask id="path-11-inside-2_2773_3252" fill="white">
<path fill-rule="evenodd" clip-rule="evenodd" d="M1026.29 608.876C1005.83 570.591 914.286 570.591 893.826 608.875L871.05 651.493C858.982 674.073 817.257 685.965 779.904 677.471L709.405 661.438C646.073 647.036 589 689.392 626.818 722.73L668.915 759.84C691.221 779.503 680.915 806.224 646.404 818.212L581.269 840.837C522.757 861.162 543.126 913.98 610.744 917.266L686.016 920.925C725.897 922.863 754.772 944.292 749.09 967.735L738.368 1011.98C728.735 1051.73 811.209 1075.23 857.71 1046L909.474 1013.45C936.9 996.201 983.211 996.201 1010.64 1013.45L1062.4 1046C1108.9 1075.23 1191.38 1051.73 1181.74 1011.98L1171.02 967.735C1165.34 944.292 1194.21 922.863 1234.1 920.925L1309.37 917.266C1376.99 913.98 1397.35 861.162 1338.84 840.837L1273.71 818.212C1239.2 806.224 1228.89 779.503 1251.2 759.84L1293.29 722.73C1331.11 689.392 1274.04 647.036 1210.71 661.438L1140.21 677.471C1102.85 685.965 1061.13 674.073 1049.06 651.493L1026.29 608.876ZM960.052 900.537C1035.08 900.537 1095.91 864.492 1095.91 820.028C1095.91 775.564 1035.08 739.519 960.052 739.519C885.022 739.519 824.198 775.564 824.198 820.028C824.198 864.492 885.022 900.537 960.052 900.537Z"/>
</mask>
<path fill-rule="evenodd" clip-rule="evenodd" d="M1026.29 608.876C1005.83 570.591 914.286 570.591 893.826 608.875L871.05 651.493C858.982 674.073 817.257 685.965 779.904 677.471L709.405 661.438C646.073 647.036 589 689.392 626.818 722.73L668.915 759.84C691.221 779.503 680.915 806.224 646.404 818.212L581.269 840.837C522.757 861.162 543.126 913.98 610.744 917.266L686.016 920.925C725.897 922.863 754.772 944.292 749.09 967.735L738.368 1011.98C728.735 1051.73 811.209 1075.23 857.71 1046L909.474 1013.45C936.9 996.201 983.211 996.201 1010.64 1013.45L1062.4 1046C1108.9 1075.23 1191.38 1051.73 1181.74 1011.98L1171.02 967.735C1165.34 944.292 1194.21 922.863 1234.1 920.925L1309.37 917.266C1376.99 913.98 1397.35 861.162 1338.84 840.837L1273.71 818.212C1239.2 806.224 1228.89 779.503 1251.2 759.84L1293.29 722.73C1331.11 689.392 1274.04 647.036 1210.71 661.438L1140.21 677.471C1102.85 685.965 1061.13 674.073 1049.06 651.493L1026.29 608.876ZM960.052 900.537C1035.08 900.537 1095.91 864.492 1095.91 820.028C1095.91 775.564 1035.08 739.519 960.052 739.519C885.022 739.519 824.198 775.564 824.198 820.028C824.198 864.492 885.022 900.537 960.052 900.537Z" fill="white"/>
<path d="M893.826 608.875L888.181 605.859L888.181 605.859L893.826 608.875ZM1026.29 608.876L1020.64 611.892L1020.64 611.892L1026.29 608.876ZM871.05 651.493L876.694 654.51L876.694 654.51L871.05 651.493ZM779.904 677.471L781.323 671.23L781.323 671.23L779.904 677.471ZM709.405 661.438L707.986 667.679L707.986 667.679L709.405 661.438ZM626.818 722.73L622.585 727.531L622.585 727.531L626.818 722.73ZM668.915 759.84L664.683 764.641L664.683 764.641L668.915 759.84ZM646.404 818.212L644.304 812.166L644.304 812.166L646.404 818.212ZM581.269 840.837L583.369 846.883L583.369 846.883L581.269 840.837ZM610.744 917.266L611.055 910.874L611.055 910.874L610.744 917.266ZM686.016 920.925L686.326 914.532L686.326 914.532L686.016 920.925ZM749.09 967.735L755.31 969.243L755.31 969.243L749.09 967.735ZM738.368 1011.98L732.148 1010.47L732.148 1010.47L738.368 1011.98ZM857.71 1046L854.303 1040.58L854.303 1040.58L857.71 1046ZM909.474 1013.45L912.88 1018.86L912.88 1018.86L909.474 1013.45ZM1010.64 1013.45L1014.04 1008.03L1014.04 1008.03L1010.64 1013.45ZM1062.4 1046L1058.99 1051.41L1058.99 1051.41L1062.4 1046ZM1181.74 1011.98L1187.96 1010.47L1187.96 1010.47L1181.74 1011.98ZM1171.02 967.735L1177.24 966.228L1177.24 966.228L1171.02 967.735ZM1234.1 920.925L1233.78 914.532L1233.78 914.532L1234.1 920.925ZM1309.37 917.266L1309.06 910.874L1309.06 910.874L1309.37 917.266ZM1338.84 840.837L1340.94 834.791L1340.94 834.791L1338.84 840.837ZM1273.71 818.212L1275.81 812.166L1275.81 812.166L1273.71 818.212ZM1251.2 759.84L1246.96 755.039L1246.96 755.039L1251.2 759.84ZM1293.29 722.73L1289.06 717.929L1289.06 717.929L1293.29 722.73ZM1210.71 661.438L1212.13 667.679L1212.13 667.679L1210.71 661.438ZM1140.21 677.471L1138.79 671.23L1138.79 671.23L1140.21 677.471ZM1049.06 651.493L1043.42 654.51L1043.42 654.51L1049.06 651.493ZM899.47 611.892C903.646 604.079 911.749 597.713 922.686 593.27C933.57 588.848 946.729 586.562 960.056 586.562C973.382 586.562 986.541 588.848 997.425 593.27C1008.36 597.713 1016.47 604.079 1020.64 611.892L1031.93 605.859C1025.88 594.53 1014.86 586.539 1002.24 581.411C989.57 576.262 974.729 573.762 960.056 573.762C945.382 573.762 930.542 576.262 917.868 581.411C905.248 586.539 894.236 594.53 888.181 605.859L899.47 611.892ZM876.694 654.51L899.47 611.892L888.181 605.859L865.405 648.476L876.694 654.51ZM778.485 683.711C798.228 688.201 819.089 687.313 836.713 682.29C854.131 677.326 869.5 667.971 876.694 654.51L865.405 648.476C860.532 657.595 849.005 665.477 833.205 669.98C817.611 674.425 798.933 675.235 781.323 671.23L778.485 683.711ZM707.986 667.679L778.485 683.711L781.323 671.23L710.824 655.197L707.986 667.679ZM631.05 717.929C622.741 710.604 620.509 703.656 621.215 697.833C621.955 691.724 626.123 685.162 633.994 679.321C649.741 667.634 677.869 660.83 707.986 667.679L710.824 655.197C677.609 647.644 645.535 654.816 626.366 669.042C616.78 676.156 609.812 685.534 608.508 696.293C607.17 707.338 611.986 718.187 622.585 727.531L631.05 717.929ZM673.148 755.039L631.05 717.929L622.585 727.531L664.683 764.641L673.148 755.039ZM648.504 824.257C666.763 817.915 679.91 807.243 684.937 794.207C690.184 780.601 685.902 766.283 673.148 755.039L664.683 764.641C674.234 773.06 675.952 781.934 672.995 789.601C669.818 797.838 660.557 806.521 644.304 812.166L648.504 824.257ZM583.369 846.883L648.504 824.257L644.304 812.166L579.169 834.791L583.369 846.883ZM611.055 910.874C578.372 909.285 559.582 895.851 554.679 883.138C552.325 877.033 552.879 870.607 557 864.451C561.245 858.109 569.574 851.675 583.369 846.883L579.169 834.791C563.709 840.162 552.642 847.951 546.363 857.331C539.958 866.898 538.861 877.693 542.736 887.744C550.295 907.342 575.499 921.961 610.434 923.659L611.055 910.874ZM686.326 914.532L611.055 910.874L610.434 923.659L685.705 927.317L686.326 914.532ZM755.31 969.243C758.97 954.142 751.169 940.563 738.453 931.126C725.724 921.679 707.232 915.548 686.326 914.532L685.705 927.317C704.681 928.24 720.567 933.792 730.825 941.405C741.097 949.028 744.892 957.885 742.87 966.228L755.31 969.243ZM744.588 1013.49L755.31 969.243L742.87 966.228L732.148 1010.47L744.588 1013.49ZM854.303 1040.58C832.97 1053.99 802.706 1055.53 778.743 1048.7C766.812 1045.3 757.087 1040 751.01 1033.72C745.094 1027.61 742.802 1020.86 744.588 1013.49L732.148 1010.47C729.117 1022.98 733.522 1034.06 741.814 1042.63C749.945 1051.02 761.938 1057.22 775.234 1061.01C801.725 1068.56 835.948 1067.24 861.116 1051.41L854.303 1040.58ZM906.067 1008.03L854.303 1040.58L861.116 1051.41L912.88 1018.86L906.067 1008.03ZM1014.04 1008.03C999.058 998.606 979.358 994.113 960.056 994.113C940.753 994.113 921.053 998.606 906.067 1008.03L912.88 1018.86C925.321 1011.04 942.489 1006.91 960.056 1006.91C977.622 1006.91 994.79 1011.04 1007.23 1018.86L1014.04 1008.03ZM1065.81 1040.58L1014.04 1008.03L1007.23 1018.86L1058.99 1051.41L1065.81 1040.58ZM1175.52 1013.49C1177.31 1020.86 1175.02 1027.61 1169.1 1033.72C1163.02 1040 1153.3 1045.3 1141.37 1048.7C1117.4 1055.53 1087.14 1053.99 1065.81 1040.58L1058.99 1051.41C1084.16 1067.24 1118.39 1068.56 1144.88 1061.01C1158.17 1057.22 1170.17 1051.02 1178.3 1042.63C1186.59 1034.06 1190.99 1022.98 1187.96 1010.47L1175.52 1013.49ZM1164.8 969.243L1175.52 1013.49L1187.96 1010.47L1177.24 966.228L1164.8 969.243ZM1233.78 914.532C1212.88 915.548 1194.39 921.679 1181.66 931.126C1168.94 940.563 1161.14 954.142 1164.8 969.243L1177.24 966.228C1175.22 957.885 1179.01 949.028 1189.29 941.405C1199.54 933.792 1215.43 928.24 1234.41 927.317L1233.78 914.532ZM1309.06 910.874L1233.78 914.532L1234.41 927.317L1309.68 923.659L1309.06 910.874ZM1336.74 846.883C1350.54 851.675 1358.87 858.109 1363.11 864.451C1367.23 870.607 1367.79 877.033 1365.43 883.138C1360.53 895.851 1341.74 909.285 1309.06 910.874L1309.68 923.659C1344.61 921.961 1369.82 907.342 1377.37 887.744C1381.25 877.693 1380.15 866.899 1373.75 857.331C1367.47 847.951 1356.4 840.162 1340.94 834.791L1336.74 846.883ZM1271.61 824.257L1336.74 846.883L1340.94 834.791L1275.81 812.166L1271.61 824.257ZM1246.96 755.039C1234.21 766.283 1229.93 780.601 1235.17 794.207C1240.2 807.243 1253.35 817.915 1271.61 824.257L1275.81 812.166C1259.55 806.521 1250.29 797.838 1247.12 789.601C1244.16 781.934 1245.88 773.06 1255.43 764.641L1246.96 755.039ZM1289.06 717.929L1246.96 755.039L1255.43 764.641L1297.53 727.531L1289.06 717.929ZM1212.13 667.679C1242.24 660.83 1270.37 667.634 1286.12 679.321C1293.99 685.162 1298.16 691.724 1298.9 697.833C1299.6 703.656 1297.37 710.604 1289.06 717.929L1297.53 727.531C1308.13 718.187 1312.94 707.338 1311.6 696.293C1310.3 685.534 1303.33 676.156 1293.75 669.042C1274.58 654.816 1242.5 647.644 1209.29 655.197L1212.13 667.679ZM1141.63 683.711L1212.13 667.679L1209.29 655.197L1138.79 671.23L1141.63 683.711ZM1043.42 654.51C1050.61 667.971 1065.98 677.326 1083.4 682.29C1101.02 687.313 1121.88 688.201 1141.63 683.711L1138.79 671.23C1121.18 675.235 1102.5 674.425 1086.91 669.98C1071.11 665.477 1059.58 657.595 1054.71 648.476L1043.42 654.51ZM1020.64 611.892L1043.42 654.51L1054.71 648.476L1031.93 605.859L1020.64 611.892ZM1089.51 820.028C1089.51 839.089 1076.43 857.479 1052.85 871.451C1029.42 885.34 996.62 894.137 960.052 894.137V906.937C998.514 906.937 1033.65 897.712 1059.38 882.463C1084.97 867.296 1102.31 845.431 1102.31 820.028H1089.51ZM960.052 745.919C996.62 745.919 1029.42 754.716 1052.85 768.605C1076.43 782.577 1089.51 800.967 1089.51 820.028H1102.31C1102.31 794.625 1084.97 772.76 1059.38 757.593C1033.65 742.344 998.514 733.119 960.052 733.119V745.919ZM830.598 820.028C830.598 800.967 843.674 782.577 867.251 768.605C890.688 754.716 923.483 745.919 960.052 745.919V733.119C921.59 733.119 886.458 742.344 860.725 757.593C835.133 772.76 817.798 794.625 817.798 820.028H830.598ZM960.052 894.137C923.483 894.137 890.688 885.34 867.251 871.451C843.674 857.479 830.598 839.089 830.598 820.028H817.798C817.798 845.431 835.133 867.296 860.725 882.463C886.458 897.712 921.59 906.937 960.052 906.937V894.137Z" fill="#7B61FF" mask="url(#path-11-inside-2_2773_3252)"/>
<path d="M1035.9 347.313H1032.7V350.513V833.205L1032.7 889.419C1011.84 897.44 986.871 902.127 960 902.127C934.534 902.127 910.777 897.917 890.602 890.647V756.756L890.602 350.513V347.313H887.402H801.216L960 157.505L1118.78 347.313H1035.9Z" fill="#FFDD65" stroke="#7B61FF" stroke-width="6.4"/>
<path d="M439.177 1535.1L848.724 1481.05V2390.89H28.7938V1481.05L438.34 1535.1L438.759 1535.15L439.177 1535.1Z" fill="#3E5F72" stroke="#3E5F72" stroke-width="6.4"/>
<path d="M780.922 1306.35V2216.63H96.6141V1306.35H438.768H780.922Z" fill="#3E5F72" stroke="#3E5F72" stroke-width="6.4"/>
<mask id="path-16-inside-3_2773_3252" fill="white">
<path fill-rule="evenodd" clip-rule="evenodd" d="M504.996 1213.05C484.536 1174.76 392.997 1174.76 372.537 1213.05L349.761 1255.66C337.693 1278.25 295.968 1290.14 258.615 1281.64L188.116 1265.61C124.784 1251.21 67.7108 1293.56 105.529 1326.9L147.626 1364.01C169.932 1383.67 159.626 1410.4 125.115 1422.38L59.9804 1445.01C1.46775 1465.33 21.837 1518.15 89.4554 1521.44L164.727 1525.1C204.608 1527.04 233.483 1548.46 227.801 1571.91L217.079 1616.15C207.446 1655.9 289.92 1679.41 336.421 1650.17L388.185 1617.62C415.611 1600.37 461.922 1600.37 489.348 1617.62L541.112 1650.17C587.613 1679.41 670.087 1655.9 660.454 1616.15L649.732 1571.91C644.05 1548.46 672.925 1527.04 712.806 1525.1L788.078 1521.44C855.696 1518.15 876.065 1465.33 817.553 1445.01L752.418 1422.38C717.907 1410.4 707.602 1383.67 729.907 1364.01L772.005 1326.9C809.822 1293.56 752.749 1251.21 689.417 1265.61L618.918 1281.64C581.565 1290.14 539.84 1278.25 527.772 1255.66L504.996 1213.05ZM438.761 1504.71C513.792 1504.71 574.616 1468.67 574.616 1424.2C574.616 1379.74 513.792 1343.69 438.761 1343.69C363.731 1343.69 302.907 1379.74 302.907 1424.2C302.907 1468.67 363.731 1504.71 438.761 1504.71Z"/>
</mask>
<path fill-rule="evenodd" clip-rule="evenodd" d="M504.996 1213.05C484.536 1174.76 392.997 1174.76 372.537 1213.05L349.761 1255.66C337.693 1278.25 295.968 1290.14 258.615 1281.64L188.116 1265.61C124.784 1251.21 67.7108 1293.56 105.529 1326.9L147.626 1364.01C169.932 1383.67 159.626 1410.4 125.115 1422.38L59.9804 1445.01C1.46775 1465.33 21.837 1518.15 89.4554 1521.44L164.727 1525.1C204.608 1527.04 233.483 1548.46 227.801 1571.91L217.079 1616.15C207.446 1655.9 289.92 1679.41 336.421 1650.17L388.185 1617.62C415.611 1600.37 461.922 1600.37 489.348 1617.62L541.112 1650.17C587.613 1679.41 670.087 1655.9 660.454 1616.15L649.732 1571.91C644.05 1548.46 672.925 1527.04 712.806 1525.1L788.078 1521.44C855.696 1518.15 876.065 1465.33 817.553 1445.01L752.418 1422.38C717.907 1410.4 707.602 1383.67 729.907 1364.01L772.005 1326.9C809.822 1293.56 752.749 1251.21 689.417 1265.61L618.918 1281.64C581.565 1290.14 539.84 1278.25 527.772 1255.66L504.996 1213.05ZM438.761 1504.71C513.792 1504.71 574.616 1468.67 574.616 1424.2C574.616 1379.74 513.792 1343.69 438.761 1343.69C363.731 1343.69 302.907 1379.74 302.907 1424.2C302.907 1468.67 363.731 1504.71 438.761 1504.71Z" fill="#C7D5DE"/>
<path d="M372.537 1213.05L366.892 1210.03L366.892 1210.03L372.537 1213.05ZM504.996 1213.05L499.352 1216.06L499.352 1216.06L504.996 1213.05ZM349.761 1255.66L355.405 1258.68L355.405 1258.68L349.761 1255.66ZM258.615 1281.64L260.034 1275.4L260.034 1275.4L258.615 1281.64ZM188.116 1265.61L186.697 1271.85L186.697 1271.85L188.116 1265.61ZM105.529 1326.9L101.296 1331.7L101.296 1331.7L105.529 1326.9ZM147.626 1364.01L143.394 1368.81L143.394 1368.81L147.626 1364.01ZM125.115 1422.38L123.015 1416.34L123.015 1416.34L125.115 1422.38ZM59.9804 1445.01L62.0804 1451.05L62.0804 1451.05L59.9804 1445.01ZM89.4554 1521.44L89.7661 1515.05L89.7661 1515.05L89.4554 1521.44ZM164.727 1525.1L165.037 1518.7L165.037 1518.7L164.727 1525.1ZM227.801 1571.91L234.021 1573.41L234.021 1573.41L227.801 1571.91ZM217.079 1616.15L210.859 1614.65L210.859 1614.65L217.079 1616.15ZM336.421 1650.17L333.014 1644.75L333.014 1644.75L336.421 1650.17ZM388.185 1617.62L391.591 1623.04L391.591 1623.04L388.185 1617.62ZM489.348 1617.62L492.755 1612.2L492.755 1612.2L489.348 1617.62ZM541.112 1650.17L537.706 1655.58L537.706 1655.58L541.112 1650.17ZM660.454 1616.15L666.674 1614.65L666.674 1614.65L660.454 1616.15ZM649.732 1571.91L655.952 1570.4L655.952 1570.4L649.732 1571.91ZM712.806 1525.1L712.496 1518.7L712.496 1518.7L712.806 1525.1ZM788.078 1521.44L787.767 1515.05L787.767 1515.05L788.078 1521.44ZM817.553 1445.01L819.653 1438.96L819.653 1438.96L817.553 1445.01ZM752.418 1422.38L754.518 1416.34L754.518 1416.34L752.418 1422.38ZM729.907 1364.01L725.674 1359.21L725.674 1359.21L729.907 1364.01ZM772.005 1326.9L767.772 1322.1L767.772 1322.1L772.005 1326.9ZM689.417 1265.61L690.836 1271.85L690.836 1271.85L689.417 1265.61ZM618.918 1281.64L617.499 1275.4L617.499 1275.4L618.918 1281.64ZM527.772 1255.66L522.128 1258.68L522.128 1258.68L527.772 1255.66ZM378.181 1216.06C382.357 1208.25 390.46 1201.89 401.397 1197.44C412.281 1193.02 425.44 1190.73 438.767 1190.73C452.093 1190.73 465.252 1193.02 476.136 1197.44C487.073 1201.89 495.176 1208.25 499.352 1216.06L510.641 1210.03C504.586 1198.7 493.575 1190.71 480.954 1185.58C468.281 1180.43 453.44 1177.93 438.767 1177.93C424.093 1177.93 409.253 1180.43 396.579 1185.58C383.959 1190.71 372.947 1198.7 366.892 1210.03L378.181 1216.06ZM355.405 1258.68L378.181 1216.06L366.892 1210.03L344.116 1252.65L355.405 1258.68ZM257.196 1287.88C276.939 1292.37 297.8 1291.48 315.424 1286.46C332.842 1281.5 348.211 1272.14 355.405 1258.68L344.116 1252.65C339.243 1261.77 327.716 1269.65 311.916 1274.15C296.322 1278.6 277.644 1279.41 260.034 1275.4L257.196 1287.88ZM186.697 1271.85L257.196 1287.88L260.034 1275.4L189.535 1259.37L186.697 1271.85ZM109.761 1322.1C101.452 1314.78 99.2202 1307.83 99.9259 1302.01C100.666 1295.9 104.834 1289.33 112.705 1283.49C128.452 1271.81 156.58 1265 186.697 1271.85L189.535 1259.37C156.32 1251.82 124.246 1258.99 105.077 1273.21C95.4908 1280.33 88.5228 1289.71 87.2189 1300.47C85.8804 1311.51 90.6966 1322.36 101.296 1331.7L109.761 1322.1ZM151.859 1359.21L109.761 1322.1L101.296 1331.7L143.394 1368.81L151.859 1359.21ZM127.215 1428.43C145.474 1422.09 158.621 1411.42 163.648 1398.38C168.895 1384.77 164.613 1370.45 151.859 1359.21L143.394 1368.81C152.945 1377.23 154.663 1386.11 151.706 1393.77C148.529 1402.01 139.268 1410.69 123.015 1416.34L127.215 1428.43ZM62.0804 1451.05L127.215 1428.43L123.015 1416.34L57.8804 1438.96L62.0804 1451.05ZM89.7661 1515.05C57.083 1513.46 38.293 1500.02 33.3901 1487.31C31.0355 1481.2 31.5902 1474.78 35.7105 1468.62C39.956 1462.28 48.2845 1455.85 62.0804 1451.05L57.8804 1438.96C42.42 1444.33 31.3524 1452.12 25.0736 1461.5C18.6694 1471.07 17.5715 1481.87 21.4474 1491.92C29.0056 1511.51 54.2095 1526.13 89.1447 1527.83L89.7661 1515.05ZM165.037 1518.7L89.7661 1515.05L89.1447 1527.83L164.416 1531.49L165.037 1518.7ZM234.021 1573.41C237.681 1558.31 229.88 1544.74 217.164 1535.3C204.435 1525.85 185.943 1519.72 165.037 1518.7L164.416 1531.49C183.392 1532.41 199.278 1537.96 209.536 1545.58C219.808 1553.2 223.603 1562.06 221.581 1570.4L234.021 1573.41ZM223.299 1617.66L234.021 1573.41L221.581 1570.4L210.859 1614.65L223.299 1617.66ZM333.014 1644.75C311.681 1658.16 281.417 1659.7 257.454 1652.87C245.523 1649.47 235.798 1644.17 229.721 1637.9C223.805 1631.79 221.513 1625.03 223.299 1617.66L210.859 1614.65C207.828 1627.15 212.233 1638.24 220.525 1646.8C228.656 1655.2 240.649 1661.4 253.945 1665.18C280.436 1672.73 314.659 1671.41 339.827 1655.59L333.014 1644.75ZM384.778 1612.2L333.014 1644.75L339.827 1655.59L391.591 1623.04L384.778 1612.2ZM492.755 1612.2C477.769 1602.78 458.069 1598.28 438.767 1598.28C419.464 1598.28 399.764 1602.78 384.778 1612.2L391.591 1623.04C404.032 1615.21 421.2 1611.08 438.767 1611.08C456.333 1611.08 473.501 1615.21 485.942 1623.04L492.755 1612.2ZM544.519 1644.75L492.755 1612.2L485.942 1623.04L537.706 1655.58L544.519 1644.75ZM654.235 1617.66C656.02 1625.03 653.728 1631.79 647.812 1637.9C641.735 1644.17 632.01 1649.47 620.079 1652.87C596.116 1659.7 565.852 1658.16 544.519 1644.75L537.706 1655.58C562.874 1671.41 597.097 1672.73 623.588 1665.18C636.884 1661.4 648.877 1655.2 657.008 1646.8C665.3 1638.24 669.705 1627.15 666.674 1614.65L654.235 1617.66ZM643.512 1573.41L654.235 1617.66L666.674 1614.65L655.952 1570.4L643.512 1573.41ZM712.496 1518.7C691.59 1519.72 673.098 1525.85 660.369 1535.3C647.653 1544.74 639.852 1558.31 643.512 1573.41L655.952 1570.4C653.93 1562.06 657.725 1553.2 667.997 1545.58C678.255 1537.96 694.141 1532.41 713.117 1531.49L712.496 1518.7ZM787.767 1515.05L712.496 1518.7L713.117 1531.49L788.388 1527.83L787.767 1515.05ZM815.453 1451.05C829.249 1455.85 837.577 1462.28 841.823 1468.62C845.943 1474.78 846.498 1481.2 844.143 1487.31C839.24 1500.02 820.45 1513.46 787.767 1515.05L788.388 1527.83C823.324 1526.13 848.527 1511.51 856.086 1491.92C859.962 1481.87 858.864 1471.07 852.46 1461.5C846.181 1452.12 835.113 1444.33 819.653 1438.96L815.453 1451.05ZM750.318 1428.43L815.453 1451.05L819.653 1438.96L754.518 1416.34L750.318 1428.43ZM725.674 1359.21C712.92 1370.45 708.638 1384.77 713.885 1398.38C718.912 1411.42 732.059 1422.09 750.318 1428.43L754.518 1416.34C738.265 1410.69 729.004 1402.01 725.827 1393.77C722.871 1386.11 724.588 1377.23 734.139 1368.81L725.674 1359.21ZM767.772 1322.1L725.674 1359.21L734.139 1368.81L776.237 1331.7L767.772 1322.1ZM690.836 1271.85C720.953 1265 749.081 1271.81 764.828 1283.49C772.699 1289.33 776.867 1295.9 777.607 1302.01C778.313 1307.83 776.081 1314.78 767.772 1322.1L776.237 1331.7C786.836 1322.36 791.653 1311.51 790.314 1300.47C789.01 1289.71 782.042 1280.33 772.456 1273.21C753.287 1258.99 721.213 1251.82 687.998 1259.37L690.836 1271.85ZM620.337 1287.88L690.836 1271.85L687.998 1259.37L617.499 1275.4L620.337 1287.88ZM522.128 1258.68C529.322 1272.14 544.692 1281.5 562.109 1286.46C579.733 1291.48 600.594 1292.37 620.337 1287.88L617.499 1275.4C599.889 1279.41 581.211 1278.6 565.617 1274.15C549.817 1269.65 538.291 1261.77 533.417 1252.65L522.128 1258.68ZM499.352 1216.06L522.128 1258.68L533.417 1252.65L510.641 1210.03L499.352 1216.06ZM568.216 1424.2C568.216 1443.27 555.139 1461.65 531.562 1475.63C508.125 1489.52 475.33 1498.31 438.761 1498.31V1511.11C477.223 1511.11 512.355 1501.89 538.088 1486.64C563.68 1471.47 581.016 1449.61 581.016 1424.2H568.216ZM438.761 1350.09C475.33 1350.09 508.125 1358.89 531.562 1372.78C555.139 1386.75 568.216 1405.14 568.216 1424.2H581.016C581.016 1398.8 563.68 1376.94 538.088 1361.77C512.355 1346.52 477.223 1337.29 438.761 1337.29V1350.09ZM309.307 1424.2C309.307 1405.14 322.384 1386.75 345.961 1372.78C369.398 1358.89 402.193 1350.09 438.761 1350.09V1337.29C400.3 1337.29 365.168 1346.52 339.435 1361.77C313.843 1376.94 296.507 1398.8 296.507 1424.2H309.307ZM438.761 1498.31C402.193 1498.31 369.398 1489.52 345.961 1475.63C322.384 1461.65 309.307 1443.27 309.307 1424.2H296.507C296.507 1449.61 313.843 1471.47 339.435 1486.64C365.168 1501.89 400.3 1511.11 438.761 1511.11V1498.31Z" fill="#3E5F72" mask="url(#path-16-inside-3_2773_3252)"/>
<path d="M514.672 1080.56H511.472V1083.76V1438.45L511.472 1494.66C490.609 1502.68 465.644 1507.37 438.774 1507.37C413.308 1507.37 389.551 1503.16 369.375 1495.89V1362L369.375 1083.76V1080.56H366.175H279.99L438.774 890.747L597.558 1080.56H514.672Z" fill="#FFDD65" stroke="#3E5F72" stroke-width="6.4"/>
<path d="M304.101 456.283L316.371 410.709L328.642 456.283C340.799 501.434 376.068 536.703 421.22 548.86L466.794 561.131L421.22 573.402C376.068 585.559 340.799 620.828 328.642 665.98L316.371 711.554L304.101 665.98C291.944 620.828 256.675 585.559 211.523 573.402L165.949 561.131L211.523 548.86C256.675 536.703 291.944 501.435 304.101 456.283Z" fill="white" stroke="#7B61FF" stroke-width="6.4"/>
<path d="M1577.32 201.314L1583.57 178.076L1589.83 201.314C1599.62 237.655 1628 266.043 1664.35 275.828L1687.58 282.084L1664.35 288.341C1628 298.126 1599.62 326.513 1589.83 362.855L1583.57 386.093L1577.32 362.855C1567.53 326.513 1539.15 298.126 1502.8 288.341L1479.57 282.084L1502.8 275.828C1539.15 266.043 1567.53 237.655 1577.32 201.314Z" fill="white" stroke="#7B61FF" stroke-width="6.4"/>
<path d="M1117.7 1349.8L1126.8 1315.99L1135.91 1349.8C1142.13 1372.93 1160.2 1390.99 1183.33 1397.22L1217.14 1406.33L1183.33 1415.43C1160.2 1421.66 1142.13 1439.72 1135.91 1462.85L1126.8 1496.66L1117.7 1462.85C1111.47 1439.72 1093.41 1421.66 1070.28 1415.43L1036.46 1406.33L1070.28 1397.22C1093.41 1390.99 1111.47 1372.93 1117.7 1349.8Z" fill="white" stroke="#7B61FF" stroke-width="6.4"/>
</g>
<defs>
<linearGradient id="paint0_linear_2773_3252" x1="959.984" y1="-317.636" x2="959.984" y2="1475.58" gradientUnits="userSpaceOnUse">
<stop stop-color="#7B61FF"/>
<stop offset="1" stop-color="white" stop-opacity="0"/>
</linearGradient>
</defs>
</svg>
