<svg width="1920" height="1920" viewBox="0 0 1920 1920" fill="none" xmlns="http://www.w3.org/2000/svg">
<g clip-path="url(#clip0_2773_3292)">
<path d="M161.09 161.106C404.133 -81.9374 616.269 79.8622 959.983 79.8622C1303.7 79.8622 1515.83 -81.9374 1758.88 161.106C2001.92 404.149 1840.12 616.284 1840.12 959.999C1840.12 1303.71 2001.92 1515.85 1758.88 1758.89C1515.83 2001.94 1303.7 1840.14 959.983 1840.14C616.269 1840.14 404.133 2001.94 161.09 1758.89C-81.953 1515.85 79.8466 1303.71 79.8466 959.999C79.8466 616.284 -81.953 404.149 161.09 161.106Z" fill="url(#paint0_linear_2773_3292)"/>
<path d="M926.169 960.06C926.169 943.045 938.566 926.089 962.841 910.081C986.99 894.157 1022.14 879.693 1065.87 867.497C1153.28 843.118 1274.22 827.998 1407.93 827.998C1541.65 827.998 1662.59 843.118 1750 867.497C1793.72 879.694 1828.88 894.157 1853.03 910.081C1877.3 926.089 1889.7 943.045 1889.7 960.06C1889.7 977.075 1877.3 994.031 1853.03 1010.04C1828.88 1025.96 1793.72 1040.43 1750 1052.62C1662.59 1077 1541.65 1092.12 1407.93 1092.12C1274.22 1092.12 1153.28 1077 1065.87 1052.62C1022.14 1040.43 986.99 1025.96 962.841 1010.04C938.566 994.031 926.169 977.075 926.169 960.06Z" fill="white" stroke="#61CA9D" stroke-width="6.4"/>
<path d="M929.038 956.783C924.634 940.348 932.22 920.761 951.526 899.016C970.73 877.384 1000.94 854.315 1040.02 831.217C1118.15 785.045 1231.05 739.139 1360.21 704.531C1489.37 669.923 1610.1 653.227 1700.84 654.153C1746.23 654.616 1783.93 659.488 1811.38 668.619C1838.97 677.799 1855.33 690.968 1859.74 707.403C1864.14 723.839 1856.55 743.425 1837.25 765.171C1818.04 786.802 1787.83 809.872 1748.75 832.97C1670.63 879.142 1557.73 925.048 1428.57 959.656C1299.41 994.263 1178.68 1010.96 1087.94 1010.03C1042.54 1009.57 1004.84 1004.7 977.397 995.567C949.805 986.388 933.442 973.219 929.038 956.783Z" fill="#FFC8D8" stroke="#61CA9D" stroke-width="6.4"/>
<path d="M931.399 956.236C922.891 941.5 925.149 920.618 938.169 894.617C951.12 868.752 974.333 838.649 1006.1 806.223C1069.61 741.405 1166.79 667.841 1282.59 600.984C1398.39 534.127 1510.68 486.752 1598.57 464.161C1642.54 452.859 1680.22 447.808 1709.09 449.525C1738.12 451.25 1757.33 459.735 1765.84 474.471C1774.35 489.207 1772.09 510.089 1759.07 536.09C1746.12 561.955 1722.91 592.058 1691.14 624.484C1627.63 689.302 1530.45 762.866 1414.65 829.723C1298.85 896.58 1186.55 943.955 1098.67 966.546C1054.7 977.848 1017.02 982.899 988.147 981.182C959.12 979.457 939.906 970.972 931.399 956.236Z" fill="white" stroke="#61CA9D" stroke-width="6.4"/>
<path d="M934.04 960.081C922.008 948.049 918.785 927.294 924.631 898.809C930.446 870.474 945.077 835.388 967.373 795.844C1011.94 716.797 1086.77 620.59 1181.32 526.039C1275.87 431.489 1372.07 356.664 1451.12 312.095C1490.67 289.8 1525.75 275.169 1554.09 269.354C1582.57 263.507 1603.33 266.731 1615.36 278.762C1627.39 290.794 1630.61 311.549 1624.77 340.034C1618.95 368.369 1604.32 403.455 1582.02 442.999C1537.46 522.046 1462.63 618.253 1368.08 712.804C1273.53 807.354 1177.32 882.179 1098.28 926.748C1058.73 949.043 1023.65 963.674 995.311 969.489C966.826 975.336 946.071 972.112 934.04 960.081Z" fill="#FFC8D8" stroke="#61CA9D" stroke-width="6.4"/>
<path d="M939.659 964.782C924.923 956.275 916.437 937.061 914.712 908.034C912.996 879.159 918.047 841.482 929.348 797.515C951.94 709.626 999.315 597.331 1066.17 481.531C1133.03 365.731 1206.59 268.555 1271.41 205.046C1303.84 173.275 1333.94 150.062 1359.8 137.111C1385.81 124.092 1406.69 121.834 1421.42 130.341C1436.16 138.849 1444.64 158.063 1446.37 187.09C1448.09 215.965 1443.04 253.642 1431.73 297.609C1409.14 385.497 1361.77 497.793 1294.91 613.593C1228.05 729.393 1154.49 826.568 1089.67 890.078C1057.25 921.849 1027.14 945.061 1001.28 958.012C975.276 971.032 954.394 973.29 939.659 964.782Z" fill="white" stroke="#61CA9D" stroke-width="6.4"/>
<path d="M949.381 968.796C932.945 964.392 919.776 948.029 910.597 920.438C901.465 892.991 896.593 855.291 896.13 809.897C895.204 719.156 911.901 598.425 946.508 469.267C981.116 340.109 1027.02 227.205 1073.19 149.084C1096.29 110.003 1119.36 79.7897 1140.99 60.5856C1162.74 41.2802 1182.33 33.6942 1198.76 38.0981C1215.2 42.502 1228.37 58.8647 1237.54 86.4565C1246.68 113.903 1251.55 151.604 1252.01 196.997C1252.94 287.739 1236.24 408.469 1201.63 537.627C1167.03 666.785 1121.12 779.689 1074.95 857.811C1051.85 896.891 1028.78 927.105 1007.15 946.309C985.402 965.614 965.816 973.2 949.381 968.796Z" fill="#FFC8D8" stroke="#61CA9D" stroke-width="6.4"/>
<path d="M977.456 987.589C960.441 987.589 943.486 975.192 927.478 950.916C911.554 926.768 897.09 891.614 884.894 847.886C860.514 760.477 845.394 639.538 845.394 505.824C845.394 372.11 860.514 251.172 884.894 163.762C897.09 120.035 911.554 84.8803 927.478 60.7319C943.486 36.4561 960.441 24.0594 977.456 24.0594C994.472 24.0594 1011.43 36.4561 1027.44 60.7319C1043.36 84.8803 1057.82 120.035 1070.02 163.762C1094.4 251.172 1109.52 372.11 1109.52 505.824C1109.52 639.538 1094.4 760.477 1070.02 847.886C1057.82 891.614 1043.36 926.768 1027.44 950.916C1011.43 975.192 994.472 987.589 977.456 987.589Z" fill="white" stroke="#61CA9D" stroke-width="6.4"/>
<path d="M974.18 984.719C957.744 989.123 938.158 981.537 916.412 962.232C894.781 943.028 871.711 912.815 848.613 873.734C802.441 795.613 756.535 682.708 721.927 553.55C687.32 424.393 670.624 303.662 671.549 212.921C672.012 167.527 676.884 129.827 686.016 102.38C695.195 74.7878 708.364 58.4252 724.8 54.0213C741.236 49.6174 760.822 57.2033 782.567 76.5088C804.199 95.7129 827.268 125.926 850.366 165.007C896.538 243.128 942.444 356.032 977.052 485.19C1011.66 614.348 1028.36 735.079 1027.43 825.82C1026.97 871.214 1022.1 908.914 1012.96 936.361C1003.78 963.953 990.615 980.315 974.18 984.719Z" fill="#FFC8D8" stroke="#61CA9D" stroke-width="6.4"/>
<path d="M973.63 982.351C958.894 990.859 938.012 988.601 912.011 975.581C886.146 962.63 856.043 939.417 823.617 907.647C758.799 844.137 685.236 746.962 618.379 631.162C551.522 515.362 504.147 403.066 481.555 315.177C470.254 271.211 465.203 233.534 466.919 204.659C468.645 175.631 477.13 156.418 491.866 147.91C506.601 139.402 527.484 141.661 553.485 154.68C579.349 167.631 609.453 190.844 641.878 222.615C706.697 286.124 780.26 383.3 847.117 499.1C913.974 614.9 961.349 727.195 983.94 815.084C995.242 859.051 1000.29 896.728 998.577 925.603C996.851 954.63 988.366 973.844 973.63 982.351Z" fill="white" stroke="#61CA9D" stroke-width="6.4"/>
<path d="M977.483 979.716C965.451 991.748 944.696 994.971 916.211 989.125C887.876 983.31 852.791 968.679 813.247 946.383C734.2 901.814 637.992 826.989 543.442 732.439C448.892 637.889 374.067 541.681 329.498 462.634C307.202 423.09 292.571 388.005 286.756 359.67C280.91 331.185 284.133 310.43 296.165 298.398C308.196 286.366 328.951 283.143 357.436 288.989C385.772 294.805 420.857 309.435 460.401 331.731C539.448 376.3 635.656 451.125 730.206 545.675C824.756 640.225 899.581 736.433 944.15 815.48C966.446 855.024 981.076 890.109 986.892 918.445C992.738 946.929 989.515 967.684 977.483 979.716Z" fill="#FFC8D8" stroke="#61CA9D" stroke-width="6.4"/>
<path d="M982.183 974.105C973.675 988.841 954.461 997.326 925.434 999.052C896.559 1000.77 858.882 995.717 814.915 984.415C727.027 961.824 614.731 914.449 498.931 847.592C383.131 780.735 285.956 707.171 222.446 642.353C190.676 609.927 167.463 579.824 154.512 553.959C141.492 527.958 139.234 507.076 147.742 492.34C156.249 477.604 175.463 469.119 204.49 467.394C233.365 465.677 271.042 470.728 315.009 482.03C402.898 504.621 515.194 551.996 630.993 618.853C746.793 685.71 843.969 759.274 907.478 824.092C939.249 856.518 962.462 886.621 975.413 912.486C988.432 938.487 990.69 959.369 982.183 974.105Z" fill="white" stroke="#61CA9D" stroke-width="6.4"/>
<path d="M986.187 964.371C981.783 980.807 965.42 993.976 937.829 1003.16C910.382 1012.29 872.681 1017.16 827.288 1017.62C736.546 1018.55 615.816 1001.85 486.658 967.244C357.5 932.636 244.596 886.73 166.474 840.558C127.393 817.46 97.1804 794.39 77.9763 772.759C58.6708 751.013 51.0848 731.427 55.4887 714.991C59.8927 698.556 76.2553 685.387 103.847 676.207C131.294 667.076 168.994 662.204 214.388 661.74C305.129 660.815 425.86 677.511 555.018 712.119C684.176 746.727 797.08 792.633 875.202 838.805C914.282 861.903 944.495 884.973 963.699 906.604C983.005 928.35 990.591 947.936 986.187 964.371Z" fill="#FFC8D8" stroke="#61CA9D" stroke-width="6.4"/>
<path fill-rule="evenodd" clip-rule="evenodd" d="M872.948 198.646C897.754 90.0644 935.441 20.7734 977.642 20.7734C1013.06 20.7734 1045.29 69.573 1069.41 149.441C1116.16 69.7036 1163.38 25.1687 1199.77 34.9208C1238.42 45.2769 1257.03 114.753 1255.33 216.801C1326.27 143.444 1388.55 107.48 1423.2 127.485C1458.33 147.766 1457.84 221.4 1428.62 321.6C1517.98 267.306 1589.09 247.702 1617.81 276.415C1646.83 305.436 1626.49 377.783 1570.86 468.496C1673 438.165 1748.26 437.211 1768.79 472.785C1789.79 509.149 1749.14 575.944 1668.32 651.253C1777.34 647.729 1852.23 666.243 1863.01 706.49C1874.05 747.677 1815.56 802.723 1715.21 855.279C1823.79 880.084 1893.09 917.772 1893.09 959.974C1893.09 1034.68 1675.96 1095.24 1408.12 1095.24C1193.98 1095.24 1012.26 1056.53 947.997 1002.83C868.392 1034.76 687.282 1024.18 486.012 970.248C227.3 900.926 33.2457 786.234 52.5804 714.076C62.9366 675.426 132.414 656.819 234.464 658.525C161.113 587.58 125.152 525.304 145.157 490.655C165.438 455.527 239.073 456.018 339.275 485.242C284.979 395.883 265.374 324.762 294.087 296.049C323.108 267.028 395.451 287.367 486.161 342.996C455.829 240.845 454.875 165.592 490.448 145.053C526.814 124.057 593.612 164.71 668.925 245.537C665.401 136.517 683.915 61.6281 724.161 50.8442C765.348 39.8081 820.393 98.2948 872.948 198.646Z" fill="url(#paint1_linear_2773_3292)"/>
<path d="M996.761 959.938C996.761 976.953 984.364 993.909 960.088 1009.92C935.94 1025.84 900.786 1040.3 857.058 1052.5C769.649 1076.88 648.71 1092 514.996 1092C381.282 1092 260.344 1076.88 172.934 1052.5C129.207 1040.3 94.0521 1025.84 69.9038 1009.92C45.628 993.909 33.2312 976.953 33.2312 959.938C33.2312 942.923 45.628 925.967 69.9038 909.959C94.0521 894.035 129.207 879.572 172.934 867.376C260.344 842.996 381.282 827.876 514.996 827.876C648.71 827.876 769.649 842.996 857.058 867.376C900.786 879.572 935.94 894.035 960.088 909.959C984.364 925.967 996.761 942.923 996.761 959.938Z" fill="white" stroke="#61CA9D" stroke-width="6.4"/>
<path d="M993.891 963.215C998.295 979.65 990.709 999.237 971.404 1020.98C952.2 1042.61 921.987 1065.68 882.906 1088.78C804.784 1134.95 691.88 1180.86 562.722 1215.47C433.564 1250.07 312.834 1266.77 222.092 1265.85C176.699 1265.38 138.998 1260.51 111.552 1251.38C83.9597 1242.2 67.5971 1229.03 63.1932 1212.59C58.7892 1196.16 66.3752 1176.57 85.6807 1154.83C104.885 1133.2 135.098 1110.13 174.179 1087.03C252.3 1040.86 365.204 994.95 494.362 960.342C623.52 925.735 744.251 909.038 834.992 909.964C880.386 910.427 918.086 915.299 945.533 924.431C973.125 933.61 989.487 946.779 993.891 963.215Z" fill="#FFC8D8" stroke="#61CA9D" stroke-width="6.4"/>
<path d="M991.531 963.762C1000.04 978.498 997.78 999.38 984.761 1025.38C971.81 1051.25 948.597 1081.35 916.826 1113.77C853.317 1178.59 756.141 1252.16 640.342 1319.01C524.542 1385.87 412.246 1433.25 324.357 1455.84C280.39 1467.14 242.714 1472.19 213.839 1470.47C184.811 1468.75 165.598 1460.26 157.09 1445.53C148.582 1430.79 150.84 1409.91 163.86 1383.91C176.811 1358.04 200.024 1327.94 231.795 1295.51C295.304 1230.7 392.479 1157.13 508.279 1090.28C624.079 1023.42 736.375 976.043 824.264 953.452C868.231 942.15 905.907 937.099 934.782 938.816C963.81 940.541 983.023 949.026 991.531 963.762Z" fill="white" stroke="#61CA9D" stroke-width="6.4"/>
<path d="M988.89 959.917C1000.92 971.949 1004.15 992.704 998.299 1021.19C992.483 1049.52 977.853 1084.61 955.557 1124.15C910.988 1203.2 836.163 1299.41 741.613 1393.96C647.063 1488.51 550.855 1563.33 471.808 1607.9C432.264 1630.2 397.179 1644.83 368.843 1650.64C340.358 1656.49 319.603 1653.27 307.572 1641.24C295.54 1629.2 292.317 1608.45 298.163 1579.96C303.978 1551.63 318.609 1516.54 340.905 1477C385.474 1397.95 460.299 1301.74 554.849 1207.19C649.399 1112.64 745.607 1037.82 824.654 993.25C864.198 970.955 899.283 956.324 927.618 950.508C956.103 944.662 976.858 947.886 988.89 959.917Z" fill="#FFC8D8" stroke="#61CA9D" stroke-width="6.4"/>
<path d="M983.271 955.216C998.007 963.723 1006.49 982.937 1008.22 1011.96C1009.93 1040.84 1004.88 1078.52 993.581 1122.48C970.99 1210.37 923.615 1322.67 856.758 1438.47C789.901 1554.27 716.337 1651.44 651.519 1714.95C619.093 1746.72 588.99 1769.94 563.125 1782.89C537.124 1795.91 516.242 1798.16 501.506 1789.66C486.77 1781.15 478.285 1761.94 476.56 1732.91C474.843 1704.03 479.894 1666.36 491.196 1622.39C513.788 1534.5 561.162 1422.2 628.019 1306.41C694.876 1190.61 768.44 1093.43 833.258 1029.92C865.684 998.149 895.787 974.937 921.652 961.986C947.653 948.966 968.535 946.708 983.271 955.216Z" fill="white" stroke="#61CA9D" stroke-width="6.4"/>
<path d="M973.549 951.202C989.984 955.606 1003.15 971.968 1012.33 999.56C1021.46 1027.01 1026.34 1064.71 1026.8 1110.1C1027.73 1200.84 1011.03 1321.57 976.421 1450.73C941.814 1579.89 895.907 1692.79 849.735 1770.91C826.637 1810 803.568 1840.21 781.936 1859.41C760.191 1878.72 740.605 1886.3 724.169 1881.9C707.733 1877.5 694.564 1861.13 685.385 1833.54C676.254 1806.09 671.381 1768.39 670.918 1723C669.993 1632.26 686.689 1511.53 721.297 1382.37C755.904 1253.21 801.811 1140.31 847.983 1062.19C871.081 1023.11 894.15 992.893 915.782 973.689C937.527 954.384 957.113 946.798 973.549 951.202Z" fill="#FFC8D8" stroke="#61CA9D" stroke-width="6.4"/>
<path d="M963.988 950.263C946.972 950.263 930.017 962.659 914.009 986.935C898.085 1011.08 883.621 1046.24 871.425 1089.97C847.046 1177.37 831.926 1298.31 831.926 1432.03C831.926 1565.74 847.046 1686.68 871.425 1774.09C883.621 1817.82 898.085 1852.97 914.009 1877.12C930.017 1901.4 946.972 1913.79 963.988 1913.79C981.003 1913.79 997.958 1901.4 1013.97 1877.12C1029.89 1852.97 1044.35 1817.82 1056.55 1774.09C1080.93 1686.68 1096.05 1565.74 1096.05 1432.03C1096.05 1298.31 1080.93 1177.37 1056.55 1089.97C1044.35 1046.24 1029.89 1011.08 1013.97 986.935C997.959 962.659 981.003 950.263 963.988 950.263Z" fill="white" stroke="#61CA9D" stroke-width="6.4"/>
<path d="M954.186 951.202C937.75 955.606 924.581 971.968 915.401 999.56C906.27 1027.01 901.398 1064.71 900.935 1110.1C900.009 1200.84 916.705 1321.57 951.313 1450.73C985.921 1579.89 1031.83 1692.79 1078 1770.91C1101.1 1810 1124.17 1840.21 1145.8 1859.41C1167.54 1878.72 1187.13 1886.3 1203.57 1881.9C1220 1877.5 1233.17 1861.13 1242.35 1833.54C1251.48 1806.09 1256.35 1768.39 1256.82 1723C1257.74 1632.26 1241.05 1511.53 1206.44 1382.37C1171.83 1253.21 1125.92 1140.31 1079.75 1062.19C1056.65 1023.11 1033.58 992.893 1011.95 973.689C990.207 954.384 970.621 946.798 954.186 951.202Z" fill="#FFC8D8" stroke="#61CA9D" stroke-width="6.4"/>
<path d="M944.464 955.216C929.728 963.723 921.242 982.937 919.517 1011.96C917.801 1040.84 922.852 1078.52 934.153 1122.48C956.745 1210.37 1004.12 1322.67 1070.98 1438.47C1137.83 1554.27 1211.4 1651.44 1276.22 1714.95C1308.64 1746.72 1338.74 1769.94 1364.61 1782.89C1390.61 1795.91 1411.49 1798.16 1426.23 1789.66C1440.96 1781.15 1449.45 1761.94 1451.17 1732.91C1452.89 1704.03 1447.84 1666.36 1436.54 1622.39C1413.95 1534.5 1366.57 1422.2 1299.72 1306.41C1232.86 1190.61 1159.29 1093.43 1094.48 1029.92C1062.05 998.15 1031.95 974.937 1006.08 961.986C980.081 948.966 959.199 946.708 944.464 955.216Z" fill="white" stroke="#61CA9D" stroke-width="6.4"/>
<path d="M938.844 959.917C926.813 971.949 923.589 992.704 929.436 1021.19C935.251 1049.52 949.882 1084.61 972.178 1124.15C1016.75 1203.2 1091.57 1299.41 1186.12 1393.96C1280.67 1488.51 1376.88 1563.33 1455.93 1607.9C1495.47 1630.2 1530.56 1644.83 1558.89 1650.64C1587.38 1656.49 1608.13 1653.27 1620.16 1641.24C1632.19 1629.2 1635.42 1608.45 1629.57 1579.96C1623.76 1551.63 1609.13 1516.54 1586.83 1477C1542.26 1397.95 1467.44 1301.74 1372.89 1207.19C1278.34 1112.64 1182.13 1037.82 1103.08 993.25C1063.54 970.954 1028.45 956.324 1000.12 950.508C971.631 944.662 950.876 947.886 938.844 959.917Z" fill="#FFC8D8" stroke="#61CA9D" stroke-width="6.4"/>
<path d="M936.203 963.762C927.696 978.498 929.954 999.38 942.973 1025.38C955.924 1051.25 979.137 1081.35 1010.91 1113.77C1074.42 1178.59 1171.59 1252.16 1287.39 1319.01C1403.19 1385.87 1515.49 1433.25 1603.38 1455.84C1647.34 1467.14 1685.02 1472.19 1713.9 1470.47C1742.92 1468.75 1762.14 1460.26 1770.64 1445.53C1779.15 1430.79 1776.89 1409.91 1763.87 1383.91C1750.92 1358.04 1727.71 1327.94 1695.94 1295.51C1632.43 1230.7 1535.25 1157.13 1419.46 1090.28C1303.66 1023.42 1191.36 976.043 1103.47 953.452C1059.5 942.15 1021.83 937.099 992.952 938.815C963.925 940.541 944.711 949.026 936.203 963.762Z" fill="white" stroke="#61CA9D" stroke-width="6.4"/>
<path d="M933.843 963.215C929.439 979.65 937.025 999.237 956.331 1020.98C975.535 1042.61 1005.75 1065.68 1044.83 1088.78C1122.95 1134.95 1235.85 1180.86 1365.01 1215.47C1494.17 1250.07 1614.9 1266.77 1705.64 1265.85C1751.04 1265.38 1788.74 1260.51 1816.18 1251.38C1843.77 1242.2 1860.14 1229.03 1864.54 1212.59C1868.95 1196.16 1861.36 1176.57 1842.05 1154.83C1822.85 1133.2 1792.64 1110.13 1753.56 1087.03C1675.43 1040.86 1562.53 994.95 1433.37 960.342C1304.21 925.735 1183.48 909.038 1092.74 909.964C1047.35 910.427 1009.65 915.299 982.201 924.431C954.61 933.61 938.247 946.779 933.843 963.215Z" fill="#FFC8D8" stroke="#61CA9D" stroke-width="6.4"/>
<path d="M930.981 959.938C930.981 976.953 943.378 993.909 967.654 1009.92C991.802 1025.84 1026.96 1040.3 1070.68 1052.5C1158.09 1076.88 1279.03 1092 1412.75 1092C1546.46 1092 1667.4 1076.88 1754.81 1052.5C1798.54 1040.3 1833.69 1025.84 1857.84 1009.92C1882.11 993.909 1894.51 976.953 1894.51 959.938C1894.51 942.923 1882.11 925.967 1857.84 909.959C1833.69 894.035 1798.54 879.572 1754.81 867.376C1667.4 842.996 1546.46 827.876 1412.75 827.876C1279.03 827.876 1158.09 842.996 1070.68 867.375C1026.96 879.572 991.802 894.035 967.654 909.959C943.378 925.967 930.981 942.923 930.981 959.938Z" fill="white" stroke="#61CA9D" stroke-width="6.4"/>
<path fill-rule="evenodd" clip-rule="evenodd" d="M1719.82 1064.63C1828.41 1039.83 1897.7 1002.14 1897.7 959.938C1897.7 885.235 1680.58 824.676 1412.74 824.676C1210.01 824.676 1036.33 859.371 963.873 908.634C891.416 859.371 717.74 824.676 515.009 824.676C247.17 824.676 30.0438 885.235 30.0438 959.938C30.0438 1002.14 99.3382 1039.83 207.924 1064.63C107.571 1117.19 49.0826 1172.24 60.1188 1213.42C70.9027 1253.67 145.792 1272.18 254.811 1268.66C173.99 1343.97 133.341 1410.76 154.336 1447.13C174.874 1482.7 250.126 1481.75 352.275 1451.42C296.643 1542.13 276.302 1614.48 305.323 1643.5C334.036 1672.21 405.155 1652.61 494.512 1598.31C465.288 1698.51 464.797 1772.15 499.925 1792.43C534.576 1812.43 596.855 1776.47 667.803 1703.11C666.098 1805.16 684.705 1874.64 723.355 1884.99C762.138 1895.38 813.207 1844.13 862.915 1754.33C887.69 1854.13 923.79 1916.99 963.986 1916.99C1004.14 1916.99 1040.21 1854.25 1064.99 1754.61C1114.65 1844.24 1165.65 1895.37 1204.39 1884.99C1243.04 1874.64 1261.65 1805.16 1259.94 1703.11C1330.89 1776.47 1393.17 1812.43 1427.82 1792.43C1462.95 1772.15 1462.46 1698.51 1433.24 1598.31C1522.59 1652.61 1593.71 1672.21 1622.42 1643.5C1651.45 1614.48 1631.1 1542.13 1575.47 1451.42C1677.62 1481.75 1752.87 1482.7 1773.41 1447.13C1794.41 1410.76 1753.76 1343.97 1672.94 1268.66C1781.96 1272.18 1856.84 1253.67 1867.63 1213.42C1878.66 1172.24 1820.18 1117.19 1719.82 1064.63Z" fill="url(#paint2_linear_2773_3292)"/>
<path d="M930.966 959.942C930.966 976.957 943.362 993.913 967.638 1009.92C991.787 1025.84 1026.94 1040.31 1070.67 1052.5C1158.08 1076.88 1279.02 1092 1412.73 1092C1546.44 1092 1667.38 1076.88 1754.79 1052.5C1798.52 1040.31 1833.67 1025.84 1857.82 1009.92C1882.1 993.913 1894.5 976.957 1894.5 959.942C1894.5 942.927 1882.1 925.971 1857.82 909.963C1833.67 894.039 1798.52 879.575 1754.79 867.379C1667.38 843 1546.44 827.88 1412.73 827.88C1279.02 827.88 1158.08 843 1070.67 867.379C1026.94 879.575 991.787 894.039 967.638 909.963C943.362 925.971 930.966 942.927 930.966 959.942Z" fill="white" stroke="#61CA9D" stroke-width="6.4"/>
<circle cx="1414.77" cy="961.086" r="132.063" fill="url(#paint3_radial_2773_3292)" stroke="#61CA9D" stroke-width="6.4"/>
<circle cx="1414.75" cy="961.089" r="46.8346" fill="#61CA9D" stroke="#61CA9D" stroke-width="6.4"/>
<circle cx="1437.67" cy="930.224" r="20.7112" fill="white" stroke="#61CA9D" stroke-width="6.4"/>
<path d="M605.223 986.341C600.014 916.174 615.728 846.037 650.38 784.801C685.031 723.565 737.063 673.979 799.896 642.315C862.729 610.65 933.54 598.329 1003.38 606.908C1073.21 615.488 1138.93 644.584 1192.23 690.516" stroke="#61CA9D" stroke-width="5.10299"/>
<path d="M1440.14 1440.15C1370.83 1509.46 1287.34 1562.94 1195.4 1596.92C1103.46 1630.9 1005.25 1644.58 907.525 1637" stroke="#61CA9D" stroke-width="5.10299"/>
<path d="M286.538 812.883C313.474 689.578 373.747 576.034 460.785 484.632C547.823 393.23 658.284 327.479 780.126 294.548C901.968 261.616 1030.51 262.769 1151.74 297.879C1272.98 332.989 1382.24 400.71 1467.63 493.658" stroke="#61CA9D" stroke-width="5.10299"/>
<path d="M562.764 1523.37C413.349 1418.02 311.903 1257.63 280.743 1077.48" stroke="#61CA9D" stroke-width="5.10299"/>
<path d="M1405.03 1179.89C1368.87 1253.07 1315.22 1316.21 1248.82 1363.71C1182.43 1411.21 1105.35 1441.61 1024.41 1452.2C943.464 1462.8 861.157 1453.27 784.776 1424.45C708.396 1395.64 640.301 1348.43 586.522 1287.02C532.743 1225.6 494.941 1151.87 476.463 1072.36C457.986 992.84 459.404 909.995 480.591 831.159C501.779 752.322 542.082 679.928 597.931 620.388C653.78 560.848 723.451 516.001 800.773 489.818" stroke="#61CA9D" stroke-width="5.10299"/>
<path d="M1088.46 480.508C1172.63 503.061 1249.38 547.372 1310.99 608.987C1372.61 670.602 1416.92 747.351 1439.47 831.518" stroke="#61CA9D" stroke-width="5.10299"/>
</g>
<defs>
<linearGradient id="paint0_linear_2773_3292" x1="1892.89" y1="27.0938" x2="27.0781" y2="1892.9" gradientUnits="userSpaceOnUse">
<stop stop-color="#61CA9D"/>
<stop offset="1" stop-color="#FFC8D8"/>
</linearGradient>
<linearGradient id="paint1_linear_2773_3292" x1="1442.7" y1="1119.91" x2="601.718" y2="142.181" gradientUnits="userSpaceOnUse">
<stop offset="0.00833321" stop-color="#FFC8D8"/>
<stop offset="1" stop-color="#FFC8D8" stop-opacity="0"/>
</linearGradient>
<linearGradient id="paint2_linear_2773_3292" x1="625.767" y1="1916.99" x2="760.343" y2="1030.73" gradientUnits="userSpaceOnUse">
<stop stop-color="#61CA9D"/>
<stop offset="1" stop-color="white" stop-opacity="0"/>
</linearGradient>
<radialGradient id="paint3_radial_2773_3292" cx="0" cy="0" r="1" gradientUnits="userSpaceOnUse" gradientTransform="translate(1414.77 961.086) rotate(90) scale(135.263)">
<stop stop-color="white"/>
<stop offset="1" stop-color="white" stop-opacity="0"/>
</radialGradient>
<clipPath id="clip0_2773_3292">
<rect width="1920" height="1920" fill="white"/>
</clipPath>
</defs>
</svg>
