<svg width="1921" height="1920" viewBox="0 0 1921 1920" fill="none" xmlns="http://www.w3.org/2000/svg">
<rect width="1920" height="1920" transform="translate(0.109375)" fill="#C1D0FF"/>
<path d="M428.529 931.445H709.312L614.666 1229.58H333.883L428.529 931.445Z" fill="#212132"/>
<path fill-rule="evenodd" clip-rule="evenodd" d="M427.275 929.727H711.658L615.923 1231.29H331.539L427.275 929.727ZM428.53 931.442H709.313L614.667 1229.58H333.884L428.53 931.442Z" fill="#212132"/>
<path fill-rule="evenodd" clip-rule="evenodd" d="M706.478 929.727H990.861L895.126 1231.29H610.742L706.478 929.727ZM707.733 931.442H988.516L893.87 1229.58H613.087L707.733 931.442Z" fill="#212132"/>
<path d="M986.943 931.445H1267.73L1173.08 1229.58H892.297L986.943 931.445Z" fill="#212132"/>
<path fill-rule="evenodd" clip-rule="evenodd" d="M985.689 929.727H1270.07L1174.34 1231.29H889.953L985.689 929.727ZM986.944 931.442H1267.73L1173.08 1229.58H892.298L986.944 931.442Z" fill="#212132"/>
<path d="M1266.15 931.445H1546.94L1452.29 1229.58H1171.51L1266.15 931.445Z" fill="#212132"/>
<path fill-rule="evenodd" clip-rule="evenodd" d="M1264.9 929.727H1549.28L1453.55 1231.29H1169.16L1264.9 929.727ZM1266.16 931.442H1546.94L1452.29 1229.58H1171.51L1266.16 931.442Z" fill="#212132"/>
<path d="M613.084 1229.57H893.867L799.221 1527.71H518.438L613.084 1229.57Z" fill="#212132"/>
<path fill-rule="evenodd" clip-rule="evenodd" d="M611.829 1227.86H896.213L800.477 1529.43H516.094L611.829 1227.86ZM613.085 1229.58H893.868L799.222 1527.71H518.439L613.085 1229.58Z" fill="#212132"/>
<path d="M1171.51 1229.57H1452.29L1357.64 1527.71H1076.86L1171.51 1229.57Z" fill="#212132"/>
<path fill-rule="evenodd" clip-rule="evenodd" d="M1170.24 1227.86H1454.63L1358.89 1529.43H1074.51L1170.24 1227.86ZM1171.5 1229.58H1452.28L1357.64 1527.71H1076.85L1171.5 1229.58Z" fill="#212132"/>
<path d="M1450.71 1229.57H1731.49L1636.85 1527.71H1356.06L1450.71 1229.57Z" fill="#212132"/>
<path fill-rule="evenodd" clip-rule="evenodd" d="M1449.45 1227.86H1733.84L1638.1 1529.43H1353.72L1449.45 1227.86ZM1450.71 1229.58H1731.49L1636.85 1527.71H1356.06L1450.71 1229.58Z" fill="#212132"/>
<path d="M239.24 1527.71H520.023L425.377 1825.85H144.594L239.24 1527.71Z" fill="#212132"/>
<path fill-rule="evenodd" clip-rule="evenodd" d="M237.978 1526H522.361L426.626 1827.57H142.242L237.978 1526ZM239.233 1527.72H520.016L425.37 1825.85H144.587L239.233 1527.72Z" fill="#212132"/>
<path d="M797.638 1527.71H1078.42L983.775 1825.85H702.992L797.638 1527.71Z" fill="#212132"/>
<path fill-rule="evenodd" clip-rule="evenodd" d="M796.4 1526H1080.78L985.048 1827.57H700.664L796.4 1526ZM797.655 1527.72H1078.44L983.792 1825.85H703.009L797.655 1527.72Z" fill="#212132"/>
<path d="M1356.06 1527.71H1636.84L1542.2 1825.85H1261.41L1356.06 1527.71Z" fill="#212132"/>
<path fill-rule="evenodd" clip-rule="evenodd" d="M1354.81 1526H1639.2L1543.46 1827.57H1259.08L1354.81 1526ZM1356.07 1527.72H1636.85L1542.21 1825.85H1261.42L1356.07 1527.72Z" fill="#212132"/>
<path d="M556.271 998.637H548.241C542.709 1011.13 536.463 1013.8 526.649 1013.8H515.942L513.443 1021.84H535.75L504.164 1125.34H517.548L556.271 998.637Z" fill="#212132"/>
<path d="M1115.65 998.637H1107.62C1102.08 1011.13 1095.84 1013.8 1086.02 1013.8H1075.32L1072.82 1021.84H1095.12L1063.54 1125.34H1076.92L1115.65 998.637Z" fill="#212132"/>
<path d="M1395.33 998.637H1387.3C1381.76 1011.13 1375.52 1013.8 1365.7 1013.8H1355L1352.5 1021.84H1374.8L1343.22 1125.34H1356.6L1395.33 998.637Z" fill="#212132"/>
<path d="M739.865 1295.48H731.835C726.303 1307.97 720.057 1310.64 710.242 1310.64H699.535L697.037 1318.67H719.343L687.758 1422.18H701.142L739.865 1295.48Z" fill="#212132"/>
<path d="M1299.24 1295.48H1291.21C1285.68 1307.97 1279.43 1310.64 1269.62 1310.64H1258.91L1256.41 1318.67H1278.72L1247.13 1422.18H1260.52L1299.24 1295.48Z" fill="#212132"/>
<path d="M1578.92 1295.48H1570.89C1565.36 1307.97 1559.11 1310.64 1549.3 1310.64H1538.59L1536.09 1318.67H1558.4L1526.81 1422.18H1540.2L1578.92 1295.48Z" fill="#212132"/>
<path d="M367.521 1594.04H359.491C353.959 1606.53 347.713 1609.21 337.899 1609.21H327.192L324.693 1617.24H347L315.414 1720.74H328.798L367.521 1594.04Z" fill="#212132"/>
<path d="M926.896 1594.04H918.866C913.334 1606.53 907.088 1609.21 897.274 1609.21H886.567L884.068 1617.24H906.375L874.789 1720.74H888.173L926.896 1594.04Z" fill="#212132"/>
<path d="M1486.27 1594.04H1478.24C1472.71 1606.53 1466.46 1609.21 1456.65 1609.21H1445.94L1443.44 1617.24H1465.75L1434.16 1720.74H1447.55L1486.27 1594.04Z" fill="#212132"/>
<path d="M377.06 879.965H657.843L563.197 1178.1H282.414L377.06 879.965Z" fill="white"/>
<path fill-rule="evenodd" clip-rule="evenodd" d="M373.149 874.633H665.124L567.092 1183.43H275.117L373.149 874.633ZM377.052 879.966H657.835L563.189 1178.1H282.406L377.052 879.966Z" fill="#212132"/>
<path d="M1214.67 879.965H1495.45L1400.81 1178.1H1120.02L1214.67 879.965Z" fill="white"/>
<path fill-rule="evenodd" clip-rule="evenodd" d="M1210.77 874.633H1502.75L1404.72 1183.43H1112.74L1210.77 874.633ZM1214.68 879.966H1495.46L1400.81 1178.1H1120.03L1214.68 879.966Z" fill="#212132"/>
<path d="M561.615 1178.1H842.398L747.752 1476.23H466.969L561.615 1178.1Z" fill="white"/>
<path fill-rule="evenodd" clip-rule="evenodd" d="M557.704 1172.76H849.679L751.646 1481.56H459.672L557.704 1172.76ZM561.607 1178.1H842.39L747.744 1476.23H466.961L561.607 1178.1Z" fill="#212132"/>
<path d="M1399.24 1178.1H1680.02L1585.38 1476.23H1304.59L1399.24 1178.1Z" fill="white"/>
<path fill-rule="evenodd" clip-rule="evenodd" d="M1395.33 1172.76H1687.3L1589.27 1481.56H1297.3L1395.33 1172.76ZM1399.23 1178.1H1680.01L1585.37 1476.23H1304.59L1399.23 1178.1Z" fill="#212132"/>
<path d="M187.763 1476.24H468.546L373.9 1774.38H93.1172L187.763 1476.24Z" fill="white"/>
<path fill-rule="evenodd" clip-rule="evenodd" d="M183.86 1470.91H475.835L377.803 1779.71H85.8281L183.86 1470.91ZM187.763 1476.24H468.546L373.9 1774.38H93.1169L187.763 1476.24Z" fill="#212132"/>
<path d="M746.169 1476.24H1026.95L932.307 1774.38H651.523L746.169 1476.24Z" fill="white"/>
<path fill-rule="evenodd" clip-rule="evenodd" d="M742.267 1470.91H1034.24L936.209 1779.71H644.234L742.267 1470.91ZM746.169 1476.24H1026.95L932.306 1774.38H651.523L746.169 1476.24Z" fill="#212132"/>
<path d="M504.795 947.16H496.765C491.233 959.652 484.987 962.328 475.172 962.328H464.465L461.967 970.359H484.273L452.688 1073.86H466.071L504.795 947.16Z" fill="#212132"/>
<path d="M1064.17 947.16H1056.14C1050.61 959.652 1044.36 962.328 1034.55 962.328H1023.84L1021.34 970.359H1043.65L1012.06 1073.86H1025.45L1064.17 947.16Z" fill="#212132"/>
<path d="M1343.85 947.16H1335.82C1330.29 959.652 1324.04 962.328 1314.23 962.328H1303.52L1301.02 970.359H1323.33L1291.74 1073.86H1305.13L1343.85 947.16Z" fill="#212132"/>
<path d="M688.396 1244.01H680.366C674.834 1256.5 668.588 1259.18 658.774 1259.18H648.067L645.568 1267.21H667.875L636.289 1370.71H649.673L688.396 1244.01Z" fill="#212132"/>
<path d="M1247.77 1244.01H1239.74C1234.21 1256.5 1227.96 1259.18 1218.15 1259.18H1207.44L1204.94 1267.21H1227.25L1195.66 1370.71H1209.05L1247.77 1244.01Z" fill="#212132"/>
<path d="M1527.45 1244.01H1519.42C1513.89 1256.5 1507.64 1259.18 1497.83 1259.18H1487.12L1484.62 1267.21H1506.93L1475.34 1370.71H1488.73L1527.45 1244.01Z" fill="#212132"/>
<path d="M316.045 1542.56H308.015C302.483 1555.05 296.237 1557.73 286.422 1557.73H275.715L273.217 1565.76H295.523L263.938 1669.26H277.321L316.045 1542.56Z" fill="#212132"/>
<path d="M875.42 1542.56H867.39C861.858 1555.05 855.612 1557.73 845.797 1557.73H835.09L832.592 1565.76H854.898L823.312 1669.26H836.696L875.42 1542.56Z" fill="#212132"/>
<path d="M1434.79 1542.56H1426.76C1421.23 1555.05 1414.99 1557.73 1405.17 1557.73H1394.47L1391.97 1565.76H1414.27L1382.69 1669.26H1396.07L1434.79 1542.56Z" fill="#212132"/>
<path d="M428.529 143.859H709.312L614.666 441.994H333.883L428.529 143.859Z" fill="#212132"/>
<path fill-rule="evenodd" clip-rule="evenodd" d="M427.275 142.145H711.658L615.923 443.711H331.539L427.275 142.145ZM428.53 143.86H709.313L614.667 441.995H333.884L428.53 143.86Z" fill="#212132"/>
<path d="M707.74 143.859H988.523L893.877 441.994H613.094L707.74 143.859Z" fill="#212132"/>
<path fill-rule="evenodd" clip-rule="evenodd" d="M706.478 142.145H990.861L895.126 443.711H610.742L706.478 142.145ZM707.733 143.86H988.516L893.87 441.995H613.087L707.733 143.86Z" fill="#212132"/>
<path d="M986.943 143.859H1267.73L1173.08 441.994H892.297L986.943 143.859Z" fill="#212132"/>
<path fill-rule="evenodd" clip-rule="evenodd" d="M985.689 142.145H1270.07L1174.34 443.711H889.953L985.689 142.145ZM986.944 143.86H1267.73L1173.08 441.995H892.298L986.944 143.86Z" fill="#212132"/>
<path d="M1266.15 143.859H1546.94L1452.29 441.994H1171.51L1266.15 143.859Z" fill="#212132"/>
<path fill-rule="evenodd" clip-rule="evenodd" d="M1264.9 142.145H1549.28L1453.55 443.711H1169.16L1264.9 142.145ZM1266.16 143.86H1546.94L1452.29 441.995H1171.51L1266.16 143.86Z" fill="#212132"/>
<path d="M1545.35 143.859H1826.13L1731.49 441.994H1450.7L1545.35 143.859Z" fill="#212132"/>
<path fill-rule="evenodd" clip-rule="evenodd" d="M1544.09 142.145H1828.48L1732.74 443.711H1448.36L1544.09 142.145ZM1545.35 143.86H1826.13L1731.49 441.995H1450.7L1545.35 143.86Z" fill="#212132"/>
<path d="M333.888 442H614.671L520.025 740.135H239.242L333.888 442Z" fill="#212132"/>
<path fill-rule="evenodd" clip-rule="evenodd" d="M332.634 440.277H617.018L521.282 741.844H236.898L332.634 440.277ZM333.889 441.993H614.673L520.027 740.128H239.243L333.889 441.993Z" fill="#212132"/>
<path d="M613.084 442H893.867L799.221 740.135H518.438L613.084 442Z" fill="#212132"/>
<path fill-rule="evenodd" clip-rule="evenodd" d="M611.829 440.277H896.213L800.477 741.844H516.094L611.829 440.277ZM613.085 441.993H893.868L799.222 740.128H518.439L613.085 441.993Z" fill="#212132"/>
<path d="M892.294 442H1173.08L1078.43 740.135H797.648L892.294 442Z" fill="#212132"/>
<path fill-rule="evenodd" clip-rule="evenodd" d="M891.032 440.277H1175.42L1079.68 741.844H795.297L891.032 440.277ZM892.288 441.993H1173.07L1078.43 740.128H797.642L892.288 441.993Z" fill="#212132"/>
<path d="M1171.51 442H1452.29L1357.64 740.135H1076.86L1171.51 442Z" fill="#212132"/>
<path fill-rule="evenodd" clip-rule="evenodd" d="M1170.24 440.277H1454.63L1358.89 741.844H1074.51L1170.24 440.277ZM1171.5 441.993H1452.28L1357.64 740.128H1076.85L1171.5 441.993Z" fill="#212132"/>
<path d="M1450.71 442H1731.49L1636.85 740.135H1356.06L1450.71 442Z" fill="#212132"/>
<path fill-rule="evenodd" clip-rule="evenodd" d="M1449.45 440.277H1733.84L1638.1 741.844H1353.72L1449.45 440.277ZM1450.71 441.993H1731.49L1636.85 740.128H1356.06L1450.71 441.993Z" fill="#212132"/>
<path d="M239.24 740.133H520.023L425.377 1038.27H144.594L239.24 740.133Z" fill="#212132"/>
<path fill-rule="evenodd" clip-rule="evenodd" d="M237.978 738.422H522.361L426.626 1039.99H142.242L237.978 738.422ZM239.233 740.138H520.016L425.37 1038.27H144.587L239.233 740.138Z" fill="#212132"/>
<path d="M518.443 740.133H799.226L704.58 1038.27H423.797L518.443 740.133Z" fill="#212132"/>
<path fill-rule="evenodd" clip-rule="evenodd" d="M517.189 738.422H801.572L705.837 1039.99H421.453L517.189 738.422ZM518.444 740.138H799.227L704.581 1038.27H423.798L518.444 740.138Z" fill="#212132"/>
<path d="M797.638 740.133H1078.42L983.775 1038.27H702.992L797.638 740.133Z" fill="#212132"/>
<path fill-rule="evenodd" clip-rule="evenodd" d="M796.4 738.422H1080.78L985.048 1039.99H700.664L796.4 738.422ZM797.655 740.138H1078.44L983.792 1038.27H703.009L797.655 740.138Z" fill="#212132"/>
<path d="M1076.85 740.133H1357.63L1262.99 1038.27H982.203L1076.85 740.133Z" fill="#212132"/>
<path fill-rule="evenodd" clip-rule="evenodd" d="M1075.59 738.422H1359.98L1264.24 1039.99H979.859L1075.59 738.422ZM1076.85 740.138H1357.63L1262.99 1038.27H982.204L1076.85 740.138Z" fill="#212132"/>
<path d="M1356.06 740.133H1636.84L1542.2 1038.27H1261.41L1356.06 740.133Z" fill="#212132"/>
<path fill-rule="evenodd" clip-rule="evenodd" d="M1354.81 738.422H1639.2L1543.46 1039.99H1259.08L1354.81 738.422ZM1356.07 740.138H1636.85L1542.21 1038.27H1261.42L1356.07 740.138Z" fill="#212132"/>
<path d="M556.271 211.055H548.241C542.709 223.546 536.463 226.223 526.649 226.223H515.942L513.443 234.253H535.75L504.164 337.754H517.548L556.271 211.055Z" fill="#212132"/>
<path d="M835.967 211.055H827.936C822.404 223.546 816.159 226.223 806.344 226.223H795.637L793.139 234.253H815.445L783.859 337.754H797.243L835.967 211.055Z" fill="#212132"/>
<path d="M1115.65 211.055H1107.62C1102.08 223.546 1095.84 226.223 1086.02 226.223H1075.32L1072.82 234.253H1095.12L1063.54 337.754H1076.92L1115.65 211.055Z" fill="#212132"/>
<path d="M1395.33 211.055H1387.3C1381.76 223.546 1375.52 226.223 1365.7 226.223H1355L1352.5 234.253H1374.8L1343.22 337.754H1356.6L1395.33 211.055Z" fill="#212132"/>
<path d="M1675.02 211.055H1666.99C1661.46 223.546 1655.21 226.223 1645.4 226.223H1634.69L1632.19 234.253H1654.5L1622.91 337.754H1636.3L1675.02 211.055Z" fill="#212132"/>
<path d="M460.185 507.902H452.155C446.623 520.394 440.377 523.071 430.563 523.071H419.856L417.358 531.101H439.664L408.078 634.601H421.462L460.185 507.902Z" fill="#212132"/>
<path d="M739.865 507.902H731.835C726.303 520.394 720.057 523.071 710.242 523.071H699.535L697.037 531.101H719.343L687.758 634.601H701.142L739.865 507.902Z" fill="#212132"/>
<path d="M1019.56 507.902H1011.53C1006 520.394 999.752 523.071 989.938 523.071H979.231L976.733 531.101H999.039L967.453 634.601H980.837L1019.56 507.902Z" fill="#212132"/>
<path d="M1299.24 507.902H1291.21C1285.68 520.394 1279.43 523.071 1269.62 523.071H1258.91L1256.41 531.101H1278.72L1247.13 634.601H1260.52L1299.24 507.902Z" fill="#212132"/>
<path d="M1578.92 507.902H1570.89C1565.36 520.394 1559.11 523.071 1549.3 523.071H1538.59L1536.09 531.101H1558.4L1526.81 634.601H1540.2L1578.92 507.902Z" fill="#212132"/>
<path d="M367.521 806.465H359.491C353.959 818.956 347.713 821.633 337.899 821.633H327.192L324.693 829.663H347L315.414 933.164H328.798L367.521 806.465Z" fill="#212132"/>
<path d="M647.217 806.465H639.186C633.654 818.956 627.409 821.633 617.594 821.633H606.887L604.389 829.663H626.695L595.109 933.164H608.493L647.217 806.465Z" fill="#212132"/>
<path d="M926.896 806.465H918.866C913.334 818.956 907.088 821.633 897.274 821.633H886.567L884.068 829.663H906.375L874.789 933.164H888.173L926.896 806.465Z" fill="#212132"/>
<path d="M1206.59 806.465H1198.56C1193.03 818.956 1186.78 821.633 1176.97 821.633H1166.26L1163.76 829.663H1186.07L1154.48 933.164H1167.87L1206.59 806.465Z" fill="#212132"/>
<path d="M1486.27 806.465H1478.24C1472.71 818.956 1466.46 821.633 1456.65 821.633H1445.94L1443.44 829.663H1465.75L1434.16 933.164H1447.55L1486.27 806.465Z" fill="#212132"/>
<path d="M377.06 92.3867H657.843L563.197 390.522H282.414L377.06 92.3867Z" fill="white"/>
<path fill-rule="evenodd" clip-rule="evenodd" d="M373.149 87.0547H665.124L567.092 395.856H275.117L373.149 87.0547ZM377.052 92.388H657.835L563.189 390.523H282.406L377.052 92.388Z" fill="#212132"/>
<path d="M656.263 92.3867H937.046L842.4 390.522H561.617L656.263 92.3867Z" fill="white"/>
<path fill-rule="evenodd" clip-rule="evenodd" d="M652.36 87.0547H944.335L846.303 395.856H554.328L652.36 87.0547ZM656.263 92.388H937.046L842.4 390.523H561.617L656.263 92.388Z" fill="#212132"/>
<path d="M935.474 92.4492H1216.26L1121.61 390.584H840.828L935.474 92.4492Z" fill="white"/>
<path fill-rule="evenodd" clip-rule="evenodd" d="M931.571 87.1172H1223.55L1125.51 395.919H833.539L931.571 87.1172ZM935.474 92.4505H1216.26L1121.61 390.585H840.828L935.474 92.4505Z" fill="#212132"/>
<path d="M1214.67 92.3867H1495.45L1400.81 390.522H1120.02L1214.67 92.3867Z" fill="white"/>
<path fill-rule="evenodd" clip-rule="evenodd" d="M1210.77 87.0547H1502.75L1404.72 395.856H1112.74L1210.77 87.0547ZM1214.68 92.388H1495.46L1400.81 390.523H1120.03L1214.68 92.388Z" fill="#212132"/>
<path d="M1493.88 92.3867H1774.66L1680.02 390.522H1399.23L1493.88 92.3867Z" fill="white"/>
<path fill-rule="evenodd" clip-rule="evenodd" d="M1489.97 87.0547H1781.94L1683.91 395.856H1391.94L1489.97 87.0547ZM1493.87 92.388H1774.66L1680.01 390.523H1399.23L1493.87 92.388Z" fill="#212132"/>
<path d="M282.404 390.52H563.187L468.541 688.655H187.758L282.404 390.52Z" fill="white"/>
<path fill-rule="evenodd" clip-rule="evenodd" d="M278.517 385.188H570.491L472.459 693.989H180.484L278.517 385.188ZM282.419 390.521H563.202L468.556 688.656H187.773L282.419 390.521Z" fill="#212132"/>
<path d="M561.615 390.52H842.398L747.752 688.655H466.969L561.615 390.52Z" fill="white"/>
<path fill-rule="evenodd" clip-rule="evenodd" d="M557.704 385.188H849.679L751.646 693.989H459.672L557.704 385.188ZM561.607 390.521H842.39L747.744 688.656H466.961L561.607 390.521Z" fill="#212132"/>
<path d="M840.818 390.52H1121.6L1026.96 688.655H746.172L840.818 390.52Z" fill="white"/>
<path fill-rule="evenodd" clip-rule="evenodd" d="M836.915 385.188H1128.89L1030.86 693.989H738.883L836.915 385.188ZM840.818 390.521H1121.6L1026.95 688.656H746.172L840.818 390.521Z" fill="#212132"/>
<path d="M1120.03 390.52H1400.81L1306.17 688.655H1025.38L1120.03 390.52Z" fill="white"/>
<path fill-rule="evenodd" clip-rule="evenodd" d="M1116.13 385.188H1408.1L1310.07 693.989H1018.09L1116.13 385.188ZM1120.03 390.521H1400.81L1306.17 688.656H1025.38L1120.03 390.521Z" fill="#212132"/>
<path d="M1399.24 390.52H1680.02L1585.38 688.655H1304.59L1399.24 390.52Z" fill="white"/>
<path fill-rule="evenodd" clip-rule="evenodd" d="M1395.33 385.188H1687.3L1589.27 693.989H1297.3L1395.33 385.188ZM1399.23 390.521H1680.01L1585.37 688.656H1304.59L1399.23 390.521Z" fill="#212132"/>
<path d="M187.763 688.66H468.546L373.9 986.795H93.1172L187.763 688.66Z" fill="white"/>
<path fill-rule="evenodd" clip-rule="evenodd" d="M183.86 683.324H475.835L377.803 992.126H85.8281L183.86 683.324ZM187.763 688.658H468.546L373.9 986.793H93.1169L187.763 688.658Z" fill="#212132"/>
<path d="M466.974 688.66H747.757L653.111 986.795H372.328L466.974 688.66Z" fill="white"/>
<path fill-rule="evenodd" clip-rule="evenodd" d="M463.071 683.324H755.046L657.014 992.126H365.039L463.071 683.324ZM466.974 688.658H747.757L653.111 986.793H372.328L466.974 688.658Z" fill="#212132"/>
<path d="M746.169 688.66H1026.95L932.307 986.795H651.523L746.169 688.66Z" fill="white"/>
<path fill-rule="evenodd" clip-rule="evenodd" d="M742.267 683.324H1034.24L936.209 992.126H644.234L742.267 683.324ZM746.169 688.658H1026.95L932.306 986.793H651.523L746.169 688.658Z" fill="#212132"/>
<path d="M1025.38 688.66H1306.16L1211.52 986.795H930.734L1025.38 688.66Z" fill="white"/>
<path fill-rule="evenodd" clip-rule="evenodd" d="M1021.47 683.324H1313.44L1215.41 992.126H923.438L1021.47 683.324ZM1025.37 688.658H1306.16L1211.51 986.793H930.726L1025.37 688.658Z" fill="#212132"/>
<path d="M1304.58 688.66H1585.37L1490.72 986.795H1209.94L1304.58 688.66Z" fill="white"/>
<path fill-rule="evenodd" clip-rule="evenodd" d="M1300.68 683.324H1592.66L1494.62 992.126H1202.65L1300.68 683.324ZM1304.58 688.658H1585.37L1490.72 986.793H1209.94L1304.58 688.658Z" fill="#212132"/>
<path d="M504.795 159.582H496.765C491.233 172.073 484.987 174.75 475.172 174.75H464.465L461.967 182.78H484.273L452.688 286.281H466.071L504.795 159.582Z" fill="#212132"/>
<path d="M784.474 159.582H776.444C770.912 172.073 764.667 174.75 754.852 174.75H744.145L741.647 182.78H763.953L732.367 286.281H745.751L784.474 159.582Z" fill="#212132"/>
<path d="M1064.17 159.582H1056.14C1050.61 172.073 1044.36 174.75 1034.55 174.75H1023.84L1021.34 182.78H1043.65L1012.06 286.281H1025.45L1064.17 159.582Z" fill="#212132"/>
<path d="M1343.85 159.582H1335.82C1330.29 172.073 1324.04 174.75 1314.23 174.75H1303.52L1301.02 182.78H1323.33L1291.74 286.281H1305.13L1343.85 159.582Z" fill="#212132"/>
<path d="M1623.53 159.582H1615.5C1609.97 172.073 1603.72 174.75 1593.91 174.75H1583.2L1580.7 182.78H1603.01L1571.42 286.281H1584.81L1623.53 159.582Z" fill="#212132"/>
<path d="M408.717 456.422H400.686C395.154 468.913 388.909 471.59 379.094 471.59H368.387L365.889 479.62H388.195L356.609 583.121H369.993L408.717 456.422Z" fill="#212132"/>
<path d="M688.396 456.422H680.366C674.834 468.913 668.588 471.59 658.774 471.59H648.067L645.568 479.62H667.875L636.289 583.121H649.673L688.396 456.422Z" fill="#212132"/>
<path d="M968.076 456.422H960.046C954.514 468.913 948.268 471.59 938.453 471.59H927.746L925.248 479.62H947.554L915.969 583.121H929.352L968.076 456.422Z" fill="#212132"/>
<path d="M1247.77 456.422H1239.74C1234.21 468.913 1227.96 471.59 1218.15 471.59H1207.44L1204.94 479.62H1227.25L1195.66 583.121H1209.05L1247.77 456.422Z" fill="#212132"/>
<path d="M1527.45 456.422H1519.42C1513.89 468.913 1507.64 471.59 1497.83 471.59H1487.12L1484.62 479.62H1506.93L1475.34 583.121H1488.73L1527.45 456.422Z" fill="#212132"/>
<path d="M316.045 754.984H308.015C302.483 767.476 296.237 770.153 286.422 770.153H275.715L273.217 778.183H295.523L263.938 881.684H277.321L316.045 754.984Z" fill="#212132"/>
<path d="M595.74 754.984H587.71C582.178 767.476 575.932 770.153 566.117 770.153H555.41L552.912 778.183H575.218L543.633 881.684H557.017L595.74 754.984Z" fill="#212132"/>
<path d="M875.42 754.984H867.39C861.858 767.476 855.612 770.153 845.797 770.153H835.09L832.592 778.183H854.898L823.312 881.684H836.696L875.42 754.984Z" fill="#212132"/>
<path d="M1155.1 754.984H1147.07C1141.54 767.476 1135.29 770.153 1125.48 770.153H1114.77L1112.27 778.183H1134.58L1102.99 881.684H1116.38L1155.1 754.984Z" fill="#212132"/>
<path d="M1434.79 754.984H1426.76C1421.23 767.476 1414.99 770.153 1405.17 770.153H1394.47L1391.97 778.183H1414.27L1382.69 881.684H1396.07L1434.79 754.984Z" fill="#212132"/>
<circle cx="617.004" cy="206.219" r="17.7778" fill="#212132"/>
<circle cx="593.895" cy="276.524" r="17.7778" fill="#212132"/>
<circle cx="896.114" cy="206.219" r="17.7778" fill="#212132"/>
<circle cx="873.004" cy="276.524" r="17.7778" fill="#212132"/>
<circle cx="1175.22" cy="206.219" r="17.7778" fill="#212132"/>
<circle cx="1152.11" cy="276.524" r="17.7778" fill="#212132"/>
<circle cx="1454.33" cy="206.219" r="17.7778" fill="#212132"/>
<circle cx="1431.22" cy="276.524" r="17.7778" fill="#212132"/>
<circle cx="528.114" cy="483.555" r="17.7778" fill="#212132"/>
<circle cx="505.004" cy="553.86" r="17.7778" fill="#212132"/>
<circle cx="807.215" cy="483.555" r="17.7778" fill="#212132"/>
<circle cx="784.106" cy="553.86" r="17.7778" fill="#212132"/>
<circle cx="1086.33" cy="483.555" r="17.7778" fill="#212132"/>
<circle cx="1063.22" cy="553.86" r="17.7778" fill="#212132"/>
<circle cx="1365.44" cy="483.555" r="17.7778" fill="#212132"/>
<circle cx="1342.33" cy="553.86" r="17.7778" fill="#212132"/>
<circle cx="433.887" cy="782.219" r="17.7778" fill="#212132"/>
<circle cx="410.778" cy="852.524" r="17.7778" fill="#212132"/>
<circle cx="712.997" cy="782.219" r="17.7778" fill="#212132"/>
<circle cx="689.887" cy="852.524" r="17.7778" fill="#212132"/>
<circle cx="992.114" cy="782.219" r="17.7778" fill="#212132"/>
<circle cx="969.004" cy="852.524" r="17.7778" fill="#212132"/>
<circle cx="1271.22" cy="782.219" r="17.7778" fill="#212132"/>
<circle cx="1248.11" cy="852.524" r="17.7778" fill="#212132"/>
</svg>
