<svg width="1920" height="1920" viewBox="0 0 1920 1920" fill="none" xmlns="http://www.w3.org/2000/svg">
<g clip-path="url(#clip0_2777_4325)">
<rect width="1920" height="1920" fill="#FFE6EB"/>
<path d="M532.624 330.699H1357.36V344.29H532.624V330.699ZM366.958 602.699H1503.02V616.29H366.958V602.699ZM405.207 874.699H1466.78V888.29H405.207V874.699ZM234.836 1146.7H1685.14V1160.29H234.836V1146.7ZM487.377 1418.7H1432.68V1432.29H487.377V1418.7Z" fill="#212132"/>
<path d="M1342.49 1253.14V1266.73H1372.15V1349.51C1372.15 1366.81 1374.62 1374.22 1396.86 1374.22H1419.1V1360.63H1396.86C1391.91 1360.63 1389.44 1358.16 1389.44 1353.22V1266.73H1424.04V1253.14H1389.44V1201.24H1377.09L1375.85 1230.9C1375.11 1246.96 1372.15 1253.14 1363.5 1253.14H1342.49Z" fill="#212132"/>
<path d="M1226.35 1253.14H1209.05V1322.33C1209.05 1359.39 1225.12 1379.16 1258.48 1379.16C1283.19 1379.16 1294.31 1364.34 1302.96 1348.27H1305.43V1374.22H1320.25V1253.14H1302.96V1314.91C1302.96 1348.03 1283.19 1364.34 1260.95 1364.34C1240.93 1364.34 1226.35 1351.98 1226.35 1324.8V1253.14Z" fill="#212132"/>
<path d="M1048.46 1313.68C1048.46 1349.76 1076.63 1379.16 1115.18 1379.16C1153.73 1379.16 1181.9 1349.76 1181.9 1313.68C1181.9 1277.6 1153.73 1248.2 1115.18 1248.2C1076.63 1248.2 1048.46 1277.6 1048.46 1313.68ZM1065.76 1313.68C1065.76 1289.71 1081.33 1263.02 1115.18 1263.02C1149.04 1263.02 1164.6 1289.71 1164.6 1313.68C1164.6 1337.65 1149.04 1364.34 1115.18 1364.34C1081.33 1364.34 1065.76 1337.65 1065.76 1313.68Z" fill="#212132"/>
<path d="M1005.2 1374.22H1022.5V1297.62C1022.5 1265.49 1008.91 1248.2 978.017 1248.2C950.835 1248.2 937.244 1263.02 928.595 1279.08H926.124V1253.14H911.297V1374.22H928.595V1307.5C928.595 1276.86 950.835 1263.02 973.075 1263.02C993.091 1263.02 1005.2 1272.91 1005.2 1297.62V1374.22Z" fill="#212132"/>
<path d="M813.678 1253.14H798.852V1374.22H816.149V1307.5C816.149 1276.86 829.74 1261.79 843.332 1261.79C858.405 1261.79 861.865 1277.85 861.865 1290.2V1296.38H879.163V1287.73C879.163 1261.79 868.043 1248.2 849.509 1248.2C833.447 1248.2 821.092 1263.02 816.149 1279.08H813.678V1253.14Z" fill="#212132"/>
<path d="M670.352 1253.14H653.055V1322.33C653.055 1359.39 669.117 1379.16 702.477 1379.16C727.188 1379.16 738.308 1364.34 746.957 1348.27H749.428V1374.22H764.255V1253.14H746.957V1314.91C746.957 1348.03 727.188 1364.34 704.948 1364.34C684.932 1364.34 670.352 1351.98 670.352 1324.8V1253.14Z" fill="#212132"/>
<path d="M521.97 1313.68C521.97 1289.71 537.538 1263.02 566.45 1263.02C595.362 1263.02 608.459 1289.71 608.459 1313.68C608.459 1337.65 595.362 1364.34 566.45 1364.34C537.538 1364.34 521.97 1337.65 521.97 1313.68ZM521.97 1188.89H504.672V1374.22H519.499V1348.27H521.97C521.97 1348.27 533.09 1379.16 567.685 1379.16C603.763 1379.16 625.756 1349.76 625.756 1313.68C625.756 1277.6 602.528 1248.19 568.921 1248.19C533.09 1248.19 521.97 1279.08 521.97 1279.08H519.499L521.97 1263.02V1188.89Z" fill="#212132"/>
<path d="M1610.01 1092.34C1574.92 1092.34 1561.09 1067.63 1560.34 1044.15H1674.02V1036.74C1674.02 1004.37 1654.49 976.195 1609.52 976.195C1567.51 976.195 1543.05 1005.6 1543.05 1041.68C1543.05 1077.76 1568.01 1107.16 1610.01 1107.16C1640.16 1107.16 1666.6 1093.82 1671.54 1063.92H1654.25C1651.78 1079.73 1635.22 1092.34 1610.01 1092.34ZM1609.52 991.022C1642.88 991.022 1654.25 1013.01 1656.22 1030.56H1561.09C1564.79 1010.3 1578.63 991.022 1609.52 991.022Z" fill="#212132"/>
<path d="M1456.77 1092.34C1421.68 1092.34 1407.84 1067.63 1407.1 1044.15H1520.77V1036.74C1520.77 1004.37 1501.25 976.195 1456.28 976.195C1414.27 976.195 1389.8 1005.6 1389.8 1041.68C1389.8 1077.76 1414.76 1107.16 1456.77 1107.16C1486.92 1107.16 1513.36 1093.82 1518.3 1063.92H1501C1498.53 1079.73 1481.98 1092.34 1456.77 1092.34ZM1456.28 991.022C1489.64 991.022 1501 1013.01 1502.98 1030.56H1407.84C1411.55 1010.3 1425.39 991.022 1456.28 991.022Z" fill="#212132"/>
<path d="M1272.39 1131.87V1146.7H1287.21C1304.76 1146.7 1309.95 1142.99 1318.1 1123.23L1377.41 981.137H1358.88L1317.11 1082.95L1269.67 981.137H1250.64L1308.96 1102.47L1302.29 1118.78C1297.59 1129.9 1293.89 1131.87 1282.27 1131.87H1272.39Z" fill="#212132"/>
<path d="M1104.8 1041.68C1104.8 1077.76 1132.98 1107.16 1171.52 1107.16C1210.07 1107.16 1238.24 1077.76 1238.24 1041.68C1238.24 1005.6 1210.07 976.195 1171.52 976.195C1132.98 976.195 1104.8 1005.6 1104.8 1041.68ZM1122.1 1041.68C1122.1 1017.71 1137.67 991.022 1171.52 991.022C1205.38 991.022 1220.95 1017.71 1220.95 1041.68C1220.95 1065.65 1205.38 1092.34 1171.52 1092.34C1137.67 1092.34 1122.1 1065.65 1122.1 1041.68Z" fill="#212132"/>
<path d="M1076.4 916.887H1059.1V1102.22H1076.4V916.887Z" fill="#212132"/>
<path d="M926.79 1041.68C926.79 1017.71 942.358 991.022 971.27 991.022C1000.18 991.022 1013.28 1017.71 1013.28 1041.68C1013.28 1065.65 1000.18 1092.34 971.27 1092.34C942.358 1092.34 926.79 1065.65 926.79 1041.68ZM926.79 1092.34L924.319 1076.28H926.79C926.79 1076.28 937.91 1107.16 973.741 1107.16C1007.35 1107.16 1030.58 1077.76 1030.58 1041.68C1030.58 1005.6 1008.58 976.195 972.505 976.195C937.91 976.195 926.79 1007.08 926.79 1007.08H924.319V981.138H909.492V1146.7H926.79V1092.34Z" fill="#212132"/>
<path d="M858.806 1102.22H876.103V1025.62C876.103 993.493 869.926 976.195 846.45 976.195C826.681 976.195 818.032 991.022 814.326 1004.61H812.843C810.125 986.08 802.217 976.195 784.672 976.195C764.903 976.195 756.254 991.022 752.548 1004.61H750.077V981.138H735.25V1102.22H752.548V1035.5C752.548 1004.86 764.903 991.022 779.73 991.022C792.333 991.022 797.028 1000.91 797.028 1025.62V1102.22H814.326V1033.28C814.82 1004.37 826.928 991.022 841.508 991.022C854.11 991.022 858.806 1000.91 858.806 1025.62V1102.22Z" fill="#212132"/>
<path d="M642.803 1092.34C607.713 1092.34 593.875 1067.63 593.134 1044.15H706.805V1036.74C706.805 1004.37 687.283 976.195 642.309 976.195C600.3 976.195 575.836 1005.6 575.836 1041.68C575.836 1077.76 600.794 1107.16 642.803 1107.16C672.951 1107.16 699.391 1093.82 704.334 1063.92H687.036C684.565 1079.73 668.008 1092.34 642.803 1092.34ZM642.309 991.022C675.669 991.022 687.036 1013.01 689.013 1030.56H593.875C597.582 1010.3 611.42 991.022 642.309 991.022Z" fill="#212132"/>
<path d="M338.625 1041.68C338.625 1077.76 366.796 1107.16 405.345 1107.16C443.894 1107.16 472.065 1077.76 472.065 1041.68C472.065 1005.6 443.894 976.195 405.345 976.195C366.796 976.195 338.625 1005.6 338.625 1041.68ZM355.923 1041.68C355.923 1017.71 371.491 991.022 405.345 991.022C439.199 991.022 454.767 1017.71 454.767 1041.68C454.767 1065.65 439.199 1092.34 405.345 1092.34C371.491 1092.34 355.923 1065.65 355.923 1041.68Z" fill="#212132"/>
<path d="M239.781 981.136V994.727H269.435V1077.51C269.435 1094.81 271.906 1102.22 294.146 1102.22H316.386V1088.63H294.146C289.203 1088.63 286.732 1086.16 286.732 1081.22V994.727H321.328V981.136H286.732V929.242H274.377L273.141 958.896C272.4 974.958 269.435 981.136 260.786 981.136H239.781Z" fill="#212132"/>
<path d="M1398.51 769.678C1398.51 793.648 1382.95 820.336 1354.03 820.336C1325.12 820.336 1312.02 793.648 1312.02 769.678C1312.02 745.708 1325.12 719.02 1354.03 719.02C1382.95 719.02 1398.51 745.708 1398.51 769.678ZM1398.51 719.02L1400.98 735.082H1398.51C1398.51 735.082 1387.39 704.193 1351.56 704.193C1317.95 704.193 1294.73 733.6 1294.73 769.678C1294.73 805.756 1316.72 835.162 1352.8 835.162C1387.39 835.162 1398.51 804.273 1398.51 804.273H1400.98V830.22H1415.81V644.887H1398.51V719.02Z" fill="#212132"/>
<path d="M1246.58 830.222H1279.94V821.573H1276.24C1267.59 821.573 1263.88 820.338 1263.88 804.275V769.68C1263.88 733.602 1257.7 704.195 1207.05 704.195C1176.16 704.195 1150.21 721.493 1150.21 752.382H1167.51C1167.51 734.096 1179.86 719.022 1207.05 719.022C1239.17 719.022 1246.34 736.073 1246.58 755.1C1229.53 756.336 1153.92 761.525 1153.92 805.511C1153.92 822.809 1165.04 835.164 1188.51 835.164C1216.68 835.164 1238.92 811.442 1246.58 801.804V830.222ZM1246.58 788.213C1238.43 798.345 1215.7 820.338 1193.46 820.338C1178.63 820.338 1171.22 815.395 1171.22 804.275C1171.22 774.869 1231.02 770.174 1246.58 768.691V788.213Z" fill="#212132"/>
<path d="M1062.71 820.338C1027.62 820.338 1013.78 795.626 1013.04 772.151H1126.71V764.738C1126.71 732.366 1107.19 704.195 1062.22 704.195C1020.21 704.195 995.742 733.602 995.742 769.68C995.742 805.758 1020.7 835.164 1062.71 835.164C1092.86 835.164 1119.3 821.82 1124.24 791.92H1106.94C1104.47 807.735 1087.91 820.338 1062.71 820.338ZM1062.22 719.022C1095.58 719.022 1106.94 741.015 1108.92 758.56H1013.78C1017.49 738.297 1031.33 719.022 1062.22 719.022Z" fill="#212132"/>
<path d="M967.329 644.887H950.031V830.22H967.329V644.887Z" fill="#212132"/>
<path d="M819.019 830.222H836.317V753.618C836.317 721.493 822.726 704.195 791.837 704.195C764.655 704.195 751.064 719.022 742.415 735.084H739.944V709.138H725.117V830.222H742.415V763.502C742.415 732.86 764.655 719.022 786.895 719.022C806.911 719.022 819.019 728.906 819.019 753.618V830.222Z" fill="#212132"/>
<path d="M668.373 830.222H701.733V821.573H698.027C689.378 821.573 685.671 820.338 685.671 804.275V769.68C685.671 733.602 679.493 704.195 628.836 704.195C597.947 704.195 572 721.493 572 752.382H589.298C589.298 734.096 601.653 719.022 628.836 719.022C660.96 719.022 668.126 736.073 668.373 755.1C651.323 756.336 575.707 761.525 575.707 805.511C575.707 822.809 586.827 835.164 610.302 835.164C638.473 835.164 660.713 811.442 668.373 801.804V830.222ZM668.373 788.213C660.219 798.345 637.484 820.338 615.244 820.338C600.418 820.338 593.004 815.395 593.004 804.275C593.004 774.869 652.805 770.174 668.373 768.691V788.213Z" fill="#212132"/>
<path d="M433.618 769.68C433.618 745.71 447.703 719.022 484.029 719.022C509.234 719.022 529.991 734.096 529.991 752.382H547.289C547.289 720.01 514.176 704.195 484.029 704.195C442.02 704.195 416.32 733.602 416.32 769.68C416.32 805.758 442.02 835.164 484.029 835.164C514.176 835.164 547.289 819.349 547.289 786.978H529.991C529.991 805.264 509.234 820.338 484.029 820.338C447.703 820.338 433.618 793.65 433.618 769.68Z" fill="#212132"/>
<path d="M1439.39 558.22H1456.69V481.616C1456.69 449.491 1443.1 432.193 1412.21 432.193C1385.02 432.193 1368.96 447.02 1360.31 463.082H1357.84L1360.31 447.02V372.887H1343.02V558.22H1360.31V491.5C1360.31 460.858 1385.02 447.02 1407.26 447.02C1427.28 447.02 1439.39 456.905 1439.39 481.616V558.22Z" fill="#212132"/>
<path d="M1199.69 497.68C1199.69 473.71 1213.77 447.022 1250.1 447.022C1275.3 447.022 1296.06 462.096 1296.06 480.382H1313.36C1313.36 448.01 1280.25 432.195 1250.1 432.195C1208.09 432.195 1182.39 461.602 1182.39 497.68C1182.39 533.758 1208.09 563.164 1250.1 563.164C1280.25 563.164 1313.36 547.349 1313.36 514.978H1296.06C1296.06 533.264 1275.3 548.338 1250.1 548.338C1213.77 548.338 1199.69 521.65 1199.69 497.68Z" fill="#212132"/>
<path d="M1060.09 437.137H1042.8V506.328C1042.8 543.394 1058.86 563.163 1092.22 563.163C1116.93 563.163 1128.05 548.337 1136.7 532.274H1139.17V558.221H1154V437.137H1136.7V498.914C1136.7 532.027 1116.93 548.337 1094.69 548.337C1074.67 548.337 1060.09 535.981 1060.09 508.799V437.137Z" fill="#212132"/>
<path d="M993.352 558.222H1010.65V481.618C1010.65 449.493 1004.47 432.195 980.997 432.195C961.228 432.195 952.579 447.022 948.872 460.613H947.39C944.672 442.08 936.764 432.195 919.219 432.195C899.45 432.195 890.801 447.022 887.095 460.613H884.624V437.138H869.797V558.222H887.095V491.502C887.095 460.86 899.45 447.022 914.277 447.022C926.88 447.022 931.575 456.906 931.575 481.618V558.222H948.872V489.278C949.367 460.366 961.475 447.022 976.055 447.022C988.657 447.022 993.352 456.906 993.352 481.618V558.222Z" fill="#212132"/>
<path d="M626.391 497.68C626.391 533.758 654.561 563.164 693.111 563.164C731.66 563.164 759.831 533.758 759.831 497.68C759.831 461.602 731.66 432.195 693.111 432.195C654.561 432.195 626.391 461.602 626.391 497.68ZM643.688 497.68C643.688 473.71 659.256 447.022 693.111 447.022C726.965 447.022 742.533 473.71 742.533 497.68C742.533 521.65 726.965 548.338 693.111 548.338C659.256 548.338 643.688 521.65 643.688 497.68Z" fill="#212132"/>
<path d="M470.742 497.68C470.742 533.758 498.913 563.164 537.462 563.164C576.012 563.164 604.182 533.758 604.182 497.68C604.182 461.602 576.012 432.195 537.462 432.195C498.913 432.195 470.742 461.602 470.742 497.68ZM488.04 497.68C488.04 473.71 503.608 447.022 537.462 447.022C571.316 447.022 586.884 473.71 586.884 497.68C586.884 521.65 571.316 548.338 537.462 548.338C503.608 548.338 488.04 521.65 488.04 497.68Z" fill="#212132"/>
<path d="M371.906 437.136V450.727H401.56V533.509C401.56 550.807 404.031 558.22 426.271 558.22H448.511V544.629H426.271C421.328 544.629 418.857 542.158 418.857 537.216V450.727H453.453V437.136H418.857V385.242H406.502L405.266 414.896C404.525 430.958 401.56 437.136 392.911 437.136H371.906Z" fill="#212132"/>
<path d="M1161.17 302.284C1161.17 329.714 1193.05 335.644 1226.66 335.644C1265.21 335.644 1298.32 326.007 1298.32 297.342C1298.32 271.395 1273.85 271.395 1230.36 271.395H1225.17C1193.54 271.148 1188.35 267.442 1188.35 261.511C1188.35 255.333 1194.04 251.626 1225.42 251.626C1251.61 251.626 1274.84 234.576 1274.84 205.911V186.142C1274.84 181.2 1277.31 178.729 1282.26 178.729H1304.5V162.666H1292.14C1274.84 162.666 1268.67 165.138 1268.67 182.435V182.682C1260.02 168.35 1243.46 160.195 1225.42 160.195C1199.23 160.195 1176 177.246 1176 205.911C1176 222.714 1183.91 235.564 1195.77 243.472C1176.99 246.437 1171.06 253.109 1171.06 261.511C1171.06 267.442 1174.02 272.631 1183.66 276.09C1169.82 280.538 1161.17 288.199 1161.17 302.284ZM1193.3 205.911C1193.3 188.366 1203.92 173.292 1225.42 173.292C1246.92 173.292 1257.55 188.366 1257.55 205.911C1257.55 223.703 1246.92 238.53 1225.42 238.53C1203.92 238.53 1193.3 223.703 1193.3 205.911ZM1177.23 302.284C1177.23 286.963 1196.51 286.222 1230.36 286.222C1264.22 286.222 1282.26 285.728 1282.26 297.342C1282.26 313.898 1258.04 320.818 1226.66 320.818C1200.22 320.818 1177.23 317.605 1177.23 302.284Z" fill="#212132"/>
<path d="M1122.85 286.222H1140.15V209.618C1140.15 177.493 1126.55 160.195 1095.67 160.195C1068.48 160.195 1054.89 175.022 1046.24 191.084H1043.77V165.138H1028.95V286.222H1046.24V219.502C1046.24 188.86 1068.48 175.022 1090.72 175.022C1110.74 175.022 1122.85 184.906 1122.85 209.618V286.222Z" fill="#212132"/>
<path d="M994.352 165.134H977.055V286.219H994.352V165.134ZM977.055 150.308H994.352V126.832H977.055V150.308Z" fill="#212132"/>
<path d="M851.043 315.874V330.701H865.869C883.414 330.701 888.604 326.995 896.758 307.226L956.065 165.137H937.532L895.77 266.946L848.324 165.137H829.297L887.615 286.468L880.943 302.778C876.248 313.898 872.541 315.874 860.927 315.874H851.043Z" fill="#212132"/>
<path d="M790.975 286.222H824.335V277.573H820.628C811.979 277.573 808.273 276.338 808.273 260.275V225.68C808.273 189.602 802.095 160.195 751.437 160.195C720.548 160.195 694.602 177.493 694.602 208.382H711.899C711.899 190.096 724.255 175.022 751.437 175.022C783.562 175.022 790.728 192.073 790.975 211.1C773.924 212.336 698.308 217.525 698.308 261.511C698.308 278.809 709.428 291.164 732.904 291.164C761.074 291.164 783.314 267.442 790.975 257.804V286.222ZM790.975 244.213C782.82 254.345 760.086 276.338 737.846 276.338C723.019 276.338 715.606 271.395 715.606 260.275C715.606 230.869 775.407 226.174 790.975 224.691V244.213Z" fill="#212132"/>
<path d="M551.156 286.22H569.69V200.967H624.054C666.063 200.72 675.947 178.48 675.947 157.228C675.947 136.224 666.063 113.489 624.054 113.242H551.156V286.22ZM569.69 128.069H624.795C649.012 128.069 658.65 140.424 658.65 157.228C658.65 174.032 649.012 186.14 624.795 186.14H569.69V128.069Z" fill="#212132"/>
<path fill-rule="evenodd" clip-rule="evenodd" d="M-23.8203 330.715H554.846V344.315H-23.8203V330.715Z" fill="#212132"/>
<path fill-rule="evenodd" clip-rule="evenodd" d="M1431.55 1418.71H2010.22V1432.31H1431.55V1418.71Z" fill="#212132"/>
<path d="M1130.74 1822.58L1113.49 1791.07H1120.73L1132.98 1813.92L1134.25 1818.47H1134.32L1135.66 1813.77L1147.39 1791.07H1154.03L1136.93 1822.5V1843.33H1130.74V1822.58ZM1181.18 1840.35C1179.69 1841.54 1177.8 1842.49 1175.51 1843.18C1173.27 1843.88 1170.88 1844.23 1168.34 1844.23C1165.5 1844.23 1163.04 1843.78 1160.95 1842.89C1158.86 1841.94 1157.14 1840.62 1155.8 1838.93C1154.45 1837.19 1153.46 1835.12 1152.81 1832.73C1152.16 1830.34 1151.84 1827.65 1151.84 1824.67C1151.84 1818.3 1153.26 1813.44 1156.1 1810.11C1158.93 1806.77 1162.99 1805.1 1168.27 1805.1C1169.96 1805.1 1171.65 1805.3 1173.34 1805.7C1175.04 1806.05 1176.56 1806.75 1177.9 1807.79C1179.24 1808.84 1180.34 1810.33 1181.18 1812.27C1182.03 1814.16 1182.45 1816.68 1182.45 1819.81C1182.45 1821.46 1182.3 1823.27 1182.01 1825.26H1158.04C1158.04 1827.45 1158.26 1829.4 1158.71 1831.09C1159.16 1832.78 1159.86 1834.22 1160.8 1835.42C1161.75 1836.56 1162.97 1837.46 1164.46 1838.11C1166 1838.7 1167.87 1839 1170.06 1839C1171.75 1839 1173.44 1838.7 1175.14 1838.11C1176.83 1837.51 1178.1 1836.81 1178.94 1836.02L1181.18 1840.35ZM1168.34 1810.33C1165.41 1810.33 1163.04 1811.1 1161.25 1812.65C1159.51 1814.19 1158.46 1816.83 1158.11 1820.56H1176.63C1176.63 1816.78 1175.91 1814.14 1174.46 1812.65C1173.02 1811.1 1170.98 1810.33 1168.34 1810.33ZM1208.27 1833.18C1208.27 1831.69 1207.83 1830.52 1206.93 1829.67C1206.03 1828.82 1204.91 1828.13 1203.57 1827.58C1202.28 1826.98 1200.83 1826.43 1199.24 1825.94C1197.7 1825.39 1196.25 1824.72 1194.91 1823.92C1193.62 1823.07 1192.52 1822 1191.62 1820.71C1190.73 1819.42 1190.28 1817.67 1190.28 1815.48C1190.28 1811.9 1191.3 1809.29 1193.34 1807.64C1195.38 1805.95 1198.22 1805.1 1201.85 1805.1C1204.54 1805.1 1206.78 1805.35 1208.57 1805.85C1210.42 1806.3 1212.01 1806.85 1213.35 1807.49L1211.93 1812.42C1210.79 1811.87 1209.39 1811.4 1207.75 1811C1206.16 1810.56 1204.44 1810.33 1202.6 1810.33C1200.41 1810.33 1198.79 1810.7 1197.75 1811.45C1196.75 1812.2 1196.25 1813.49 1196.25 1815.33C1196.25 1816.63 1196.7 1817.65 1197.6 1818.4C1198.49 1819.09 1199.59 1819.74 1200.88 1820.34C1202.23 1820.88 1203.67 1821.43 1205.21 1821.98C1206.81 1822.53 1208.25 1823.25 1209.54 1824.14C1210.89 1825.04 1212.01 1826.19 1212.9 1827.58C1213.8 1828.92 1214.25 1830.72 1214.25 1832.96C1214.25 1834.55 1213.97 1836.04 1213.43 1837.44C1212.93 1838.83 1212.13 1840.02 1211.04 1841.02C1209.94 1842.01 1208.57 1842.79 1206.93 1843.33C1205.34 1843.93 1203.45 1844.23 1201.26 1844.23C1198.42 1844.23 1196 1843.96 1194.01 1843.41C1192.02 1842.86 1190.35 1842.21 1189.01 1841.47L1190.8 1836.39C1191.95 1837.04 1193.44 1837.63 1195.28 1838.18C1197.12 1838.73 1198.99 1839 1200.88 1839C1203.02 1839 1204.79 1838.58 1206.18 1837.73C1207.58 1836.89 1208.27 1835.37 1208.27 1833.18ZM1221.18 1840.12C1221.18 1838.93 1221.58 1837.96 1222.38 1837.21C1223.18 1836.46 1224.2 1836.09 1225.44 1836.09C1226.98 1836.09 1228.23 1836.64 1229.17 1837.73C1230.17 1838.83 1230.67 1840.42 1230.67 1842.51C1230.67 1844.3 1230.42 1845.87 1229.92 1847.22C1229.42 1848.56 1228.78 1849.71 1227.98 1850.65C1227.18 1851.65 1226.31 1852.44 1225.37 1853.04C1224.42 1853.69 1223.47 1854.16 1222.53 1854.46L1220.66 1851.55C1222.45 1850.85 1223.77 1849.76 1224.62 1848.26C1225.52 1846.82 1225.96 1845.35 1225.96 1843.86C1225.52 1844.01 1225.09 1844.08 1224.69 1844.08C1223.7 1844.08 1222.85 1843.76 1222.16 1843.11C1221.51 1842.41 1221.18 1841.42 1221.18 1840.12ZM1261.89 1830.19L1263.98 1837.36H1264.35L1265.99 1830.12L1273.24 1806H1279.28L1268.23 1839.53C1267.39 1841.97 1266.54 1844.33 1265.69 1846.62C1264.9 1848.91 1264 1850.95 1263.01 1852.74C1262.01 1854.53 1260.89 1855.95 1259.65 1857C1258.4 1858.09 1256.96 1858.64 1255.32 1858.64C1253.52 1858.64 1252.06 1858.39 1250.91 1857.89L1251.96 1852.74C1252.6 1852.99 1253.23 1853.12 1253.82 1853.12C1255.22 1853.12 1256.56 1852.37 1257.85 1850.88C1259.15 1849.43 1260.22 1846.92 1261.07 1843.33L1246.06 1806H1252.93L1261.89 1830.19ZM1282.8 1824.67C1282.8 1818.35 1284.19 1813.52 1286.98 1810.18C1289.82 1806.8 1293.87 1805.1 1299.15 1805.1C1301.94 1805.1 1304.35 1805.58 1306.39 1806.52C1308.48 1807.42 1310.2 1808.74 1311.55 1810.48C1312.89 1812.17 1313.89 1814.24 1314.53 1816.68C1315.18 1819.07 1315.5 1821.73 1315.5 1824.67C1315.5 1830.99 1314.08 1835.84 1311.25 1839.23C1308.46 1842.56 1304.43 1844.23 1299.15 1844.23C1296.36 1844.23 1293.92 1843.78 1291.83 1842.89C1289.79 1841.94 1288.1 1840.62 1286.76 1838.93C1285.41 1837.19 1284.42 1835.12 1283.77 1832.73C1283.12 1830.29 1282.8 1827.6 1282.8 1824.67ZM1289 1824.67C1289 1826.56 1289.17 1828.38 1289.52 1830.12C1289.92 1831.86 1290.51 1833.38 1291.31 1834.67C1292.11 1835.97 1293.15 1837.01 1294.45 1837.81C1295.74 1838.61 1297.31 1839 1299.15 1839C1305.92 1839.05 1309.31 1834.27 1309.31 1824.67C1309.31 1822.73 1309.11 1820.88 1308.71 1819.14C1308.36 1817.4 1307.79 1815.88 1306.99 1814.59C1306.19 1813.29 1305.15 1812.27 1303.86 1811.53C1302.56 1810.73 1300.99 1810.33 1299.15 1810.33C1292.38 1810.28 1289 1815.06 1289 1824.67ZM1330.3 1806V1827.28C1330.3 1829.22 1330.4 1830.94 1330.6 1832.43C1330.84 1833.88 1331.24 1835.1 1331.79 1836.09C1332.34 1837.04 1333.08 1837.76 1334.03 1838.26C1334.98 1838.75 1336.17 1839 1337.61 1839C1338.96 1839 1340.15 1838.8 1341.2 1838.41C1342.24 1837.96 1343.16 1837.36 1343.96 1836.61C1344.81 1835.87 1345.53 1835.02 1346.13 1834.08C1346.77 1833.08 1347.3 1832.03 1347.69 1830.94V1806H1353.67V1832.73C1353.67 1834.52 1353.72 1836.39 1353.82 1838.33C1353.97 1840.22 1354.19 1841.89 1354.49 1843.33H1350.38L1348.89 1837.44H1348.52C1347.37 1839.38 1345.83 1840.99 1343.89 1842.29C1341.95 1843.58 1339.48 1844.23 1336.49 1844.23C1334.5 1844.23 1332.74 1843.98 1331.19 1843.48C1329.7 1843.04 1328.43 1842.21 1327.39 1841.02C1326.39 1839.82 1325.62 1838.23 1325.07 1836.24C1324.57 1834.2 1324.32 1831.64 1324.32 1828.55V1806H1330.3ZM1362.41 1794.13C1362.41 1792.98 1362.76 1792.09 1363.45 1791.44C1364.2 1790.79 1365.15 1790.47 1366.29 1790.47C1367.68 1790.47 1368.8 1790.92 1369.65 1791.81C1370.55 1792.66 1371 1793.95 1371 1795.7C1371 1797.34 1370.75 1798.76 1370.25 1799.95C1369.8 1801.15 1369.23 1802.17 1368.53 1803.01C1367.88 1803.81 1367.19 1804.46 1366.44 1804.96C1365.69 1805.45 1365.05 1805.8 1364.5 1806L1362.63 1803.46C1363.78 1802.86 1364.67 1802.12 1365.32 1801.22C1365.97 1800.33 1366.29 1799.16 1366.29 1797.71C1366.09 1797.76 1365.82 1797.79 1365.47 1797.79C1364.52 1797.79 1363.78 1797.46 1363.23 1796.82C1362.68 1796.12 1362.41 1795.22 1362.41 1794.13ZM1392.69 1827.88L1394.78 1834.97H1394.86L1396.73 1827.73L1405.09 1806H1411.51L1395.61 1844.16H1393.07L1376.86 1806H1383.73L1392.69 1827.88ZM1444.41 1840.35C1442.92 1841.54 1441.03 1842.49 1438.74 1843.18C1436.5 1843.88 1434.11 1844.23 1431.57 1844.23C1428.73 1844.23 1426.27 1843.78 1424.18 1842.89C1422.09 1841.94 1420.37 1840.62 1419.03 1838.93C1417.68 1837.19 1416.69 1835.12 1416.04 1832.73C1415.39 1830.34 1415.07 1827.65 1415.07 1824.67C1415.07 1818.3 1416.49 1813.44 1419.33 1810.11C1422.16 1806.77 1426.22 1805.1 1431.5 1805.1C1433.19 1805.1 1434.88 1805.3 1436.57 1805.7C1438.27 1806.05 1439.78 1806.75 1441.13 1807.79C1442.47 1808.84 1443.57 1810.33 1444.41 1812.27C1445.26 1814.16 1445.68 1816.68 1445.68 1819.81C1445.68 1821.46 1445.53 1823.27 1445.24 1825.26H1421.27C1421.27 1827.45 1421.49 1829.4 1421.94 1831.09C1422.39 1832.78 1423.08 1834.22 1424.03 1835.42C1424.98 1836.56 1426.2 1837.46 1427.69 1838.11C1429.23 1838.7 1431.1 1839 1433.29 1839C1434.98 1839 1436.67 1838.7 1438.37 1838.11C1440.06 1837.51 1441.33 1836.81 1442.17 1836.02L1444.41 1840.35ZM1431.57 1810.33C1428.63 1810.33 1426.27 1811.1 1424.48 1812.65C1422.74 1814.19 1421.69 1816.83 1421.34 1820.56H1439.86C1439.86 1816.78 1439.14 1814.14 1437.69 1812.65C1436.25 1811.1 1434.21 1810.33 1431.57 1810.33ZM1492.61 1811.75C1491.11 1811.25 1489.69 1811 1488.35 1811C1486.21 1811 1484.52 1811.6 1483.27 1812.8C1482.03 1813.94 1481.26 1815.41 1480.96 1817.2V1843.33H1474.98V1806H1479.17L1480.29 1810.56H1480.58C1481.53 1808.86 1482.65 1807.57 1483.94 1806.67C1485.29 1805.73 1486.98 1805.25 1489.02 1805.25C1490.46 1805.25 1492.08 1805.5 1493.87 1806L1492.61 1811.75ZM1527.61 1840.35C1526.12 1841.54 1524.23 1842.49 1521.94 1843.18C1519.7 1843.88 1517.31 1844.23 1514.77 1844.23C1511.93 1844.23 1509.47 1843.78 1507.38 1842.89C1505.29 1841.94 1503.57 1840.62 1502.23 1838.93C1500.88 1837.19 1499.89 1835.12 1499.24 1832.73C1498.59 1830.34 1498.27 1827.65 1498.27 1824.67C1498.27 1818.3 1499.69 1813.44 1502.52 1810.11C1505.36 1806.77 1509.42 1805.1 1514.69 1805.1C1516.39 1805.1 1518.08 1805.3 1519.77 1805.7C1521.46 1806.05 1522.98 1806.75 1524.33 1807.79C1525.67 1808.84 1526.77 1810.33 1527.61 1812.27C1528.46 1814.16 1528.88 1816.68 1528.88 1819.81C1528.88 1821.46 1528.73 1823.27 1528.43 1825.26H1504.47C1504.47 1827.45 1504.69 1829.4 1505.14 1831.09C1505.59 1832.78 1506.28 1834.22 1507.23 1835.42C1508.17 1836.56 1509.39 1837.46 1510.89 1838.11C1512.43 1838.7 1514.3 1839 1516.49 1839C1518.18 1839 1519.87 1838.7 1521.56 1838.11C1523.26 1837.51 1524.53 1836.81 1525.37 1836.02L1527.61 1840.35ZM1514.77 1810.33C1511.83 1810.33 1509.47 1811.1 1507.68 1812.65C1505.93 1814.19 1504.89 1816.83 1504.54 1820.56H1523.06C1523.06 1816.78 1522.34 1814.14 1520.89 1812.65C1519.45 1811.1 1517.41 1810.33 1514.77 1810.33ZM1537.68 1808.76C1539.57 1807.62 1541.76 1806.77 1544.25 1806.22C1546.79 1805.68 1549.43 1805.4 1552.16 1805.4C1554.75 1805.4 1556.82 1805.75 1558.36 1806.45C1559.95 1807.15 1561.15 1808.07 1561.94 1809.21C1562.79 1810.31 1563.34 1811.53 1563.59 1812.87C1563.89 1814.21 1564.04 1815.56 1564.04 1816.9C1564.04 1819.89 1563.96 1822.8 1563.81 1825.64C1563.66 1828.48 1563.59 1831.16 1563.59 1833.7C1563.59 1835.54 1563.66 1837.29 1563.81 1838.93C1563.96 1840.57 1564.23 1842.09 1564.63 1843.48H1560.23L1558.66 1838.26H1558.29C1557.84 1838.95 1557.27 1839.65 1556.57 1840.35C1555.92 1840.99 1555.13 1841.59 1554.18 1842.14C1553.23 1842.64 1552.14 1843.06 1550.89 1843.41C1549.65 1843.76 1548.23 1843.93 1546.64 1843.93C1545.05 1843.93 1543.55 1843.68 1542.16 1843.18C1540.81 1842.69 1539.64 1841.99 1538.65 1841.09C1537.65 1840.15 1536.86 1839.03 1536.26 1837.73C1535.71 1836.44 1535.44 1834.97 1535.44 1833.33C1535.44 1831.14 1535.89 1829.32 1536.78 1827.88C1537.68 1826.38 1538.92 1825.21 1540.52 1824.37C1542.16 1823.47 1544.1 1822.85 1546.34 1822.5C1548.63 1822.1 1551.14 1821.9 1553.88 1821.9C1554.58 1821.9 1555.25 1821.9 1555.9 1821.9C1556.59 1821.9 1557.29 1821.95 1557.99 1822.05C1558.14 1820.56 1558.21 1819.22 1558.21 1818.02C1558.21 1815.28 1557.66 1813.37 1556.57 1812.27C1555.47 1811.18 1553.48 1810.63 1550.6 1810.63C1549.75 1810.63 1548.83 1810.7 1547.83 1810.85C1546.89 1810.95 1545.89 1811.13 1544.85 1811.38C1543.85 1811.58 1542.88 1811.85 1541.93 1812.2C1541.04 1812.5 1540.24 1812.85 1539.54 1813.24L1537.68 1808.76ZM1548.28 1838.7C1549.67 1838.7 1550.92 1838.53 1552.01 1838.18C1553.11 1837.78 1554.05 1837.31 1554.85 1836.76C1555.65 1836.17 1556.29 1835.52 1556.79 1834.82C1557.34 1834.13 1557.74 1833.45 1557.99 1832.81V1826.61C1557.29 1826.56 1556.57 1826.53 1555.82 1826.53C1555.13 1826.48 1554.43 1826.46 1553.73 1826.46C1552.19 1826.46 1550.67 1826.56 1549.18 1826.76C1547.73 1826.91 1546.44 1827.23 1545.29 1827.73C1544.2 1828.18 1543.3 1828.82 1542.61 1829.67C1541.96 1830.47 1541.64 1831.49 1541.64 1832.73C1541.64 1834.47 1542.26 1835.92 1543.5 1837.06C1544.75 1838.16 1546.34 1838.7 1548.28 1838.7ZM1603.99 1830.49C1603.99 1833.03 1604.01 1835.34 1604.06 1837.44C1604.11 1839.48 1604.34 1841.49 1604.74 1843.48H1600.7L1599.21 1838.18H1598.91C1597.92 1839.92 1596.47 1841.37 1594.58 1842.51C1592.69 1843.66 1590.47 1844.23 1587.94 1844.23C1582.96 1844.23 1579.25 1842.66 1576.81 1839.53C1574.42 1836.39 1573.23 1831.49 1573.23 1824.82C1573.23 1818.45 1574.72 1813.62 1577.71 1810.33C1580.74 1807 1584.9 1805.33 1590.18 1805.33C1592.02 1805.33 1593.46 1805.43 1594.51 1805.63C1595.6 1805.83 1596.77 1806.15 1598.02 1806.6V1791.07H1603.99V1830.49ZM1588.91 1839C1591.45 1839 1593.46 1838.36 1594.95 1837.06C1596.45 1835.72 1597.47 1833.7 1598.02 1831.01V1812.5C1597.12 1811.8 1596.1 1811.3 1594.95 1811C1593.81 1810.7 1592.29 1810.56 1590.4 1810.56C1586.97 1810.56 1584.28 1811.7 1582.34 1813.99C1580.39 1816.23 1579.42 1819.84 1579.42 1824.82C1579.42 1826.86 1579.57 1828.75 1579.87 1830.49C1580.22 1832.23 1580.77 1833.73 1581.51 1834.97C1582.26 1836.22 1583.23 1837.21 1584.43 1837.96C1585.67 1838.65 1587.16 1839 1588.91 1839ZM1636.67 1806H1642.64V1843.33H1636.67V1806ZM1635.4 1794.65C1635.4 1793.51 1635.77 1792.54 1636.52 1791.74C1637.32 1790.89 1638.31 1790.47 1639.51 1790.47C1640.7 1790.47 1641.72 1790.89 1642.57 1791.74C1643.41 1792.54 1643.84 1793.51 1643.84 1794.65C1643.84 1795.8 1643.41 1796.74 1642.57 1797.49C1641.72 1798.24 1640.7 1798.61 1639.51 1798.61C1638.31 1798.61 1637.32 1798.24 1636.52 1797.49C1635.77 1796.74 1635.4 1795.8 1635.4 1794.65ZM1650.45 1806H1656.28V1798.61L1662.25 1796.89V1806H1672.4V1811.23H1662.25V1831.91C1662.25 1834.5 1662.57 1836.34 1663.22 1837.44C1663.87 1838.48 1664.96 1839 1666.5 1839C1667.8 1839 1668.89 1838.88 1669.79 1838.63C1670.69 1838.33 1671.68 1837.96 1672.78 1837.51L1674.12 1842.06C1672.78 1842.71 1671.31 1843.23 1669.72 1843.63C1668.12 1844.03 1666.41 1844.23 1664.56 1844.23C1661.53 1844.23 1659.39 1843.38 1658.14 1841.69C1656.9 1839.95 1656.28 1837.06 1656.28 1833.03V1811.23H1650.45V1806ZM1718.21 1811.75C1716.72 1811.25 1715.3 1811 1713.95 1811C1711.81 1811 1710.12 1811.6 1708.88 1812.8C1707.63 1813.94 1706.86 1815.41 1706.56 1817.2V1843.33H1700.59V1806H1704.77L1705.89 1810.56H1706.19C1707.13 1808.86 1708.25 1807.57 1709.55 1806.67C1710.89 1805.73 1712.58 1805.25 1714.63 1805.25C1716.07 1805.25 1717.69 1805.5 1719.48 1806L1718.21 1811.75ZM1727.23 1806H1733.21V1843.33H1727.23V1806ZM1725.96 1794.65C1725.96 1793.51 1726.34 1792.54 1727.08 1791.74C1727.88 1790.89 1728.87 1790.47 1730.07 1790.47C1731.26 1790.47 1732.28 1790.89 1733.13 1791.74C1733.98 1792.54 1734.4 1793.51 1734.4 1794.65C1734.4 1795.8 1733.98 1796.74 1733.13 1797.49C1732.28 1798.24 1731.26 1798.61 1730.07 1798.61C1728.87 1798.61 1727.88 1798.24 1727.08 1797.49C1726.34 1796.74 1725.96 1795.8 1725.96 1794.65ZM1774.54 1845.05C1774.54 1849.88 1773.25 1853.44 1770.66 1855.73C1768.12 1858.02 1764.33 1859.16 1759.31 1859.16C1756.32 1859.16 1753.91 1858.96 1752.06 1858.57C1750.27 1858.22 1748.73 1857.74 1747.44 1857.15L1749 1852.07C1750.15 1852.52 1751.42 1852.94 1752.81 1853.34C1754.21 1853.74 1756.02 1853.94 1758.26 1853.94C1760.35 1853.94 1762.05 1853.74 1763.34 1853.34C1764.68 1852.99 1765.75 1852.37 1766.55 1851.47C1767.35 1850.63 1767.89 1849.51 1768.19 1848.11C1768.49 1846.77 1768.64 1845.15 1768.64 1843.26V1839.68H1768.34C1767.35 1841.12 1766.08 1842.24 1764.53 1843.04C1762.99 1843.78 1760.97 1844.16 1758.49 1844.16C1753.46 1844.16 1749.75 1842.59 1747.36 1839.45C1745.02 1836.32 1743.85 1831.44 1743.85 1824.82C1743.85 1818.45 1745.37 1813.62 1748.41 1810.33C1751.44 1807 1755.92 1805.33 1761.85 1805.33C1764.68 1805.33 1767.1 1805.55 1769.09 1806C1771.13 1806.45 1772.95 1806.97 1774.54 1807.57V1845.05ZM1759.53 1838.93C1762.07 1838.93 1764.06 1838.31 1765.5 1837.06C1766.95 1835.77 1767.97 1833.78 1768.57 1831.09V1811.97C1766.57 1811.03 1764.04 1810.56 1760.95 1810.56C1757.57 1810.56 1754.9 1811.7 1752.96 1813.99C1751.02 1816.28 1750.05 1819.86 1750.05 1824.74C1750.05 1826.83 1750.22 1828.75 1750.57 1830.49C1750.92 1832.23 1751.47 1833.73 1752.21 1834.97C1752.96 1836.22 1753.93 1837.19 1755.13 1837.88C1756.32 1838.58 1757.79 1838.93 1759.53 1838.93ZM1810.01 1843.33V1822.05C1810.01 1820.11 1809.89 1818.42 1809.64 1816.98C1809.44 1815.48 1809.04 1814.26 1808.45 1813.32C1807.85 1812.32 1807.03 1811.58 1805.98 1811.08C1804.99 1810.58 1803.67 1810.33 1802.02 1810.33C1799.69 1810.33 1797.57 1811.1 1795.68 1812.65C1793.79 1814.14 1792.57 1816.08 1792.02 1818.47V1843.33H1786.05V1791.07H1792.02V1810.18H1792.32C1793.61 1808.64 1795.16 1807.42 1796.95 1806.52C1798.79 1805.58 1801.05 1805.1 1803.74 1805.1C1805.83 1805.1 1807.65 1805.35 1809.19 1805.85C1810.74 1806.3 1812.01 1807.12 1813 1808.32C1814.05 1809.51 1814.79 1811.13 1815.24 1813.17C1815.74 1815.16 1815.99 1817.7 1815.99 1820.78V1843.33H1810.01ZM1821.95 1806H1827.78V1798.61L1833.75 1796.89V1806H1843.9V1811.23H1833.75V1831.91C1833.75 1834.5 1834.07 1836.34 1834.72 1837.44C1835.37 1838.48 1836.46 1839 1838 1839C1839.3 1839 1840.39 1838.88 1841.29 1838.63C1842.19 1838.33 1843.18 1837.96 1844.28 1837.51L1845.62 1842.06C1844.28 1842.71 1842.81 1843.23 1841.22 1843.63C1839.62 1844.03 1837.91 1844.23 1836.06 1844.23C1833.03 1844.23 1830.89 1843.38 1829.64 1841.69C1828.4 1839.95 1827.78 1837.06 1827.78 1833.03V1811.23H1821.95V1806Z" fill="#212132"/>
</g>
<defs>
<clipPath id="clip0_2777_4325">
<rect width="1920" height="1920" fill="white"/>
</clipPath>
</defs>
</svg>
