<svg width="1841" height="637" viewBox="0 0 1841 637" fill="none" xmlns="http://www.w3.org/2000/svg">
<g clip-path="url(#clip0_2784_6221)">
<path d="M57.9336 554.875V81.7507C173.157 92.05 634.694 142.259 920.5 142.259C1206.31 142.259 1667.2 92.05 1783.07 81.7507V554.875C1667.2 545.863 1206.31 495.01 920.5 495.01C634.694 495.01 173.157 545.863 57.9336 554.875ZM0 0V636.626C234.953 601.865 631.476 535.564 920.5 535.564C1209.52 535.564 1606.05 601.865 1841 636.626V0C1606.05 33.4727 1209.52 100.418 920.5 100.418C631.476 100.418 234.953 33.4727 0 0Z" fill="#262626"/>
<path d="M407.132 270.103C407.132 285.552 426.443 289.414 443.179 289.414C871.888 286.195 1280.64 278.471 1623.74 270.103C1280.64 261.091 871.888 253.366 443.179 249.504C426.443 249.504 407.132 254.01 407.132 270.103ZM416.787 355.072C419.362 350.566 426.443 341.554 429.661 339.623C440.604 344.129 424.512 354.428 416.787 355.072ZM241.055 222.469L138.062 398.844C119.395 431.029 119.395 447.122 139.35 450.984C156.73 457.421 176.685 448.409 184.409 437.466L226.25 383.395C224.963 414.293 242.343 440.041 271.953 440.041C292.552 440.041 309.932 430.386 326.025 415.58C331.174 431.673 353.06 440.041 369.797 440.041C410.994 440.041 445.11 422.661 468.284 407.212C457.985 424.592 477.296 440.041 502.4 440.041C520.424 440.041 544.885 428.455 566.771 415.58C561.621 431.673 577.714 440.041 598.312 440.041C618.911 440.041 649.809 428.455 672.982 414.293C676.845 430.386 698.731 440.041 722.548 440.041C773.401 440.041 822.322 401.419 839.702 381.464C848.714 371.808 842.277 368.59 833.265 375.671C807.517 394.982 779.194 409.787 761.17 409.787C748.296 409.787 737.997 402.706 749.583 385.97L761.17 367.946C767.607 358.934 770.182 357.003 771.469 357.003C772.757 357.003 766.32 374.383 790.137 374.383C804.942 374.383 814.598 366.659 828.116 351.21C854.508 317.093 848.07 308.725 795.93 308.725C748.94 308.725 731.56 317.737 705.811 354.428L680.707 386.614C669.12 396.269 656.89 403.35 644.659 403.35C642.728 403.35 642.728 402.063 649.165 392.407L689.719 331.899C700.662 317.737 689.719 312.587 679.419 312.587H658.821C644.016 312.587 631.785 319.668 624.061 331.899L591.232 378.246C576.426 388.545 560.334 396.913 551.966 396.913C549.391 396.913 548.747 394.338 555.828 384.683L589.301 331.899C600.244 317.093 590.588 312.587 581.576 312.587H558.403C544.241 312.587 530.723 319.668 522.999 330.611L496.607 367.302C461.203 393.051 431.593 405.925 405.201 405.925C394.258 405.925 389.752 398.844 400.695 386.614C441.248 382.108 471.502 368.59 487.595 344.773C501.757 323.53 492.101 308.725 457.984 308.725C421.937 308.725 381.383 317.093 351.773 358.934L347.911 364.728C331.174 381.464 316.369 388.545 307.357 388.545C294.483 388.545 285.471 371.165 295.771 329.968L407.775 235.343C429.018 217.963 427.087 203.157 394.258 203.157C373.659 203.157 360.785 208.307 348.554 219.25L260.367 299.07C259.508 300.357 259.723 299.928 261.01 297.782L322.806 201.87C333.105 185.777 330.531 173.547 308.001 173.547C273.241 173.547 263.585 182.559 241.055 222.469Z" fill="#262626"/>
</g>
<defs>
<clipPath id="clip0_2784_6221">
<rect width="1841" height="636.626" fill="white"/>
</clipPath>
</defs>
</svg>
