<svg width="2303" height="434" viewBox="0 0 2303 434" fill="none" xmlns="http://www.w3.org/2000/svg">
<g clip-path="url(#clip0_2784_6225)">
<path d="M849.955 357.511L994.341 110.725C1132.58 35.9721 1172.52 59.5244 1142.82 112.773L1005.6 357.511H1073.19L1213.48 110.725C1244.2 56.4524 1197.09 -35.7086 1073.19 14.4679L1040.42 27.7801L1057.83 0.131776H988.196L780.322 357.511H849.955ZM512.031 239.75C481.311 294.023 517.152 357.511 579.616 357.511H631.841C698.401 357.511 744.482 327.815 776.226 273.543L876.579 103.557C904.228 56.4524 869.411 0.131776 815.139 0.131776H728.098C677.921 0.131776 640.033 20.612 614.433 64.6444L512.031 239.75ZM563.232 270.471L665.633 95.3648C680.993 69.7645 698.401 59.5244 728.098 59.5244H815.139C824.355 59.5244 829.475 65.6685 825.379 72.8365L725.026 242.822C703.522 280.711 675.873 298.119 631.841 298.119H579.616C563.232 298.119 555.04 283.783 563.232 270.471ZM1539.11 239.75C1508.39 294.023 1544.23 357.511 1606.7 357.511H1658.92C1725.48 357.511 1771.56 327.815 1803.31 273.543L1903.66 103.557C1931.31 56.4524 1896.49 0.131776 1842.22 0.131776H1755.18C1705 0.131776 1667.12 20.612 1641.52 64.6444L1539.11 239.75ZM1590.31 270.471L1692.72 95.3648C1708.08 69.7645 1725.48 59.5244 1755.18 59.5244H1842.22C1851.44 59.5244 1856.56 65.6685 1852.46 72.8365L1752.11 242.822C1730.6 280.711 1702.96 298.119 1658.92 298.119H1606.7C1590.31 298.119 1582.12 283.783 1590.31 270.471ZM2274.35 60.5484C2273.33 60.5484 2304.05 0.131776 2303.03 0.131776C1998.89 1.15579 1877.04 144.517 1877.04 235.654C1877.04 321.671 1946.67 352.391 2024.5 352.391H2133.04L2161.71 292.999H2024.5C1968.17 292.999 1936.43 278.663 1936.43 235.654C1936.43 179.334 2028.59 68.7405 2274.35 60.5484ZM1194.02 357.511L1217.57 316.551C1442.86 256.134 1586.22 169.094 1586.22 82.0526C1586.22 31.8761 1546.28 0.131776 1497.13 0.131776C1465.39 0.131776 1424.42 12.4199 1384.49 29.8281L1401.9 0.131776H1332.26L1124.39 357.511H1194.02ZM1260.58 241.798L1304.62 167.046L1319.98 140.421C1355.82 102.533 1449 59.5244 1497.13 59.5244C1514.54 59.5244 1526.83 65.6685 1526.83 82.0526C1526.83 120.965 1432.62 188.55 1260.58 241.798ZM326.686 357.511C429.087 300.167 427.039 227.462 374.814 227.462H346.142H278.557C331.806 185.478 422.943 110.725 422.943 81.0286C422.943 65.6685 410.654 59.5244 395.294 59.5244C300.061 59.5244 106.523 297.095 61.4668 372.872C60.4428 373.896 60.4428 373.896 64.5388 373.896H2122.8L2094.13 433.288H64.5388C11.2903 433.288 -16.358 389.256 10.2663 342.151C58.3948 261.254 265.245 0.131776 397.342 0.131776C449.567 0.131776 493.599 22.66 493.599 67.7165C493.599 105.605 459.807 143.493 427.039 177.286C493.599 198.79 512.031 289.927 417.823 357.511H326.686Z" fill="#262626"/>
</g>
<defs>
<clipPath id="clip0_2784_6225">
<rect width="2303" height="433.157" fill="white"/>
</clipPath>
</defs>
</svg>
