<svg width="1774" height="1546" viewBox="0 0 1774 1546" fill="none" xmlns="http://www.w3.org/2000/svg">
<path d="M1434.33 1126.58L1670.93 590.094L1648.68 567.877L1610.25 577.664L1697.99 355.352L1675.73 333.135L1643.24 338.42L1773.92 22.2167L1751.66 0L1596.05 33.0492L1447.91 487.665L1470.17 509.881L1509.56 502.011L1435.9 760.103L1458.15 782.32L1494.55 775.553L1403.87 1101.46L1434.33 1126.61V1126.58ZM1560.53 598.284L1632.62 579.9L1427.66 1044.65L1513.6 735.795L1447.3 748.109L1529.11 461.527L1459.99 475.322L1601.93 39.6707L1736.39 11.1229L1594.63 354.161L1661.1 343.357L1560.5 598.284H1560.53Z" fill="#262626"/>
<path d="M754.856 1231.45C755.632 1232.73 757.041 1233.51 758.536 1233.51C758.853 1233.51 759.169 1233.48 759.485 1233.39L850.744 1212.57C852.383 1212.2 853.648 1210.89 854.022 1209.24L915.839 920.809C916.299 918.66 915.12 916.511 913.05 915.785C911.009 915.059 908.737 915.988 907.76 917.934L754.655 1227.18C753.993 1228.52 754.08 1230.14 754.856 1231.42V1231.45ZM873.803 1075.69L846.144 1204.71L805.316 1214.03L873.803 1075.69Z" fill="#262626"/>
<path d="M1068.05 772.712C1068.05 772.712 1068.05 772.712 1068.02 772.683C1067.94 772.596 1067.85 772.509 1067.76 772.422C1067.76 772.422 1067.73 772.422 1067.7 772.364C1067.62 772.277 1067.56 772.19 1067.47 772.132C1067.47 772.132 1067.41 772.074 1067.39 772.045C1067.33 771.958 1067.24 771.9 1067.18 771.842C1067.18 771.842 1067.18 771.842 1067.15 771.813C1067.07 771.726 1066.98 771.639 1066.89 771.552C1066.89 771.552 1066.83 771.494 1066.81 771.494C1066.75 771.407 1066.66 771.349 1066.6 771.262C1066.6 771.262 1066.6 771.262 1066.57 771.233C1066.49 771.146 1066.4 771.059 1066.31 770.972C1066.31 770.972 1066.28 770.972 1066.25 770.914C1066.17 770.827 1066.11 770.74 1066.02 770.682C1066.02 770.682 1065.96 770.624 1065.93 770.595C1065.88 770.508 1065.79 770.45 1065.73 770.392C1065.73 770.392 1065.73 770.392 1065.7 770.363C1065.62 770.276 1065.53 770.189 1065.44 770.102C1065.44 770.102 1065.38 770.044 1065.35 770.044C1065.3 769.957 1065.21 769.899 1065.15 769.812C1065.15 769.812 1065.15 769.812 1065.12 769.783C1065.04 769.696 1064.95 769.609 1064.86 769.522C1064.86 769.522 1064.83 769.522 1064.8 769.464C1064.72 769.377 1064.66 769.29 1064.57 769.232C1064.57 769.232 1064.51 769.174 1064.48 769.145C1064.43 769.058 1064.34 768.999 1064.28 768.941C1064.28 768.941 1064.28 768.942 1064.25 768.913C1064.17 768.826 1064.08 768.739 1063.99 768.652C1063.99 768.652 1063.93 768.593 1063.9 768.593C1063.85 768.506 1063.76 768.448 1063.7 768.361C1063.7 768.361 1063.7 768.361 1063.67 768.332C1063.59 768.245 1063.5 768.158 1063.41 768.071C1063.41 768.071 1063.38 768.071 1063.35 768.013C1063.27 767.926 1063.21 767.839 1063.12 767.781C1063.12 767.781 1063.06 767.723 1063.03 767.694C1062.98 767.607 1062.89 767.549 1062.83 767.491C1062.83 767.491 1062.83 767.491 1062.8 767.462C1062.71 767.375 1062.63 767.288 1062.54 767.201C1062.54 767.201 1062.48 767.143 1062.45 767.143C1062.4 767.056 1062.31 766.998 1062.25 766.911C1062.25 766.911 1062.25 766.911 1062.22 766.882C1062.13 766.795 1062.05 766.708 1061.96 766.621C1061.96 766.621 1061.93 766.621 1061.9 766.563C1061.82 766.476 1061.76 766.389 1061.67 766.331C1061.67 766.331 1061.61 766.273 1061.58 766.244C1061.53 766.157 1061.44 766.099 1061.38 766.041C1061.38 766.041 1061.38 766.041 1061.35 766.012C1061.26 765.925 1061.18 765.838 1061.09 765.751C1061.09 765.751 1061.03 765.693 1061 765.693C1060.95 765.606 1060.86 765.548 1060.8 765.461C1060.8 765.461 1060.8 765.461 1060.77 765.432C1060.68 765.345 1060.6 765.258 1060.51 765.171C1060.51 765.171 1060.48 765.171 1060.45 765.113C1060.37 765.026 1060.31 764.939 1060.22 764.881C1060.22 764.881 1060.16 764.823 1060.13 764.794C1060.08 764.707 1059.99 764.649 1059.93 764.591C1059.93 764.591 1059.93 764.591 1059.9 764.562C1059.81 764.475 1059.73 764.388 1059.64 764.301C1059.64 764.301 1059.58 764.243 1059.55 764.243C1059.5 764.156 1059.41 764.098 1059.35 764.011C1059.35 764.011 1059.35 764.011 1059.32 763.982C1059.23 763.895 1059.15 763.808 1059.06 763.721C1059.06 763.721 1059.03 763.721 1059 763.663C1058.91 763.576 1058.86 763.489 1058.77 763.431C1058.77 763.431 1058.71 763.373 1058.68 763.344C1058.62 763.257 1058.54 763.199 1058.48 763.141C1058.48 763.141 1058.48 763.141 1058.45 763.112C1058.36 763.025 1058.28 762.938 1058.19 762.851C1058.19 762.851 1058.13 762.793 1058.1 762.793C1058.04 762.706 1057.96 762.648 1057.9 762.561C1057.9 762.561 1057.9 762.561 1057.87 762.532C1057.78 762.445 1057.7 762.358 1057.61 762.271C1057.61 762.271 1057.58 762.271 1057.55 762.213C1057.46 762.126 1057.41 762.039 1057.32 761.981C1057.32 761.981 1057.26 761.923 1057.23 761.894C1057.17 761.807 1057.09 761.749 1057.03 761.691C1057.03 761.691 1057.03 761.691 1057 761.662C1056.91 761.575 1056.83 761.488 1056.74 761.401C1056.74 761.401 1056.68 761.343 1056.65 761.343C1056.59 761.256 1056.51 761.198 1056.45 761.111C1056.45 761.111 1056.45 761.111 1056.42 761.082C1056.33 760.995 1056.25 760.908 1056.16 760.821C1056.16 760.821 1056.13 760.821 1056.1 760.763C1056.01 760.676 1055.96 760.589 1055.87 760.531C1055.87 760.531 1055.81 760.473 1055.78 760.444C1055.72 760.357 1055.64 760.299 1055.58 760.241C1055.58 760.241 1055.58 760.241 1055.55 760.212C1055.46 760.125 1055.38 760.038 1055.29 759.951C1055.29 759.951 1055.23 759.893 1055.2 759.893C1055.14 759.806 1055.06 759.748 1055 759.661C1055 759.661 1055 759.661 1054.97 759.632C1054.88 759.545 1054.8 759.458 1054.71 759.371C1054.71 759.371 1054.68 759.371 1054.65 759.313C1054.56 759.226 1054.51 759.139 1054.42 759.081C1054.42 759.081 1054.36 759.023 1054.33 758.994C1054.27 758.907 1054.19 758.849 1054.13 758.791C1054.13 758.791 1054.13 758.791 1054.1 758.762C1054.01 758.675 1053.93 758.588 1053.84 758.501C1053.84 758.501 1053.78 758.443 1053.75 758.443C1053.69 758.356 1053.61 758.298 1053.55 758.211C1053.55 758.211 1053.55 758.211 1053.52 758.182C1053.43 758.095 1053.35 758.008 1053.26 757.921C1053.26 757.921 1053.23 757.921 1053.2 757.863C1053.11 757.776 1053.06 757.688 1052.97 757.63C1052.97 757.63 1052.91 757.572 1052.88 757.543C1052.82 757.456 1052.74 757.398 1052.68 757.34C1052.68 757.34 1052.68 757.341 1052.65 757.311C1052.56 757.224 1052.48 757.137 1052.39 757.05C1052.39 757.05 1052.33 756.992 1052.3 756.992C1052.24 756.905 1052.16 756.847 1052.1 756.76C1052.1 756.76 1052.1 756.76 1052.07 756.731C1051.98 756.644 1051.89 756.557 1051.81 756.47C1051.81 756.47 1051.78 756.47 1051.75 756.412C1051.66 756.325 1051.6 756.238 1051.52 756.18C1051.52 756.18 1051.46 756.122 1051.43 756.093C1051.37 756.006 1051.29 755.948 1051.23 755.89C1051.23 755.89 1051.23 755.89 1051.2 755.861C1051.11 755.774 1051.02 755.687 1050.94 755.6C1050.94 755.6 1050.88 755.542 1050.85 755.542C1050.79 755.455 1050.71 755.397 1050.65 755.31C1050.65 755.31 1050.65 755.31 1050.62 755.281C1050.53 755.194 1050.44 755.107 1050.36 755.02C1050.36 755.02 1050.33 755.02 1050.3 754.962C1050.21 754.875 1050.15 754.788 1050.07 754.73C1050.07 754.73 1050.01 754.672 1049.98 754.643C1049.92 754.556 1049.84 754.498 1049.78 754.44C1049.78 754.44 1049.78 754.44 1049.75 754.411C1049.66 754.324 1049.57 754.237 1049.49 754.15C1049.49 754.15 1049.43 754.092 1049.4 754.092C1049.34 754.005 1049.26 753.947 1049.2 753.86C1049.2 753.86 1049.2 753.86 1049.17 753.831C1049.08 753.744 1048.99 753.657 1048.91 753.57C1048.91 753.57 1048.88 753.57 1048.85 753.512C1048.76 753.425 1048.7 753.338 1048.62 753.28C1048.62 753.28 1048.56 753.222 1048.53 753.193C1048.47 753.106 1048.39 753.048 1048.33 752.99C1048.33 752.99 1048.33 752.99 1048.3 752.961C1048.21 752.874 1048.12 752.787 1048.04 752.7C1048.04 752.7 1047.98 752.642 1047.95 752.642C1047.89 752.555 1047.8 752.497 1047.75 752.41C1047.75 752.41 1047.75 752.41 1047.72 752.381C1047.63 752.294 1047.54 752.207 1047.46 752.12C1047.46 752.12 1047.43 752.12 1047.4 752.062C1047.31 751.975 1047.25 751.888 1047.17 751.83C1047.17 751.83 1047.11 751.772 1047.08 751.743C1047.02 751.656 1046.93 751.598 1046.88 751.54C1046.88 751.54 1046.88 751.54 1046.85 751.511C1046.76 751.424 1046.67 751.337 1046.59 751.25C1046.59 751.25 1046.53 751.192 1046.5 751.192C1046.44 751.105 1046.35 751.047 1046.3 750.96C1046.3 750.96 1046.3 750.96 1046.27 750.931C1046.18 750.844 1046.09 750.757 1046.01 750.67C1046.01 750.67 1045.98 750.67 1045.95 750.612C1045.86 750.525 1045.8 750.438 1045.72 750.38C1045.72 750.38 1045.66 750.322 1045.63 750.293C1045.57 750.206 1045.48 750.148 1045.43 750.09C1045.43 750.09 1045.43 750.09 1045.4 750.061C1045.31 749.974 1045.22 749.887 1045.14 749.8C1045.14 749.8 1045.08 749.742 1045.05 749.742C1044.99 749.655 1044.9 749.597 1044.85 749.51C1043.8 748.524 1042.35 748.118 1040.96 748.437L887.971 781.094C886.753 781.355 885.738 782.109 885.1 783.182L546.461 1368.25C545.591 1369.73 545.707 1371.59 546.693 1372.98C546.867 1373.21 547.07 1373.44 547.303 1373.65C547.39 1373.73 547.477 1373.82 547.593 1373.91C547.68 1374.02 547.796 1374.11 547.883 1374.23C547.97 1374.31 548.057 1374.4 548.144 1374.49C548.231 1374.6 548.347 1374.69 548.463 1374.81C548.55 1374.92 548.666 1375.01 548.753 1375.1C548.84 1375.18 548.927 1375.27 549.043 1375.36C549.13 1375.47 549.246 1375.56 549.333 1375.68C549.42 1375.76 549.507 1375.85 549.594 1375.94C549.681 1376.05 549.797 1376.14 549.913 1376.26C550 1376.37 550.116 1376.46 550.203 1376.55C550.29 1376.63 550.377 1376.72 550.493 1376.81C550.58 1376.92 550.696 1377.01 550.783 1377.13C550.87 1377.21 550.957 1377.3 551.045 1377.39C551.132 1377.5 551.248 1377.59 551.364 1377.71C551.451 1377.82 551.567 1377.91 551.654 1378C551.741 1378.08 551.828 1378.17 551.944 1378.26C552.031 1378.37 552.147 1378.46 552.234 1378.58C552.321 1378.66 552.408 1378.75 552.495 1378.84C552.582 1378.95 552.698 1379.04 552.814 1379.16C552.901 1379.27 553.017 1379.36 553.104 1379.45C553.191 1379.53 553.278 1379.62 553.394 1379.71C553.481 1379.82 553.597 1379.91 553.684 1380.03C553.771 1380.11 553.858 1380.2 553.945 1380.29C554.032 1380.4 554.148 1380.49 554.264 1380.61C554.351 1380.72 554.467 1380.81 554.554 1380.9C554.642 1380.98 554.729 1381.07 554.845 1381.16C554.932 1381.27 555.048 1381.36 555.135 1381.48C555.222 1381.56 555.309 1381.65 555.396 1381.74C555.483 1381.85 555.599 1381.94 555.715 1382.06C555.802 1382.17 555.918 1382.26 556.005 1382.35C556.092 1382.43 556.179 1382.52 556.295 1382.61C556.382 1382.72 556.498 1382.81 556.585 1382.93C556.672 1383.01 556.759 1383.1 556.846 1383.19C556.933 1383.3 557.049 1383.39 557.165 1383.51C557.252 1383.62 557.368 1383.71 557.455 1383.8C557.542 1383.88 557.629 1383.97 557.745 1384.06C557.832 1384.17 557.948 1384.26 558.035 1384.38C558.122 1384.46 558.209 1384.55 558.296 1384.64C558.384 1384.75 558.5 1384.84 558.616 1384.96C558.703 1385.07 558.819 1385.16 558.906 1385.25C558.993 1385.33 559.08 1385.42 559.196 1385.51C559.283 1385.62 559.399 1385.71 559.486 1385.83C559.573 1385.91 559.66 1386 559.747 1386.09C559.834 1386.2 559.95 1386.29 560.066 1386.41C560.153 1386.52 560.269 1386.61 560.356 1386.7C560.443 1386.78 560.53 1386.87 560.646 1386.96C560.733 1387.07 560.849 1387.16 560.936 1387.28C561.023 1387.36 561.11 1387.45 561.197 1387.54C561.284 1387.65 561.4 1387.74 561.516 1387.86C561.603 1387.97 561.719 1388.06 561.806 1388.15C561.893 1388.23 561.98 1388.32 562.097 1388.41C562.184 1388.52 562.3 1388.61 562.387 1388.73C562.474 1388.81 562.561 1388.9 562.648 1388.99C562.735 1389.1 562.851 1389.19 562.967 1389.31C563.054 1389.42 563.17 1389.51 563.257 1389.6C563.344 1389.68 563.431 1389.77 563.547 1389.86C563.634 1389.97 563.75 1390.06 563.837 1390.18C563.924 1390.26 564.011 1390.35 564.098 1390.44C564.185 1390.55 564.301 1390.64 564.417 1390.76C564.504 1390.87 564.62 1390.96 564.707 1391.05C564.794 1391.13 564.881 1391.22 564.997 1391.31C565.084 1391.42 565.2 1391.51 565.287 1391.63C565.374 1391.71 565.461 1391.8 565.548 1391.89C565.635 1392 565.752 1392.09 565.868 1392.21C565.955 1392.32 566.071 1392.41 566.158 1392.5C566.245 1392.58 566.332 1392.67 566.448 1392.76C566.535 1392.87 566.651 1392.96 566.738 1393.08C566.825 1393.16 566.912 1393.25 566.999 1393.34C567.086 1393.45 567.202 1393.54 567.318 1393.66C567.405 1393.77 567.521 1393.86 567.608 1393.95C567.695 1394.03 567.782 1394.12 567.898 1394.21C567.985 1394.32 568.101 1394.41 568.188 1394.53C568.275 1394.61 568.362 1394.7 568.449 1394.79C568.536 1394.9 568.652 1394.99 568.768 1395.11C568.855 1395.22 568.971 1395.31 569.058 1395.4C569.145 1395.48 569.232 1395.57 569.348 1395.66C569.436 1395.77 569.552 1395.86 569.639 1395.98C569.726 1396.06 569.813 1396.15 569.9 1396.24C569.987 1396.35 570.103 1396.44 570.219 1396.56C571.06 1397.46 572.22 1397.98 573.439 1397.98C573.758 1397.98 574.048 1397.95 574.367 1397.89L985.786 1308.8C987.555 1308.42 988.89 1307 989.18 1305.2L1069.39 776.569C1069.59 775.148 1069.1 773.727 1068.08 772.741L1068.05 772.712ZM957.793 1277.68L558.935 1364.05L891.684 789.156L1036.64 758.211L957.822 1277.65L957.793 1277.68Z" fill="#262626"/>
<path d="M468.388 809.864C468.505 810.009 468.651 810.154 468.796 810.299C468.884 810.386 469 810.502 469.087 810.589C469.204 810.705 469.321 810.821 469.437 810.937C469.524 811.024 469.612 811.111 469.699 811.198C469.757 811.256 469.787 811.285 469.845 811.343C469.961 811.488 470.107 811.633 470.253 811.778C470.34 811.865 470.456 811.981 470.544 812.068C470.66 812.184 470.777 812.3 470.893 812.416C470.981 812.503 471.068 812.59 471.155 812.677C471.214 812.735 471.243 812.764 471.301 812.822C471.418 812.967 471.563 813.112 471.709 813.257C471.796 813.344 471.913 813.46 472 813.547C472.117 813.663 472.233 813.779 472.35 813.895C472.437 813.982 472.524 814.069 472.612 814.156C472.67 814.214 472.699 814.243 472.757 814.301C472.874 814.446 473.02 814.591 473.165 814.736C473.253 814.823 473.369 814.939 473.456 815.026C473.573 815.142 473.689 815.258 473.806 815.374C473.893 815.461 473.981 815.548 474.068 815.635C474.126 815.693 474.155 815.722 474.214 815.78C474.33 815.925 474.476 816.07 474.622 816.215C474.709 816.302 474.825 816.418 474.913 816.505C475.029 816.621 475.146 816.737 475.262 816.853C475.35 816.939 475.437 817.026 475.524 817.113C475.583 817.171 475.612 817.2 475.67 817.258C475.787 817.403 475.932 817.548 476.078 817.693C476.165 817.78 476.282 817.896 476.369 817.983C476.486 818.099 476.602 818.215 476.719 818.331C476.806 818.418 476.893 818.505 476.981 818.592C477.039 818.65 477.068 818.679 477.126 818.737C477.243 818.882 477.389 819.027 477.534 819.172C477.622 819.259 477.738 819.375 477.825 819.462C477.942 819.578 478.058 819.694 478.175 819.81C478.262 819.897 478.35 819.984 478.437 820.071C478.495 820.129 478.524 820.158 478.583 820.216C478.699 820.361 478.845 820.506 478.99 820.651C479.078 820.738 479.194 820.854 479.282 820.941C479.398 821.057 479.515 821.173 479.631 821.289C479.719 821.376 479.806 821.463 479.893 821.55C479.952 821.608 479.981 821.637 480.039 821.695C480.156 821.84 480.301 821.985 480.447 822.13C480.534 822.217 480.651 822.333 480.738 822.42C480.855 822.536 480.971 822.652 481.088 822.768C481.175 822.855 481.262 822.942 481.35 823.029C481.408 823.087 481.437 823.116 481.495 823.174C481.612 823.319 481.757 823.464 481.903 823.609C481.99 823.696 482.107 823.812 482.194 823.899C482.311 824.015 482.427 824.131 482.544 824.247C482.631 824.334 482.719 824.421 482.806 824.508C482.864 824.566 482.893 824.595 482.952 824.653C483.068 824.798 483.214 824.943 483.359 825.088C483.447 825.175 483.563 825.291 483.651 825.378C483.767 825.494 483.884 825.61 484 825.726C484.088 825.813 484.175 825.9 484.262 825.987C484.321 826.045 484.35 826.074 484.408 826.132C484.524 826.277 484.67 826.422 484.816 826.566C484.903 826.653 485.02 826.769 485.107 826.856C485.223 826.972 485.34 827.088 485.456 827.204C485.544 827.291 485.631 827.378 485.719 827.465C485.777 827.523 485.806 827.552 485.864 827.61C485.981 827.755 486.126 827.9 486.272 828.045C486.359 828.132 486.476 828.248 486.563 828.335C486.68 828.451 486.796 828.567 486.913 828.683C487 828.77 487.088 828.857 487.175 828.944C487.233 829.002 487.262 829.031 487.321 829.089C487.437 829.234 487.583 829.379 487.728 829.524C487.816 829.611 487.932 829.727 488.02 829.814C488.136 829.93 488.253 830.046 488.369 830.162C488.457 830.249 488.544 830.336 488.631 830.423C488.69 830.481 488.719 830.51 488.777 830.568C488.893 830.713 489.039 830.858 489.185 831.003C489.272 831.09 489.389 831.206 489.476 831.293C489.592 831.409 489.709 831.525 489.825 831.641C489.913 831.728 490 831.815 490.088 831.902C490.146 831.96 490.175 831.989 490.233 832.047C490.35 832.192 490.495 832.337 490.641 832.482C490.699 832.54 490.757 832.598 490.845 832.685C491.165 833.149 491.573 833.555 492.039 833.874C493.029 834.541 494.223 834.744 495.389 834.512L496.029 834.367L520.117 792.118L474.651 801.861L432.971 572.841C432.621 570.927 431.019 569.478 429.068 569.275C427.117 569.072 425.282 570.232 424.583 572.058L324.301 833.932L221.66 855.158L430.437 314.708L532.991 292.178L449.515 504.872C448.699 506.96 449.602 509.337 451.612 510.323C453.621 511.338 456.068 510.671 457.262 508.758L604.292 276.867L722.253 251.785L520.292 546.309C519.563 547.353 519.36 548.658 519.68 549.905L564.185 714.724L581.894 683.668L551.952 572.783L758.923 270.952C759.943 269.473 759.943 267.559 758.923 266.08C758.719 265.79 758.486 265.5 758.224 265.268C758.137 265.181 758.049 265.094 757.962 265.007C757.875 264.891 757.758 264.804 757.671 264.688C757.642 264.659 757.613 264.63 757.584 264.572C757.409 264.34 757.205 264.137 756.972 263.963C756.914 263.905 756.855 263.847 756.826 263.818C756.739 263.731 756.651 263.644 756.535 263.557C756.448 263.441 756.331 263.354 756.244 263.238C756.215 263.209 756.185 263.181 756.156 263.123C755.982 262.891 755.778 262.688 755.545 262.514C755.486 262.456 755.428 262.398 755.399 262.369C755.312 262.282 755.224 262.195 755.108 262.108C755.02 261.992 754.904 261.905 754.816 261.789C754.787 261.76 754.758 261.731 754.729 261.673C754.554 261.441 754.35 261.238 754.117 261.064C754.059 261.006 754.001 260.948 753.972 260.919C753.884 260.832 753.797 260.745 753.681 260.658C753.593 260.542 753.477 260.455 753.389 260.339C753.36 260.31 753.331 260.281 753.302 260.223C753.127 259.991 752.923 259.788 752.69 259.614C752.632 259.556 752.574 259.498 752.545 259.469C752.457 259.382 752.37 259.295 752.253 259.208C752.166 259.092 752.049 259.005 751.962 258.889C751.933 258.86 751.904 258.831 751.875 258.773C751.7 258.541 751.496 258.338 751.263 258.164C751.205 258.106 751.147 258.048 751.117 258.019C751.03 257.932 750.943 257.845 750.826 257.758C750.739 257.642 750.622 257.555 750.535 257.439C750.506 257.41 750.477 257.381 750.448 257.323C750.273 257.091 750.069 256.888 749.836 256.714C749.778 256.656 749.719 256.598 749.69 256.569C749.603 256.482 749.515 256.395 749.399 256.308C749.312 256.192 749.195 256.105 749.108 255.989C749.079 255.96 749.05 255.931 749.02 255.873C748.846 255.641 748.642 255.438 748.409 255.264C748.35 255.206 748.292 255.148 748.263 255.119C748.176 255.032 748.088 254.945 747.972 254.858C747.884 254.742 747.768 254.655 747.681 254.539C747.651 254.51 747.622 254.481 747.593 254.423C747.418 254.191 747.215 253.988 746.982 253.814C746.923 253.756 746.865 253.698 746.836 253.669C746.749 253.582 746.661 253.495 746.545 253.408C746.457 253.292 746.341 253.205 746.253 253.089C746.224 253.06 746.195 253.032 746.166 252.974C745.991 252.742 745.787 252.539 745.554 252.365C745.496 252.307 745.438 252.249 745.409 252.22C745.321 252.133 745.234 252.046 745.117 251.959C745.03 251.843 744.914 251.756 744.826 251.64C744.797 251.611 744.768 251.582 744.739 251.524C744.564 251.292 744.36 251.089 744.127 250.915C744.069 250.857 744.011 250.799 743.982 250.77C743.894 250.683 743.807 250.596 743.69 250.509C743.603 250.393 743.486 250.306 743.399 250.19C743.37 250.161 743.341 250.132 743.312 250.074C743.137 249.842 742.933 249.639 742.7 249.465C742.642 249.407 742.583 249.349 742.554 249.32C742.467 249.233 742.38 249.146 742.263 249.059C742.176 248.943 742.059 248.856 741.972 248.74C741.943 248.711 741.914 248.682 741.884 248.624C741.71 248.392 741.506 248.189 741.273 248.015C741.215 247.957 741.156 247.899 741.127 247.87C741.04 247.783 740.952 247.696 740.836 247.609C740.748 247.493 740.632 247.406 740.545 247.29C740.515 247.261 740.486 247.232 740.457 247.174C740.282 246.942 740.079 246.739 739.846 246.565C739.787 246.507 739.729 246.449 739.7 246.42C739.613 246.333 739.525 246.246 739.409 246.159C739.321 246.043 739.205 245.956 739.117 245.84C739.088 245.811 739.059 245.782 739.03 245.724C738.855 245.492 738.651 245.289 738.418 245.115C738.36 245.057 738.302 244.999 738.273 244.97C738.185 244.883 738.098 244.796 737.981 244.709C737.894 244.593 737.778 244.506 737.69 244.39C737.661 244.361 737.632 244.332 737.603 244.274C737.428 244.042 737.224 243.839 736.991 243.665C736.933 243.607 736.875 243.549 736.846 243.52C736.758 243.433 736.671 243.346 736.554 243.259C736.467 243.143 736.35 243.056 736.263 242.94C736.234 242.911 736.205 242.882 736.176 242.825C735.156 241.578 733.496 240.969 731.865 241.317L601.437 269.038C600.272 269.27 599.282 269.966 598.641 270.981L558.884 333.673L567.796 310.939C568.379 309.46 568.088 307.749 567.039 306.531C566.923 306.386 566.777 306.241 566.661 306.125C566.573 306.038 566.486 305.951 566.398 305.864C566.282 305.748 566.195 305.632 566.078 305.545C566.049 305.516 565.991 305.458 565.962 305.429C565.962 305.429 565.962 305.4 565.932 305.371C565.758 305.168 565.583 304.994 565.379 304.82C565.321 304.762 565.263 304.704 565.233 304.675C565.146 304.588 565.059 304.501 564.971 304.414C564.855 304.298 564.767 304.183 564.651 304.096C564.622 304.067 564.563 304.009 564.534 303.98C564.534 303.98 564.534 303.951 564.505 303.922C564.331 303.719 564.156 303.545 563.952 303.371C563.894 303.313 563.835 303.255 563.806 303.226C563.719 303.139 563.631 303.052 563.544 302.965C563.428 302.849 563.34 302.733 563.224 302.646C563.195 302.617 563.136 302.559 563.107 302.53C563.107 302.53 563.107 302.501 563.078 302.472C562.903 302.269 562.729 302.095 562.525 301.921C562.466 301.863 562.408 301.805 562.379 301.776C562.292 301.689 562.204 301.602 562.117 301.515C562 301.399 561.913 301.283 561.796 301.196C561.767 301.167 561.709 301.109 561.68 301.08C561.68 301.08 561.68 301.051 561.651 301.022C561.476 300.819 561.301 300.645 561.097 300.471C561.039 300.413 560.981 300.355 560.952 300.326C560.864 300.239 560.777 300.152 560.69 300.065C560.573 299.949 560.486 299.833 560.369 299.746C560.34 299.717 560.282 299.659 560.253 299.63C560.253 299.63 560.253 299.601 560.224 299.572C560.049 299.369 559.874 299.195 559.67 299.021C559.612 298.963 559.554 298.905 559.525 298.876C559.437 298.789 559.35 298.702 559.263 298.615C559.146 298.499 559.059 298.383 558.942 298.296C558.913 298.267 558.855 298.209 558.826 298.18C558.826 298.18 558.826 298.151 558.796 298.122C558.622 297.919 558.447 297.745 558.243 297.571C558.185 297.513 558.127 297.455 558.097 297.426C558.01 297.339 557.923 297.252 557.835 297.165C557.719 297.049 557.631 296.933 557.515 296.846C557.486 296.817 557.428 296.759 557.398 296.73C557.398 296.73 557.398 296.701 557.369 296.672C557.195 296.469 557.02 296.295 556.816 296.121C556.758 296.063 556.699 296.005 556.67 295.976C556.583 295.889 556.496 295.802 556.408 295.715C556.292 295.599 556.204 295.483 556.088 295.396C556.059 295.367 556 295.309 555.971 295.28C555.971 295.28 555.971 295.251 555.942 295.222C555.767 295.019 555.593 294.845 555.389 294.671C555.33 294.613 555.272 294.555 555.243 294.526C555.156 294.439 555.068 294.352 554.981 294.265C554.864 294.149 554.777 294.033 554.661 293.947C554.631 293.918 554.573 293.86 554.544 293.831C554.544 293.831 554.544 293.802 554.515 293.773C554.34 293.57 554.165 293.396 553.962 293.222C553.903 293.164 553.845 293.106 553.816 293.077C553.729 292.99 553.641 292.903 553.554 292.816C553.437 292.7 553.35 292.584 553.233 292.497C553.204 292.468 553.146 292.41 553.117 292.381C553.117 292.381 553.117 292.352 553.088 292.323C552.913 292.12 552.738 291.946 552.534 291.772C552.476 291.714 552.418 291.656 552.389 291.627C552.301 291.54 552.214 291.453 552.127 291.366C552.01 291.25 551.923 291.134 551.806 291.047C551.777 291.018 551.719 290.96 551.69 290.931C551.69 290.931 551.69 290.902 551.661 290.873C551.486 290.67 551.311 290.496 551.107 290.322C551.049 290.264 550.991 290.206 550.962 290.177C550.874 290.09 550.787 290.003 550.699 289.916C550.583 289.8 550.495 289.684 550.379 289.597C550.35 289.568 550.292 289.51 550.263 289.481C550.263 289.481 550.262 289.452 550.233 289.423C550.059 289.22 549.884 289.046 549.68 288.872C549.622 288.814 549.563 288.756 549.534 288.727C549.447 288.64 549.36 288.553 549.272 288.466C549.156 288.35 549.068 288.234 548.952 288.147C548.923 288.118 548.864 288.06 548.835 288.031C548.835 288.031 548.835 288.002 548.806 287.973C548.631 287.77 548.457 287.596 548.253 287.422C548.195 287.364 548.136 287.306 548.107 287.277C548.02 287.19 547.932 287.103 547.845 287.016C547.729 286.9 547.641 286.784 547.525 286.697C547.495 286.668 547.437 286.61 547.408 286.581C547.408 286.581 547.408 286.552 547.379 286.523C547.204 286.32 547.029 286.146 546.826 285.972C546.767 285.914 546.709 285.856 546.68 285.827C546.593 285.74 546.505 285.653 546.418 285.566C546.301 285.45 546.214 285.334 546.097 285.247C546.068 285.218 546.01 285.16 545.981 285.131C545.981 285.131 545.981 285.102 545.952 285.073C545.777 284.87 545.602 284.696 545.398 284.522C545.34 284.464 545.282 284.406 545.253 284.377C545.165 284.29 545.078 284.203 544.991 284.116C544.874 284 544.787 283.884 544.67 283.797C544.641 283.768 544.583 283.71 544.554 283.682C544.554 283.682 544.525 283.653 544.495 283.624C543.447 282.406 541.816 281.855 540.243 282.203L427.408 306.995C425.981 307.314 424.786 308.329 424.262 309.692L211.757 859.768C211.174 861.247 211.465 862.929 212.514 864.147C212.572 864.234 212.66 864.292 212.718 864.379L212.776 864.437C212.776 864.437 213.009 864.698 213.155 864.814C213.242 864.93 213.359 865.017 213.475 865.133C213.563 865.22 213.65 865.307 213.766 865.394C213.912 865.539 214.058 865.713 214.232 865.829C214.232 865.829 214.232 865.829 214.262 865.858C214.378 866.003 214.495 866.119 214.64 866.235C214.728 866.351 214.844 866.438 214.961 866.554C215.048 866.641 215.135 866.728 215.252 866.815C215.397 866.96 215.543 867.134 215.718 867.25C215.718 867.25 215.718 867.25 215.747 867.279C215.863 867.424 215.98 867.54 216.126 867.656C216.213 867.772 216.329 867.859 216.446 867.975C216.533 868.062 216.621 868.149 216.737 868.235C216.883 868.38 217.029 868.554 217.203 868.67C217.203 868.67 217.203 868.67 217.232 868.699C217.349 868.844 217.465 868.96 217.611 869.076C217.698 869.192 217.815 869.279 217.931 869.395C218.019 869.482 218.106 869.569 218.223 869.656C218.368 869.801 218.514 869.975 218.689 870.091C218.689 870.091 218.689 870.091 218.718 870.12C218.834 870.265 218.951 870.381 219.097 870.497C219.184 870.613 219.3 870.7 219.417 870.816C219.504 870.903 219.592 870.99 219.708 871.077C219.854 871.222 219.999 871.396 220.174 871.512C220.174 871.512 220.174 871.512 220.203 871.541C220.32 871.686 220.436 871.802 220.582 871.918C220.669 872.034 220.786 872.121 220.902 872.237C220.99 872.324 221.077 872.411 221.194 872.498C221.339 872.643 221.485 872.817 221.66 872.933C221.66 872.933 221.66 872.933 221.689 872.962C221.805 873.107 221.922 873.223 222.067 873.339C222.155 873.455 222.271 873.542 222.388 873.658C222.475 873.745 222.563 873.832 222.679 873.919C222.825 874.064 222.97 874.238 223.145 874.354C223.145 874.354 223.145 874.354 223.174 874.383C223.291 874.528 223.407 874.644 223.553 874.76C223.64 874.876 223.757 874.963 223.873 875.079C223.961 875.166 224.048 875.253 224.164 875.34C224.31 875.485 224.456 875.659 224.631 875.775C224.631 875.775 224.63 875.775 224.66 875.804C224.776 875.949 224.893 876.065 225.038 876.181C225.126 876.297 225.242 876.384 225.359 876.5C225.446 876.587 225.533 876.674 225.65 876.761C225.796 876.906 225.941 877.08 226.116 877.196C226.116 877.196 226.116 877.196 226.145 877.225C226.262 877.37 226.378 877.486 226.524 877.602C226.611 877.718 226.728 877.805 226.844 877.921C226.931 878.008 227.019 878.095 227.135 878.182C227.281 878.326 227.427 878.5 227.601 878.616C227.601 878.616 227.601 878.616 227.631 878.645C227.747 878.79 227.864 878.906 228.009 879.022C228.097 879.138 228.213 879.225 228.33 879.341C228.417 879.428 228.504 879.515 228.621 879.602C228.766 879.747 228.912 879.921 229.087 880.037C229.087 880.037 229.087 880.037 229.116 880.066C229.232 880.211 229.349 880.327 229.495 880.443C229.582 880.559 229.698 880.646 229.815 880.762C229.902 880.849 229.99 880.936 230.106 881.023C230.252 881.168 230.398 881.342 230.572 881.458C230.572 881.458 230.572 881.458 230.601 881.487C230.718 881.632 230.834 881.748 230.98 881.864C231.067 881.98 231.184 882.067 231.3 882.183C231.388 882.27 231.475 882.357 231.592 882.444C231.737 882.589 231.883 882.763 232.058 882.879C232.058 882.879 232.058 882.879 232.087 882.908C232.203 883.053 232.32 883.169 232.465 883.285C232.553 883.401 232.669 883.488 232.786 883.604C232.873 883.691 232.961 883.778 233.077 883.865C233.223 884.01 233.368 884.184 233.543 884.3C233.543 884.3 233.543 884.3 233.572 884.329C233.689 884.474 233.805 884.59 233.951 884.706C234.038 884.822 234.155 884.909 234.271 885.025C234.359 885.112 234.446 885.199 234.563 885.286C234.708 885.431 234.854 885.605 235.029 885.721C235.029 885.721 235.029 885.721 235.058 885.75C235.174 885.895 235.291 886.011 235.436 886.127C235.524 886.243 235.64 886.33 235.757 886.446C235.844 886.533 235.932 886.62 236.048 886.707C236.893 887.635 238.058 888.128 239.281 888.128C239.572 888.128 239.864 888.099 240.184 888.041L353.019 864.698C354.476 864.408 355.67 863.364 356.223 862.001L439 645.769L468.476 807.66C468.621 808.501 469.088 809.255 469.67 809.864H468.388Z" fill="#262626"/>
<path d="M1329.75 116.732C1328.74 115.486 1327.08 114.877 1325.45 115.225L1195.34 142.946C1194.17 143.178 1193.19 143.874 1192.55 144.889L1152.88 207.581L1161.77 184.847C1162.36 183.368 1162.07 181.657 1161.02 180.439C1160.9 180.294 1160.76 180.149 1160.64 180.033C1160.55 179.946 1160.47 179.859 1160.38 179.772C1160.26 179.656 1160.18 179.54 1160.06 179.453C1160.03 179.424 1159.97 179.366 1159.94 179.337C1159.94 179.337 1159.94 179.308 1159.92 179.279C1159.74 179.076 1159.57 178.902 1159.36 178.728C1159.3 178.67 1159.25 178.612 1159.22 178.583C1159.13 178.496 1159.04 178.409 1158.96 178.322C1158.84 178.206 1158.75 178.09 1158.64 178.003C1158.61 177.974 1158.55 177.916 1158.52 177.887C1158.52 177.887 1158.52 177.858 1158.49 177.829C1158.32 177.627 1158.14 177.453 1157.94 177.279C1157.88 177.221 1157.82 177.163 1157.79 177.134C1157.71 177.047 1157.62 176.96 1157.53 176.873C1157.42 176.757 1157.33 176.641 1157.21 176.554C1157.18 176.525 1157.13 176.467 1157.1 176.438C1157.1 176.438 1157.1 176.409 1157.07 176.38C1156.89 176.177 1156.72 176.003 1156.52 175.829C1156.46 175.771 1156.4 175.713 1156.37 175.684C1156.28 175.597 1156.2 175.51 1156.11 175.423C1155.99 175.307 1155.91 175.191 1155.79 175.104C1155.76 175.075 1155.7 175.017 1155.67 174.988C1155.67 174.988 1155.67 174.959 1155.64 174.93C1155.47 174.727 1155.3 174.553 1155.09 174.379C1155.03 174.321 1154.98 174.263 1154.95 174.234C1154.86 174.147 1154.77 174.06 1154.68 173.973C1154.57 173.857 1154.48 173.741 1154.37 173.654C1154.34 173.625 1154.28 173.567 1154.25 173.538C1154.25 173.538 1154.25 173.509 1154.22 173.48C1154.05 173.277 1153.87 173.103 1153.67 172.929C1153.61 172.871 1153.55 172.813 1153.52 172.784C1153.44 172.697 1153.35 172.61 1153.26 172.523C1153.14 172.407 1153.06 172.291 1152.94 172.204C1152.91 172.175 1152.85 172.117 1152.83 172.088C1152.83 172.088 1152.83 172.059 1152.8 172.03C1152.62 171.827 1152.45 171.653 1152.24 171.479C1152.19 171.421 1152.13 171.363 1152.1 171.334C1152.01 171.247 1151.92 171.16 1151.84 171.073C1151.72 170.957 1151.63 170.841 1151.52 170.754C1151.49 170.725 1151.43 170.667 1151.4 170.638C1151.4 170.638 1151.4 170.609 1151.37 170.58C1151.2 170.377 1151.02 170.203 1150.82 170.029C1150.76 169.971 1150.7 169.913 1150.68 169.884C1150.59 169.797 1150.5 169.71 1150.41 169.623C1150.3 169.507 1150.21 169.391 1150.09 169.304C1150.06 169.275 1150.01 169.217 1149.98 169.188C1149.98 169.188 1149.98 169.159 1149.95 169.13C1149.77 168.927 1149.6 168.753 1149.4 168.579C1149.34 168.521 1149.28 168.463 1149.25 168.434C1149.16 168.347 1149.08 168.26 1148.99 168.173C1148.87 168.057 1148.79 167.941 1148.67 167.854C1148.64 167.825 1148.58 167.767 1148.55 167.738C1148.55 167.738 1148.55 167.709 1148.52 167.68C1148.35 167.477 1148.18 167.304 1147.97 167.13C1147.91 167.072 1147.86 167.014 1147.83 166.985C1147.74 166.898 1147.65 166.811 1147.57 166.724C1147.45 166.608 1147.36 166.492 1147.25 166.405C1147.22 166.376 1147.16 166.318 1147.13 166.289C1147.13 166.289 1147.13 166.26 1147.1 166.231C1146.93 166.028 1146.75 165.854 1146.55 165.68C1146.49 165.622 1146.43 165.564 1146.4 165.535C1146.32 165.448 1146.23 165.361 1146.14 165.274C1146.03 165.158 1145.94 165.042 1145.82 164.955C1145.79 164.926 1145.74 164.868 1145.71 164.839C1145.71 164.839 1145.71 164.81 1145.68 164.781C1145.5 164.578 1145.33 164.404 1145.13 164.23C1145.07 164.172 1145.01 164.114 1144.98 164.085C1144.89 163.998 1144.81 163.911 1144.72 163.824C1144.6 163.708 1144.51 163.592 1144.4 163.505C1144.37 163.476 1144.31 163.418 1144.28 163.389C1144.28 163.389 1144.28 163.36 1144.25 163.331C1144.08 163.128 1143.9 162.954 1143.7 162.78C1143.64 162.722 1143.59 162.664 1143.56 162.635C1143.47 162.548 1143.38 162.461 1143.29 162.374C1143.18 162.258 1143.09 162.142 1142.97 162.055C1142.95 162.026 1142.89 161.968 1142.86 161.939C1142.86 161.939 1142.86 161.91 1142.83 161.881C1142.66 161.678 1142.48 161.504 1142.28 161.33C1142.22 161.272 1142.16 161.214 1142.13 161.185C1142.05 161.098 1141.96 161.011 1141.87 160.924C1141.75 160.808 1141.67 160.692 1141.55 160.605C1141.52 160.576 1141.46 160.518 1141.43 160.489C1141.43 160.489 1141.43 160.46 1141.41 160.431C1141.23 160.228 1141.06 160.054 1140.85 159.88C1140.8 159.822 1140.74 159.764 1140.71 159.735C1140.62 159.648 1140.53 159.561 1140.45 159.474C1140.33 159.358 1140.24 159.242 1140.13 159.155C1140.1 159.126 1140.04 159.068 1140.01 159.039C1140.01 159.039 1140.01 159.01 1139.98 158.981C1139.81 158.778 1139.63 158.604 1139.43 158.43C1139.37 158.372 1139.31 158.314 1139.28 158.285C1139.2 158.198 1139.11 158.111 1139.02 158.024C1138.91 157.908 1138.82 157.792 1138.7 157.705C1138.67 157.676 1138.62 157.618 1138.59 157.589C1138.59 157.589 1138.56 157.56 1138.53 157.531C1137.48 156.314 1135.86 155.763 1134.29 156.111L1021.72 180.903C1020.3 181.222 1019.11 182.237 1018.58 183.6L806.584 733.676C806.003 735.155 806.293 736.837 807.34 738.055C807.398 738.142 807.485 738.2 807.543 738.287L807.601 738.345C807.601 738.345 807.833 738.606 807.979 738.722C808.066 738.838 808.182 738.925 808.298 739.041C808.386 739.128 808.473 739.215 808.589 739.302C808.734 739.447 808.88 739.621 809.054 739.737C809.054 739.737 809.054 739.737 809.083 739.766C809.199 739.911 809.315 740.027 809.461 740.143C809.548 740.259 809.664 740.346 809.78 740.462C809.868 740.549 809.955 740.636 810.071 740.723C810.216 740.868 810.361 741.042 810.536 741.158C810.536 741.158 810.536 741.158 810.565 741.186C810.681 741.331 810.797 741.447 810.943 741.563C811.03 741.679 811.146 741.766 811.262 741.882C811.349 741.969 811.437 742.056 811.553 742.143C811.698 742.288 811.843 742.462 812.018 742.578C812.018 742.578 812.018 742.578 812.047 742.607C812.163 742.752 812.279 742.868 812.424 742.984C812.512 743.1 812.628 743.187 812.744 743.303C812.831 743.39 812.918 743.477 813.035 743.564C813.18 743.709 813.325 743.883 813.5 743.999C813.5 743.999 813.5 743.999 813.529 744.028C813.645 744.173 813.761 744.289 813.906 744.405C813.994 744.521 814.11 744.608 814.226 744.724C814.313 744.811 814.4 744.898 814.517 744.985C814.662 745.13 814.807 745.304 814.981 745.42C814.981 745.42 814.982 745.42 815.011 745.449C815.127 745.594 815.243 745.71 815.388 745.826C815.475 745.942 815.592 746.029 815.708 746.145C815.795 746.232 815.882 746.319 815.998 746.406C816.144 746.551 816.289 746.725 816.463 746.841C816.463 746.841 816.463 746.841 816.492 746.87C816.609 747.015 816.725 747.131 816.87 747.247C816.957 747.363 817.074 747.45 817.19 747.566C817.277 747.653 817.364 747.74 817.48 747.827C817.626 747.972 817.771 748.146 817.945 748.262C817.945 748.262 817.945 748.262 817.974 748.291C818.091 748.436 818.207 748.552 818.352 748.668C818.439 748.784 818.556 748.871 818.672 748.987C818.759 749.074 818.846 749.161 818.962 749.248C819.108 749.393 819.253 749.567 819.427 749.683C819.427 749.683 819.427 749.683 819.456 749.712C819.572 749.857 819.689 749.973 819.834 750.089C819.921 750.205 820.037 750.292 820.154 750.408C820.241 750.495 820.328 750.582 820.444 750.669C820.589 750.814 820.735 750.988 820.909 751.104C820.909 751.104 820.909 751.104 820.938 751.133C821.054 751.277 821.171 751.393 821.316 751.509C821.403 751.625 821.519 751.713 821.636 751.828C821.723 751.915 821.81 752.002 821.926 752.089C822.071 752.234 822.217 752.408 822.391 752.524C822.391 752.524 822.391 752.524 822.42 752.553C822.536 752.698 822.652 752.814 822.798 752.93C822.885 753.046 823.001 753.133 823.117 753.249C823.205 753.336 823.292 753.423 823.408 753.51C823.553 753.655 823.699 753.829 823.873 753.945C823.873 753.945 823.873 753.945 823.902 753.974C824.018 754.119 824.134 754.235 824.28 754.351C824.367 754.467 824.483 754.554 824.599 754.67C824.686 754.757 824.774 754.844 824.89 754.931C825.035 755.076 825.18 755.25 825.355 755.366C825.355 755.366 825.355 755.366 825.384 755.395C825.5 755.54 825.616 755.656 825.762 755.772C825.849 755.888 825.965 755.975 826.081 756.091C826.168 756.178 826.256 756.265 826.372 756.352C826.517 756.497 826.662 756.671 826.837 756.787C826.837 756.787 826.837 756.787 826.866 756.816C826.982 756.961 827.098 757.077 827.243 757.193C827.331 757.309 827.447 757.396 827.563 757.512C827.65 757.599 827.737 757.686 827.854 757.773C827.999 757.918 828.144 758.092 828.319 758.208C828.319 758.208 828.319 758.208 828.348 758.237C828.464 758.382 828.58 758.498 828.725 758.614C828.813 758.73 828.929 758.817 829.045 758.933C829.132 759.02 829.219 759.107 829.336 759.194C829.481 759.339 829.626 759.513 829.8 759.629C829.8 759.629 829.801 759.629 829.83 759.658C829.946 759.803 830.062 759.919 830.207 760.035C830.294 760.151 830.411 760.238 830.527 760.354C830.614 760.441 830.701 760.528 830.817 760.615C831.66 761.543 832.822 762.035 834.043 762.035C834.333 762.035 834.624 762.006 834.944 761.948L947.51 738.606C948.963 738.316 950.154 737.272 950.706 735.909L1033.29 519.677L1062.69 681.568C1062.84 682.409 1063.3 683.163 1063.88 683.772C1064 683.917 1064.14 684.062 1064.29 684.207C1064.38 684.294 1064.49 684.41 1064.58 684.497C1064.7 684.613 1064.81 684.729 1064.93 684.845C1065.02 684.932 1065.1 685.019 1065.19 685.106C1065.25 685.164 1065.28 685.193 1065.34 685.251C1065.45 685.396 1065.6 685.541 1065.74 685.686C1065.83 685.773 1065.95 685.889 1066.03 685.976C1066.15 686.092 1066.26 686.208 1066.38 686.324C1066.47 686.411 1066.56 686.498 1066.64 686.585C1066.7 686.643 1066.73 686.672 1066.79 686.73C1066.9 686.875 1067.05 687.02 1067.19 687.165C1067.28 687.252 1067.4 687.368 1067.49 687.455C1067.6 687.571 1067.72 687.687 1067.83 687.803C1067.92 687.89 1068.01 687.977 1068.1 688.064C1068.15 688.122 1068.18 688.151 1068.24 688.209C1068.36 688.354 1068.5 688.499 1068.65 688.644C1068.73 688.731 1068.85 688.847 1068.94 688.934C1069.05 689.05 1069.17 689.166 1069.29 689.282C1069.37 689.369 1069.46 689.456 1069.55 689.543C1069.61 689.601 1069.64 689.63 1069.69 689.688C1069.81 689.833 1069.96 689.978 1070.1 690.123C1070.19 690.21 1070.3 690.325 1070.39 690.412C1070.51 690.528 1070.62 690.644 1070.74 690.76C1070.83 690.847 1070.91 690.934 1071 691.021C1071.06 691.079 1071.09 691.108 1071.15 691.166C1071.26 691.311 1071.41 691.456 1071.55 691.601C1071.64 691.688 1071.76 691.804 1071.84 691.891C1071.96 692.007 1072.08 692.123 1072.19 692.239C1072.28 692.326 1072.37 692.413 1072.45 692.5C1072.51 692.558 1072.54 692.587 1072.6 692.645C1072.72 692.79 1072.86 692.935 1073.01 693.08C1073.09 693.167 1073.21 693.283 1073.3 693.37C1073.41 693.486 1073.53 693.602 1073.65 693.718C1073.73 693.805 1073.82 693.892 1073.91 693.979C1073.97 694.037 1073.99 694.066 1074.05 694.124C1074.17 694.269 1074.31 694.414 1074.46 694.559C1074.55 694.646 1074.66 694.762 1074.75 694.849C1074.87 694.965 1074.98 695.081 1075.1 695.197C1075.19 695.284 1075.27 695.371 1075.36 695.458C1075.42 695.516 1075.45 695.545 1075.51 695.603C1075.62 695.748 1075.77 695.893 1075.91 696.038C1076 696.125 1076.12 696.241 1076.2 696.328C1076.32 696.444 1076.43 696.56 1076.55 696.676C1076.64 696.763 1076.73 696.85 1076.81 696.937C1076.87 696.995 1076.9 697.024 1076.96 697.082C1077.07 697.227 1077.22 697.372 1077.36 697.517C1077.45 697.604 1077.57 697.72 1077.66 697.807C1077.77 697.923 1077.89 698.039 1078 698.155C1078.09 698.242 1078.18 698.329 1078.27 698.416C1078.32 698.474 1078.35 698.503 1078.41 698.561C1078.53 698.706 1078.67 698.851 1078.82 698.996C1078.9 699.083 1079.02 699.199 1079.11 699.286C1079.22 699.402 1079.34 699.518 1079.46 699.634C1079.54 699.721 1079.63 699.808 1079.72 699.895C1079.78 699.953 1079.81 699.982 1079.86 700.04C1079.98 700.185 1080.13 700.33 1080.27 700.474C1080.36 700.561 1080.47 700.677 1080.56 700.764C1080.68 700.88 1080.79 700.996 1080.91 701.112C1081 701.199 1081.08 701.286 1081.17 701.373C1081.23 701.431 1081.26 701.46 1081.32 701.518C1081.43 701.663 1081.58 701.808 1081.72 701.953C1081.81 702.04 1081.93 702.156 1082.01 702.243C1082.13 702.359 1082.25 702.475 1082.36 702.591C1082.45 702.678 1082.54 702.765 1082.62 702.852C1082.68 702.91 1082.71 702.939 1082.77 702.997C1082.89 703.142 1083.03 703.287 1083.18 703.432C1083.26 703.519 1083.38 703.635 1083.47 703.722C1083.58 703.838 1083.7 703.954 1083.82 704.07C1083.9 704.157 1083.99 704.244 1084.08 704.331C1084.13 704.389 1084.16 704.418 1084.22 704.476C1084.34 704.621 1084.48 704.766 1084.63 704.911C1084.72 704.998 1084.83 705.114 1084.92 705.201C1085.04 705.317 1085.15 705.433 1085.27 705.549C1085.36 705.636 1085.44 705.723 1085.53 705.81C1085.59 705.868 1085.62 705.897 1085.67 705.955C1085.79 706.1 1085.94 706.245 1086.08 706.39C1086.14 706.448 1086.2 706.506 1086.29 706.593C1086.6 707.057 1087.01 707.463 1087.48 707.782C1088.46 708.449 1089.66 708.652 1090.82 708.42L1206.35 683.598C1207.51 683.337 1208.53 682.641 1209.14 681.597C1209.75 680.582 1209.92 679.365 1209.63 678.205L1147.28 446.72L1353.75 144.889C1354.77 143.41 1354.77 141.496 1353.75 140.017L1329.75 116.732ZM1114.85 420.217C1114.12 421.261 1113.92 422.566 1114.24 423.812L1175.93 652.832L1069.29 675.74L1027.71 446.72C1027.36 444.806 1025.76 443.357 1023.81 443.154C1021.87 442.951 1020.04 444.111 1019.34 445.937L919.295 707.811L816.899 729.037L1025.18 188.587L1127.49 166.057L1044.21 378.751C1043.4 380.839 1044.3 383.216 1046.3 384.202C1048.31 385.217 1050.75 384.55 1051.94 382.636L1198.62 150.746L1316.3 125.664L1114.82 420.188L1114.85 420.217Z" fill="#262626"/>
<path d="M509.125 885.28L311.276 1402.18L206.645 1423.88L285.779 1217.12C286.359 1215.64 286.069 1213.96 285.023 1212.74C283.978 1211.52 282.381 1210.97 280.813 1211.29L201.795 1227.67C200.343 1227.96 199.152 1228.97 198.63 1230.36L116.011 1443.82L11.351 1465.55L222.297 914.462L326.957 892.727L238.85 1124.79C238.298 1126.27 238.589 1127.95 239.605 1129.14C240.65 1130.35 242.248 1130.9 243.816 1130.59L322.804 1114.21C324.256 1113.92 325.447 1112.88 325.999 1111.52L417.591 872.79L482.089 859.431L487.577 849.752L413.787 865.053C412.335 865.342 411.144 866.386 410.592 867.748L319 1106.48L284.443 1113.63L361.166 911.564C361.718 910.086 361.428 908.405 360.411 907.188C360.295 907.043 360.15 906.927 360.034 906.782C359.947 906.695 359.859 906.608 359.772 906.521C359.685 906.405 359.569 906.319 359.482 906.203C359.395 906.116 359.308 906.029 359.221 905.942C359.133 905.826 359.017 905.739 358.901 905.623C358.814 905.507 358.698 905.42 358.611 905.333C358.524 905.246 358.437 905.159 358.349 905.072C358.262 904.956 358.146 904.87 358.059 904.754C357.972 904.667 357.885 904.58 357.798 904.493C357.71 904.377 357.594 904.29 357.478 904.174C357.391 904.058 357.275 903.971 357.188 903.884C357.101 903.797 357.014 903.71 356.926 903.623C356.839 903.508 356.723 903.421 356.636 903.305C356.549 903.218 356.462 903.131 356.375 903.044C356.288 902.928 356.171 902.841 356.055 902.725C355.968 902.609 355.852 902.522 355.765 902.435C355.678 902.348 355.591 902.261 355.503 902.175C355.416 902.059 355.3 901.972 355.213 901.856C355.126 901.769 355.039 901.682 354.952 901.595C354.865 901.479 354.748 901.392 354.632 901.276C354.545 901.16 354.429 901.073 354.342 900.986C354.255 900.899 354.168 900.813 354.081 900.726C353.993 900.61 353.877 900.523 353.79 900.407C353.703 900.32 353.616 900.233 353.529 900.146C353.442 900.03 353.325 899.943 353.209 899.827C353.122 899.711 353.006 899.624 352.919 899.537C352.832 899.45 352.745 899.364 352.658 899.277C352.57 899.161 352.454 899.074 352.367 898.958C352.28 898.871 352.193 898.784 352.106 898.697C352.019 898.581 351.903 898.494 351.786 898.378C351.699 898.262 351.583 898.175 351.496 898.088C351.409 898.002 351.322 897.915 351.235 897.828C351.147 897.712 351.031 897.625 350.944 897.509C350.857 897.422 350.77 897.335 350.683 897.248C350.596 897.132 350.48 897.045 350.363 896.929C350.276 896.813 350.16 896.726 350.073 896.64C349.986 896.553 349.899 896.466 349.812 896.379C349.725 896.263 349.608 896.176 349.521 896.06C349.434 895.973 349.347 895.886 349.26 895.799C349.173 895.683 349.057 895.596 348.94 895.48C348.853 895.364 348.737 895.278 348.65 895.191C348.563 895.104 348.476 895.017 348.389 894.93C348.302 894.814 348.185 894.727 348.098 894.611C348.011 894.524 347.924 894.437 347.837 894.35C347.75 894.234 347.634 894.147 347.517 894.031C347.43 893.916 347.314 893.829 347.227 893.742C347.14 893.655 347.053 893.568 346.966 893.481C346.879 893.365 346.762 893.278 346.675 893.162C346.588 893.075 346.501 892.988 346.414 892.901C346.327 892.785 346.211 892.698 346.095 892.583C346.007 892.467 345.891 892.38 345.804 892.293C345.717 892.206 345.63 892.119 345.543 892.032C345.456 891.916 345.339 891.829 345.252 891.713C345.165 891.626 345.078 891.539 344.991 891.452C344.904 891.336 344.788 891.249 344.672 891.134C344.584 891.018 344.468 890.931 344.381 890.844C344.294 890.757 344.207 890.67 344.12 890.583C344.033 890.467 343.917 890.38 343.829 890.264C343.742 890.177 343.655 890.09 343.568 890.003C343.481 889.888 343.365 889.801 343.249 889.685C343.161 889.569 343.045 889.482 342.958 889.395C342.871 889.308 342.784 889.221 342.697 889.134C342.61 889.018 342.494 888.931 342.406 888.815C342.319 888.728 342.232 888.641 342.145 888.554C342.058 888.439 341.942 888.352 341.826 888.236C341.739 888.12 341.622 888.033 341.535 887.946C341.448 887.859 341.361 887.772 341.274 887.685C341.187 887.569 341.071 887.482 340.983 887.366C340.896 887.279 340.809 887.192 340.722 887.106C340.635 886.99 340.519 886.903 340.403 886.787C340.316 886.671 340.199 886.584 340.112 886.497C340.025 886.41 339.938 886.323 339.851 886.236C339.764 886.12 339.648 886.033 339.561 885.917C339.473 885.83 339.386 885.744 339.299 885.657C339.212 885.541 339.096 885.454 338.98 885.338C338.893 885.222 338.776 885.135 338.689 885.048C338.602 884.961 338.515 884.874 338.428 884.787C338.341 884.671 338.225 884.584 338.138 884.468C338.05 884.382 337.963 884.295 337.876 884.208C336.831 883.049 335.263 882.556 333.753 882.875L218.987 906.695C217.535 906.985 216.344 908.028 215.792 909.39L0.693289 1470.16C0.11249 1471.64 0.40289 1473.32 1.44833 1474.54C1.56449 1474.68 1.70969 1474.83 1.82585 1474.94C1.91297 1475.06 2.02913 1475.15 2.11625 1475.23C2.20337 1475.32 2.29049 1475.41 2.37761 1475.49C2.49377 1475.61 2.60993 1475.72 2.72609 1475.84C2.81321 1475.93 2.90033 1476.01 2.98745 1476.1C3.07457 1476.22 3.19073 1476.3 3.27785 1476.42C3.36497 1476.51 3.48113 1476.62 3.56824 1476.71C3.65536 1476.8 3.74248 1476.88 3.8296 1476.97C3.94576 1477.09 4.06192 1477.2 4.17808 1477.32C4.2652 1477.41 4.35232 1477.49 4.43944 1477.58C4.52656 1477.7 4.64272 1477.78 4.72984 1477.9C4.81696 1477.99 4.93312 1478.1 5.02024 1478.19C5.10736 1478.27 5.19448 1478.36 5.2816 1478.45C5.39776 1478.56 5.51392 1478.68 5.63008 1478.8C5.7172 1478.88 5.80432 1478.97 5.89144 1479.06C5.97856 1479.17 6.09472 1479.26 6.18184 1479.38C6.26896 1479.46 6.38512 1479.58 6.47224 1479.67C6.55936 1479.75 6.64648 1479.84 6.7336 1479.93C6.84976 1480.04 6.96592 1480.16 7.08208 1480.27C7.1692 1480.36 7.25632 1480.45 7.34344 1480.54C7.43056 1480.65 7.54672 1480.74 7.63384 1480.85C7.72096 1480.94 7.83712 1481.06 7.92424 1481.14C8.01136 1481.23 8.09848 1481.32 8.1856 1481.4C8.30176 1481.52 8.41792 1481.64 8.53408 1481.75C8.6212 1481.84 8.70832 1481.93 8.79544 1482.01C8.88256 1482.13 8.99872 1482.22 9.08584 1482.33C9.17296 1482.42 9.28912 1482.53 9.37624 1482.62C9.46336 1482.71 9.55048 1482.8 9.6376 1482.88C9.75376 1483 9.86992 1483.11 9.98608 1483.23C10.0732 1483.32 10.1603 1483.4 10.2474 1483.49C10.3346 1483.61 10.4507 1483.69 10.5378 1483.81C10.625 1483.9 10.7411 1484.01 10.8282 1484.1C10.9154 1484.19 11.0025 1484.27 11.0896 1484.36C11.2058 1484.48 11.3219 1484.59 11.4381 1484.71C11.5252 1484.8 11.6123 1484.88 11.6994 1484.97C11.7866 1485.08 11.9027 1485.17 11.9898 1485.29C12.077 1485.37 12.1931 1485.49 12.2802 1485.58C12.3674 1485.66 12.4545 1485.75 12.5416 1485.84C12.6577 1485.95 12.7739 1486.07 12.8901 1486.19C12.9772 1486.27 13.0643 1486.36 13.1514 1486.45C13.2385 1486.56 13.3547 1486.65 13.4418 1486.77C13.5289 1486.85 13.6451 1486.97 13.7322 1487.06C13.8193 1487.14 13.9065 1487.23 13.9936 1487.32C14.1097 1487.43 14.2259 1487.55 14.3421 1487.66C14.4292 1487.75 14.5163 1487.84 14.6034 1487.92C14.6905 1488.04 14.8067 1488.13 14.8938 1488.24C14.9809 1488.33 15.0971 1488.45 15.1842 1488.53C15.2713 1488.62 15.3585 1488.71 15.4456 1488.79C15.5617 1488.91 15.6779 1489.03 15.7941 1489.14C15.8812 1489.23 15.9683 1489.32 16.0554 1489.4C16.1425 1489.52 16.2587 1489.61 16.3458 1489.72C16.4329 1489.81 16.5491 1489.92 16.6362 1490.01C16.7233 1490.1 16.8105 1490.19 16.8976 1490.27C17.0137 1490.39 17.1299 1490.5 17.2461 1490.62C17.3332 1490.71 17.4203 1490.79 17.5074 1490.88C17.5945 1491 17.7107 1491.08 17.7978 1491.2C17.8849 1491.29 18.0011 1491.4 18.0882 1491.49C18.1753 1491.58 18.2625 1491.66 18.3496 1491.75C18.4657 1491.87 18.5819 1491.98 18.6981 1492.1C18.7852 1492.18 18.8723 1492.27 18.9594 1492.36C19.0465 1492.47 19.1627 1492.56 19.2498 1492.68C19.3369 1492.76 19.4531 1492.88 19.5402 1492.97C19.6273 1493.05 19.7145 1493.14 19.8016 1493.23C19.9177 1493.34 20.0339 1493.46 20.1501 1493.58C20.2372 1493.66 20.3243 1493.75 20.4114 1493.84C20.4985 1493.95 20.6147 1494.04 20.7018 1494.16C20.7889 1494.24 20.9051 1494.36 20.9922 1494.45C21.0793 1494.53 21.1665 1494.62 21.2536 1494.71C21.3697 1494.82 21.4859 1494.94 21.6021 1495.05C21.6892 1495.14 21.7763 1495.23 21.8634 1495.31C21.9505 1495.43 22.0667 1495.52 22.1538 1495.63C22.2409 1495.72 22.3571 1495.84 22.4442 1495.92C22.5313 1496.01 22.6185 1496.1 22.7056 1496.18C22.8217 1496.3 22.9379 1496.42 23.0541 1496.53C23.1412 1496.62 23.2283 1496.71 23.3154 1496.79C23.4025 1496.91 23.5187 1497 23.6058 1497.11C23.6929 1497.2 23.8091 1497.31 23.8962 1497.4C23.9833 1497.49 24.0705 1497.57 24.1576 1497.66C24.2737 1497.78 24.3899 1497.89 24.5061 1498.01C25.3482 1498.91 26.5098 1499.4 27.7004 1499.4C27.9908 1499.4 28.2812 1499.37 28.6007 1499.31L143.367 1475.49C144.819 1475.2 146.009 1474.19 146.532 1472.8L229.151 1259.34L263.621 1252.21L195.987 1428.95C195.406 1430.43 195.697 1432.11 196.742 1433.33C196.858 1433.47 196.974 1433.59 197.12 1433.71C197.207 1433.82 197.323 1433.91 197.439 1434.02C197.526 1434.11 197.613 1434.2 197.7 1434.28C197.817 1434.4 197.933 1434.52 198.049 1434.63C198.136 1434.72 198.223 1434.81 198.31 1434.89C198.397 1434.98 198.484 1435.07 198.572 1435.15C198.659 1435.27 198.775 1435.36 198.891 1435.47C198.978 1435.56 199.065 1435.65 199.152 1435.73C199.269 1435.85 199.385 1435.97 199.501 1436.08C199.588 1436.17 199.675 1436.26 199.762 1436.34C199.849 1436.43 199.936 1436.52 200.024 1436.6C200.111 1436.72 200.227 1436.81 200.343 1436.92C200.43 1437.01 200.517 1437.1 200.604 1437.18C200.721 1437.3 200.837 1437.41 200.953 1437.53C201.04 1437.62 201.127 1437.7 201.214 1437.79C201.301 1437.88 201.388 1437.97 201.476 1438.05C201.563 1438.17 201.679 1438.26 201.795 1438.37C201.882 1438.46 201.969 1438.54 202.056 1438.63C202.173 1438.75 202.289 1438.86 202.405 1438.98C202.492 1439.07 202.579 1439.15 202.666 1439.24C202.753 1439.33 202.84 1439.41 202.928 1439.5C203.015 1439.62 203.131 1439.7 203.247 1439.82C203.334 1439.91 203.421 1439.99 203.508 1440.08C203.625 1440.2 203.741 1440.31 203.857 1440.43C203.944 1440.52 204.031 1440.6 204.118 1440.69C204.205 1440.78 204.292 1440.86 204.38 1440.95C204.467 1441.07 204.583 1441.15 204.699 1441.27C204.786 1441.36 204.873 1441.44 204.96 1441.53C205.077 1441.65 205.193 1441.76 205.309 1441.88C205.396 1441.96 205.483 1442.05 205.57 1442.14C205.657 1442.23 205.744 1442.31 205.832 1442.4C205.919 1442.52 206.035 1442.6 206.151 1442.72C206.238 1442.8 206.325 1442.89 206.412 1442.98C206.528 1443.09 206.645 1443.21 206.761 1443.33C206.848 1443.41 206.935 1443.5 207.022 1443.59C207.109 1443.67 207.196 1443.76 207.284 1443.85C207.371 1443.96 207.487 1444.05 207.603 1444.17C207.69 1444.25 207.777 1444.34 207.864 1444.43C207.98 1444.54 208.097 1444.66 208.213 1444.78C208.3 1444.86 208.387 1444.95 208.474 1445.04C208.561 1445.12 208.648 1445.21 208.736 1445.3C208.823 1445.41 208.939 1445.5 209.055 1445.62C209.142 1445.7 209.229 1445.79 209.316 1445.88C209.432 1445.99 209.549 1446.11 209.665 1446.22C209.752 1446.31 209.839 1446.4 209.926 1446.49C210.013 1446.57 210.1 1446.66 210.188 1446.75C210.275 1446.86 210.391 1446.95 210.507 1447.06C210.594 1447.15 210.681 1447.24 210.768 1447.33C210.884 1447.44 211.001 1447.56 211.117 1447.67C211.204 1447.76 211.291 1447.85 211.378 1447.93C211.465 1448.02 211.552 1448.11 211.64 1448.19C211.727 1448.31 211.843 1448.4 211.959 1448.51C212.046 1448.6 212.133 1448.69 212.22 1448.77C212.336 1448.89 212.453 1449.01 212.569 1449.12C212.656 1449.21 212.743 1449.3 212.83 1449.38C212.917 1449.47 213.004 1449.56 213.092 1449.64C213.179 1449.76 213.295 1449.85 213.411 1449.96C213.498 1450.05 213.585 1450.14 213.672 1450.22C213.788 1450.34 213.905 1450.46 214.021 1450.57C214.108 1450.66 214.195 1450.75 214.282 1450.83C214.369 1450.92 214.456 1451.01 214.544 1451.09C214.631 1451.21 214.747 1451.3 214.863 1451.41C214.95 1451.5 215.037 1451.59 215.124 1451.67C215.24 1451.79 215.357 1451.9 215.473 1452.02C215.56 1452.11 215.647 1452.19 215.734 1452.28C215.821 1452.37 215.908 1452.45 215.996 1452.54C216.083 1452.66 216.199 1452.74 216.315 1452.86C216.402 1452.95 216.489 1453.03 216.576 1453.12C216.692 1453.24 216.809 1453.35 216.925 1453.47C217.012 1453.56 217.099 1453.64 217.186 1453.73C217.273 1453.82 217.36 1453.9 217.448 1453.99C217.535 1454.11 217.651 1454.19 217.767 1454.31C217.854 1454.4 217.941 1454.48 218.028 1454.57C218.144 1454.69 218.261 1454.8 218.377 1454.92C218.464 1455 218.551 1455.09 218.638 1455.18C218.725 1455.27 218.812 1455.35 218.9 1455.44C218.987 1455.56 219.103 1455.64 219.219 1455.76C219.306 1455.85 219.393 1455.93 219.48 1456.02C219.596 1456.14 219.713 1456.25 219.829 1456.37C220.874 1457.5 222.413 1457.99 223.923 1457.67L338.689 1433.88C340.141 1433.59 341.332 1432.55 341.884 1431.18L554.108 876.702L509.212 885.772L509.125 885.28Z" fill="#262626"/>
<path d="M648.206 713.667C649.064 714.769 650.364 715.436 651.754 715.436C652.02 715.436 652.286 715.436 652.552 715.378L709.074 705.171C710.966 704.823 712.385 703.315 712.651 701.488L734.97 561.483C735.296 559.366 734.024 557.336 731.955 556.669C729.886 556.002 727.639 556.901 726.634 558.815L647.793 709.115C647.024 710.593 647.172 712.362 648.177 713.696L648.206 713.667ZM706.887 683.77L704.699 697.428L699.201 698.414L706.887 683.77Z" fill="#262626"/>
<path d="M867.48 421.497C867.393 421.381 867.306 421.294 867.191 421.207C867.104 421.12 867.017 421.004 866.901 420.917C866.872 420.888 866.843 420.859 866.814 420.801C866.669 420.627 866.524 420.483 866.379 420.338C866.321 420.28 866.263 420.222 866.176 420.164C866.147 420.135 866.09 420.077 866.061 420.048C865.974 419.961 865.887 419.845 865.771 419.758C865.684 419.671 865.597 419.555 865.481 419.468C865.452 419.439 865.423 419.41 865.394 419.352C865.249 419.179 865.104 419.034 864.959 418.889C864.901 418.831 864.843 418.773 864.757 418.715C864.728 418.686 864.67 418.628 864.641 418.599C864.554 418.512 864.467 418.396 864.351 418.309C864.264 418.222 864.177 418.106 864.061 418.019C864.032 417.99 864.003 417.961 863.974 417.903C863.829 417.73 863.684 417.585 863.54 417.44C863.482 417.382 863.424 417.324 863.337 417.266C863.308 417.237 863.25 417.179 863.221 417.15C863.134 417.063 863.047 416.947 862.931 416.86C862.844 416.773 862.757 416.657 862.641 416.57C862.612 416.541 862.583 416.512 862.554 416.454C862.409 416.281 862.265 416.136 862.12 415.991C862.062 415.933 862.004 415.875 861.917 415.817C861.888 415.788 861.83 415.73 861.801 415.701C861.714 415.614 861.627 415.498 861.511 415.411C861.424 415.324 861.337 415.208 861.221 415.121C861.192 415.092 861.163 415.063 861.134 415.005C860.99 414.832 860.845 414.687 860.7 414.542C860.642 414.484 860.584 414.426 860.497 414.368C860.468 414.339 860.41 414.281 860.381 414.252C860.294 414.165 860.207 414.049 860.091 413.962C860.004 413.875 859.917 413.759 859.802 413.672C859.773 413.643 859.744 413.614 859.715 413.557C859.57 413.383 859.425 413.238 859.28 413.093C859.222 413.035 859.164 412.977 859.077 412.919C859.048 412.89 858.99 412.832 858.961 412.803C858.874 412.716 858.787 412.6 858.671 412.513C858.585 412.426 858.498 412.31 858.382 412.223C858.353 412.194 858.324 412.166 858.295 412.108C858.15 411.934 858.005 411.789 857.86 411.644C857.802 411.586 857.744 411.528 857.657 411.47C857.628 411.441 857.57 411.383 857.541 411.354C857.454 411.267 857.368 411.151 857.252 411.064C857.165 410.977 857.078 410.861 856.962 410.774C856.933 410.746 856.904 410.717 856.875 410.659C856.73 410.485 856.585 410.34 856.44 410.195C856.382 410.137 856.324 410.079 856.237 410.021C856.208 409.992 856.151 409.934 856.122 409.905C856.035 409.818 855.948 409.702 855.832 409.615C855.745 409.528 855.658 409.412 855.542 409.326C855.513 409.297 855.484 409.268 855.455 409.21C855.31 409.036 855.165 408.891 855.02 408.746C854.962 408.688 854.905 408.63 854.818 408.572C854.789 408.543 854.731 408.485 854.702 408.456C854.615 408.369 854.528 408.253 854.412 408.166C854.325 408.079 854.238 407.963 854.122 407.877C854.093 407.848 854.064 407.819 854.035 407.761C853.89 407.587 853.745 407.442 853.601 407.297C853.543 407.239 853.485 407.181 853.398 407.123C853.369 407.094 853.311 407.036 853.282 407.007C853.195 406.92 853.108 406.804 852.992 406.717C852.905 406.63 852.818 406.515 852.702 406.428C852.673 406.399 852.644 406.37 852.615 406.312C852.47 406.138 852.326 405.993 852.181 405.848C852.123 405.79 852.065 405.732 851.978 405.674C851.949 405.645 851.891 405.587 851.862 405.558C851.775 405.471 851.688 405.355 851.572 405.268C851.485 405.181 851.398 405.066 851.282 404.979C851.253 404.95 851.224 404.921 851.196 404.863C851.051 404.689 850.906 404.544 850.761 404.399C850.703 404.341 850.645 404.283 850.558 404.225C850.529 404.196 850.471 404.138 850.442 404.109C850.355 404.022 850.268 403.906 850.152 403.819C850.065 403.733 849.979 403.617 849.863 403.53C849.834 403.501 849.805 403.472 849.776 403.414C849.631 403.24 849.486 403.095 849.341 402.95C849.283 402.892 849.225 402.834 849.138 402.776C849.109 402.747 849.051 402.689 849.022 402.66C848.935 402.573 848.848 402.457 848.732 402.37C848.646 402.284 848.559 402.168 848.443 402.081C848.414 402.052 848.385 402.023 848.356 401.965C848.211 401.791 848.066 401.646 847.921 401.501C847.863 401.443 847.805 401.385 847.718 401.327C847.689 401.298 847.631 401.24 847.602 401.211C847.516 401.124 847.429 401.008 847.313 400.922C847.226 400.835 847.139 400.719 847.023 400.632C846.994 400.603 846.965 400.574 846.936 400.516C846.791 400.342 846.646 400.197 846.501 400.052C846.443 399.994 846.385 399.936 846.298 399.878C846.269 399.849 846.211 399.791 846.183 399.762C846.096 399.675 846.009 399.559 845.893 399.473C845.806 399.386 845.719 399.27 845.603 399.183C845.574 399.154 845.545 399.125 845.516 399.067C845.371 398.893 845.226 398.748 845.081 398.603C844.038 397.647 842.618 397.27 841.257 397.56L723.148 422.337C721.815 422.627 720.743 423.496 720.163 424.627L450.507 899.831C449.666 901.309 449.782 903.134 450.768 904.525C450.883 904.699 451.028 904.873 451.173 905.018C451.318 905.192 451.463 905.366 451.637 905.511C451.724 905.597 451.811 905.684 451.898 905.771C452.014 905.887 452.1 906.003 452.216 906.09C452.361 906.235 452.506 906.38 452.651 906.496C452.796 906.67 452.941 906.815 453.086 906.959C453.173 907.046 453.26 907.133 453.346 907.22C453.462 907.336 453.549 907.452 453.665 907.539C453.81 907.684 453.955 907.829 454.1 907.945C454.245 908.119 454.39 908.264 454.535 908.408C454.621 908.495 454.708 908.582 454.795 908.669C454.911 908.785 454.998 908.901 455.114 908.988C455.259 909.133 455.404 909.278 455.549 909.394C455.694 909.568 455.838 909.713 455.983 909.857C456.07 909.944 456.157 910.031 456.244 910.118C456.36 910.234 456.447 910.35 456.563 910.437C456.708 910.582 456.853 910.727 456.998 910.843C457.142 911.017 457.287 911.161 457.432 911.306C457.519 911.393 457.606 911.48 457.693 911.567C457.809 911.683 457.896 911.799 458.012 911.886C458.157 912.031 458.301 912.176 458.446 912.292C458.591 912.466 458.736 912.61 458.881 912.755C458.968 912.842 459.055 912.929 459.142 913.016C459.258 913.132 459.345 913.248 459.461 913.335C459.605 913.48 459.75 913.625 459.895 913.741C460.04 913.915 460.185 914.059 460.33 914.204C460.417 914.291 460.504 914.378 460.591 914.465C460.707 914.581 460.793 914.697 460.909 914.784C461.054 914.929 461.199 915.074 461.344 915.19C461.489 915.363 461.634 915.508 461.779 915.653C461.866 915.74 461.953 915.827 462.039 915.914C462.155 916.03 462.242 916.146 462.358 916.233C462.503 916.378 462.648 916.523 462.793 916.639C462.938 916.812 463.083 916.957 463.228 917.102C463.314 917.189 463.401 917.276 463.488 917.363C463.604 917.479 463.691 917.595 463.807 917.682C463.952 917.827 464.097 917.972 464.242 918.088C464.387 918.261 464.531 918.406 464.676 918.551C464.763 918.638 464.85 918.725 464.937 918.812C465.053 918.928 465.14 919.044 465.256 919.131C465.401 919.276 465.546 919.421 465.691 919.537C465.835 919.71 465.98 919.855 466.125 920C466.212 920.087 466.299 920.174 466.386 920.261C466.502 920.377 466.589 920.493 466.705 920.58C466.85 920.725 466.994 920.87 467.139 920.985C467.284 921.159 467.429 921.304 467.574 921.449C467.661 921.536 467.748 921.623 467.835 921.71C467.951 921.826 468.038 921.942 468.154 922.029C468.298 922.174 468.443 922.319 468.588 922.434C468.733 922.608 468.878 922.753 469.023 922.898C469.11 922.985 469.197 923.072 469.284 923.159C469.4 923.275 469.486 923.391 469.602 923.478C469.747 923.623 469.892 923.768 470.037 923.883C470.182 924.057 470.327 924.202 470.472 924.347C470.559 924.434 470.646 924.521 470.732 924.608C470.848 924.724 470.935 924.84 471.051 924.927C471.196 925.072 471.341 925.216 471.486 925.332C471.631 925.506 471.776 925.651 471.92 925.796C472.007 925.883 472.094 925.97 472.181 926.057C472.297 926.173 472.384 926.289 472.5 926.376C472.645 926.521 472.79 926.665 472.935 926.781C473.08 926.955 473.224 927.1 473.369 927.245C473.456 927.332 473.543 927.419 473.63 927.506C473.746 927.622 473.833 927.738 473.949 927.825C474.789 928.723 475.948 929.245 477.165 929.245C477.455 929.245 477.745 929.245 478.035 929.158L593.217 905.829C594.521 905.569 595.651 904.699 596.23 903.511L625.873 844.248L678.147 835.38L675.974 854.855C675.829 856.159 676.293 857.463 677.191 858.39C677.336 858.564 677.481 858.709 677.626 858.854C677.712 858.941 677.799 859.057 677.915 859.144C678.002 859.23 678.089 859.346 678.205 859.433C678.292 859.549 678.408 859.636 678.524 859.752C678.582 859.81 678.611 859.839 678.669 859.897C678.785 860.042 678.93 860.187 679.074 860.332C679.161 860.419 679.248 860.535 679.364 860.621C679.451 860.708 679.538 860.824 679.654 860.911C679.741 861.027 679.857 861.114 679.973 861.23C680.031 861.288 680.06 861.317 680.118 861.375C680.233 861.52 680.378 861.665 680.523 861.81C680.61 861.897 680.697 862.013 680.813 862.099C680.9 862.186 680.987 862.302 681.103 862.389C681.19 862.505 681.306 862.592 681.421 862.708C681.479 862.766 681.508 862.795 681.566 862.853C681.682 862.998 681.827 863.143 681.972 863.288C682.059 863.374 682.146 863.49 682.262 863.577C682.349 863.664 682.436 863.78 682.552 863.867C682.639 863.983 682.754 864.07 682.87 864.186C682.928 864.244 682.957 864.273 683.015 864.331C683.131 864.476 683.276 864.621 683.421 864.766C683.508 864.852 683.595 864.968 683.711 865.055C683.798 865.142 683.885 865.258 684 865.345C684.087 865.461 684.203 865.548 684.319 865.664C684.377 865.722 684.406 865.751 684.464 865.809C684.58 865.954 684.725 866.099 684.87 866.243C684.957 866.33 685.044 866.446 685.159 866.533C685.246 866.62 685.333 866.736 685.449 866.823C685.536 866.939 685.652 867.026 685.768 867.142C685.826 867.2 685.855 867.229 685.913 867.287C686.029 867.432 686.174 867.576 686.319 867.721C686.405 867.808 686.492 867.924 686.608 868.011C686.695 868.098 686.782 868.214 686.898 868.301C686.985 868.417 687.101 868.504 687.217 868.62C687.275 868.678 687.304 868.707 687.362 868.765C687.478 868.91 687.623 869.054 687.767 869.199C687.854 869.286 687.941 869.402 688.057 869.489C688.144 869.576 688.231 869.692 688.347 869.779C688.434 869.895 688.55 869.982 688.666 870.098C688.724 870.156 688.753 870.185 688.811 870.243C688.926 870.388 689.071 870.532 689.216 870.677C689.303 870.764 689.39 870.88 689.506 870.967C689.593 871.054 689.68 871.17 689.796 871.257C689.883 871.373 689.999 871.46 690.114 871.576C690.172 871.634 690.201 871.663 690.259 871.721C690.375 871.865 690.52 872.01 690.665 872.155C690.752 872.242 690.839 872.358 690.955 872.445C691.042 872.532 691.129 872.648 691.245 872.735C691.332 872.851 691.447 872.938 691.563 873.054C691.621 873.112 691.65 873.141 691.708 873.199C691.824 873.343 691.969 873.488 692.114 873.633C692.201 873.72 692.288 873.836 692.404 873.923C692.491 874.01 692.577 874.126 692.693 874.213C692.78 874.329 692.896 874.416 693.012 874.532C693.07 874.59 693.099 874.619 693.157 874.676C693.273 874.821 693.418 874.966 693.563 875.111C693.65 875.198 693.737 875.314 693.852 875.401C693.939 875.488 694.026 875.604 694.142 875.691C694.229 875.807 694.345 875.894 694.461 876.01C694.519 876.067 694.548 876.096 694.606 876.154C694.722 876.299 694.867 876.444 695.012 876.589C695.098 876.676 695.185 876.792 695.301 876.879C695.388 876.966 695.475 877.082 695.591 877.169C695.678 877.285 695.794 877.372 695.91 877.488C695.968 877.545 695.997 877.574 696.055 877.632C696.171 877.777 696.315 877.922 696.46 878.067C696.547 878.154 696.634 878.27 696.75 878.357C696.837 878.444 696.924 878.56 697.04 878.647C697.127 878.763 697.243 878.849 697.359 878.965C697.417 879.023 697.446 879.052 697.504 879.11C697.619 879.255 697.764 879.4 697.909 879.545C697.996 879.632 698.083 879.748 698.199 879.835C698.286 879.922 698.373 880.038 698.489 880.125C698.576 880.241 698.692 880.327 698.807 880.443C698.865 880.501 698.894 880.53 698.952 880.588C699.068 880.733 699.213 880.878 699.358 881.023C699.445 881.11 699.532 881.226 699.648 881.313C699.735 881.4 699.822 881.516 699.938 881.603C700.024 881.718 700.14 881.805 700.227 881.892C701.27 882.82 702.69 883.225 704.052 882.936L814.859 859.607C816.684 859.23 818.046 857.723 818.278 855.869L869.306 425.699C869.48 424.308 868.958 422.917 867.944 421.99L867.48 421.497ZM786.375 828.078L684.493 849.522L689.651 803.01C689.796 801.648 689.303 800.315 688.318 799.359C687.333 798.403 685.942 797.997 684.609 798.229L598.577 812.805C597.215 813.037 596.027 813.907 595.419 815.153L565.747 874.503L461.981 895.513L726.074 430.133L836.33 407.007L786.375 828.078Z" fill="#262626"/>
<path d="M607.062 1354.49L596.522 1443.33L492.22 1465.28L497.476 1419.15C497.621 1417.78 497.127 1416.45 496.14 1415.49C495.153 1414.53 493.788 1414.13 492.423 1414.36L404.498 1429.25C403.134 1429.49 401.972 1430.33 401.362 1431.55L371.018 1490.78L264.713 1512.29L534.701 1036.57L647.598 1012.84L618.038 1261.93L661.768 1186.38L680.178 1031.08C680.352 1029.68 679.829 1028.29 678.784 1027.33C678.755 1027.27 678.697 1027.25 678.668 1027.19C678.552 1027.04 678.406 1026.9 678.261 1026.75C678.203 1026.69 678.145 1026.64 678.087 1026.61C677.971 1026.46 677.826 1026.32 677.681 1026.17C677.622 1026.11 677.564 1026.08 677.506 1026.03C677.448 1025.97 677.39 1025.91 677.361 1025.88C677.332 1025.82 677.274 1025.79 677.245 1025.74C677.129 1025.59 676.984 1025.45 676.838 1025.3C676.78 1025.24 676.722 1025.18 676.664 1025.16C676.548 1025.01 676.403 1024.87 676.258 1024.72C676.2 1024.66 676.142 1024.63 676.083 1024.57C676.025 1024.52 675.967 1024.46 675.938 1024.43C675.909 1024.37 675.851 1024.34 675.822 1024.28C675.706 1024.14 675.561 1023.99 675.416 1023.85C675.358 1023.79 675.299 1023.73 675.241 1023.7C675.125 1023.56 674.98 1023.41 674.835 1023.27C674.777 1023.21 674.719 1023.18 674.661 1023.12C674.603 1023.06 674.545 1023.01 674.515 1022.98C674.486 1022.92 674.428 1022.89 674.399 1022.83C674.283 1022.69 674.138 1022.54 673.993 1022.4C673.935 1022.34 673.877 1022.28 673.819 1022.25C673.702 1022.11 673.557 1021.96 673.412 1021.82C673.354 1021.76 673.296 1021.73 673.238 1021.67C673.18 1021.61 673.122 1021.56 673.093 1021.53C673.064 1021.47 673.006 1021.44 672.977 1021.38C672.86 1021.24 672.715 1021.09 672.57 1020.95C672.512 1020.89 672.454 1020.83 672.396 1020.8C672.28 1020.66 672.134 1020.51 671.989 1020.36C671.931 1020.31 671.873 1020.28 671.815 1020.22C671.757 1020.16 671.699 1020.1 671.67 1020.07C671.641 1020.02 671.583 1019.99 671.554 1019.93C671.438 1019.78 671.292 1019.64 671.147 1019.49C671.089 1019.44 671.031 1019.38 670.973 1019.35C670.857 1019.2 670.712 1019.06 670.566 1018.91C670.508 1018.86 670.45 1018.83 670.392 1018.77C670.334 1018.71 670.276 1018.65 670.247 1018.62C670.218 1018.56 670.16 1018.54 670.131 1018.48C670.015 1018.33 669.87 1018.19 669.724 1018.04C669.666 1017.98 669.608 1017.93 669.55 1017.9C669.434 1017.75 669.289 1017.61 669.144 1017.46C669.085 1017.4 669.027 1017.37 668.969 1017.32C668.911 1017.26 668.853 1017.2 668.824 1017.17C668.795 1017.11 668.737 1017.08 668.708 1017.03C668.592 1016.88 668.447 1016.74 668.302 1016.59C668.243 1016.53 668.185 1016.47 668.127 1016.45C668.011 1016.3 667.866 1016.15 667.721 1016.01C667.663 1015.95 667.605 1015.92 667.547 1015.86C667.488 1015.81 667.43 1015.75 667.401 1015.72C667.372 1015.66 667.314 1015.63 667.285 1015.57C667.169 1015.43 667.024 1015.28 666.879 1015.14C666.821 1015.08 666.763 1015.02 666.704 1014.99C666.588 1014.85 666.443 1014.7 666.298 1014.56C666.24 1014.5 666.182 1014.47 666.124 1014.41C666.066 1014.35 666.008 1014.3 665.979 1014.27C665.949 1014.21 665.891 1014.18 665.862 1014.12C665.746 1013.98 665.601 1013.83 665.456 1013.69C665.398 1013.63 665.34 1013.57 665.282 1013.54C665.165 1013.4 665.02 1013.25 664.875 1013.11C664.817 1013.05 664.759 1013.02 664.701 1012.96C664.643 1012.9 664.585 1012.84 664.556 1012.82C664.527 1012.76 664.469 1012.73 664.44 1012.67C664.323 1012.53 664.178 1012.38 664.033 1012.24C663.975 1012.18 663.917 1012.12 663.859 1012.09C663.743 1011.94 663.597 1011.8 663.452 1011.65C663.394 1011.6 663.336 1011.57 663.278 1011.51C663.22 1011.45 663.162 1011.39 663.133 1011.36C663.104 1011.31 663.046 1011.28 663.017 1011.22C662.901 1011.07 662.755 1010.93 662.61 1010.78C662.552 1010.73 662.494 1010.67 662.436 1010.64C662.32 1010.49 662.175 1010.35 662.029 1010.2C661.971 1010.14 661.913 1010.12 661.855 1010.06C661.797 1010 661.739 1009.94 661.71 1009.91C661.681 1009.85 661.623 1009.83 661.594 1009.77C661.478 1009.62 661.333 1009.48 661.187 1009.33C661.129 1009.27 661.071 1009.22 661.013 1009.19C660.897 1009.04 660.752 1008.9 660.607 1008.75C660.549 1008.69 660.49 1008.66 660.432 1008.61C660.374 1008.55 660.316 1008.49 660.287 1008.46C660.258 1008.4 660.2 1008.37 660.171 1008.32C660.055 1008.17 659.91 1008.03 659.765 1007.88C659.706 1007.82 659.648 1007.76 659.59 1007.73C659.474 1007.59 659.329 1007.44 659.184 1007.3C659.126 1007.24 659.068 1007.21 659.01 1007.15C658.952 1007.1 658.893 1007.04 658.864 1007.01C658.835 1006.95 658.777 1006.92 658.748 1006.86C658.632 1006.72 658.487 1006.57 658.342 1006.43C658.284 1006.37 658.226 1006.31 658.168 1006.28C658.051 1006.14 657.906 1005.99 657.761 1005.85C657.703 1005.79 657.645 1005.76 657.587 1005.7C657.529 1005.64 657.471 1005.59 657.442 1005.56C657.413 1005.5 657.354 1005.47 657.325 1005.41C657.209 1005.27 657.064 1005.12 656.919 1004.98C656.861 1004.92 656.803 1004.86 656.745 1004.83C656.629 1004.69 656.483 1004.54 656.338 1004.4C655.293 1003.44 653.87 1003.06 652.505 1003.35L532.291 1028.58C532.291 1028.58 532.146 1028.58 532.059 1028.58C530.723 1028.76 529.533 1029.57 528.865 1030.76L253.156 1516.56C252.314 1518.04 252.43 1519.9 253.418 1521.26C253.563 1521.44 253.679 1521.61 253.853 1521.76C254.027 1521.96 254.231 1522.16 254.434 1522.34C254.579 1522.51 254.724 1522.66 254.87 1522.8C255.015 1522.95 255.16 1523.09 255.305 1523.21C255.479 1523.41 255.683 1523.61 255.886 1523.79C256.031 1523.96 256.176 1524.11 256.321 1524.25C256.467 1524.4 256.612 1524.54 256.757 1524.66C256.931 1524.86 257.134 1525.07 257.338 1525.24C257.483 1525.41 257.628 1525.56 257.773 1525.7C257.918 1525.85 258.064 1526 258.209 1526.11C258.383 1526.31 258.586 1526.52 258.79 1526.69C258.935 1526.87 259.08 1527.01 259.225 1527.16C259.37 1527.3 259.516 1527.45 259.661 1527.56C259.835 1527.77 260.038 1527.97 260.241 1528.14C260.387 1528.32 260.532 1528.46 260.677 1528.61C260.822 1528.75 260.967 1528.9 261.113 1529.01C261.287 1529.22 261.49 1529.42 261.693 1529.6C261.839 1529.77 261.984 1529.91 262.129 1530.06C262.274 1530.21 262.419 1530.35 262.564 1530.47C262.739 1530.67 262.942 1530.87 263.145 1531.05C263.29 1531.22 263.436 1531.37 263.581 1531.51C263.726 1531.66 263.871 1531.8 264.016 1531.92C264.191 1532.12 264.394 1532.32 264.597 1532.5C264.742 1532.67 264.887 1532.82 265.033 1532.96C265.178 1533.11 265.323 1533.25 265.468 1533.37C265.642 1533.57 265.846 1533.78 266.049 1533.95C266.194 1534.12 266.339 1534.27 266.484 1534.42C266.63 1534.56 266.775 1534.71 266.92 1534.82C267.094 1535.02 267.298 1535.23 267.501 1535.4C267.646 1535.58 267.791 1535.72 267.936 1535.87C268.082 1536.01 268.227 1536.16 268.372 1536.27C268.546 1536.48 268.749 1536.68 268.953 1536.85C269.098 1537.03 269.243 1537.17 269.388 1537.32C269.533 1537.46 269.679 1537.61 269.824 1537.72C269.998 1537.93 270.201 1538.13 270.404 1538.31C270.55 1538.48 270.695 1538.63 270.84 1538.77C270.985 1538.92 271.13 1539.06 271.276 1539.18C271.45 1539.38 271.653 1539.58 271.856 1539.76C272.002 1539.93 272.147 1540.08 272.292 1540.22C272.437 1540.37 272.582 1540.51 272.727 1540.63C272.902 1540.83 273.105 1541.03 273.308 1541.21C273.453 1541.38 273.599 1541.53 273.744 1541.67C273.889 1541.82 274.034 1541.96 274.179 1542.08C274.354 1542.28 274.557 1542.49 274.76 1542.66C274.905 1542.84 275.05 1542.98 275.196 1543.13C275.341 1543.27 275.486 1543.42 275.631 1543.53C275.805 1543.74 276.009 1543.94 276.212 1544.11C276.357 1544.29 276.502 1544.43 276.647 1544.58C277.49 1545.48 278.651 1546 279.871 1546C280.161 1546 280.451 1546 280.742 1545.91L398.488 1522.08C399.794 1521.81 400.898 1520.97 401.508 1519.78L431.822 1460.64L485.861 1451.49L483.683 1470.54C483.538 1471.85 483.973 1473.15 484.902 1474.08C485.019 1474.23 485.164 1474.4 485.338 1474.55L485.483 1474.69C485.599 1474.84 485.745 1475.01 485.919 1475.13C486.006 1475.21 486.093 1475.33 486.209 1475.42C486.267 1475.48 486.296 1475.5 486.354 1475.53C486.47 1475.68 486.616 1475.85 486.79 1476L486.935 1476.14C487.051 1476.29 487.196 1476.46 487.371 1476.58C487.458 1476.67 487.545 1476.78 487.661 1476.87C487.719 1476.93 487.748 1476.96 487.806 1476.99C487.922 1477.13 488.068 1477.3 488.242 1477.45L488.387 1477.6C488.503 1477.74 488.648 1477.91 488.822 1478.03C488.91 1478.12 488.997 1478.23 489.113 1478.32C489.171 1478.38 489.2 1478.41 489.258 1478.44C489.374 1478.58 489.519 1478.76 489.694 1478.9L489.839 1479.05C489.955 1479.19 490.1 1479.37 490.274 1479.48C490.361 1479.57 490.449 1479.69 490.565 1479.77C490.623 1479.83 490.652 1479.86 490.71 1479.89C490.826 1480.03 490.971 1480.21 491.145 1480.35L491.291 1480.5C491.407 1480.64 491.552 1480.82 491.726 1480.93C491.813 1481.02 491.9 1481.14 492.017 1481.22C492.075 1481.28 492.104 1481.31 492.162 1481.34C492.278 1481.49 492.423 1481.66 492.597 1481.81L492.742 1481.95C492.859 1482.1 493.004 1482.27 493.178 1482.39C493.265 1482.47 493.352 1482.59 493.468 1482.68C493.526 1482.73 493.556 1482.76 493.614 1482.79C493.73 1482.94 493.875 1483.11 494.049 1483.26L494.194 1483.4C494.31 1483.55 494.456 1483.72 494.63 1483.84C494.717 1483.92 494.804 1484.04 494.92 1484.13C494.978 1484.19 495.007 1484.22 495.065 1484.24C495.182 1484.39 495.327 1484.56 495.501 1484.71L495.646 1484.85C495.762 1485 495.908 1485.17 496.082 1485.29C496.169 1485.38 496.256 1485.49 496.372 1485.58C496.43 1485.64 496.459 1485.67 496.517 1485.7C496.633 1485.84 496.779 1486.02 496.953 1486.16L497.098 1486.31C497.214 1486.45 497.359 1486.62 497.534 1486.74C497.621 1486.83 497.708 1486.94 497.824 1487.03C497.882 1487.09 497.911 1487.12 497.969 1487.15C498.085 1487.29 498.231 1487.47 498.405 1487.61L498.55 1487.76C498.666 1487.9 498.811 1488.08 498.986 1488.19C499.073 1488.28 499.16 1488.4 499.276 1488.48C499.334 1488.54 499.363 1488.57 499.421 1488.6C499.537 1488.74 499.682 1488.92 499.857 1489.06L500.002 1489.21C500.118 1489.35 500.263 1489.53 500.437 1489.64C500.524 1489.73 500.612 1489.85 500.728 1489.93C500.786 1489.99 500.815 1490.02 500.873 1490.05C500.989 1490.2 501.134 1490.37 501.308 1490.52L501.454 1490.66C501.57 1490.81 501.715 1490.98 501.889 1491.1C501.976 1491.18 502.063 1491.3 502.18 1491.39C502.238 1491.44 502.267 1491.47 502.325 1491.5C502.441 1491.65 502.586 1491.82 502.76 1491.97L502.906 1492.11C503.022 1492.26 503.167 1492.43 503.341 1492.55C503.428 1492.63 503.515 1492.75 503.631 1492.84C503.69 1492.9 503.719 1492.93 503.777 1492.95C503.893 1493.1 504.038 1493.27 504.212 1493.42L504.357 1493.56C504.474 1493.71 504.619 1493.88 504.793 1494C504.88 1494.09 504.967 1494.2 505.083 1494.29C505.141 1494.35 505.17 1494.38 505.228 1494.41C505.345 1494.55 505.49 1494.73 505.664 1494.87L505.809 1495.02C505.925 1495.16 506.071 1495.34 506.245 1495.45C506.332 1495.54 506.419 1495.65 506.535 1495.74C506.593 1495.8 506.622 1495.83 506.68 1495.86C506.796 1496 506.942 1496.18 507.116 1496.32L507.261 1496.47C507.377 1496.61 507.522 1496.79 507.697 1496.9C507.784 1496.99 507.871 1497.11 507.987 1497.19C509.032 1498.12 510.455 1498.53 511.82 1498.24L625.094 1474.4C626.923 1474.02 628.288 1472.51 628.521 1470.66L643.213 1346.74L607.527 1354.46L607.062 1354.49Z" fill="#262626"/>
<path d="M1177.12 1010.03L1134.35 1018.89C1116.88 1022.03 1111.08 1028.7 1105.86 1040.84L1039.33 1215.48C1035.7 1224.25 1035.61 1230.54 1039.1 1234.69C1041.84 1237.95 1046.08 1238.99 1050.46 1238.99C1053.92 1238.99 1057.49 1238.36 1060.49 1237.69L1103.24 1228.84C1120.71 1225.69 1126.5 1219.03 1131.69 1206.88L1198.25 1032.19C1201.86 1023.44 1201.94 1017.18 1198.46 1013.03C1193.55 1007.17 1183.87 1008.53 1177.07 1010.06L1177.12 1010.03ZM1124.03 1203.9C1120.02 1213.28 1116.53 1217.99 1101.94 1220.61L1076.49 1225.89L1137 1067.1C1141 1057.78 1144.49 1053.11 1159.05 1050.48L1184.47 1045.2L1124 1203.9H1124.03Z" fill="#262626"/>
<path d="M456.308 1327.66C457.15 1328.77 458.428 1329.45 459.793 1329.45C460.054 1329.45 460.316 1329.45 460.577 1329.39L517.211 1318.82C519.07 1318.47 520.464 1316.94 520.725 1315.06L543.089 1170.09C543.408 1167.94 542.159 1165.88 540.126 1165.2C538.093 1164.53 535.886 1165.44 534.898 1167.38L455.901 1323C455.146 1324.51 455.291 1326.3 456.279 1327.66H456.308ZM515.498 1294.28L512.913 1310.97L506.378 1312.17L515.469 1294.25L515.498 1294.28Z" fill="#262626"/>
<path d="M1338.94 919.113C1361.03 939.42 1363.2 976.667 1345.12 1024.04L1251.26 1268.21C1230.27 1322.11 1207.66 1353.7 1148.28 1366.2L1026.12 1391.52C1014.33 1394.02 1003.39 1395.24 993.466 1395.24C972.133 1395.24 955.328 1389.55 944.038 1378.3L921.66 1355.93C920.354 1354.65 919.135 1353.35 918.061 1352.01C906.161 1337.74 902.359 1316.39 906.713 1290.14L915.536 1288.22C910.747 1313.46 913.795 1333.59 924.708 1346.47C938.581 1362.81 964.993 1367.42 1001.13 1359.82L1123.29 1334.49C1178.78 1322.8 1200.06 1292.92 1219.94 1241.87L1313.8 997.728C1329.33 957.057 1329.22 924.509 1313.43 906.03C1298.8 888.915 1271.28 884.012 1233.84 891.903C1233.73 891.903 1233.64 891.932 1233.52 891.961L1113.16 917.228C1059.44 928.541 1040.83 954.939 1019.5 1009.85L985.078 1099.38L990.912 1061L1011.66 1007.01C1033.72 950.24 1054.33 921.086 1111.65 909.018L1232.3 883.693C1232.3 883.693 1232.45 883.693 1232.54 883.664C1270.21 875.774 1299.32 880.357 1316.71 896.892L1339 919.171" fill="#262626"/>
<path d="M1338.04 1326.71L1441.73 1304.63L1477.87 1176.27L1455.94 1154.02L1350.62 1177.78L1316.14 1304.46L1338.07 1326.71H1338.04ZM1412.12 1274.09L1327.32 1292.12L1356.67 1184.3L1442.85 1164.87L1412.09 1274.06L1412.12 1274.09Z" fill="#262626"/>
</svg>
