<svg width="2710" height="393" viewBox="0 0 2710 393" fill="none" xmlns="http://www.w3.org/2000/svg">
<g clip-path="url(#clip0_2784_6205)">
<path d="M2443.99 200.254L2473.86 142.723H2525.31C2552.97 142.723 2561.82 160.425 2543.56 189.191C2526.42 221.829 2484.93 248.935 2458.93 248.935C2432.93 248.935 2427.39 231.233 2443.99 200.254ZM2305.14 214.084L2349.95 134.978L2411.9 25.4467H2513.14L2427.39 190.297C2405.27 232.339 2417.44 271.063 2458.93 271.063C2490.46 271.063 2538.59 239.531 2560.16 201.361C2585.05 160.425 2569.56 120.595 2525.31 120.595H2485.48L2534.71 25.4467H2595.01C2689.05 22.1276 2718.92 95.1485 2663.61 190.297C2610.5 288.765 2483.82 370.084 2385.35 370.084C2293.52 370.084 2261.44 302.594 2305.14 214.084ZM2095.48 366.764L2235.44 120.595H2217.18C2221.05 80.7656 2208.88 47.0211 2182.33 25.4467H2389.22L2295.74 190.297L2288.54 203.574L2195.61 366.764H2095.48ZM1941.14 203.02C1958.29 170.382 1999.78 143.276 2025.78 143.276C2051.78 143.276 2057.31 160.978 2040.71 191.957L2037.4 198.042C2016.37 233.999 1991.48 249.488 1959.4 249.488C1931.74 249.488 1922.89 231.786 1941.14 203.02ZM1604.8 366.764L1729.82 146.595H1830.5L1812.25 178.68L1804.5 191.957L1800.63 199.148L1704.93 366.764H1604.8ZM1330.97 124.468L1386.85 25.4467H1627.48C1608.67 38.1701 1593.74 55.8721 1579.91 80.2124L1555.01 124.468H1330.97ZM1093.1 245.616L1151.19 142.723H1174.42L1115.78 245.616H1093.1ZM970.294 245.616L1095.31 25.4467H1363.61L1295.02 146.595L1226.42 267.744L1170.55 366.764H1069.31L1209.82 120.595H1141.23L1070.42 245.616H970.294ZM35.4041 245.616L160.425 25.4467H261.105L193.616 142.723H357.36L230.127 366.764H129.999L198.595 245.616H35.4041ZM0 267.744H163.191L94.5954 388.892H362.892L424.849 279.914C422.083 345.19 464.126 392.211 543.232 392.211C647.231 392.211 780.55 306.467 838.082 200.254C900.592 93.489 862.422 0 752.89 0C740.72 0 727.444 1.10638 714.167 3.31914H150.467L0 267.744ZM2058.42 200.254C2078.89 158.765 2066.71 121.148 2025.78 121.148C1994.25 121.148 1946.12 152.68 1924.55 190.85C1899.65 231.786 1915.14 271.616 1959.4 271.616C1975.99 271.616 1991.48 267.744 2005.31 259.999L1949.99 366.764H1889.69C1798.42 370.084 1767.99 301.488 1816.12 210.765L1828.29 189.191C1878.08 107.872 1976.54 40.936 2063.4 25.4467C2075.01 23.2339 2088.29 22.1276 2099.35 22.1276C2110.97 22.1276 2122.03 23.2339 2131.99 25.4467C2201.14 40.3828 2219.4 105.659 2175.14 186.978L2072.8 366.764H1971.57L2053.99 208.552L2058.42 200.254ZM1707.69 25.4467H1990.93C1941.14 47.5743 1891.91 82.4252 1853.18 124.468H1691.65C1683.91 124.468 1676.16 127.787 1669.53 137.744L1640.21 190.297C1571.06 311.999 1499.7 366.764 1359.19 366.764H1193.23L1215.36 328.041L1249.1 267.744H1427.78C1474.25 267.744 1500.8 258.893 1533.99 200.254L1596.5 90.1698C1621.95 44.8083 1654.04 25.4467 1707.69 25.4467ZM1427.78 245.616H1261.82L1318.25 146.595H1542.29L1517.4 190.297C1489.74 238.978 1469.82 245.616 1427.78 245.616ZM789.401 388.892H1359.19C1506.33 388.892 1583.23 329.148 1656.8 200.254L1686.12 149.361C1687.23 147.148 1688.33 146.595 1691.65 146.595H1707.14L1569.4 388.892H1714.89L1774.63 283.233C1771.87 346.85 1813.35 391.105 1889.69 388.892H2205.57L2266.97 280.467C2264.76 345.19 2306.8 392.211 2385.35 392.211C2489.35 392.211 2622.67 306.467 2680.2 200.254C2742.16 92.9358 2704.54 0 2595.01 3.31914H2133.65C2123.14 1.10638 2111.52 0 2099.35 0C2087.18 0 2075.01 1.10638 2062.29 3.31914H1085.36L947.613 245.616H870.72L789.401 388.892ZM824.805 366.764L880.677 267.744H1103.61L1047.19 366.764H824.805ZM609.615 248.935C580.849 248.935 572.551 229.574 590.253 200.808C607.402 169.276 648.891 142.723 683.189 142.723C710.848 142.723 719.699 160.425 701.444 189.191C684.295 221.829 642.806 248.935 609.615 248.935ZM609.615 271.063C648.338 271.063 696.465 239.531 718.04 201.361C741.827 162.084 728.55 123.914 688.721 120.595H492.892L352.935 366.764H252.807L392.764 120.595H229.02L283.233 25.4467H715.274C728.55 23.2339 740.72 22.1276 752.89 22.1276C846.933 22.1276 876.805 94.5953 821.486 190.297C768.38 288.765 641.699 370.084 543.232 370.084C444.764 370.084 417.658 300.382 466.892 206.893L476.296 189.744C484.594 176.467 495.658 162.084 512.806 142.723H619.019C600.21 154.893 584.168 172.042 573.657 190.297C549.317 231.233 564.806 271.063 609.615 271.063Z" fill="#262626"/>
<path d="M2213.92 120.592H2338.39L2325.66 142.72H2201.2L2213.92 120.592Z" fill="#262626"/>
</g>
<defs>
<clipPath id="clip0_2784_6205">
<rect width="2710" height="392.211" fill="white"/>
</clipPath>
</defs>
</svg>
