<svg width="1461" height="829" viewBox="0 0 1461 829" fill="none" xmlns="http://www.w3.org/2000/svg">
<path d="M1453.31 24.5373C1446.55 15.6785 1437.84 14.7183 1434.43 14.7183C1433.78 14.7183 1433.16 14.8112 1432.57 14.9661H1341.24C1320.78 14.9661 1304.47 39.1884 1291.36 88.996L1275.67 149.521C1274.71 153.3 1273.94 156.862 1273.35 160.145C1249.23 140.879 1219.56 123.626 1185 108.696C1183.54 20.2008 1159.92 0.81057 1140.14 0.345947C1140.08 0.345947 1140.01 0.345947 1139.95 0.345947C1119.58 0.345947 1095.87 21.6257 1069.33 63.5037C1071.04 45.1046 1068.37 31.4757 1061.27 22.9266C1056.68 17.3821 1051.13 15.2139 1047.26 14.9971C1047.1 14.9971 1046.92 14.9971 1046.76 14.9971H903.04C895.568 14.9971 884.284 20.8513 872.1 47.6755C865.621 47.4897 859.049 47.3348 852.446 47.2109C845.284 16.7007 832.357 0.996419 813.849 0.593746C796.054 0.593746 774.788 17.1653 750.638 49.7818C721 51.7023 693.936 54.1803 668.05 57.4326C641.544 60.685 615.007 64.7737 588.966 69.5748C583.634 24.1656 569.559 0.87252 547.052 0.345947C525.817 0.345947 501.574 21.4089 474.758 63.2249C476.401 45.5692 473.983 32.343 467.441 23.7939C462.481 17.2582 456.157 14.9351 451.91 14.9351H308.188C302.608 14.9351 297.089 17.9706 291.664 23.9798C291.013 22.9266 290.269 21.9354 289.432 21.0681C284.255 15.5856 276.908 14.9351 271.823 14.9351H254.99C242.589 14.9351 228.608 24.2895 210.689 92.3103L174.635 236.158C154.887 251.738 137.805 267.442 123.761 282.992H113.593C113.345 282.992 113.128 282.992 112.973 282.961C112.973 282.713 112.973 282.372 113.035 281.938L165.861 82.5223C174.759 47.8924 175.41 31.6306 168.31 22.462C162.451 14.9351 152.81 14.9351 149.647 14.9351H133.992C121.529 14.9351 107.579 24.4444 89.7221 93.4254L6.51475 414.325C-2.2586 451.99 -2.1656 476.801 6.76276 488.014C9.86289 491.886 14.0171 494.147 18.0162 494.147L84.4829 495.789C89.4741 504.214 95.1473 512.298 101.503 519.949L44.7703 740.676C39.0971 763.474 34.6329 793.55 45.5143 807.489C49.3585 812.383 54.6907 814.985 60.9839 814.985H69.9743C96.3564 814.985 107.486 785.032 114.244 758.92L162.234 572.576C173.425 579.855 185.547 586.855 198.443 593.453L160.653 740.614C160.529 741.048 160.467 741.512 160.436 741.977C152.531 774.408 152.872 796.462 161.521 807.489C165.365 812.383 170.697 814.985 176.991 814.985H185.981C213.324 814.985 224.236 786.643 231.305 758.889L266.026 621.826C276.691 625.481 287.758 628.981 299.073 632.264C293.276 690.342 288.812 785.528 317.023 817.556C323.223 824.587 330.602 828.242 338.972 828.397C339.034 828.397 339.065 828.397 339.127 828.397C383.769 828.397 435.107 726.676 463.07 662.403C494.66 665.407 528.018 667.142 562.46 667.544C560.321 702.887 558.492 786.798 586.083 817.339C592.655 824.618 600.406 828.397 609.334 828.645C654.503 828.645 705.779 723.826 733.432 658.345L742.05 657.416C754.017 655.898 766.107 654.194 778.136 652.367L755.629 739.995C755.567 740.211 755.474 740.428 755.443 740.676C749.77 763.474 745.305 793.55 756.187 807.489C760.031 812.383 765.363 814.985 771.656 814.985H780.647C807.99 814.985 818.902 786.643 825.971 758.92L856.631 638.397C870.302 635.547 882.703 632.791 894.08 630.034C887.973 690.218 883.788 784.599 912.216 816.967C918.726 824.37 926.539 828.211 935.591 828.397C987.084 828.397 1052 691.271 1096.05 561.765C1127.12 547.548 1156.29 532.029 1183.07 515.427C1176.56 544.729 1177.37 564.832 1185.46 575.208C1189.31 580.102 1194.64 582.704 1200.93 582.704H1209.95C1236.33 582.704 1247.46 552.752 1254.25 526.578L1258.13 510.843H1317.65C1330.42 510.843 1350.26 492.351 1364.15 440.22L1453.93 97.0495C1463.57 62.2027 1463.36 37.7946 1453.25 24.5373H1453.31ZM300.841 617.303C290.455 614.237 280.287 610.984 270.49 607.639C280.318 602.033 291.664 596.302 304.251 590.51C303.755 594.134 303.259 597.727 302.825 601.32C302.825 601.351 302.825 601.382 302.825 601.413C302.143 606.772 301.461 612.069 300.872 617.334L300.841 617.303ZM1086.82 211.192C1098.6 225.936 1099 296.156 1072 415.533V415.595C1058.73 476.987 1038.27 537.326 1017 577.748C1001.69 583.2 986.991 588.156 972.389 592.771C968.452 556.407 975.769 491.483 992.509 415.657C1021.68 289.248 1065.7 209.457 1083.5 209.457C1083.59 209.457 1083.65 209.457 1083.75 209.457C1084.12 209.457 1084.64 209.333 1085.42 209.736C1085.82 210.015 1086.29 210.448 1086.85 211.13L1086.82 211.192ZM1005.41 597.541C994.121 614.608 986.34 619.502 983.116 619.472C982.992 619.472 982.899 619.472 982.775 619.472C979.799 619.472 976.916 615.042 974.839 607.608C984.914 604.418 995.082 601.103 1005.41 597.541ZM757.489 194.527C735.416 194.527 709.468 243.127 701.346 261.805C692.262 282.217 688.356 283.208 682.311 283.208H669.507C668.67 279.306 668.174 265.212 682.838 219.09C700.912 163.893 729.774 105.01 758.574 64.371C785.235 62.7603 812.02 62.0169 840.138 62.1098C843.548 83.0179 844.726 109.749 843.486 140.074C843.424 141.374 843.765 142.613 844.323 143.729C844.447 143.976 844.54 144.193 844.695 144.41C845.811 146.238 847.671 147.569 849.904 147.91C853.624 148.468 857.189 146.176 858.212 142.552L872.007 92.8369C875.356 81.0664 878.58 71.2474 881.804 62.9461C884.47 63.0391 887.105 63.163 889.771 63.2869C894.607 63.5037 899.475 63.7205 904.28 63.9993C904.528 63.9993 904.807 64.0303 905.055 64.0612C939.807 66.1056 973.165 69.6367 1004.97 74.5617C1007.61 74.9644 1010.3 75.3671 1012.91 75.8007C1016.32 76.3583 1019.7 76.9778 1023.08 77.5663C1026.92 78.2477 1030.76 78.8982 1034.55 79.6106C1037.28 80.1372 1039.94 80.6638 1042.64 81.1903C1045.49 81.7479 1048.31 82.3364 1051.13 82.9249C1050.33 86.518 1049.49 89.8633 1048.53 93.3015L1044.9 106.621C1044.9 106.621 1044.9 106.683 1044.9 106.714C1044.84 106.93 1044.81 107.147 1044.78 107.364C1044.22 110.771 1046.08 114.179 1049.37 115.48C1052.16 116.595 1055.22 115.882 1057.27 113.869C1057.33 113.807 1057.43 113.776 1057.49 113.683C1057.58 113.59 1057.64 113.466 1057.74 113.373C1057.86 113.249 1057.95 113.125 1058.05 112.971C1058.39 112.537 1058.67 112.072 1058.91 111.577C1063.29 103.275 1067.78 95.191 1072.24 87.4782C1073.42 87.757 1074.6 88.0358 1075.75 88.3146C1105.11 95.4388 1132.39 103.771 1157.13 113.218C1158.21 113.621 1159.33 114.055 1160.41 114.457C1162.46 115.263 1164.47 116.068 1166.52 116.873C1167.79 117.369 1169.03 117.896 1170.27 118.391C1170.05 195.55 1153.22 303.342 1123.83 415.347C1112.45 460.539 1099.15 506.042 1084.24 550.583C1069.52 557.15 1054.05 563.593 1037.99 569.788C1057.21 528.839 1075.07 474.076 1086.97 418.909C1106.75 331.56 1120.23 228.724 1098.84 201.961C1097.54 200.32 1096.15 199.05 1094.78 198.028C1094.29 197.656 1093.76 197.315 1093.26 197.005C1093.23 197.005 1093.2 196.943 1093.17 196.943C1089.85 194.899 1086.57 194.311 1083.99 194.28C1083.81 194.28 1083.62 194.28 1083.4 194.28C1047.54 194.28 1002.31 306.037 977.753 412.064C960.237 491.359 952.921 559.566 957.757 597.232C942.814 601.723 927.624 605.966 911.751 610.117C919.005 550.552 931.778 483.616 948.86 415.75C966.003 349.464 986.898 283.394 1009.31 224.697C1010.18 222.405 1009.87 219.834 1008.47 217.82C1008.32 217.604 1008.13 217.418 1007.95 217.232C1007.82 217.046 1007.67 216.891 1007.51 216.736C1007.39 216.612 1007.3 216.489 1007.17 216.396C1006.15 215.435 1004.88 214.754 1003.45 214.506C1002.55 214.351 1001.65 214.351 1000.79 214.506H954.843C951.433 214.506 948.457 216.829 947.62 220.113L844.695 625.543C829.908 628.516 814.686 631.335 798.627 633.999L853.593 419.9C880.254 409.028 897.676 396.824 902.048 385.116C904.249 379.169 903.753 372.509 900.653 366.345C896.591 358.291 888.438 351.818 878.89 349.03C877.061 348.503 874.797 348.008 872.162 347.574L903.908 223.892C904.466 221.661 904.001 219.307 902.575 217.48C901.459 216.055 899.878 215.126 898.141 214.754C897.521 214.599 896.87 214.475 896.219 214.475H856.228C855.391 213.236 854.089 210.913 852.942 207.196C852.26 204.966 850.586 203.293 848.539 202.488C847.392 201.961 846.09 201.744 844.757 201.868C841.285 202.209 838.495 204.935 838.092 208.404C833.163 250.468 825.196 296.682 814.624 344.693C784.398 344.755 745.429 346.118 699.548 348.844C696.974 348.999 694.308 349.185 691.611 349.371C702.648 323.166 710.553 321.617 710.646 321.617H766.789C772.679 321.617 777.392 318.086 779.438 312.17C779.624 311.674 779.717 311.148 779.779 310.621C784.646 270.261 787.188 218.502 771.811 201.156C771.315 200.598 770.788 200.072 770.261 199.576C766.665 196.169 762.325 194.342 757.551 194.342L757.489 194.527ZM791.9 431.454C790.226 431.826 734.517 445.238 658.564 465.836C659.37 459.703 660.703 452.92 662.842 445.331L679.676 384.806C682.807 373.624 685.814 364.455 688.666 356.867C692.541 356.588 696.323 356.309 699.951 356.092C744.561 353.459 783.034 352.066 813.012 351.973C808.331 372.912 803.154 394.16 797.542 415.564C796.24 420.737 794.907 425.91 793.574 431.051C793.016 431.175 792.489 431.299 791.931 431.454H791.9ZM642.846 628.578C646.69 632.574 651.434 634.711 656.611 634.773C687.736 636.167 719.109 556.469 731.293 521.808C733.029 516.201 731.2 512.546 729.96 510.843C729.805 510.626 729.588 510.378 729.371 510.13C727.976 508.489 725.248 506.32 720.535 506.32H663.245C660.889 502.913 656.518 492.258 657.789 473.146C717.838 456.792 767.285 444.433 791.435 438.826C771.811 512.577 748.375 583.138 723.016 644.468C674.654 649.827 626.199 652.584 578.798 652.677C579.945 639.574 581.464 626.534 583.355 613.772C593.089 548.322 603.289 544.977 605.242 544.977H626.509C627.315 544.977 627.811 545.07 627.997 545.132C630.074 548.013 630.074 563.19 630.074 569.509C629.454 585.957 630.229 615.445 642.598 628.299C642.66 628.361 642.691 628.392 642.753 628.454C642.753 628.454 642.784 628.516 642.815 628.516L642.846 628.578ZM850.803 229.002C851.795 229.374 852.849 229.56 853.965 229.56H886.547L856.662 345.963C849.19 345.437 840.293 345.065 830.125 344.91C838.836 304.767 845.811 265.646 850.803 228.971V229.002ZM870.333 354.574C872.906 354.977 875.077 355.442 876.844 355.937C884.532 358.168 891.042 363.278 894.235 369.597C895.785 372.695 897.242 377.465 895.32 382.669C892.313 390.691 879.262 401.068 855.794 411.258L870.364 354.543L870.333 354.574ZM665.074 380.562L648.241 441.087C645.171 452.145 643.559 461.717 642.846 470.111C605.211 480.425 563.483 492.32 521.352 505.112C530.157 477.173 538.558 448.397 546.432 419.064C550.339 403.298 553.997 387.687 557.438 372.261C597.46 366.686 637.917 361.389 672.111 358.26C669.755 365.044 667.399 372.447 665.136 380.593L665.074 380.562ZM321.797 573.412C321.859 572.916 321.952 572.421 322.014 571.925C322.572 568.27 323.161 564.584 323.75 560.867C323.843 560.31 323.936 559.752 324.029 559.194C324.619 555.508 325.239 551.822 325.89 548.136C325.983 547.61 326.076 547.052 326.169 546.526C326.82 542.778 327.471 539.03 328.153 535.251C328.246 534.755 328.339 534.291 328.432 533.795C329.145 529.923 329.858 526.051 330.602 522.149C330.664 521.87 330.726 521.591 330.757 521.312C337.298 486.899 345.203 451.433 354.38 415.75C356.054 409.121 357.79 402.555 359.526 395.988C368.671 395.368 378.127 394.656 387.892 393.882C386.435 399.953 384.978 406.055 383.614 412.188C372.639 461.655 363.742 516.139 362.13 558.699C347.869 564.15 334.26 569.633 321.549 575.085C321.642 574.527 321.704 574 321.797 573.443V573.412ZM245.689 598.378C245.689 598.378 245.658 598.378 245.627 598.378C235.614 594.351 225.787 590.076 216.021 585.43L263.608 400.169C277.001 400.046 291.633 399.612 307.444 398.93L255.796 602.311C255.61 602.249 255.455 602.188 255.269 602.126C252.045 600.918 248.851 599.679 245.658 598.409L245.689 598.378ZM308.87 223.861C309.428 221.63 308.963 219.276 307.537 217.449C306.111 215.621 303.972 214.568 301.647 214.568H261.097C259.919 212.957 257.904 209.117 256.54 202.426C256.354 201.528 256.013 200.691 255.548 199.948C313.396 166.774 382.529 138.029 459.505 115.356C478.106 109.904 497.109 104.793 516.392 100.116C516.578 100.085 516.764 100.023 516.919 99.9921C526.065 97.7619 535.303 95.6556 544.572 93.6113C545.471 93.4254 546.339 93.2086 547.238 93.0227C556.012 91.1023 564.847 89.3058 573.714 87.5712C574.272 87.4782 574.83 87.3543 575.357 87.2614C579.604 153.455 567.73 254.99 542.867 367.088C531.862 368.637 520.98 370.186 510.316 371.735C507.216 372.168 504.116 372.633 501.078 373.066C506.627 344.105 511.029 314.524 513.137 288.01C516.268 248.548 514.346 215.838 503.434 202.054C500.334 198.151 496.892 196.138 493.792 195.178C491.932 194.589 490.165 194.403 488.677 194.403C488.677 194.403 488.646 194.403 488.615 194.403C488.429 194.403 488.212 194.403 488.026 194.403C487.747 194.403 487.437 194.465 487.158 194.465C486.445 194.465 485.701 194.527 484.988 194.651C484.864 194.651 484.74 194.713 484.647 194.713C468.96 197.439 451.445 219.586 432.565 260.504C416.475 295.351 401.533 339.397 389.69 386.541C379.987 387.315 370.593 388.027 361.448 388.647C363.308 381.708 365.199 374.832 367.121 367.987C367.896 365.199 368.702 362.442 369.477 359.654C370.438 356.278 371.43 352.933 372.391 349.588C379.15 326.511 386.28 303.776 393.689 281.691C393.689 281.629 393.751 281.536 393.751 281.474C395.797 275.403 397.874 269.394 399.952 263.415C401.874 257.902 403.796 252.419 405.78 246.999C405.811 246.906 405.842 246.813 405.904 246.689C408.601 239.255 411.329 231.914 414.119 224.666C414.243 224.387 414.274 224.077 414.336 223.799C414.367 223.644 414.429 223.458 414.46 223.303C414.522 222.993 414.522 222.714 414.553 222.405C414.553 222.25 414.615 222.095 414.615 221.909C414.615 221.723 414.584 221.537 414.553 221.352C414.553 221.228 414.553 221.135 414.553 221.011C414.181 217.82 411.763 215.188 408.539 214.599C407.64 214.444 406.741 214.444 405.904 214.599H360.084C356.674 214.599 353.698 216.922 352.861 220.206L309.335 391.682C293.555 392.395 278.954 392.828 265.499 392.983L308.932 223.892L308.87 223.861ZM443.384 529.799C420.598 537.388 398.37 545.101 377.383 552.907C378.561 530.79 381.63 503.718 386.962 472.31C387.83 467.23 388.729 462.057 389.721 456.792C389.783 456.482 389.845 456.172 389.907 455.831C392.294 442.977 395.053 429.472 398.184 415.378C399.89 407.696 401.688 400.108 403.548 392.581C405.47 392.426 407.392 392.271 409.345 392.085C426.427 390.66 452.871 387.098 484.12 382.669C482.26 391.682 480.214 401.006 478.013 410.608C477.641 412.219 477.269 413.829 476.897 415.471C476.897 415.502 476.897 415.564 476.866 415.595C476.804 415.874 476.742 416.153 476.68 416.4C467.162 460.168 455.413 498.546 443.446 529.799H443.384ZM435.355 291.726C435.51 291.355 435.665 290.952 435.789 290.58C436.409 289.032 437.029 287.545 437.649 285.996C438.145 284.788 438.641 283.549 439.137 282.341C439.447 281.629 439.757 280.916 440.067 280.204C442.02 275.589 444.035 271.066 446.019 266.699C448.003 262.424 449.895 258.459 451.755 254.773C469.766 219.09 482.725 209.178 487.964 209.178C488.026 209.178 488.088 209.178 488.15 209.178C488.398 209.178 488.677 209.147 489.049 209.178C489.669 209.271 490.506 209.674 491.684 211.161C498.474 219.71 501.357 245.016 498.567 283.766C496.768 308.856 492.552 339.614 485.515 375.142C453.274 379.695 425.993 383.412 408.632 384.868C407.516 384.961 406.4 385.054 405.284 385.147C413.964 351.384 424.195 319.418 435.293 291.634L435.355 291.726ZM365.788 229.467H396.355C394.743 233.834 393.131 238.295 391.55 242.755C376.701 283.704 362.936 327.193 350.412 372.602C348.83 378.301 347.249 383.97 345.73 389.7C338.569 390.165 331.594 390.567 324.805 390.908L365.788 229.467ZM388.047 619.441C388.047 619.441 387.892 619.441 387.799 619.441C387.21 619.41 386.249 619.812 384.42 617.551C378.809 610.582 375.988 590.913 377.042 560.619C397.006 553.185 418.18 545.751 440.005 538.441C420.567 586.886 401.037 616.281 389.814 619.193C389.194 619.348 388.605 619.441 388.047 619.441ZM491.312 418.785C491.405 418.383 491.498 418.011 491.591 417.608C494.412 405.59 497.14 393.107 499.652 380.438C503.496 379.881 507.402 379.323 511.339 378.766C521.135 377.372 531.149 375.947 541.224 374.522C538.186 387.965 534.993 401.532 531.583 415.223C522.84 447.778 513.447 479.713 503.558 510.533C489.483 514.9 475.44 519.33 461.52 523.852C473.145 491.452 483.5 454.995 491.281 418.816L491.312 418.785ZM174.293 291.541C174.79 290.952 175.286 290.364 175.72 289.713C175.906 289.403 176.061 289.094 176.247 288.784C176.557 288.226 176.898 287.7 177.177 287.111C177.208 287.018 177.239 286.894 177.301 286.801C177.611 286.027 177.921 285.253 178.138 284.447L188.151 244.521C204.086 232.255 221.477 220.422 240.14 209.055L193.607 389.948C156.251 385.363 118.057 378.828 109.067 365.571C104.944 359.499 104.014 345.561 104.2 333.171C111.485 321.338 120.227 309.537 130.396 297.89H160.839C165.799 297.89 170.573 295.567 173.921 291.943C174.045 291.819 174.138 291.665 174.262 291.51L174.293 291.541ZM117.84 515.984L123.017 495.82C124.04 493.094 123.761 490.059 122.211 487.488C121.684 486.62 121.002 485.784 120.227 485.072C117.933 482.872 114.678 481.479 111.516 481.448L93.2562 480.983C85.4129 465.991 80.4217 450.411 78.4376 434.583C74.8415 405.652 81.3518 375.483 97.2864 345.406C97.8444 354.884 99.4565 364.177 103.177 369.628C111.826 382.39 136.844 390.134 191.809 396.948L153.027 547.796C139.417 537.543 127.637 526.888 117.871 516.015L117.84 515.984ZM251.239 225.967C253.44 228.135 255.982 229.436 258.803 229.436H291.881L249.875 393.014C234.095 392.952 220.33 392.457 208.643 391.527L251.208 225.967H251.239ZM322.913 398.156C329.672 397.815 336.647 397.382 343.777 396.948C342.475 401.935 341.142 406.891 339.871 411.878C332.679 440.003 326.231 467.973 320.619 495.386C320.619 495.479 320.588 495.541 320.557 495.634C319.658 500.001 318.79 504.369 317.953 508.705C317.86 509.139 317.798 509.573 317.705 509.975C316.93 514.002 316.155 517.998 315.411 521.963C315.287 522.582 315.194 523.202 315.07 523.821C314.357 527.631 313.675 531.441 312.993 535.22C312.869 535.901 312.745 536.614 312.621 537.295C311.97 541.012 311.319 544.729 310.699 548.446C310.575 549.128 310.451 549.84 310.358 550.521C309.738 554.269 309.118 557.986 308.529 561.672C308.436 562.261 308.343 562.88 308.25 563.469C307.63 567.279 307.072 571.089 306.483 574.837C306.421 575.301 306.328 575.766 306.266 576.262C305.987 578.213 305.677 580.164 305.398 582.085C293.152 587.66 281.961 593.205 272.009 598.656L322.913 398.094V398.156ZM315.318 621.33C315.318 621.33 315.318 621.33 315.318 621.299C315.752 617.52 316.186 613.71 316.682 609.869C316.682 609.652 316.744 609.467 316.744 609.25C317.209 605.502 317.705 601.723 318.201 597.913C318.232 597.603 318.294 597.293 318.325 596.984C318.821 593.267 319.348 589.519 319.875 585.74L320.061 584.532C320.123 584.129 320.185 583.696 320.247 583.262C333.175 577.655 347.094 572.018 361.82 566.35C361.82 567.589 361.758 568.859 361.758 570.067C361.603 596.395 364.765 616.932 372.732 626.844C377.6 632.915 383.273 634.247 387.241 634.277C387.427 634.277 387.613 634.277 387.83 634.277C388.946 634.277 390.062 634.185 391.178 633.968C412.848 629.972 437.463 588.063 458.327 532.339C472.339 527.755 486.538 523.233 500.799 518.772C485.918 564.398 469.952 607.453 453.429 646.389C404.044 641.154 357.635 632.729 315.256 621.33H315.318ZM107.331 496.315L105.967 501.612C104.665 499.816 103.425 498.019 102.185 496.192L107.3 496.315H107.331ZM206.845 398.528C218.594 399.519 232.359 400.077 248.045 400.2L202.226 578.647C189.236 571.863 177.115 564.708 166.016 557.243L206.845 398.528ZM518.686 513.259C561.158 500.249 603.599 488.076 642.381 477.359C641.854 501.086 649.357 512.732 651.434 515.458C652.178 516.449 652.953 517.285 653.728 518.029C656.053 520.259 658.564 521.405 661.199 521.405H715.265C690.588 590.138 666.407 620.37 657.014 619.657C656.053 619.595 654.999 619.657 653.418 618.109C647.527 611.821 644.272 593.112 645.14 570.036C645.14 555.137 645.14 541.694 638.847 534.848C636.088 531.72 632.089 529.892 626.23 529.892H604.932C604.498 529.892 604.033 529.954 603.568 530.047C586.641 531.007 576.628 554.115 568.102 611.48C566.087 624.892 564.506 638.707 563.328 652.646C530.808 652.274 499.28 650.725 469.363 647.999C486.631 606.896 503.248 561.425 518.655 513.259H518.686ZM812.237 419.343C818.158 396.762 823.583 374.244 828.513 352.004C838.619 352.127 847.423 352.437 854.833 352.933L838.092 418.166C829.753 421.108 820.514 424.02 810.346 426.777C810.997 424.299 811.617 421.821 812.268 419.343H812.237ZM960.733 229.529H991.114C970.064 285.934 950.41 348.689 934.041 411.909C916.215 482.748 903.04 552.566 895.847 614.206C885.214 616.839 873.712 619.471 861.033 622.197L960.702 229.529H960.733ZM1138.49 419.219C1167.36 309.165 1184.22 202.891 1185.34 125.02C1219.47 140.321 1248.3 157.946 1271.15 177.553C1269.35 202.24 1275.05 218.254 1281.29 225.162C1281.94 225.874 1282.59 226.493 1283.27 227.02C1283.8 227.423 1284.32 227.732 1284.85 228.042C1285.01 228.135 1285.13 228.259 1285.28 228.321C1286.68 229.033 1288.11 229.405 1289.63 229.405H1315.17C1324.35 245.729 1330.08 262.796 1332.19 280.266C1332.31 281.133 1332.34 282 1332.38 282.899V283.394C1332.22 284.014 1332.03 284.602 1331.85 285.16C1331.66 285.686 1331.51 286.213 1331.32 286.709C1331.32 286.74 1331.32 286.77 1331.29 286.832C1331.1 287.297 1330.92 287.762 1330.73 288.164C1330.73 288.226 1330.67 288.257 1330.67 288.319C1330.48 288.722 1330.27 289.125 1330.05 289.496C1330.02 289.558 1329.99 289.62 1329.96 289.682C1329.74 290.023 1329.52 290.364 1329.28 290.704C1329.21 290.766 1329.18 290.828 1329.12 290.89C1328.87 291.2 1328.59 291.479 1328.31 291.757C1328.25 291.819 1328.16 291.881 1328.1 291.943C1327.82 292.191 1327.51 292.47 1327.17 292.687C1327.07 292.749 1326.98 292.811 1326.89 292.873C1326.55 293.089 1326.18 293.306 1325.8 293.523C1325.68 293.585 1325.56 293.647 1325.43 293.709C1325.03 293.895 1324.63 294.081 1324.16 294.235C1324.01 294.297 1323.85 294.328 1323.7 294.39C1323.23 294.545 1322.73 294.7 1322.21 294.824C1322.02 294.886 1321.8 294.917 1321.62 294.948C1321.06 295.072 1320.5 295.196 1319.91 295.289C1319.7 295.32 1319.45 295.351 1319.23 295.382C1318.58 295.474 1317.96 295.567 1317.25 295.66C1317 295.66 1316.72 295.722 1316.47 295.722C1315.73 295.815 1314.95 295.877 1314.12 295.939C1313.9 295.939 1313.65 295.939 1313.43 295.97C1312.5 296.032 1311.54 296.094 1310.52 296.125C1308.01 296.218 1305.19 296.28 1301.99 296.28H1266.1C1266.1 296.28 1266.03 296.28 1266 296.28C1249.7 296.373 1234.5 321.246 1220.77 370.31L1188.47 494.333C1162.46 511.338 1133.81 527.321 1103.15 541.972C1116.27 501.767 1128.17 460.509 1138.56 419.157L1138.49 419.219ZM1307.42 311.148C1309.06 311.117 1310.61 311.055 1312.1 310.962C1312.41 310.962 1312.72 310.9 1313.03 310.9C1314.21 310.838 1315.39 310.745 1316.5 310.621C1316.88 310.59 1317.25 310.528 1317.62 310.497C1318.61 310.373 1319.6 310.28 1320.53 310.126C1320.91 310.064 1321.25 310.002 1321.62 309.94C1322.52 309.785 1323.39 309.63 1324.19 309.475C1324.53 309.413 1324.87 309.32 1325.18 309.227C1325.99 309.041 1326.76 308.856 1327.51 308.608C1327.82 308.515 1328.1 308.422 1328.38 308.329C1329.12 308.081 1329.83 307.833 1330.52 307.555C1330.76 307.462 1331.01 307.338 1331.26 307.245C1331.66 307.059 1332.07 306.904 1332.44 306.718C1327.66 365.663 1284.11 426.529 1207.16 481.293L1235 374.336C1251.96 314.183 1265.88 311.303 1265.97 311.303C1266.41 311.303 1266.84 311.272 1267.27 311.179H1301.87C1303.76 311.179 1305.53 311.179 1307.26 311.117C1307.3 311.117 1307.36 311.117 1307.39 311.117L1307.42 311.148ZM1285.84 191.213C1293.31 198.771 1299.92 206.577 1305.65 214.537H1291.8C1289.97 211.966 1286.53 204.532 1285.81 191.213H1285.84ZM1343.97 231.264C1344.13 231.449 1345.3 233.339 1343.01 242.445L1340.84 250.964C1338.45 243.654 1335.48 236.405 1331.91 229.281C1341.96 229.343 1343.72 230.923 1343.97 231.233V231.264ZM857.964 87.5092C857.375 78.3097 856.445 69.8226 855.267 62.0169C858.894 62.0788 862.49 62.1718 866.086 62.2647C863.42 69.6057 860.723 77.938 857.995 87.5092H857.964ZM669.848 72.1147C691.859 69.3579 714.738 67.1278 739.353 65.3622C711.886 106.59 685.318 162.128 668.36 214.258C650.163 271.655 652.736 286.244 657.634 292.965C657.696 293.027 657.758 293.089 657.82 293.151C660.207 296.435 663.772 298.231 667.833 298.231H682.435C698.649 298.231 706.151 288.04 715.11 267.938C728.534 237.056 750.08 209.55 757.644 209.55C758.233 209.55 758.853 209.643 759.659 210.294C759.876 210.479 760.062 210.665 760.279 210.913C767.068 218.533 771.78 247.711 764.867 306.625H710.274C697.749 306.625 685.814 321.493 674.654 350.827C640.366 353.862 599.507 359.159 558.926 364.827C583.479 252.326 595.011 150.667 590.392 84.3188C616.495 79.4867 643.187 75.398 669.817 72.1147H669.848ZM168.899 260.101L163.722 280.761C163.722 280.761 163.722 280.823 163.722 280.854C163.474 281.845 161.986 282.961 160.901 282.961H144.253C151.756 275.372 160.002 267.721 168.93 260.101H168.899ZM740.438 642.641H740.283C765.642 580.164 788.986 508.829 808.331 434.737C818.189 432.167 827.428 429.41 835.984 426.498L782.011 636.755C768.153 638.924 754.141 640.875 740.438 642.61V642.641Z" fill="#262626"/>
<path d="M1202.08 595.962H1193.06C1166.67 595.962 1155.54 625.914 1148.79 652.057L1126.34 740.645C1120.67 763.443 1116.2 793.519 1127.09 807.458C1130.93 812.352 1136.26 814.954 1142.56 814.954H1151.58C1177.96 814.954 1189.09 785.001 1195.85 758.858L1218.29 670.27C1226.54 637.127 1226.29 614.639 1217.55 603.458C1213.7 598.563 1208.37 595.962 1202.08 595.962Z" fill="#262626"/>
</svg>
