<svg width="2764" height="498" viewBox="0 0 2764 498" fill="none" xmlns="http://www.w3.org/2000/svg">
<path d="M701.885 476.826L702.379 482.762L701.885 489.192L702.379 495.128L687.046 494.139H683.088L679.131 494.633L675.174 494.139L667.26 495.128L663.303 494.633L659.841 494.139L656.378 494.633L652.916 495.623L648.959 494.139L644.012 495.128L639.066 494.633L635.109 495.128L631.152 494.633L628.184 495.128L625.216 494.139L619.775 495.623L614.334 494.633L613.84 484.741L614.829 474.848L613.84 468.912L614.829 462.977V452.095L614.334 447.148L614.829 444.181L614.334 441.213V427.363L614.829 421.922L613.84 415.987L614.829 410.051V398.18L614.334 392.244L614.829 387.298V382.352L613.345 379.384L614.829 376.416L613.84 371.47L614.829 361.577V356.631L613.84 351.684L614.334 346.738L613.84 340.802L614.829 334.867L614.334 328.931L614.829 322.996L613.84 318.049L614.829 313.103L614.334 309.146V305.189L614.829 299.253L614.334 293.318L614.829 287.382V275.511L614.334 269.575L613.84 265.618L614.334 261.661L614.829 255.725L614.334 249.79V243.854L613.345 238.908L614.829 233.962L613.84 228.026L614.829 222.09L613.84 216.155L614.334 210.219L613.84 205.273L614.829 200.326L613.345 195.38L614.334 190.434L614.829 186.477V177.573L614.334 172.627L613.345 169.659L614.334 166.691V147.895L614.829 142.949L614.334 138.003V133.056L613.84 130.089L614.829 127.121L613.84 124.153L614.829 121.185V116.239L614.334 111.292V105.357L614.829 99.9159L620.765 98.9267L626.7 100.411L632.636 99.4213L639.066 99.9159L642.529 99.4213L646.486 99.9159L652.421 99.4213L658.851 99.9159H668.744L673.196 99.4213L678.142 98.9267L683.088 99.9159H690.508L693.476 99.4213H696.444L699.906 100.411L702.379 99.4213L701.885 108.325V117.228L702.874 123.164L701.39 129.099L701.885 132.067V135.035L702.379 139.981V148.885L701.39 152.842L701.885 158.777V164.713L701.39 167.681L701.885 170.648L702.874 173.616L701.885 176.584L702.874 180.541L701.885 184.498L702.379 188.455L701.885 192.412L701.39 197.359L702.379 207.251L701.885 212.198L701.39 218.133L701.885 224.069L701.39 230.004L701.885 235.94L702.379 240.886L701.39 245.833V250.779L701.885 255.725L702.874 260.672L701.885 265.618L701.39 268.586V271.554L702.379 277.489L701.885 283.425L702.874 289.36L701.885 295.296L702.874 298.264L701.885 301.232L702.379 306.178L701.885 311.124L701.39 315.081V319.038L702.379 324.974L701.885 330.91L702.874 333.877L701.885 336.845V341.792L702.874 351.684L701.39 356.631L701.885 361.577V366.523L702.379 372.459L701.39 384.33L700.401 390.266L701.885 476.826ZM1312.76 397.685L1311.77 392.244V386.803L1312.76 382.846L1311.27 379.384L1312.26 374.437V369.491L1311.77 365.534V362.072L1312.76 358.114L1311.77 354.157L1311.27 350.2L1311.77 346.243L1312.76 337.835L1311.27 328.931H1318.2L1322.15 329.426L1326.11 328.436L1330.07 329.426L1334.03 328.931L1338.48 328.436H1342.93L1345.9 329.426L1348.37 328.931H1353.81L1359.25 328.436H1370.63L1376.07 329.426L1381.02 328.436L1383.49 328.931L1385.96 328.436L1388.44 329.426L1391.4 328.931H1400.31L1406.24 329.92L1412.67 328.436L1418.11 328.931L1423.55 328.436H1433.45V344.265L1432.95 346.738V354.157L1433.45 358.114V368.996L1432.46 372.459L1433.45 375.427L1432.95 379.878V383.835L1433.45 388.287V392.739L1433.94 397.685L1433.45 402.137V407.578L1432.95 413.019L1433.45 418.46V424.395L1433.94 428.847L1432.95 437.75L1433.45 441.707V451.6L1432.46 458.03L1433.45 463.966L1432.46 470.396L1433.94 476.826L1432.46 485.73L1433.45 494.633L1435.92 495.128L1438.89 494.139L1442.85 494.633H1447.3L1450.26 495.128L1453.23 494.633H1463.62L1467.08 494.139H1470.54L1473.02 494.633H1475.49L1481.43 494.139L1487.36 494.633L1493.3 494.139H1498.74L1502.2 494.633H1506.16L1508.63 495.128L1511.1 494.633L1516.05 494.139L1521 494.633L1521.99 491.665L1520.5 488.698V485.73L1521 482.762L1520.01 478.805L1521 474.848L1520.5 471.88L1521 468.912L1520.5 465.945L1521 462.977V457.041L1520.5 451.106V442.202L1521 439.234L1521.49 434.288L1520.5 429.342L1521 425.385V421.922L1520.5 417.965V406.094L1521.49 401.148L1520.5 396.201L1521 393.233L1520.5 390.266L1521.99 385.319L1520.5 380.373L1521.49 377.405L1520.5 374.437L1521.49 370.48L1520.5 366.523V343.77L1521 340.802L1520.01 337.835L1520.5 334.867V329.92L1517.53 326.953V321.512V316.071V313.103V310.135V303.705V297.275V293.318V288.866L1520.01 285.403L1517.53 281.446V278.479V272.048V265.618L1520.5 257.704L1521.49 254.736L1520.5 251.768L1521.49 248.801L1520.5 245.833L1521.49 239.897L1521 233.962L1521.99 229.015L1520.5 224.069L1521.49 219.123L1520.5 214.176L1521.49 208.241L1521 202.305L1520.5 197.359L1521 192.412L1521.49 188.455L1520.5 184.498V172.627L1521 168.67L1520.5 164.713L1521.99 160.756L1520.01 156.799L1521.49 150.863L1520.5 144.928V135.035L1521.99 132.067L1520.5 129.099V103.873L1521 99.4213L1517.53 99.9159L1513.58 99.4213L1507.15 99.9159H1501.21L1495.77 99.4213H1490.82L1485.38 98.9267L1479.94 99.9159L1476.48 98.9267L1473.02 99.4213H1467.58L1462.63 99.9159H1457.19L1451.25 99.4213L1445.81 99.9159H1439.38L1432.95 99.4213L1432.46 104.862L1433.94 110.303V113.766L1433.45 117.228L1432.95 122.174L1433.45 127.121L1432.95 133.056L1433.45 138.992L1432.46 142.949L1433.94 146.906L1432.46 153.336L1433.45 159.767V171.143L1432.95 175.1L1433.45 181.036L1432.95 186.477V190.928L1433.45 194.886L1432.46 200.326L1433.45 205.767L1432.95 210.219V214.671L1433.45 219.123V223.574L1432.46 231.983L1433.45 241.381H1421.08L1418.11 240.392L1415.64 241.381L1410.2 240.886L1404.76 241.381H1400.8L1396.84 241.876L1392.89 240.886L1388.93 241.876H1380.03L1374.09 240.392L1368.16 241.381L1362.22 240.886L1356.28 241.876L1352.82 240.886L1349.36 243.854H1345.9H1341.94H1336.5H1331.55H1328.58H1325.62L1318.69 240.886L1311.77 241.381V226.047L1312.76 220.606L1311.77 214.671L1311.27 209.23L1311.77 203.789V197.359L1312.76 192.412L1311.27 187.466V176.089L1312.26 173.122L1311.77 170.154L1312.26 167.681V161.25L1311.77 156.799L1312.76 152.347L1311.77 147.401L1311.27 141.96L1312.26 136.024L1311.77 130.583V118.712L1312.26 108.819L1311.27 99.9159H1300.39L1295.44 99.4213L1290.99 99.9159H1280.11L1277.14 99.4213L1274.18 99.9159L1271.21 98.9267L1268.73 99.4213L1262.3 98.9267L1255.87 99.9159H1247.46L1243.51 98.9267L1239.55 99.9159H1231.64L1224.22 99.4213L1224.71 104.862L1224.22 111.292L1224.71 114.26V117.228L1223.72 120.196L1224.71 123.164L1224.22 129.099V140.97L1223.23 143.938L1224.71 146.906L1223.23 150.863L1224.22 154.326L1224.71 158.283L1224.22 161.745V165.702L1224.71 169.165L1224.22 175.595L1224.71 181.53L1226.2 183.509V188.95V193.896V202.8V207.746V212.198V217.144V222.09V231.488V235.445V238.908V243.36V246.822V250.779V257.209V263.145V268.091V272.543V277.984V283.425V287.877V292.328V296.78V300.242V303.21V306.673V320.028V324.974V329.92V334.867V338.329L1224.22 339.318L1223.72 344.265L1224.71 349.706L1223.23 354.157L1224.71 358.609L1223.23 361.577L1224.71 364.545L1223.23 368.996L1224.22 373.448L1224.71 376.416L1223.72 382.352L1224.71 385.319V396.696H1227.19L1231.14 397.191L1236.58 396.696H1241.53L1244.99 397.191L1248.95 396.696L1253.9 398.18L1259.34 397.191H1261.81L1264.28 396.696L1269.72 397.191L1275.16 396.696L1279.62 397.191H1296.43L1302.37 396.696L1306.82 397.685H1312.76ZM1928.57 495.623V486.719L1929.07 482.762L1928.08 478.805L1928.57 475.837L1928.08 472.869V469.902L1927.59 466.934L1928.57 462.977L1927.59 459.02L1928.57 449.127L1927.59 444.181V439.234L1928.57 436.267L1927.59 433.299L1929.07 428.352L1928.57 423.406L1929.07 417.965L1927.59 412.03L1928.08 406.094V400.158L1928.57 395.212L1927.59 390.266L1928.57 384.33L1927.59 372.459V356.631L1928.08 351.684V329.92L1927.59 324.974L1928.57 321.017L1927.59 317.06L1928.57 314.092V311.124L1929.07 305.189L1928.08 299.253L1929.07 295.296L1927.59 291.339L1928.08 285.403V273.532L1927.59 267.597V259.682L1928.08 255.725L1927.59 251.768L1929.07 248.801L1928.08 245.833L1929.07 240.886L1928.08 235.94L1928.57 231.983L1928.08 228.026L1928.57 222.09L1927.59 216.155L1929.07 213.187L1928.08 210.219L1929.07 206.262L1927.59 202.305L1928.08 197.359V192.412L1928.57 186.477L1928.08 180.541L1929.07 174.606L1927.59 168.67L1928.08 165.702V162.734L1927.59 156.799L1928.57 144.928L1927.59 138.992L1928.57 134.046L1927.59 129.099L1928.57 126.131L1928.08 123.164L1929.07 119.207L1928.08 115.25V112.282L1927.59 109.314L1928.08 104.368V99.9159H1919.67L1915.22 98.9267L1911.26 100.411L1908.79 99.9159H1896.92L1891.48 99.4213H1885.54L1880.6 98.9267L1875.15 99.9159L1871.2 99.4213L1867.74 99.9159H1862.79L1857.35 100.411L1848.94 99.4213L1840.53 99.9159L1841.02 103.378V115.744L1840.53 119.701L1841.02 123.658V128.11L1840.53 133.056V140.97L1840.04 144.928L1840.53 149.379V155.809L1843.99 161.745V167.186V178.068V184.004V188.95V193.402V202.305V204.778V207.251V209.23V211.703V217.144V227.531V232.972V239.402V245.338V249.79V254.241V257.209V264.629V268.586V271.059V273.038L1841.02 286.393L1840.53 291.339L1834.59 291.834L1828.66 291.339H1823.22L1817.78 291.834L1811.84 290.844L1805.91 291.834L1802.94 290.844L1799.48 292.328L1796.01 291.339L1793.05 292.328L1785.63 290.844L1777.71 292.328L1771.78 290.844H1765.35L1758.92 288.866L1752.98 286.887L1748.03 283.425L1742.59 280.952L1738.64 277.489L1734.18 274.027L1732.7 271.554L1730.23 269.575L1728.74 267.102L1727.26 265.618L1725.78 260.672L1722.31 257.209L1721.32 251.274L1718.36 246.327L1715.39 228.521L1716.38 223.08L1715.88 218.133L1716.87 213.682L1716.38 209.725L1716.87 205.767L1715.88 201.81L1715.39 196.864L1715.88 192.412V182.52L1716.87 177.573L1716.38 172.132L1715.88 168.67V158.283L1716.87 152.347L1716.38 146.411V140.97L1715.88 135.53V132.067L1715.39 129.099L1716.38 124.648L1715.88 120.691V115.744L1716.38 110.303V99.4213L1713.41 98.9267L1710.44 99.9159H1707.97L1705.99 99.4213H1696.59L1693.62 99.9159L1688.68 99.4213H1678.29L1675.82 98.9267L1673.84 99.4213L1668.4 99.9159H1663.45L1658.01 98.9267L1652.07 99.9159L1647.13 98.9267L1641.69 99.4213L1634.76 99.9159H1628.33V114.26L1628.83 118.217L1628.33 123.164L1628.83 128.605L1628.33 133.551V138.497L1627.84 144.433L1628.83 149.874L1627.84 154.82L1628.33 159.767V166.197L1628.83 172.132V175.595L1628.33 179.552L1628.83 183.014V209.725L1628.33 216.155L1627.84 222.09L1628.33 228.521L1627.84 232.478L1628.33 236.929V240.886L1629.82 244.349V248.306L1630.31 251.768V256.22L1632.29 260.177L1633.28 267.102L1634.76 270.564L1635.75 274.027L1638.72 283.919L1652.07 310.135L1655.04 315.081L1658.51 319.533L1661.97 324.479L1665.92 328.436L1667.9 331.899L1671.86 334.372L1673.34 336.351L1675.82 338.329L1680.27 342.286L1686.2 348.222L1689.17 349.211L1692.63 353.168L1697.58 355.641L1700.55 357.62L1703.52 359.104L1707.47 362.566L1712.91 363.555L1717.86 366.523L1722.81 368.502L1727.75 369.986L1738.64 373.943L1744.57 375.427L1750.01 376.911L1752.98 377.9H1755.95L1778.21 378.889L1780.68 379.384L1783.65 378.889L1788.59 379.384L1793.54 378.889L1797 379.384H1799.97L1802.44 378.889H1804.92L1810.36 379.878L1815.8 378.889L1820.74 379.384L1825.2 378.889L1827.67 380.373L1830.14 379.384H1835.09L1841.02 378.889L1840.53 385.319V390.76L1841.02 393.728L1840.53 396.696L1840.04 401.642L1840.53 407.083H1836.57L1833.11 406.589L1823.22 407.578L1817.78 406.589L1811.84 407.578L1806.9 407.083H1797.99L1793.54 406.589L1788.1 407.578L1782.16 410.546H1778.7H1775.73H1769.8H1763.86H1758.92H1753.47H1749.52H1746.06H1743.58H1740.61H1727.75H1725.28H1722.81H1719.35H1716.38H1711.43H1706.98H1702.53H1698.08H1693.62H1688.68L1680.27 407.083L1674.83 407.578L1669.39 407.083L1664.94 406.094L1659.99 407.083L1654.05 406.589L1648.61 407.083H1641.19L1634.76 406.589L1628.33 407.578L1628.83 409.062V412.03L1628.33 416.976V421.922L1627.84 427.363L1628.33 432.804V447.148L1628.83 451.6L1627.84 456.052L1628.83 460.504L1627.84 464.461L1628.83 467.923V487.214L1628.33 494.633L1634.76 494.139H1641.69L1647.62 494.633H1653.56L1658.51 495.128L1662.96 494.633L1664.94 494.139H1667.41L1673.34 495.128L1679.28 494.139H1685.22L1691.15 494.633H1697.09L1702.03 494.139H1709.95L1713.9 494.633L1718.85 495.623L1724.29 494.139H1730.23L1735.67 494.633H1740.61L1743.58 495.623L1747.04 494.633L1751.99 495.128L1757.43 494.139L1760.4 495.128L1763.37 494.633L1769.3 495.128L1775.24 494.633H1779.69L1784.14 494.139L1788.1 495.623L1792.06 494.139H1802.44L1808.38 494.633L1814.31 494.139L1817.28 494.633L1820.25 494.139L1825.69 495.128L1830.64 494.633L1834.59 495.623L1838.55 494.139L1843 494.633H1847.46L1850.92 494.139L1854.87 494.633L1859.33 495.128L1863.78 494.633L1868.23 495.128L1872.68 494.139H1880.6L1884.06 494.633H1888.02L1892.96 494.139L1898.4 494.633L1904.34 495.623L1910.27 494.139L1913.24 495.128L1916.21 494.633L1922.64 494.139L1928.57 495.623ZM2150.67 98.9267H2145.22L2140.77 99.9159L2135.83 99.4213L2130.88 100.411L2127.91 98.9267L2125.44 100.411H2119.5L2114.06 99.9159H2103.68L2095.76 98.9267L2087.85 99.4213L2080.92 98.9267L2074 100.411L2072.02 99.9159L2069.55 100.905L2063.61 101.894L2057.67 103.378L2051.74 103.873L2045.8 105.852L2039.37 107.83L2034.43 108.819L2029.97 111.787L2025.52 113.271L2021.07 115.25L2016.13 117.228L2012.17 120.691L2007.72 123.164L2003.26 126.131L1996.34 132.067L1990.9 135.53L1986.45 139.981L1983.97 141.465L1982 143.938L1979.52 144.928L1978.53 147.895L1975.07 151.852L1971.11 155.809L1967.16 160.756L1963.69 166.197L1958.75 175.1L1956.27 177.079L1955.78 180.047L1953.31 182.025V185.487L1950.34 190.434L1948.36 195.875L1946.88 199.337L1945.89 202.8L1944.9 205.273V208.735L1942.42 214.176L1940.94 220.112V226.047L1938.96 231.488L1938.47 236.929L1937.97 243.854L1938.47 250.779L1937.48 257.209L1937.97 263.145L1936.98 265.123L1938.47 267.597L1937.97 270.07V272.543L1936.98 276.995L1938.47 281.446L1937.97 286.887V292.328L1937.48 297.275L1938.47 301.726L1937.48 306.673L1938.47 311.619L1937.48 316.071L1937.97 320.522L1937.48 322.501L1938.47 324.974L1937.97 329.426L1938.47 333.877L1937.48 338.824L1938.47 343.275L1938.96 347.233V350.695L1937.48 357.125L1938.96 363.061L1938.47 367.513L1937.97 371.47V376.416L1938.96 381.362L1937.97 386.309L1938.47 391.255L1937.48 394.717L1937.97 398.18L1938.47 404.61V410.546L1937.48 414.997L1938.47 418.954V434.288L1938.96 437.256L1938.47 441.707V446.159L1938.96 451.106V455.557L1937.97 461.987V467.923L1937.48 472.375L1937.97 476.332L1937.48 485.235L1937.97 494.633L1941.93 495.623L1945.39 494.633L1949.35 495.128L1952.81 494.139L1956.27 495.623L1960.23 494.633H1966.17L1972.6 494.139L1976.06 495.128L1979.52 494.633L1983.48 495.623L1987.93 494.633H1999.31L2003.76 494.139L2009.69 495.623L2016.13 494.633L2021.07 495.128L2025.52 494.139L2026.02 490.676V486.224L2025.52 483.257V480.289L2026.02 477.816V475.343L2025.52 472.375L2026.02 469.407V464.461L2026.51 461.493L2025.52 458.03V449.622L2026.51 446.159L2025.52 442.202L2026.02 439.729L2025.52 437.256L2026.02 434.783L2025.52 432.804L2026.51 429.342L2025.52 426.374V421.428L2023.05 413.513V409.556V405.105V393.233V388.287V383.341V379.384V375.921V366.029V361.082V356.136V350.2V344.265V341.297V337.835V335.856V333.383V311.124V305.683V300.242V294.307V290.35V279.468L2026.51 276.5L2026.02 270.07V261.661L2025.52 256.22L2026.02 250.779V241.876L2028 237.424L2028.49 232.972L2028.99 230.004L2029.97 226.542L2032.45 222.09L2033.93 217.144L2036.4 215.165L2037.89 212.198L2040.36 209.23L2042.34 206.262L2046.3 204.284L2048.28 200.821L2052.23 199.337L2055.2 195.875L2063.12 191.918L2069.55 190.434L2075.48 188.455L2081.42 187.466L2087.85 186.971L2094.28 187.466L2100.71 186.971L2103.18 188.455L2105.65 187.466L2108.13 186.971L2117.03 188.455L2122.47 186.971L2127.42 187.466H2150.17L2150.67 183.509L2149.68 179.552V175.595L2150.17 172.132L2149.68 166.691V161.745L2150.17 159.272L2149.68 156.799V146.411L2150.67 143.444L2149.68 139.981L2150.67 135.53L2150.17 131.078V125.637L2149.68 123.164L2150.17 120.691L2149.68 117.723V114.755L2150.67 112.282L2149.68 109.314L2150.17 104.368L2150.67 98.9267ZM2763.02 494.633V490.676L2762.53 486.719L2763.02 482.762V478.805L2762.53 475.837L2763.02 472.869L2763.52 466.934L2763.02 460.998L2764.01 458.03L2762.53 455.063L2763.52 452.095L2762.53 449.127L2763.52 446.159L2762.53 443.191V437.256L2763.02 431.32L2762.53 425.385L2763.02 419.944L2764.01 416.976L2763.02 414.008L2764.01 410.051L2763.02 406.094V400.158L2763.52 394.223L2763.02 388.287L2762.53 384.33V374.437L2763.02 368.502L2762.53 362.566V356.631L2763.02 350.695L2762.53 344.759L2764.01 341.792L2763.02 338.824L2763.52 335.856L2763.02 332.888L2763.52 327.942L2763.02 322.996L2762.53 317.06V311.124L2763.02 307.167L2762.53 303.21V283.425L2764.01 277.489L2763.02 271.554L2764.01 265.618L2760.55 259.682V244.843V239.897V236.929V233.962V228.026V222.09V212.198V207.251V202.305V198.348V190.434V186.477V182.52V178.563V173.616V168.67V146.906V143.938V140.97V136.024L2763.02 131.078L2763.52 127.121L2763.02 123.164V118.217L2762.53 113.271L2763.02 106.346V99.9159L2758.07 99.4213L2752.63 99.9159L2748.68 99.4213H2745.21L2739.28 99.9159H2733.34L2728.4 98.9267L2723.45 99.9159L2719.99 99.4213L2716.53 99.9159L2710.1 98.9267L2703.67 99.9159L2699.71 98.9267L2695.75 99.9159L2691.3 99.4213L2686.85 99.9159H2680.91L2675.47 99.4213L2674.98 102.884L2675.47 106.346L2675.97 109.314L2675.47 112.282L2675.97 114.755L2675.47 117.228L2674.48 123.164L2675.47 129.099L2675.97 132.562L2675.47 136.024L2674.98 139.981L2675.97 143.938L2675.47 149.874L2675.97 155.315L2674.48 158.283L2675.47 161.25V164.218L2675.97 167.681L2674.48 170.154L2675.47 172.627V178.563L2674.48 184.993L2675.97 191.423V196.864L2675.47 202.305L2674.48 205.767L2675.97 209.23V221.101L2675.47 231.488V241.381H2669.54L2663.6 241.876L2658.65 240.886L2654.2 241.876L2651.23 240.886L2647.77 239.402H2643.81H2639.36H2628.48H2625.02H2621.56H2611.17L2605.73 241.876L2600.78 240.886L2595.34 241.381H2570.61L2562.69 240.886L2554.29 241.381V237.919L2553.79 234.951L2555.28 231.488L2554.29 228.521L2554.78 224.563L2553.79 220.606L2554.29 216.155L2553.79 211.208V199.832L2554.78 197.359L2554.29 194.391L2553.79 188.95V178.563L2554.29 173.122L2553.79 168.67L2554.78 160.756L2554.29 156.799L2553.79 153.336V144.928L2554.78 141.96L2553.79 136.024V133.551L2554.78 129.099L2553.79 125.142V114.26L2554.78 106.841L2554.29 99.4213L2549.34 98.9267L2544.89 99.4213L2542.41 98.9267L2539.45 99.4213L2534.5 98.9267L2529.06 99.9159L2525.6 99.4213L2521.64 99.9159L2518.67 99.4213L2515.21 99.9159H2505.81L2502.35 99.4213L2498.39 99.9159L2492.95 99.4213L2488.01 99.9159L2483.06 99.4213L2478.61 99.9159H2472.18L2466.24 99.4213L2465.75 103.378L2466.74 106.841V114.26L2466.24 120.196L2466.74 126.131V136.519L2466.24 140.97L2466.74 145.422L2465.75 152.347L2466.74 158.777L2465.75 162.734L2466.74 166.197V174.111L2466.24 176.089L2467.23 178.563L2466.74 181.53V200.821L2466.24 203.789L2467.23 206.757L2466.74 210.219L2466.24 214.176L2465.75 217.144L2466.74 220.112V224.563L2467.23 229.015L2466.74 235.445V248.306L2466.24 252.263L2466.74 255.725L2466.24 258.693V261.661L2467.23 273.532L2465.75 277.489L2467.23 280.952L2466.24 285.403L2466.74 289.855V293.812L2466.24 297.275L2465.75 302.716L2466.74 307.662L2466.24 313.103L2466.74 318.049L2465.75 320.522L2466.24 322.501L2465.75 328.931L2466.74 334.867L2465.75 340.802L2466.74 346.738L2466.24 349.706L2466.74 352.674V356.136L2466.24 360.093V364.545L2466.74 368.996L2466.24 374.932L2466.74 380.868L2465.75 388.782L2466.74 396.696L2472.67 397.685L2479.1 396.201H2482.56L2486.52 396.696H2494.93L2500.37 397.191H2505.32L2510.26 397.685L2514.72 396.696H2522.63L2525.6 397.685L2528.57 397.191L2532.52 397.685L2535.98 397.191L2539.45 398.18L2543.4 396.696L2548.85 397.191L2553.79 396.696L2554.29 392.244V386.803L2554.78 380.868L2553.79 374.437L2554.78 369.986L2553.79 365.039V355.147L2554.78 350.695L2553.79 346.738L2554.29 343.275V340.308L2554.78 334.867L2553.79 328.931L2557.75 328.436L2561.71 328.931H2584.46L2587.92 329.426L2591.38 328.436L2593.36 329.426L2595.84 328.931L2601.77 329.92L2607.71 328.931L2609.68 329.426L2612.16 328.436H2616.61L2620.57 328.931L2624.03 329.426L2627 328.931L2630.46 329.426L2633.92 328.436L2637.88 329.426L2641.34 328.436L2644.8 328.931L2647.77 328.436L2652.72 329.92L2657.66 328.436L2660.63 328.931H2663.6L2669.54 329.426L2675.47 328.931V339.318L2674.98 341.792L2675.47 344.759L2674.98 347.727L2675.47 350.695L2674.98 353.663V356.631L2675.47 362.072V367.018L2674.48 371.964L2675.97 376.416L2675.47 380.373V384.825L2674.48 390.76L2674.98 397.191L2675.47 400.653L2675.97 404.61L2674.48 408.072L2675.47 412.03L2674.98 415.987L2675.47 420.438L2675.97 423.406V426.869L2675.47 432.804V443.686L2674.48 448.632L2675.47 453.579L2674.48 456.546L2675.97 459.02V474.848L2675.47 479.3L2675.97 487.214V494.633L2679.92 495.128L2684.87 494.633L2688.83 494.139H2695.75L2698.72 494.633L2703.67 495.128L2709.11 494.139L2714.55 495.128L2719.49 494.139L2722.96 495.128L2726.42 494.139H2738.78L2743.24 495.623L2747.19 494.139L2755.6 494.633H2763.02ZM2247.61 494.633L2247.12 491.171V483.751L2247.61 480.289L2248.6 474.848L2247.12 469.407L2247.61 462.977V456.546L2247.12 454.073V451.6L2247.61 448.632L2247.12 445.17V439.729L2247.61 433.793L2247.12 429.342V424.89L2248.11 422.417L2247.12 419.944L2247.61 415.987L2247.12 412.03L2248.11 407.578L2247.61 403.621L2248.11 397.685L2247.12 391.75L2247.61 385.319L2247.12 379.384L2250.58 379.878L2253.55 378.889L2256.52 380.373L2259.98 378.889H2263.94L2268.39 379.384L2271.85 379.878L2275.81 378.889L2279.76 379.384H2291.64L2298.07 379.878L2304.5 379.384L2306.97 378.889H2309.44L2311.92 379.384L2314.39 378.889L2318.84 379.878L2323.29 379.384H2328.73L2334.67 378.889L2338.63 379.878L2342.09 378.889H2358.91L2359.9 374.932L2358.41 370.975L2359.4 366.523L2358.91 362.072L2359.4 356.631L2358.41 351.19L2359.4 348.222L2358.91 345.254L2359.4 340.802L2358.41 336.351V328.931L2359.4 323.985L2358.91 319.038V313.103L2358.41 307.167L2359.9 304.694L2358.91 301.726L2359.4 296.78L2358.41 291.834H2355.94L2352.48 292.328L2347.53 291.339L2343.08 291.834H2317.85L2315.38 292.328L2312.9 291.834H2307.96L2303.51 292.328L2298.56 291.834H2294.11L2289.16 290.844L2283.72 291.834H2272.35L2267.89 291.339L2263.94 291.834L2256.02 291.339L2247.61 291.834L2248.6 288.371L2247.61 285.898L2248.11 282.93L2247.12 279.962L2247.61 275.511L2247.12 271.059V268.586L2247.61 266.113L2247.12 263.145L2247.61 260.177V253.747L2248.11 249.79L2247.61 246.327L2248.11 241.876L2247.12 237.919L2247.61 231.488L2247.12 225.058L2248.11 221.596L2247.61 217.639V214.671L2247.12 211.703L2247.61 204.284L2247.12 197.359L2241.18 196.369L2235.25 197.853L2230.3 196.369L2224.86 197.853L2220.9 196.864L2217.44 197.853H2213.98L2211.01 197.359L2205.57 196.864L2200.13 197.853L2196.17 196.864L2192.21 197.359H2179.85L2176.88 196.864L2174.41 197.853L2166.99 196.864L2160.06 197.359L2159.57 202.305L2160.06 207.746V215.165L2159.57 218.133L2160.06 221.101L2159.57 226.047L2160.06 231.488L2159.07 236.435L2160.06 241.876V253.747L2160.56 258.693L2160.06 264.134V271.554L2160.56 277.489L2160.06 283.425L2159.57 286.393L2160.06 289.36L2160.56 295.296L2159.57 301.232L2160.56 305.189L2160.06 308.651L2159.57 313.103L2160.56 317.555L2160.06 321.512V330.91L2162.04 336.845V340.802V344.265V349.706V354.652V359.104V364.05V368.502V372.953V375.921V378.889V380.868V387.792V392.244V396.696V401.148V407.083V413.019V416.481V420.438V423.901V427.858V432.804L2159.57 438.245L2160.06 441.213V444.181L2159.07 446.654L2159.57 448.632V454.073L2160.56 459.02V464.955L2159.57 470.891L2159.07 476.332L2160.06 481.278L2159.57 488.203L2160.56 494.633L2162.54 495.623L2165.01 494.633H2181.33L2185.29 494.139L2188.26 494.633H2191.23L2194.69 494.139H2198.15L2202.6 495.623L2207.05 494.139L2211.01 495.128L2214.47 494.633L2218.92 495.128L2223.38 494.139L2226.34 495.128L2228.82 494.139L2231.79 494.633H2234.75L2241.18 495.128L2247.61 494.633ZM2368.3 495.128H2371.77L2374.73 494.139L2376.71 495.128L2379.19 494.139L2383.64 495.623L2388.09 494.633L2392.54 495.128L2396.99 494.633H2400.46L2404.41 494.139L2409.36 495.128L2414.8 494.633L2419.25 495.128L2423.7 494.139H2434.09L2438.54 495.623L2442.99 494.139L2445.96 495.623L2448.93 494.633L2453.88 495.128L2459.32 494.139L2462.28 495.128L2465.25 494.633H2474.16L2477.12 495.128L2480.09 494.139L2483.55 495.128L2487.51 494.633L2490.48 494.139H2493.45L2497.9 494.633L2502.35 494.139H2507.3L2512.74 494.633L2515.7 497.106H2518.67H2524.61H2530.54H2536.48H2542.41H2546.87H2551.32H2579.51H2585.45H2589.9H2594.35H2598.8H2604.74H2610.67H2613.64H2616.61H2621.56L2627 494.633L2633.43 495.128L2640.35 494.139H2644.8L2649.26 494.633L2657.17 495.128L2665.58 494.633L2666.07 489.687L2664.59 485.235L2665.58 481.278V472.375L2665.08 467.923V455.063L2666.07 450.116L2664.59 445.665L2665.08 442.697V440.224L2665.58 435.772V430.826L2666.07 426.374L2665.58 421.922L2666.07 414.503L2665.08 407.083H2653.21L2647.77 406.094L2642.83 407.083L2636.4 406.589L2629.96 407.578L2626.5 407.083L2622.55 407.578L2617.1 406.589L2611.17 407.578H2608.2L2604.74 407.083L2599.79 406.589L2594.35 407.083H2575.56L2572.59 407.578H2569.62L2566.16 406.589L2563.19 407.083L2557.75 406.589L2552.8 407.083H2546.87L2541.43 407.578L2538.46 406.589L2535.98 407.083L2532.03 407.578L2527.58 407.083L2521.64 406.589L2515.21 407.083L2508.78 406.589L2502.84 407.578L2496.91 406.589L2490.97 407.083L2488.5 406.589L2486.03 407.083L2481.57 406.589L2477.62 407.083L2467.23 406.589L2456.35 407.578V400.653L2457.34 395.707L2456.84 390.266V385.814L2456.35 380.868V376.416L2455.85 371.47L2456.35 368.996V366.029L2456.84 361.082L2456.35 356.136V351.19L2455.85 345.749L2456.35 341.297L2455.85 336.351L2457.34 331.899L2456.35 326.953L2456.84 322.006L2456.35 317.06L2456.84 313.597L2455.85 310.135L2456.35 305.189V288.866L2457.34 284.414L2456.35 280.457L2456.84 276.005L2456.35 271.554L2456.84 266.607L2455.85 261.661L2456.84 256.22L2456.35 250.779L2457.34 246.327L2455.85 241.876L2455.36 236.929V231.983L2453.88 226.047L2451.9 214.176L2450.91 211.208L2449.92 208.735L2449.42 204.778L2447.94 201.81L2445.96 194.886L2444.48 189.939L2441.51 185.487L2439.04 180.047L2436.07 175.1L2434.09 170.154L2430.63 166.197L2426.67 160.261L2424.2 156.304L2421.23 153.336L2418.76 149.379L2415.29 147.401L2410.35 142.454L2407.38 137.508L2401.94 134.54L2389.57 124.648L2386.11 123.164L2378.2 118.217L2374.24 115.25L2368.8 113.766L2364.84 110.798L2360.39 109.809L2354.45 107.83L2348.02 105.357L2342.58 103.378L2336.65 102.884L2333.68 101.894L2324.78 100.411H2318.35L2312.41 98.9267L2305.98 99.9159H2283.72L2277.29 98.9267L2270.86 99.9159L2265.42 98.9267L2259.98 99.4213H2256.02L2252.07 99.9159L2248.11 98.432L2244.15 99.9159L2238.71 99.4213H2233.76L2229.81 98.432L2226.34 99.9159H2221.4L2215.96 99.4213H2210.52L2205.07 99.9159L2201.61 98.9267L2198.64 99.9159L2193.7 98.432L2189.25 99.9159L2183.31 99.4213L2177.38 99.9159L2168.47 99.4213H2159.57L2160.06 103.873V108.325L2159.07 111.292L2160.56 113.766L2160.06 119.701V125.637L2159.57 129.594L2160.06 133.056L2159.57 138.003V143.444L2160.56 149.379L2160.06 155.315L2159.07 160.756L2160.06 166.197L2159.57 170.648L2160.06 174.606L2159.07 181.036L2159.57 187.466L2165.5 187.961L2170.95 186.971H2180.84L2187.27 187.466L2193.2 186.971L2197.66 187.466L2202.11 186.971H2226.34L2228.82 187.466L2231.29 186.971L2234.75 187.961L2238.22 187.466L2243.66 186.477L2249.1 186.971H2255.53L2261.46 187.466L2265.42 187.961L2268.88 186.971L2272.84 187.961L2276.8 186.971L2282.24 187.961L2287.68 186.971L2292.13 187.466L2296.09 186.971H2305.98L2309.44 187.961L2312.9 187.466L2315.87 187.961L2318.35 188.455L2322.8 189.445L2327.25 190.928L2332.2 192.412L2336.65 194.886L2344.56 199.832L2347.53 201.81L2350.5 204.778L2353.46 208.241L2356.93 212.198L2358.41 214.671L2359.4 216.649L2361.38 222.09L2364.35 226.542L2365.34 232.478L2367.31 237.919L2367.81 244.349L2368.8 250.779L2369.29 254.241L2368.8 258.199L2368.3 261.166L2369.29 264.134L2368.3 269.575L2368.8 275.016V290.35L2369.29 293.318L2368.3 296.285L2369.29 299.748L2368.3 303.21L2368.8 306.673V319.038L2369.29 322.006V324.974L2368.3 329.92L2369.29 334.867L2367.81 340.802L2369.29 347.233L2368.3 349.706L2368.8 352.179L2369.29 355.641V359.104L2368.8 365.534L2369.29 371.47L2367.81 376.416L2368.8 381.362L2367.81 386.309L2369.29 391.255V397.191L2367.81 403.126L2369.29 409.556L2368.3 412.03L2368.8 414.503L2368.3 417.965L2368.8 421.428L2369.29 426.374V431.32L2368.3 437.256L2368.8 443.686L2368.3 447.643L2368.8 452.095L2368.3 455.557L2368.8 459.514V472.869L2369.29 476.332L2368.8 480.289V489.192L2368.3 495.128ZM1005.59 495.128L1005.09 492.16V489.192L1003.61 483.751V478.805V473.859V468.912V464.461V460.009V454.568V448.632V445.665V443.191L1005.09 438.74L1005.59 434.783L1006.08 429.836L1005.09 424.395L1005.59 420.438L1004.6 416.481L1006.08 413.513L1005.09 410.546V398.674L1006.08 389.276L1005.09 379.384L1010.04 379.878L1014 379.384L1019.44 380.373L1024.39 378.889L1027.35 379.384H1029.83L1033.29 379.878L1036.75 378.889H1040.71L1044.67 379.384L1049.12 378.889H1054.06L1056.54 379.878L1059.01 378.889H1062.47L1066.43 379.384L1068.9 379.878L1071.38 378.889H1077.81L1084.24 379.384L1086.71 378.889H1089.18L1094.62 379.878L1100.06 379.384L1103.53 379.878L1106.99 378.889L1111.94 379.878L1116.39 378.889L1116.88 375.427V371.47L1116.39 368.502V365.534L1117.38 361.577L1116.39 358.114L1116.88 351.684L1116.39 345.749V341.792L1115.89 337.835V334.867L1116.88 331.899V327.447L1116.39 322.996V306.178L1116.88 298.758V291.339L1111.44 291.834H1106.49L1101.05 291.339L1096.11 291.834L1090.17 290.844L1084.73 292.328L1078.8 291.339L1073.35 292.328L1070.88 290.844L1067.91 292.328L1062.47 291.339L1056.54 291.834L1051.1 290.844L1045.16 291.834L1039.72 290.844L1034.28 292.328H1027.85L1023.89 291.339L1019.93 291.834H1012.51L1005.09 292.328L1005.59 288.371V284.909L1005.09 281.941L1005.59 278.973L1006.08 276.5L1005.09 274.027V263.145L1005.59 259.682V255.231L1005.09 250.284L1005.59 246.327L1005.09 241.876L1005.59 235.94L1005.09 229.51L1005.59 225.058L1005.09 220.112V214.671L1006.08 205.767L1005.09 197.359L1001.14 196.369L996.686 197.853L993.224 197.359H990.256L987.288 196.369L984.32 197.359L981.847 196.864L979.374 197.359L973.438 197.853L967.997 197.359H947.717L943.76 196.864L940.298 197.359L935.351 196.369L929.91 197.359L923.975 196.864L918.039 197.359V209.23L917.545 214.176L919.523 216.649L920.018 282.436L917.05 284.414L918.039 287.877L917.05 291.834L917.545 295.296L918.039 301.232L917.545 307.167L918.039 313.103V326.458L918.534 332.394L917.545 338.329L917.05 344.265L917.545 350.2V354.157L918.039 357.62L917.545 363.061V373.448L918.039 378.889V390.76L917.05 394.223L917.545 398.18L918.039 402.631V407.083L917.05 411.535L918.039 415.987L917.05 420.438L918.039 424.89L917.05 429.342L918.039 433.793L917.05 435.772L918.039 438.245L917.545 444.181L918.039 450.116L917.545 456.052L918.039 461.987L918.534 464.955L918.039 467.923L917.05 470.891L918.039 473.859L916.555 476.826L918.039 479.794L917.545 487.214L918.039 494.633H927.437L933.373 495.128L939.308 494.633L941.782 495.623L944.749 494.633L949.696 495.623L954.147 494.139L960.578 495.128L967.008 494.139L972.944 494.633L978.879 494.139H984.815L990.75 494.633L993.224 495.128L995.697 494.139L1000.64 495.128H1005.59ZM1126.28 495.128H1130.24L1133.7 494.139L1136.17 495.128L1138.15 494.139H1144.09L1148.54 495.128L1152.99 494.633L1155.96 495.128L1158.93 494.139L1161.89 495.128L1164.86 494.139L1170.3 495.623L1175.25 494.633L1181.18 494.139L1187.12 494.633L1191.08 495.128L1194.54 494.139L1200.47 494.633L1206.41 494.139L1208.88 495.128L1210.86 494.633L1213.83 495.623L1216.8 494.139L1222.73 495.623L1228.67 494.139H1233.12L1236.09 495.128L1239.06 494.633L1242.02 495.128L1244.99 494.633L1250.43 495.128L1255.38 494.139L1260.82 495.128L1265.77 494.633L1268.73 494.139L1271.7 494.633H1275.66L1279.12 494.139L1286.05 495.623L1292.48 494.139L1296.43 495.128L1299.9 494.139H1304.84L1309.29 494.633L1315.23 495.128L1321.17 494.633L1326.11 495.128L1331.55 494.633L1335.02 495.623L1338.97 494.633H1346.39L1349.36 495.128L1355.3 494.139L1358.26 494.633H1361.23L1364.2 494.139L1368.65 495.623L1373.1 494.633H1379.04L1382.01 495.623L1384.97 494.139L1388.44 495.128L1392.39 494.633L1395.36 495.128L1398.33 494.139L1401.79 494.633L1405.75 494.139H1414.65L1423.06 494.633L1423.55 490.676L1422.57 486.224L1423.06 481.773V477.321L1422.57 474.353L1423.06 471.88L1423.55 467.923L1422.57 463.966V458.525L1423.06 455.557L1422.57 452.589L1423.06 448.632V434.288L1422.57 431.815L1423.06 429.342V407.083L1419.1 406.589L1415.15 407.578H1410.2L1405.75 407.083L1400.31 406.589L1395.36 407.083L1388.93 407.578L1382.5 407.083L1378.05 406.094L1373.1 407.083L1368.16 406.589L1362.71 407.578L1359.75 406.094L1356.28 407.083L1351.34 406.589L1345.9 407.083H1333.53L1329.08 407.578L1324.13 407.083L1318.69 407.578L1313.75 407.083L1311.27 406.589L1308.3 407.083H1296.93L1291.49 406.094L1285.55 407.578L1280.61 406.589L1276.15 407.083L1269.72 406.094L1263.79 407.083L1258.84 406.589L1254.39 407.578L1250.93 406.589L1247.96 407.578L1243.51 406.094L1239.55 407.083L1234.11 406.589L1229.16 407.083L1222.24 406.094L1213.83 407.083V392.244L1214.32 389.771L1213.83 383.835V377.9L1214.32 373.448L1213.83 368.502V364.05L1214.32 360.093V355.641L1213.83 351.19V340.308L1214.82 337.835L1213.83 334.867L1214.32 329.92L1213.83 324.974L1214.32 320.028L1213.83 315.576L1214.32 311.124L1213.83 306.673L1214.32 304.199L1213.83 301.232V297.769L1214.32 294.307L1214.82 289.36L1213.83 284.414L1215.31 277.984L1214.32 271.554L1214.82 261.166L1213.83 250.779L1214.82 246.327L1213.83 241.876L1214.32 238.908L1213.83 235.94L1213.34 231.488L1212.35 227.531L1212.84 224.069L1211.36 221.101V218.133L1209.87 215.66L1209.38 212.692L1208.39 209.725L1207.89 205.273L1205.92 201.81L1204.93 197.853L1202.95 193.896L1200.97 187.961L1198 182.025L1197.51 179.057L1195.03 177.079L1192.56 171.143L1188.6 166.197L1187.12 162.24L1183.66 159.767L1181.18 155.315L1177.72 151.358L1174.75 148.885L1172.78 145.917L1168.32 141.465L1163.38 137.508L1159.42 133.551L1156.95 130.583L1153.48 129.594L1149.03 126.626L1145.08 123.658L1140.13 120.196L1135.18 117.723L1130.24 114.755L1124.3 112.776L1112.43 107.83L1110.45 106.346H1107.98L1105.01 104.862H1101.05L1097.1 102.884L1093.14 102.389L1090.17 101.4L1087.2 101.894L1077.31 100.905L1070.88 100.411L1063.96 99.4213L1060 98.9267L1056.54 99.4213L1052.08 99.9159H1048.13L1042.69 99.4213L1037.74 99.9159H1022.9L1019.93 99.4213H1016.97L1011.52 99.9159H993.718L988.772 100.411L984.32 99.9159L980.363 98.432L975.911 99.9159L969.976 98.9267L963.546 99.9159L961.072 98.432L958.599 99.4213L952.169 98.9267L946.233 99.9159L940.792 98.9267L935.351 99.4213L925.953 99.9159H917.545L918.039 102.884L917.545 106.346L918.039 112.282L917.545 117.723L918.534 125.637L917.05 128.605L917.545 131.572V138.003L918.039 144.433V146.906L917.545 149.379L918.039 153.336V157.788L917.545 162.734L918.534 168.175L917.545 171.143L918.534 174.111L917.05 180.541L917.545 187.466H922.986L927.932 186.971L930.9 187.961L934.362 186.971L939.308 187.961L944.749 186.971L947.717 187.961L951.18 187.466L954.642 187.961L958.599 186.971H966.019L971.46 187.961L976.901 186.971H982.836L988.772 187.466L994.213 186.971L997.675 187.961L1001.14 187.466H1004.11L1007.57 186.971H1011.03L1014 187.466L1018.45 187.961L1022.9 186.477L1034.77 187.466H1043.68L1054.06 186.971H1063.96L1069.89 188.455L1075.83 187.961L1080.77 190.434L1086.21 191.423L1089.18 191.918L1091.66 192.907L1096.11 195.38L1100.06 198.348L1103.03 201.316L1106.99 203.789L1110.45 207.251L1113.42 211.208L1115.4 214.176L1117.87 216.649L1118.86 220.606L1121.83 224.069L1123.81 230.004L1125.29 235.94L1125.79 243.36L1126.77 250.779V256.715L1125.79 262.156L1127.27 267.597L1126.28 271.554L1128.26 272.543V278.479V284.909V291.339V297.769V304.199V311.124V315.576L1126.77 316.565L1126.28 322.501L1126.77 328.931L1125.79 334.867L1126.77 340.802V353.168L1126.28 355.641L1126.77 358.114L1126.28 364.05V374.437L1126.77 378.889L1125.79 382.352L1127.27 386.309L1126.28 391.255L1126.77 396.201V400.653L1125.79 405.105L1127.27 409.556L1125.79 414.503L1126.77 418.954V425.385L1125.79 428.352L1127.27 431.32L1126.28 436.267L1127.27 441.213L1126.77 447.148V460.504L1127.27 465.45L1126.77 470.396L1125.79 475.343L1126.77 480.289V490.182L1126.28 495.128ZM909.631 99.4213H905.673L901.222 99.9159L895.781 100.905H886.877L883.91 101.4H879.953L875.995 102.389H873.522L871.544 103.873H866.103L860.662 105.852L856.21 107.335L851.758 108.325L845.328 109.314L839.887 112.776L835.93 114.26L831.478 116.239L826.532 118.712L821.586 120.196L818.123 121.68L815.156 124.153L810.209 126.626L805.758 129.594L801.8 131.572L798.338 134.54L788.445 141.465L784.983 144.433L781.026 146.906L778.553 149.874L775.585 152.347L771.133 155.315L768.165 159.767L765.198 161.25L763.714 163.724L759.757 168.67L757.778 170.648L755.8 173.122L754.316 175.595L751.843 177.573L748.38 181.53L745.907 186.477L742.939 189.939L741.455 194.391L737.498 198.843L735.025 204.778L732.552 209.725L730.079 214.176L727.605 219.617L725.627 225.553L723.648 228.026L723.154 230.994L721.67 234.951L720.681 238.413L719.197 242.865L718.207 247.317L717.713 251.274L716.724 254.736L714.745 260.177L714.25 265.618L713.261 273.532V277.984L711.777 280.952L712.766 284.414L711.777 289.855L712.272 295.296L711.283 299.748L712.272 303.705L712.766 307.662V312.114L713.756 318.049V321.512L714.25 324.479L716.229 337.34L716.724 340.308L717.713 343.275L718.207 345.749L719.197 347.727L720.186 354.157L723.154 360.093L725.132 365.534L728.595 375.921L730.573 380.373L732.552 383.835L734.53 386.803L737.004 391.75L739.971 396.201L740.466 398.674L741.95 400.653L742.444 402.631L744.423 404.115L745.907 407.083L747.885 409.062L750.359 413.513L752.832 416.976L755.305 418.954L756.789 421.428L758.767 424.89L761.735 427.363L766.187 431.815L770.144 436.267L772.617 439.234L776.08 441.213L780.531 445.17L784.983 449.622L788.94 453.084L793.392 456.052L796.854 459.02L800.811 461.493L803.779 463.966L807.241 465.45L811.693 467.923L816.639 470.396L820.597 472.869L824.554 474.848L829.995 477.321L835.93 480.289L839.393 481.278L842.855 483.257L845.328 484.741H848.791L853.737 486.719L859.178 488.203L864.124 490.182L870.06 490.676L873.522 491.171L877.479 491.665L882.92 492.16L888.361 493.644L893.308 493.149L898.254 494.633H909.631L910.125 492.16L909.136 489.687L910.125 486.224L909.136 482.267L910.125 476.826L909.136 470.891V464.461L908.641 458.525L909.136 453.084L909.631 448.138L909.136 444.675V426.374L908.641 423.406L910.125 419.944L909.136 416.481V407.083H903.2L897.265 405.105L890.834 405.599L886.383 404.115L881.931 403.621L877.974 401.642L873.028 401.148L870.554 399.169L867.587 398.674L862.64 397.191L858.189 394.717L852.748 391.75L847.801 388.782L845.823 386.803L843.844 385.319L839.887 381.857L835.93 379.384L832.468 374.437L828.016 371.47L825.543 367.018L822.575 364.05L821.091 361.082L818.618 359.104L815.65 354.652L813.672 350.2L811.693 345.254L808.231 341.297V337.34L805.758 334.372L805.263 329.92L803.284 325.469L801.8 319.038L800.811 313.103L799.822 304.199L799.327 295.791L800.317 284.909L800.811 278.973L802.295 273.038L803.284 270.564V268.091L805.263 263.64L805.758 258.693L808.725 253.747L810.704 248.306L813.177 244.349L815.156 239.897L818.618 235.94L821.091 230.994L847.307 206.262L857.199 200.326L862.64 197.359L868.576 195.875L874.017 192.907L878.963 191.423L883.91 190.434L895.781 187.466L902.706 188.455L909.136 186.971L910.125 183.509L909.136 180.541L908.641 176.089V172.132L910.125 169.165L909.136 165.702L909.631 163.229L909.136 160.756L910.125 157.788L909.136 154.326V149.379L909.631 143.938L910.125 140.476L909.136 137.508L908.641 132.067L909.136 126.626L908.641 121.68L909.136 116.239L910.125 112.776L909.136 109.314V103.873L909.631 99.4213ZM495.128 363.555L496.612 358.609L500.569 355.147L503.042 350.695L505.021 346.243L506.504 340.802L509.472 335.361L511.451 330.415L512.935 324.974L513.924 321.017L514.913 316.565V311.619L515.902 306.673L516.397 301.232L516.892 295.296L515.408 284.909L514.913 274.027L512.935 270.07V265.618L511.451 262.156L509.967 259.188L507.988 254.241L506.01 248.801L503.537 245.833L502.053 241.381L498.096 237.424L496.117 232.478L492.16 229.015L489.192 224.069L485.73 221.101L483.257 217.144L479.794 215.165L477.321 212.198L472.869 210.219L469.407 205.767L465.945 203.789L462.977 201.81L459.514 201.316L456.546 199.337L446.654 194.391L442.697 193.896L439.234 191.423L434.288 190.928L429.342 189.445L422.417 188.95L415.987 186.971L411.535 187.466H406.589L407.578 182.52V177.573L406.094 174.606L407.083 172.132L407.578 166.197V160.756L406.589 157.293L407.083 153.336L406.589 147.895L407.578 142.454L406.589 138.992L407.578 135.035L407.083 131.572V128.11L406.094 124.648L407.578 121.68V115.25L407.083 109.314L406.094 104.368L407.083 99.9159L414.008 100.411H421.428L427.858 100.905L434.288 101.894H439.729L445.17 103.378L452.095 104.862L458.525 106.841L463.966 107.83L469.407 109.809L479.3 113.766L484.246 115.25L489.192 118.217L496.117 121.185L500.569 124.153L513.429 130.583L516.892 134.046L528.268 141.465L540.634 152.347L543.107 153.336L544.097 155.315L548.054 158.283L550.527 161.745L554.978 165.702L558.441 170.648L561.903 173.122L563.387 176.584L566.355 180.047L571.301 187.961L573.775 191.423L578.721 199.337L580.699 201.81L581.194 204.778L583.173 208.735L585.151 213.187L588.614 217.144L589.603 222.585L592.571 227.037L594.055 232.478L597.022 244.349L599.001 248.801L599.99 253.252L600.979 258.693L601.474 264.134L602.463 270.07L602.958 276.5L604.442 280.952L603.453 285.898L604.442 290.844L603.947 295.296L604.936 306.178L603.453 316.565L602.958 321.512L601.969 326.458V329.426L600.485 332.394L600.979 335.856L599.495 338.824L598.506 345.254L596.033 351.19L595.538 356.631L593.065 361.577L591.581 365.039L590.592 368.996L589.108 373.943L586.14 378.889L584.656 383.835L581.194 388.287L579.216 393.233L575.753 397.685L573.28 403.126L569.817 408.072L568.334 411.04L565.86 413.019L563.387 416.976L560.419 420.438L558.936 422.911L556.462 424.89L550.527 431.815L546.57 436.267L541.623 440.718L539.15 444.181L535.193 446.654L530.741 450.611L525.795 454.568L523.322 456.052L518.376 460.009L515.902 461.493L513.924 463.966L510.956 464.955L500.074 470.891L497.601 472.869L494.633 473.364L491.171 475.343L487.708 476.826L485.235 479.3L482.267 479.794L476.332 482.267L470.396 483.751L466.934 484.741L462.977 485.73L460.998 486.719L458.525 487.214L454.568 489.687L449.622 489.192L445.17 491.665L440.224 491.171L435.277 493.149H429.342L422.911 494.633L416.481 494.139H411.535L407.083 494.633V473.859L406.589 470.396L407.578 466.439L406.094 461.493L407.578 456.052L407.083 451.6V446.654L406.094 440.718L407.578 434.288L407.083 429.342L407.578 424.395L406.589 421.922L407.578 418.954L406.589 415.987L407.083 413.019V407.083H412.524L418.46 406.589L422.417 405.599H426.868L432.309 403.126L438.74 402.631L443.191 400.158L448.138 399.169L452.095 397.685L455.063 395.707L458.525 393.233L462.977 392.244L465.45 390.76L467.923 388.782L475.343 382.846L495.128 363.555ZM397.685 1.4839L394.223 2.47317H381.362L378.394 1.97853L375.921 1.4839L372.953 2.47317L372.459 2.9678H367.512H363.061H360.093H352.179H346.738H344.265H334.372H327.942H322.006H316.071H310.135H304.694H299.253H293.812L266.113 2.47317L263.64 1.4839L260.672 2.47317L255.231 0.989267L250.284 1.97853H236.435L230.499 2.47317L224.563 1.4839L218.628 1.97853L215.165 2.47317H206.262L201.316 3.46243H195.38L189.445 4.4517L184.004 4.94633L178.068 6.43023L173.122 8.40877L167.186 9.39803L162.734 9.89267L159.272 12.3658H156.304L153.831 13.8497L149.874 16.3229L144.928 17.8068L139.981 20.7746L135.035 22.7531L130.089 25.2263L125.637 28.6887L123.164 29.678L120.691 31.1619L116.733 33.1404L112.776 36.6029L110.303 38.0868L108.819 40.0653L105.852 40.5599L104.368 43.5277L101.894 46.0009L98.9266 47.4848L95.4642 49.958L93.4857 53.4204L90.0232 56.3882L87.5501 59.356L84.5823 62.3238L82.6037 65.7862L78.152 70.2379L74.6896 75.1843L70.7326 79.1413L68.754 84.0877L64.797 89.5286L62.3238 94.9696L60.3453 98.432L58.8614 102.389L56.3882 105.852L54.9043 109.809L52.9258 113.271L51.9365 117.723L49.4633 121.185V125.142L47.9794 129.594L46.9902 133.551L46.0009 139.487L44.0224 145.917L43.5277 149.874L42.5385 154.326L41.5492 159.767L41.0546 165.702L40.5599 173.122V187.961L40.0653 193.402L40.5599 198.843V204.284L41.0546 209.725L39.5707 213.682L41.0546 218.133L40.5599 222.09V226.047L40.0653 229.51L40.5599 233.467V244.349L40.0653 248.801L40.5599 252.758L40.0653 255.725L41.0546 258.199V263.64L40.5599 269.575V275.511L41.0546 279.468V283.425L40.5599 288.866V294.307L40.0653 299.253L40.5599 303.705V314.587L40.0653 317.555L41.0546 320.028L40.5599 325.469V337.34L39.5707 341.792L40.5599 346.243L41.0546 348.716L40.5599 351.684L40.0653 356.136L40.5599 360.093L40.0653 365.039L41.0546 369.986V375.427L40.5599 380.868V397.191L42.5385 396.696L45.5063 396.201L50.4526 396.696H77.1628L81.1198 397.685L84.5823 396.696L90.0232 397.685L95.4642 396.696H110.303L114.26 397.191L121.185 397.685L128.11 396.696L127.615 390.76L128.11 384.33L129.099 381.362L128.11 378.889V374.437L127.615 369.986L129.099 366.029L128.11 362.566L128.605 358.114L128.11 353.663L127.615 347.727L128.11 341.792L127.615 335.361L125.142 325.963V322.501V319.533V314.092V308.651V287.877V285.403V282.436V278.479V275.016V271.554V268.586V263.145V257.704V254.241V251.274V247.317V232.478V227.037V221.596V212.198V207.251L127.615 205.273L128.11 199.832V180.047L128.605 175.1L129.099 169.659L130.089 164.713L130.583 159.767L132.067 153.831L136.024 141.96L138.992 136.519L142.454 132.562L144.433 127.615L146.411 124.648L148.885 122.174L150.863 119.701L153.336 117.723L155.315 115.744L156.799 113.271L162.24 110.303L166.691 105.852L172.627 103.378L177.573 98.9267L181.036 98.432L184.004 96.4535L193.896 92.4964H200.326L206.262 90.5179H212.692L218.628 89.5286L223.574 90.0233L228.026 89.034L231.488 90.5179L235.445 89.5286H245.833L249.79 89.034H256.715L260.177 89.5286H266.113L272.048 89.034L277.489 90.0233L282.436 89.034L284.909 90.5179L287.382 89.5286L290.35 90.0233L292.823 89.034H301.232L309.64 89.5286L308.651 95.9589L309.64 101.894V112.776L308.651 115.25L309.64 117.723L309.146 122.174L309.64 126.626L309.146 130.583L309.64 134.54L310.135 138.992L309.64 143.444L309.146 145.917L309.64 148.39L310.135 151.852L309.146 155.809V162.24L310.135 168.175L309.146 171.143L309.64 174.111L310.135 179.552L309.146 190.434L309.64 195.875L309.146 201.81L309.64 208.241L309.146 211.208L309.64 214.176V226.542L310.135 229.51L309.64 232.972L309.146 238.908L309.64 244.843V249.79L310.135 254.241L309.146 259.682L309.64 265.123L309.146 270.564V276.005L308.651 280.952L310.135 286.393L309.146 290.35V297.275L310.135 300.242L309.146 305.189V315.081L309.64 320.522V323.985L310.135 327.942L309.64 330.415V338.824L310.135 344.759L308.651 347.233L309.64 349.706L308.651 355.147L309.64 360.093V369.491L309.146 373.943V387.792L309.64 396.696L315.576 397.685L321.512 397.191L325.963 397.685L329.92 396.201L332.888 397.685L335.856 396.696L338.329 397.685L341.297 396.696L344.265 397.685L347.727 396.696H357.62L363.555 396.201H368.996L375.427 397.685L381.857 397.191L389.276 397.685L397.19 397.191V391.255L396.696 385.319L397.19 379.384V373.448L398.18 369.491L397.19 365.534V362.566L396.696 359.598L397.19 355.641V345.749L398.18 339.813L396.696 333.877L398.18 331.899L397.19 329.92V326.953L396.696 323.985L397.19 321.017L396.696 318.049V297.275L397.19 294.307L398.18 291.339L397.19 288.371L396.696 283.425V278.479L397.19 274.521V262.65L397.685 259.682L396.696 256.715L397.19 252.758L396.696 248.801L397.685 245.833L397.19 242.865L398.18 238.908L396.696 234.951V229.015L397.685 226.047L396.696 223.08L397.19 221.101V219.123L397.685 215.165L397.19 211.208L397.685 208.241L396.696 205.273V197.359L397.19 192.412V187.466L397.685 181.53L397.19 175.595V171.638L396.696 167.681L397.19 161.745L396.696 155.809L394.717 147.895L395.212 143.938L394.717 139.981L395.707 135.035L395.212 130.089L394.717 126.131V90.5179L396.201 84.5823L397.19 78.6467V66.2809L396.696 63.3131L398.18 60.3453L396.696 57.3775V43.5277L397.19 38.5814L396.696 33.6351V27.6995L397.685 22.7531L397.19 17.8068V9.39803L397.685 1.4839ZM397.685 406.589L391.255 407.083H385.319L382.351 406.094L379.384 407.578H374.437L369.491 407.083H366.523L363.555 407.578L357.62 406.094L349.706 410.051H343.77H337.834H332.888H327.942H324.974H322.006H316.071H304.199H298.264H293.318H288.371H281.941H276.005H272.048L270.07 407.578L267.102 406.094L264.134 407.083H252.263L248.306 406.589L244.349 407.083L239.402 406.589L234.456 407.083L228.521 407.578L222.585 407.083H218.628L214.671 407.578L210.714 406.589L206.757 407.578L203.789 406.094L200.821 406.589H196.864L192.907 407.578L189.939 407.083H186.971L183.014 406.094L179.057 407.578H173.122L167.186 407.083L163.229 406.589L159.272 407.578L154.326 407.083H149.379L145.422 406.589L141.465 407.578L135.035 406.589L129.099 407.578L125.142 407.083H121.185L115.25 406.589H109.314L99.4213 407.578L95.4642 406.094L91.5071 407.083L88.5393 407.578H85.5715L81.6145 406.589H77.6574L71.7218 406.094L65.7862 407.578L59.8506 406.589L53.915 407.083L48.9687 406.589L44.0224 407.083L39.076 406.094L34.1297 407.083L29.1834 407.578L24.237 407.083L18.3014 407.578L6.43023 406.589L0.989266 407.083L0.494633 412.524L2.47317 419.449V425.385V429.342V432.804V443.686V449.127V455.063L0.989266 466.439V475.837L0.494633 478.31L0 486.719L0.989266 494.633H3.95707L8.40876 494.139H12.3658L16.3229 494.633H40.0653L46.0009 495.128L51.9365 494.633L57.8721 495.128L63.8077 494.139L69.7433 494.633L75.6789 494.139L80.6252 495.128L85.5715 494.139L90.5179 494.633L91.0125 491.171H95.9588H100.905H106.841H118.712H124.648H130.583H137.013H146.906H152.842H170.648H175.595H180.541H184.498H188.455H192.412H196.369H199.337H202.305H212.198H218.133H224.069H241.876H244.843H247.811H255.725H259.682L268.091 494.633H272.048L275.016 495.623L277.984 494.633L282.93 495.128L287.877 494.139L291.339 495.128L294.307 494.633L300.242 495.128L306.178 494.633H312.114L318.049 494.139L323.985 494.633L329.92 494.139H339.813L344.759 494.633L349.706 494.139H355.641L359.598 495.128L363.555 494.633L368.502 495.623L373.448 494.139L375.427 495.623L377.405 494.633H387.298L392.739 494.139L397.19 494.633L396.696 488.698L397.19 482.267L396.696 476.332L397.19 470.891V465.45L396.696 460.009L398.18 455.063L396.696 450.116V444.181L397.19 439.234V427.858L396.696 421.428L397.685 414.008V406.589ZM1531.38 89.5286H1527.92L1524.95 90.0233H1513.58L1508.14 89.034L1502.7 90.0233L1499.73 89.5286L1496.76 90.5179H1485.88L1482.91 90.0233H1479.94L1474.5 90.5179L1469.06 90.0233L1466.09 89.5286L1463.13 90.0233L1460.16 89.034L1457.68 90.5179L1451.75 89.034L1446.31 90.0233L1443.34 90.5179H1429.49L1426.52 90.0233H1424.05L1418.11 89.5286L1412.67 90.5179H1407.23L1395.85 89.5286L1389.92 90.0233H1387.45L1384.48 90.5179L1379.04 90.0233H1373.1L1367.66 89.5286L1362.22 90.5179H1350.84L1345.4 90.0233H1339.47L1334.03 89.5286L1328.58 90.5179L1322.65 89.5286L1317.21 90.5179L1314.24 89.5286L1311.27 90.5179L1308.8 89.5286L1305.83 90.5179L1300.39 89.5286L1294.46 90.5179L1289.01 89.034L1283.57 90.0233L1280.61 89.5286L1277.64 90.0233L1275.16 90.5179H1272.2L1269.23 90.0233L1266.76 90.5179H1263.79L1260.82 90.0233H1255.38L1252.41 90.5179H1246.97L1244 90.0233H1238.56L1232.63 90.5179L1227.19 89.5286L1221.74 90.5179H1215.81L1213.34 89.5286L1207.4 90.5179L1204.93 90.0233L1201.96 89.034L1198.99 90.5179L1196.52 89.5286L1193.55 90.0233L1190.58 89.5286L1188.11 90.0233L1185.14 90.5179L1182.17 90.0233L1176.73 90.5179L1170.8 90.0233L1168.32 89.5286L1165.36 90.5179L1159.91 90.0233H1153.98L1148.54 89.034L1143.1 90.0233H1137.16L1131.72 90.5179L1128.75 89.034L1126.28 90.0233H1120.34L1117.87 90.5179L1114.9 90.0233L1111.94 90.5179L1109.46 90.0233L1106.49 89.5286L1103.53 90.0233L1098.09 89.5286L1092.15 90.5179L1089.68 89.034L1086.71 90.5179H1081.27L1075.33 90.0233L1072.86 89.5286L1069.89 90.0233L1064.45 89.5286L1058.52 90.0233H1053.07L1047.63 90.5179H1041.7L1036.26 89.5286L1024.88 90.5179L1013.5 89.5286L1008.06 90.0233H1002.62L996.686 90.5179L991.245 90.0233H985.804L982.836 90.5179H979.868L977.395 89.034L974.427 90.0233L971.46 89.5286L968.986 90.0233H966.019L963.051 90.5179L960.578 90.0233H957.61L951.674 90.5179L946.233 90.0233L943.266 89.5286L940.792 90.0233L934.857 89.034L929.416 90.5179L923.975 89.5286L918.039 90.0233L912.598 89.034L907.157 90.0233L901.222 90.5179L895.781 90.0233H884.404L878.963 90.5179H873.028L867.587 89.5286L862.146 90.5179L856.21 89.5286L850.769 90.5179L845.328 90.0233H839.393L833.952 90.5179H817.134L814.166 90.0233L811.198 90.5179H805.758L802.79 90.0233L792.897 89.034L787.456 89.5286L782.015 89.034H776.08L773.606 88.0447L770.639 89.034H759.262L753.821 88.5394L749.864 90.0233L743.928 89.5286L738.487 90.5179H735.52L732.552 90.0233H727.111L724.143 89.5286L721.67 90.0233L715.734 90.5179L710.293 90.0233L707.326 89.5286L704.852 90.5179H693.476L688.035 89.5286L682.099 90.0233L676.658 89.5286L671.217 90.0233L668.249 89.034L665.282 90.0233L662.314 89.034L659.841 90.5179L656.873 89.034L653.905 90.0233L648.464 89.034L643.023 90.0233L640.055 89.5286L637.088 90.0233L631.647 89.5286L626.206 90.0233L620.27 89.034L614.829 90.0233L611.861 90.5179L609.388 90.0233L606.42 90.5179H603.453L600.979 90.0233H598.012L595.044 89.5286L592.076 90.0233L586.635 89.5286L581.194 90.0233H575.258L569.817 90.5179L564.377 89.5286L558.441 90.5179L553 89.5286L547.559 90.0233L541.623 89.5286L536.182 90.0233L533.215 90.5179L530.741 90.0233L527.774 89.5286L524.806 90.5179L521.838 89.5286L519.365 90.0233H516.397L513.429 90.5179L510.956 89.5286L507.988 90.0233L502.547 89.5286L496.612 90.0233H494.139L491.171 90.5179L485.73 90.0233L479.794 90.5179L474.353 90.0233H468.912L462.977 89.5286L457.536 90.0233L451.6 89.5286L446.159 90.0233L443.191 90.5179L440.718 90.0233H434.783L429.342 90.5179L426.374 90.0233H423.901L420.933 90.5179H412.524L407.083 90.0233V80.1306L406.094 75.1843L406.589 70.2379L407.083 66.2809L406.589 62.3238V42.0438L407.578 36.6029L406.589 31.1619L408.567 11.8712L407.083 1.97853L412.524 0.989267L418.46 1.4839L424.395 0.989267H430.331L436.267 1.4839L442.202 0.989267H448.138L454.073 1.4839L460.009 0.989267L471.88 1.97853L477.816 1.4839L499.58 0.494633L505.515 0L517.386 0.989267L523.322 0.494633L529.258 1.4839L535.193 0L541.129 0.494633L546.57 0L565.86 2.47317L571.796 1.4839L577.732 0.989267L589.603 1.97853L595.538 0.989267L601.474 2.47317L607.41 0.989267L612.851 1.4839H618.786L624.722 2.47317L630.657 1.97853H636.593L642.529 1.4839L648.464 1.97853L654.4 1.4839H666.271L672.207 1.97853L677.648 0.989267L683.583 1.97853L689.519 1.4839L695.454 2.47317L701.39 1.4839L707.326 0.989267H713.261L719.197 2.47317L725.132 1.4839H742.444L748.38 0.989267V1.4839L754.316 1.97853L760.251 0.989267L766.187 1.97853L778.058 0.989267L783.994 1.97853H789.929L795.865 0.989267L801.8 1.4839L807.241 0.989267L813.177 2.47317L819.113 1.4839L825.048 1.97853L830.984 1.4839H877.974L883.91 0.989267L889.845 1.97853H895.781L901.716 0.989267L907.652 1.4839H925.459L931.394 1.97853L936.835 0.989267L942.771 2.47317L948.707 1.4839H960.578L966.513 2.47317L972.449 1.97853H978.385L984.32 0.989267L990.256 1.4839H1001.63L1007.57 0.989267L1013.5 1.97853L1019.44 1.4839L1025.37 2.47317L1031.31 0.989267L1037.25 1.4839H1043.18L1049.12 1.97853L1055.05 1.4839H1078.3L1084.24 1.97853L1090.17 1.4839L1096.11 1.97853L1102.04 1.4839H1107.98L1113.91 0.989267L1119.85 1.4839H1125.79L1131.23 2.47317L1137.16 1.4839L1143.1 1.97853L1149.03 1.4839H1154.97L1166.84 2.47317L1172.78 0.989267L1178.71 2.47317L1184.65 0.989267H1190.58L1196.02 1.4839L1201.96 2.47317L1207.89 1.4839L1213.83 2.47317L1219.77 0.989267L1225.7 1.97853L1231.64 1.4839L1235.59 4.4517H1241.53H1247.46H1253.4H1258.84H1264.78H1276.65H1282.58H1288.52H1294.46H1300.39H1306.33H1312.26H1318.2H1323.64H1329.57H1335.51H1347.38L1355.3 2.47317L1361.23 0.989267L1367.17 2.47317L1373.1 0.989267H1379.04L1384.97 1.4839L1390.41 2.47317L1396.35 0.989267L1402.29 1.4839H1408.22L1414.16 2.47317L1420.09 1.4839L1426.03 1.97853L1431.96 1.4839L1437.9 2.47317L1449.77 1.4839H1467.08L1473.02 0.989267L1484.89 1.97853L1490.82 0.989267L1496.76 1.97853L1502.7 1.4839L1508.63 1.97853L1514.57 1.4839L1520.01 1.97853L1525.94 0.989267L1531.88 2.47317L1537.81 1.4839H1555.62L1561.56 1.97853V0.989267H1573.43L1579.36 1.4839L1585.3 0.989267L1590.74 1.4839H1596.68L1602.61 1.97853L1608.55 0.989267V1.4839L1614.48 0.989267L1620.42 1.4839L1626.35 0.989267L1632.29 1.4839L1638.23 0.989267L1644.16 1.97853L1650.1 0.989267L1661.47 1.97853L1673.34 0.989267L1685.22 1.97853L1691.15 1.4839L1697.09 1.97853L1703.02 0.989267L1708.96 1.97853L1714.89 0.989267V1.4839L1720.33 2.47317L1726.27 1.4839L1732.21 2.47317L1738.14 0.989267L1744.08 1.4839H1750.01L1755.95 1.97853L1761.88 1.4839H1773.75L1779.69 1.97853L1791.07 0.989267L1797 1.4839H1814.81L1820.74 0.989267L1826.68 1.97853L1832.62 1.4839H1838.55L1844.49 0.989267L1849.93 2.47317L1855.86 1.4839V0.989267L1861.8 1.97853L1867.74 0.989267L1873.67 2.47317L1879.61 1.4839L1885.54 2.47317L1891.48 0.989267L1894.45 4.4517H1900.38H1911.76H1917.69H1923.63H1935.5H1941.44H1947.37H1953.31H1959.24H1965.18H1976.55H1982.49H1986.94H1992.88H1998.81H2004.75H2010.68H2016.62H2022.56H2028.49H2034.43H2045.8L2054.71 0.989267H2060.64L2066.58 0L2072.51 0.989267L2084.38 0L2090.32 0.494633H2096.26L2102.19 0L2107.63 0.989267L2113.57 0.494633L2119.5 0.989267L2125.44 0L2131.37 0.989267L2137.31 0H2143.25L2149.18 0.494633L2155.12 1.4839L2161.05 0.494633L2166.99 0L2172.43 0.494633H2184.3L2190.24 0.989267L2196.17 0.494633H2208.04L2215.46 2.47317L2221.4 0.989267H2227.33L2233.27 1.4839L2238.71 2.47317L2244.65 1.4839L2250.58 0.989267L2256.52 1.4839H2262.45L2268.39 0.989267L2274.32 1.4839L2280.26 0.989267H2286.19L2292.13 1.97853L2303.51 0.989267L2309.44 2.47317L2315.38 1.4839L2321.31 1.97853L2327.25 1.4839H2333.18L2339.12 0.989267L2345.06 1.4839L2350.99 0.989267L2356.93 1.4839H2362.86L2368.3 1.97853H2374.24L2380.18 1.4839H2386.11L2392.05 2.47317L2397.98 1.97853L2403.92 2.47317L2409.85 0.989267L2415.79 1.97853L2421.72 0.989267L2427.66 1.97853L2433.1 0.989267H2439.04L2444.97 1.4839L2450.91 2.47317L2456.84 0.989267L2462.78 1.4839H2468.71L2474.65 1.97853L2486.52 0.989267L2492.46 1.97853L2503.83 0.989267L2509.77 1.97853L2515.7 1.4839H2527.58L2533.51 0.989267L2539.45 1.4839H2551.32L2557.25 2.47317L2562.69 1.4839L2568.63 1.97853L2574.57 1.4839L2580.5 1.97853L2586.44 1.4839H2592.37L2598.31 0.989267L2604.24 1.97853L2616.12 0.989267L2622.05 1.4839H2633.43L2639.36 1.97853L2645.3 1.4839L2651.23 1.97853L2657.17 1.4839L2663.11 1.97853L2669.04 0.989267L2674.98 1.4839H2692.29L2698.22 1.97853L2704.16 1.4839H2710.1L2716.03 0.989267L2721.97 1.4839H2727.9L2733.84 0.989267L2745.71 1.97853L2751.64 1.4839L2757.09 1.97853L2763.52 1.4839L2763.02 6.92487L2760.05 17.3122V22.2585V25.2263V27.6995V32.1512V36.1082V42.0438V47.9794L2763.02 52.4311L2763.52 56.8828L2763.02 62.3238L2763.52 67.2701L2762.53 71.2272L2764.01 74.6896L2762.53 82.1091L2763.52 90.0233H2760.55L2757.58 90.5179H2754.61L2751.64 90.0233L2746.2 90.5179L2740.27 90.0233H2734.83L2731.86 90.5179H2717.51L2711.58 89.5286L2706.14 90.0233L2703.17 89.034L2700.2 90.5179H2694.76L2688.83 89.5286L2682.89 90.0233L2680.42 90.5179L2677.45 90.0233L2674.48 90.5179L2671.51 90.0233H2666.07L2660.14 90.5179L2653.21 89.5286L2647.28 89.034H2641.34L2638.87 88.5394L2635.9 89.5286L2629.96 88.5394L2624.52 89.5286L2621.56 88.0447L2618.59 89.034L2613.15 88.0447L2607.21 89.5286H2604.24L2601.28 89.034H2595.84L2589.9 89.5286L2586.93 88.5394L2584.46 89.5286H2580.01L2574.57 90.5179L2568.63 89.5286L2562.69 90.5179H2551.32L2545.88 90.0233H2534.5L2528.57 90.5179H2525.6L2522.63 90.0233L2520.16 90.5179L2511.25 89.034L2505.81 90.5179H2499.88L2496.91 89.5286L2494.44 90.5179L2488.5 90.0233L2482.56 90.5179L2477.12 90.0233H2471.19L2468.71 89.034L2465.75 90.5179L2459.81 88.5394H2454.37H2451.4H2448.43H2445.47H2442.5H2437.06H2431.12H2416.78H2414.3H2408.37H2402.43H2396.99L2391.06 90.5179L2388.58 89.5286L2385.62 90.0233H2374.24L2368.3 89.5286L2362.86 90.5179L2359.9 89.5286L2356.93 90.5179L2353.96 89.034L2350.99 90.0233L2348.52 89.5286L2345.55 90.0233L2339.62 90.5179H2334.17L2328.24 90.0233H2310.93L2308.45 89.034L2305.49 90.5179L2302.52 90.0233H2299.55L2296.58 89.5286L2294.11 90.0233L2291.14 89.5286L2288.17 90.5179L2282.73 90.0233H2276.8L2273.83 89.5286L2270.86 90.5179L2268.39 89.5286L2265.42 90.0233H2254.04L2248.11 90.5179H2242.67L2239.7 90.0233L2236.73 90.5179L2230.8 89.5286L2225.35 90.5179H2213.98L2211.01 89.5286L2208.04 90.5179L2205.07 90.0233L2202.6 90.5179L2199.63 90.0233L2196.67 90.5179L2193.7 89.5286L2190.73 90.0233L2185.29 90.5179L2179.35 90.0233H2170.95L2167.98 90.5179L2162.54 89.034L2156.6 90.0233H2145.22L2139.29 90.5179H2127.91L2122.47 90.0233L2116.54 90.5179L2110.6 90.0233L2105.16 89.034L2099.22 90.5179L2096.75 90.0233H2093.78L2087.85 89.034L2082.41 90.5179L2079.44 90.0233H2070.53L2068.06 89.5286L2065.09 90.0233L2059.16 90.5179L2053.72 90.0233H2047.78L2042.34 90.5179L2036.4 90.0233L2030.47 90.5179L2025.03 89.5286L2019.09 90.0233H2002.28L1996.34 90.5179L1990.4 90.0233H1979.03L1973.59 90.5179H1967.65L1962.21 90.0233H1956.27L1950.34 90.5179L1944.9 89.034L1938.96 90.5179L1933.52 90.0233L1927.59 90.5179L1922.14 90.0233H1916.21L1910.77 90.5179L1898.9 89.5286L1893.46 90.5179H1890.49L1884.55 89.5286L1882.08 90.5179L1876.14 90.0233H1858.83L1853.39 89.5286L1847.46 90.5179L1844.49 89.034L1842.01 90.0233L1839.05 89.034L1836.08 90.0233L1830.64 89.034L1824.7 90.0233L1812.83 88.5394H1809.86H1806.9H1803.93H1801.45H1795.52H1790.08H1784.14H1781.17H1778.21L1773.26 90.5179L1767.32 90.0233H1764.36L1761.88 90.5179L1758.92 89.5286L1755.95 90.0233H1733.19L1730.23 90.5179L1727.26 90.0233H1721.82L1715.88 90.5179L1710.44 89.5286L1698.57 90.5179L1693.13 90.0233H1681.75L1675.82 89.5286L1664.44 90.5179L1658.51 90.0233L1656.03 89.5286L1653.06 90.0233L1647.13 89.034L1641.69 90.0233L1635.75 89.5286L1630.31 90.5179H1624.38L1618.93 90.0233L1618.44 92.9911L1618.93 95.9589V105.852L1617.95 110.303L1618.93 114.26L1619.43 120.196V126.131L1618.44 130.089L1618.93 134.54L1617.95 140.476L1618.93 146.411L1618.44 150.369L1618.93 154.82L1617.95 160.756L1619.43 166.691L1618.44 170.648L1618.93 175.1L1618.44 178.068L1618.93 181.036L1618.44 185.982L1619.43 190.928L1618.93 196.369L1619.43 201.316L1618.44 205.273L1619.43 209.23L1618.44 214.176L1619.43 219.617L1618.44 223.574L1618.93 227.531L1617.95 231.488L1619.43 235.445L1617.95 238.908L1619.43 241.876L1618.93 247.811V253.747L1618.44 257.704L1618.93 262.156L1617.95 265.123L1619.43 268.091L1618.93 272.048V276.005L1619.43 280.952L1618.93 286.393L1619.43 289.36V292.328L1617.95 297.275L1619.43 302.221L1618.93 306.673V315.576L1619.43 320.522V328.931L1617.95 332.888L1619.43 336.845L1618.93 339.813L1619.43 342.781L1618.44 347.233L1619.43 351.19L1617.95 354.157L1618.93 357.125L1618.44 361.082L1619.43 365.039V370.48L1618.44 375.427L1617.95 379.384L1618.93 383.341L1618.44 387.298L1618.93 391.75V414.008L1618.44 417.965V422.911L1619.43 427.858V434.288L1618.93 440.224V450.116L1619.43 456.546L1618.93 462.482L1619.43 467.428V478.805L1618.44 481.773L1618.93 484.741L1619.43 490.182L1618.93 494.633H1615.47L1613 495.128L1610.53 494.633L1607.56 495.128L1602.61 494.139L1597.67 495.128L1592.22 494.139L1586.29 495.128L1582.33 494.139L1577.88 495.128L1571.94 494.139L1566.5 494.633L1563.54 495.128H1560.57L1556.61 495.623H1543.26L1536.83 495.128H1530.4L1529.9 490.182L1530.4 484.741L1531.38 481.773L1530.4 478.805L1529.9 472.375V455.557L1530.4 450.116L1529.9 446.159L1530.4 442.202L1530.89 437.256L1532.37 431.815V427.858V423.901V417.965V401.642V396.696V391.75V385.319V379.384V375.427V371.47V367.018V359.104V355.147V350.2V344.759V339.813V334.867V332.888V330.91V314.587V308.651V304.694V300.242V295.296V290.35V285.403L1530.4 279.962L1530.89 276.005L1529.9 272.048V268.091L1530.4 264.134L1529.9 261.166L1530.4 257.704L1530.89 252.758L1529.9 247.811L1530.4 243.854L1529.9 239.897V233.467L1530.4 227.531L1530.89 224.563L1529.9 221.596L1530.4 216.155V211.208L1531.38 206.262L1530.4 201.316V196.369L1529.9 190.928L1531.38 186.971L1530.4 183.014L1531.38 178.068L1530.4 172.627L1530.89 168.67L1530.4 164.713V154.82L1530.89 150.369L1529.9 146.411V140.476L1530.89 136.519L1530.4 132.562L1530.89 127.121L1530.4 122.174V99.9159L1530.89 94.9696L1531.38 89.5286Z" fill="#262626"/>
</svg>
