<svg width="2114" height="947" viewBox="0 0 2114 947" fill="none" xmlns="http://www.w3.org/2000/svg">
<path d="M16.4656 466.525C21.0394 466.525 24.6984 464.696 28.3574 461.952C31.1017 464.696 34.7607 466.525 39.3345 466.525C43.9083 466.525 47.5673 464.696 50.3116 462.866C47.5673 465.611 45.7378 469.27 45.7378 473.843C45.7378 482.076 53.0558 489.394 62.2034 489.394C66.7772 489.394 70.4362 487.565 74.0952 484.82C76.8395 487.565 80.4985 489.394 85.0723 489.394C89.646 489.394 93.3051 487.565 96.0493 485.735C93.3051 488.479 91.4756 492.138 91.4756 496.712C91.4756 504.945 98.7936 512.263 107.941 512.263C112.515 512.263 116.174 510.434 118.918 508.604C116.174 511.348 114.344 515.007 114.344 519.581C114.344 527.814 121.662 535.132 130.81 535.132C135.384 535.132 139.043 533.302 141.787 531.473C139.043 534.217 137.213 537.876 137.213 542.45C137.213 550.683 144.531 558.001 153.679 558.001C158.253 558.001 161.912 556.171 164.656 554.342C161.912 557.086 160.082 560.745 160.082 565.319C160.082 573.552 167.4 580.87 176.548 580.87C181.122 580.87 184.781 579.04 187.525 577.211C184.781 579.955 182.951 583.614 182.951 588.188C182.951 596.421 190.269 603.739 199.417 603.739C203.99 603.739 207.65 601.909 210.394 600.08C207.65 602.824 205.82 606.483 205.82 611.057C205.82 619.289 213.138 626.608 222.286 626.608C226.859 626.608 230.518 624.778 233.263 622.949C230.518 625.693 228.689 629.352 228.689 633.926C228.689 642.158 236.007 649.476 245.154 649.476C249.728 649.476 253.387 647.647 256.132 645.817C253.387 648.562 251.558 652.221 251.558 656.794C251.558 661.368 253.387 665.027 256.132 667.772C253.387 670.516 251.558 675.09 251.558 679.663C251.558 687.896 258.876 695.214 268.023 695.214C272.597 695.214 276.256 693.385 279 691.555C276.256 694.299 274.427 697.958 274.427 702.532C274.427 707.106 276.256 710.765 279 713.509C276.256 716.254 274.427 720.827 274.427 725.401C274.427 729.975 276.256 733.634 279 736.378C276.256 739.122 274.427 743.696 274.427 748.27C274.427 752.844 276.256 756.503 279 759.247C276.256 761.991 274.427 766.565 274.427 771.139C274.427 775.713 276.256 779.372 279 782.116C276.256 784.86 274.427 789.434 274.427 794.008C274.427 802.241 281.745 809.559 290.892 809.559C295.466 809.559 299.125 807.729 301.869 805.9C299.125 808.644 297.296 812.303 297.296 816.877C297.296 825.109 304.614 832.428 313.761 832.428C318.335 832.428 321.994 830.598 325.653 827.854C328.397 830.598 332.056 832.428 336.63 832.428C345.778 832.428 353.096 825.109 353.096 816.877C353.096 812.303 351.266 808.644 348.522 805.9C351.266 807.729 354.925 809.559 359.499 809.559C368.646 809.559 375.965 802.241 375.965 794.008C375.965 789.434 374.135 785.775 371.391 783.031C374.135 784.86 377.794 786.69 382.368 786.69C386.942 786.69 390.601 784.86 393.345 783.031C390.601 785.775 388.771 789.434 388.771 794.008C388.771 802.241 396.089 809.559 405.237 809.559C409.81 809.559 413.469 807.729 416.214 805.9C413.469 808.644 411.64 812.303 411.64 816.877C411.64 825.109 418.958 832.428 428.106 832.428C432.679 832.428 436.338 830.598 439.997 827.854C442.742 830.598 446.401 832.428 450.974 832.428C455.548 832.428 459.207 830.598 462.866 827.854C465.611 830.598 469.27 832.428 473.843 832.428C478.417 832.428 482.076 830.598 485.735 827.854C488.479 830.598 492.138 832.428 496.712 832.428C501.286 832.428 504.945 830.598 507.689 828.769C504.945 831.513 503.116 835.172 503.116 839.746C503.116 844.319 504.945 847.978 507.689 850.723C504.945 853.467 503.116 858.041 503.116 862.614C503.116 870.847 510.434 878.165 519.581 878.165C524.155 878.165 527.814 876.336 531.473 873.592C534.217 876.336 537.876 878.165 542.45 878.165C547.024 878.165 550.683 876.336 554.342 873.592C557.086 876.336 560.745 878.165 565.319 878.165C574.466 878.165 581.785 870.847 581.785 862.614C581.785 858.041 579.955 854.382 577.211 851.637C579.955 853.467 583.614 855.296 588.188 855.296C597.335 855.296 604.653 847.978 604.653 839.746C604.653 835.172 602.824 830.598 600.08 827.854C602.824 825.109 604.653 821.45 604.653 816.877C604.653 812.303 602.824 807.729 600.08 804.985C602.824 802.241 604.653 798.582 604.653 794.008C604.653 789.434 602.824 784.86 600.08 782.116C602.824 779.372 604.653 775.713 604.653 771.139C604.653 766.565 602.824 761.991 600.08 759.247C602.824 756.503 604.653 752.844 604.653 748.27C604.653 743.696 602.824 739.122 600.08 736.378C602.824 733.634 604.653 729.975 604.653 725.401C604.653 720.827 602.824 716.254 600.08 713.509C602.824 710.765 604.653 707.106 604.653 702.532C604.653 697.958 602.824 693.385 600.08 690.64C602.824 687.896 604.653 684.237 604.653 679.663C604.653 675.09 602.824 670.516 600.08 667.772C602.824 665.027 604.653 661.368 604.653 656.794C604.653 647.647 597.335 640.329 588.188 640.329C584.529 640.329 580.87 642.158 577.211 643.988C579.955 641.244 581.785 637.585 581.785 633.926C581.785 629.352 579.955 624.778 577.211 622.034C579.955 619.289 581.785 615.63 581.785 611.057C581.785 606.483 579.955 602.824 577.211 600.08C579.955 601.909 583.614 603.739 588.188 603.739C592.762 603.739 596.421 601.909 600.08 599.165C602.824 601.909 606.483 603.739 611.057 603.739C615.63 603.739 619.289 601.909 622.949 599.165C625.693 601.909 629.352 603.739 633.926 603.739C643.073 603.739 650.391 596.421 650.391 588.188C650.391 583.614 648.562 579.955 645.817 577.211C648.562 579.04 652.221 580.87 656.794 580.87C665.942 580.87 673.26 573.552 673.26 565.319C673.26 560.745 671.431 557.086 668.686 554.342C671.431 556.171 675.09 558.001 679.663 558.001C684.237 558.001 687.896 556.171 690.64 554.342C687.896 557.086 686.067 560.745 686.067 565.319C686.067 569.893 687.896 573.552 690.64 576.296C687.896 579.04 686.067 583.614 686.067 588.188C686.067 592.762 687.896 596.421 690.64 599.165C687.896 601.909 686.067 606.483 686.067 611.057C686.067 615.63 687.896 619.289 690.64 622.034C687.896 624.778 686.067 629.352 686.067 633.926C686.067 637.585 687.896 641.244 690.64 643.988C686.981 642.158 683.322 640.329 679.663 640.329C670.516 640.329 663.198 647.647 663.198 656.794C663.198 661.368 665.027 665.027 667.772 667.772C665.027 670.516 663.198 675.09 663.198 679.663C663.198 683.322 665.027 686.981 667.772 689.726C664.113 687.896 660.453 686.067 656.794 686.067C647.647 686.067 640.329 693.385 640.329 702.532C640.329 706.191 642.158 709.85 644.903 712.595C641.244 710.765 637.585 708.936 633.926 708.936C624.778 708.936 617.46 716.254 617.46 725.401C617.46 729.975 619.289 733.634 622.034 736.378C619.289 739.122 617.46 743.696 617.46 748.27C617.46 752.844 619.289 756.503 622.034 759.247C619.289 761.991 617.46 766.565 617.46 771.139C617.46 775.713 619.289 779.372 622.034 782.116C619.289 784.86 617.46 789.434 617.46 794.008C617.46 798.582 619.289 802.241 622.034 804.985C619.289 807.729 617.46 812.303 617.46 816.877C617.46 821.45 619.289 825.109 622.034 827.854C619.289 830.598 617.46 835.172 617.46 839.746C617.46 847.978 624.778 855.296 633.926 855.296C638.499 855.296 642.158 853.467 644.903 851.637C642.158 854.382 640.329 858.041 640.329 862.614C640.329 870.847 647.647 878.165 656.794 878.165C665.942 878.165 673.26 870.847 673.26 862.614C673.26 858.041 671.431 854.382 668.686 851.637C671.431 853.467 675.09 855.296 679.663 855.296C688.811 855.296 696.129 847.978 696.129 839.746C696.129 835.172 694.299 831.513 691.555 828.769C694.299 830.598 697.958 832.428 702.532 832.428C711.68 832.428 718.998 825.109 718.998 816.877C718.998 812.303 717.168 807.729 714.424 804.985C717.168 802.241 718.998 798.582 718.998 794.008C718.998 789.434 717.168 785.775 714.424 783.031C717.168 784.86 720.827 786.69 725.401 786.69C734.549 786.69 741.867 779.372 741.867 771.139C741.867 766.565 740.037 761.991 737.293 759.247C740.037 756.503 741.867 752.844 741.867 748.27C741.867 743.696 740.037 740.037 737.293 737.293C740.037 739.122 743.696 740.952 748.27 740.952C752.844 740.952 756.503 739.122 759.247 737.293C756.503 740.037 754.673 743.696 754.673 748.27C754.673 752.844 756.503 756.503 759.247 759.247C756.503 761.991 754.673 766.565 754.673 771.139C754.673 775.713 756.503 779.372 759.247 782.116C756.503 784.86 754.673 789.434 754.673 794.008C754.673 802.241 761.991 809.559 771.139 809.559C775.713 809.559 779.372 807.729 782.116 805.9C779.372 808.644 777.542 812.303 777.542 816.877C777.542 825.109 784.86 832.428 794.008 832.428C798.582 832.428 802.241 830.598 805.9 827.854C808.644 830.598 812.303 832.428 816.877 832.428C826.024 832.428 833.342 825.109 833.342 816.877C833.342 812.303 831.513 808.644 828.769 805.9C831.513 807.729 835.172 809.559 839.746 809.559C848.893 809.559 856.211 802.241 856.211 794.008C856.211 789.434 854.382 785.775 851.637 783.031C854.382 784.86 858.041 786.69 862.614 786.69C871.762 786.69 879.08 779.372 879.08 771.139C879.08 766.565 877.251 761.991 874.506 759.247C877.251 756.503 879.08 752.844 879.08 748.27C879.08 743.696 877.251 740.037 874.506 737.293C877.251 739.122 880.91 740.952 885.483 740.952C894.631 740.952 901.949 733.634 901.949 725.401C901.949 720.827 900.119 716.254 897.375 713.509C900.119 710.765 901.949 707.106 901.949 702.532C901.949 697.958 900.119 693.385 897.375 690.64C900.119 687.896 901.949 684.237 901.949 679.663C901.949 675.09 900.119 670.516 897.375 667.772C900.119 665.027 901.949 661.368 901.949 656.794C901.949 652.221 900.119 647.647 897.375 644.903C900.119 642.158 901.949 638.499 901.949 633.926C901.949 629.352 900.119 624.778 897.375 622.034C900.119 619.289 901.949 615.63 901.949 611.057C901.949 601.909 894.631 594.591 885.483 594.591C881.824 594.591 878.165 596.421 874.506 598.25C877.251 595.506 879.08 591.847 879.08 588.188C879.08 583.614 877.251 579.04 874.506 576.296C877.251 573.552 879.08 569.893 879.08 565.319C879.08 560.745 877.251 556.171 874.506 553.427C877.251 550.683 879.08 547.024 879.08 542.45C879.08 537.876 877.251 533.302 874.506 530.558C877.251 527.814 879.08 524.155 879.08 519.581C879.08 515.007 877.251 510.434 874.506 507.689C877.251 504.945 879.08 501.286 879.08 496.712C879.08 492.138 877.251 487.565 874.506 484.82C877.251 482.076 879.08 478.417 879.08 473.843C879.08 469.27 877.251 465.611 874.506 462.866C877.251 464.696 880.91 466.525 885.483 466.525C894.631 466.525 901.949 459.207 901.949 450.974C901.949 446.401 900.119 441.827 897.375 439.083C900.119 436.338 901.949 432.679 901.949 428.106C901.949 423.532 900.119 418.958 897.375 416.214C900.119 413.469 901.949 409.81 901.949 405.237C901.949 400.663 900.119 396.089 897.375 393.345C900.119 390.601 901.949 386.942 901.949 382.368C901.949 377.794 900.119 373.22 897.375 370.476C900.119 367.732 901.949 364.073 901.949 359.499C901.949 354.925 900.119 350.351 897.375 347.607C900.119 344.863 901.949 341.204 901.949 336.63C901.949 332.056 900.119 328.397 897.375 325.653C900.119 327.482 903.778 329.312 908.352 329.312C917.5 329.312 924.818 321.994 924.818 313.761C924.818 309.187 922.988 305.528 920.244 302.784C922.988 304.614 926.647 306.443 931.221 306.443C940.369 306.443 947.687 299.125 947.687 290.892C947.687 286.318 945.857 282.659 943.113 279.915C945.857 281.745 949.516 283.574 954.09 283.574C963.238 283.574 970.556 276.256 970.556 268.023C970.556 263.45 968.726 259.791 965.982 257.046C968.726 258.876 972.385 260.705 976.959 260.705C986.106 260.705 993.424 253.387 993.424 245.154C993.424 240.581 991.595 236.922 988.851 234.177C991.595 236.007 995.254 237.836 999.828 237.836C1004.4 237.836 1008.06 236.007 1010.8 234.177C1008.06 236.922 1006.23 240.581 1006.23 245.154C1006.23 249.728 1008.06 253.387 1010.8 256.132C1008.06 258.876 1006.23 263.45 1006.23 268.023C1006.23 272.597 1008.06 276.256 1010.8 279C1008.06 281.745 1006.23 286.318 1006.23 290.892C1006.23 294.551 1008.06 298.21 1010.8 300.955C1007.15 299.125 1003.49 297.296 999.828 297.296C990.68 297.296 983.362 304.614 983.362 313.761C983.362 318.335 985.192 321.994 987.936 324.738C985.192 327.482 983.362 332.056 983.362 336.63C983.362 341.204 985.192 344.863 987.936 347.607C985.192 350.351 983.362 354.925 983.362 359.499C983.362 363.158 985.192 366.817 987.936 369.561C984.277 367.732 980.618 365.902 976.959 365.902C967.811 365.902 960.493 373.22 960.493 382.368C960.493 386.942 962.323 390.601 965.067 393.345C962.323 396.089 960.493 400.663 960.493 405.237C960.493 408.896 962.323 412.555 965.067 415.299C961.408 413.469 957.749 411.64 954.09 411.64C944.942 411.64 937.624 418.958 937.624 428.106C937.624 432.679 939.454 436.338 942.198 439.083C939.454 441.827 937.624 446.401 937.624 450.974C937.624 454.633 939.454 458.293 942.198 461.037C938.539 459.207 934.88 457.378 931.221 457.378C922.074 457.378 914.756 464.696 914.756 473.843C914.756 478.417 916.585 482.076 919.329 484.82C916.585 487.565 914.756 492.138 914.756 496.712C914.756 501.286 916.585 504.945 919.329 507.689C916.585 510.434 914.756 515.007 914.756 519.581C914.756 524.155 916.585 527.814 919.329 530.558C916.585 533.302 914.756 537.876 914.756 542.45C914.756 550.683 922.074 558.001 931.221 558.001C935.795 558.001 939.454 556.171 942.198 554.342C939.454 557.086 937.624 560.745 937.624 565.319C937.624 569.893 939.454 573.552 942.198 576.296C939.454 579.04 937.624 583.614 937.624 588.188C937.624 596.421 944.942 603.739 954.09 603.739C958.664 603.739 962.323 601.909 965.067 600.08C962.323 602.824 960.493 606.483 960.493 611.057C960.493 615.63 962.323 619.289 965.067 622.034C962.323 624.778 960.493 629.352 960.493 633.926C960.493 637.585 962.323 641.244 965.067 643.988C961.408 642.158 957.749 640.329 954.09 640.329C944.942 640.329 937.624 647.647 937.624 656.794C937.624 661.368 939.454 665.027 942.198 667.772C939.454 670.516 937.624 675.09 937.624 679.663C937.624 684.237 939.454 687.896 942.198 690.64C939.454 693.385 937.624 697.958 937.624 702.532C937.624 706.191 939.454 709.85 942.198 712.595C938.539 710.765 934.88 708.936 931.221 708.936C922.074 708.936 914.756 716.254 914.756 725.401C914.756 729.975 916.585 733.634 919.329 736.378C916.585 739.122 914.756 743.696 914.756 748.27C914.756 751.929 916.585 755.588 919.329 758.332C915.67 756.503 912.011 754.673 908.352 754.673C899.205 754.673 891.887 761.991 891.887 771.139C891.887 775.713 893.716 779.372 896.46 782.116C893.716 784.86 891.887 789.434 891.887 794.008C891.887 798.582 893.716 802.241 896.46 804.985C893.716 807.729 891.887 812.303 891.887 816.877C891.887 821.45 893.716 825.109 896.46 827.854C893.716 830.598 891.887 835.172 891.887 839.746C891.887 847.978 899.205 855.296 908.352 855.296C912.926 855.296 916.585 853.467 920.244 850.723C922.988 853.467 926.647 855.296 931.221 855.296C935.795 855.296 939.454 853.467 943.113 850.723C945.857 853.467 949.516 855.296 954.09 855.296C958.664 855.296 962.323 853.467 965.982 850.723C968.726 853.467 972.385 855.296 976.959 855.296C981.533 855.296 985.192 853.467 987.936 851.637C985.192 854.382 983.362 858.041 983.362 862.614C983.362 866.273 985.192 869.933 987.936 872.677C984.277 870.847 980.618 869.018 976.959 869.018C967.811 869.018 960.493 876.336 960.493 885.483C960.493 893.716 967.811 901.034 976.959 901.034C981.533 901.034 985.192 899.205 987.936 897.375C985.192 900.119 983.362 903.778 983.362 908.352C983.362 916.585 990.68 923.903 999.828 923.903C1004.4 923.903 1008.06 922.074 1010.8 920.244C1008.06 922.988 1006.23 926.647 1006.23 931.221C1006.23 939.454 1013.55 946.772 1022.7 946.772C1027.27 946.772 1030.93 944.942 1034.59 942.198C1037.33 944.942 1040.99 946.772 1045.57 946.772C1050.14 946.772 1053.8 944.942 1057.46 942.198C1060.2 944.942 1063.86 946.772 1068.43 946.772C1073.01 946.772 1076.67 944.942 1080.33 942.198C1083.07 944.942 1086.73 946.772 1091.3 946.772C1100.45 946.772 1107.77 939.454 1107.77 931.221C1107.77 926.647 1105.94 922.988 1103.2 920.244C1105.94 922.074 1109.6 923.903 1114.17 923.903C1118.75 923.903 1122.41 922.074 1126.06 919.329C1128.81 922.074 1132.47 923.903 1137.04 923.903C1141.61 923.903 1145.27 922.074 1148.93 919.329C1151.68 922.074 1155.34 923.903 1159.91 923.903C1164.48 923.903 1168.14 922.074 1171.8 919.329C1174.55 922.074 1178.21 923.903 1182.78 923.903C1187.35 923.903 1191.01 922.074 1194.67 919.329C1197.41 922.074 1201.07 923.903 1205.65 923.903C1214.8 923.903 1222.11 916.585 1222.11 908.352C1222.11 903.778 1220.28 900.119 1217.54 897.375C1220.28 899.205 1223.94 901.034 1228.52 901.034C1237.66 901.034 1244.98 893.716 1244.98 885.483C1244.98 880.91 1243.15 876.336 1240.41 873.592C1243.15 870.847 1244.98 867.188 1244.98 862.614C1244.98 858.041 1243.15 853.467 1240.41 850.723C1243.15 847.978 1244.98 844.319 1244.98 839.746C1244.98 835.172 1243.15 830.598 1240.41 827.854C1243.15 825.109 1244.98 821.45 1244.98 816.877C1244.98 812.303 1243.15 808.644 1240.41 805.9C1243.15 807.729 1246.81 809.559 1251.39 809.559C1260.53 809.559 1267.85 802.241 1267.85 794.008C1267.85 789.434 1266.02 784.86 1263.28 782.116C1266.02 779.372 1267.85 775.713 1267.85 771.139C1267.85 766.565 1266.02 762.906 1263.28 760.162C1266.02 761.991 1269.68 763.821 1274.25 763.821C1278.83 763.821 1282.49 761.991 1286.15 759.247C1288.89 761.991 1292.55 763.821 1297.12 763.821C1301.7 763.821 1305.36 761.991 1309.02 759.247C1311.76 761.991 1315.42 763.821 1319.99 763.821C1329.14 763.821 1336.46 756.503 1336.46 748.27C1336.46 743.696 1334.63 740.037 1331.88 737.293C1334.63 739.122 1338.29 740.952 1342.86 740.952C1347.43 740.952 1351.09 739.122 1354.75 736.378C1357.5 739.122 1361.16 740.952 1365.73 740.952C1374.88 740.952 1382.2 733.634 1382.2 725.401C1382.2 720.827 1380.37 717.168 1377.62 714.424C1380.37 716.254 1384.03 718.083 1388.6 718.083C1397.75 718.083 1405.06 710.765 1405.06 702.532C1405.06 697.958 1403.23 694.299 1400.49 691.555C1403.23 693.385 1406.89 695.214 1411.47 695.214C1420.62 695.214 1427.93 687.896 1427.93 679.663C1427.93 675.09 1426.1 671.431 1423.36 668.686C1426.1 670.516 1429.76 672.345 1434.34 672.345C1443.48 672.345 1450.8 665.027 1450.8 656.794C1450.8 652.221 1448.97 648.562 1446.23 645.817C1448.97 647.647 1452.63 649.476 1457.21 649.476C1461.78 649.476 1465.44 647.647 1468.18 645.817C1465.44 648.562 1463.61 652.221 1463.61 656.794C1463.61 661.368 1465.44 665.027 1468.18 667.772C1465.44 670.516 1463.61 675.09 1463.61 679.663C1463.61 684.237 1465.44 687.896 1468.18 690.64C1465.44 693.385 1463.61 697.958 1463.61 702.532C1463.61 707.106 1465.44 710.765 1468.18 713.509C1465.44 716.254 1463.61 720.827 1463.61 725.401C1463.61 729.975 1465.44 733.634 1468.18 736.378C1465.44 739.122 1463.61 743.696 1463.61 748.27C1463.61 756.503 1470.93 763.821 1480.07 763.821C1484.65 763.821 1488.31 761.991 1491.05 760.162C1488.31 762.906 1486.48 766.565 1486.48 771.139C1486.48 779.372 1493.8 786.69 1502.94 786.69C1507.52 786.69 1511.18 784.86 1514.84 782.116C1517.58 784.86 1521.24 786.69 1525.81 786.69C1530.39 786.69 1534.05 784.86 1537.7 782.116C1540.45 784.86 1544.11 786.69 1548.68 786.69C1553.25 786.69 1556.91 784.86 1560.57 782.116C1563.32 784.86 1566.98 786.69 1571.55 786.69C1580.7 786.69 1588.02 779.372 1588.02 771.139C1588.02 766.565 1586.19 762.906 1583.44 760.162C1586.19 761.991 1589.85 763.821 1594.42 763.821C1603.57 763.821 1610.88 756.503 1610.88 748.27C1610.88 743.696 1609.05 740.037 1606.31 737.293C1609.05 739.122 1612.71 740.952 1617.29 740.952C1626.44 740.952 1633.75 733.634 1633.75 725.401C1633.75 720.827 1631.92 717.168 1629.18 714.424C1631.92 716.254 1635.58 718.083 1640.16 718.083C1649.3 718.083 1656.62 710.765 1656.62 702.532C1656.62 697.958 1654.79 694.299 1652.05 691.555C1654.79 693.385 1658.45 695.214 1663.03 695.214C1672.17 695.214 1679.49 687.896 1679.49 679.663C1679.49 675.09 1677.66 671.431 1674.92 668.686C1677.66 670.516 1681.32 672.345 1685.89 672.345C1695.04 672.345 1702.36 665.027 1702.36 656.794C1702.36 652.221 1700.53 648.562 1697.79 645.817C1700.53 647.647 1704.19 649.476 1708.76 649.476C1717.91 649.476 1725.23 642.158 1725.23 633.926C1725.23 629.352 1723.4 625.693 1720.66 622.949C1723.4 624.778 1727.06 626.608 1731.63 626.608C1736.21 626.608 1739.87 624.778 1742.61 622.949C1739.87 625.693 1738.04 629.352 1738.04 633.926C1738.04 638.499 1739.87 642.158 1742.61 644.903C1739.87 647.647 1738.04 652.221 1738.04 656.794C1738.04 661.368 1739.87 665.027 1742.61 667.772C1739.87 670.516 1738.04 675.09 1738.04 679.663C1738.04 683.322 1739.87 686.981 1742.61 689.726C1738.95 687.896 1735.29 686.067 1731.63 686.067C1722.48 686.067 1715.17 693.385 1715.17 702.532C1715.17 706.191 1717 709.85 1719.74 712.595C1716.08 710.765 1712.42 708.936 1708.76 708.936C1704.19 708.936 1700.53 710.765 1697.79 713.509C1694.13 710.765 1690.47 708.936 1685.89 708.936C1676.75 708.936 1669.43 716.254 1669.43 725.401C1669.43 729.06 1671.26 732.719 1674 735.463C1670.34 733.634 1666.68 731.804 1663.03 731.804C1653.88 731.804 1646.56 739.122 1646.56 748.27C1646.56 751.929 1648.39 755.588 1651.13 758.332C1647.47 756.503 1643.82 754.673 1640.16 754.673C1631.01 754.673 1623.69 761.991 1623.69 771.139C1623.69 774.798 1625.52 778.457 1628.26 781.201C1624.61 779.372 1620.95 777.542 1617.29 777.542C1608.14 777.542 1600.82 784.86 1600.82 794.008C1600.82 797.667 1602.65 801.326 1605.4 804.07C1601.74 802.241 1598.08 800.411 1594.42 800.411C1589.85 800.411 1586.19 802.241 1583.44 804.985C1579.78 802.241 1576.12 800.411 1571.55 800.411C1562.4 800.411 1555.08 807.729 1555.08 816.877C1555.08 820.536 1556.91 824.195 1559.66 826.939C1556 825.109 1552.34 823.28 1548.68 823.28C1539.53 823.28 1532.22 830.598 1532.22 839.746C1532.22 843.405 1534.05 847.064 1536.79 849.808C1533.13 847.978 1529.47 846.149 1525.81 846.149C1516.66 846.149 1509.35 853.467 1509.35 862.614C1509.35 867.188 1511.18 870.847 1513.92 873.592C1511.18 876.336 1509.35 880.91 1509.35 885.483C1509.35 890.057 1511.18 893.716 1513.92 896.46C1511.18 899.205 1509.35 903.778 1509.35 908.352C1509.35 916.585 1516.66 923.903 1525.81 923.903C1530.39 923.903 1534.05 922.074 1536.79 920.244C1534.05 922.988 1532.22 926.647 1532.22 931.221C1532.22 939.454 1539.53 946.772 1548.68 946.772C1557.83 946.772 1565.15 939.454 1565.15 931.221C1565.15 926.647 1563.32 922.988 1560.57 920.244C1563.32 922.074 1566.98 923.903 1571.55 923.903C1576.12 923.903 1579.78 922.074 1583.44 919.329C1586.19 922.074 1589.85 923.903 1594.42 923.903C1603.57 923.903 1610.88 916.585 1610.88 908.352C1610.88 903.778 1609.05 900.119 1606.31 897.375C1609.05 899.205 1612.71 901.034 1617.29 901.034C1621.86 901.034 1625.52 899.205 1629.18 896.46C1631.92 899.205 1635.58 901.034 1640.16 901.034C1644.73 901.034 1648.39 899.205 1652.05 896.46C1654.79 899.205 1658.45 901.034 1663.03 901.034C1667.6 901.034 1671.26 899.205 1674 897.375C1671.26 900.119 1669.43 903.778 1669.43 908.352C1669.43 916.585 1676.75 923.903 1685.89 923.903C1695.04 923.903 1702.36 916.585 1702.36 908.352C1702.36 903.778 1700.53 900.119 1697.79 897.375C1700.53 899.205 1704.19 901.034 1708.76 901.034C1717.91 901.034 1725.23 893.716 1725.23 885.483C1725.23 880.91 1723.4 876.336 1720.66 873.592C1723.4 870.847 1725.23 867.188 1725.23 862.614C1725.23 858.041 1723.4 853.467 1720.66 850.723C1723.4 847.978 1725.23 844.319 1725.23 839.746C1725.23 835.172 1723.4 831.513 1720.66 828.769C1723.4 830.598 1727.06 832.428 1731.63 832.428C1740.78 832.428 1748.1 825.109 1748.1 816.877C1748.1 812.303 1746.27 807.729 1743.52 804.985C1746.27 802.241 1748.1 798.582 1748.1 794.008C1748.1 789.434 1746.27 785.775 1743.52 783.031C1746.27 784.86 1749.93 786.69 1754.5 786.69C1763.65 786.69 1770.97 779.372 1770.97 771.139C1770.97 766.565 1769.14 761.991 1766.39 759.247C1769.14 756.503 1770.97 752.844 1770.97 748.27C1770.97 743.696 1769.14 740.037 1766.39 737.293C1769.14 739.122 1772.8 740.952 1777.37 740.952C1786.52 740.952 1793.84 733.634 1793.84 725.401C1793.84 720.827 1792.01 717.168 1789.26 714.424C1792.01 716.254 1795.67 718.083 1800.24 718.083C1809.39 718.083 1816.7 710.765 1816.7 702.532C1816.7 697.958 1814.87 694.299 1812.13 691.555C1814.87 693.385 1818.53 695.214 1823.11 695.214C1832.26 695.214 1839.57 687.896 1839.57 679.663C1839.57 675.09 1837.74 670.516 1835 667.772C1837.74 665.027 1839.57 661.368 1839.57 656.794C1839.57 652.221 1837.74 648.562 1835 645.817C1837.74 647.647 1841.4 649.476 1845.98 649.476C1855.12 649.476 1862.44 642.158 1862.44 633.926C1862.44 629.352 1860.61 625.693 1857.87 622.949C1860.61 624.778 1864.27 626.608 1868.85 626.608C1873.42 626.608 1877.08 624.778 1880.74 622.034C1883.48 624.778 1887.14 626.608 1891.71 626.608C1900.86 626.608 1908.18 619.289 1908.18 611.057C1908.18 606.483 1906.35 602.824 1903.61 600.08C1906.35 601.909 1910.01 603.739 1914.58 603.739C1923.73 603.739 1931.05 596.421 1931.05 588.188C1931.05 583.614 1929.22 579.955 1926.48 577.211C1929.22 579.04 1932.88 580.87 1937.45 580.87C1946.6 580.87 1953.92 573.552 1953.92 565.319C1953.92 560.745 1952.09 557.086 1949.34 554.342C1952.09 556.171 1955.75 558.001 1960.32 558.001C1969.47 558.001 1976.79 550.683 1976.79 542.45C1976.79 537.876 1974.96 534.217 1972.21 531.473C1974.96 533.302 1978.62 535.132 1983.19 535.132C1987.76 535.132 1991.42 533.302 1995.08 530.558C1997.83 533.302 2001.49 535.132 2006.06 535.132C2015.21 535.132 2022.52 527.814 2022.52 519.581C2022.52 515.007 2020.69 511.348 2017.95 508.604C2020.69 510.434 2024.35 512.263 2028.93 512.263C2038.08 512.263 2045.39 504.945 2045.39 496.712C2045.39 492.138 2043.56 488.479 2040.82 485.735C2043.56 487.565 2047.22 489.394 2051.8 489.394C2060.94 489.394 2068.26 482.076 2068.26 473.843C2068.26 469.27 2066.43 465.611 2063.69 462.866C2066.43 464.696 2070.09 466.525 2074.67 466.525C2083.81 466.525 2091.13 459.207 2091.13 450.974C2091.13 446.401 2089.3 442.742 2086.56 439.997C2089.3 441.827 2092.96 443.656 2097.53 443.656C2106.68 443.656 2114 436.338 2114 428.106C2114 423.532 2112.17 418.958 2109.43 416.214C2112.17 413.469 2114 409.81 2114 405.237C2114 400.663 2112.17 396.089 2109.43 393.345C2112.17 390.601 2114 386.942 2114 382.368C2114 377.794 2112.17 373.22 2109.43 370.476C2112.17 367.732 2114 364.073 2114 359.499C2114 350.351 2106.68 343.033 2097.53 343.033C2093.88 343.033 2090.22 344.863 2086.56 346.692C2089.3 343.948 2091.13 340.289 2091.13 336.63C2091.13 327.482 2083.81 320.164 2074.67 320.164C2070.09 320.164 2066.43 321.994 2063.69 324.738C2060.03 321.994 2056.37 320.164 2051.8 320.164C2047.22 320.164 2043.56 321.994 2040.82 324.738C2037.16 321.994 2033.5 320.164 2028.93 320.164C2024.35 320.164 2020.69 321.994 2017.95 324.738C2014.29 321.994 2010.63 320.164 2006.06 320.164C2001.49 320.164 1997.83 321.994 1995.08 324.738C1991.42 321.994 1987.76 320.164 1983.19 320.164C1978.62 320.164 1974.96 321.994 1972.21 324.738C1968.55 321.994 1964.89 320.164 1960.32 320.164C1955.75 320.164 1952.09 321.994 1949.34 324.738C1945.68 321.994 1942.03 320.164 1937.45 320.164C1933.79 320.164 1930.13 321.994 1926.48 323.823C1929.22 321.079 1931.05 317.42 1931.05 313.761C1931.05 309.187 1929.22 304.614 1926.48 301.869C1929.22 299.125 1931.05 295.466 1931.05 290.892C1931.05 281.745 1923.73 274.427 1914.58 274.427C1910.92 274.427 1907.27 276.256 1903.61 278.086C1906.35 275.341 1908.18 271.682 1908.18 268.023C1908.18 263.45 1906.35 258.876 1903.61 256.132C1906.35 253.387 1908.18 249.728 1908.18 245.154C1908.18 240.581 1906.35 236.007 1903.61 233.263C1906.35 230.518 1908.18 226.859 1908.18 222.286C1908.18 213.138 1900.86 205.82 1891.71 205.82C1887.14 205.82 1883.48 207.65 1880.74 210.394C1877.08 207.65 1873.42 205.82 1868.85 205.82C1864.27 205.82 1860.61 207.65 1857.87 210.394C1854.21 207.65 1850.55 205.82 1845.98 205.82C1836.83 205.82 1829.51 213.138 1829.51 222.286C1829.51 225.945 1831.34 229.604 1834.08 232.348C1830.43 230.518 1826.77 228.689 1823.11 228.689C1818.53 228.689 1814.87 230.518 1812.13 233.263C1808.47 230.518 1804.81 228.689 1800.24 228.689C1791.09 228.689 1783.77 236.007 1783.77 245.154C1783.77 248.814 1785.6 252.473 1788.35 255.217C1784.69 253.387 1781.03 251.558 1777.37 251.558C1768.22 251.558 1760.9 258.876 1760.9 268.023C1760.9 271.682 1762.73 275.341 1765.48 278.086C1761.82 276.256 1758.16 274.427 1754.5 274.427C1745.35 274.427 1738.04 281.745 1738.04 290.892C1738.04 295.466 1739.87 299.125 1742.61 301.869C1739.87 304.614 1738.04 309.187 1738.04 313.761C1738.04 318.335 1739.87 321.994 1742.61 324.738C1739.87 327.482 1738.04 332.056 1738.04 336.63C1738.04 344.863 1745.35 352.181 1754.5 352.181C1759.07 352.181 1762.73 350.351 1766.39 347.607C1769.14 350.351 1772.8 352.181 1777.37 352.181C1781.94 352.181 1785.6 350.351 1788.35 348.522C1785.6 351.266 1783.77 354.925 1783.77 359.499C1783.77 364.073 1785.6 367.732 1788.35 370.476C1785.6 373.22 1783.77 377.794 1783.77 382.368C1783.77 386.942 1785.6 390.601 1788.35 393.345C1785.6 396.089 1783.77 400.663 1783.77 405.237C1783.77 409.81 1785.6 413.469 1788.35 416.214C1785.6 418.958 1783.77 423.532 1783.77 428.106C1783.77 432.679 1785.6 436.338 1788.35 439.083C1785.6 441.827 1783.77 446.401 1783.77 450.974C1783.77 455.548 1785.6 459.207 1788.35 461.952C1785.6 464.696 1783.77 469.27 1783.77 473.843C1783.77 478.417 1785.6 482.076 1788.35 484.82C1785.6 487.565 1783.77 492.138 1783.77 496.712C1783.77 501.286 1785.6 504.945 1788.35 507.689C1785.6 510.434 1783.77 515.007 1783.77 519.581C1783.77 524.155 1785.6 527.814 1788.35 530.558C1785.6 533.302 1783.77 537.876 1783.77 542.45C1783.77 547.024 1785.6 550.683 1788.35 553.427C1785.6 556.171 1783.77 560.745 1783.77 565.319C1783.77 568.978 1785.6 572.637 1788.35 575.381C1784.69 573.552 1781.03 571.722 1777.37 571.722C1773.71 571.722 1770.05 573.552 1766.39 575.381C1769.14 572.637 1770.97 568.978 1770.97 565.319C1770.97 560.745 1769.14 556.171 1766.39 553.427C1769.14 550.683 1770.97 547.024 1770.97 542.45C1770.97 537.876 1769.14 533.302 1766.39 530.558C1769.14 527.814 1770.97 524.155 1770.97 519.581C1770.97 515.007 1769.14 510.434 1766.39 507.689C1769.14 504.945 1770.97 501.286 1770.97 496.712C1770.97 492.138 1769.14 487.565 1766.39 484.82C1769.14 482.076 1770.97 478.417 1770.97 473.843C1770.97 464.696 1763.65 457.378 1754.5 457.378C1750.84 457.378 1747.18 459.207 1743.52 461.037C1746.27 458.293 1748.1 454.633 1748.1 450.974C1748.1 446.401 1746.27 441.827 1743.52 439.083C1746.27 436.338 1748.1 432.679 1748.1 428.106C1748.1 423.532 1746.27 418.958 1743.52 416.214C1746.27 413.469 1748.1 409.81 1748.1 405.237C1748.1 400.663 1746.27 396.089 1743.52 393.345C1746.27 390.601 1748.1 386.942 1748.1 382.368C1748.1 373.22 1740.78 365.902 1731.63 365.902C1727.97 365.902 1724.31 367.732 1720.66 369.561C1723.4 366.817 1725.23 363.158 1725.23 359.499C1725.23 354.925 1723.4 350.351 1720.66 347.607C1723.4 344.863 1725.23 341.204 1725.23 336.63C1725.23 332.056 1723.4 327.482 1720.66 324.738C1723.4 321.994 1725.23 318.335 1725.23 313.761C1725.23 304.614 1717.91 297.296 1708.76 297.296C1705.1 297.296 1701.45 299.125 1697.79 300.955C1700.53 298.21 1702.36 294.551 1702.36 290.892C1702.36 281.745 1695.04 274.427 1685.89 274.427C1682.24 274.427 1678.58 276.256 1674.92 278.086C1677.66 275.341 1679.49 271.682 1679.49 268.023C1679.49 258.876 1672.17 251.558 1663.03 251.558C1658.45 251.558 1654.79 253.387 1652.05 256.132C1648.39 253.387 1644.73 251.558 1640.16 251.558C1635.58 251.558 1631.92 253.387 1629.18 256.132C1625.52 253.387 1621.86 251.558 1617.29 251.558C1612.71 251.558 1609.05 253.387 1606.31 256.132C1602.65 253.387 1598.99 251.558 1594.42 251.558C1585.27 251.558 1577.95 258.876 1577.95 268.023C1577.95 272.597 1579.78 276.256 1582.53 279C1579.78 281.745 1577.95 286.318 1577.95 290.892C1577.95 294.551 1579.78 298.21 1582.53 300.955C1578.87 299.125 1575.21 297.296 1571.55 297.296C1562.4 297.296 1555.08 304.614 1555.08 313.761C1555.08 318.335 1556.91 321.994 1559.66 324.738C1556.91 327.482 1555.08 332.056 1555.08 336.63C1555.08 341.204 1556.91 344.863 1559.66 347.607C1556.91 350.351 1555.08 354.925 1555.08 359.499C1555.08 363.158 1556.91 366.817 1559.66 369.561C1556 367.732 1552.34 365.902 1548.68 365.902C1545.02 365.902 1541.36 367.732 1537.7 369.561C1540.45 366.817 1542.28 363.158 1542.28 359.499C1542.28 354.925 1540.45 350.351 1537.7 347.607C1540.45 344.863 1542.28 341.204 1542.28 336.63C1542.28 332.056 1540.45 327.482 1537.7 324.738C1540.45 321.994 1542.28 318.335 1542.28 313.761C1542.28 309.187 1540.45 304.614 1537.7 301.869C1540.45 299.125 1542.28 295.466 1542.28 290.892C1542.28 286.318 1540.45 281.745 1537.7 279C1540.45 276.256 1542.28 272.597 1542.28 268.023C1542.28 258.876 1534.96 251.558 1525.81 251.558C1522.15 251.558 1518.49 253.387 1514.84 255.217C1517.58 252.473 1519.41 248.814 1519.41 245.154C1519.41 236.007 1512.09 228.689 1502.94 228.689C1498.37 228.689 1494.71 230.518 1491.97 233.263C1488.31 230.518 1484.65 228.689 1480.07 228.689C1475.5 228.689 1471.84 230.518 1469.1 233.263C1465.44 230.518 1461.78 228.689 1457.21 228.689C1452.63 228.689 1448.97 230.518 1446.23 233.263C1442.57 230.518 1438.91 228.689 1434.34 228.689C1425.19 228.689 1417.87 236.007 1417.87 245.154C1417.87 248.814 1419.7 252.473 1422.44 255.217C1418.79 253.387 1415.13 251.558 1411.47 251.558C1402.32 251.558 1395 258.876 1395 268.023C1395 271.682 1396.83 275.341 1399.58 278.086C1395.92 276.256 1392.26 274.427 1388.6 274.427C1384.94 274.427 1381.28 276.256 1377.62 278.086C1380.37 275.341 1382.2 271.682 1382.2 268.023C1382.2 263.45 1380.37 258.876 1377.62 256.132C1380.37 253.387 1382.2 249.728 1382.2 245.154C1382.2 236.007 1374.88 228.689 1365.73 228.689C1362.07 228.689 1358.41 230.518 1354.75 232.348C1357.5 229.604 1359.33 225.945 1359.33 222.286C1359.33 217.712 1357.5 213.138 1354.75 210.394C1357.5 207.65 1359.33 203.99 1359.33 199.417C1359.33 194.843 1357.5 190.269 1354.75 187.525C1357.5 184.781 1359.33 181.122 1359.33 176.548C1359.33 167.4 1352.01 160.082 1342.86 160.082C1339.2 160.082 1335.54 161.912 1331.88 163.741C1334.63 160.997 1336.46 157.338 1336.46 153.679C1336.46 144.531 1329.14 137.213 1319.99 137.213C1316.33 137.213 1312.67 139.043 1309.02 140.872C1311.76 138.128 1313.59 134.469 1313.59 130.81C1313.59 126.236 1311.76 121.662 1309.02 118.918C1311.76 116.174 1313.59 112.515 1313.59 107.941C1313.59 98.7936 1306.27 91.4756 1297.12 91.4756C1292.55 91.4756 1288.89 93.3051 1286.15 96.0493C1282.49 93.3051 1278.83 91.4756 1274.25 91.4756C1270.6 91.4756 1266.94 93.3051 1263.28 95.1346C1266.02 92.3903 1267.85 88.7313 1267.85 85.0723C1267.85 75.9247 1260.53 68.6067 1251.39 68.6067C1246.81 68.6067 1243.15 70.4362 1240.41 73.1804C1236.75 70.4362 1233.09 68.6067 1228.52 68.6067C1224.86 68.6067 1221.2 70.4362 1217.54 72.2657C1220.28 69.5214 1222.11 65.8624 1222.11 62.2034C1222.11 53.0558 1214.8 45.7378 1205.65 45.7378C1201.07 45.7378 1197.41 47.5673 1194.67 50.3116C1191.01 47.5673 1187.35 45.7378 1182.78 45.7378C1178.21 45.7378 1174.55 47.5673 1171.8 50.3116C1168.14 47.5673 1164.48 45.7378 1159.91 45.7378C1150.76 45.7378 1143.44 53.0558 1143.44 62.2034C1143.44 65.8624 1145.27 69.5214 1148.02 72.2657C1144.36 70.4362 1140.7 68.6067 1137.04 68.6067C1127.89 68.6067 1120.58 75.9247 1120.58 85.0723C1120.58 89.646 1122.41 93.3051 1125.15 96.0493C1122.41 98.7936 1120.58 103.367 1120.58 107.941C1120.58 112.515 1122.41 116.174 1125.15 118.918C1122.41 121.662 1120.58 126.236 1120.58 130.81C1120.58 139.043 1127.89 146.361 1137.04 146.361C1141.61 146.361 1145.27 144.531 1148.02 142.702C1145.27 145.446 1143.44 149.105 1143.44 153.679C1143.44 161.912 1150.76 169.23 1159.91 169.23C1164.48 169.23 1168.14 167.4 1171.8 164.656C1174.55 167.4 1178.21 169.23 1182.78 169.23C1187.35 169.23 1191.01 167.4 1193.76 165.571C1191.01 168.315 1189.18 171.974 1189.18 176.548C1189.18 181.122 1191.01 184.781 1193.76 187.525C1191.01 190.269 1189.18 194.843 1189.18 199.417C1189.18 203.99 1191.01 207.65 1193.76 210.394C1191.01 213.138 1189.18 217.712 1189.18 222.286C1189.18 226.859 1191.01 230.518 1193.76 233.263C1191.01 236.007 1189.18 240.581 1189.18 245.154C1189.18 253.387 1196.5 260.705 1205.65 260.705C1210.22 260.705 1213.88 258.876 1216.62 257.046C1213.88 259.791 1212.05 263.45 1212.05 268.023C1212.05 276.256 1219.37 283.574 1228.52 283.574C1233.09 283.574 1236.75 281.745 1239.49 279.915C1236.75 282.659 1234.92 286.318 1234.92 290.892C1234.92 299.125 1242.24 306.443 1251.39 306.443C1255.96 306.443 1259.62 304.614 1262.36 302.784C1259.62 305.528 1257.79 309.187 1257.79 313.761C1257.79 321.994 1265.11 329.312 1274.25 329.312C1278.83 329.312 1282.49 327.482 1286.15 324.738C1288.89 327.482 1292.55 329.312 1297.12 329.312C1301.7 329.312 1305.36 327.482 1308.1 325.653C1305.36 328.397 1303.53 332.056 1303.53 336.63C1303.53 344.863 1310.84 352.181 1319.99 352.181C1324.57 352.181 1328.23 350.351 1330.97 348.522C1328.23 351.266 1326.4 354.925 1326.4 359.499C1326.4 364.073 1328.23 367.732 1330.97 370.476C1328.23 373.22 1326.4 377.794 1326.4 382.368C1326.4 386.942 1328.23 390.601 1330.97 393.345C1328.23 396.089 1326.4 400.663 1326.4 405.237C1326.4 409.81 1328.23 413.469 1330.97 416.214C1328.23 418.958 1326.4 423.532 1326.4 428.106C1326.4 431.765 1328.23 435.424 1330.97 438.168C1327.31 436.338 1323.65 434.509 1319.99 434.509C1310.84 434.509 1303.53 441.827 1303.53 450.974C1303.53 454.633 1305.36 458.293 1308.1 461.037C1304.44 459.207 1300.78 457.378 1297.12 457.378C1287.98 457.378 1280.66 464.696 1280.66 473.843C1280.66 477.502 1282.49 481.161 1285.23 483.906C1281.57 482.076 1277.91 480.247 1274.25 480.247C1265.11 480.247 1257.79 487.565 1257.79 496.712C1257.79 501.286 1259.62 504.945 1262.36 507.689C1259.62 510.434 1257.79 515.007 1257.79 519.581C1257.79 524.155 1259.62 527.814 1262.36 530.558C1259.62 533.302 1257.79 537.876 1257.79 542.45C1257.79 547.024 1259.62 550.683 1262.36 553.427C1259.62 556.171 1257.79 560.745 1257.79 565.319C1257.79 573.552 1265.11 580.87 1274.25 580.87C1278.83 580.87 1282.49 579.04 1286.15 576.296C1288.89 579.04 1292.55 580.87 1297.12 580.87C1301.7 580.87 1305.36 579.04 1309.02 576.296C1311.76 579.04 1315.42 580.87 1319.99 580.87C1329.14 580.87 1336.46 573.552 1336.46 565.319C1336.46 560.745 1334.63 557.086 1331.88 554.342C1334.63 556.171 1338.29 558.001 1342.86 558.001C1347.43 558.001 1351.09 556.171 1353.84 554.342C1351.09 557.086 1349.26 560.745 1349.26 565.319C1349.26 569.893 1351.09 573.552 1353.84 576.296C1351.09 579.04 1349.26 583.614 1349.26 588.188C1349.26 591.847 1351.09 595.506 1353.84 598.25C1350.18 596.421 1346.52 594.591 1342.86 594.591C1333.71 594.591 1326.4 601.909 1326.4 611.057C1326.4 614.716 1328.23 618.375 1330.97 621.119C1327.31 619.289 1323.65 617.46 1319.99 617.46C1310.84 617.46 1303.53 624.778 1303.53 633.926C1303.53 637.585 1305.36 641.244 1308.1 643.988C1304.44 642.158 1300.78 640.329 1297.12 640.329C1292.55 640.329 1288.89 642.158 1286.15 644.903C1282.49 642.158 1278.83 640.329 1274.25 640.329C1269.68 640.329 1266.02 642.158 1263.28 644.903C1259.62 642.158 1255.96 640.329 1251.39 640.329C1242.24 640.329 1234.92 647.647 1234.92 656.794C1234.92 660.453 1236.75 664.113 1239.49 666.857C1235.83 665.027 1232.18 663.198 1228.52 663.198C1223.94 663.198 1220.28 665.027 1217.54 667.772C1213.88 665.027 1210.22 663.198 1205.65 663.198C1201.07 663.198 1197.41 665.027 1194.67 667.772C1191.01 665.027 1187.35 663.198 1182.78 663.198C1173.63 663.198 1166.31 670.516 1166.31 679.663C1166.31 683.322 1168.14 686.981 1170.89 689.726C1167.23 687.896 1163.57 686.067 1159.91 686.067C1150.76 686.067 1143.44 693.385 1143.44 702.532C1143.44 706.191 1145.27 709.85 1148.02 712.595C1144.36 710.765 1140.7 708.936 1137.04 708.936C1127.89 708.936 1120.58 716.254 1120.58 725.401C1120.58 729.06 1122.41 732.719 1125.15 735.463C1121.49 733.634 1117.83 731.804 1114.17 731.804C1105.02 731.804 1097.71 739.122 1097.71 748.27C1097.71 752.844 1099.54 756.503 1102.28 759.247C1099.54 761.991 1097.71 766.565 1097.71 771.139C1097.71 774.798 1099.54 778.457 1102.28 781.201C1098.62 779.372 1094.96 777.542 1091.3 777.542C1082.16 777.542 1074.84 784.86 1074.84 794.008C1074.84 797.667 1076.67 801.326 1079.41 804.07C1075.75 802.241 1072.09 800.411 1068.43 800.411C1059.29 800.411 1051.97 807.729 1051.97 816.877C1051.97 820.536 1053.8 824.195 1056.54 826.939C1052.88 825.109 1049.22 823.28 1045.57 823.28C1041.91 823.28 1038.25 825.109 1034.59 826.939C1037.33 824.195 1039.16 820.536 1039.16 816.877C1039.16 812.303 1037.33 807.729 1034.59 804.985C1037.33 802.241 1039.16 798.582 1039.16 794.008C1039.16 789.434 1037.33 785.775 1034.59 783.031C1037.33 784.86 1040.99 786.69 1045.57 786.69C1054.71 786.69 1062.03 779.372 1062.03 771.139C1062.03 766.565 1060.2 762.906 1057.46 760.162C1060.2 761.991 1063.86 763.821 1068.43 763.821C1077.58 763.821 1084.9 756.503 1084.9 748.27C1084.9 743.696 1083.07 739.122 1080.33 736.378C1083.07 733.634 1084.9 729.975 1084.9 725.401C1084.9 720.827 1083.07 717.168 1080.33 714.424C1083.07 716.254 1086.73 718.083 1091.3 718.083C1100.45 718.083 1107.77 710.765 1107.77 702.532C1107.77 697.958 1105.94 694.299 1103.2 691.555C1105.94 693.385 1109.6 695.214 1114.17 695.214C1123.32 695.214 1130.64 687.896 1130.64 679.663C1130.64 675.09 1128.81 671.431 1126.06 668.686C1128.81 670.516 1132.47 672.345 1137.04 672.345C1146.19 672.345 1153.51 665.027 1153.51 656.794C1153.51 652.221 1151.68 648.562 1148.93 645.817C1151.68 647.647 1155.34 649.476 1159.91 649.476C1169.06 649.476 1176.38 642.158 1176.38 633.926C1176.38 629.352 1174.55 625.693 1171.8 622.949C1174.55 624.778 1178.21 626.608 1182.78 626.608C1191.93 626.608 1199.24 619.289 1199.24 611.057C1199.24 606.483 1197.41 602.824 1194.67 600.08C1197.41 601.909 1201.07 603.739 1205.65 603.739C1214.8 603.739 1222.11 596.421 1222.11 588.188C1222.11 583.614 1220.28 579.955 1217.54 577.211C1220.28 579.04 1223.94 580.87 1228.52 580.87C1237.66 580.87 1244.98 573.552 1244.98 565.319C1244.98 560.745 1243.15 556.171 1240.41 553.427C1243.15 550.683 1244.98 547.024 1244.98 542.45C1244.98 537.876 1243.15 533.302 1240.41 530.558C1243.15 527.814 1244.98 524.155 1244.98 519.581C1244.98 515.007 1243.15 510.434 1240.41 507.689C1243.15 504.945 1244.98 501.286 1244.98 496.712C1244.98 492.138 1243.15 487.565 1240.41 484.82C1243.15 482.076 1244.98 478.417 1244.98 473.843C1244.98 469.27 1243.15 465.611 1240.41 462.866C1243.15 464.696 1246.81 466.525 1251.39 466.525C1260.53 466.525 1267.85 459.207 1267.85 450.974C1267.85 446.401 1266.02 441.827 1263.28 439.083C1266.02 436.338 1267.85 432.679 1267.85 428.106C1267.85 423.532 1266.02 418.958 1263.28 416.214C1266.02 413.469 1267.85 409.81 1267.85 405.237C1267.85 396.089 1260.53 388.771 1251.39 388.771C1247.73 388.771 1244.07 390.601 1240.41 392.43C1243.15 389.686 1244.98 386.027 1244.98 382.368C1244.98 373.22 1237.66 365.902 1228.52 365.902C1223.94 365.902 1220.28 367.732 1217.54 370.476C1213.88 367.732 1210.22 365.902 1205.65 365.902C1201.99 365.902 1198.33 367.732 1194.67 369.561C1197.41 366.817 1199.24 363.158 1199.24 359.499C1199.24 350.351 1191.93 343.033 1182.78 343.033C1178.21 343.033 1174.55 344.863 1171.8 347.607C1168.14 344.863 1164.48 343.033 1159.91 343.033C1156.25 343.033 1152.59 344.863 1148.93 346.692C1151.68 343.948 1153.51 340.289 1153.51 336.63C1153.51 332.056 1151.68 327.482 1148.93 324.738C1151.68 321.994 1153.51 318.335 1153.51 313.761C1153.51 309.187 1151.68 304.614 1148.93 301.869C1151.68 299.125 1153.51 295.466 1153.51 290.892C1153.51 286.318 1151.68 281.745 1148.93 279C1151.68 276.256 1153.51 272.597 1153.51 268.023C1153.51 263.45 1151.68 259.791 1148.93 257.046C1151.68 258.876 1155.34 260.705 1159.91 260.705C1169.06 260.705 1176.38 253.387 1176.38 245.154C1176.38 240.581 1174.55 236.007 1171.8 233.263C1174.55 230.518 1176.38 226.859 1176.38 222.286C1176.38 213.138 1169.06 205.82 1159.91 205.82C1156.25 205.82 1152.59 207.65 1148.93 209.479C1151.68 206.735 1153.51 203.076 1153.51 199.417C1153.51 190.269 1146.19 182.951 1137.04 182.951C1132.47 182.951 1128.81 184.781 1126.06 187.525C1122.41 184.781 1118.75 182.951 1114.17 182.951C1110.51 182.951 1106.85 184.781 1103.2 186.61C1105.94 183.866 1107.77 180.207 1107.77 176.548C1107.77 167.4 1100.45 160.082 1091.3 160.082C1086.73 160.082 1083.07 161.912 1080.33 164.656C1076.67 161.912 1073.01 160.082 1068.43 160.082C1064.78 160.082 1061.12 161.912 1057.46 163.741C1060.2 160.997 1062.03 157.338 1062.03 153.679C1062.03 149.105 1060.2 144.531 1057.46 141.787C1060.2 139.043 1062.03 135.384 1062.03 130.81C1062.03 126.236 1060.2 121.662 1057.46 118.918C1060.2 116.174 1062.03 112.515 1062.03 107.941C1062.03 103.367 1060.2 98.7936 1057.46 96.0493C1060.2 93.3051 1062.03 89.646 1062.03 85.0723C1062.03 80.4985 1060.2 75.9247 1057.46 73.1804C1060.2 70.4362 1062.03 66.7772 1062.03 62.2034C1062.03 57.6296 1060.2 53.0558 1057.46 50.3116C1060.2 47.5673 1062.03 43.9083 1062.03 39.3345C1062.03 30.1869 1054.71 22.8689 1045.57 22.8689C1041.91 22.8689 1038.25 24.6984 1034.59 26.5279C1037.33 23.7836 1039.16 20.1246 1039.16 16.4656C1039.16 7.31804 1031.84 0 1022.7 0C1018.12 0 1014.46 1.82951 1011.72 4.57378C1008.06 1.82951 1004.4 0 999.828 0C990.68 0 983.362 7.31804 983.362 16.4656C983.362 20.1246 985.192 23.7836 987.936 26.5279C984.277 24.6984 980.618 22.8689 976.959 22.8689C967.811 22.8689 960.493 30.1869 960.493 39.3345C960.493 42.9935 962.323 46.6525 965.067 49.3968C961.408 47.5673 957.749 45.7378 954.09 45.7378C944.942 45.7378 937.624 53.0558 937.624 62.2034C937.624 65.8624 939.454 69.5214 942.198 72.2657C938.539 70.4362 934.88 68.6067 931.221 68.6067C922.074 68.6067 914.756 75.9247 914.756 85.0723C914.756 88.7313 916.585 92.3903 919.329 95.1346C915.67 93.3051 912.011 91.4756 908.352 91.4756C899.205 91.4756 891.887 98.7936 891.887 107.941C891.887 111.6 893.716 115.259 896.46 118.003C892.801 116.174 889.142 114.344 885.483 114.344C880.91 114.344 877.251 116.174 874.506 118.918C870.847 116.174 867.188 114.344 862.614 114.344C853.467 114.344 846.149 121.662 846.149 130.81C846.149 134.469 847.978 138.128 850.723 140.872C847.064 139.043 843.405 137.213 839.746 137.213C830.598 137.213 823.28 144.531 823.28 153.679C823.28 157.338 825.109 160.997 827.854 163.741C824.195 161.912 820.536 160.082 816.877 160.082C807.729 160.082 800.411 167.4 800.411 176.548C800.411 180.207 802.241 183.866 804.985 186.61C801.326 184.781 797.667 182.951 794.008 182.951C790.349 182.951 786.69 184.781 783.031 186.61C785.775 183.866 787.605 180.207 787.605 176.548C787.605 167.4 780.286 160.082 771.139 160.082C766.565 160.082 762.906 161.912 760.162 164.656C756.503 161.912 752.844 160.082 748.27 160.082C739.122 160.082 731.804 167.4 731.804 176.548C731.804 180.207 733.634 183.866 736.378 186.61C732.719 184.781 729.06 182.951 725.401 182.951C716.254 182.951 708.936 190.269 708.936 199.417C708.936 203.99 710.765 207.65 713.509 210.394C710.765 213.138 708.936 217.712 708.936 222.286C708.936 226.859 710.765 230.518 713.509 233.263C710.765 236.007 708.936 240.581 708.936 245.154C708.936 249.728 710.765 253.387 713.509 256.132C710.765 258.876 708.936 263.45 708.936 268.023C708.936 272.597 710.765 276.256 713.509 279C710.765 281.745 708.936 286.318 708.936 290.892C708.936 295.466 710.765 299.125 713.509 301.869C710.765 304.614 708.936 309.187 708.936 313.761C708.936 318.335 710.765 321.994 713.509 324.738C710.765 327.482 708.936 332.056 708.936 336.63C708.936 340.289 710.765 343.948 713.509 346.692C709.85 344.863 706.191 343.033 702.532 343.033C693.385 343.033 686.067 350.351 686.067 359.499C686.067 363.158 687.896 366.817 690.64 369.561C686.981 367.732 683.322 365.902 679.663 365.902C676.004 365.902 672.345 367.732 668.686 369.561C671.431 366.817 673.26 363.158 673.26 359.499C673.26 354.925 671.431 350.351 668.686 347.607C671.431 344.863 673.26 341.204 673.26 336.63C673.26 332.056 671.431 327.482 668.686 324.738C671.431 321.994 673.26 318.335 673.26 313.761C673.26 309.187 671.431 304.614 668.686 301.869C671.431 299.125 673.26 295.466 673.26 290.892C673.26 286.318 671.431 281.745 668.686 279C671.431 276.256 673.26 272.597 673.26 268.023C673.26 263.45 671.431 258.876 668.686 256.132C671.431 253.387 673.26 249.728 673.26 245.154C673.26 240.581 671.431 236.007 668.686 233.263C671.431 230.518 673.26 226.859 673.26 222.286C673.26 213.138 665.942 205.82 656.794 205.82C653.135 205.82 649.476 207.65 645.817 209.479C648.562 206.735 650.391 203.076 650.391 199.417C650.391 194.843 648.562 190.269 645.817 187.525C648.562 184.781 650.391 181.122 650.391 176.548C650.391 167.4 643.073 160.082 633.926 160.082C630.267 160.082 626.608 161.912 622.949 163.741C625.693 160.997 627.522 157.338 627.522 153.679C627.522 144.531 620.204 137.213 611.057 137.213C607.398 137.213 603.739 139.043 600.08 140.872C602.824 138.128 604.653 134.469 604.653 130.81C604.653 126.236 602.824 121.662 600.08 118.918C602.824 116.174 604.653 112.515 604.653 107.941C604.653 103.367 602.824 99.7084 600.08 96.9641C602.824 98.7936 606.483 100.623 611.057 100.623C620.204 100.623 627.522 93.3051 627.522 85.0723C627.522 80.4985 625.693 75.9247 622.949 73.1804C625.693 70.4362 627.522 66.7772 627.522 62.2034C627.522 57.6296 625.693 53.0558 622.949 50.3116C625.693 47.5673 627.522 43.9083 627.522 39.3345C627.522 30.1869 620.204 22.8689 611.057 22.8689C607.398 22.8689 603.739 24.6984 600.08 26.5279C602.824 23.7836 604.653 20.1246 604.653 16.4656C604.653 7.31804 597.335 0 588.188 0C583.614 0 579.955 1.82951 577.211 4.57378C573.552 1.82951 569.893 0 565.319 0C556.171 0 548.853 7.31804 548.853 16.4656C548.853 20.1246 550.683 23.7836 553.427 26.5279C549.768 24.6984 546.109 22.8689 542.45 22.8689C533.302 22.8689 525.984 30.1869 525.984 39.3345C525.984 42.9935 527.814 46.6525 530.558 49.3968C526.899 47.5673 523.24 45.7378 519.581 45.7378C510.434 45.7378 503.116 53.0558 503.116 62.2034C503.116 66.7772 504.945 70.4362 507.689 73.1804C504.945 75.9247 503.116 80.4985 503.116 85.0723C503.116 88.7313 504.945 92.3903 507.689 95.1346C504.03 93.3051 500.371 91.4756 496.712 91.4756C487.565 91.4756 480.247 98.7936 480.247 107.941C480.247 112.515 482.076 116.174 484.82 118.918C482.076 121.662 480.247 126.236 480.247 130.81C480.247 135.384 482.076 139.043 484.82 141.787C482.076 144.531 480.247 149.105 480.247 153.679C480.247 158.253 482.076 161.912 484.82 164.656C482.076 167.4 480.247 171.974 480.247 176.548C480.247 181.122 482.076 184.781 484.82 187.525C482.076 190.269 480.247 194.843 480.247 199.417C480.247 207.65 487.565 214.968 496.712 214.968C501.286 214.968 504.945 213.138 507.689 211.309C504.945 214.053 503.116 217.712 503.116 222.286C503.116 230.518 510.434 237.836 519.581 237.836C524.155 237.836 527.814 236.007 530.558 234.177C527.814 236.922 525.984 240.581 525.984 245.154C525.984 253.387 533.302 260.705 542.45 260.705C547.024 260.705 550.683 258.876 553.427 257.046C550.683 259.791 548.853 263.45 548.853 268.023C548.853 276.256 556.171 283.574 565.319 283.574C569.893 283.574 573.552 281.745 576.296 279.915C573.552 282.659 571.722 286.318 571.722 290.892C571.722 295.466 573.552 299.125 576.296 301.869C573.552 304.614 571.722 309.187 571.722 313.761C571.722 318.335 573.552 321.994 576.296 324.738C573.552 327.482 571.722 332.056 571.722 336.63C571.722 341.204 573.552 344.863 576.296 347.607C573.552 350.351 571.722 354.925 571.722 359.499C571.722 364.073 573.552 367.732 576.296 370.476C573.552 373.22 571.722 377.794 571.722 382.368C571.722 386.942 573.552 390.601 576.296 393.345C573.552 396.089 571.722 400.663 571.722 405.237C571.722 409.81 573.552 413.469 576.296 416.214C573.552 418.958 571.722 423.532 571.722 428.106C571.722 431.765 573.552 435.424 576.296 438.168C572.637 436.338 568.978 434.509 565.319 434.509C556.171 434.509 548.853 441.827 548.853 450.974C548.853 455.548 550.683 459.207 553.427 461.952C550.683 464.696 548.853 469.27 548.853 473.843C548.853 478.417 550.683 482.076 553.427 484.82C550.683 487.565 548.853 492.138 548.853 496.712C548.853 501.286 550.683 504.945 553.427 507.689C550.683 510.434 548.853 515.007 548.853 519.581C548.853 524.155 550.683 527.814 553.427 530.558C550.683 533.302 548.853 537.876 548.853 542.45C548.853 546.109 550.683 549.768 553.427 552.512C549.768 550.683 546.109 548.853 542.45 548.853C538.791 548.853 535.132 550.683 531.473 552.512C534.217 549.768 536.047 546.109 536.047 542.45C536.047 537.876 534.217 533.302 531.473 530.558C534.217 527.814 536.047 524.155 536.047 519.581C536.047 510.434 528.729 503.116 519.581 503.116C515.922 503.116 512.263 504.945 508.604 506.775C511.348 504.03 513.178 500.371 513.178 496.712C513.178 492.138 511.348 487.565 508.604 484.82C511.348 482.076 513.178 478.417 513.178 473.843C513.178 469.27 511.348 465.611 508.604 462.866C511.348 464.696 515.007 466.525 519.581 466.525C528.729 466.525 536.047 459.207 536.047 450.974C536.047 446.401 534.217 441.827 531.473 439.083C534.217 436.338 536.047 432.679 536.047 428.106C536.047 423.532 534.217 418.958 531.473 416.214C534.217 413.469 536.047 409.81 536.047 405.237C536.047 400.663 534.217 397.004 531.473 394.26C534.217 396.089 537.876 397.919 542.45 397.919C551.598 397.919 558.916 390.601 558.916 382.368C558.916 377.794 557.086 373.22 554.342 370.476C557.086 367.732 558.916 364.073 558.916 359.499C558.916 354.925 557.086 350.351 554.342 347.607C557.086 344.863 558.916 341.204 558.916 336.63C558.916 332.056 557.086 327.482 554.342 324.738C557.086 321.994 558.916 318.335 558.916 313.761C558.916 304.614 551.598 297.296 542.45 297.296C538.791 297.296 535.132 299.125 531.473 300.955C534.217 298.21 536.047 294.551 536.047 290.892C536.047 281.745 528.729 274.427 519.581 274.427C515.007 274.427 511.348 276.256 508.604 279C504.945 276.256 501.286 274.427 496.712 274.427C493.053 274.427 489.394 276.256 485.735 278.086C488.479 275.341 490.309 271.682 490.309 268.023C490.309 258.876 482.991 251.558 473.843 251.558C470.184 251.558 466.525 253.387 462.866 255.217C465.611 252.473 467.44 248.814 467.44 245.154C467.44 240.581 465.611 236.007 462.866 233.263C465.611 230.518 467.44 226.859 467.44 222.286C467.44 213.138 460.122 205.82 450.974 205.82C447.315 205.82 443.656 207.65 439.997 209.479C442.742 206.735 444.571 203.076 444.571 199.417C444.571 194.843 442.742 190.269 439.997 187.525C442.742 184.781 444.571 181.122 444.571 176.548C444.571 171.974 442.742 167.4 439.997 164.656C442.742 161.912 444.571 158.253 444.571 153.679C444.571 149.105 442.742 145.446 439.997 142.702C442.742 144.531 446.401 146.361 450.974 146.361C460.122 146.361 467.44 139.043 467.44 130.81C467.44 126.236 465.611 121.662 462.866 118.918C465.611 116.174 467.44 112.515 467.44 107.941C467.44 98.7936 460.122 91.4756 450.974 91.4756C447.315 91.4756 443.656 93.3051 439.997 95.1346C442.742 92.3903 444.571 88.7313 444.571 85.0723C444.571 75.9247 437.253 68.6067 428.106 68.6067C424.447 68.6067 420.788 70.4362 417.129 72.2657C419.873 69.5214 421.702 65.8624 421.702 62.2034C421.702 53.0558 414.384 45.7378 405.237 45.7378C396.089 45.7378 388.771 53.0558 388.771 62.2034C388.771 65.8624 390.601 69.5214 393.345 72.2657C389.686 70.4362 386.027 68.6067 382.368 68.6067C373.22 68.6067 365.902 75.9247 365.902 85.0723C365.902 88.7313 367.732 92.3903 370.476 95.1346C366.817 93.3051 363.158 91.4756 359.499 91.4756C350.351 91.4756 343.033 98.7936 343.033 107.941C343.033 111.6 344.863 115.259 347.607 118.003C343.948 116.174 340.289 114.344 336.63 114.344C327.482 114.344 320.164 121.662 320.164 130.81C320.164 134.469 321.994 138.128 324.738 140.872C321.079 139.043 317.42 137.213 313.761 137.213C304.614 137.213 297.296 144.531 297.296 153.679C297.296 158.253 299.125 161.912 301.869 164.656C299.125 167.4 297.296 171.974 297.296 176.548C297.296 180.207 299.125 183.866 301.869 186.61C298.21 184.781 294.551 182.951 290.892 182.951C281.745 182.951 274.427 190.269 274.427 199.417C274.427 203.99 276.256 207.65 279 210.394C276.256 213.138 274.427 217.712 274.427 222.286C274.427 226.859 276.256 230.518 279 233.263C276.256 236.007 274.427 240.581 274.427 245.154C274.427 249.728 276.256 253.387 279 256.132C276.256 258.876 274.427 263.45 274.427 268.023C274.427 271.682 276.256 275.341 279 278.086C275.341 276.256 271.682 274.427 268.023 274.427C264.364 274.427 260.705 276.256 257.046 278.086C259.791 275.341 261.62 271.682 261.62 268.023C261.62 263.45 259.791 258.876 257.046 256.132C259.791 253.387 261.62 249.728 261.62 245.154C261.62 236.007 254.302 228.689 245.154 228.689C236.007 228.689 228.689 236.007 228.689 245.154C228.689 248.814 230.518 252.473 233.263 255.217C229.604 253.387 225.945 251.558 222.286 251.558C213.138 251.558 205.82 258.876 205.82 268.023C205.82 272.597 207.65 276.256 210.394 279C207.65 281.745 205.82 286.318 205.82 290.892C205.82 294.551 207.65 298.21 210.394 300.955C206.735 299.125 203.076 297.296 199.417 297.296C190.269 297.296 182.951 304.614 182.951 313.761C182.951 318.335 184.781 321.994 187.525 324.738C184.781 327.482 182.951 332.056 182.951 336.63C182.951 341.204 184.781 344.863 187.525 347.607C184.781 350.351 182.951 354.925 182.951 359.499C182.951 364.073 184.781 367.732 187.525 370.476C184.781 373.22 182.951 377.794 182.951 382.368C182.951 386.942 184.781 390.601 187.525 393.345C184.781 396.089 182.951 400.663 182.951 405.237C182.951 413.469 190.269 420.788 199.417 420.788C203.99 420.788 207.65 418.958 210.394 417.129C207.65 419.873 205.82 423.532 205.82 428.106C205.82 432.679 207.65 436.338 210.394 439.083C207.65 441.827 205.82 446.401 205.82 450.974C205.82 455.548 207.65 459.207 210.394 461.952C207.65 464.696 205.82 469.27 205.82 473.843C205.82 482.076 213.138 489.394 222.286 489.394C226.859 489.394 230.518 487.565 233.263 485.735C230.518 488.479 228.689 492.138 228.689 496.712C228.689 501.286 230.518 504.945 233.263 507.689C230.518 510.434 228.689 515.007 228.689 519.581C228.689 523.24 230.518 526.899 233.263 529.643C229.604 527.814 225.945 525.984 222.286 525.984C218.627 525.984 214.968 527.814 211.309 529.643C214.053 526.899 215.882 523.24 215.882 519.581C215.882 510.434 208.564 503.116 199.417 503.116C195.758 503.116 192.099 504.945 188.44 506.775C191.184 504.03 193.013 500.371 193.013 496.712C193.013 492.138 191.184 487.565 188.44 484.82C191.184 482.076 193.013 478.417 193.013 473.843C193.013 464.696 185.695 457.378 176.548 457.378C172.889 457.378 169.23 459.207 165.571 461.037C168.315 458.293 170.145 454.633 170.145 450.974C170.145 441.827 162.826 434.509 153.679 434.509C150.02 434.509 146.361 436.338 142.702 438.168C145.446 435.424 147.276 431.765 147.276 428.106C147.276 418.958 139.958 411.64 130.81 411.64C127.151 411.64 123.492 413.469 119.833 415.299C122.577 412.555 124.407 408.896 124.407 405.237C124.407 400.663 122.577 396.089 119.833 393.345C122.577 390.601 124.407 386.942 124.407 382.368C124.407 373.22 117.089 365.902 107.941 365.902C103.367 365.902 99.7084 367.732 96.9641 370.476C93.3051 367.732 89.646 365.902 85.0723 365.902C80.4985 365.902 76.8395 367.732 74.0952 370.476C70.4362 367.732 66.7772 365.902 62.2034 365.902C57.6296 365.902 53.9706 367.732 51.2263 370.476C47.5673 367.732 43.9083 365.902 39.3345 365.902C30.1869 365.902 22.8689 373.22 22.8689 382.368C22.8689 386.027 24.6984 389.686 27.4427 392.43C23.7836 390.601 20.1246 388.771 16.4656 388.771C7.31804 388.771 0 396.089 0 405.237C0 409.81 1.82951 413.469 4.57378 416.214C1.82951 418.958 0 423.532 0 428.106C0 432.679 1.82951 436.338 4.57378 439.083C1.82951 441.827 0 446.401 0 450.974C0 459.207 7.31804 466.525 16.4656 466.525ZM268.023 306.443C277.171 306.443 284.489 299.125 284.489 290.892C284.489 286.318 282.659 282.659 279.915 279.915C282.659 281.745 286.318 283.574 290.892 283.574C295.466 283.574 299.125 281.745 301.869 279.915C299.125 282.659 297.296 286.318 297.296 290.892C297.296 295.466 299.125 299.125 301.869 301.869C299.125 304.614 297.296 309.187 297.296 313.761C297.296 318.335 299.125 321.994 301.869 324.738C299.125 327.482 297.296 332.056 297.296 336.63C297.296 341.204 299.125 344.863 301.869 347.607C299.125 350.351 297.296 354.925 297.296 359.499C297.296 364.073 299.125 367.732 301.869 370.476C299.125 373.22 297.296 377.794 297.296 382.368C297.296 386.942 299.125 390.601 301.869 393.345C299.125 396.089 297.296 400.663 297.296 405.237C297.296 409.81 299.125 413.469 301.869 416.214C299.125 418.958 297.296 423.532 297.296 428.106C297.296 431.765 299.125 435.424 301.869 438.168C298.21 436.338 294.551 434.509 290.892 434.509C287.233 434.509 283.574 436.338 279.915 438.168C282.659 435.424 284.489 431.765 284.489 428.106C284.489 423.532 282.659 418.958 279.915 416.214C282.659 413.469 284.489 409.81 284.489 405.237C284.489 400.663 282.659 396.089 279.915 393.345C282.659 390.601 284.489 386.942 284.489 382.368C284.489 373.22 277.171 365.902 268.023 365.902C264.364 365.902 260.705 367.732 257.046 369.561C259.791 366.817 261.62 363.158 261.62 359.499C261.62 354.925 259.791 350.351 257.046 347.607C259.791 344.863 261.62 341.204 261.62 336.63C261.62 332.056 259.791 327.482 257.046 324.738C259.791 321.994 261.62 318.335 261.62 313.761C261.62 309.187 259.791 305.528 257.046 302.784C259.791 304.614 263.45 306.443 268.023 306.443ZM313.761 603.739C318.335 603.739 321.994 601.909 325.653 599.165C328.397 601.909 332.056 603.739 336.63 603.739C341.204 603.739 344.863 601.909 347.607 600.08C344.863 602.824 343.033 606.483 343.033 611.057C343.033 619.289 350.351 626.608 359.499 626.608C364.073 626.608 367.732 624.778 370.476 622.949C367.732 625.693 365.902 629.352 365.902 633.926C365.902 642.158 373.22 649.476 382.368 649.476C386.942 649.476 390.601 647.647 393.345 645.817C390.601 648.562 388.771 652.221 388.771 656.794C388.771 661.368 390.601 665.027 393.345 667.772C390.601 670.516 388.771 675.09 388.771 679.663C388.771 684.237 390.601 687.896 393.345 690.64C390.601 693.385 388.771 697.958 388.771 702.532C388.771 710.765 396.089 718.083 405.237 718.083C409.81 718.083 413.469 716.254 416.214 714.424C413.469 717.168 411.64 720.827 411.64 725.401C411.64 729.975 413.469 733.634 416.214 736.378C413.469 739.122 411.64 743.696 411.64 748.27C411.64 752.844 413.469 756.503 416.214 759.247C413.469 761.991 411.64 766.565 411.64 771.139C411.64 774.798 413.469 778.457 416.214 781.201C412.555 779.372 408.896 777.542 405.237 777.542C401.578 777.542 397.919 779.372 394.26 781.201C397.004 778.457 398.833 774.798 398.833 771.139C398.833 761.991 391.515 754.673 382.368 754.673C378.709 754.673 375.05 756.503 371.391 758.332C374.135 755.588 375.965 751.929 375.965 748.27C375.965 743.696 374.135 739.122 371.391 736.378C374.135 733.634 375.965 729.975 375.965 725.401C375.965 716.254 368.646 708.936 359.499 708.936C355.84 708.936 352.181 710.765 348.522 712.595C351.266 709.85 353.096 706.191 353.096 702.532C353.096 697.958 351.266 693.385 348.522 690.64C351.266 687.896 353.096 684.237 353.096 679.663C353.096 670.516 345.778 663.198 336.63 663.198C332.971 663.198 329.312 665.027 325.653 666.857C328.397 664.113 330.227 660.453 330.227 656.794C330.227 647.647 322.909 640.329 313.761 640.329C310.102 640.329 306.443 642.158 302.784 643.988C305.528 641.244 307.358 637.585 307.358 633.926C307.358 629.352 305.528 624.778 302.784 622.034C305.528 619.289 307.358 615.63 307.358 611.057C307.358 606.483 305.528 602.824 302.784 600.08C305.528 601.909 309.187 603.739 313.761 603.739ZM313.761 489.394C318.335 489.394 321.994 487.565 324.738 485.735C321.994 488.479 320.164 492.138 320.164 496.712C320.164 504.945 327.482 512.263 336.63 512.263C341.204 512.263 344.863 510.434 348.522 507.689C351.266 510.434 354.925 512.263 359.499 512.263C364.073 512.263 367.732 510.434 370.476 508.604C367.732 511.348 365.902 515.007 365.902 519.581C365.902 527.814 373.22 535.132 382.368 535.132C386.942 535.132 390.601 533.302 394.26 530.558C397.004 533.302 400.663 535.132 405.237 535.132C409.81 535.132 413.469 533.302 417.129 530.558C419.873 533.302 423.532 535.132 428.106 535.132C432.679 535.132 436.338 533.302 439.083 531.473C436.338 534.217 434.509 537.876 434.509 542.45C434.509 550.683 441.827 558.001 450.974 558.001C455.548 558.001 459.207 556.171 461.952 554.342C459.207 557.086 457.378 560.745 457.378 565.319C457.378 573.552 464.696 580.87 473.843 580.87C478.417 580.87 482.076 579.04 484.82 577.211C482.076 579.955 480.247 583.614 480.247 588.188C480.247 592.762 482.076 596.421 484.82 599.165C482.076 601.909 480.247 606.483 480.247 611.057C480.247 615.63 482.076 619.289 484.82 622.034C482.076 624.778 480.247 629.352 480.247 633.926C480.247 642.158 487.565 649.476 496.712 649.476C501.286 649.476 504.945 647.647 507.689 645.817C504.945 648.562 503.116 652.221 503.116 656.794C503.116 661.368 504.945 665.027 507.689 667.772C504.945 670.516 503.116 675.09 503.116 679.663C503.116 684.237 504.945 687.896 507.689 690.64C504.945 693.385 503.116 697.958 503.116 702.532C503.116 707.106 504.945 710.765 507.689 713.509C504.945 716.254 503.116 720.827 503.116 725.401C503.116 733.634 510.434 740.952 519.581 740.952C524.155 740.952 527.814 739.122 530.558 737.293C527.814 740.037 525.984 743.696 525.984 748.27C525.984 752.844 527.814 756.503 530.558 759.247C527.814 761.991 525.984 766.565 525.984 771.139C525.984 775.713 527.814 779.372 530.558 782.116C527.814 784.86 525.984 789.434 525.984 794.008C525.984 797.667 527.814 801.326 530.558 804.07C526.899 802.241 523.24 800.411 519.581 800.411C515.922 800.411 512.263 802.241 508.604 804.07C511.348 801.326 513.178 797.667 513.178 794.008C513.178 789.434 511.348 784.86 508.604 782.116C511.348 779.372 513.178 775.713 513.178 771.139C513.178 761.991 505.86 754.673 496.712 754.673C493.053 754.673 489.394 756.503 485.735 758.332C488.479 755.588 490.309 751.929 490.309 748.27C490.309 743.696 488.479 739.122 485.735 736.378C488.479 733.634 490.309 729.975 490.309 725.401C490.309 720.827 488.479 716.254 485.735 713.509C488.479 710.765 490.309 707.106 490.309 702.532C490.309 693.385 482.991 686.067 473.843 686.067C470.184 686.067 466.525 687.896 462.866 689.726C465.611 686.981 467.44 683.322 467.44 679.663C467.44 675.09 465.611 670.516 462.866 667.772C465.611 665.027 467.44 661.368 467.44 656.794C467.44 652.221 465.611 647.647 462.866 644.903C465.611 642.158 467.44 638.499 467.44 633.926C467.44 624.778 460.122 617.46 450.974 617.46C447.315 617.46 443.656 619.289 439.997 621.119C442.742 618.375 444.571 614.716 444.571 611.057C444.571 606.483 442.742 601.909 439.997 599.165C442.742 596.421 444.571 592.762 444.571 588.188C444.571 579.04 437.253 571.722 428.106 571.722C423.532 571.722 419.873 573.552 417.129 576.296C413.469 573.552 409.81 571.722 405.237 571.722C401.578 571.722 397.919 573.552 394.26 575.381C397.004 572.637 398.833 568.978 398.833 565.319C398.833 556.171 391.515 548.853 382.368 548.853C377.794 548.853 374.135 550.683 371.391 553.427C367.732 550.683 364.073 548.853 359.499 548.853C354.925 548.853 351.266 550.683 348.522 553.427C344.863 550.683 341.204 548.853 336.63 548.853C332.056 548.853 328.397 550.683 325.653 553.427C321.994 550.683 318.335 548.853 313.761 548.853C310.102 548.853 306.443 550.683 302.784 552.512C305.528 549.768 307.358 546.109 307.358 542.45C307.358 537.876 305.528 533.302 302.784 530.558C305.528 527.814 307.358 524.155 307.358 519.581C307.358 515.007 305.528 510.434 302.784 507.689C305.528 504.945 307.358 501.286 307.358 496.712C307.358 492.138 305.528 488.479 302.784 485.735C305.528 487.565 309.187 489.394 313.761 489.394ZM405.237 306.443C409.81 306.443 413.469 304.614 416.214 302.784C413.469 305.528 411.64 309.187 411.64 313.761C411.64 318.335 413.469 321.994 416.214 324.738C413.469 327.482 411.64 332.056 411.64 336.63C411.64 341.204 413.469 344.863 416.214 347.607C413.469 350.351 411.64 354.925 411.64 359.499C411.64 367.732 418.958 375.05 428.106 375.05C432.679 375.05 436.338 373.22 439.083 371.391C436.338 374.135 434.509 377.794 434.509 382.368C434.509 386.942 436.338 390.601 439.083 393.345C436.338 396.089 434.509 400.663 434.509 405.237C434.509 409.81 436.338 413.469 439.083 416.214C436.338 418.958 434.509 423.532 434.509 428.106C434.509 431.765 436.338 435.424 439.083 438.168C435.424 436.338 431.765 434.509 428.106 434.509C424.447 434.509 420.788 436.338 417.129 438.168C419.873 435.424 421.702 431.765 421.702 428.106C421.702 418.958 414.384 411.64 405.237 411.64C401.578 411.64 397.919 413.469 394.26 415.299C397.004 412.555 398.833 408.896 398.833 405.237C398.833 400.663 397.004 396.089 394.26 393.345C397.004 390.601 398.833 386.942 398.833 382.368C398.833 377.794 397.004 373.22 394.26 370.476C397.004 367.732 398.833 364.073 398.833 359.499C398.833 354.925 397.004 350.351 394.26 347.607C397.004 344.863 398.833 341.204 398.833 336.63C398.833 332.056 397.004 327.482 394.26 324.738C397.004 321.994 398.833 318.335 398.833 313.761C398.833 309.187 397.004 305.528 394.26 302.784C397.004 304.614 400.663 306.443 405.237 306.443ZM565.319 558.001C569.893 558.001 573.552 556.171 576.296 554.342C573.552 557.086 571.722 560.745 571.722 565.319C571.722 569.893 573.552 573.552 576.296 576.296C573.552 579.04 571.722 583.614 571.722 588.188C571.722 591.847 573.552 595.506 576.296 598.25C572.637 596.421 568.978 594.591 565.319 594.591C561.66 594.591 558.001 596.421 554.342 598.25C557.086 595.506 558.916 591.847 558.916 588.188C558.916 583.614 557.086 579.04 554.342 576.296C557.086 573.552 558.916 569.893 558.916 565.319C558.916 560.745 557.086 557.086 554.342 554.342C557.086 556.171 560.745 558.001 565.319 558.001ZM771.139 352.181C780.286 352.181 787.605 344.863 787.605 336.63C787.605 332.056 785.775 327.482 783.031 324.738C785.775 321.994 787.605 318.335 787.605 313.761C787.605 309.187 785.775 304.614 783.031 301.869C785.775 299.125 787.605 295.466 787.605 290.892C787.605 286.318 785.775 281.745 783.031 279C785.775 276.256 787.605 272.597 787.605 268.023C787.605 263.45 785.775 258.876 783.031 256.132C785.775 253.387 787.605 249.728 787.605 245.154C787.605 240.581 785.775 236.007 783.031 233.263C785.775 230.518 787.605 226.859 787.605 222.286C787.605 217.712 785.775 214.053 783.031 211.309C785.775 213.138 789.434 214.968 794.008 214.968C798.582 214.968 802.241 213.138 804.985 211.309C802.241 214.053 800.411 217.712 800.411 222.286C800.411 226.859 802.241 230.518 804.985 233.263C802.241 236.007 800.411 240.581 800.411 245.154C800.411 249.728 802.241 253.387 804.985 256.132C802.241 258.876 800.411 263.45 800.411 268.023C800.411 272.597 802.241 276.256 804.985 279C802.241 281.745 800.411 286.318 800.411 290.892C800.411 295.466 802.241 299.125 804.985 301.869C802.241 304.614 800.411 309.187 800.411 313.761C800.411 318.335 802.241 321.994 804.985 324.738C802.241 327.482 800.411 332.056 800.411 336.63C800.411 341.204 802.241 344.863 804.985 347.607C802.241 350.351 800.411 354.925 800.411 359.499C800.411 364.073 802.241 367.732 804.985 370.476C802.241 373.22 800.411 377.794 800.411 382.368C800.411 386.942 802.241 390.601 804.985 393.345C802.241 396.089 800.411 400.663 800.411 405.237C800.411 409.81 802.241 413.469 804.985 416.214C802.241 418.958 800.411 423.532 800.411 428.106C800.411 432.679 802.241 436.338 804.985 439.083C802.241 441.827 800.411 446.401 800.411 450.974C800.411 455.548 802.241 459.207 804.985 461.952C802.241 464.696 800.411 469.27 800.411 473.843C800.411 478.417 802.241 482.076 804.985 484.82C802.241 487.565 800.411 492.138 800.411 496.712C800.411 501.286 802.241 504.945 804.985 507.689C802.241 510.434 800.411 515.007 800.411 519.581C800.411 524.155 802.241 527.814 804.985 530.558C802.241 533.302 800.411 537.876 800.411 542.45C800.411 547.024 802.241 550.683 804.985 553.427C802.241 556.171 800.411 560.745 800.411 565.319C800.411 569.893 802.241 573.552 804.985 576.296C802.241 579.04 800.411 583.614 800.411 588.188C800.411 592.762 802.241 596.421 804.985 599.165C802.241 601.909 800.411 606.483 800.411 611.057C800.411 615.63 802.241 619.289 804.985 622.034C802.241 624.778 800.411 629.352 800.411 633.926C800.411 638.499 802.241 642.158 804.985 644.903C802.241 647.647 800.411 652.221 800.411 656.794C800.411 661.368 802.241 665.027 804.985 667.772C802.241 670.516 800.411 675.09 800.411 679.663C800.411 683.322 802.241 686.981 804.985 689.726C801.326 687.896 797.667 686.067 794.008 686.067C784.86 686.067 777.542 693.385 777.542 702.532C777.542 707.106 779.372 710.765 782.116 713.509C779.372 716.254 777.542 720.827 777.542 725.401C777.542 729.06 779.372 732.719 782.116 735.463C778.457 733.634 774.798 731.804 771.139 731.804C767.48 731.804 763.821 733.634 760.162 735.463C762.906 732.719 764.736 729.06 764.736 725.401C764.736 720.827 762.906 716.254 760.162 713.509C762.906 710.765 764.736 707.106 764.736 702.532C764.736 697.958 762.906 693.385 760.162 690.64C762.906 687.896 764.736 684.237 764.736 679.663C764.736 675.09 762.906 670.516 760.162 667.772C762.906 665.027 764.736 661.368 764.736 656.794C764.736 652.221 762.906 647.647 760.162 644.903C762.906 642.158 764.736 638.499 764.736 633.926C764.736 629.352 762.906 624.778 760.162 622.034C762.906 619.289 764.736 615.63 764.736 611.057C764.736 606.483 762.906 601.909 760.162 599.165C762.906 596.421 764.736 592.762 764.736 588.188C764.736 583.614 762.906 579.04 760.162 576.296C762.906 573.552 764.736 569.893 764.736 565.319C764.736 560.745 762.906 556.171 760.162 553.427C762.906 550.683 764.736 547.024 764.736 542.45C764.736 537.876 762.906 533.302 760.162 530.558C762.906 527.814 764.736 524.155 764.736 519.581C764.736 515.007 762.906 510.434 760.162 507.689C762.906 504.945 764.736 501.286 764.736 496.712C764.736 492.138 762.906 487.565 760.162 484.82C762.906 482.076 764.736 478.417 764.736 473.843C764.736 469.27 762.906 464.696 760.162 461.952C762.906 459.207 764.736 455.548 764.736 450.974C764.736 446.401 762.906 441.827 760.162 439.083C762.906 436.338 764.736 432.679 764.736 428.106C764.736 423.532 762.906 418.958 760.162 416.214C762.906 413.469 764.736 409.81 764.736 405.237C764.736 400.663 762.906 396.089 760.162 393.345C762.906 390.601 764.736 386.942 764.736 382.368C764.736 377.794 762.906 373.22 760.162 370.476C762.906 367.732 764.736 364.073 764.736 359.499C764.736 354.925 762.906 351.266 760.162 348.522C762.906 350.351 766.565 352.181 771.139 352.181ZM999.828 832.428C1004.4 832.428 1008.06 830.598 1011.72 827.854C1014.46 830.598 1018.12 832.428 1022.7 832.428C1027.27 832.428 1030.93 830.598 1033.67 828.769C1030.93 831.513 1029.1 835.172 1029.1 839.746C1029.1 843.405 1030.93 847.064 1033.67 849.808C1030.01 847.978 1026.36 846.149 1022.7 846.149C1018.12 846.149 1014.46 847.978 1011.72 850.723C1008.06 847.978 1004.4 846.149 999.828 846.149C996.169 846.149 992.51 847.978 988.851 849.808C991.595 847.064 993.424 843.405 993.424 839.746C993.424 835.172 991.595 831.513 988.851 828.769C991.595 830.598 995.254 832.428 999.828 832.428ZM1022.7 214.968C1027.27 214.968 1030.93 213.138 1033.67 211.309C1030.93 214.053 1029.1 217.712 1029.1 222.286C1029.1 225.945 1030.93 229.604 1033.67 232.348C1030.01 230.518 1026.36 228.689 1022.7 228.689C1019.04 228.689 1015.38 230.518 1011.72 232.348C1014.46 229.604 1016.29 225.945 1016.29 222.286C1016.29 217.712 1014.46 214.053 1011.72 211.309C1014.46 213.138 1018.12 214.968 1022.7 214.968ZM1045.57 169.23C1050.14 169.23 1053.8 167.4 1056.54 165.571C1053.8 168.315 1051.97 171.974 1051.97 176.548C1051.97 181.122 1053.8 184.781 1056.54 187.525C1053.8 190.269 1051.97 194.843 1051.97 199.417C1051.97 203.076 1053.8 206.735 1056.54 209.479C1052.88 207.65 1049.22 205.82 1045.57 205.82C1041.91 205.82 1038.25 207.65 1034.59 209.479C1037.33 206.735 1039.16 203.076 1039.16 199.417C1039.16 194.843 1037.33 190.269 1034.59 187.525C1037.33 184.781 1039.16 181.122 1039.16 176.548C1039.16 171.974 1037.33 168.315 1034.59 165.571C1037.33 167.4 1040.99 169.23 1045.57 169.23ZM1068.43 489.394C1077.58 489.394 1084.9 482.076 1084.9 473.843C1084.9 469.27 1083.07 464.696 1080.33 461.952C1083.07 459.207 1084.9 455.548 1084.9 450.974C1084.9 446.401 1083.07 442.742 1080.33 439.997C1083.07 441.827 1086.73 443.656 1091.3 443.656C1095.88 443.656 1099.54 441.827 1103.2 439.083C1105.94 441.827 1109.6 443.656 1114.17 443.656C1118.75 443.656 1122.41 441.827 1125.15 439.997C1122.41 442.742 1120.58 446.401 1120.58 450.974C1120.58 454.633 1122.41 458.293 1125.15 461.037C1121.49 459.207 1117.83 457.378 1114.17 457.378C1105.02 457.378 1097.71 464.696 1097.71 473.843C1097.71 478.417 1099.54 482.076 1102.28 484.82C1099.54 487.565 1097.71 492.138 1097.71 496.712C1097.71 501.286 1099.54 504.945 1102.28 507.689C1099.54 510.434 1097.71 515.007 1097.71 519.581C1097.71 523.24 1099.54 526.899 1102.28 529.643C1098.62 527.814 1094.96 525.984 1091.3 525.984C1082.16 525.984 1074.84 533.302 1074.84 542.45C1074.84 547.024 1076.67 550.683 1079.41 553.427C1076.67 556.171 1074.84 560.745 1074.84 565.319C1074.84 569.893 1076.67 573.552 1079.41 576.296C1076.67 579.04 1074.84 583.614 1074.84 588.188C1074.84 592.762 1076.67 596.421 1079.41 599.165C1076.67 601.909 1074.84 606.483 1074.84 611.057C1074.84 614.716 1076.67 618.375 1079.41 621.119C1075.75 619.289 1072.09 617.46 1068.43 617.46C1064.78 617.46 1061.12 619.289 1057.46 621.119C1060.2 618.375 1062.03 614.716 1062.03 611.057C1062.03 606.483 1060.2 601.909 1057.46 599.165C1060.2 596.421 1062.03 592.762 1062.03 588.188C1062.03 583.614 1060.2 579.04 1057.46 576.296C1060.2 573.552 1062.03 569.893 1062.03 565.319C1062.03 560.745 1060.2 556.171 1057.46 553.427C1060.2 550.683 1062.03 547.024 1062.03 542.45C1062.03 537.876 1060.2 533.302 1057.46 530.558C1060.2 527.814 1062.03 524.155 1062.03 519.581C1062.03 515.007 1060.2 510.434 1057.46 507.689C1060.2 504.945 1062.03 501.286 1062.03 496.712C1062.03 492.138 1060.2 488.479 1057.46 485.735C1060.2 487.565 1063.86 489.394 1068.43 489.394ZM1365.73 535.132C1370.3 535.132 1373.96 533.302 1376.71 531.473C1373.96 534.217 1372.13 537.876 1372.13 542.45C1372.13 546.109 1373.96 549.768 1376.71 552.512C1373.05 550.683 1369.39 548.853 1365.73 548.853C1362.07 548.853 1358.41 550.683 1354.75 552.512C1357.5 549.768 1359.33 546.109 1359.33 542.45C1359.33 537.876 1357.5 534.217 1354.75 531.473C1357.5 533.302 1361.16 535.132 1365.73 535.132ZM1480.07 603.739C1484.65 603.739 1488.31 601.909 1491.05 600.08C1488.31 602.824 1486.48 606.483 1486.48 611.057C1486.48 615.63 1488.31 619.289 1491.05 622.034C1488.31 624.778 1486.48 629.352 1486.48 633.926C1486.48 637.585 1488.31 641.244 1491.05 643.988C1487.39 642.158 1483.73 640.329 1480.07 640.329C1476.42 640.329 1472.76 642.158 1469.1 643.988C1471.84 641.244 1473.67 637.585 1473.67 633.926C1473.67 629.352 1471.84 624.778 1469.1 622.034C1471.84 619.289 1473.67 615.63 1473.67 611.057C1473.67 606.483 1471.84 602.824 1469.1 600.08C1471.84 601.909 1475.5 603.739 1480.07 603.739ZM1502.94 558.001C1507.52 558.001 1511.18 556.171 1513.92 554.342C1511.18 557.086 1509.35 560.745 1509.35 565.319C1509.35 569.893 1511.18 573.552 1513.92 576.296C1511.18 579.04 1509.35 583.614 1509.35 588.188C1509.35 591.847 1511.18 595.506 1513.92 598.25C1510.26 596.421 1506.6 594.591 1502.94 594.591C1499.28 594.591 1495.63 596.421 1491.97 598.25C1494.71 595.506 1496.54 591.847 1496.54 588.188C1496.54 583.614 1494.71 579.04 1491.97 576.296C1494.71 573.552 1496.54 569.893 1496.54 565.319C1496.54 560.745 1494.71 557.086 1491.97 554.342C1494.71 556.171 1498.37 558.001 1502.94 558.001ZM1502.94 397.919C1512.09 397.919 1519.41 390.601 1519.41 382.368C1519.41 377.794 1517.58 374.135 1514.84 371.391C1517.58 373.22 1521.24 375.05 1525.81 375.05C1530.39 375.05 1534.05 373.22 1536.79 371.391C1534.05 374.135 1532.22 377.794 1532.22 382.368C1532.22 386.942 1534.05 390.601 1536.79 393.345C1534.05 396.089 1532.22 400.663 1532.22 405.237C1532.22 408.896 1534.05 412.555 1536.79 415.299C1533.13 413.469 1529.47 411.64 1525.81 411.64C1516.66 411.64 1509.35 418.958 1509.35 428.106C1509.35 432.679 1511.18 436.338 1513.92 439.083C1511.18 441.827 1509.35 446.401 1509.35 450.974C1509.35 455.548 1511.18 459.207 1513.92 461.952C1511.18 464.696 1509.35 469.27 1509.35 473.843C1509.35 478.417 1511.18 482.076 1513.92 484.82C1511.18 487.565 1509.35 492.138 1509.35 496.712C1509.35 504.945 1516.66 512.263 1525.81 512.263C1530.39 512.263 1534.05 510.434 1536.79 508.604C1534.05 511.348 1532.22 515.007 1532.22 519.581C1532.22 524.155 1534.05 527.814 1536.79 530.558C1534.05 533.302 1532.22 537.876 1532.22 542.45C1532.22 546.109 1534.05 549.768 1536.79 552.512C1533.13 550.683 1529.47 548.853 1525.81 548.853C1522.15 548.853 1518.49 550.683 1514.84 552.512C1517.58 549.768 1519.41 546.109 1519.41 542.45C1519.41 533.302 1512.09 525.984 1502.94 525.984C1499.28 525.984 1495.63 527.814 1491.97 529.643C1494.71 526.899 1496.54 523.24 1496.54 519.581C1496.54 515.007 1494.71 510.434 1491.97 507.689C1494.71 504.945 1496.54 501.286 1496.54 496.712C1496.54 492.138 1494.71 487.565 1491.97 484.82C1494.71 482.076 1496.54 478.417 1496.54 473.843C1496.54 469.27 1494.71 464.696 1491.97 461.952C1494.71 459.207 1496.54 455.548 1496.54 450.974C1496.54 446.401 1494.71 441.827 1491.97 439.083C1494.71 436.338 1496.54 432.679 1496.54 428.106C1496.54 423.532 1494.71 418.958 1491.97 416.214C1494.71 413.469 1496.54 409.81 1496.54 405.237C1496.54 400.663 1494.71 397.004 1491.97 394.26C1494.71 396.089 1498.37 397.919 1502.94 397.919ZM1617.29 580.87C1621.86 580.87 1625.52 579.04 1628.26 577.211C1625.52 579.955 1623.69 583.614 1623.69 588.188C1623.69 591.847 1625.52 595.506 1628.26 598.25C1624.61 596.421 1620.95 594.591 1617.29 594.591C1613.63 594.591 1609.97 596.421 1606.31 598.25C1609.05 595.506 1610.88 591.847 1610.88 588.188C1610.88 583.614 1609.05 579.955 1606.31 577.211C1609.05 579.04 1612.71 580.87 1617.29 580.87ZM1640.16 512.263C1644.73 512.263 1648.39 510.434 1651.13 508.604C1648.39 511.348 1646.56 515.007 1646.56 519.581C1646.56 524.155 1648.39 527.814 1651.13 530.558C1648.39 533.302 1646.56 537.876 1646.56 542.45C1646.56 546.109 1648.39 549.768 1651.13 552.512C1647.47 550.683 1643.82 548.853 1640.16 548.853C1636.5 548.853 1632.84 550.683 1629.18 552.512C1631.92 549.768 1633.75 546.109 1633.75 542.45C1633.75 537.876 1631.92 533.302 1629.18 530.558C1631.92 527.814 1633.75 524.155 1633.75 519.581C1633.75 515.007 1631.92 511.348 1629.18 508.604C1631.92 510.434 1635.58 512.263 1640.16 512.263ZM1754.5 580.87C1759.07 580.87 1762.73 579.04 1765.48 577.211C1762.73 579.955 1760.9 583.614 1760.9 588.188C1760.9 592.762 1762.73 596.421 1765.48 599.165C1762.73 601.909 1760.9 606.483 1760.9 611.057C1760.9 614.716 1762.73 618.375 1765.48 621.119C1761.82 619.289 1758.16 617.46 1754.5 617.46C1750.84 617.46 1747.18 619.289 1743.52 621.119C1746.27 618.375 1748.1 614.716 1748.1 611.057C1748.1 606.483 1746.27 601.909 1743.52 599.165C1746.27 596.421 1748.1 592.762 1748.1 588.188C1748.1 583.614 1746.27 579.955 1743.52 577.211C1746.27 579.04 1749.93 580.87 1754.5 580.87ZM1868.85 489.394C1877.99 489.394 1885.31 482.076 1885.31 473.843C1885.31 469.27 1883.48 465.611 1880.74 462.866C1883.48 464.696 1887.14 466.525 1891.71 466.525C1900.86 466.525 1908.18 459.207 1908.18 450.974C1908.18 446.401 1906.35 442.742 1903.61 439.997C1906.35 441.827 1910.01 443.656 1914.58 443.656C1919.16 443.656 1922.82 441.827 1926.48 439.083C1929.22 441.827 1932.88 443.656 1937.45 443.656C1942.03 443.656 1945.68 441.827 1948.43 439.997C1945.68 442.742 1943.86 446.401 1943.86 450.974C1943.86 454.633 1945.68 458.293 1948.43 461.037C1944.77 459.207 1941.11 457.378 1937.45 457.378C1928.3 457.378 1920.99 464.696 1920.99 473.843C1920.99 477.502 1922.82 481.161 1925.56 483.906C1921.9 482.076 1918.24 480.247 1914.58 480.247C1905.44 480.247 1898.12 487.565 1898.12 496.712C1898.12 500.371 1899.95 504.03 1902.69 506.775C1899.03 504.945 1895.37 503.116 1891.71 503.116C1887.14 503.116 1883.48 504.945 1880.74 507.689C1877.08 504.945 1873.42 503.116 1868.85 503.116C1865.19 503.116 1861.53 504.945 1857.87 506.775C1860.61 504.03 1862.44 500.371 1862.44 496.712C1862.44 492.138 1860.61 488.479 1857.87 485.735C1860.61 487.565 1864.27 489.394 1868.85 489.394ZM1960.32 420.788C1964.89 420.788 1968.55 418.958 1971.3 417.129C1968.55 419.873 1966.72 423.532 1966.72 428.106C1966.72 431.765 1968.55 435.424 1971.3 438.168C1967.64 436.338 1963.98 434.509 1960.32 434.509C1956.66 434.509 1953 436.338 1949.34 438.168C1952.09 435.424 1953.92 431.765 1953.92 428.106C1953.92 423.532 1952.09 419.873 1949.34 417.129C1952.09 418.958 1955.75 420.788 1960.32 420.788Z" fill="#262626"/>
</svg>
