<svg width="2695" height="468" viewBox="0 0 2695 468" fill="none" xmlns="http://www.w3.org/2000/svg">
<path fill-rule="evenodd" clip-rule="evenodd" d="M1654.8 368.396H1750.49C1718.18 384.418 1691.1 397.878 1668.36 409.187C1554.5 465.786 1549.76 468.142 1541.74 467.49C1515.85 463.983 1481.68 447.889 1463.68 419.827C1451.53 400.868 1448.82 379.929 1455.65 357.578L1502.96 202.279C1508.98 182.687 1508.25 168.772 1500.65 158.489C1490.81 145.154 1469 138.21 1434.14 137.326C1559.38 42.2309 1569.19 37.3842 1577.75 38.134C1602.64 41.5704 1635.59 57.3155 1653.15 84.789C1665.25 103.721 1668.03 125.598 1661.17 148.055L1613.88 303.319C1608.75 318.135 1604.78 338.763 1614.9 352.964C1622.21 363.211 1635.63 368.405 1654.81 368.405L1654.8 368.396ZM1474.57 274.051C1480.47 249.461 1477.3 227.039 1465.86 212.526C1457.4 201.797 1444.96 196.129 1429.87 196.129C1412.13 196.129 1393.77 204.341 1378.17 219.265C1362.61 234.144 1351.47 254.031 1346.8 275.256C1341.33 300.632 1344.91 323.518 1356.63 338.031C1365.13 348.554 1377.49 354.115 1392.38 354.115C1410.21 354.115 1428.53 345.868 1443.97 330.881C1459.47 315.833 1470.33 295.687 1474.56 274.158C1474.56 274.122 1474.57 274.087 1474.58 274.051H1474.57ZM1659.21 269.303C1667.71 279.826 1680.07 285.387 1694.97 285.387C1731.88 285.387 1768.36 250.246 1778.04 205.385C1783.5 180.563 1779.97 158.052 1768.36 143.61C1759.84 133.006 1747.42 127.401 1732.47 127.401C1714.72 127.401 1696.36 135.612 1680.76 150.536C1665.2 165.416 1654.06 185.302 1649.39 206.528C1643.92 231.904 1647.5 254.789 1659.22 269.303H1659.21ZM1111.22 85.4495H1190.55L1198.53 62.2425H877.501L869.522 85.4495H963.947C964.795 85.4495 965.599 85.8512 966.099 86.5295C966.607 87.2079 966.759 88.0915 966.509 88.9038L872.057 399.637H1013.74L1108.66 87.3507C1109.01 86.2261 1110.04 85.4495 1111.22 85.4495ZM1306.3 375.296C1305.8 374.591 1305.67 373.681 1305.96 372.859L1400.2 105.979H1246.89C1212.19 105.979 1166.57 118.528 1129.68 146.279C1092.89 173.957 1064.81 216.721 1064.81 277.354C1064.81 355.427 1119.06 399.637 1170.13 399.637H1174.44L1235.76 213.124C1228.6 210.491 1224.75 202.145 1226.42 193.817C1227.45 188.694 1230.47 183.972 1234.28 180.527C1238.07 177.108 1242.92 174.707 1247.79 174.707C1258 174.707 1264.03 184.802 1262.01 194.871C1261 199.994 1257.96 204.716 1254.16 208.161C1250.49 211.472 1245.83 213.82 1241.12 213.972L1180.08 399.646H1336.92L1344.9 376.439H1308.48C1307.62 376.439 1306.8 376.019 1306.3 375.305V375.296ZM1769.16 249.702L1771.7 250.103L1769.05 249.684L1769.15 249.702H1769.16ZM1894.91 399.637C1813.61 399.637 1757.68 333.336 1771.69 250.13C1771.69 250.13 1771.7 250.112 1771.7 250.103C1784.9 166.54 1860.59 99.7307 1942.21 99.7307C2023.83 99.7307 2079.45 166.031 2065.43 249.237C2051.35 332.854 1976.5 399.637 1894.91 399.637ZM1946.67 177.385C1941.81 177.385 1936.95 179.786 1933.17 183.205C1929.36 186.641 1926.33 191.372 1925.31 196.495C1923.29 206.563 1929.32 216.658 1939.53 216.658C1944.41 216.658 1949.25 214.257 1953.05 210.839C1956.85 207.402 1959.88 202.672 1960.9 197.548C1962.92 187.48 1956.89 177.385 1946.67 177.385ZM553.487 0.56543L337.385 319.822C336.635 320.929 335.181 321.313 333.976 320.715C332.771 320.117 332.199 318.725 332.637 317.457L440.326 0.56543H418.36L0 399.547H165.037L295.452 203.484C296.228 202.315 297.782 201.94 299.004 202.636C300.227 203.332 300.7 204.85 300.093 206.126L207.319 399.547H393.269L513.044 144.913C513.651 143.628 515.151 143.039 516.463 143.565C517.775 144.092 518.453 145.556 518.007 146.903L433.498 399.547H572.294L673.583 0.56543H553.487ZM2373.45 105.086L2365.47 128.293H2442.05C2443.26 128.293 2444.32 129.105 2444.63 130.275C2444.95 131.444 2444.44 132.676 2443.39 133.283C2397.62 159.685 2359.04 206.197 2359.04 277.345C2359.04 355.418 2413.29 399.628 2464.36 399.628H2468.67L2529.99 213.115C2522.82 210.482 2518.98 202.136 2520.65 193.808C2521.67 188.685 2524.7 183.963 2528.51 180.518C2532.29 177.099 2537.15 174.698 2542.01 174.698C2552.23 174.698 2558.26 184.793 2556.24 194.862C2555.22 199.985 2552.19 204.707 2548.39 208.152C2544.72 211.464 2540.06 213.811 2535.35 213.963L2474.3 399.637H2590.99L2694.74 105.086H2373.44H2373.45ZM2251.04 105.979H2124.41L1997.76 467.472H2122.36L2122.51 467.008L2206.22 212.445C2200.07 209.25 2196.89 201.529 2198.44 193.826C2199.46 188.703 2202.49 183.981 2206.3 180.536C2210.08 177.117 2214.94 174.716 2219.8 174.716C2230.01 174.716 2236.05 184.811 2234.03 194.879C2233.01 200.003 2229.98 204.725 2226.18 208.17C2222.38 211.589 2217.54 213.99 2212.66 213.99C2212.23 213.99 2211.8 213.963 2211.37 213.927L2150.3 399.646H2174.28C2208.99 399.646 2254.61 387.096 2291.5 359.346C2328.3 331.667 2356.37 288.904 2356.37 228.271C2356.37 150.197 2302.13 105.988 2251.04 105.988V105.979ZM899.521 287.172C872.69 352.169 808.702 399.637 739.911 399.637C658.606 399.637 602.686 333.336 616.699 250.13C616.699 250.13 616.699 250.112 616.699 250.103C629.892 166.54 705.6 99.7307 787.217 99.7307C868.835 99.7307 924.451 166.031 910.438 249.237C908.554 260.439 905.564 271.338 901.628 281.816H701.539V287.172H899.53H899.521ZM784.54 216.658C789.413 216.658 794.26 214.257 798.053 210.839C801.864 207.402 804.89 202.672 805.917 197.548C807.934 187.48 801.9 177.385 791.689 177.385C786.816 177.385 781.969 179.786 778.175 183.205C774.364 186.641 771.338 191.372 770.312 196.495C768.295 206.563 774.328 216.658 784.54 216.658ZM614.093 249.693L616.708 250.103L614.066 249.684H614.102L614.093 249.693Z" fill="#262626"/>
</svg>
