<svg width="2777" height="520" viewBox="0 0 2777 520" fill="none" xmlns="http://www.w3.org/2000/svg">
<path d="M1717.74 332.079L1714.11 334.151L1711 336.224L1706.85 337.778L1703.22 340.887L1698.55 343.478L1694.41 345.551L1689.22 348.141L1684.55 351.768C1684.55 351.768 1679.37 355.914 1678.85 355.914L1673.67 359.541L1669.52 363.168C1669.52 363.168 1665.37 365.759 1665.37 366.277L1662.78 367.831L1661.22 370.94L1659.67 373.013C1659.67 373.013 1658.11 374.567 1658.11 375.085L1657.07 376.64V378.712V379.749V380.785L1657.59 382.34L1659.15 383.894L1662.26 385.967L1665.37 387.521C1662.78 388.557 1670.04 389.594 1670.04 389.594L1675.22 390.63C1675.22 390.63 1680.92 391.666 1680.92 392.185H1686.63H1699.07L1711 392.703L1713.59 393.221H1716.18H1718.26L1720.85 392.703L1722.4 393.221L1723.96 392.703H1726.03H1727.59H1729.66L1731.74 392.185H1735.88H1740.03L1743.66 391.148H1746.77L1751.44 390.63H1755.59H1757.66C1758.18 390.63 1759.73 389.594 1759.73 389.594L1762.33 390.112L1763.88 389.076L1768.03 390.112L1771.66 388.557L1775.81 388.039L1780.47 387.521H1786.18L1791.88 386.485L1793.95 387.003L1796.55 385.967L1798.62 385.448L1800.69 384.93L1803.81 384.412H1806.92L1810.03 383.894L1812.62 383.376H1815.21L1817.8 382.858H1822.99L1829.73 380.785L1834.4 379.749L1839.06 379.231L1844.25 378.712L1848.91 377.676H1854.1L1859.28 376.122L1863.43 375.604L1867.58 374.567H1872.25L1876.39 373.013L1880.02 372.495L1883.65 371.976L1889.87 370.94L1896.1 369.904L1901.28 369.386L1905.95 367.831H1909.06L1912.17 366.795L1916.32 366.277L1924.09 365.24L1930.83 363.686L1937.06 362.65L1930.83 366.795L1927.72 370.94L1925.13 373.531L1923.58 376.64C1923.58 376.64 1919.95 380.267 1919.95 380.785C1919.43 380.785 1916.84 384.93 1916.84 384.93L1920.46 385.448L1924.09 384.93L1928.76 384.412H1933.43H1935.5L1937.06 384.93L1941.72 384.412H1946.91H1950.02H1953.65L1959.35 384.93H1964.54H1967.13H1970.24L1974.39 384.412H1978.53H1982.68L1986.31 384.93H1990.46H1995.13L1997.2 385.448L1999.79 384.412H2005.5L2010.68 384.93L2016.38 385.448L2022.61 384.412L2024.68 381.821L2026.75 378.712L2030.38 375.604L2032.46 371.976L2035.05 368.349L2041.27 365.24C2041.79 365.24 2043.35 362.132 2043.35 362.132L2045.42 359.541L2049.05 354.877L2052.68 350.214L2056.83 346.587L2058.9 341.923C2058.9 341.923 2062.01 338.296 2062.53 338.296L2065.12 334.151L2068.75 330.006L2072.38 325.343C2072.38 324.824 2075.49 321.197 2075.49 321.197L2078.6 316.534L2080.68 313.943L2083.27 311.352L2086.38 307.207L2089.49 303.062L2092.6 298.917C2093.12 298.917 2096.23 294.771 2096.23 294.771L2097.27 292.699C2097.27 292.699 2098.82 290.626 2099.34 290.626L2100.9 289.072L2101.93 286.999L2100.38 285.445C2100.38 285.445 2100.9 282.854 2101.42 282.854L2103.49 280.781L2105.04 278.709C2105.04 278.19 2107.12 275.081 2107.12 275.081C2107.12 274.563 2109.71 271.973 2109.71 271.973C2109.71 271.973 2110.75 270.418 2111.27 270.418L2111.79 268.864C2111.79 268.345 2114.9 266.791 2114.9 266.791L2115.93 263.164L2118.01 261.609L2119.56 259.537L2122.15 256.428L2124.23 252.801C2124.23 252.801 2126.82 251.246 2126.82 250.728L2127.86 248.137L2129.93 245.547L2132.52 242.956L2136.67 237.256L2141.34 231.038L2154.3 234.147L2167.26 236.22L2172.97 237.774L2178.67 239.329L2186.45 240.883L2193.71 242.956L2196.82 243.474L2199.41 244.51L2204.08 246.065L2208.74 247.619L2210.82 249.174L2213.41 249.692C2213.41 249.692 2215.48 252.283 2216 252.283L2219.11 253.319L2220.67 254.873L2221.7 255.91C2221.7 255.91 2222.22 257.464 2222.22 257.982L2222.74 259.537V260.573L2223.26 262.128L2222.74 263.164L2222.22 264.2C2222.22 264.2 2220.67 265.755 2220.15 265.755V267.827L2217.56 270.418L2214.96 273.009L2212.89 274.045C2212.89 274.563 2211.85 276.118 2211.85 276.118C2211.33 276.118 2205.11 282.336 2205.11 282.336L2198.37 287.517C2198.37 287.517 2195.78 289.59 2195.26 289.59L2192.67 292.181L2188.52 294.771L2184.89 297.362C2184.89 297.362 2181.78 298.917 2181.78 299.435L2179.71 301.507L2176.08 303.58L2173.48 306.171C2173.48 306.171 2169.34 308.762 2169.34 309.28L2165.71 312.389L2162.6 314.979L2159.49 317.052L2156.89 318.607L2154.82 321.197L2150.15 323.788L2146.52 327.415L2144.45 328.451C2143.93 328.451 2142.38 330.006 2142.38 330.006C2142.38 330.006 2138.75 332.597 2138.23 332.597L2135.12 336.224L2132.01 337.778L2129.41 340.369L2126.82 341.405L2125.27 342.96L2123.19 345.032C2122.67 345.032 2120.6 347.105 2120.6 347.105C2120.6 347.105 2115.41 350.214 2114.9 350.214L2110.23 354.877L2105.04 359.023C2104.53 359.023 2103.49 363.686 2103.49 363.686L2100.38 365.24C2100.38 365.24 2094.68 367.831 2094.68 368.349L2092.6 369.386L2091.05 371.458L2089.49 374.049C2089.49 374.049 2087.93 376.64 2087.93 377.158L2086.9 379.749V382.858L2088.97 384.412L2090.01 387.003C2090.53 387.003 2093.64 389.076 2093.64 389.076L2097.27 389.594L2111.79 391.148L2126.82 392.185L2130.45 393.221L2134.08 392.703L2137.71 393.221L2141.34 392.185L2146.01 391.666L2150.15 392.185L2153.78 391.666H2157.41L2159.49 391.148H2161.56H2165.71L2170.37 390.63H2175.56L2180.22 389.594L2185.41 390.112L2190.08 389.076L2192.15 389.594L2194.22 388.557L2198.37 388.039L2202.52 387.521H2208.74L2214.96 386.485L2218.59 385.448H2222.22L2227.41 384.93L2233.11 384.412L2238.3 383.894L2243.48 382.858L2248.66 382.34L2253.85 381.821H2256.96L2260.59 380.785L2266.29 379.749L2272.52 379.231H2279.26L2285.48 377.158L2289.11 377.676L2292.74 376.64L2297.92 376.122L2302.59 375.085L2303.62 376.64L2305.18 377.676L2307.25 379.749L2309.85 381.303C2309.85 381.303 2312.96 383.894 2313.48 383.894C2313.48 383.894 2317.1 385.967 2317.1 386.485L2321.77 388.039L2326.44 389.594L2331.1 390.63L2335.77 391.148L2343.55 392.703L2350.81 392.185L2354.44 392.703L2357.55 392.185L2359.62 392.703L2361.69 392.185L2363.77 391.666H2366.36L2369.47 390.63H2373.1L2377.77 390.112L2382.43 389.076L2385.03 389.594L2387.1 388.557L2391.77 387.521L2396.95 386.485L2400.58 385.448L2404.21 384.412L2407.32 383.894L2410.43 382.858H2415.1L2419.76 381.303L2425.47 377.676L2431.17 375.604L2436.87 373.531L2442.58 371.976L2447.24 369.904L2452.43 368.868L2456.58 367.313L2460.72 365.759L2465.91 363.686L2471.09 361.613L2476.28 360.059L2480.95 357.986L2484.58 356.95L2488.2 354.877L2492.87 354.359C2492.87 353.841 2496.5 351.25 2496.5 351.25L2501.68 349.178L2506.87 346.587L2510.5 345.032C2510.5 345.032 2513.61 343.478 2514.13 342.96L2518.28 341.405L2522.94 339.333L2526.57 338.296L2529.68 335.706L2532.79 334.669L2535.39 332.597L2540.57 330.006L2545.24 326.897C2545.76 326.897 2542.13 331.56 2542.13 332.079L2538.5 336.224L2535.9 339.851L2532.79 342.96L2531.24 346.587L2529.16 349.696L2527.09 354.359L2525.02 359.023L2523.98 361.613L2522.94 364.722L2522.42 366.277V368.349V370.422L2521.91 372.495L2522.42 374.567L2522.94 377.158C2522.94 377.158 2524.5 379.231 2524.5 379.749L2526.05 381.821L2528.65 383.894L2531.24 385.448L2534.35 386.485L2536.94 388.039L2549.39 391.666L2561.31 392.703L2564.94 393.739L2568.57 392.703L2571.16 393.739L2573.75 393.221H2578.94L2584.64 392.185L2589.31 392.703L2593.98 391.666H2599.68L2605.38 390.63H2607.97L2610.05 390.112L2612.12 390.63L2614.2 389.594L2616.79 390.112L2619.38 389.076H2622.49L2625.08 388.039H2629.75L2634.42 387.003C2634.94 387.003 2638.05 385.967 2638.05 385.967H2641.16L2644.79 385.448L2648.93 384.412H2654.12L2659.82 382.34L2665.01 381.821L2670.71 380.267L2675.38 378.712L2680.56 377.676L2684.71 377.158C2684.71 376.64 2689.38 376.122 2689.38 376.122L2691.97 375.085L2694.56 374.567L2696.63 373.531L2698.71 373.013H2702.34L2705.45 371.458L2710.63 370.422L2715.3 368.349L2718.93 367.313L2723.08 366.277L2726.19 365.24L2729.82 364.722L2733.97 363.168L2738.11 361.613L2741.74 361.095L2744.85 360.059L2750.04 358.504L2754.71 356.432L2758.85 355.914C2758.85 355.914 2761.96 354.359 2762.48 353.841L2764.04 352.805H2766.63L2771.82 350.214L2777 348.659L2772.33 350.214L2767.15 350.732L2759.89 351.25L2752.63 353.323H2744.85L2737.08 355.396L2730.85 355.914L2724.11 356.95H2719.45L2714.26 357.986L2711.67 357.468L2708.56 358.504L2704.93 359.023L2701.3 359.541H2697.15L2693.01 360.059C2693.01 360.577 2688.34 360.577 2687.82 360.577L2683.15 361.095H2677.45H2671.75L2667.08 360.577L2662.93 361.095C2662.93 361.095 2660.86 360.059 2660.34 360.059L2658.27 360.577H2656.19L2654.12 360.059L2651.53 359.023C2651.01 359.023 2648.42 360.059 2648.42 360.059L2645.82 357.986H2642.71L2640.12 356.95L2637.53 355.914L2636.49 355.396L2635.45 354.877L2634.94 353.841L2633.9 353.323C2633.9 352.805 2632.86 351.25 2632.86 351.25L2630.79 349.696L2631.31 348.659L2630.79 348.141V345.551L2630.27 343.478V341.405L2630.79 339.851L2631.31 337.778L2631.82 336.224L2632.86 334.151L2633.9 332.079C2633.9 332.079 2635.97 328.97 2635.97 328.451L2637.53 325.343L2640.12 323.27L2641.16 319.643C2641.68 319.643 2644.79 316.016 2644.79 316.016L2647.9 312.389L2650.49 309.28L2653.08 306.171C2653.08 305.653 2656.71 303.062 2656.71 303.062L2659.82 299.435L2665.01 293.735L2670.19 288.554L2674.34 284.408L2678.49 280.781L2683.67 275.6L2688.86 270.418L2696.12 264.2L2703.38 257.464L2698.19 255.91C2698.19 255.392 2692.49 253.319 2692.49 253.319C2692.49 253.319 2687.82 250.728 2687.3 250.728L2682.12 248.656C2682.12 248.656 2677.97 245.029 2677.45 245.029L2672.78 242.438L2670.19 240.365C2670.19 240.365 2667.6 238.811 2667.08 238.811L2665.01 235.702L2661.38 233.111L2657.75 229.484L2654.12 225.857L2652.05 222.23L2649.97 219.121C2649.45 219.121 2648.93 217.048 2648.93 217.048L2647.9 215.494L2646.86 213.421C2646.86 212.903 2645.31 211.348 2645.31 210.83L2644.79 208.24L2643.23 205.649V203.576L2642.19 202.022C2642.19 202.022 2641.16 199.431 2641.16 198.913V196.322L2640.12 193.731V190.622L2639.6 187.513V183.886L2640.64 179.741L2640.12 175.078C2640.12 174.559 2641.16 171.451 2641.16 171.451L2640.64 167.823L2642.19 164.714V161.087L2643.75 155.388L2645.31 150.206L2647.9 145.025L2649.97 139.325L2653.6 134.662L2655.16 128.962L2658.27 126.371L2659.3 122.744L2665.01 117.044C2665.01 116.526 2669.16 110.308 2669.16 110.308L2665.53 111.345L2662.42 112.899L2656.19 113.935L2650.49 117.044L2647.9 118.081L2645.31 118.599L2642.19 120.671L2638.56 121.708L2634.42 122.226L2630.79 124.298L2627.16 125.335L2623.53 127.407L2619.38 127.925L2616.27 129.998L2611.09 131.034C2611.09 131.553 2606.42 134.143 2606.42 134.143L2600.2 136.216C2600.2 136.734 2593.98 138.807 2593.98 138.807L2591.38 139.843L2588.79 141.398L2583.61 142.952L2578.94 145.543L2575.31 147.097L2571.68 149.17L2569.09 150.206L2566.5 151.242L2561.31 152.797L2556.64 155.388L2550.42 157.978C2550.42 158.497 2544.2 159.015 2544.2 159.015L2541.61 160.051C2541.61 160.051 2539.53 161.606 2539.02 161.606L2532.79 164.196C2532.79 164.196 2527.09 167.305 2526.57 167.305L2523.46 169.378L2519.31 170.932L2515.68 173.005C2515.68 173.005 2512.57 175.078 2512.05 175.078L2509.98 176.114L2507.39 177.668C2507.39 177.668 2505.31 178.705 2504.8 178.705L2502.72 179.741L2495.98 182.332L2490.28 185.959L2486.65 187.513L2483.54 189.586L2478.87 192.695C2478.87 192.695 2474.21 194.767 2473.69 194.767L2469.02 197.358L2464.87 200.467L2460.21 202.54L2455.54 205.649L2452.43 207.721L2448.8 209.794L2444.65 212.385L2439.99 214.976L2437.39 216.012L2435.84 217.566L2432.21 219.121L2429.1 221.712L2424.43 223.784C2424.43 223.784 2420.8 228.966 2420.28 228.966C2420.28 228.966 2415.62 232.075 2415.1 232.075C2415.1 232.593 2410.43 235.702 2410.43 235.702L2407.32 237.774L2404.21 239.847L2401.62 240.365L2400.06 242.438L2396.95 244.51L2394.36 246.583L2389.17 249.692C2389.17 249.692 2385.03 253.319 2384.51 253.319L2379.32 255.91L2375.17 260.055L2372.06 261.609L2369.99 264.2L2366.36 266.791L2363.25 269.382L2361.18 270.418L2360.14 272.491C2360.14 272.491 2355.99 275.081 2355.99 275.6C2355.47 275.6 2351.84 279.227 2351.84 279.227L2348.73 281.818C2348.21 281.818 2346.14 284.926 2346.14 284.926L2343.55 286.481C2343.55 286.999 2341.47 288.554 2341.47 288.554L2338.36 291.144L2335.77 294.253L2332.66 296.326L2330.59 299.435L2329.55 300.989L2327.99 302.026L2325.92 303.58L2324.36 305.653L2322.81 307.725L2321.25 309.798L2318.66 312.907L2316.07 316.016L2313.99 318.607L2312.44 321.197L2311.4 322.234L2310.88 323.788L2309.33 325.343L2308.29 327.415L2306.22 328.451L2305.7 330.524L2305.18 332.079L2304.14 333.115L2303.62 334.151V335.706L2301.55 337.778L2301.03 340.369L2300.51 343.478L2298.96 346.069L2297.92 349.178L2297.4 352.805L2296.88 357.986V363.686L2294.29 363.168L2291.18 363.686L2287.03 363.168L2282.88 363.686L2277.7 362.65H2272.52H2267.85H2263.7H2261.63H2259.55H2255.92H2252.81H2250.74H2248.66H2244H2239.33H2234.15L2228.96 363.686L2225.85 363.168L2222.22 363.686L2219.63 362.65L2217.04 363.686L2211.85 363.168L2207.19 363.686L2200.45 363.168L2193.71 363.686L2199.41 360.059L2205.11 356.432L2208.74 355.396L2211.33 352.287L2219.11 348.141L2225.85 343.478L2230.52 339.851C2230.52 339.851 2235.7 337.26 2235.7 336.742H2241.92L2244.52 335.187L2250.22 331.56L2255.92 327.415L2262.66 322.752L2269.4 317.57L2275.63 314.461L2280.81 309.798L2288.07 305.653L2294.29 299.953L2298.44 296.844L2299.48 292.181L2303.11 290.108L2305.7 286.999C2305.7 286.999 2308.29 285.963 2308.29 285.445L2310.36 283.372L2315.03 279.745L2318.66 275.081L2321.77 273.527L2323.33 270.418L2326.96 267.827L2329.55 264.2L2332.14 261.609L2334.21 258.501L2335.77 257.464L2336.81 255.392L2337.84 253.319L2339.4 250.728L2340.44 249.174L2340.95 247.101L2342.51 246.065V244.51L2343.03 243.474V241.92L2344.07 240.365L2343.55 238.292L2344.58 237.774L2344.07 236.738L2343.55 234.665L2343.03 233.111C2343.03 232.593 2341.99 231.556 2341.99 231.556L2341.47 230.002C2341.47 230.002 2341.47 228.448 2340.95 228.448L2339.92 227.929L2338.36 226.375L2336.29 224.82L2333.7 223.784L2331.62 222.23L2328.51 221.193L2325.4 220.675L2321.77 219.121L2317.1 218.084L2312.96 217.048H2308.81L2306.22 216.53L2303.11 216.012L2297.92 215.494H2292.74H2284.96L2277.18 214.976L2274.07 215.494L2270.44 214.976L2267.85 215.494H2264.74L2262.15 214.976L2259.55 215.494L2255.92 214.976L2252.29 215.494L2250.22 214.976H2248.15L2246.07 214.457L2244 215.494H2239.85L2235.18 214.976L2231.55 214.457L2226.89 214.976L2232.07 213.421L2236.74 212.385L2242.44 210.83L2247.63 209.276H2250.22L2252.29 208.24H2254.89L2257.48 207.203L2261.11 206.167L2265.26 205.131L2267.85 204.612L2269.92 204.094L2272.52 203.058H2275.11L2280.81 202.022L2286 199.949L2291.7 198.913L2297.4 197.358L2299.48 196.84L2302.07 195.804H2306.22L2309.85 193.731L2315.03 193.213C2315.03 193.213 2319.18 191.14 2319.7 191.14H2321.77L2324.36 190.622L2329.03 189.068L2333.7 188.031L2337.33 187.513L2340.44 186.477L2344.58 185.959L2432.73 161.606H2435.32L2437.39 160.569L2438.95 160.051L2440.5 159.015L2445.69 158.497L2450.36 156.942H2452.95L2455.02 155.906L2460.21 154.87L2464.87 153.315L2469.54 152.797L2474.21 150.724L2476.8 150.206H2478.87C2479.39 150.206 2481.98 149.17 2481.98 149.17C2482.5 149.17 2485.61 148.134 2485.61 148.134L2487.69 147.615L2490.28 147.097L2495.98 146.061L2501.68 144.506C2501.68 144.506 2505.83 142.952 2506.35 142.952L2511.02 141.916L2515.68 140.361L2520.35 139.325L2524.5 138.807L2528.65 137.77L2533.31 136.216L2537.98 135.18L2542.13 134.143C2542.13 134.143 2545.76 133.625 2545.76 133.107H2542.65L2539.02 134.143H2535.39L2532.28 133.625L2529.16 134.143H2526.05L2520.87 133.107L2515.68 133.625C2515.68 133.625 2514.13 133.107 2513.61 133.107L2512.05 133.625L2506.87 133.107L2501.68 133.625L2498.57 134.143L2495.46 133.625H2490.28L2485.09 134.143H2481.98L2479.39 133.625H2477.32H2475.76H2471.09L2466.43 134.143L2463.84 133.107L2461.76 134.143L2457.61 133.107L2453.47 134.143H2451.39L2448.8 133.625L2447.24 133.107L2445.17 133.625L2440.5 134.143L2435.84 133.625H2432.73L2430.13 134.143L2427.54 133.107L2425.47 134.143L2420.28 135.18L2414.58 136.216L2411.47 135.698H2407.84L2403.69 135.18H2399.54H2394.36H2389.17H2386.06H2382.95H2378.8H2375.17H2372.06H2368.95H2363.77H2358.58H2355.99H2353.92H2349.77H2345.62H2343.55C2343.03 135.18 2340.95 135.18 2340.95 135.18C2340.95 135.18 2338.88 135.18 2338.36 135.18H2336.29H2334.73H2332.66H2329.03L2325.92 135.698L2323.85 135.18L2322.29 136.216L2317.1 135.698C2317.1 135.698 2311.92 135.698 2311.92 136.216L2307.25 138.289L2302.59 140.361L2297.4 142.952L2292.22 145.543L2288.59 150.206L2284.44 152.279L2282.37 153.315L2280.81 153.833C2280.29 154.351 2276.66 156.424 2276.14 156.424L2272 158.497L2268.89 159.533L2265.77 161.606L2262.15 162.124L2259.03 165.233L2257.48 165.751L2255.92 166.269L2252.29 167.823C2252.29 167.823 2248.66 166.269 2248.66 166.787L2245.55 168.342L2242.44 169.896L2239.85 170.932L2237.26 172.487L2235.18 173.005C2234.67 173.005 2233.11 174.559 2233.11 174.559L2228.44 176.632L2223.78 179.223L2220.15 180.777L2217.04 182.85L2214.44 182.332L2212.89 184.404L2210.82 185.441C2210.3 185.441 2208.22 186.477 2208.22 186.477L2206.15 187.513L2204.59 188.55L2201.48 189.586L2198.89 191.14L2195.78 192.177L2192.67 194.249L2187.48 195.804L2182.82 198.913C2182.3 198.913 2177.63 201.503 2177.11 201.503L2172.45 204.094L2168.3 205.131L2164.67 207.721L2160.52 209.794C2160 209.794 2155.86 212.385 2155.86 212.385C2155.86 211.867 2158.97 208.758 2158.97 208.758C2158.97 208.758 2160.52 205.649 2160.52 205.131L2163.11 202.022L2165.71 199.431C2165.71 198.913 2167.26 196.84 2167.26 196.84L2168.82 194.767L2170.89 193.213L2171.93 190.622L2174.52 188.55L2176.08 185.441L2178.15 183.886L2179.19 180.777L2181.78 179.223L2183.34 175.596C2183.34 175.596 2185.41 173.523 2185.93 173.523L2187.48 170.414L2189.56 168.342L2191.63 165.751L2194.74 161.087L2197.85 156.942L2200.45 154.87L2202 151.761C2202 151.761 2205.11 147.615 2205.63 147.615C2205.63 147.615 2208.22 143.47 2208.22 142.952L2211.85 139.843L2214.44 136.216L2217.04 133.107L2219.11 129.48L2221.19 126.889L2223.26 124.298L2225.85 122.226L2227.41 119.117L2230 117.044L2231.04 113.935L2233.11 111.345L2235.7 108.754L2238.81 104.609L2241.92 100.463L2244 98.3907L2245.04 95.7999L2247.11 93.2091L2249.18 90.6183L2250.74 89.582L2251.78 87.5094L2254.89 83.3642L2258.52 79.2189L2261.63 76.11L2263.7 71.9648L2266.81 67.3014L2270.44 63.6743C2270.44 63.1561 2274.07 60.0472 2274.07 60.0472L2276.14 55.902L2278.74 53.8293L2279.77 50.7204L2283.92 47.6115L2285.48 43.4662L2288.59 40.3573L2290.66 37.2484L2293.25 35.1758C2293.25 35.1758 2294.29 31.5487 2294.81 31.5487L2298.44 28.9579C2298.44 28.4397 2300.51 24.8127 2300.51 24.8127C2300.51 24.8127 2303.11 21.7037 2303.62 21.7037L2305.18 18.0767L2307.25 16.5222L2308.81 13.9314L2311.4 11.3406L2313.48 7.71355L2316.59 5.12278L2318.14 1.49569H2316.07L2313.48 2.01385L2308.81 1.49569H2303.62L2301.55 0.977539L2298.96 2.01385H2294.81H2290.66L2285.48 0.977539L2280.29 2.01385L2276.14 1.49569L2271.48 2.01385L2266.81 1.49569H2262.15L2258 0.977539L2253.85 2.01385H2248.66H2243.48L2238.3 1.49569L2233.11 2.01385H2230.52H2227.93L2225.33 1.49569L2223.26 2.01385H2217.56H2212.89C2212.37 2.01385 2208.74 5.64093 2208.74 6.15909L2206.15 10.8225L2203.04 13.9314L2200.45 17.5585L2199.41 19.6311L2197.85 21.1856L2194.22 24.2945L2192.15 28.4397L2189.56 31.5487C2189.04 31.5487 2186.97 35.1758 2186.97 35.1758C2186.97 35.6939 2183.34 38.2847 2183.34 38.2847L2181.26 42.4299L2178.15 45.5389L2176.08 49.6841L2172.97 52.793C2172.97 52.793 2170.37 56.4201 2170.37 56.9383L2168.82 57.9746L2167.78 60.0472L2165.71 63.1561L2163.63 65.7469L2101.42 146.061L2101.93 150.724L2100.38 152.279L2098.82 153.833L2097.27 155.388L2096.23 157.46L2095.19 159.533L2093.64 161.087L2090.01 165.233L2086.9 169.896L2084.31 172.487L2082.23 175.078C2082.23 175.078 2080.16 177.15 2080.16 177.668L2078.08 180.259L2075.49 183.886L2072.9 187.513L2068.75 191.659L2066.16 196.322L2064.08 197.358L2063.57 199.949C2063.05 199.949 2060.97 203.576 2060.46 203.576L2058.38 207.203C2057.86 207.203 2054.75 210.312 2054.75 210.312L2052.68 213.939C2052.68 214.457 2050.09 216.53 2050.09 216.53C2050.09 216.53 2048.53 219.121 2048.53 219.639L2046.46 220.675L2045.42 222.748L2043.86 224.302L2042.83 226.375L2040.23 230.002L2037.64 233.629L2035.05 235.702C2035.05 235.702 2033.49 238.811 2032.98 238.811L2029.86 242.956L2026.24 247.619L2025.2 249.174L2023.64 251.246L2021.57 253.319C2021.57 253.837 2020.01 256.428 2020.01 256.428C2019.49 256.428 2017.42 258.501 2016.9 258.501C2016.9 259.019 2015.35 261.609 2015.35 261.609L2013.79 263.164L2013.27 265.237C2012.75 265.237 2011.2 266.791 2011.2 266.791L2010.16 268.864L2007.05 273.527L2003.42 278.19L2000.31 281.299C1999.79 281.299 1997.72 285.445 1997.72 285.445L1995.13 288.554L1992.53 292.181L1988.9 295.29L1986.83 299.435L1984.24 301.507L1983.2 304.616C1983.2 305.134 1981.13 306.171 1981.13 306.171L1980.09 308.243L1977.5 310.316L1975.94 313.425C1975.94 313.425 1973.35 317.052 1972.83 317.052L1970.76 320.679L1967.13 323.788C1967.13 323.788 1965.05 327.415 1965.05 327.933L1961.42 332.079L1958.31 336.742L1955.72 338.815L1954.17 341.923L1948.46 348.659C1948.46 348.659 1943.28 355.914 1942.76 355.914H1940.69H1938.09L1933.95 355.396L1929.8 355.914H1925.13H1919.95L1917.35 356.432H1914.24L1908.54 355.396L1903.35 356.432L1899.21 355.914H1895.58H1890.39L1885.21 355.396H1880.54H1875.36H1871.21H1866.54H1862.39H1857.73H1852.02H1846.84H1842.69H1839.06H1836.47H1833.88H1830.25H1827.14H1822.99H1819.88H1817.29H1815.21H1810.55H1805.88H1802.77H1799.14L1795.51 355.914L1792.4 356.432H1789.81H1787.21L1779.44 356.95H1775.81H1770.1L1764.92 356.432L1759.73 356.95H1755.07L1747.81 355.914L1739.51 356.95L1745.22 354.877C1745.22 354.877 1749.88 352.805 1750.4 352.805L1755.59 352.287L1760.25 349.696L1765.44 348.659L1770.62 346.069L1778.92 343.478L1790.84 340.887C1790.84 340.369 1796.03 339.333 1796.03 339.333L1800.69 337.26C1801.21 337.26 1805.88 335.187 1805.88 335.187L1810.55 333.633L1817.29 331.56L1823.51 328.451L1829.73 326.379L1834.4 324.306L1838.03 323.788L1840.62 321.715L1847.36 319.643C1847.36 319.643 1853.06 316.534 1853.58 316.534L1856.69 315.498L1859.28 313.425L1864.47 312.389L1868.62 309.798L1875.36 307.725L1880.54 304.098C1881.06 304.098 1886.76 302.544 1887.28 302.026L1892.47 298.917L1898.69 296.326L1903.87 293.217L1908.02 290.626L1912.17 288.554L1917.87 286.481L1923.06 282.854L1927.2 281.299C1927.2 280.781 1930.83 278.709 1930.83 278.709L1934.98 276.118L1938.61 273.527L1941.2 272.491L1943.8 270.936L1950.02 267.309L1955.72 263.164L1961.42 260.055C1961.94 260.055 1967.13 256.428 1967.13 256.428C1967.65 256.428 1971.79 253.837 1971.79 253.837L1975.94 250.21L1980.09 247.619C1980.61 247.619 1984.24 244.51 1984.24 244.51L1986.31 243.474L1987.87 241.401L1989.94 239.847L1992.02 238.811L1993.57 237.256L1995.13 235.702L1999.27 233.111L2002.38 230.002L2004.46 227.929L2007.57 225.857L2009.64 224.302L2011.72 221.712L2014.83 218.084C2015.35 218.084 2018.46 214.976 2018.46 214.976L2019.49 213.421L2020.53 211.867L2022.09 210.83L2023.12 209.276L2025.2 208.24V206.167L2027.79 203.576L2029.86 199.949L2031.94 198.395L2032.46 195.804C2032.46 195.804 2034.01 194.767 2034.01 194.249L2034.53 192.695L2035.05 189.586L2036.09 187.513L2036.6 185.441L2037.12 183.886C2037.12 183.886 2038.16 181.295 2038.16 180.777L2037.64 178.187V176.114L2038.16 173.523L2037.12 171.969V170.414V168.342L2035.57 166.787V165.233L2034.53 164.714L2034.01 162.642L2032.46 161.606L2031.42 160.051L2029.86 159.015L2028.31 156.424L2025.72 155.388L2025.2 154.351L2023.64 153.833L2021.05 152.279L2018.46 150.724L2015.35 149.17L2012.24 147.615L2008.61 146.061L2004.98 145.025L2002.9 144.506L2000.83 143.988C2000.83 143.988 1997.72 143.47 1997.72 142.952H1994.61L1989.94 141.398L1985.27 140.361L1982.68 139.325L1980.09 139.843L1973.35 138.289L1966.61 137.77L1960.39 137.252H1954.17L1945.87 136.734L1937.57 136.216L1928.76 135.698L1919.43 136.216L1915.8 135.18L1912.17 136.216L1910.61 135.18L1908.54 135.698H1904.91L1901.28 136.216L1896.1 135.698H1890.39L1885.21 135.18L1880.02 135.698L1877.95 136.216H1876.39L1872.76 135.698L1869.13 136.216L1867.06 135.18L1865.51 136.216L1861.88 135.18L1858.25 136.216L1852.54 135.18L1847.36 135.698L1842.17 136.216H1836.47L1832.84 135.18L1829.21 136.216L1827.66 135.18L1825.58 135.698H1820.4L1814.69 136.216L1809.51 135.698H1804.32H1798.62L1793.44 136.216L1789.81 135.18L1782.55 135.698L1776.84 135.18L1771.66 135.698H1768.03L1764.4 136.216H1759.22L1753.51 135.698L1749.88 135.18L1746.25 135.698L1741.07 135.18L1735.88 136.216L1730.18 135.698H1725L1721.37 136.216L1717.74 135.698H1714.11H1710.48L1706.85 135.18L1703.22 136.216L1699.59 137.252L1695.96 137.77H1694.41L1692.33 137.252H1690.78H1688.7L1687.15 137.77L1685.07 137.252L1683.52 136.734L1681.44 137.252H1677.81H1674.18H1670.56H1667.44L1663.81 137.77H1660.19H1656.56L1652.93 137.252L1649.3 136.734L1645.67 137.252L1642.04 136.734L1638.41 137.77H1636.34H1634.78L1633.22 137.252C1632.71 137.252 1631.15 137.77 1631.15 137.77L1625.97 137.252L1620.26 136.216L1618.71 135.698L1616.63 136.216L1611.45 135.18L1605.74 136.216L1604.19 135.18L1602.12 135.698L1600.56 135.18L1599 135.698H1593.3L1588.12 136.216H1582.41H1577.23L1575.15 135.698L1573.6 136.216L1569.97 135.698H1566.34L1562.71 136.216L1559.08 135.698H1555.45L1551.82 136.216L1550.27 135.18L1548.19 136.216L1544.56 135.698H1540.93L1535.75 136.216H1530.05L1526.94 135.698H1523.31H1517.6H1512.42H1508.79L1505.16 134.662H1501.53L1497.9 135.18C1497.9 135.18 1496.34 134.662 1495.83 134.662H1494.27L1490.64 135.18L1487.01 134.662L1483.38 134.143L1479.75 134.662L1476.12 134.143L1472.49 135.18H1467.31L1461.61 134.662L1458.5 135.18L1451.76 134.662H1448.13H1444.5L1440.87 136.216L1437.24 135.698L1431.53 136.216L1426.35 135.698L1424.28 135.18L1422.72 136.216L1417.54 135.698L1411.83 136.216L1408.2 135.18L1404.57 136.216L1399.39 135.698H1393.68H1388.5H1383.32L1379.69 135.18L1376.06 136.216L1373.98 135.18L1372.43 136.216L1368.8 135.18L1365.17 136.216L1363.09 135.698L1361.54 136.216L1355.84 135.698H1350.65H1349.1H1347.02L1343.39 135.18L1339.76 136.216L1338.21 135.698H1336.13H1332.5H1328.87H1323.69H1317.99L1314.88 135.18L1311.25 135.698L1307.62 135.18L1303.99 136.216L1300.36 135.18L1296.73 135.698L1291.03 135.18L1285.84 136.216H1282.21L1278.58 135.698H1274.95H1271.32L1267.69 135.18L1264.06 136.216L1258.88 135.698H1253.18H1249.55L1246.44 136.216L1240.73 135.698L1235.55 136.216L1229.84 135.698H1224.66H1218.96L1213.77 136.216C1213.77 136.216 1212.22 135.698 1211.7 135.698L1210.14 136.216L1201.33 135.18L1191.99 136.216C1191.99 136.216 1192.51 135.698 1193.03 135.698H1193.55L1190.96 136.216L1189.4 137.77L1184.74 139.325L1181.11 141.916L1175.4 143.988L1170.74 147.097L1168.66 147.615L1167.11 149.17L1162.44 150.206L1158.81 152.797L1155.7 153.833L1153.11 155.388C1153.11 155.388 1151.03 156.424 1150.52 156.424L1148.96 157.978C1148.44 157.978 1145.33 159.015 1145.33 159.015L1142.22 161.087L1138.07 162.124L1134.44 164.714L1131.85 166.269C1131.85 166.787 1128.74 167.823 1128.74 167.823L1125.11 169.896L1120.96 171.451L1116.3 173.523L1111.63 176.114L1109.56 177.15L1108 178.187C1107.48 178.187 1102.82 180.777 1102.82 180.777L1097.63 182.85C1097.63 183.368 1095.04 184.404 1095.04 184.404L1095.56 185.441L1090.37 186.995L1085.71 190.104L1083.11 191.14C1083.11 191.14 1081.04 192.695 1080.52 192.695L1076.89 193.731L1073.78 196.322L1071.19 197.358L1069.11 198.913L1065.48 199.431L1062.89 201.503L1057.19 203.576L1052.52 206.685L1049.41 207.203L1046.82 209.276C1046.82 209.276 1043.19 211.867 1042.67 211.867L1039.04 212.903L1038.52 210.83L1038 208.758L1035.93 204.612L1034.89 200.467V197.358L1033.34 195.286L1031.26 190.622L1029.19 186.477L1027.64 184.923L1027.12 183.368L1024.52 179.741L1021.93 176.114L1020.89 174.041L1018.82 172.487L1017.78 169.896L1015.71 168.342C1015.71 167.823 1013.64 166.269 1013.64 166.269L1012.08 165.233C1011.56 165.233 1008.97 163.16 1008.97 163.16L1006.38 161.087L1002.75 157.46L998.6 155.388C998.6 154.87 994.452 152.797 994.452 152.797L990.304 150.724L986.675 149.17L983.564 147.615L980.453 146.579L977.342 145.025L973.713 143.47L970.083 142.434H966.973L964.38 141.398L959.195 140.879C959.195 140.361 954.01 139.325 954.01 139.325L950.9 138.807C950.381 138.807 947.27 137.77 947.27 137.77L945.196 138.289L943.122 137.77L933.271 137.252L923.938 136.734H921.346H918.754H914.606L910.458 137.252L906.31 136.734L902.162 134.662L898.014 135.18L894.385 135.698H890.237H886.089L881.941 135.18L877.793 135.698L875.201 135.18H872.608L866.905 135.698H861.72H857.572H853.425H848.24H842.536H838.389H834.759H831.648H829.056H826.463H823.871H818.168L812.983 137.77H809.872H807.279H803.132H799.502H793.799H788.614H782.911L777.726 135.698H772.023H766.838H762.69H758.542H755.95H753.357H749.209H745.061H739.877H734.173H731.581H728.988H724.841H720.693H715.508H709.805H707.212H704.62H700.472L696.324 137.252L690.621 136.216L685.436 136.734L681.288 137.252L677.14 136.734H676.103H674.548L670.4 137.252H666.252L665.215 136.734L663.659 137.252H658.475L652.771 136.734H648.623H644.994L640.846 137.252H636.698L632.55 136.734H628.403L623.218 135.18L617.514 135.698H614.922L612.33 136.216L606.626 135.18L601.441 135.698H596.257H590.553L585.368 135.18L579.665 136.216L577.073 135.18L574.48 135.698L568.777 135.18L563.592 136.216L561 135.698H557.889L552.704 136.216L547.001 135.698H543.371H539.223L536.631 135.18L533.52 135.698L529.891 135.18L525.743 136.216H521.595L517.447 135.698L512.262 135.18L506.559 136.216L501.374 135.698H495.671H493.078H490.486L488.93 135.18C488.93 135.18 487.893 135.698 487.375 135.698H482.19L477.005 136.216L473.894 135.698H471.302H467.154L463.006 136.216L457.821 135.18L452.636 136.216L451.081 135.18L449.526 135.698L445.378 136.216L441.748 135.698H436.045L430.86 136.216H428.268H425.157L419.972 135.698L414.269 136.216L413.232 135.698H411.676L409.084 136.216L406.491 135.698H402.344H398.196L394.048 135.18L389.9 135.698H385.752H381.604C381.604 135.18 386.789 133.107 386.789 133.107L391.455 131.034C391.455 130.516 398.196 128.444 398.196 128.444L403.899 124.817L409.602 122.226L414.787 118.081C414.787 118.081 417.898 116.526 418.417 116.526L421.009 113.935L426.194 111.863L429.823 107.717C429.823 107.717 431.897 106.163 432.416 106.163L434.49 104.09L436.563 102.018L438.637 99.9451L441.23 97.8725C441.23 97.8725 443.304 95.2817 443.822 95.2817L445.896 92.691L447.452 89.582C447.452 89.582 449.526 86.9913 449.526 86.4731L450.563 83.3642L451.6 81.8097L451.081 79.7371L452.118 78.1826L451.6 76.6282V75.0737L450.563 73.0011V71.4466L450.044 70.4103L449.007 68.8558L447.97 67.3014L445.896 64.1924L442.785 61.6017L440.193 60.5654L438.119 59.0109C438.119 59.0109 435.008 58.4927 435.008 57.9746L431.897 56.9383L428.268 54.8657L424.12 54.3475L418.417 52.2749H412.195L408.047 50.7204H403.899L396.64 49.6841L389.9 50.2023L382.641 49.6841H375.382L369.679 48.1296H363.976H361.383L358.272 48.6478L355.68 48.1296L352.569 48.6478L348.421 48.1296L344.273 49.1659H341.162L338.57 49.6841L332.867 50.2023L327.163 50.7204L323.015 51.2386L318.868 51.7567L314.201 51.2386L310.053 52.793H307.461L304.35 53.3112L301.758 53.8293L299.165 54.3475L295.017 54.8657C294.499 54.8657 290.869 56.4201 290.869 56.4201H287.759L285.166 57.4564L279.463 58.4927L274.278 59.529C273.76 59.529 270.13 61.0835 270.13 61.0835L265.982 61.6017L260.279 62.638L255.094 64.1924L250.946 65.2287C250.428 65.2287 246.798 66.7832 246.798 66.7832L242.65 67.8195L239.021 69.374H235.91L233.318 70.4103L226.577 72.4829L220.356 75.5918L217.245 77.1463L215.171 78.7008L208.431 81.2916L202.209 83.3642L196.505 84.9186L191.839 87.5094L186.654 89.0639L181.988 92.1728L179.395 92.691L177.322 94.7636L174.211 95.2817L172.137 96.8362L169.544 97.8725L167.47 99.427L163.322 100.463L160.212 102.536C160.212 103.054 156.582 104.609 156.582 104.609L152.953 106.163L149.323 108.236L146.212 110.308L142.583 112.381L138.954 113.935L134.806 117.044L130.139 119.635L128.066 120.671L125.473 122.226L121.325 125.335L117.177 127.925L113.548 129.48L110.437 132.071L108.363 133.625L106.289 135.18L102.66 138.289L98.5119 140.879C97.9935 140.879 94.3641 143.988 94.3641 143.988C94.3641 143.988 90.7347 147.097 90.7347 147.615L88.6608 149.17L89.1792 150.724L86.0683 152.797L83.4759 154.87L81.402 156.424L79.8465 157.978C79.8465 158.497 76.7356 161.606 76.2171 161.606L73.1062 165.233L68.9584 167.823L65.8475 171.451L63.7735 173.005L62.7366 175.078L61.1811 176.632L59.1072 178.187L55.4778 180.777C55.4778 181.295 52.8854 184.923 52.8854 184.923L50.8114 186.477L50.2929 188.55L48.219 190.104L47.182 192.177L43.0342 195.804C43.0342 196.322 39.9233 200.467 39.9233 200.985L36.8124 204.094L34.2199 207.721L33.183 209.276C33.183 209.794 32.146 211.348 32.146 211.348L29.5536 214.976L27.4796 218.603L25.4057 222.748L23.3318 226.375C23.3318 226.375 20.7394 229.484 20.7394 230.002L19.1839 233.629C19.1839 233.629 16.5915 237.774 16.5915 238.292L14.5176 242.956C13.9991 242.956 12.4436 246.583 12.4436 246.583L11.4066 250.21L9.33271 253.837C9.33271 253.837 7.77726 257.464 7.77726 257.982L7.25878 260.573L6.22181 263.682L5.18484 265.237V267.309L4.14787 268.864V270.936L3.1109 275.081L2.59242 278.709V280.781L1.55545 282.854L1.03697 284.408L1.55545 286.481C1.55545 286.481 0 288.035 0 288.554L0.518484 290.108V293.217L0 296.326V300.989V305.653V311.87L1.03697 317.57L0 321.715C0.518484 321.715 1.55545 325.343 1.55545 325.343L3.1109 330.524L4.66636 335.706L7.25878 339.851L6.22181 345.032L8.81423 349.178L11.9251 353.323L12.9621 355.914L15.036 356.95L17.11 360.577L20.7394 362.65L22.2948 364.722L23.8503 366.277L25.4057 367.313L27.4796 368.868L31.6275 371.458L35.2569 374.049L38.3678 375.604C38.8863 375.604 41.9972 377.158 41.9972 377.158L44.5896 379.231C44.5896 379.231 48.219 380.267 48.219 380.785L50.2929 381.821L52.8854 382.34L57.5517 384.412L62.2181 385.448C62.7366 385.448 65.8475 386.485 65.8475 386.485L69.4768 387.003L71.5508 387.521L73.6247 388.039L77.2541 388.557L80.8835 389.076L87.1053 391.148L93.8456 390.63L96.9565 391.148L99.5489 391.666H106.808L113.548 392.185L118.733 391.666H123.399L125.473 392.185C125.473 392.185 127.029 391.666 127.547 391.666H132.213L136.88 390.112L141.546 389.594H146.731L151.397 388.557L156.064 387.521H160.212L163.841 385.967H166.952L170.063 384.93H173.174L175.766 383.376L181.469 381.821L187.173 379.749L190.802 378.712L194.95 377.676L198.579 376.122L202.727 375.085L206.357 373.531L209.986 371.976L213.097 370.94L215.689 369.904L220.356 366.277L225.022 364.204C225.541 364.204 229.688 362.132 229.688 362.132C230.207 362.132 234.355 359.541 234.355 359.541L239.54 357.986L243.687 355.396C243.687 355.396 249.391 353.323 249.391 352.805L254.576 349.696L260.279 346.587L265.464 343.996C265.982 343.996 270.13 341.405 270.13 341.405C270.13 340.887 274.278 338.296 274.278 338.296L278.944 336.224L283.092 333.115C283.611 333.115 285.685 331.56 285.685 331.56C286.203 331.56 288.277 330.006 288.277 330.006C288.277 329.488 293.98 326.897 293.98 326.897C293.98 326.897 298.647 323.27 299.165 323.27L301.239 321.197L303.832 319.643L306.942 318.607L309.016 316.534L314.201 312.907L318.868 309.28L321.46 307.725L323.534 305.653L326.126 303.58L328.719 302.026L330.793 300.471L332.867 298.398C332.867 298.398 335.978 295.808 336.496 295.808L339.088 293.217L342.199 291.144C342.718 291.144 345.31 288.554 345.31 288.554L346.866 286.999L348.421 286.481C348.421 285.963 350.495 284.408 351.014 284.408L352.569 282.336L356.717 279.745L359.828 276.118L361.902 274.045L363.976 272.491L368.124 269.9L370.716 266.273L372.79 264.718L374.864 264.2L376.938 262.128L378.493 260.055L382.123 257.982L385.234 254.355L388.344 250.728C388.344 250.21 392.492 247.101 392.492 247.101L395.085 243.992L398.196 241.401C398.196 240.883 399.751 239.329 399.751 239.329L401.307 237.774L402.344 236.738C402.862 236.738 403.381 235.184 403.381 235.184L406.491 232.075L409.602 228.448L412.713 225.339C412.713 225.339 414.787 221.712 414.787 221.193L417.898 218.603C417.898 218.603 420.49 215.494 420.49 214.976L424.12 210.83L427.749 206.167L425.675 207.203L424.638 209.276L422.564 211.867L419.972 214.457C419.454 214.457 416.343 216.012 416.343 216.53L413.75 219.121L412.713 220.157L411.158 221.193L408.047 223.266L405.454 225.339L401.307 227.929C400.788 227.929 397.159 231.038 397.159 231.038L395.603 232.593C395.603 232.593 394.048 233.111 394.048 233.629L390.937 234.665C390.937 234.665 388.863 237.256 388.344 237.256L383.678 239.847L379.012 242.956L374.864 244.51L371.753 245.547L369.679 246.065C369.679 246.583 367.605 247.619 367.605 247.619L361.902 251.246L356.198 254.873L351.014 256.428L346.866 259.537L341.681 261.609L337.015 264.2L333.904 265.755L331.311 267.309L326.126 269.382C326.126 269.9 321.46 271.973 321.46 271.973L315.757 274.563C315.757 274.563 310.053 277.154 309.535 277.154L306.942 278.709L304.35 279.745C303.832 279.745 301.239 280.781 301.239 280.781L298.647 282.854L293.462 283.372L289.833 286.481L286.722 286.999L284.129 288.554L279.463 289.59L275.315 291.662L272.723 292.181L271.167 293.735L265.464 294.771C264.945 294.771 259.76 297.362 259.76 297.362L256.131 297.88L253.02 299.953H249.391L246.28 302.026L241.095 303.58L235.91 305.653L231.762 306.171L228.133 307.725L226.577 308.243H224.504L221.911 309.28H219.837C219.319 309.28 215.171 311.352 214.652 311.352L210.504 313.425H206.357L202.727 314.461H199.616C199.616 314.461 197.024 315.498 196.505 315.498H192.358H187.691H184.062H180.432L177.84 314.979H174.729C174.729 314.979 171.618 313.943 171.1 313.943L167.989 314.461L164.359 313.943L160.73 312.907C160.73 312.907 156.582 311.352 156.064 311.352L151.397 310.834L148.286 308.243L144.139 307.207L142.065 305.134C142.065 304.616 139.472 303.062 139.472 303.062L136.88 300.471L133.769 297.88L132.213 295.29C132.213 294.771 130.658 292.181 130.658 292.181L129.621 289.072C129.621 289.072 127.547 285.963 127.547 285.445V282.336L125.992 279.227L126.51 272.491L124.955 266.273V263.164V260.055L125.473 256.428V253.319L127.029 243.474L128.584 240.883V237.256L129.621 232.593L131.176 227.929L131.695 225.857C131.695 225.339 132.732 223.266 132.732 223.266L135.324 219.121L139.472 208.24L142.583 202.54L143.62 199.431C143.62 198.913 145.176 196.322 145.176 196.322C145.176 196.322 148.286 191.659 148.286 191.14C148.805 191.14 151.397 186.477 151.397 186.477L154.508 183.368L156.582 179.223L159.693 175.596C160.212 175.596 162.804 171.451 162.804 171.451L164.878 169.896L165.915 167.305L167.47 165.233L169.544 163.16L171.1 161.087L173.174 159.533L175.248 157.978L176.803 155.388L180.432 151.242C180.951 151.242 184.58 146.579 185.099 146.579L187.173 145.025L188.728 142.952L193.913 139.325L197.542 134.662C198.061 134.662 201.69 131.553 201.69 131.553L205.838 128.444L208.949 125.335C209.468 125.335 212.578 122.744 212.578 122.744L214.652 121.189L216.726 119.635L220.874 114.972L225.022 112.381C225.541 112.381 230.207 109.272 230.207 109.272L234.873 105.645L236.947 104.09L239.021 103.054L241.095 101.5L243.687 100.463L248.354 97.8725L253.02 94.2454L258.205 92.691L262.871 89.0639L266.501 88.0276L269.612 85.9549L272.723 83.8823L276.352 82.3279L279.463 81.2916L282.574 79.7371C282.574 79.7371 286.203 79.2189 286.203 78.7008L289.314 77.1463L292.943 75.5918L296.573 74.0374L298.647 74.5555L300.202 73.0011L304.869 71.4466L309.535 70.4103C309.535 69.8921 311.609 69.374 311.609 69.374L314.201 68.8558L317.312 68.3377L320.423 67.8195C320.423 67.8195 321.46 67.3014 321.979 67.3014H323.015H328.2L332.867 66.2651L334.941 66.7832H337.015H340.644L343.755 67.8195L345.829 68.8558H348.421L348.94 69.374L349.977 70.4103L350.495 70.9285L351.532 71.9648V73.5192L353.088 74.5555L352.569 76.6282L354.125 78.7008L352.569 79.7371L353.606 81.2916L352.569 82.3279V83.3642V84.9186L351.532 86.4731L350.495 87.5094L349.977 89.0639L348.94 90.1002L348.421 91.6546L345.829 94.7636L343.236 98.3907L340.125 101.5C339.607 101.5 337.015 104.609 337.015 104.609C337.015 104.609 334.422 106.163 334.422 106.681C334.422 106.681 332.867 108.754 332.867 109.272L328.719 111.863C328.719 111.863 325.089 114.972 324.571 114.972L320.423 118.599C319.905 118.599 315.238 121.708 315.238 121.708L312.646 122.744L311.09 124.817L304.869 127.407L299.684 131.553L292.425 135.18C292.425 135.18 286.203 139.325 285.685 139.325L281.018 140.879L276.352 143.47L271.167 145.025L266.501 148.134C265.982 148.134 262.353 149.17 262.353 149.688L258.723 151.242L253.02 152.279L247.835 155.388L244.206 156.942L240.058 158.497L232.281 160.051L225.022 163.16L219.837 164.196L214.652 167.305C214.652 167.823 206.357 169.378 206.357 169.378L198.579 171.451L201.69 170.932L204.801 170.414L208.949 170.932H213.615L219.319 169.378L225.022 168.342H228.133L231.244 167.823L236.429 168.342C236.429 167.823 241.614 167.305 241.614 167.305L247.317 167.823L253.02 166.269L256.131 166.787L258.723 165.751L261.834 166.269L264.427 164.714L269.093 165.233C269.093 165.233 272.723 163.678 273.241 163.678L277.907 163.16L282.574 162.124L286.203 162.642L289.314 161.087L291.388 161.606L293.462 160.569L295.536 160.051L298.128 159.533L301.239 159.015L304.35 157.978L309.016 156.942L313.164 155.906H316.794L319.905 154.351H323.534L326.645 152.797L329.756 152.279L332.348 151.242L337.015 150.724L341.162 149.17L345.829 148.134L349.977 146.061L354.125 145.025L357.754 142.952L361.383 144.506L365.013 145.543L368.124 146.061C368.642 146.061 371.234 147.097 371.234 147.097L373.308 147.615L374.864 149.17L379.53 150.724L384.197 151.761L387.308 152.797L390.418 153.315L392.492 154.351L394.566 154.87L397.159 155.906H400.788L405.454 157.978L410.121 159.015L412.713 160.051L415.824 160.569L420.49 162.124L425.675 162.642L429.823 164.196L434.49 165.751L442.267 167.823L450.563 169.378C450.563 169.378 454.192 171.451 454.192 171.969L458.858 173.005L460.414 176.632L462.488 179.741L460.414 184.923L458.34 189.586L455.747 193.731L451.6 197.876L449.007 202.54L445.378 206.685L443.304 208.24L442.267 210.83L439.674 213.421L437.6 216.53C437.6 216.53 435.008 220.157 435.008 220.675C434.49 220.675 431.897 224.302 431.897 224.302L429.823 227.411L427.231 230.002L425.675 232.075L424.12 234.147L421.009 237.256L418.417 240.883C418.417 240.883 415.824 244.51 415.824 245.029L413.232 248.656L410.639 250.728L409.084 253.837L406.491 256.428L404.417 259.537L402.344 261.091L400.788 263.164L399.233 266.273L397.677 268.864L393.529 272.491L390.937 277.154L388.863 278.709L387.826 281.299L383.678 284.926L381.086 289.59L377.975 292.699L375.901 296.326L372.79 296.844L371.234 300.471L369.161 303.58L366.568 306.689L363.976 308.762C363.976 309.28 361.902 311.87 361.902 311.87L357.754 317.052L343.236 336.742L334.422 348.659C334.422 348.659 330.793 351.25 330.793 351.768L328.2 355.914C328.2 355.914 326.126 359.023 325.608 359.023C325.608 359.023 324.052 362.65 323.534 362.65L321.979 365.759L320.942 368.868L320.423 370.422L319.905 371.976V374.567L320.942 376.64C320.942 377.158 323.015 379.231 323.015 379.231L325.089 381.821L327.682 382.34L329.237 383.376C329.756 383.376 332.867 385.448 332.867 385.448L337.533 385.967L342.199 387.521L347.903 388.039L355.161 389.594H362.42L374.345 392.185L386.271 391.666L388.344 392.185H390.418H395.085L400.27 391.666L404.417 392.185L408.047 391.666C408.565 391.666 410.121 392.185 410.121 392.185L412.195 391.148L415.306 391.666L417.898 391.148L420.49 391.666L423.083 391.148L429.305 390.63H435.008H439.156L442.785 389.594L446.415 390.112H449.526L456.266 389.594L507.596 383.894L522.113 382.34L526.78 381.303H529.891C529.891 380.785 532.483 380.267 532.483 380.267L535.594 379.749L538.705 379.231L543.89 378.194L549.074 377.676L551.667 377.158C551.667 376.64 554.259 376.64 554.778 376.64L557.889 375.604H561L565.147 375.085L568.777 374.049L573.443 373.531L577.591 371.976L582.257 370.94L586.924 369.904H589.516L591.072 368.868C591.59 368.868 594.183 367.831 594.183 367.831L597.293 366.795L601.441 366.277L605.589 365.24L609.219 364.722L612.33 363.168L618.551 362.132L623.736 360.577L618.551 360.059L613.885 360.577L608.182 360.059L602.478 360.577L598.33 360.059L593.664 361.095L591.072 360.577L588.479 361.095L586.405 360.577L584.331 361.095L579.147 360.577L573.962 361.095H569.814H565.147L562.037 361.613L558.407 361.095L552.704 360.577L547.001 361.095L542.334 360.577H535.075L532.483 361.613L526.78 360.577L521.076 361.613H488.412H483.746L479.079 362.132H474.413L470.265 361.613H466.117H462.488H456.784L451.081 362.132L449.007 360.577L445.896 361.095L444.859 359.541H442.267L440.193 351.768L442.267 344.514L445.896 341.405L447.97 337.778C447.97 337.778 451.6 333.633 451.6 333.115L454.71 328.97C454.71 328.97 458.34 325.343 458.34 324.824L461.451 321.197L463.525 318.607L465.08 316.016C465.08 315.498 467.673 312.389 467.673 312.389L469.746 309.28L472.339 305.653C472.857 305.653 475.45 302.544 475.45 302.544L477.005 300.471L478.042 298.917L480.635 296.326L482.709 292.699L486.856 288.554L490.486 283.372H493.078H495.152L499.3 282.854H502.929H507.596L512.262 282.336H517.447L522.632 281.818L527.817 280.781H533.52L535.594 280.263L538.186 279.745L540.779 280.263L543.89 279.745L548.038 278.709L552.704 278.19H555.815L558.926 277.672L561 277.154L563.592 276.636C563.592 276.636 567.74 276.636 567.74 276.118L571.888 275.6L577.591 275.081L583.813 273.527L588.479 271.973L593.664 271.454C593.664 271.454 596.775 270.418 597.293 270.418L600.923 269.9L603.515 269.382L606.626 268.864L611.811 268.345L616.477 266.791L621.144 265.237L626.329 264.718L629.439 264.2L633.587 263.682H637.735C637.735 263.682 641.365 261.609 641.883 261.609L646.031 260.573L650.179 259.537L652.771 258.501L655.882 257.982L657.956 257.464C657.956 257.464 660.03 256.428 660.549 256.428L664.696 255.91L668.326 254.355H670.918L672.992 253.319L677.14 252.283L681.806 250.728C681.806 250.728 685.954 250.21 685.954 249.692L690.102 248.137L692.695 247.101L695.287 246.065L700.472 245.029C700.99 245.029 705.138 242.956 705.657 242.956C705.657 242.438 709.805 241.401 709.805 241.401L713.952 240.365H709.805L704.62 240.883H700.99L697.361 240.365L694.768 239.847L692.695 240.883L689.065 239.847L685.954 240.365L683.362 240.883L681.288 240.365L678.177 239.847L674.548 240.365L671.955 240.883L668.844 240.365L665.215 239.847L661.586 240.365L657.438 240.883L653.808 240.365L648.105 239.847L642.402 240.365L639.809 239.329L636.698 240.883L633.069 240.365L629.439 240.883L624.255 238.811L619.07 239.847L614.403 238.811L609.737 239.329L604.034 238.292L598.33 239.329H593.664H588.998H584.331H580.184H576.036L571.888 239.847H568.258L564.111 239.329H558.407H552.704H548.038L543.371 239.847L534.557 238.811C534.557 238.811 525.224 239.847 525.224 239.329L528.335 234.665L531.446 230.52L533.52 229.484L534.557 226.893L537.149 223.266L540.26 220.157L541.297 218.084L544.927 213.939C544.927 213.939 557.889 197.358 575.517 174.559L579.147 170.414L580.702 167.305L582.776 165.233L584.85 162.642L587.442 160.569L588.998 157.46L592.627 152.279C592.627 152.279 596.257 147.615 596.775 147.615C596.775 147.097 600.404 148.652 600.404 148.652H604.034L607.663 149.17H610.774L613.366 149.688L615.44 150.206L620.107 151.761H624.773C625.292 152.279 629.439 154.351 629.439 154.351H634.624L637.217 154.87L640.328 155.388L644.994 156.424H649.66L653.29 157.978H656.919L659.512 159.015H661.586H665.215L668.326 159.533L672.474 161.087L677.14 160.569L679.732 162.124H682.843L684.917 163.16L687.51 162.642L691.139 163.16L694.768 163.678L698.398 164.714L701.509 165.233L704.62 165.751L708.249 166.269L712.397 167.305L716.545 167.823L718.1 168.342C718.619 168.342 720.174 167.823 720.174 167.823L724.841 169.378L729.507 169.896L734.173 170.932H738.321H740.914L742.987 171.451L747.135 172.487C747.135 173.005 751.283 173.005 751.283 173.005H753.876L756.468 173.523L758.024 174.559L760.097 174.041L762.171 175.078L764.764 174.559L768.912 176.114H773.06L775.133 176.632L776.689 177.15L780.837 178.187H785.503L783.948 180.777L782.392 182.85L780.837 185.441L778.763 188.031L776.689 189.068L775.652 191.14L774.615 192.695L773.578 194.249L770.986 197.358L768.912 200.467L766.838 202.54L765.282 204.612L762.171 208.24L760.097 212.385L758.024 213.939L756.468 216.012L753.357 219.639L750.765 223.266C750.765 223.784 747.654 227.411 747.654 227.411L744.543 231.556L742.987 233.111L741.951 234.665L739.358 237.774L737.284 241.401L734.692 243.992L732.618 247.619L729.507 250.21L727.433 253.837L725.878 255.392L724.322 257.982C724.322 257.982 722.767 259.537 722.767 260.055C722.248 260.055 721.211 262.128 721.211 262.128L719.656 264.2L718.1 266.273L713.952 269.9L711.36 274.563L708.768 277.154L706.694 280.781L703.064 283.89L700.99 288.035C700.99 288.035 698.916 289.59 698.916 290.108L697.361 292.181L696.842 294.771L694.768 298.398L691.658 301.507L652.771 352.287C652.771 352.805 649.66 355.914 649.66 355.914L647.068 360.059L644.994 363.168L642.402 366.277L639.291 369.386L635.143 373.531L633.069 375.604L631.513 377.676L627.884 382.34L624.255 385.967L628.921 386.485H633.587H638.772H643.439L647.068 387.003L650.697 386.485L653.29 387.003L656.401 386.485H658.475H660.549H663.659H666.77L669.363 387.003L671.955 386.485L677.14 387.003L682.843 386.485L685.436 387.003L688.028 386.485H692.695H696.842H699.953H703.583L706.175 387.003L708.249 386.485L712.397 387.003L717.063 386.485H723.804L730.025 387.003C730.025 386.485 733.655 382.858 733.655 382.858L736.247 378.194L738.84 375.085C738.84 375.085 741.432 371.458 741.951 371.458L747.135 367.313L750.246 363.168L751.802 361.613L752.839 359.541L755.431 355.914L758.542 352.805L760.097 350.214L762.171 347.623L764.764 343.996L767.356 340.887L770.467 337.26L773.06 333.633L775.652 331.042L777.726 327.933L780.318 323.788L783.948 319.643C783.948 319.643 785.503 317.57 785.503 317.052L787.577 314.979L789.651 313.425L790.688 311.87C790.688 311.352 793.28 308.243 793.28 307.725L795.873 304.616L798.465 302.026C798.465 302.026 800.539 298.917 800.539 298.398L801.058 294.253C801.058 294.253 804.687 290.626 804.687 290.108L838.389 246.583L841.499 244.51L843.055 240.883L844.61 239.329L845.647 237.774L848.24 235.702L849.277 232.593L852.388 229.484L854.462 227.411L855.498 224.302C856.017 224.302 858.091 221.712 858.091 221.712L860.165 218.603L861.72 217.048L862.757 214.976L865.35 212.903L866.387 210.312L870.016 207.203L872.09 203.576L874.682 200.467L876.756 197.358L879.867 194.249L881.941 190.104L885.571 186.477L888.681 182.332L890.237 179.741L891.792 177.15L895.422 173.523C895.422 173.523 898.533 169.378 899.051 169.378L900.088 167.823L901.125 165.751L903.718 162.124L906.828 159.015L909.939 155.388L912.013 151.242L913.569 152.797C913.569 152.797 914.606 153.315 915.124 153.315L917.198 155.388L919.272 157.46L921.864 160.051L923.938 162.642L925.494 165.233L927.049 167.823L929.123 171.969L931.716 176.114L932.753 180.259L935.345 183.886L936.382 188.55L938.456 192.695L938.974 198.395L940.53 204.094L942.085 210.312L943.122 217.048L943.641 220.157L943.122 223.266L943.641 226.893V230.52L943.122 237.774V245.029C943.122 245.547 938.456 248.137 938.456 248.137L933.79 250.21L929.642 252.283L925.494 254.873L922.901 256.428L920.309 257.982L917.717 258.501L916.161 259.537L913.05 261.091L909.939 263.164L905.791 264.2L902.162 266.791L899.051 267.827L896.459 269.382L892.829 271.454C892.311 271.454 888.681 274.045 888.681 274.045L884.534 276.636L880.386 278.709L876.238 280.263L872.608 282.336C872.608 282.336 869.498 283.89 868.979 283.89L865.868 285.963L863.794 286.999L861.72 288.035L854.98 291.662C854.98 291.662 850.832 294.771 850.314 294.771L846.684 297.362L842.536 299.435C842.536 299.435 838.389 300.989 838.389 301.507L835.278 304.098L831.13 306.171C831.13 306.689 827.5 309.28 827.5 309.28C826.982 309.28 823.352 311.352 823.352 311.352L820.242 314.461L816.612 316.016L814.02 319.643L809.872 322.234C809.872 322.752 806.243 326.379 806.243 326.379L802.095 330.006L798.465 333.633L794.317 337.26L791.725 341.405L789.651 342.96L788.614 345.551L786.54 347.105L786.022 349.696L784.466 352.287C784.466 352.805 783.429 355.396 783.429 355.396L781.874 358.504L781.355 362.132V363.686V364.722V367.313L782.911 369.904L781.355 372.495L783.948 374.049L786.022 377.158C786.022 377.158 789.133 379.231 789.133 379.749L789.651 381.303L791.206 381.821L793.799 383.894L796.91 384.412L798.465 385.448L800.539 386.485L804.687 388.557L808.835 390.63L811.946 392.185L815.057 392.703L817.131 393.739L819.205 394.257L822.834 395.293C822.834 395.812 825.945 395.812 826.463 395.812L829.574 396.33L833.204 396.848L837.352 398.402L842.018 397.884L850.832 398.402L859.128 399.439L865.35 398.921H871.571H877.275L882.46 398.402L888.681 397.884L894.903 396.33L899.051 396.848L902.681 395.293L906.31 394.257L910.458 393.739L913.569 392.703L916.68 392.185L920.827 391.666L924.457 390.112H926.531L928.086 389.076L930.16 388.039L932.753 387.003L937.937 385.448C937.937 385.448 943.641 383.894 943.641 383.376L946.233 382.34L949.344 380.785L953.492 379.749C953.492 379.749 956.603 377.158 957.121 377.158L959.195 375.604L961.269 374.567L964.38 374.049L966.454 371.976L971.639 369.386L975.787 365.759L979.416 363.686L982.527 361.095L986.675 357.468L990.823 354.359L994.971 350.732L998.6 347.105L1001.71 343.996L1004.3 341.405C1004.82 341.405 1006.9 337.778 1006.9 337.778C1006.9 337.778 1010.01 335.187 1010.01 334.669L1014.67 330.006C1014.67 329.488 1017.27 325.343 1017.27 325.343C1017.27 324.824 1018.82 322.752 1018.82 322.752L1020.89 320.161L1022.97 316.016L1025.56 311.87L1027.64 309.798L1028.15 306.689L1030.75 302.026L1032.3 296.844L1033.86 292.699L1035.41 289.072V283.372L1036.97 278.19L1038 275.081V271.973L1039.56 266.273V260.573L1040.6 253.837L1041.63 247.101C1041.63 247.101 1045.26 245.547 1045.78 245.547L1048.89 242.956L1053.56 240.365L1057.71 237.774L1062.37 236.738L1066 233.629C1066.52 233.629 1071.19 231.038 1071.19 231.038L1076.37 228.448L1081.04 226.375L1084.67 223.784L1088.82 221.712L1092.45 219.121L1095.56 218.084C1096.08 218.084 1096.08 216.012 1096.08 216.012L1099.7 213.421C1100.22 213.421 1104.37 211.867 1104.37 211.867C1104.37 211.348 1106.44 210.312 1106.44 210.312L1109.04 209.276L1111.11 207.721L1113.19 206.685L1117.85 205.131L1121.48 202.022L1123.04 200.985L1125.11 199.949L1127.18 198.913C1127.18 198.913 1128.74 197.876 1129.26 197.876L1134.44 196.322C1134.44 195.804 1138.59 193.213 1138.59 193.213L1141.18 191.659L1143.26 190.104L1145.85 189.068C1145.85 189.068 1147.92 188.031 1147.92 187.513C1148.44 187.513 1152.59 185.959 1152.59 185.441C1152.59 185.441 1156.74 182.85 1157.26 182.85L1155.7 184.923L1155.18 186.477L1153.11 188.031L1152.07 190.622L1149.48 192.695L1147.92 195.286L1145.85 197.876L1144.29 200.467L1142.74 202.022L1141.7 203.576L1137.55 207.721L1134.44 212.903L1132.89 214.457L1131.33 216.53C1131.33 216.53 1129.78 218.603 1129.78 219.121L1128.22 220.675L1126.15 223.266L1124.07 225.857L1120.96 229.484L1117.85 234.147L1116.3 235.702L1114.74 237.774L1111.63 241.92C1111.63 241.92 1109.04 246.065 1108.52 246.065L1107.48 248.137L1105.93 250.21L1102.82 252.801L1101.26 256.428L1099.7 257.982L1098.67 259.537L1096.08 263.164V266.273L1094 268.864L1092.45 271.454L1090.37 273.009L1089.33 275.6L1047.86 331.56L1043.71 335.706L1040.08 340.369L1038 342.442C1038 342.442 1036.45 345.032 1036.45 345.551L1034.89 348.141L1032.3 350.214C1032.3 350.732 1029.19 354.359 1029.19 354.359L1026.08 358.504L1024.52 361.095C1024.52 361.613 1022.45 363.686 1022.45 363.686L1018.82 368.349L1015.71 373.013L1008.45 380.267L1003.78 387.003L1005.34 386.485H1007.93L1012.6 385.967L1018.82 385.448L1020.89 385.967H1023.49L1028.67 386.485L1033.86 385.967L1036.97 385.448H1039.56L1044.23 386.485H1048.89H1050.97H1053.04H1055.11H1057.19H1059.78H1061.86H1064.45H1067.04H1072.22H1077.41H1082.08H1086.74H1090.37H1094H1096.08H1098.15H1104.37L1110.59 385.448L1113.19 382.34L1116.3 378.712L1119.93 374.567L1170.22 305.653L1171.77 304.098L1172.29 302.026C1172.29 302.026 1175.4 298.917 1175.92 298.917L1178 295.29L1181.62 291.662L1182.66 286.999L1183.7 284.926L1185.25 283.372L1187.85 280.263C1188.37 280.263 1190.44 276.636 1190.96 276.636L1193.03 274.045L1195.11 270.936C1195.11 270.936 1198.22 267.309 1198.73 267.309C1198.73 267.309 1201.33 263.164 1201.33 262.646L1242.81 209.794C1242.81 209.794 1243.84 208.24 1243.84 207.721L1246.44 205.131C1246.44 205.131 1247.99 202.022 1248.51 202.022L1249.55 200.467L1251.1 198.913C1251.62 198.913 1253.69 196.322 1254.21 196.322L1255.77 193.213L1257.32 191.659L1258.36 189.586L1260.43 188.55L1260.95 185.959L1262.51 184.923L1263.55 182.85L1264.58 180.777L1266.66 179.223L1268.73 176.632L1270.8 173.523L1272.88 170.932C1272.88 170.414 1275.47 167.823 1275.47 167.823C1275.47 167.823 1277.03 166.787 1277.03 166.269L1277.54 164.196L1281.17 160.569L1284.28 156.424L1289.47 157.978L1294.65 159.015H1297.77L1301.39 160.051L1305.02 161.087L1309.17 162.124L1313.32 162.642L1317.47 163.16L1319.02 164.196H1321.1L1323.17 165.751L1325.24 165.233L1327.32 165.751H1329.39L1332.5 166.787C1333.02 167.305 1336.13 167.305 1336.13 167.305L1340.28 168.86L1344.95 169.378L1349.1 172.487L1354.8 174.559L1352.72 182.332L1352.21 189.586L1348.58 193.731L1345.98 197.876L1343.91 200.467L1341.84 203.058L1339.24 206.167L1336.65 209.794L1333.54 213.939L1330.43 218.084L1327.84 221.712C1327.84 221.712 1325.24 224.82 1325.24 225.339L1321.62 227.929L1320.06 231.556L1316.95 234.665C1316.95 234.665 1314.88 238.292 1314.36 238.292L1312.8 240.365L1311.76 242.438C1311.25 242.438 1308.65 246.065 1308.65 246.065C1308.65 246.065 1305.54 250.21 1263.03 305.134L1260.43 310.316C1260.43 310.316 1257.84 313.943 1257.32 313.943L1255.25 317.052L1252.14 319.643L1250.06 322.752L1248.51 325.343L1246.44 327.933L1244.36 331.042L1241.77 334.151L1242.29 338.296L1238.66 341.923C1238.66 342.442 1235.03 346.069 1235.03 346.069L1231.92 350.732L1228.81 353.323L1226.73 357.468L1224.66 360.059L1223.1 363.168L1222.07 364.722L1220.51 366.277L1219.99 369.386L1218.96 372.495V374.567V376.122C1218.96 376.64 1219.99 377.676 1219.99 377.676V379.231C1219.99 379.231 1220.51 380.267 1220.51 380.785L1222.07 381.303L1223.1 382.34L1224.14 383.376L1226.21 383.894L1227.77 384.93C1227.77 384.93 1231.92 387.003 1232.44 387.003L1237.1 387.521L1240.21 388.557L1243.32 389.076L1246.44 390.112H1249.55L1258.36 391.666H1267.69L1276.51 392.185L1285.32 391.666H1287.91H1290.51L1296.73 392.185H1302.95L1305.54 392.703L1309.69 391.148L1313.84 392.185L1317.47 391.666L1320.06 390.63L1323.17 391.148L1326.8 390.63H1330.95H1337.69L1344.43 390.112L1348.58 390.63C1349.1 390.63 1353.24 389.076 1353.24 389.076H1358.43L1363.61 388.039H1369.32L1375.02 387.521L1381.24 387.003L1387.46 386.485L1391.61 385.967L1395.24 385.448H1399.39L1403.54 384.412L1405.61 383.894L1407.17 383.376L1409.76 383.894L1411.83 382.858H1414.94L1418.05 382.34L1421.16 381.303H1423.76C1424.28 380.785 1428.42 381.303 1428.42 381.303L1433.61 380.267L1438.27 379.231L1442.94 378.712L1446.05 377.676L1449.68 377.158L1454.35 376.64L1459.53 375.604H1463.68L1467.31 373.531L1470.94 373.013L1474.57 371.976H1477.16L1479.23 370.94L1482.86 370.422L1486.49 369.386L1490.12 368.868L1493.75 367.831L1496.34 366.795L1499.46 366.277L1503.6 364.722L1507.75 364.204L1513.97 363.168C1513.97 363.168 1519.68 360.577 1520.19 360.577L1516.05 361.095H1511.38L1506.71 360.577L1502.05 361.613L1497.9 360.577L1493.23 361.613C1493.23 361.613 1490.64 360.577 1490.12 360.577L1487.53 361.613L1483.9 361.095L1480.27 361.613H1476.64H1472.49L1469.38 361.095L1466.79 361.613H1461.61H1456.94H1453.83H1450.2H1447.09H1443.98L1439.83 362.132H1435.68L1430.5 361.613H1425.31L1421.68 360.577L1417.54 361.613H1413.39L1408.72 361.095L1403.54 361.613H1398.35L1395.24 361.095H1392.65L1390.06 361.613H1387.98L1382.28 361.095L1377.09 362.132L1371.39 361.095L1365.69 362.132L1362.58 361.613H1359.46H1354.28L1348.58 362.132L1343.91 361.095L1339.24 359.541L1337.69 356.432C1337.69 356.432 1336.13 353.323 1336.13 352.805L1338.21 348.659L1339.76 344.514L1342.35 341.923L1344.43 338.815L1345.98 336.742L1344.43 334.151L1346.5 331.56L1348.58 329.488L1351.17 327.415L1352.72 324.306L1355.32 321.715L1356.87 318.607C1356.87 318.088 1359.46 316.016 1359.46 315.498L1361.54 312.907C1361.54 312.907 1365.17 309.28 1365.17 308.762C1365.69 308.762 1367.76 304.616 1367.76 304.616C1367.76 304.098 1370.35 301.507 1370.35 301.507L1372.43 298.398C1372.43 298.398 1373.46 296.844 1373.98 296.844L1375.02 294.771L1377.09 293.735L1377.61 291.662L1381.24 288.035L1384.35 283.372H1388.5L1392.13 282.854H1394.2H1396.28L1399.39 283.372L1403.02 282.336L1406.13 281.818H1409.24H1412.87H1416.5H1419.09L1425.31 281.299L1494.27 269.9L1499.46 268.864L1504.64 267.309L1507.23 268.345L1509.83 267.309H1512.42L1514.49 266.273H1518.12L1521.75 264.718H1524.34L1526.42 263.682L1529.53 263.164C1529.53 263.164 1532.12 262.128 1532.64 262.128L1536.27 261.609L1539.38 260.573L1545.6 259.537C1545.6 259.537 1550.79 256.946 1551.3 256.946H1555.45L1559.08 255.392L1561.67 254.873L1563.75 253.837H1566.34L1568.93 252.283L1573.6 251.765L1577.75 249.692L1581.89 248.656L1585.52 247.619L1587.6 247.101C1587.6 247.101 1589.15 246.065 1589.15 245.547H1592.26C1592.26 245.547 1594.34 244.51 1594.34 243.992L1597.45 243.474L1600.56 242.438L1604.71 240.883L1608.86 239.329H1606.26L1603.67 239.847L1601.08 239.329L1599 239.847L1595.38 239.329L1592.26 239.847L1589.67 239.329L1587.6 240.365L1583.45 239.847H1579.3L1575.67 238.811L1572.56 239.847L1568.41 239.329L1564.27 239.847L1559.6 240.365H1554.93H1551.82H1549.23H1545.6H1541.45H1539.38H1536.79H1531.08H1525.9H1520.19H1514.49H1509.83H1505.16H1499.46H1493.75H1491.68H1489.09L1485.97 239.329L1482.35 238.811L1480.27 238.292L1477.68 238.811L1472.49 238.292L1466.79 238.811H1461.61L1456.42 239.329L1449.16 238.811H1445.01L1440.87 240.365H1437.24L1435.68 239.329L1433.61 239.847L1431.02 239.329L1427.9 239.847L1424.28 238.811L1419.61 239.329L1421.16 237.774L1421.68 235.702L1423.76 233.111L1424.79 231.556C1424.79 231.038 1427.39 228.448 1427.39 228.448L1429.46 225.339L1433.09 221.712L1435.68 217.048L1438.27 214.457L1440.35 210.83L1442.94 208.24L1445.01 204.094L1447.09 202.54L1448.13 199.949L1449.68 197.876C1449.68 197.358 1451.76 195.286 1451.76 195.286L1456.42 193.213C1456.42 193.213 1457.98 191.659 1457.98 191.14L1460.05 189.586L1460.57 187.513L1464.2 184.404C1464.2 183.886 1466.79 180.259 1466.79 180.259L1468.86 177.15L1470.94 174.041L1474.05 172.487L1475.61 169.378L1476.64 167.823C1477.16 167.823 1477.68 165.751 1477.68 165.751L1481.31 162.124L1483.9 158.497C1483.9 158.497 1485.46 156.424 1485.46 155.906L1487.01 153.833L1490.12 150.206L1492.72 146.579L1497.38 147.615H1502.05L1504.12 148.134L1506.2 149.17L1508.27 150.206L1510.86 149.688L1515.01 150.724L1519.16 151.242L1522.79 151.761L1525.9 151.242L1529.53 151.761L1533.16 152.279L1537.3 152.797L1541.45 153.315L1544.56 153.833H1548.19L1552.86 154.351L1557.53 154.87L1559.6 155.388H1562.19L1565.82 156.424H1569.45L1574.12 157.46H1579.3L1583.97 157.978L1588.63 158.497L1593.3 159.533H1597.45L1600.56 160.569L1603.67 160.051C1603.67 160.569 1607.3 161.087 1607.3 161.087L1610.93 160.569L1615.08 161.087L1619.74 162.124C1619.74 162.124 1624.93 164.714 1625.45 164.714H1630.63L1635.3 165.233H1639.96L1643.08 166.269H1646.19L1648.26 167.305L1650.85 166.787L1655 168.342L1659.15 167.823L1664.33 168.342L1669 169.378L1672.11 169.896H1675.22L1679.37 170.932L1684.04 170.414L1689.22 171.969C1689.22 171.969 1694.41 171.451 1694.41 171.969L1691.81 175.596C1691.81 175.596 1688.7 178.705 1688.7 179.223L1686.63 182.85L1684.04 185.959C1684.04 186.477 1681.44 188.55 1681.44 188.55C1680.92 188.55 1679.37 191.14 1679.37 191.14L1676.78 194.767L1676.26 199.949L1672.63 204.094L1669.52 208.758L1667.96 210.312L1666.93 212.385L1663.81 216.53L1660.19 220.675L1657.07 224.302L1655 227.929L1653.45 229.484L1651.89 231.038L1650.33 232.593L1649.82 234.665C1649.3 234.665 1646.7 236.738 1646.7 236.738L1645.15 239.847L1643.59 241.401L1642.56 243.474L1641.52 245.029L1639.96 246.583C1639.45 246.583 1636.85 251.246 1636.34 251.246C1636.34 251.246 1633.22 255.392 1633.22 255.91L1631.15 257.982L1575.67 324.306L1571.52 327.933L1568.93 332.597L1566.34 334.669L1564.78 337.778L1563.23 339.333L1562.19 341.405L1559.6 345.032L1557.01 348.141L1552.86 352.287L1549.75 356.95L1548.71 359.023L1547.16 360.577L1543.53 364.722L1540.42 368.868C1540.42 369.386 1538.34 371.458 1538.34 371.458C1538.34 371.976 1536.27 374.567 1536.27 374.567C1536.27 374.567 1532.64 378.194 1532.64 378.712C1532.64 378.712 1529.53 382.858 1529.53 383.376L1527.97 384.412L1526.94 387.003L1523.82 389.594L1521.75 393.739L1519.16 395.812L1517.6 398.921L1514.49 402.029L1511.9 405.657L1509.83 408.247C1509.83 408.247 1508.27 410.838 1507.75 410.838L1504.64 413.947L1502.57 418.092L1499.97 421.719L1497.38 425.346L1493.75 428.974L1490.64 434.155L1488.05 436.228L1486.49 438.818L1484.42 441.409L1482.86 444.518L1479.75 447.627L1477.16 451.254L1474.57 454.881L1471.98 458.508L1468.35 462.654L1464.72 466.799L1461.09 470.944L1457.98 475.607L1456.94 477.162L1455.38 479.235L1452.79 482.343L1450.2 485.971L1448.13 488.561L1446.05 491.152L1443.98 494.261L1441.9 496.334C1441.9 496.852 1438.79 499.443 1438.79 499.443L1436.2 503.588L1434.13 507.215L1431.53 510.842L1427.9 514.987L1424.28 519.132L1427.39 519.651L1429.98 518.614L1434.13 519.132L1438.79 518.614L1441.39 519.651L1443.98 518.614L1447.61 519.132L1451.76 518.614H1454.35H1456.94H1462.12H1467.31L1472.49 519.132L1477.16 518.614H1479.23L1481.31 519.132H1485.97L1490.64 518.614H1494.79H1498.94H1503.6H1508.27H1510.34H1512.42H1514.49H1516.57H1519.16H1521.23H1525.9H1530.05C1530.05 518.614 1532.12 516.542 1532.12 516.024L1534.19 513.433L1537.3 509.288C1537.82 509.288 1540.93 504.624 1540.93 504.624C1540.93 504.624 1544.05 502.033 1544.05 501.515L1628.56 389.076L1634.78 384.412L1637.89 379.749L1639.45 378.194L1640.48 376.122L1642.56 373.531L1644.63 370.94L1646.19 369.386C1646.19 369.386 1647.22 367.831 1647.22 367.313L1649.3 364.722L1651.37 362.132C1651.37 362.132 1653.45 360.059 1653.96 360.059L1655 356.95C1655 356.95 1658.63 352.805 1658.63 352.287L1661.74 348.659L1666.41 345.032C1666.41 345.032 1669 340.369 1669 339.851C1669 339.851 1672.11 337.26 1672.11 336.742L1674.18 333.115L1676.26 332.079L1677.3 330.006L1679.89 326.379L1681.96 322.752L1683.52 321.197C1683.52 320.679 1685.07 319.643 1685.07 319.125C1685.07 319.125 1687.67 316.016 1687.67 315.498L1690.26 313.943L1692.85 310.316L1695.96 307.207L1697 305.134L1698.03 303.062L1700.11 302.026L1701.15 299.953L1703.74 296.326L1705.29 293.217L1708.4 290.108L1710.48 285.963L1713.07 282.854C1713.07 282.336 1715.66 279.227 1715.66 279.227L1719.29 274.045L1722.92 270.418L1726.55 266.273L1729.14 261.091L1731.22 260.055L1732.25 257.982L1735.37 254.873L1737.44 250.728L1739.51 248.137L1741.59 245.547L1744.7 242.438L1771.66 207.721L1772.7 205.649L1775.29 202.54C1775.29 202.022 1777.88 198.913 1777.88 198.913L1778.92 196.84L1780.47 195.286L1782.03 193.731C1782.03 193.731 1787.21 192.177 1787.21 191.659L1789.29 189.068L1790.84 186.477L1792.92 185.441C1792.92 184.923 1793.95 183.368 1793.95 183.368L1796.03 180.777L1798.1 177.668L1800.69 174.559L1803.29 170.932L1806.4 171.969H1809.51L1814.69 172.487L1819.88 173.523L1824.03 174.041L1829.21 174.559L1833.36 175.596L1837.51 176.114L1843.21 177.15L1849.43 178.187L1854.62 179.741L1859.28 181.295L1864.47 183.368L1870.17 184.404L1873.28 185.441L1876.39 186.995L1877.95 188.031H1879.5L1882.1 189.586L1885.21 191.14L1887.28 192.695L1888.84 194.767L1890.39 195.286L1891.43 196.84L1892.47 197.876L1892.98 199.431V200.985L1894.54 202.022L1894.02 204.612L1894.54 206.685L1892.98 209.276L1893.5 212.385L1892.47 213.939L1891.43 215.494L1889.87 216.53L1889.36 218.603L1887.8 220.157C1887.8 220.675 1886.76 222.748 1886.76 222.748L1883.65 225.857L1881.06 228.966L1877.95 230.52C1877.95 230.52 1875.87 233.111 1875.87 233.629L1871.21 236.22L1867.58 240.365L1864.47 241.92L1861.88 245.029L1855.65 249.174C1855.65 249.174 1849.43 253.319 1848.91 253.319L1843.21 256.946L1837.51 261.609L1821.95 271.454L1806.4 280.781L1803.29 282.854L1799.66 285.445L1795.51 287.517C1795.51 288.035 1791.88 290.108 1791.88 290.108C1791.36 290.108 1787.21 291.662 1787.21 291.662L1780.47 294.771L1777.88 295.808L1775.81 297.362L1772.7 298.398L1717.74 332.079ZM838.907 363.168V360.577C838.907 360.577 839.944 358.504 839.944 357.986L842.018 356.432L842.536 353.323L843.573 352.287L844.61 350.732L846.684 348.659L848.24 346.069L849.277 344.514L850.832 343.478C850.832 342.96 853.943 340.887 853.943 340.887L856.017 338.296L858.091 336.742L860.165 334.151L864.313 330.524L868.979 326.897L873.645 323.788L877.275 320.161L882.978 316.534L888.163 312.907C888.163 312.907 890.237 311.352 890.237 310.834L892.311 309.28H894.903L896.977 307.207C896.977 307.207 900.088 306.171 900.088 305.653L902.681 303.062C902.681 303.062 908.384 300.471 908.902 300.471L914.087 296.326L917.198 295.808L917.717 293.217C917.717 293.217 922.901 291.662 922.901 291.144L927.049 288.035L932.234 286.481C932.753 286.481 937.419 282.854 937.419 282.854V285.963C937.419 285.963 936.382 288.035 936.382 288.554L934.308 292.699L933.79 297.88L932.234 304.098L930.679 310.316C930.16 310.316 928.605 315.498 928.605 315.498C928.605 315.498 927.049 321.197 926.531 321.197L923.938 325.861L921.864 331.042L922.901 334.151L921.346 337.26L918.754 341.405C918.235 341.405 916.161 346.069 916.161 346.069L913.05 349.696L910.976 353.841C910.976 354.359 908.384 355.914 908.384 355.914L906.828 359.023C906.828 359.023 904.236 361.613 904.236 362.132C903.718 362.132 901.125 364.722 901.125 364.722L898.533 367.313L895.422 369.386L890.237 371.976L886.089 374.049L884.015 375.604L881.423 376.64L879.867 377.158L878.312 378.194H874.682L871.053 380.267L865.35 380.785L859.646 381.303L855.498 380.785L850.832 380.267L846.684 377.676L842.018 376.122V369.386L838.907 363.168ZM2417.69 347.105H2416.14L2414.58 346.587H2414.06L2413.02 345.551L2413.54 343.996L2411.99 343.478L2413.54 342.442L2413.02 340.887L2413.54 339.851L2414.06 338.815V336.742L2415.62 335.187L2417.17 332.597L2418.73 330.006L2421.32 327.933L2422.36 322.752L2424.95 320.161L2427.02 317.57L2428.06 315.498L2429.62 313.943L2431.17 312.907L2431.69 311.352L2435.32 308.243C2435.84 308.243 2438.43 304.098 2438.43 304.098L2441.02 303.062L2442.58 300.471L2447.24 296.844L2451.39 291.662L2455.54 287.517L2459.69 283.372L2464.87 279.745L2469.02 274.563L2472.13 271.973L2475.24 269.382L2479.39 265.237L2484.06 261.609L2487.69 259.019L2490.28 255.91C2490.28 255.392 2494.94 251.765 2494.94 251.765C2494.94 251.765 2500.13 248.656 2500.13 248.137L2505.83 242.956L2512.05 238.292L2514.65 236.738L2516.2 234.665C2516.72 234.665 2522.42 231.038 2522.42 230.52L2528.13 226.375L2534.35 221.712L2540.57 216.53L2544.2 215.494C2544.2 215.494 2546.79 212.903 2546.79 212.385H2550.42L2554.05 209.794L2560.79 205.649L2567.01 200.985L2569.09 199.431L2571.16 198.395L2575.83 194.767L2581.01 191.659L2590.86 186.477L2600.72 180.259L2597.6 185.441C2597.6 185.959 2595.01 191.14 2595.01 191.14L2593.46 194.249L2591.9 197.358L2588.79 202.54L2586.72 208.758L2584.64 212.385L2583.61 216.53L2582.05 220.675L2581.01 225.339L2579.46 228.448L2578.94 232.075L2577.9 236.738V241.401L2577.38 242.956V245.029L2576.35 246.583L2576.87 248.656L2576.35 250.728L2576.87 252.801L2576.35 254.873L2577.38 256.428L2576.87 259.019L2578.42 261.609L2577.9 263.164L2578.42 264.718C2578.42 264.718 2580.49 269.382 2580.49 269.9L2582.57 274.563L2581.01 275.6C2580.49 275.6 2579.46 277.154 2579.46 277.154L2577.9 278.19C2577.9 278.19 2576.87 279.745 2576.87 280.263L2574.79 280.781L2573.75 281.818L2571.16 283.372L2568.57 285.445L2567.01 286.481L2564.94 287.517L2562.35 288.554L2560.27 290.626L2555.61 293.217L2551.46 295.808L2546.79 295.29L2543.16 298.398L2538.5 300.989L2533.83 303.58L2530.2 304.616L2527.61 307.207L2523.98 308.243L2520.87 310.316L2516.2 311.87L2512.05 314.979L2506.87 317.57L2501.68 320.161L2497.54 321.197C2497.54 321.197 2494.94 323.788 2494.43 323.788L2488.2 325.343L2482.5 328.451C2482.5 328.451 2478.35 330.524 2477.83 330.524L2473.69 332.079L2469.02 333.633L2464.35 335.187H2461.76L2459.69 337.26L2453.98 338.296L2448.28 340.369L2442.06 341.405L2436.36 343.478H2433.25L2430.13 344.514L2423.91 343.996L2417.69 347.105Z" fill="#262626"/>
</svg>
