<svg width="1047" height="346" viewBox="0 0 1047 346" fill="none" xmlns="http://www.w3.org/2000/svg">
<path d="M918.249 70.5569L862.204 155.626C837.684 192.657 846.691 222.681 887.224 222.681C950.276 222.681 1020.83 156.628 1044.85 134.609C1048.36 131.606 1046.35 130.105 1043.35 132.608C1015.83 155.126 951.276 203.665 906.24 203.665C881.72 203.665 880.719 184.15 907.741 142.616L956.781 68.0542C1001.82 -0.50176 938.767 5.00358 863.705 57.5462C859.201 61.0489 857.2 58.0462 859.701 50.5409C862.704 41.5329 859.701 37.0289 848.192 37.0289C835.681 37.0289 821.671 48.5396 800.153 81.0649L710.58 217.177C706.076 223.682 709.579 228.686 717.085 228.686H724.591C735.1 228.686 742.605 224.682 748.611 216.176L808.66 128.605C867.708 42.0342 951.777 20.0156 918.249 70.5569ZM522.427 268.218C604.993 268.218 869.709 58.5476 750.112 58.5476C608.997 58.5476 448.867 268.218 522.427 268.218ZM563.46 241.697C511.917 241.697 662.541 69.5556 733.099 69.5556C779.136 69.5556 606.495 241.697 563.46 241.697ZM328.768 288.234C411.336 288.234 676.052 78.5636 556.453 78.5636C415.339 78.5636 255.208 288.234 328.768 288.234ZM366.799 261.713C315.257 261.713 465.88 89.5729 536.437 89.5729C582.475 89.5729 409.835 261.713 366.799 261.713ZM437.357 -0.000426981C278.727 -0.000426981 175.143 117.096 215.676 164.634L239.195 192.156C249.704 204.666 258.211 219.678 258.211 239.696C258.211 266.217 201.664 329.268 87.0707 329.268C41.0334 329.268 25.02 319.26 33.5267 271.221C19.0147 291.737 0 322.262 0 330.769C0 339.777 18.0147 345.782 42.5347 345.782C230.188 345.782 350.787 233.19 306.751 178.645L265.716 127.604C223.683 75.0609 336.775 23.0182 380.311 23.0182C416.34 23.0182 423.345 40.5329 422.344 58.0462C438.357 42.5342 474.387 -0.000426981 437.357 -0.000426981Z" fill="#262626"/>
</svg>
