<svg width="2694" height="709" viewBox="0 0 2694 709" fill="none" xmlns="http://www.w3.org/2000/svg">
<path d="M1142.52 50.6429V658.357C1142.52 671.342 1150.31 679.134 1163.29 679.134H1332.07C1345.05 679.134 1352.84 671.342 1352.84 658.357V610.311C1352.84 603.819 1356.74 602.52 1361.93 606.416L1429.44 671.342C1435.93 677.835 1441.13 679.134 1448.92 679.134H1698.19C1711.18 679.134 1715.07 668.745 1705.98 659.656L1408.67 359.694C1406.07 357.097 1406.07 351.903 1408.67 349.306L1705.98 49.3443C1715.07 40.2546 1711.18 29.8663 1698.19 29.8663H1448.92C1441.13 29.8663 1435.93 31.1648 1429.44 37.6575L1361.93 102.584C1356.74 106.48 1352.84 105.181 1352.84 98.6886V50.6429C1352.84 37.6575 1345.05 29.8663 1332.07 29.8663H1163.29C1150.31 29.8663 1142.52 37.6575 1142.52 50.6429ZM777.69 0H20.773C7.78988 0 0 7.79121 0 20.7766V211.661C0 224.647 7.78988 232.438 20.773 232.438H114.252C148.008 232.438 179.167 263.603 179.167 297.364V658.357C179.167 671.342 186.957 679.134 199.94 679.134H390.792C403.775 679.134 411.565 671.342 411.565 658.357V353.201C411.565 305.156 411.565 250.617 411.565 223.348C411.565 214.258 416.759 210.363 424.548 210.363H441.427C446.62 210.363 450.515 214.258 447.918 219.452C431.04 261.005 421.952 306.454 421.952 353.201C421.952 547.982 577.749 679.134 769.9 679.134H1008.79C1021.77 679.134 1029.56 671.342 1029.56 658.357V503.831C1029.56 490.846 1021.77 483.055 1008.79 483.055H769.9C701.089 483.055 654.35 422.024 654.35 357.097C654.35 289.573 710.177 232.438 777.69 232.438C859.483 232.438 912.714 318.141 847.799 318.141H806.253C793.269 318.141 785.48 325.932 785.48 338.918V451.89C785.48 464.875 790.673 472.667 803.656 472.667H1056.83C1104.86 472.667 1132.13 445.397 1132.13 397.352V353.201C1132.13 158.421 972.437 0 777.69 0ZM1917.61 0H2125.34C2138.32 0 2146.11 7.79121 2146.11 20.7766V211.661C2146.11 224.647 2138.32 232.438 2125.34 232.438H1917.61C1850.1 232.438 1794.27 286.976 1794.27 354.5C1794.27 422.024 1850.1 476.562 1917.61 476.562C1983.82 476.562 2039.65 422.024 2039.65 354.5V309.051C2039.65 296.066 2047.44 288.275 2060.42 288.275H2251.28C2264.26 288.275 2272.05 296.066 2272.05 309.051V354.5C2272.05 550.579 2112.36 709 1917.61 709C1721.56 709 1561.87 550.579 1561.87 353.201C1561.87 158.421 1718.97 0 1917.61 0ZM2579.75 232.438H2673.23C2686.21 232.438 2694 224.647 2694 211.661V20.7766C2694 7.79121 2686.21 0 2673.23 0H2177.27C2164.29 0 2156.5 7.79121 2156.5 20.7766V211.661C2156.5 224.647 2164.29 232.438 2177.27 232.438H2217.52C2259.07 232.438 2282.43 254.513 2282.43 297.364C2282.43 314.245 2282.43 333.723 2282.43 353.201V658.357C2282.43 671.342 2290.22 679.134 2303.21 679.134H2494.06C2507.04 679.134 2514.83 671.342 2514.83 658.357V297.364C2514.83 262.304 2544.69 232.438 2579.75 232.438Z" fill="#262626"/>
</svg>
