<svg width="1506" height="219" viewBox="0 0 1506 219" fill="none" xmlns="http://www.w3.org/2000/svg">
<path d="M1039.8 67.8451L1067.33 37.3198C1069.33 35.3184 1071.83 33.8171 1074.83 33.8171H1115.36C1120.37 33.8171 1122.37 37.3198 1118.87 41.3238L1097.85 64.3424C1095.85 66.3438 1093.35 67.8451 1090.34 67.8451H1039.8ZM693.021 122.389L771.585 36.8198C773.586 34.8184 776.089 33.8171 779.09 33.8171H807.114C812.118 33.8171 814.119 37.3198 810.617 41.3238L740.56 118.886C738.558 120.889 736.056 122.389 733.053 122.389H693.021ZM248.661 59.8384H166.593C161.589 59.8384 159.588 56.3358 162.59 52.3331L174.6 37.3198C176.601 34.8184 179.104 33.8171 182.106 33.8171H397.282L306.208 134.9C296.2 145.909 300.702 155.917 315.214 155.917H571.421C576.425 155.917 577.926 159.92 574.424 163.424L530.888 210.962C527.385 214.465 528.886 218.468 533.89 218.468H604.949L653.989 164.924C659.994 158.418 666.498 155.917 675.006 155.917H1246.97C1249.98 155.917 1251.98 155.417 1254.48 152.914L1375.08 33.8171H1404.6C1409.61 33.8171 1411.11 37.8211 1407.6 41.3238L1380.08 68.8464C1376.58 72.3491 1378.08 76.3518 1383.08 76.3518H1439.63C1442.63 76.3518 1445.13 75.3518 1447.14 73.3491L1499.18 21.3078C1509.69 10.7985 1505.68 0.290459 1490.67 0.290459H1333.04C1330.04 0.290459 1328.04 0.790437 1325.54 3.2931L1206.44 119.388C1203.94 121.889 1201.94 122.389 1198.93 122.389H1000.77C995.768 122.389 993.766 118.886 997.269 114.884L1006.28 104.876C1008.28 102.873 1010.78 101.373 1013.78 101.373H1131.38C1134.38 101.373 1136.88 99.8718 1138.88 97.8691L1208.44 21.3078C1218.45 10.2985 1213.95 0.290459 1199.43 0.290459H1024.29C1021.29 0.290459 1018.79 1.79177 1016.78 3.7931L912.699 118.886C910.698 120.889 908.197 122.389 905.194 122.389H818.623L909.697 21.3078C919.706 10.2985 915.202 0.290459 900.69 0.290459H728.55C725.548 0.290459 723.045 1.29044 721.043 3.2931L614.957 119.388C612.955 121.389 610.453 122.389 607.45 122.389H538.394C533.39 122.389 531.389 118.886 534.892 114.884L619.461 21.3078C629.469 10.2985 624.965 0.290459 610.453 0.290459H561.914C558.912 0.290459 556.409 1.79177 554.408 3.7931L456.28 112.882C450.276 119.388 443.769 122.389 435.262 122.389H409.241C404.237 122.389 402.236 118.886 405.738 114.884L490.308 21.3078C500.316 10.2985 495.812 0.290459 481.3 0.290459H136.018C127.012 0.290459 120.506 2.79179 115.001 10.2985L66.4622 72.3491C57.9542 83.3584 62.9582 93.3664 76.9702 93.3664H159.538C164.542 93.3664 166.042 96.8691 163.041 100.872L149.029 118.886C147.028 121.389 144.525 122.389 141.522 122.389H28.9302C25.9289 122.389 23.4262 123.89 21.4249 125.893L1.90886 148.41C-1.5938 152.414 -0.0924514 155.917 4.91155 155.917H197.068C200.07 155.917 202.573 154.916 204.574 152.414L259.118 80.8558C267.626 69.3464 263.122 59.8384 249.11 59.8384H248.661Z" fill="#262626"/>
</svg>
