<svg width="1656" height="238" viewBox="0 0 1656 238" fill="none" xmlns="http://www.w3.org/2000/svg">
<path d="M1399.6 159.324C1400.42 133.179 1445.35 98.0458 1477.22 98.0458C1484.57 98.0458 1487.84 99.6799 1487.84 105.399C1487.84 125.825 1423.29 161.775 1399.6 159.324ZM382.378 159.324C383.195 133.179 428.132 98.0458 459.997 98.0458C467.351 98.0458 470.619 99.6799 470.619 105.399C470.619 125.825 406.072 161.775 382.378 159.324ZM58.8273 160.958C58.8273 140.532 84.9728 116.838 126.642 116.838C151.971 116.838 190.372 128.277 213.249 139.715L204.262 173.214C170.763 185.47 128.276 196.908 105.399 196.908C66.1808 196.908 58.8273 175.665 58.8273 160.958ZM242.663 27.7798L223.054 101.314C200.993 92.3265 154.422 77.6196 114.386 77.6196C49.0228 77.6196 0 115.204 0 161.775C0 210.798 42.4864 237.761 89.0581 237.761C119.289 237.761 162.592 227.139 193.64 215.7L191.189 221.42C187.921 228.773 192.006 232.858 199.359 232.858C239.395 231.224 309.661 230.407 368.488 214.883C418.328 223.871 478.789 224.688 499.215 224.688H697.758C719.818 224.688 741.878 223.871 754.951 219.786C761.487 228.773 772.926 232.041 787.633 232.041C815.412 232.041 870.971 207.53 908.556 193.64C903.653 212.432 910.19 224.688 928.165 224.688H1022.94C1037.65 224.688 1060.53 221.42 1085.85 208.347L1149.58 174.848C1150.4 174.848 1152.04 174.031 1152.04 174.848L1170.01 199.36C1182.27 216.518 1197.79 224.688 1219.03 224.688H1306.46C1336.69 224.688 1362.02 218.969 1381.63 212.432C1406.14 222.237 1439.64 224.688 1469.05 224.688H1651.25C1652.88 224.688 1654.52 223.054 1654.52 221.42L1655.34 188.738C1655.34 187.104 1653.7 185.47 1652.07 185.47H1509.9C1488.66 185.47 1476.4 184.653 1446.17 181.385C1482.94 174.848 1552.39 133.179 1552.39 100.497C1552.39 67.8151 1518.89 58.8276 1489.48 58.8276C1409.4 59.6446 1341.59 120.923 1341.59 161.775C1341.59 169.129 1343.22 175.665 1345.68 181.385C1334.24 183.836 1321.98 185.47 1308.09 185.47H1223.12C1219.85 185.47 1216.58 183.836 1214.95 181.385L1193.7 153.605C1192.89 152.788 1193.7 151.971 1194.52 151.154L1305.64 93.1435C1306.46 92.3265 1306.46 92.3265 1307.27 92.3265H1324.43C1326.07 92.3265 1327.7 90.6924 1327.7 89.0583V69.4492C1327.7 67.8151 1326.07 66.181 1324.43 66.181H1206.78C1205.14 66.181 1203.51 67.8151 1203.51 69.4492V89.0583C1203.51 90.6924 1205.14 92.3265 1206.78 92.3265H1223.12C1224.75 92.3265 1223.94 93.1435 1223.12 93.9606L1170.83 120.106C1170.01 120.106 1168.38 120.923 1168.38 120.106L1148.77 93.9606C1147.95 92.3265 1148.77 92.3265 1149.58 92.3265H1163.47C1165.11 92.3265 1166.74 90.6924 1166.74 89.0583V69.4492C1166.74 67.8151 1165.11 66.181 1163.47 66.181H1083.4C1081.77 66.181 1080.14 67.8151 1080.14 69.4492V89.0583C1080.14 90.6924 1081.77 92.3265 1083.4 92.3265H1090.76C1091.57 92.3265 1093.21 92.3265 1093.21 93.1435L1126.71 139.715C1127.52 140.532 1126.71 141.349 1125.89 142.166L1074.42 167.495C1048.27 180.567 1018.86 185.47 1006.6 185.47H955.944L979.639 93.9606C979.639 92.3265 980.456 92.3265 981.273 92.3265H1006.6C1008.24 92.3265 1009.87 90.6924 1009.87 89.0583V69.4492C1009.87 67.8151 1008.24 66.181 1006.6 66.181H916.726C915.092 66.181 913.458 67.8151 913.458 69.4492V89.0583C913.458 90.6924 915.092 92.3265 916.726 92.3265H928.165C928.982 92.3265 928.982 92.3265 928.982 93.9606L915.909 146.252C915.092 150.337 913.458 151.971 910.19 152.788L820.315 183.019C809.693 186.287 801.522 178.933 803.974 168.312L823.583 93.9606C823.583 92.3265 824.4 92.3265 825.217 92.3265H844.009C845.643 92.3265 847.277 90.6924 847.277 89.0583V69.4492C847.277 67.8151 845.643 66.181 844.009 66.181H757.402C755.768 66.181 754.134 67.8151 754.134 69.4492V89.0583C754.134 90.6924 755.768 92.3265 757.402 92.3265H772.109C772.926 92.3265 772.926 92.3265 772.926 93.9606L757.402 160.958C749.231 180.567 725.537 185.47 697.758 185.47H638.113C637.296 185.47 637.296 185.47 637.296 183.836L682.234 3.26842C683.051 1.63433 680.6 0.000238657 678.966 0.000238657H596.444C594.81 0.000238657 593.176 1.63433 593.176 3.26842L591.542 22.8775C591.542 24.5116 593.176 26.1457 594.81 26.1457H626.675L586.639 183.019C586.639 184.653 585.822 184.653 585.005 184.653H509.837C488.594 184.653 459.18 183.836 428.949 181.385C465.716 174.848 535.165 133.179 535.165 100.497C535.165 67.8151 501.666 58.8276 472.253 58.8276C392.182 59.6446 324.367 120.923 324.367 161.775C324.367 169.129 326.001 174.031 328.453 178.933C301.49 187.104 278.613 189.555 252.467 191.189C251.65 191.189 251.65 191.189 251.65 189.555L299.039 3.26842C299.856 1.63433 297.405 0.000238657 295.771 0.000238657H214.883C213.249 0.000238657 211.615 0.817285 211.615 3.26842L209.164 22.8775C209.164 24.5116 209.981 26.1457 211.615 26.1457H241.846C242.663 26.1457 242.663 26.1457 242.663 27.7798Z" fill="#262626"/>
</svg>
