<svg width="1920" height="1920" viewBox="0 0 1920 1920" fill="none" xmlns="http://www.w3.org/2000/svg">
<rect width="1920" height="1920" fill="black"/>
<path d="M58.9955 93.6214H72.0205V106.646H58.9955V93.6214ZM125.449 128.996V71.2717H131.961V128.996H125.449ZM131.961 90.5132L141.582 80.8924L131.961 71.2717H138.4L143.506 78.9683L151.203 71.2717L144.838 80.8924L151.203 90.5132L143.506 82.8166L138.474 90.5132L157.641 128.996L131.961 90.5132ZM184.52 128.996V90.5132H191.032V128.996H184.52ZM158.766 128.996V90.5132H165.278V128.996H158.766ZM165.278 128.996L184.52 109.681L171.717 128.996H165.278ZM217.886 128.996H211.373V90.5132H217.886V128.996ZM192.132 109.681L211.373 128.996H204.861L192.132 109.681ZM217.886 90.5132H224.398L237.127 109.829L217.886 90.5132ZM249.541 128.996H243.028V90.5132H249.541V128.996ZM223.787 109.681L243.028 128.996H236.516L223.787 109.681ZM249.541 90.5132H256.053L268.782 109.829L249.541 90.5132ZM301.314 103.39L284.293 128.996H275.708L294.95 109.755L288.511 103.39L285.329 109.755H275.708L285.329 100.134L275.708 90.5132H282.221L287.253 98.2098L294.95 90.5132L289.474 101.466L294.95 109.755L301.314 103.39ZM269.196 128.996V90.5132H275.708V128.996H269.196ZM303.655 128.996V90.5132L322.897 71.1977L310.168 90.5132V128.996L290.926 148.312L303.655 128.996ZM325.12 128.996V90.5132L344.361 71.1977L331.632 90.5132V128.996L312.391 148.312L325.12 128.996ZM347.401 119.375V128.996L328.16 148.312L340.889 128.996V119.375H347.401ZM400.228 71.2717V128.996H393.715V71.2717H400.228ZM374.4 90.5132L393.715 128.996H387.277L374.4 90.5132ZM441.231 103.39L424.21 128.996H415.625L434.867 109.755L428.428 103.39L425.246 109.755H415.625L425.246 100.134L415.625 90.5132H422.138L427.17 98.2098L434.867 90.5132L429.39 101.466L434.867 109.755L441.231 103.39ZM409.113 128.996V90.5132H415.625V128.996H409.113ZM442.358 90.5132L467.964 52.0302L448.87 90.5132V128.996H442.358V90.5132ZM448.87 109.755L474.476 84.1487L457.455 109.755H448.87ZM474.085 90.5132L499.691 52.0302L480.597 90.5132V128.996H474.085V90.5132ZM480.597 109.755L506.203 84.1487L489.182 109.755H480.597ZM504.366 90.5132H510.879V128.996H504.366V90.5132ZM510.879 90.5132L530.12 71.2717L520.499 90.5132H510.879ZM559.973 103.39L542.951 128.996H534.367L553.608 109.755L547.17 103.39L543.988 109.755H534.367L543.988 100.134L534.367 90.5132H540.879L545.912 98.2098L553.608 90.5132L548.132 101.466L553.608 109.755L559.973 103.39ZM527.854 128.996V90.5132H534.367V128.996H527.854ZM562.248 90.5132H568.761V128.996H562.248V90.5132ZM555.958 167.479L568.761 128.996H575.273L555.958 167.479ZM568.761 128.996L581.564 90.5132H588.076L568.761 128.996ZM626.231 128.996H619.719L632.522 109.755L619.719 90.5132L629.34 80.8924L619.719 71.2717H626.157L631.264 78.9683L638.96 71.2717L632.596 80.8924L638.96 90.5132L631.264 82.8166L626.231 90.5132L634.372 106.942L645.325 90.5132L635.778 109.681L645.399 128.996L634.372 112.493L626.231 128.996ZM613.206 128.996V71.2717H619.719V128.996H613.206ZM675.963 128.996V90.5132H682.476V128.996H675.963ZM650.209 128.996V90.5132H656.722V128.996H650.209ZM656.722 128.996L675.963 109.681L663.16 128.996H656.722ZM691.332 90.5132H697.844V128.996H691.332V90.5132ZM697.844 90.5132L717.086 71.2717L707.465 90.5132H697.844ZM724.544 90.5132L711.667 52.0302L731.056 90.5132V128.996H724.544V90.5132ZM731.056 128.996L756.662 103.39L739.641 128.996H731.056ZM731.056 109.755L750.298 90.5132L740.677 109.755H731.056ZM763.781 109.755L776.288 128.478L788.721 109.755L776.288 91.0312L763.781 109.755ZM755.196 109.755L775.326 89.6251L771.625 84.0747L776.288 88.663L780.876 84.0747L777.176 89.6251L797.305 109.755L777.176 129.884L780.876 135.435L776.288 130.772L771.625 135.435L775.326 129.884L755.196 109.755ZM807.19 90.5132V128.996H800.678V90.5132H807.19ZM807.19 109.829L819.993 90.5132H826.432L807.19 109.829ZM826.432 128.996V90.5132H832.944V128.996H826.432ZM862.507 109.829V90.5132L881.823 52.0302L869.02 90.5132V109.829L881.823 148.312L862.507 109.829ZM893.325 71.2717L874.01 109.755L886.813 71.2717H893.325ZM893.325 128.996V71.2717H899.838V128.996H893.325ZM929.35 128.996H922.838V71.2717H929.35V128.996ZM903.522 90.5132L922.838 128.996H916.325L903.522 90.5132ZM903.596 90.5132L909.961 80.8924L903.596 71.2717L911.293 78.9683L916.399 71.2717H922.838L913.217 80.8924L922.838 90.5872H916.399L911.293 82.8166L903.596 90.5132ZM934.527 128.996L940.965 109.755L934.527 90.5132L942.297 105.906L947.404 90.5132L942.297 82.8166L934.675 90.5132L941.039 80.8924L934.675 71.2717L942.297 78.8943L947.404 71.1977H953.916L944.295 80.8924L953.916 90.5132L944.221 109.755L953.916 128.996H947.404L942.297 113.603L934.527 128.996ZM953.916 128.996L963.611 109.755L953.916 90.5132L963.537 80.8924L953.916 71.1977H960.429L965.535 78.8943L973.158 71.2717L966.793 80.8924L973.158 90.5132L965.535 82.8166L960.429 90.5132L965.535 105.906L973.306 90.5132L966.867 109.755L973.306 128.996L965.535 113.603L960.429 128.996H953.916ZM979.26 71.2717H985.772V128.996H979.26V71.2717ZM985.772 128.996L995.393 119.375L985.772 109.681H992.211L997.317 117.451L1005.01 109.755L998.649 119.375L1005.01 128.996L997.317 121.3L992.211 128.996H985.772ZM985.772 71.2717H992.285L1005.09 109.755L985.772 71.2717ZM1019.22 109.829L999.9 148.312L1012.7 109.829V90.5132L999.9 52.0302L1019.22 90.5132V109.829ZM1033.11 119.375V128.996H1026.6V119.375H1033.11ZM1102.81 71.2717H1109.32V128.996H1102.81V71.2717ZM1064.18 128.996V71.2717H1070.69V128.996H1064.18ZM1070.69 71.2717L1086.75 103.242L1102.81 71.2717L1090.01 109.755H1083.49L1070.69 71.2717ZM1150.36 103.39L1133.33 128.996H1124.75L1143.99 109.755L1137.55 103.39L1134.37 109.755H1124.75L1134.37 100.134L1124.75 90.5132H1131.26L1136.29 98.2098L1143.99 90.5132L1138.51 101.466L1143.99 109.755L1150.36 103.39ZM1118.24 128.996V90.5132H1124.75V128.996H1118.24ZM1152.2 90.5132H1158.72V128.996L1171.52 167.479L1152.2 128.996V90.5132ZM1158.72 128.996L1168.26 109.755L1158.72 90.5132L1177.96 109.755L1158.72 128.996ZM1182.41 90.5132L1201.73 52.0302L1188.93 90.5132V128.996H1182.41V90.5132ZM1188.93 109.829L1201.73 90.5132H1208.17L1188.93 109.829ZM1208.17 128.996V90.5132H1214.68V128.996H1208.17ZM1230.4 128.996V90.5132H1236.91V128.996H1230.4ZM1217.6 109.755L1230.47 71.2717H1236.98L1217.6 109.755ZM1263.14 128.996H1256.63V90.5132H1263.14V128.996ZM1237.39 109.681L1256.63 128.996H1250.12L1237.39 109.681ZM1263.14 90.5132H1269.66L1282.38 109.829L1263.14 90.5132ZM1284.93 90.5132L1272.06 52.0302L1291.45 90.5132V128.996H1284.93V90.5132ZM1291.45 128.996L1317.05 103.39L1300.03 128.996H1291.45ZM1291.45 109.755L1310.69 90.5132L1301.07 109.755H1291.45ZM1324.17 109.755L1336.68 128.478L1349.11 109.755L1336.68 91.0312L1324.17 109.755ZM1315.59 109.755L1335.72 89.6251L1332.02 84.0747L1336.68 88.663L1341.27 84.0747L1337.57 89.6251L1357.7 109.755L1337.57 129.884L1341.27 135.435L1336.68 130.772L1332.02 135.435L1335.72 129.884L1315.59 109.755ZM1361.07 90.5132H1367.58V128.996L1380.38 167.479L1361.07 128.996V90.5132ZM1367.58 128.996L1377.13 109.755L1367.58 90.5132L1386.82 109.755L1367.58 128.996ZM1391.28 90.5132L1410.59 52.0302L1397.79 90.5132V128.996H1391.28V90.5132ZM1397.79 109.829L1410.59 90.5132H1417.03L1397.79 109.829ZM1417.03 128.996V90.5132H1423.54V128.996H1417.03ZM1464.52 103.39L1447.5 128.996H1438.91L1458.15 109.755L1451.71 103.39L1448.53 109.755H1438.91L1448.53 100.134L1438.91 90.5132H1445.42L1450.46 98.2098L1458.15 90.5132L1452.68 101.466L1458.15 109.755L1464.52 103.39ZM1432.4 128.996V90.5132H1438.91V128.996H1432.4ZM1466.86 128.996V90.5132L1486.1 71.1977L1473.37 90.5132V128.996L1454.13 148.312L1466.86 128.996ZM1514.89 103.39L1497.87 128.996H1489.28L1508.53 109.755L1502.09 103.39L1498.91 109.755H1489.28L1498.91 100.134L1489.28 90.5132H1495.8L1500.83 98.2098L1508.53 90.5132L1503.05 101.466L1508.53 109.755L1514.89 103.39ZM1482.77 128.996V90.5132H1489.28V128.996H1482.77ZM1528.81 128.996H1522.3V90.5132H1528.81V128.996ZM1503.06 109.681L1522.3 128.996H1515.79L1503.06 109.681ZM1528.81 90.5132H1535.32L1548.05 109.829L1528.81 90.5132ZM1559.39 90.5132V100.134H1552.88V90.5132H1559.39ZM1552.88 128.996V119.375H1559.39V128.996H1552.88ZM1605.63 128.996V71.2717H1612.14V128.996H1605.63ZM1586.39 90.5132L1596.01 71.2717H1605.63L1586.39 90.5132ZM1612.14 71.2717H1621.76L1631.38 90.5132L1612.14 71.2717ZM1633.96 90.5132L1653.28 52.0302L1640.48 90.5132V128.996H1633.96V90.5132ZM1640.48 109.829L1653.28 90.5132H1659.72L1640.48 109.829ZM1659.72 128.996V90.5132H1666.23V128.996H1659.72ZM1707.2 103.39L1690.18 128.996H1681.6L1700.84 109.755L1694.4 103.39L1691.22 109.755H1681.6L1691.22 100.134L1681.6 90.5132H1688.11L1693.14 98.2098L1700.84 90.5132L1695.36 101.466L1700.84 109.755L1707.2 103.39ZM1675.09 128.996V90.5132H1681.6V128.996H1675.09ZM125.449 167.272H131.961V224.996H125.449V167.272ZM131.961 224.996L144.838 186.513H144.764L131.961 167.272L151.203 186.513H151.277L131.961 224.996ZM187.126 199.39L170.105 224.996H161.52L180.762 205.755L174.323 199.39L171.141 205.755H161.52L171.141 196.134L161.52 186.513H168.033L173.065 194.21L180.762 186.513L175.285 197.466L180.762 205.755L187.126 199.39ZM155.008 224.996V186.513H161.52V224.996H155.008ZM202.054 224.996H195.541L182.664 186.513L202.054 224.996ZM202.054 224.996L221.443 186.513L208.566 224.996H202.054ZM230.961 224.996V186.513H237.474V224.996H230.961ZM218.158 205.755L231.035 167.272H237.548L218.158 205.755ZM247.718 224.996V186.513L266.959 167.198L254.23 186.513V224.996L234.989 244.312L247.718 224.996ZM303.088 224.996V186.513H309.6V224.996H303.088ZM290.285 205.755L303.162 167.272H309.674L290.285 205.755ZM325.07 186.513V224.996H318.557V186.513H325.07ZM325.07 205.829L337.873 186.513H344.311L325.07 205.829ZM344.311 224.996V186.513H350.824V224.996H344.311ZM383.569 186.513L370.692 148.03L390.081 186.513V224.996H383.569V186.513ZM390.081 224.996L415.687 199.39L398.666 224.996H390.081ZM390.081 205.755L409.323 186.513L399.702 205.755H390.081ZM418.291 186.513L437.607 148.03L424.804 186.513V224.996H418.291V186.513ZM424.804 205.829L437.607 186.513H444.045L424.804 205.829ZM444.045 224.996V186.513H450.558V224.996H444.045ZM491.532 199.39L474.511 224.996H465.926L485.167 205.755L478.729 199.39L475.547 205.755H465.926L475.547 196.134L465.926 186.513H472.439L477.471 194.21L485.167 186.513L479.691 197.466L485.167 205.755L491.532 199.39ZM459.414 224.996V186.513H465.926V224.996H459.414ZM557.162 167.272H563.675V224.996H557.162V167.272ZM518.531 224.996V167.272H525.044V224.996H518.531ZM525.044 167.272L541.103 199.242L557.162 167.272L544.359 205.755H537.847L525.044 167.272ZM574.141 205.755L586.648 224.478L599.081 205.755L586.648 187.031L574.141 205.755ZM565.557 205.755L585.686 185.625L581.986 180.075L586.648 184.663L591.237 180.075L587.536 185.625L607.666 205.755L587.536 225.884L591.237 231.435L586.648 226.772L581.986 231.435L585.686 225.884L565.557 205.755ZM634.89 224.996H628.378V186.513L615.575 148.03L634.89 186.513V224.996ZM609.136 205.755L628.378 186.513L618.831 205.755L628.378 224.996L609.136 205.755ZM675.896 199.39L658.874 224.996H650.29L669.531 205.755L663.093 199.39L659.91 205.755H650.29L659.91 196.134L650.29 186.513H656.802L661.835 194.21L669.531 186.513L664.055 197.466L669.531 205.755L675.896 199.39ZM643.777 224.996V186.513H650.29V224.996H643.777ZM677.745 186.513H684.257V224.996H677.745V186.513ZM684.257 186.513L703.499 167.272L693.878 186.513H684.257ZM707.745 186.513V224.996H701.233V186.513H707.745ZM707.745 205.829L720.548 186.513H726.987L707.745 205.829ZM726.987 224.996V186.513H733.499V224.996H726.987ZM781.638 224.996L775.939 213.673L770.241 224.996L774.755 211.305L762.322 186.513V175.412L781.638 156.171L768.835 175.412V186.513L775.939 207.901L783.044 186.513H789.556L796.661 207.901L803.765 186.513V175.412L790.962 156.171L810.278 175.412V186.513L797.845 211.305L802.359 224.996L796.661 213.673L790.962 224.996L795.477 211.305L786.3 193.026L777.123 211.305L781.638 224.996ZM814.081 205.755L826.588 224.478L839.021 205.755L826.588 187.031L814.081 205.755ZM805.497 205.755L825.626 185.625L821.926 180.075L826.588 184.663L831.177 180.075L827.476 185.625L847.606 205.755L827.476 225.884L831.177 231.435L826.588 226.772L821.926 231.435L825.626 225.884L805.497 205.755ZM850.978 186.513H857.491V224.996H850.978V186.513ZM857.491 186.513L876.732 167.272L867.112 186.513H857.491ZM875.754 224.996V186.513L894.995 167.198L882.266 186.513V224.996L863.025 244.312L875.754 224.996ZM914.146 224.996H907.633V186.513L894.83 148.03L914.146 186.513V224.996ZM888.392 205.755L907.633 186.513L898.086 205.755L907.633 224.996L888.392 205.755ZM943.74 205.829V186.513L963.055 148.03L950.252 186.513V205.829L963.055 244.312L943.74 205.829ZM974.558 167.272L955.243 205.755L968.045 167.272H974.558ZM974.558 224.996V167.272H981.07V224.996H974.558ZM1010.58 224.996H1004.07V167.272H1010.58V224.996ZM984.755 186.513L1004.07 224.996H997.558L984.755 186.513ZM984.829 186.513L991.194 176.892L984.829 167.272L992.526 174.968L997.632 167.272H1004.07L994.45 176.892L1004.07 186.587H997.632L992.526 178.817L984.829 186.513ZM1040.07 224.996H1033.56V167.272H1040.07V224.996ZM1014.24 186.513L1033.56 224.996H1027.04L1014.24 186.513ZM1014.32 186.513L1020.68 176.892L1014.32 167.272L1022.01 174.968L1027.12 167.272H1033.56L1023.94 176.892L1033.56 186.587H1027.12L1022.01 178.817L1014.32 186.513ZM1045.24 186.513L1059.6 172.156L1056.34 167.272L1060.41 171.342L1064.48 167.272L1061.23 172.156L1075.59 186.513V205.755L1061.23 220.112L1064.48 224.996L1060.41 220.926L1056.34 224.996L1059.6 220.112L1045.24 205.755V186.513ZM1051.76 205.755L1060.41 218.854L1069.07 205.755V186.513L1060.41 173.414L1051.76 186.513V205.755ZM1106.67 186.513H1113.19V224.996H1106.67V186.513ZM1113.19 186.513L1132.43 167.272L1122.81 186.513H1113.19ZM1162.28 199.39L1145.26 224.996H1136.67L1155.92 205.755L1149.48 199.39L1146.29 205.755H1136.67L1146.29 196.134L1136.67 186.513H1143.19L1148.22 194.21L1155.92 186.513L1150.44 197.466L1155.92 205.755L1162.28 199.39ZM1130.16 224.996V186.513H1136.67V224.996H1130.16ZM1164.13 186.513H1170.64V224.996L1183.44 263.479L1164.13 224.996V186.513ZM1170.64 224.996L1180.19 205.755L1170.64 186.513L1189.88 205.755L1170.64 224.996ZM1194.34 186.513H1200.85V224.996H1194.34V186.513ZM1200.85 186.513L1220.09 167.272L1210.47 186.513H1200.85ZM1226.21 224.996V186.513H1232.72V224.996H1226.21ZM1213.4 205.755L1226.28 167.272H1232.79L1213.4 205.755ZM1248.19 186.513V224.996H1241.68V186.513H1248.19ZM1248.19 205.829L1260.99 186.513H1267.43L1248.19 205.829ZM1267.43 224.996V186.513H1273.94V224.996H1267.43ZM1284.5 186.513L1271.62 148.03L1291.01 186.513V224.996H1284.5V186.513ZM1291.01 224.996L1316.62 199.39L1299.6 224.996H1291.01ZM1291.01 205.755L1310.25 186.513L1300.63 205.755H1291.01ZM1375.77 199.39L1358.75 224.996H1350.16L1369.4 205.755L1362.97 199.39L1359.78 205.755H1350.16L1359.78 196.134L1350.16 186.513H1356.68L1361.71 194.21L1369.4 186.513L1363.93 197.466L1369.4 205.755L1375.77 199.39ZM1343.65 224.996V186.513H1350.16V224.996H1343.65ZM1400.02 224.996H1393.51V186.513L1380.71 148.03L1400.02 186.513V224.996ZM1374.27 205.755L1393.51 186.513L1383.97 205.755L1393.51 224.996L1374.27 205.755ZM1415.42 215.375V224.996H1408.91V215.375H1415.42ZM1436.22 205.829L1416.9 244.312L1429.71 205.829V186.513L1416.9 148.03L1436.22 186.513V205.829ZM1450.11 215.375V224.996H1443.6V215.375H1450.11ZM1496.35 167.272H1502.87V224.996H1496.35V167.272ZM1477.11 205.681L1496.35 224.996H1489.92L1477.11 205.681ZM1477.11 186.513L1489.92 167.198H1496.35L1477.11 186.513ZM1502.87 224.996L1522.11 205.681L1509.3 224.996H1502.87ZM1502.87 167.198H1509.3L1522.11 186.513L1502.87 167.198ZM1526.75 186.513L1513.88 148.03L1533.27 186.513V224.996H1526.75V186.513ZM1533.27 224.996L1558.87 199.39L1541.85 224.996H1533.27ZM1533.27 205.755L1552.51 186.513L1542.89 205.755H1533.27ZM1561.48 186.513L1580.79 148.03L1567.99 186.513V224.996H1561.48V186.513ZM1567.99 205.829L1580.79 186.513H1587.23L1567.99 205.829ZM1587.23 224.996V186.513H1593.74V224.996H1587.23ZM1596.66 212.119L1613.68 186.513H1622.26L1603.1 205.681L1610.72 213.377L1615.75 205.681H1622.26L1612.64 215.301L1622.26 224.922H1612.64L1609.46 218.558L1603.02 224.996L1608.5 216.633L1603.02 205.755L1596.66 212.119ZM1622.26 224.996V186.513H1628.78V224.996H1622.26ZM1669.84 199.316L1652.75 224.996H1644.16L1663.4 205.755L1644.16 186.513H1650.67L1663.48 205.681L1669.84 199.316ZM1637.65 224.996V186.513H1644.16V224.996H1637.65ZM1662.79 212.119L1679.81 186.513H1688.39L1669.22 205.681L1676.85 213.377L1681.88 205.681H1688.39L1678.77 215.301L1688.39 224.922H1678.77L1675.59 218.558L1669.15 224.996L1674.63 216.633L1669.15 205.755L1662.79 212.119ZM1688.39 224.996V186.513H1694.9V224.996H1688.39ZM1710.29 215.375V224.996L1691.05 244.312L1703.78 224.996V215.375H1710.29ZM151.277 263.272H157.789V320.996H151.277V263.272ZM125.449 320.996V263.272H131.961V320.996H125.449ZM131.961 263.272H138.474L151.277 301.755L131.961 263.272ZM198.762 295.39L181.74 320.996H173.156L192.397 301.755L185.959 295.39L182.777 301.755H173.156L182.777 292.134L173.156 282.513H179.668L184.701 290.21L192.397 282.513L186.921 293.466L192.397 301.755L198.762 295.39ZM166.643 320.996V282.513H173.156V320.996H166.643ZM219.852 320.996V282.513H226.365V301.829L238.946 314.484V282.513L226.217 263.198L245.458 282.513V320.996H238.946L226.365 301.903V320.996H219.852ZM200.611 320.996V282.513L219.852 263.198L207.123 282.513V314.484L219.852 301.681L207.123 320.996H200.611ZM298.253 292.134V320.996H291.741V292.134H298.253ZM272.425 253.651L291.741 292.134H285.228L272.425 253.651ZM298.253 292.134L317.569 253.651L304.766 292.134H298.253ZM313.604 301.755L326.111 320.478L338.544 301.755L326.111 283.031L313.604 301.755ZM305.019 301.755L325.149 281.625L321.449 276.075L326.111 280.663L330.699 276.075L326.999 281.625L347.129 301.755L326.999 321.884L330.699 327.435L326.111 322.772L321.449 327.435L325.149 321.884L305.019 301.755ZM350.501 282.513H357.014V320.996H350.501V282.513ZM357.014 282.513L376.255 263.272L366.634 282.513H357.014ZM390.604 301.755L407.699 327.435L382.019 301.755L407.699 276.075L390.604 301.755ZM375.507 320.996V282.513L394.896 244.03L382.019 282.513V320.996H375.507ZM419.022 282.513V292.134H412.51V282.513H419.022ZM412.51 320.996V311.375H419.022V320.996H412.51ZM450.091 263.272H456.603V320.996H450.091V263.272ZM456.603 320.996L475.845 301.755L463.042 320.996H456.603ZM456.603 263.272H463.042L475.845 282.513L456.603 263.272ZM479.249 301.755L491.756 320.478L504.189 301.755L491.756 283.031L479.249 301.755ZM470.665 301.755L490.794 281.625L487.094 276.075L491.756 280.663L496.345 276.075L492.644 281.625L512.774 301.755L492.644 321.884L496.345 327.435L491.756 322.772L487.094 327.435L490.794 321.884L470.665 301.755ZM516.146 282.513H522.659V320.996H516.146V282.513ZM522.659 282.513L541.9 263.272L532.28 282.513H522.659ZM546.147 282.513V320.996H539.634V282.513H546.147ZM546.147 301.829L558.95 282.513H565.388L546.147 301.829ZM565.388 320.996V282.513H571.901V320.996H565.388ZM612.875 295.39L595.854 320.996H587.269L606.511 301.755L600.072 295.39L596.89 301.755H587.269L596.89 292.134L587.269 282.513H593.782L598.814 290.21L606.511 282.513L601.034 293.466L606.511 301.755L612.875 295.39ZM580.757 320.996V282.513H587.269V320.996H580.757ZM615.216 320.996V282.513L634.458 263.198L621.729 282.513V320.996L602.487 340.312L615.216 320.996ZM636.681 320.996V282.513L655.922 263.198L643.193 282.513V320.996L623.952 340.312L636.681 320.996ZM659.107 311.375V320.996H652.594V311.375H659.107ZM705.346 263.272H711.859V320.996H705.346V263.272ZM686.105 301.681L705.346 320.996H698.908L686.105 301.681ZM686.105 282.513L698.908 263.198H705.346L686.105 282.513ZM711.859 320.996L731.1 301.681L718.297 320.996H711.859ZM711.859 263.198H718.297L731.1 282.513L711.859 263.198ZM742.64 320.996V263.272H749.152V320.996H742.64ZM723.324 282.587L742.64 321.07H736.201L723.324 282.587ZM749.152 263.272H755.591L768.468 301.755L749.152 263.272ZM784.072 320.996H777.559L790.362 301.755L777.559 282.513L787.18 272.892L777.559 263.272H783.998L789.104 270.968L796.801 263.272L790.436 272.892L796.801 282.513L789.104 274.817L784.072 282.513L792.212 298.942L803.165 282.513L793.618 301.681L803.239 320.996L792.212 304.493L784.072 320.996ZM771.047 320.996V263.272H777.559V320.996H771.047ZM833.877 263.272H840.39V320.996H833.877V263.272ZM808.049 320.996V263.272H814.562V320.996H808.049ZM814.562 263.272H821.074L833.877 301.755L814.562 263.272ZM894.299 320.996H887.786V263.272H894.299V320.996ZM868.471 282.513L887.786 320.996H881.274L868.471 282.513ZM868.545 282.513L874.909 272.892L868.545 263.272L876.241 270.968L881.348 263.272H887.786L878.166 272.892L887.786 282.587H881.348L876.241 274.817L868.545 282.513ZM926.798 282.513L907.408 320.996L920.285 282.513V263.272H926.798V282.513ZM894.679 288.878L911.701 263.272H920.285L894.679 288.878ZM901.044 301.755L913.773 282.513H920.285L901.044 301.755ZM930.48 320.996L936.918 301.755L930.48 282.513L938.25 297.906L943.356 282.513L938.25 274.817L930.628 282.513L936.992 272.892L930.628 263.272L938.25 270.894L943.356 263.198H949.869L940.248 272.892L949.869 282.513L940.174 301.755L949.869 320.996H943.356L938.25 305.603L930.48 320.996ZM949.869 320.996L959.564 301.755L949.869 282.513L959.49 272.892L949.869 263.198H956.381L961.488 270.894L969.11 263.272L962.746 272.892L969.11 282.513L961.488 274.817L956.381 282.513L961.488 297.906L969.258 282.513L962.82 301.755L969.258 320.996L961.488 305.603L956.381 320.996H949.869ZM992.231 301.755H969.289L973.729 298.498H996.671L992.231 301.755ZM1002.6 282.513L1016.96 268.156L1013.7 263.272L1017.77 267.342L1021.84 263.272L1018.59 268.156L1032.95 282.513V301.755L1018.59 316.112L1021.84 320.996L1017.77 316.926L1013.7 320.996L1016.96 316.112L1002.6 301.755V282.513ZM1009.12 301.755L1017.77 314.854L1026.43 301.755V282.513L1017.77 269.414L1009.12 282.513V301.755ZM1053.73 301.755H1030.79L1035.23 298.498H1058.17L1053.73 301.755ZM1058.18 320.996L1064.62 301.755L1058.18 282.513L1065.95 297.906L1071.06 282.513L1065.95 274.817L1058.33 282.513L1064.7 272.892L1058.33 263.272L1065.95 270.894L1071.06 263.198H1077.57L1067.95 272.892L1077.57 282.513L1067.88 301.755L1077.57 320.996H1071.06L1065.95 305.603L1058.18 320.996ZM1077.57 320.996L1087.27 301.755L1077.57 282.513L1087.19 272.892L1077.57 263.198H1084.08L1089.19 270.894L1096.81 263.272L1090.45 272.892L1096.81 282.513L1089.19 274.817L1084.08 282.513L1089.19 297.906L1096.96 282.513L1090.52 301.755L1096.96 320.996L1089.19 305.603L1084.08 320.996H1077.57ZM1099.95 282.513L1114.31 268.156L1111.05 263.272L1115.12 267.342L1119.19 263.272L1115.94 268.156L1130.29 282.513V301.755L1115.94 316.112L1119.19 320.996L1115.12 316.926L1111.05 320.996L1114.31 316.112L1099.95 301.755V282.513ZM1106.46 301.755L1115.12 314.854L1123.78 301.755V282.513L1115.12 269.414L1106.46 282.513V301.755ZM1150.03 263.272L1130.72 301.755L1143.52 263.272H1150.03ZM1150.03 320.996V263.272H1156.54V320.996H1150.03ZM1159.12 301.755L1164.6 290.802L1159.12 282.513L1165.56 288.952L1178.43 263.272L1168.81 292.208L1178.43 301.755H1171.92L1167.7 295.464L1165.63 301.755H1159.12ZM1178.43 320.996V263.272H1184.95V320.996H1178.43ZM1212.37 301.755H1189.43L1193.87 298.498H1216.81L1212.37 301.755ZM1242.65 320.996H1236.13V263.272H1242.65V320.996ZM1216.82 282.513L1236.13 320.996H1229.62L1216.82 282.513ZM1216.89 282.513L1223.26 272.892L1216.89 263.272L1224.59 270.968L1229.69 263.272H1236.13L1226.51 272.892L1236.13 282.587H1229.69L1224.59 274.817L1216.89 282.513ZM1275.14 282.513L1255.75 320.996L1268.63 282.513V263.272H1275.14V282.513ZM1243.03 288.878L1260.05 263.272H1268.63L1243.03 288.878ZM1249.39 301.755L1262.12 282.513H1268.63L1249.39 301.755ZM1292.62 263.272L1273.31 301.755L1286.11 263.272H1292.62ZM1292.62 320.996V263.272H1299.14V320.996H1292.62ZM1304.34 320.996L1310.78 301.755L1304.34 282.513L1312.11 297.906L1317.21 282.513L1312.11 274.817L1304.49 282.513L1310.85 272.892L1304.49 263.272L1312.11 270.894L1317.21 263.198H1323.73L1314.11 272.892L1323.73 282.513L1314.03 301.755L1323.73 320.996H1317.21L1312.11 305.603L1304.34 320.996ZM1323.73 320.996L1333.42 301.755L1323.73 282.513L1333.35 272.892L1323.73 263.198H1330.24L1335.35 270.894L1342.97 263.272L1336.6 272.892L1342.97 282.513L1335.35 274.817L1330.24 282.513L1335.35 297.906L1343.12 282.513L1336.68 301.755L1343.12 320.996L1335.35 305.603L1330.24 320.996H1323.73ZM1366.09 301.755H1343.15L1347.59 298.498H1370.53L1366.09 301.755ZM1376.46 263.272H1382.97V320.996H1376.46V263.272ZM1382.97 320.996L1392.59 311.375L1382.97 301.681H1389.41L1394.52 309.451L1402.22 301.755L1395.85 311.375L1402.22 320.996L1394.52 313.3L1389.41 320.996H1382.97ZM1382.97 263.272H1389.49L1402.29 301.755L1382.97 263.272ZM1411.74 311.375V320.996H1405.23V311.375H1411.74ZM58.9955 410.621H72.0205V423.646H58.9955V410.621ZM125.449 388.272H131.961V445.996H125.449V388.272ZM131.961 445.996L142.174 430.677L131.961 420.39H138.4L143.654 428.383L157.567 407.513L145.652 431.343L151.203 439.706L144.69 433.193L138.326 445.996H131.961ZM131.961 388.272H138.4L151.203 407.513L131.961 388.272ZM158.366 426.755L170.873 445.478L183.306 426.755L170.873 408.031L158.366 426.755ZM149.781 426.755L169.911 406.625L166.21 401.075L170.873 405.663L175.461 401.075L171.761 406.625L191.89 426.755L171.761 446.884L175.461 452.435L170.873 447.772L166.21 452.435L169.911 446.884L149.781 426.755ZM227.381 420.39L210.36 445.996H201.775L221.017 426.755L214.578 420.39L211.396 426.755H201.775L211.396 417.134L201.775 407.513H208.288L213.32 415.21L221.017 407.513L215.54 418.466L221.017 426.755L227.381 420.39ZM195.263 445.996V407.513H201.775V445.996H195.263ZM230.209 407.513L217.333 369.03L236.722 407.513V445.996H230.209V407.513ZM236.722 445.996L262.328 420.39L245.307 445.996H236.722ZM236.722 426.755L255.963 407.513L246.343 426.755H236.722ZM264.932 407.513L284.247 369.03L271.444 407.513V445.996H264.932V407.513ZM271.444 426.829L284.247 407.513H290.686L271.444 426.829ZM290.686 445.996V407.513H297.198V445.996H290.686ZM338.173 420.39L321.151 445.996H312.567L331.808 426.755L325.37 420.39L322.187 426.755H312.567L322.187 417.134L312.567 407.513H319.079L324.112 415.21L331.808 407.513L326.332 418.466L331.808 426.755L338.173 420.39ZM306.054 445.996V407.513H312.567V445.996H306.054ZM343.571 436.375V445.996L324.33 465.312L337.059 445.996V436.375H343.571ZM396.397 388.272V445.996H389.885V388.272H396.397ZM370.569 407.513L389.885 445.996H383.446L370.569 407.513ZM408.351 426.755L420.858 445.478L433.291 426.755L420.858 408.031L408.351 426.755ZM399.767 426.755L419.896 406.625L416.196 401.075L420.858 405.663L425.447 401.075L421.746 406.625L441.876 426.755L421.746 446.884L425.447 452.435L420.858 447.772L416.196 452.435L419.896 446.884L399.767 426.755ZM445.248 407.513L464.564 369.03L451.761 407.513V445.996H445.248V407.513ZM451.761 426.829L464.564 407.513H471.002L451.761 426.829ZM471.002 445.996V407.513H477.515V445.996H471.002ZM480.43 433.119L497.451 407.513H506.036L486.868 426.681L494.491 434.377L499.523 426.681H506.036L496.415 436.301L506.036 445.922H496.415L493.233 439.558L486.794 445.996L492.271 437.633L486.794 426.755L480.43 433.119ZM506.036 445.996V407.513H512.548V445.996H506.036ZM527.935 407.513V445.996H521.422V407.513H527.935ZM527.935 426.829L540.738 407.513H547.176L527.935 426.829ZM547.176 445.996V407.513H553.689V445.996H547.176ZM569.057 407.513V445.996H562.544V407.513H569.057ZM569.057 426.829L581.86 407.513H588.298L569.057 426.829ZM588.298 445.996V407.513H594.811V445.996H588.298ZM642.949 445.996L637.251 434.673L631.552 445.996L636.067 432.305L623.634 407.513V396.412L642.949 377.171L630.146 396.412V407.513L637.251 428.901L644.355 407.513H650.868L657.972 428.901L665.077 407.513V396.412L652.274 377.171L671.589 396.412V407.513L659.156 432.305L663.671 445.996L657.972 434.673L652.274 445.996L656.788 432.305L647.612 414.026L638.435 432.305L642.949 445.996ZM675.393 426.755L687.9 445.478L700.333 426.755L687.9 408.031L675.393 426.755ZM666.809 426.755L686.938 406.625L683.238 401.075L687.9 405.663L692.488 401.075L688.788 406.625L708.918 426.755L688.788 446.884L692.488 452.435L687.9 447.772L683.238 452.435L686.938 446.884L666.809 426.755ZM712.782 445.996V407.513L732.024 388.198L719.295 407.513V445.996L700.053 465.312L712.782 445.996ZM730.936 407.513L756.542 369.03L737.449 407.513V445.996H730.936V407.513ZM737.449 426.755L763.055 401.149L746.033 426.755H737.449ZM778.421 407.513V445.996L759.105 484.479L771.168 448.216L754.147 465.238L763.767 445.996H771.908V407.513H778.421ZM752.667 426.755L771.908 407.513L762.361 426.755L771.908 445.996L752.667 426.755ZM780.644 433.119L797.665 407.513H806.25L787.083 426.681L794.705 434.377L799.738 426.681H806.25L796.629 436.301L806.25 445.922H796.629L793.447 439.558L787.009 445.996L792.485 437.633L787.009 426.755L780.644 433.119ZM806.25 445.996V407.513H812.763V445.996H806.25ZM828.149 407.513V445.996H821.636V407.513H828.149ZM828.149 426.829L840.952 407.513H847.39L828.149 426.829ZM847.39 445.996V407.513H853.903V445.996H847.39ZM884.442 407.513V445.996L865.127 484.479L877.19 448.216L860.168 465.238L869.789 445.996H877.93V407.513H884.442ZM858.688 426.755L877.93 407.513L868.383 426.755L877.93 445.996L858.688 426.755ZM913.296 407.513V388.272H919.809V407.513L932.612 445.996L913.296 407.513ZM932.612 445.996L945.415 407.513V388.272H951.927V407.513L932.612 445.996ZM954.938 426.755L967.445 445.478L979.878 426.755L967.445 408.031L954.938 426.755ZM946.353 426.755L966.483 406.625L962.782 401.075L967.445 405.663L972.033 401.075L968.333 406.625L988.462 426.755L968.333 446.884L972.033 452.435L967.445 447.772L962.782 452.435L966.483 446.884L946.353 426.755ZM998.347 407.513V445.996H991.835V407.513H998.347ZM998.347 426.829L1011.15 407.513H1017.59L998.347 426.829ZM1017.59 445.996V407.513H1024.1V445.996H1017.59ZM1053.66 426.829V407.513L1072.98 369.03L1060.18 407.513V426.829L1072.98 465.312L1053.66 426.829ZM1093.53 407.513L1079.77 434.969L1087.02 445.996L1078.51 437.485L1074.22 445.996L1077.4 436.375L1067.78 426.755H1074.29L1078.51 433.119L1087.02 407.513V388.272H1093.53V407.513ZM1067.78 407.513L1080.51 388.272H1087.02L1067.78 407.513ZM1087.02 445.996V426.755H1093.53V445.996H1087.02ZM1098.72 407.513L1113.08 393.156L1109.82 388.272L1113.89 392.342L1117.97 388.272L1114.71 393.156L1129.07 407.513V426.755L1114.71 441.112L1117.97 445.996L1113.89 441.926L1109.82 445.996L1113.08 441.112L1098.72 426.755V407.513ZM1105.24 426.755L1113.89 439.854L1122.55 426.755V407.513L1113.89 394.414L1105.24 407.513V426.755ZM1132.76 407.513L1147.12 393.156L1143.86 388.272L1147.93 392.342L1152 388.272L1148.75 393.156L1163.11 407.513V426.755L1148.75 441.112L1152 445.996L1147.93 441.926L1143.86 445.996L1147.12 441.112L1132.76 426.755V407.513ZM1139.28 426.755L1147.93 439.854L1156.59 426.755V407.513L1147.93 394.414L1139.28 407.513V426.755ZM1182.84 388.272L1163.53 426.755L1176.33 388.272H1182.84ZM1182.84 445.996V388.272H1189.36V445.996H1182.84ZM1210.16 426.829L1190.84 465.312L1203.64 426.829V407.513L1190.84 369.03L1210.16 407.513V426.829ZM1224.05 436.375V445.996H1217.54V436.375H1224.05ZM1254.75 445.996V388.272H1261.26V407.513H1280.35V388.272L1299.67 369.03L1286.87 388.272V445.996H1280.35V410.769H1261.26V445.996L1241.95 465.238L1254.75 445.996ZM1287.26 433.119L1304.29 407.513H1312.87L1293.7 426.681L1301.33 434.377L1306.36 426.681H1312.87L1303.25 436.301L1312.87 445.922H1303.25L1300.07 439.558L1293.63 445.996L1299.11 437.633L1293.63 426.755L1287.26 433.119ZM1312.87 445.996V407.513H1319.38V445.996H1312.87ZM1334.77 407.513V445.996H1328.26V407.513H1334.77ZM1334.77 426.829L1347.57 407.513H1354.01L1334.77 426.829ZM1354.01 445.996V407.513H1360.52V445.996H1354.01ZM1360.52 426.829L1373.33 407.513H1379.76L1360.52 426.829ZM1379.76 445.996V407.513H1386.28V445.996H1379.76ZM1398.64 445.996V407.513L1417.88 388.198L1405.15 407.513V445.996L1385.91 465.312L1398.64 445.996ZM1422.93 445.996V407.513H1429.44V445.996H1422.93ZM1410.13 426.755L1423 388.272H1429.52L1410.13 426.755ZM1444.91 407.513V445.996H1438.4V407.513H1444.91ZM1444.91 426.829L1457.71 407.513H1464.15L1444.91 426.829ZM1464.15 445.996V407.513H1470.66V445.996H1464.15ZM1486.03 436.375V445.996L1466.79 465.312L1479.52 445.996V436.375H1486.03ZM1517.1 388.272H1523.61V445.996H1517.1V388.272ZM1523.61 445.996L1542.86 426.755L1530.05 445.996H1523.61ZM1523.61 388.272H1530.05L1542.86 407.513L1523.61 388.272ZM1547.38 407.513H1553.89V445.996H1547.38V407.513ZM1541.09 484.479L1553.89 445.996H1560.4L1541.09 484.479ZM1553.89 445.996L1566.69 407.513H1573.2L1553.89 445.996ZM1579.11 407.513H1585.62V445.996H1579.11V407.513ZM1585.62 407.513L1604.86 388.272L1595.24 407.513H1585.62ZM1628.35 445.996V407.513H1634.86V445.996H1628.35ZM1602.6 445.996V407.513H1609.11V445.996H1602.6ZM1609.11 445.996L1628.35 426.681L1615.55 445.996H1609.11ZM1661.72 445.996H1655.21V407.513H1661.72V445.996ZM1635.96 426.681L1655.21 445.996H1648.69L1635.96 426.681ZM1661.72 407.513H1668.23L1680.96 426.829L1661.72 407.513ZM123.969 522.829V503.513L143.284 465.03L130.481 503.513V522.829L143.284 561.312L123.969 522.829ZM176.864 516.39L159.842 541.996H151.258L170.499 522.755L164.061 516.39L160.878 522.755H151.258L160.878 513.134L151.258 503.513H157.77L162.803 511.21L170.499 503.513L165.023 514.466L170.499 522.755L176.864 516.39ZM144.745 541.996V503.513H151.258V541.996H144.745ZM201.119 541.996H194.606V503.513L181.803 465.03L201.119 503.513V541.996ZM175.365 522.755L194.606 503.513L185.06 522.755L194.606 541.996L175.365 522.755ZM216.518 532.375V541.996H210.006V532.375H216.518ZM237.315 522.829L217.999 561.312L230.802 522.829V503.513L217.999 465.03L237.315 503.513V522.829ZM251.209 532.375V541.996H244.696V532.375H251.209ZM288.79 484.272V541.996H282.277V484.272H288.79ZM288.79 516.39H295.228L308.031 535.706L288.79 516.39ZM288.79 484.272H295.228L308.105 522.755L288.79 484.272ZM304.811 529.119L321.832 503.513H330.417L311.25 522.681L318.872 530.377L323.905 522.681H330.417L320.796 532.301L330.417 541.922H320.796L317.614 535.558L311.176 541.996L316.652 533.633L311.176 522.755L304.811 529.119ZM330.417 541.996V503.513H336.93V541.996H330.417ZM371.557 541.996V503.513H378.07V541.996H371.557ZM345.803 541.996V503.513H352.316V541.996H345.803ZM352.316 541.996L371.557 522.681L358.754 541.996H352.316ZM404.923 541.996H398.411V503.513H404.923V541.996ZM379.169 522.681L398.411 541.996H391.898L379.169 522.681ZM404.923 503.513H411.436L424.165 522.829L404.923 503.513ZM426.715 503.513L413.838 465.03L433.227 503.513V541.996H426.715V503.513ZM433.227 541.996L458.833 516.39L441.812 541.996H433.227ZM433.227 522.755L452.469 503.513L442.848 522.755H433.227ZM470.19 503.513V513.134H463.678V503.513H470.19ZM463.678 541.996V532.375H470.19V541.996H463.678ZM497.188 541.996L509.991 503.513L529.233 484.272L516.504 503.513V503.587L529.233 522.829L514.358 507.88L497.188 541.996ZM529.233 541.996V484.272H535.745V541.996H529.233ZM581.98 541.996V484.272H588.492V541.996H581.98ZM562.738 503.513L572.359 484.272H581.98L562.738 503.513ZM588.492 484.272H598.113L607.734 503.513L588.492 484.272ZM605.184 503.513H611.697V541.996H605.184V503.513ZM611.697 503.513L630.938 484.272L621.318 503.513H611.697ZM617.601 529.119L634.622 503.513H643.206L624.039 522.681L631.662 530.377L636.694 522.681H643.206L633.586 532.301L643.206 541.922H633.586L630.404 535.558L623.965 541.996L629.441 533.633L623.965 522.755L617.601 529.119ZM643.206 541.996V503.513H649.719V541.996H643.206ZM680.276 503.513V541.996L660.961 580.479L673.024 544.216L656.003 561.238L665.623 541.996H673.764V503.513H680.276ZM654.522 522.755L673.764 503.513L664.217 522.755L673.764 541.996L654.522 522.755ZM721.282 516.39L704.261 541.996H695.676L714.917 522.755L708.479 516.39L705.297 522.755H695.676L705.297 513.134L695.676 503.513H702.188L707.221 511.21L714.917 503.513L709.441 514.466L714.917 522.755L721.282 516.39ZM689.163 541.996V503.513H695.676V541.996H689.163ZM745.537 541.996H739.025V503.513L726.222 465.03L745.537 503.513V541.996ZM719.783 522.755L739.025 503.513L729.478 522.755L739.025 541.996L719.783 522.755ZM754.128 503.513H760.641V541.996H754.128V503.513ZM747.838 580.479L760.641 541.996H767.153L747.838 580.479ZM760.641 541.996L773.444 503.513H779.956L760.641 541.996ZM798.07 503.513V513.134H791.558V503.513H798.07ZM778.829 561.312L791.558 541.996V532.375H798.07V541.996L778.829 561.312ZM844.324 484.272H850.836V541.996H844.324V484.272ZM825.082 522.681L844.324 541.996H837.885L825.082 522.681ZM825.082 503.513L837.885 484.198H844.324L825.082 503.513ZM850.836 541.996L870.078 522.681L857.275 541.996H850.836ZM850.836 484.198H857.275L870.078 503.513L850.836 484.198ZM878.088 503.513V541.996H871.576V503.513H878.088ZM878.088 522.829L890.891 503.513H897.33L878.088 522.829ZM897.33 541.996V503.513H903.842V541.996H897.33ZM914.4 503.513L901.523 465.03L920.913 503.513V541.996H914.4V503.513ZM920.913 541.996L946.519 516.39L929.497 541.996H920.913ZM920.913 522.755L940.154 503.513L930.533 522.755H920.913ZM980.518 516.39L963.497 541.996H954.912L974.154 522.755L967.715 516.39L964.533 522.755H954.912L964.533 513.134L954.912 503.513H961.425L966.457 511.21L974.154 503.513L968.677 514.466L974.154 522.755L980.518 516.39ZM948.4 541.996V503.513H954.912V541.996H948.4ZM982.367 503.513H988.88V541.996H982.367V503.513ZM988.88 503.513L1008.12 484.272L998.501 503.513H988.88ZM1005.13 503.513H1011.65V541.996L1024.45 580.479L1005.13 541.996V503.513ZM1011.65 541.996L1021.19 522.755L1011.65 503.513L1030.89 522.755L1011.65 541.996ZM1035.34 503.513H1041.85V541.996H1035.34V503.513ZM1041.85 503.513L1061.1 484.272L1051.48 503.513H1041.85ZM1090.95 516.39L1073.93 541.996H1065.34L1084.58 522.755L1078.15 516.39L1074.96 522.755H1065.34L1074.96 513.134L1065.34 503.513H1071.86L1076.89 511.21L1084.58 503.513L1079.11 514.466L1084.58 522.755L1090.95 516.39ZM1058.83 541.996V503.513H1065.34V541.996H1058.83ZM1093.78 503.513L1080.9 465.03L1100.29 503.513V541.996H1093.78V503.513ZM1100.29 541.996L1125.9 516.39L1108.87 541.996H1100.29ZM1100.29 522.755L1119.53 503.513L1109.91 522.755H1100.29ZM1134.64 541.996V503.513H1141.15V541.996H1134.64ZM1121.84 522.755L1134.71 484.272H1141.23L1121.84 522.755ZM1165.43 541.996H1158.92L1146.04 503.513L1165.43 541.996ZM1165.43 541.996L1184.82 503.513L1171.94 541.996H1165.43ZM1218.8 516.39L1201.77 541.996H1193.19L1212.43 522.755L1205.99 516.39L1202.81 522.755H1193.19L1202.81 513.134L1193.19 503.513H1199.7L1204.74 511.21L1212.43 503.513L1206.96 514.466L1212.43 522.755L1218.8 516.39ZM1186.68 541.996V503.513H1193.19V541.996H1186.68ZM1271.62 484.272H1278.14V541.996H1271.62V484.272ZM1245.8 541.996V484.272H1252.31V541.996H1245.8ZM1252.31 484.272H1258.82L1271.62 522.755L1252.31 484.272ZM1288.54 522.755L1301.05 541.478L1313.48 522.755L1301.05 504.031L1288.54 522.755ZM1279.96 522.755L1300.09 502.625L1296.39 497.075L1301.05 501.663L1305.64 497.075L1301.94 502.625L1322.07 522.755L1301.94 542.884L1305.64 548.435L1301.05 543.772L1296.39 548.435L1300.09 542.884L1279.96 522.755ZM1327.14 503.513L1314.26 465.03L1333.65 503.513V541.996H1327.14V503.513ZM1333.65 541.996L1359.26 516.39L1342.24 541.996H1333.65ZM1333.65 522.755L1352.89 503.513L1343.27 522.755H1333.65ZM1393.26 516.39L1376.24 541.996H1367.65L1386.89 522.755L1380.46 516.39L1377.27 522.755H1367.65L1377.27 513.134L1367.65 503.513H1374.17L1379.2 511.21L1386.89 503.513L1381.42 514.466L1386.89 522.755L1393.26 516.39ZM1361.14 541.996V503.513H1367.65V541.996H1361.14ZM1407.18 541.996H1400.67V503.513H1407.18V541.996ZM1381.43 522.681L1400.67 541.996H1394.15L1381.43 522.681ZM1407.18 503.513H1413.69L1426.42 522.829L1407.18 503.513ZM1430.38 532.375V541.996L1411.14 561.312L1423.87 541.996V532.375H1430.38ZM1461.45 484.272H1467.97V541.996H1461.45V484.272ZM1467.97 541.996L1487.21 522.755L1474.4 541.996H1467.97ZM1467.97 484.272H1474.4L1487.21 503.513L1467.97 484.272ZM1490.61 522.755L1503.12 541.478L1515.55 522.755L1503.12 504.031L1490.61 522.755ZM1482.03 522.755L1502.16 502.625L1498.46 497.075L1503.12 501.663L1507.71 497.075L1504.01 502.625L1524.14 522.755L1504.01 542.884L1507.71 548.435L1503.12 543.772L1498.46 548.435L1502.16 542.884L1482.03 522.755ZM1534.02 503.513V541.996H1527.51V503.513H1534.02ZM1534.02 522.829L1546.82 503.513H1553.26L1534.02 522.829ZM1553.26 541.996V503.513H1559.77V541.996H1553.26ZM1570.33 503.513L1557.46 465.03L1576.85 503.513V541.996H1570.33V503.513ZM1576.85 541.996L1602.45 516.39L1585.43 541.996H1576.85ZM1576.85 522.755L1596.09 503.513L1586.47 522.755H1576.85ZM1636.45 516.39L1619.43 541.996H1610.84L1630.09 522.755L1623.65 516.39L1620.47 522.755H1610.84L1620.47 513.134L1610.84 503.513H1617.36L1622.39 511.21L1630.09 503.513L1624.61 514.466L1630.09 522.755L1636.45 516.39ZM1604.33 541.996V503.513H1610.84V541.996H1604.33ZM1663.22 522.755L1680.31 548.435L1654.63 522.755L1680.31 497.075L1663.22 522.755ZM1628.95 548.435L1646.05 522.755L1628.95 497.075L1654.63 522.755L1628.95 548.435ZM1684.59 503.513L1671.72 465.03L1691.11 503.513V541.996H1684.59V503.513ZM1691.11 541.996L1716.71 516.39L1699.69 541.996H1691.11ZM1691.11 522.755L1710.35 503.513L1700.73 522.755H1691.11ZM1738.04 541.996H1731.52V503.513H1738.04V541.996ZM1712.28 522.681L1731.52 541.996H1725.01L1712.28 522.681ZM1738.04 503.513H1744.55L1757.28 522.829L1738.04 503.513ZM1761.24 532.375V541.996L1742 561.312L1754.73 541.996V532.375H1761.24ZM164.08 580.272H170.592V637.996H164.08V580.272ZM125.449 637.996V580.272H131.961V637.996H125.449ZM131.961 580.272L148.02 612.242L164.08 580.272L151.277 618.755H144.764L131.961 580.272ZM181.059 618.755L193.566 637.478L205.999 618.755L193.566 600.031L181.059 618.755ZM172.474 618.755L192.604 598.625L188.903 593.075L193.566 597.663L198.154 593.075L194.454 598.625L214.583 618.755L194.454 638.884L198.154 644.435L193.566 639.772L188.903 644.435L192.604 638.884L172.474 618.755ZM241.808 637.996H235.295V599.513L222.492 561.03L241.808 599.513V637.996ZM216.054 618.755L235.295 599.513L225.748 618.755L235.295 637.996L216.054 618.755ZM282.813 612.39L265.792 637.996H257.207L276.449 618.755L270.01 612.39L266.828 618.755H257.207L266.828 609.134L257.207 599.513H263.72L268.752 607.21L276.449 599.513L270.972 610.466L276.449 618.755L282.813 612.39ZM250.695 637.996V599.513H257.207V637.996H250.695ZM284.662 599.513H291.175V637.996H284.662V599.513ZM291.175 599.513L310.416 580.272L300.795 599.513H291.175ZM314.663 599.513V637.996H308.15V599.513H314.663ZM314.663 618.829L327.466 599.513H333.904L314.663 618.829ZM333.904 637.996V599.513H340.417V637.996H333.904ZM371.46 580.272H377.972V637.996H371.46V580.272ZM377.972 637.996L397.214 618.755L384.411 637.996H377.972ZM377.972 580.272H384.411L397.214 599.513L377.972 580.272ZM401.308 599.513H407.82V637.996H401.308V599.513ZM407.82 599.513L427.062 580.272L417.441 599.513H407.82ZM433.176 637.996V599.513H439.688V637.996H433.176ZM420.373 618.755L433.25 580.272H439.762L420.373 618.755ZM449.625 599.513L436.748 561.03L456.137 599.513V637.996H449.625V599.513ZM456.137 637.996L481.743 612.39L464.722 637.996H456.137ZM456.137 618.755L475.379 599.513L465.758 618.755H456.137ZM490.487 637.996V599.513H496.999V637.996H490.487ZM477.684 618.755L490.561 580.272H497.073L477.684 618.755ZM538.149 612.316L521.053 637.996H512.469L531.71 618.755L512.469 599.513H518.981L531.784 618.681L538.149 612.316ZM505.956 637.996V599.513H512.469V637.996H505.956ZM544.69 637.996V599.513H551.202V637.996H544.69ZM531.887 618.755L544.764 580.272H551.277L531.887 618.755ZM577.435 637.996H570.922V599.513H577.435V637.996ZM551.681 618.681L570.922 637.996H564.41L551.681 618.681ZM577.435 599.513H583.947L596.676 618.829L577.435 599.513ZM603.602 599.513V637.996H597.09V599.513H603.602ZM603.602 618.829L616.405 599.513H622.844L603.602 618.829ZM622.844 637.996V599.513H629.356V637.996H622.844ZM629.356 618.829L642.159 599.513H648.598L629.356 618.829ZM648.598 637.996V599.513H655.11V637.996H648.598ZM684.72 618.829V599.513L704.036 561.03L691.233 599.513V618.829L704.036 657.312L684.72 618.829ZM731.325 580.272H737.837V637.996H731.325V580.272ZM705.497 637.996V580.272H712.009V637.996H705.497ZM712.009 580.272H718.522L731.325 618.755L712.009 580.272ZM748.242 618.755L760.749 637.478L773.182 618.755L760.749 600.031L748.242 618.755ZM739.658 618.755L759.787 598.625L756.087 593.075L760.749 597.663L765.338 593.075L761.637 598.625L781.767 618.755L761.637 638.884L765.338 644.435L760.749 639.772L756.087 644.435L759.787 638.884L739.658 618.755ZM785.139 599.513H791.652V637.996H785.139V599.513ZM791.652 599.513L810.893 580.272L801.273 599.513H791.652ZM818.352 599.513L805.475 561.03L824.864 599.513V637.996H818.352V599.513ZM824.864 637.996L850.47 612.39L833.449 637.996H824.864ZM824.864 618.755L844.106 599.513L834.485 618.755H824.864ZM857.589 618.755L870.096 637.478L882.529 618.755L870.096 600.031L857.589 618.755ZM849.004 618.755L869.134 598.625L865.433 593.075L870.096 597.663L874.684 593.075L870.984 598.625L891.113 618.755L870.984 638.884L874.684 644.435L870.096 639.772L865.433 644.435L869.134 638.884L849.004 618.755ZM900.998 599.513V637.996H894.486V599.513H900.998ZM900.998 618.829L913.801 599.513H920.24L900.998 618.829ZM920.24 637.996V599.513H926.752V637.996H920.24ZM957.795 580.272H964.308V637.996H957.795V580.272ZM964.308 637.996L983.549 618.755L970.746 637.996H964.308ZM964.308 580.272H970.746L983.549 599.513L964.308 580.272ZM987.643 599.513H994.156V637.996H987.643V599.513ZM994.156 599.513L1013.4 580.272L1003.78 599.513H994.156ZM1019.51 637.996V599.513H1026.02V637.996H1019.51ZM1006.71 618.755L1019.59 580.272H1026.1L1006.71 618.755ZM1035.96 599.513L1023.08 561.03L1042.47 599.513V637.996H1035.96V599.513ZM1042.47 637.996L1068.08 612.39L1051.06 637.996H1042.47ZM1042.47 618.755L1061.71 599.513L1052.09 618.755H1042.47ZM1076.82 637.996V599.513H1083.33V637.996H1076.82ZM1064.02 618.755L1076.9 580.272H1083.41L1064.02 618.755ZM1124.48 612.316L1107.39 637.996H1098.8L1118.05 618.755L1098.8 599.513H1105.32L1118.12 618.681L1124.48 612.316ZM1092.29 637.996V599.513H1098.8V637.996H1092.29ZM1117.43 625.119L1134.45 599.513H1143.03L1123.87 618.681L1131.49 626.377L1136.52 618.681H1143.03L1133.41 628.301L1143.03 637.922H1133.41L1130.23 631.558L1123.79 637.996L1129.27 629.633L1123.79 618.755L1117.43 625.119ZM1143.03 637.996V599.513H1149.55V637.996H1143.03ZM1158.91 637.996V599.513L1178.15 580.198L1165.42 599.513V637.996L1146.18 657.312L1158.91 637.996ZM1237.3 612.39L1220.28 637.996H1211.69L1230.93 618.755L1224.49 612.39L1221.31 618.755H1211.69L1221.31 609.134L1211.69 599.513H1218.2L1223.24 607.21L1230.93 599.513L1225.46 610.466L1230.93 618.755L1237.3 612.39ZM1205.18 637.996V599.513H1211.69V637.996H1205.18ZM1261.55 637.996H1255.04V599.513L1242.24 561.03L1261.55 599.513V637.996ZM1235.8 618.755L1255.04 599.513L1245.49 618.755L1255.04 637.996L1235.8 618.755ZM1276.95 628.375V637.996H1270.44V628.375H1276.95ZM1297.75 618.829L1278.43 657.312L1291.24 618.829V599.513L1278.43 561.03L1297.75 599.513V618.829ZM1311.64 628.375V637.996H1305.13V628.375H1311.64ZM1368.54 580.272H1375.05V637.996H1368.54V580.272ZM1342.71 637.996V580.272H1349.22V637.996H1342.71ZM1349.22 580.272H1355.74L1368.54 618.755L1349.22 580.272ZM1416.02 612.39L1399 637.996H1390.42L1409.66 618.755L1403.22 612.39L1400.04 618.755H1390.42L1400.04 609.134L1390.42 599.513H1396.93L1401.96 607.21L1409.66 599.513L1404.18 610.466L1409.66 618.755L1416.02 612.39ZM1383.91 637.996V599.513H1390.42V637.996H1383.91ZM1437.11 637.996V599.513H1443.63V618.829L1456.21 631.484V599.513L1443.48 580.198L1462.72 599.513V637.996H1456.21L1443.63 618.903V637.996H1437.11ZM1417.87 637.996V599.513L1437.11 580.198L1424.39 599.513V631.484L1437.11 618.681L1424.39 637.996H1417.87ZM1515.52 609.134V637.996H1509V609.134H1515.52ZM1489.69 570.651L1509 609.134H1502.49L1489.69 570.651ZM1515.52 609.134L1534.83 570.651L1522.03 609.134H1515.52ZM1530.87 618.755L1543.37 637.478L1555.81 618.755L1543.37 600.031L1530.87 618.755ZM1522.28 618.755L1542.41 598.625L1538.71 593.075L1543.37 597.663L1547.96 593.075L1544.26 598.625L1564.39 618.755L1544.26 638.884L1547.96 644.435L1543.37 639.772L1538.71 644.435L1542.41 638.884L1522.28 618.755ZM1567.76 599.513H1574.28V637.996H1567.76V599.513ZM1574.28 599.513L1593.52 580.272L1583.9 599.513H1574.28ZM1607.87 618.755L1624.96 644.435L1599.28 618.755L1624.96 593.075L1607.87 618.755ZM1592.77 637.996V599.513L1612.16 561.03L1599.28 599.513V637.996H1592.77ZM1632.6 628.375V637.996L1613.36 657.312L1626.09 637.996V628.375H1632.6ZM151.277 676.272H157.789V733.996H151.277V676.272ZM125.449 733.996V676.272H131.961V733.996H125.449ZM131.961 676.272H138.474L151.277 714.755L131.961 676.272ZM198.762 708.39L181.74 733.996H173.156L192.397 714.755L185.959 708.39L182.777 714.755H173.156L182.777 705.134L173.156 695.513H179.668L184.701 703.21L192.397 695.513L186.921 706.466L192.397 714.755L198.762 708.39ZM166.643 733.996V695.513H173.156V733.996H166.643ZM219.852 733.996V695.513H226.365V714.829L238.946 727.484V695.513L226.217 676.198L245.458 695.513V733.996H238.946L226.365 714.903V733.996H219.852ZM200.611 733.996V695.513L219.852 676.198L207.123 695.513V727.484L219.852 714.681L207.123 733.996H200.611ZM298.253 705.134V733.996H291.741V705.134H298.253ZM272.425 666.651L291.741 705.134H285.228L272.425 666.651ZM298.253 705.134L317.569 666.651L304.766 705.134H298.253ZM313.604 714.755L326.111 733.478L338.544 714.755L326.111 696.031L313.604 714.755ZM305.019 714.755L325.149 694.625L321.449 689.075L326.111 693.663L330.699 689.075L326.999 694.625L347.129 714.755L326.999 734.884L330.699 740.435L326.111 735.772L321.449 740.435L325.149 734.884L305.019 714.755ZM350.501 695.513H357.014V733.996H350.501V695.513ZM357.014 695.513L376.255 676.272L366.634 695.513H357.014ZM390.604 714.755L407.699 740.435L382.019 714.755L407.699 689.075L390.604 714.755ZM375.507 733.996V695.513L394.896 657.03L382.019 695.513V733.996H375.507ZM419.022 695.513V705.134H412.51V695.513H419.022ZM412.51 733.996V724.375H419.022V733.996H412.51ZM467.186 733.996L461.487 722.673L455.789 733.996L460.303 720.305L447.87 695.513V684.412L467.186 665.171L454.383 684.412V695.513L461.487 716.901L468.592 695.513H475.104L482.209 716.901L489.314 695.513V684.412L476.511 665.171L495.826 684.412V695.513L483.393 720.305L487.907 733.996L482.209 722.673L476.511 733.996L481.025 720.305L471.848 702.026L462.672 720.305L467.186 733.996ZM503.073 724.375V733.996H496.561V724.375H503.073ZM551.237 733.996L545.539 722.673L539.84 733.996L544.355 720.305L531.922 695.513V684.412L551.237 665.171L538.434 684.412V695.513L545.539 716.901L552.643 695.513H559.156L566.26 716.901L573.365 695.513V684.412L560.562 665.171L579.877 684.412V695.513L567.444 720.305L571.959 733.996L566.26 722.673L560.562 733.996L565.076 720.305L555.9 702.026L546.723 720.305L551.237 733.996ZM587.125 724.375V733.996H580.612V724.375H587.125ZM644.021 676.272H650.534V733.996H644.021V676.272ZM618.193 733.996V676.272H624.706V733.996H618.193ZM624.706 676.272H631.218L644.021 714.755L624.706 676.272ZM660.939 714.755L673.446 733.478L685.879 714.755L673.446 696.031L660.939 714.755ZM652.354 714.755L672.484 694.625L668.784 689.075L673.446 693.663L678.034 689.075L674.334 694.625L694.463 714.755L674.334 734.884L678.034 740.435L673.446 735.772L668.784 740.435L672.484 734.884L652.354 714.755ZM697.836 695.513H704.348V733.996H697.836V695.513ZM704.348 695.513L723.59 676.272L713.969 695.513H704.348ZM731.048 695.513L718.171 657.03L737.561 695.513V733.996H731.048V695.513ZM737.561 733.996L763.167 708.39L746.145 733.996H737.561ZM737.561 714.755L756.802 695.513L747.182 714.755H737.561ZM770.285 714.755L782.792 733.478L795.225 714.755L782.792 696.031L770.285 714.755ZM761.7 714.755L781.83 694.625L778.13 689.075L782.792 693.663L787.38 689.075L783.68 694.625L803.81 714.755L783.68 734.884L787.38 740.435L782.792 735.772L778.13 740.435L781.83 734.884L761.7 714.755ZM813.695 695.513V733.996H807.182V695.513H813.695ZM813.695 714.829L826.498 695.513H832.936L813.695 714.829ZM832.936 733.996V695.513H839.449V733.996H832.936ZM870.492 676.272H877.004V733.996H870.492V676.272ZM877.004 733.996L896.246 714.755L883.443 733.996H877.004ZM877.004 676.272H883.443L896.246 695.513L877.004 676.272ZM899.65 714.755L912.157 733.478L924.59 714.755L912.157 696.031L899.65 714.755ZM891.066 714.755L911.195 694.625L907.495 689.075L912.157 693.663L916.746 689.075L913.045 694.625L933.175 714.755L913.045 734.884L916.746 740.435L912.157 735.772L907.495 740.435L911.195 734.884L891.066 714.755ZM943.06 695.513V733.996H936.547V695.513H943.06ZM943.06 714.829L955.863 695.513H962.301L943.06 714.829ZM962.301 733.996V695.513H968.814V733.996H962.301ZM968.814 714.829L981.617 695.513H988.055L968.814 714.829ZM988.055 733.996V695.513H994.568V733.996H988.055ZM1003.47 695.513H1009.98V733.996L1022.79 772.479L1003.47 733.996V695.513ZM1009.98 733.996L1019.53 714.755L1009.98 695.513L1029.22 714.755L1009.98 733.996ZM1027.74 721.119L1044.76 695.513H1053.35L1034.18 714.681L1041.8 722.377L1046.83 714.681H1053.35L1043.72 724.301L1053.35 733.922H1043.72L1040.54 727.558L1034.1 733.996L1039.58 725.633L1034.1 714.755L1027.74 721.119ZM1053.35 733.996V695.513H1059.86V733.996H1053.35ZM1075.24 695.513V733.996H1068.73V695.513H1075.24ZM1075.24 714.829L1088.05 695.513H1094.49L1075.24 714.829ZM1094.49 733.996V695.513H1101V733.996H1094.49ZM1110.28 695.513H1116.79V733.996H1110.28V695.513ZM1103.99 772.479L1116.79 733.996H1123.31L1103.99 772.479ZM1116.79 733.996L1129.6 695.513H1136.11L1116.79 733.996ZM1140.36 724.375V733.996H1133.85V724.375H1140.36ZM1186.6 676.272H1193.11V733.996H1186.6V676.272ZM1167.36 714.681L1186.6 733.996H1180.16L1167.36 714.681ZM1167.36 695.513L1180.16 676.198H1186.6L1167.36 695.513ZM1193.11 733.996L1212.35 714.681L1199.55 733.996H1193.11ZM1193.11 676.198H1199.55L1212.35 695.513L1193.11 676.198ZM1223.89 733.996V676.272H1230.41V733.996H1223.89ZM1204.58 695.587L1223.89 734.07H1217.45L1204.58 695.587ZM1230.41 676.272H1236.84L1249.72 714.755L1230.41 676.272ZM1265.32 733.996H1258.81L1271.62 714.755L1258.81 695.513L1268.43 685.892L1258.81 676.272H1265.25L1270.36 683.968L1278.05 676.272L1271.69 685.892L1278.05 695.513L1270.36 687.817L1265.32 695.513L1273.47 711.942L1284.42 695.513L1274.87 714.681L1284.49 733.996L1273.47 717.493L1265.32 733.996ZM1252.3 733.996V676.272H1258.81V733.996H1252.3ZM1315.13 676.272H1321.64V733.996H1315.13V676.272ZM1289.3 733.996V676.272H1295.82V733.996H1289.3ZM1295.82 676.272H1302.33L1315.13 714.755L1295.82 676.272ZM148.316 829.996H141.804V772.272H148.316V829.996ZM122.489 791.513L141.804 829.996H135.292L122.489 791.513ZM122.563 791.513L128.927 781.892L122.563 772.272L130.259 779.968L135.366 772.272H141.804L132.183 781.892L141.804 791.587H135.366L130.259 783.817L122.563 791.513ZM180.815 791.513L161.426 829.996L174.303 791.513V772.272H180.815V791.513ZM148.697 797.878L165.718 772.272H174.303L148.697 797.878ZM155.061 810.755L167.79 791.513H174.303L155.061 810.755ZM184.497 829.996L190.936 810.755L184.497 791.513L192.268 806.906L197.374 791.513L192.268 783.817L184.645 791.513L191.01 781.892L184.645 772.272L192.268 779.894L197.374 772.198H203.887L194.266 781.892L203.887 791.513L194.192 810.755L203.887 829.996H197.374L192.268 814.603L184.497 829.996ZM203.887 829.996L213.581 810.755L203.887 791.513L213.507 781.892L203.887 772.198H210.399L215.505 779.894L223.128 772.272L216.764 781.892L223.128 791.513L215.505 783.817L210.399 791.513L215.505 806.906L223.276 791.513L216.838 810.755L223.276 829.996L215.505 814.603L210.399 829.996H203.887ZM246.248 810.755H223.307L227.747 807.498H250.689L246.248 810.755ZM256.621 791.513L270.978 777.156L267.722 772.272L271.792 776.342L275.862 772.272L272.606 777.156L286.963 791.513V810.755L272.606 825.112L275.862 829.996L271.792 825.926L267.722 829.996L270.978 825.112L256.621 810.755V791.513ZM263.133 810.755L271.792 823.854L280.451 810.755V791.513L271.792 778.414L263.133 791.513V810.755ZM307.751 810.755H284.809L289.25 807.498H312.192L307.751 810.755ZM338.085 791.513L328.464 801.134L338.085 810.755V829.996H331.572V810.755L326.466 803.058L318.769 810.755L325.208 801.134L318.769 791.513L326.466 799.21L331.572 791.513V772.272H338.085V791.513ZM312.183 810.755L331.498 829.996H324.986L312.183 810.755ZM312.183 791.513L324.986 772.272H331.498L312.183 791.513ZM367.587 829.996H361.075V772.272H367.587V829.996ZM341.759 791.513L361.075 829.996H354.562L341.759 791.513ZM341.833 791.513L348.198 781.892L341.833 772.272L349.53 779.968L354.636 772.272H361.075L351.454 781.892L361.075 791.587H354.636L349.53 783.817L341.833 791.513ZM396.408 791.513L386.787 801.134L396.408 810.755V829.996H389.895V810.755L384.789 803.058L377.092 810.755L383.531 801.134L377.092 791.513L384.789 799.21L389.895 791.513V772.272H396.408V791.513ZM370.506 810.755L389.821 829.996H383.309L370.506 810.755ZM370.506 791.513L383.309 772.272H389.821L370.506 791.513ZM423.024 810.755H400.082L404.522 807.498H427.464L423.024 810.755ZM453.301 829.996H446.788V772.272H453.301V829.996ZM427.473 791.513L446.788 829.996H440.276L427.473 791.513ZM427.547 791.513L433.911 781.892L427.547 772.272L435.243 779.968L440.35 772.272H446.788L437.167 781.892L446.788 791.587H440.35L435.243 783.817L427.547 791.513ZM485.799 791.513L466.41 829.996L479.287 791.513V772.272H485.799V791.513ZM453.681 797.878L470.702 772.272H479.287L453.681 797.878ZM460.045 810.755L472.774 791.513H479.287L460.045 810.755ZM513.05 791.513L499.285 818.969L506.537 829.996L498.027 821.485L493.734 829.996L496.916 820.375L487.296 810.755H493.808L498.027 817.119L506.537 791.513V772.272H513.05V791.513ZM487.296 791.513L500.025 772.272H506.537L487.296 791.513ZM506.537 829.996V810.755H513.05V829.996H506.537ZM518.245 829.996L524.684 810.755L518.245 791.513L526.016 806.906L531.122 791.513L526.016 783.817L518.393 791.513L524.758 781.892L518.393 772.272L526.016 779.894L531.122 772.198H537.635L528.014 781.892L537.635 791.513L527.94 810.755L537.635 829.996H531.122L526.016 814.603L518.245 829.996ZM537.635 829.996L547.329 810.755L537.635 791.513L547.255 781.892L537.635 772.198H544.147L549.253 779.894L556.876 772.272L550.512 781.892L556.876 791.513L549.253 783.817L544.147 791.513L549.253 806.906L557.024 791.513L550.586 810.755L557.024 829.996L549.253 814.603L544.147 829.996H537.635ZM582.791 791.513L569.026 818.969L576.279 829.996L567.768 821.485L563.476 829.996L566.658 820.375L557.037 810.755H563.55L567.768 817.119L576.279 791.513V772.272H582.791V791.513ZM557.037 791.513L569.766 772.272H576.279L557.037 791.513ZM576.279 829.996V810.755H582.791V829.996H576.279ZM609.411 810.755H586.469L590.909 807.498H613.851L609.411 810.755ZM616.803 791.513V772.272H623.315V791.513H616.803ZM616.803 829.996V810.755H623.315V829.996H616.803ZM623.315 829.996L636.118 810.755L623.315 791.513H629.828L637.968 807.942L648.921 791.513L639.374 810.755L648.921 829.996L637.968 813.567L629.828 829.996H623.315ZM623.315 772.272H629.754L642.557 791.513L623.315 772.272ZM656.577 820.375V829.996H650.065V820.375H656.577ZM58.9955 918.621H72.0205V931.646H58.9955V918.621ZM125.449 953.996V896.272H131.961V953.996H125.449ZM131.961 915.513L141.582 905.892L131.961 896.272H138.4L143.506 903.968L151.203 896.272L144.838 905.892L151.203 915.513L143.506 907.817L138.474 915.513L157.641 953.996L131.961 915.513ZM184.52 953.996V915.513H191.032V953.996H184.52ZM158.766 953.996V915.513H165.278V953.996H158.766ZM165.278 953.996L184.52 934.681L171.717 953.996H165.278ZM206.028 953.996V915.513H212.54V953.996H206.028ZM193.225 934.755L206.102 896.272H212.614L193.225 934.755ZM253.69 928.316L236.594 953.996H228.01L247.251 934.755L228.01 915.513H234.522L247.325 934.681L253.69 928.316ZM221.497 953.996V915.513H228.01V953.996H221.497ZM269.911 934.755L287.007 960.435L261.327 934.755L287.007 909.075L269.911 934.755ZM254.814 953.996V915.513L274.204 877.03L261.327 915.513V953.996H254.814ZM289.576 953.996V915.513L308.892 877.03L296.089 915.513V953.996H289.576ZM296.089 953.996L305.636 934.755L296.089 915.513L315.33 934.755L296.089 953.996ZM324.046 953.996V915.513H330.559V953.996H324.046ZM311.243 934.755L324.12 896.272H330.633L311.243 934.755ZM371.634 928.39L354.613 953.996H346.028L365.27 934.755L358.831 928.39L355.649 934.755H346.028L355.649 925.134L346.028 915.513H352.541L357.573 923.21L365.27 915.513L359.793 926.466L365.27 934.755L371.634 928.39ZM339.516 953.996V915.513H346.028V953.996H339.516ZM377.033 944.375V953.996L357.791 973.312L370.52 953.996V944.375H377.033ZM408.101 896.272H414.614V953.996H408.101V896.272ZM414.614 953.996L440.22 928.39L423.198 953.996H414.614ZM473.464 928.39L456.443 953.996H447.858L467.1 934.755L460.661 928.39L457.479 934.755H447.858L457.479 925.134L447.858 915.513H454.371L459.403 923.21L467.1 915.513L461.623 926.466L467.1 934.755L473.464 928.39ZM441.346 953.996V915.513H447.858V953.996H441.346ZM479.105 934.755L491.612 953.478L504.045 934.755L491.612 916.031L479.105 934.755ZM470.52 934.755L490.65 914.625L486.949 909.075L491.612 913.663L496.2 909.075L492.5 914.625L512.629 934.755L492.5 954.884L496.2 960.435L491.612 955.772L486.949 960.435L490.65 954.884L470.52 934.755ZM538.154 934.829V915.513L557.47 877.03L544.667 915.513V934.829L557.47 973.312L538.154 934.829ZM578.021 915.513L564.256 942.969L571.509 953.996L562.998 945.485L558.706 953.996L561.888 944.375L552.267 934.755H558.78L562.998 941.119L571.509 915.513V896.272H578.021V915.513ZM552.267 915.513L564.996 896.272H571.509L552.267 915.513ZM571.509 953.996V934.755H578.021V953.996H571.509ZM583.214 915.513L597.571 901.156L594.315 896.272L598.385 900.342L602.455 896.272L599.199 901.156L613.556 915.513V934.755L599.199 949.112L602.455 953.996L598.385 949.926L594.315 953.996L597.571 949.112L583.214 934.755V915.513ZM589.726 934.755L598.385 947.854L607.044 934.755V915.513L598.385 902.414L589.726 915.513V934.755ZM617.254 915.513L631.611 901.156L628.354 896.272L632.425 900.342L636.495 896.272L633.239 901.156L647.596 915.513V934.755L633.239 949.112L636.495 953.996L632.425 949.926L628.354 953.996L631.611 949.112L617.254 934.755V915.513ZM623.766 934.755L632.425 947.854L641.083 934.755V915.513L632.425 902.414L623.766 915.513V934.755ZM675.679 953.996H669.166V896.272H675.679V953.996ZM649.851 915.513L669.166 953.996H662.654L649.851 915.513ZM649.925 915.513L656.289 905.892L649.925 896.272L657.621 903.968L662.728 896.272H669.166L659.546 905.892L669.166 915.587H662.728L657.621 907.817L649.925 915.513ZM696.453 934.829L677.137 973.312L689.94 934.829V915.513L677.137 877.03L696.453 915.513V934.829ZM710.347 944.375V953.996H703.834V944.375H710.347ZM747.928 896.272V953.996H741.415V896.272H747.928ZM747.928 928.39H754.366L767.169 947.706L747.928 928.39ZM747.928 896.272H754.366L767.243 934.755L747.928 896.272ZM763.95 941.119L780.971 915.513H789.555L770.388 934.681L778.011 942.377L783.043 934.681H789.555L779.935 944.301L789.555 953.922H779.935L776.753 947.558L770.314 953.996L775.79 945.633L770.314 934.755L763.95 941.119ZM789.555 953.996V915.513H796.068V953.996H789.555ZM830.696 953.996V915.513H837.208V953.996H830.696ZM804.942 953.996V915.513H811.454V953.996H804.942ZM811.454 953.996L830.696 934.681L817.893 953.996H811.454ZM864.062 953.996H857.549V915.513H864.062V953.996ZM838.308 934.681L857.549 953.996H851.037L838.308 934.681ZM864.062 915.513H870.574L883.303 934.829L864.062 915.513ZM885.853 915.513L872.976 877.03L892.365 915.513V953.996H885.853V915.513ZM892.365 953.996L917.971 928.39L900.95 953.996H892.365ZM892.365 934.755L911.607 915.513L901.986 934.755H892.365ZM945.607 953.996V915.513H952.119V953.996H945.607ZM919.853 953.996V915.513H926.365V953.996H919.853ZM926.365 953.996L945.607 934.681L932.804 953.996H926.365ZM978.973 953.996H972.46V915.513H978.973V953.996ZM953.219 934.681L972.46 953.996H965.948L953.219 934.681ZM978.973 915.513H985.485L998.214 934.829L978.973 915.513ZM1009.55 915.513V925.134H1003.04V915.513H1009.55ZM1003.04 953.996V944.375H1009.55V953.996H1003.04ZM1055.79 953.996V896.272H1062.3V953.996H1055.79ZM1036.55 915.513L1046.17 896.272H1055.79L1036.55 915.513ZM1062.3 896.272H1071.92L1081.54 915.513L1062.3 896.272ZM1084.13 915.513L1103.44 877.03L1090.64 915.513V953.996H1084.13V915.513ZM1090.64 934.829L1103.44 915.513H1109.88L1090.64 934.829ZM1109.88 953.996V915.513H1116.39V953.996H1109.88ZM1157.37 928.39L1140.34 953.996H1131.76L1151 934.755L1144.56 928.39L1141.38 934.755H1131.76L1141.38 925.134L1131.76 915.513H1138.27L1143.3 923.21L1151 915.513L1145.52 926.466L1151 934.755L1157.37 928.39ZM1125.25 953.996V915.513H1131.76V953.996H1125.25ZM1184.37 896.272H1190.88V953.996H1184.37V896.272ZM1190.88 953.996L1216.48 928.39L1199.46 953.996H1190.88ZM1225.19 953.996V915.513H1231.71V953.996H1225.19ZM1212.39 934.755L1225.27 896.272H1231.78L1212.39 934.755ZM1240.66 915.513L1266.27 877.03L1247.18 915.513V953.996H1240.66V915.513ZM1247.18 934.755L1272.78 909.149L1255.76 934.755H1247.18ZM1303.06 928.39L1286.04 953.996H1277.46L1296.7 934.755L1290.26 928.39L1287.08 934.755H1277.46L1287.08 925.134L1277.46 915.513H1283.97L1289 923.21L1296.7 915.513L1291.22 926.466L1296.7 934.755L1303.06 928.39ZM1270.95 953.996V915.513H1277.46V953.996H1270.95ZM1326.36 941.119L1343.38 915.513H1351.97L1332.8 934.681L1340.42 942.377L1345.46 934.681H1351.97L1342.35 944.301L1351.97 953.922H1342.35L1339.17 947.558L1332.73 953.996L1338.2 945.633L1332.73 934.755L1326.36 941.119ZM1351.97 953.996V915.513H1358.48V953.996H1351.97ZM1373.87 915.513V953.996H1367.36V915.513H1373.87ZM1373.87 934.829L1386.67 915.513H1393.11L1373.87 934.829ZM1393.11 953.996V915.513H1399.62V953.996H1393.11ZM1430.16 953.996H1423.65V915.513L1410.85 877.03L1430.16 915.513V953.996ZM1404.41 934.755L1423.65 915.513L1414.1 934.755L1423.65 953.996L1404.41 934.755ZM1476.41 953.996V896.272H1482.92V953.996H1476.41ZM1457.17 915.513L1466.79 896.272H1476.41L1457.17 915.513ZM1482.92 896.272H1492.54L1502.16 915.513L1482.92 896.272ZM1510.16 953.996V915.513H1516.67V953.996H1510.16ZM1497.36 934.755L1510.23 896.272H1516.75L1497.36 934.755ZM1532.14 915.513V953.996H1525.63V915.513H1532.14ZM1532.14 934.829L1544.94 915.513H1551.38L1532.14 934.829ZM1551.38 953.996V915.513H1557.9V953.996H1551.38ZM1557.9 934.829L1570.7 915.513H1577.14L1557.9 934.829ZM1577.14 953.996V915.513H1583.65V953.996H1577.14ZM1624.67 928.39L1607.65 953.996H1599.06L1618.31 934.755L1611.87 928.39L1608.69 934.755H1599.06L1608.69 925.134L1599.06 915.513H1605.58L1610.61 923.21L1618.31 915.513L1612.83 926.466L1618.31 934.755L1624.67 928.39ZM1592.55 953.996V915.513H1599.06V953.996H1592.55ZM1638.59 953.996H1632.08V915.513H1638.59V953.996ZM1612.84 934.681L1632.08 953.996H1625.57L1612.84 934.681ZM1638.59 915.513H1645.1L1657.83 934.829L1638.59 915.513ZM1689.36 934.755L1701.86 953.478L1714.3 934.755L1701.86 916.031L1689.36 934.755ZM1680.77 934.755L1700.9 914.625L1697.2 909.075L1701.86 913.663L1706.45 909.075L1702.75 914.625L1722.88 934.755L1702.75 954.884L1706.45 960.435L1701.86 955.772L1697.2 960.435L1700.9 954.884L1680.77 934.755ZM1726.25 915.513L1751.86 877.03L1732.77 915.513V953.996H1726.25V915.513ZM1732.77 934.755L1758.37 909.149L1741.35 934.755H1732.77ZM121.748 1037.12L138.77 1011.51H147.354L128.187 1030.68L135.81 1038.38L140.842 1030.68H147.354L137.734 1040.3L147.354 1049.92H137.734L134.551 1043.56L128.113 1050L133.589 1041.63L128.113 1030.75L121.748 1037.12ZM147.354 1050V1011.51H153.867V1050H147.354ZM184.928 1050V992.272H191.44V1050H184.928ZM191.44 1011.51L201.061 1001.89L191.44 992.272H197.879L202.985 999.968L210.682 992.272L204.317 1001.89L210.682 1011.51L202.985 1003.82L197.953 1011.51L217.12 1050L191.44 1011.51ZM250.363 1024.39L233.342 1050H224.757L243.999 1030.75L237.56 1024.39L234.378 1030.75H224.757L234.378 1021.13L224.757 1011.51H231.27L236.302 1019.21L243.999 1011.51L238.522 1022.47L243.999 1030.75L250.363 1024.39ZM218.245 1050V1011.51H224.757V1050H218.245ZM258.725 1011.51V1050H252.212V1011.51H258.725ZM258.725 1030.83L271.528 1011.51H277.966L258.725 1030.83ZM277.966 1050V1011.51H284.479V1050H277.966ZM285.948 1037.12L302.97 1011.51H311.554L292.387 1030.68L300.009 1038.38L305.042 1030.68H311.554L301.934 1040.3L311.554 1049.92H301.934L298.751 1043.56L292.313 1050L297.789 1041.63L292.313 1030.75L285.948 1037.12ZM311.554 1050V1011.51H318.067V1050H311.554ZM333.08 1050V1011.51H339.593V1050H333.08ZM320.277 1030.75L333.154 992.272H339.667L320.277 1030.75ZM365.825 1050H359.312V1011.51H365.825V1050ZM340.071 1030.68L359.312 1050H352.8L340.071 1030.68ZM365.825 1011.51H372.337L385.066 1030.83L365.825 1011.51ZM397.48 1050H390.967V1011.51H397.48V1050ZM371.726 1030.68L390.967 1050H384.455L371.726 1030.68ZM397.48 1011.51H403.992L416.721 1030.83L397.48 1011.51ZM405.991 1037.12L423.012 1011.51H431.597L412.429 1030.68L420.052 1038.38L425.084 1030.68H431.597L421.976 1040.3L431.597 1049.92H421.976L418.794 1043.56L412.355 1050L417.832 1041.63L412.355 1030.75L405.991 1037.12ZM431.597 1050V1011.51H438.109V1050H431.597ZM453.495 1011.51V1050H446.983V1011.51H453.495ZM453.495 1030.83L466.298 1011.51H472.737L453.495 1030.83ZM472.737 1050V1011.51H479.249V1050H472.737ZM520.298 1024.32L503.202 1050H494.618L513.859 1030.75L494.618 1011.51H501.13L513.933 1030.68L520.298 1024.32ZM488.105 1050V1011.51H494.618V1050H488.105ZM553.541 1024.39L536.519 1050H527.935L547.176 1030.75L540.738 1024.39L537.555 1030.75H527.935L537.555 1021.13L527.935 1011.51H534.447L539.48 1019.21L547.176 1011.51L541.7 1022.47L547.176 1030.75L553.541 1024.39ZM521.422 1050V1011.51H527.935V1050H521.422ZM619.171 992.272H625.683V1050H619.171V992.272ZM580.54 1050V992.272H587.052V1050H580.54ZM587.052 992.272L603.112 1024.24L619.171 992.272L606.368 1030.75H599.855L587.052 992.272ZM627.213 1037.12L644.234 1011.51H652.819L633.651 1030.68L641.274 1038.38L646.306 1030.68H652.819L643.198 1040.3L652.819 1049.92H643.198L640.016 1043.56L633.577 1050L639.054 1041.63L633.577 1030.75L627.213 1037.12ZM652.819 1050V1011.51H659.331V1050H652.819ZM689.888 1011.51V1050L670.573 1088.48L682.636 1052.22L665.615 1069.24L675.235 1050H683.376V1011.51H689.888ZM664.134 1030.75L683.376 1011.51L673.829 1030.75L683.376 1050L664.134 1030.75ZM705.638 1050V1011.51H712.15V1050H705.638ZM692.835 1030.75L705.712 992.272H712.224L692.835 1030.75ZM753.3 1024.32L736.204 1050H727.62L746.861 1030.75L727.62 1011.51H734.132L746.935 1030.68L753.3 1024.32ZM721.107 1050V1011.51H727.62V1050H721.107ZM759.841 1050V1011.51H766.354V1050H759.841ZM747.038 1030.75L759.915 992.272H766.428L747.038 1030.75ZM767.925 1037.12L784.946 1011.51H793.53L774.363 1030.68L781.986 1038.38L787.018 1030.68H793.53L783.91 1040.3L793.53 1049.92H783.91L780.727 1043.56L774.289 1050L779.765 1041.63L774.289 1030.75L767.925 1037.12ZM793.53 1050V1011.51H800.043V1050H793.53ZM815.429 1011.51V1050H808.917V1011.51H815.429ZM815.429 1030.83L828.232 1011.51H834.671L815.429 1030.83ZM834.671 1050V1011.51H841.183V1050H834.671ZM856.551 1040.38V1050H850.039V1040.38H856.551ZM902.865 1050V992.272H909.378V1050H902.865ZM883.55 1011.59L902.865 1050.07H896.427L883.55 1011.59ZM909.378 992.272H915.816L928.693 1030.75L909.378 992.272ZM932.974 1011.51L920.097 973.03L939.486 1011.51V1050H932.974V1011.51ZM939.486 1050L965.092 1024.39L948.071 1050H939.486ZM939.486 1030.75L958.728 1011.51L949.107 1030.75H939.486ZM968.491 1011.51H975.004V1050H968.491V1011.51ZM975.004 1011.51L994.245 992.272L984.624 1011.51H975.004ZM990.567 1030.75L1003.07 1049.48L1015.51 1030.75L1003.07 1012.03L990.567 1030.75ZM981.983 1030.75L1002.11 1010.63L998.412 1005.07L1003.07 1009.66L1007.66 1005.07L1003.96 1010.63L1024.09 1030.75L1003.96 1050.88L1007.66 1056.43L1003.07 1051.77L998.412 1056.43L1002.11 1050.88L981.983 1030.75ZM1053.22 1050V1011.51H1059.73V1050H1053.22ZM1027.46 1050V1011.51H1033.98V1050H1027.46ZM1033.98 1050L1053.22 1030.68L1040.42 1050H1033.98ZM1090.27 1050H1083.76V1011.51L1070.95 973.03L1090.27 1011.51V1050ZM1064.52 1030.75L1083.76 1011.51L1074.21 1030.75L1083.76 1050L1064.52 1030.75ZM1105.67 1040.38V1050L1086.43 1069.31L1099.16 1050V1040.38H1105.67ZM1162.57 1050V992.272H1169.08V1050H1162.57ZM1136.74 1050V992.272H1143.25V1050H1136.74ZM1143.25 1050L1162.57 1030.75L1149.76 1050H1143.25ZM1179.38 992.272H1185.89V1050H1179.38V992.272ZM1185.89 1011.51L1211.57 973.03L1192.4 1011.51L1205.21 1050L1185.89 1011.51ZM1222.89 1011.51V1021.13H1216.38V1011.51H1222.89ZM1216.38 1050V1040.38H1222.89V1050H1216.38ZM1253.59 1050V992.272H1260.1V1011.51H1279.2V992.272L1298.51 973.03L1285.71 992.272V1050H1279.2V1014.77H1260.1V1050L1240.79 1069.24L1253.59 1050ZM1302.6 1050V1011.51H1309.11V1050H1302.6ZM1289.79 1030.75L1302.67 992.272H1309.18L1289.79 1030.75ZM1335.34 1050H1328.83V1011.51H1335.34V1050ZM1309.59 1030.68L1328.83 1050H1322.32L1309.59 1030.68ZM1335.34 1011.51H1341.85L1354.58 1030.83L1335.34 1011.51ZM1357.13 1011.51L1344.26 973.03L1363.65 1011.51V1050H1357.13V1011.51ZM1363.65 1050L1389.25 1024.39L1372.23 1050H1363.65ZM1363.65 1030.75L1382.89 1011.51L1373.27 1030.75H1363.65ZM1396.37 1030.75L1408.88 1049.48L1421.31 1030.75L1408.88 1012.03L1396.37 1030.75ZM1387.79 1030.75L1407.91 1010.63L1404.21 1005.07L1408.88 1009.66L1413.47 1005.07L1409.76 1010.63L1429.89 1030.75L1409.76 1050.88L1413.47 1056.43L1408.88 1051.77L1404.21 1056.43L1407.91 1050.88L1387.79 1030.75ZM1433.27 1011.51H1439.78V1050H1433.27V1011.51ZM1439.78 1011.51L1459.02 992.272L1449.4 1011.51H1439.78ZM1457.18 1011.51H1463.69V1050H1457.18V1011.51ZM1450.89 1088.48L1463.69 1050H1470.21L1450.89 1088.48ZM1463.69 1050L1476.5 1011.51H1483.01L1463.69 1050ZM1514.65 992.272V1050H1508.14V992.272H1514.65ZM1514.65 1030.75L1525.68 1014.18L1514.65 992.272H1521.09L1527.53 1011.44L1540.26 992.272L1528.79 1015.21L1533.97 1030.75L1527.46 1017.8L1521.02 1030.75H1514.65ZM1539.14 1011.51H1545.66V1050H1539.14V1011.51ZM1545.66 1011.51L1564.9 992.272L1555.28 1011.51H1545.66ZM1594.75 1024.39L1577.73 1050H1569.14L1588.39 1030.75L1581.95 1024.39L1578.77 1030.75H1569.14L1578.77 1021.13L1569.14 1011.51H1575.66L1580.69 1019.21L1588.39 1011.51L1582.91 1022.47L1588.39 1030.75L1594.75 1024.39ZM1562.63 1050V1011.51H1569.14V1050H1562.63ZM1608.67 1050H1602.16V1011.51H1608.67V1050ZM1582.92 1030.68L1602.16 1050H1595.65L1582.92 1030.68ZM1608.67 1011.51H1615.18L1627.91 1030.83L1608.67 1011.51ZM1640.33 1050H1633.81V1011.51H1640.33V1050ZM1614.57 1030.68L1633.81 1050H1627.3L1614.57 1030.68ZM1640.33 1011.51H1646.84L1659.57 1030.83L1640.33 1011.51ZM1663.53 1040.38V1050H1657.02V1040.38H1663.53ZM140.62 1088.27H147.132V1146H140.62V1088.27ZM121.378 1126.68L140.62 1146H134.181L121.378 1126.68ZM121.378 1107.51L134.181 1088.2H140.62L121.378 1107.51ZM147.132 1146L166.374 1126.68L153.571 1146H147.132ZM147.132 1088.2H153.571L166.374 1107.51L147.132 1088.2ZM177.914 1146V1088.27H184.426V1146H177.914ZM158.598 1107.59L177.914 1146.07H171.475L158.598 1107.59ZM184.426 1088.27H190.865L203.741 1126.75L184.426 1088.27ZM219.345 1146H212.833L225.636 1126.75L212.833 1107.51L222.453 1097.89L212.833 1088.27H219.271L224.377 1095.97L232.074 1088.27L225.71 1097.89L232.074 1107.51L224.377 1099.82L219.345 1107.51L227.486 1123.94L238.439 1107.51L228.892 1126.68L238.513 1146L227.486 1129.49L219.345 1146ZM206.32 1146V1088.27H212.833V1146H206.32ZM269.151 1088.27H275.663V1146H269.151V1088.27ZM243.323 1146V1088.27H249.835V1146H243.323ZM249.835 1088.27H256.348L269.151 1126.75L249.835 1088.27ZM329.572 1146H323.06V1088.27H329.572V1146ZM303.744 1107.51L323.06 1146H316.547L303.744 1107.51ZM303.818 1107.51L310.183 1097.89L303.818 1088.27L311.515 1095.97L316.621 1088.27H323.06L313.439 1097.89L323.06 1107.59H316.621L311.515 1099.82L303.818 1107.51ZM362.071 1107.51L342.682 1146L355.559 1107.51V1088.27H362.071V1107.51ZM329.953 1113.88L346.974 1088.27H355.559L329.953 1113.88ZM336.317 1126.75L349.046 1107.51H355.559L336.317 1126.75ZM365.753 1146L372.192 1126.75L365.753 1107.51L373.524 1122.91L378.63 1107.51L373.524 1099.82L365.901 1107.51L372.266 1097.89L365.901 1088.27L373.524 1095.89L378.63 1088.2H385.143L375.522 1097.89L385.143 1107.51L375.448 1126.75L385.143 1146H378.63L373.524 1130.6L365.753 1146ZM385.143 1146L394.837 1126.75L385.143 1107.51L394.763 1097.89L385.143 1088.2H391.655L396.761 1095.89L404.384 1088.27L398.02 1097.89L404.384 1107.51L396.761 1099.82L391.655 1107.51L396.761 1122.91L404.532 1107.51L398.094 1126.75L404.532 1146L396.761 1130.6L391.655 1146H385.143ZM427.504 1126.75H404.563L409.003 1123.5H431.945L427.504 1126.75ZM437.877 1107.51L452.234 1093.16L448.978 1088.27L453.048 1092.34L457.118 1088.27L453.862 1093.16L468.219 1107.51V1126.75L453.862 1141.11L457.118 1146L453.048 1141.93L448.978 1146L452.234 1141.11L437.877 1126.75V1107.51ZM444.389 1126.75L453.048 1139.85L461.707 1126.75V1107.51L453.048 1094.41L444.389 1107.51V1126.75ZM489.007 1126.75H466.065L470.506 1123.5H493.447L489.007 1126.75ZM520.779 1107.51L501.389 1146L514.266 1107.51V1088.27H520.779V1107.51ZM488.66 1113.88L505.682 1088.27H514.266L488.66 1113.88ZM495.025 1126.75L507.754 1107.51H514.266L495.025 1126.75ZM526.681 1107.51V1088.27H533.193V1107.51H526.681ZM526.681 1146V1126.75H533.193V1146H526.681ZM533.193 1146L545.996 1126.75L533.193 1107.51H539.706L547.846 1123.94L558.799 1107.51L549.252 1126.75L558.799 1146L547.846 1129.57L539.706 1146H533.193ZM533.193 1088.27H539.632L552.435 1107.51L533.193 1088.27ZM554.739 1107.51L569.096 1093.16L565.84 1088.27L569.91 1092.34L573.981 1088.27L570.724 1093.16L585.081 1107.51V1126.75L570.724 1141.11L573.981 1146L569.91 1141.93L565.84 1146L569.096 1141.11L554.739 1126.75V1107.51ZM561.252 1126.75L569.91 1139.85L578.569 1126.75V1107.51L569.91 1094.41L561.252 1107.51V1126.75ZM613.164 1146H606.652V1088.27H613.164V1146ZM587.336 1107.51L606.652 1146H600.139L587.336 1107.51ZM587.41 1107.51L593.775 1097.89L587.41 1088.27L595.107 1095.97L600.213 1088.27H606.652L597.031 1097.89L606.652 1107.59H600.213L595.107 1099.82L587.41 1107.51ZM640.56 1126.75H617.618L622.058 1123.5H645L640.56 1126.75ZM647.952 1107.51V1088.27H654.464V1107.51H647.952ZM647.952 1146V1126.75H654.464V1146H647.952ZM654.464 1146L667.267 1126.75L654.464 1107.51H660.976L669.117 1123.94L680.07 1107.51L670.523 1126.75L680.07 1146L669.117 1129.57L660.976 1146H654.464ZM654.464 1088.27H660.902L673.705 1107.51L654.464 1088.27ZM676.01 1107.51L690.367 1093.16L687.111 1088.27L691.181 1092.34L695.252 1088.27L691.995 1093.16L706.352 1107.51V1126.75L691.995 1141.11L695.252 1146L691.181 1141.93L687.111 1146L690.367 1141.11L676.01 1126.75V1107.51ZM682.523 1126.75L691.181 1139.85L699.84 1126.75V1107.51L691.181 1094.41L682.523 1107.51V1126.75ZM734.435 1146H727.923V1088.27H734.435V1146ZM708.607 1107.51L727.923 1146H721.41L708.607 1107.51ZM708.681 1107.51L715.046 1097.89L708.681 1088.27L716.378 1095.97L721.484 1088.27H727.923L718.302 1097.89L727.923 1107.59H721.484L716.378 1099.82L708.681 1107.51ZM739.609 1107.51L753.966 1093.16L750.709 1088.27L754.78 1092.34L758.85 1088.27L755.594 1093.16L769.951 1107.51V1126.75L755.594 1141.11L758.85 1146L754.78 1141.93L750.709 1146L753.966 1141.11L739.609 1126.75V1107.51ZM746.121 1126.75L754.78 1139.85L763.438 1126.75V1107.51L754.78 1094.41L746.121 1107.51V1126.75ZM790.739 1126.75H767.797L772.238 1123.5H795.179L790.739 1126.75ZM821.016 1146H814.503V1088.27H821.016V1146ZM795.188 1107.51L814.503 1146H807.991L795.188 1107.51ZM795.262 1107.51L801.626 1097.89L795.262 1088.27L802.959 1095.97L808.065 1088.27H814.503L804.883 1097.89L814.503 1107.59H808.065L802.959 1099.82L795.262 1107.51ZM836.388 1136.38V1146H829.875V1136.38H836.388Z" fill="#898989"/>
<path d="M1059.74 138.247H1707.57V141.947H1059.74V138.247ZM121.008 234.247H918.586V237.947H121.008V234.247Z" fill="#898989"/>
<path d="M685.735 330.247H844.83V333.947H685.735V330.247ZM1166.99 743.247H1326.08V746.947H1166.99V743.247ZM121.008 1155.25H280.104V1158.95H121.008V1155.25Z" fill="#898989"/>
<path d="M866.991 330.247H1403.77V333.947H866.991V330.247Z" fill="#898989"/>
<path d="M121.008 839.247H649.291V842.947H121.008V839.247Z" fill="#898989"/>
<path d="M121.008 963.247H512.999V966.947H121.008V963.247Z" fill="#898989"/>
<path d="M302.264 1155.25H825.456V1158.95H302.264V1155.25Z" fill="#898989"/>
<a href="https://archive.org/details/mephistophelesde00russ">
<rect fill="black" fill-opacity="0" x="1049.74" y="-9.72438" width="670.04" height="115.449"/>
</a>
<a href="https://archive.org/details/mephistophelesde00russ">
<rect fill="black" fill-opacity="0" x="111.008" y="86.2756" width="797.578" height="115.449"/>
</a>
<a href="https://en.wikipedia.org/wiki/ISBN_(identifier)">
<rect fill="black" fill-opacity="0" x="675.735" y="182.276" width="159.095" height="115.449"/>
</a>
<a href="https://en.wikipedia.org/wiki/Special:BookSources/978-0-8014-9718-6">
<rect fill="black" fill-opacity="0" x="856.991" y="182.276" width="536.779" height="115.449"/>
</a>
<a href="https://en.wikipedia.org/wiki/ISBN_(identifier)">
<rect fill="black" fill-opacity="0" x="1156.99" y="594.808" width="159.095" height="115.449"/>
</a>
<a href="https://en.wikipedia.org/wiki/Special:BookSources/978-0-393-97282-5">
<rect fill="black" fill-opacity="0" x="111.008" y="690.808" width="528.283" height="115.449"/>
</a>
<a href="https://en.wikipedia.org/wiki/Leo_Ruickbie">
<rect fill="black" fill-opacity="0" x="111.008" y="815.34" width="391.991" height="115.449"/>
</a>
<a href="https://en.wikipedia.org/wiki/ISBN_(identifier)">
<rect fill="black" fill-opacity="0" x="111.008" y="1007.34" width="159.095" height="115.449"/>
</a>
<a href="https://en.wikipedia.org/wiki/Special:BookSources/978-0-7509-5090-9">
<rect fill="black" fill-opacity="0" x="292.264" y="1007.34" width="523.192" height="115.449"/>
</a>
<path d="M220.592 257.128V295H194.956V257.128H220.592ZM281.189 257.128V295H255.553V257.128H281.189ZM374.414 257.128V295L298.67 371.035L348.777 295V257.128H374.414ZM435.099 143.514V181.385H409.463V143.514H435.099ZM409.463 295V257.128H435.099V295H409.463ZM528.324 143.514V181.385H502.688V143.514H528.324ZM452.581 371.035L502.688 295V257.128H528.324V295L452.581 371.035ZM589.009 257.128V295H563.373V257.128H589.009ZM563.373 219.257V67.7704H589.009V219.257H563.373ZM713.697 143.514L637.953 219.257L688.06 143.514V67.7704H713.697V143.514ZM612.317 143.514L662.716 67.7704H688.06L612.317 143.514ZM662.424 295V257.128H688.06V295H662.424ZM774.214 200.321V238.193H748.578V200.321H774.214ZM809.174 155.749H860.447V207.021H809.174V155.749ZM996.172 130.404H955.387L984.228 159.245L975.197 168.276L946.356 139.435V180.22H933.538V139.435L904.698 168.276L895.667 159.245L924.507 130.404H883.723V117.586H924.507L895.667 88.7455L904.698 79.7146L933.538 108.555V67.7704H946.356V108.555L975.197 79.7146L984.228 88.7455L955.387 117.586H996.172V130.404ZM1204.69 225.375H1139.73L1070.4 295L1116.42 225.375H1041.26L1006.3 295L1029.61 225.375H1001.93V212.556H1033.98L1054.96 149.923H1002.23V137.105H1063.4L1132.74 67.4791L1086.71 137.105H1161.87L1196.83 67.4791L1173.52 137.105H1204.98V149.923H1169.15L1148.18 212.556H1204.69V225.375ZM1047.67 212.556H1124L1155.46 149.923H1079.13L1047.67 212.556ZM1336.16 219.257H1240.02V206.439H1336.16V219.257ZM1486.51 219.257H1359.5V206.439H1486.51V219.257ZM1712.46 219.257H1509.7V206.439H1712.46V219.257ZM1864.04 333.454H1735.86V320.636H1864.04V333.454ZM815.79 560.385L891.825 408.899L841.135 560.385L765.101 711.872L815.79 560.385ZM1002.84 560.385L1053.53 711.872L977.496 560.385L926.806 408.899L1002.84 560.385ZM1073.83 598.548V522.514L1149.87 371.027L1099.47 522.514V598.548L1149.87 750.035L1073.83 598.548ZM1231.74 598.548L1155.71 750.035L1206.11 598.548V522.514L1155.71 371.027L1231.74 522.514V598.548ZM1302.55 674V610.784L1272.54 565.629L1252.15 586.021L1269.05 560.385L1252.15 534.749L1272.54 555.141L1302.55 509.987V446.77L1378.58 371.027L1328.19 446.77V509.987L1277.79 560.385L1328.19 610.784V674L1378.29 750.035L1302.55 674ZM1460.47 674L1384.73 750.035L1434.84 674V610.784L1485.24 560.385L1434.84 509.987V446.77L1384.44 371.027L1460.47 446.77V509.987L1490.48 555.141L1510.87 534.749L1493.98 560.385L1510.87 586.021L1490.48 565.629L1460.47 610.784V674ZM1531.3 674V446.77L1607.33 371.027L1556.93 446.77V674L1607.04 750.035L1531.3 674ZM1689.21 674L1613.46 750.035L1663.57 674V446.77L1613.17 371.027L1689.21 446.77V674ZM1709.61 601.17L1785.36 525.135L1735.25 601.17L1785.36 677.205L1709.61 601.17ZM1867.01 601.17L1791.26 677.205L1841.37 601.17L1791.26 525.135L1867.01 601.17ZM625.131 1015.13V1053L549.388 1129.03L599.495 1053V1015.13H625.131ZM645.614 1115.93L712.618 1015.13H746.411L645.614 1115.93ZM679.407 1115.93L746.411 1015.13H780.204L679.407 1115.93ZM920.743 838.88L853.739 939.677H819.946L920.743 838.88ZM786.153 939.677L886.95 838.88L819.946 939.677H786.153ZM926.692 939.677L993.696 838.88H1027.49L926.692 939.677ZM960.485 939.677L1027.49 838.88H1061.28L960.485 939.677ZM1168.03 838.88L1101.02 939.677H1067.23L1168.03 838.88ZM1173.92 939.677L1240.92 838.88H1274.71L1173.92 939.677ZM1324.3 980.17L1400.04 904.135L1349.93 980.17L1400.04 1056.2L1324.3 980.17ZM1283.51 980.17L1359.26 904.135L1309.15 980.17L1359.26 1056.2L1283.51 980.17ZM1487.56 980.17L1411.82 1056.2L1461.93 980.17L1411.82 904.135L1487.56 980.17ZM1452.6 1056.2L1502.71 980.17L1452.6 904.135L1528.35 980.17L1452.6 1056.2ZM1537.21 980.17L1612.96 904.135L1562.85 980.17L1612.96 1056.2L1537.21 980.17ZM1694.6 980.17L1618.86 1056.2L1668.97 980.17L1618.86 904.135L1694.6 980.17ZM1740.71 914.623H1715.08V838.88H1740.71V914.623ZM1766.35 914.623V838.88H1791.99V914.623H1766.35ZM1852.52 914.623H1826.88V838.88H1852.52V914.623ZM658.633 1432L679.899 1368.2L671.742 1355.97L680.773 1365L709.031 1280.51L784.774 1204.77L734.667 1280.51L688.347 1372.57L737.289 1421.51L751.855 1399.08L730.297 1356.26L705.244 1381.31L772.247 1280.51H806.04L730.589 1355.97L760.595 1386.26L780.404 1355.97H806.04L768.169 1393.84L806.04 1431.71H768.169L755.642 1406.66L739.037 1423.26L747.485 1431.71L797.592 1507.74L721.849 1431.71L686.017 1377.52L658.633 1432ZM784.774 1204.77L860.517 1280.51L896.35 1334.99L923.734 1280.51L902.467 1344.31L910.624 1356.55L901.593 1347.52L873.335 1432L797.592 1507.74L847.699 1432L894.019 1339.94L834.881 1280.51L784.774 1204.77ZM806.04 1432V1280.51H831.677V1432H806.04ZM1028.07 1432H1002.44V1280.8H977.091L956.99 1250.22L926.692 1280.51L951.746 1242.64L926.692 1204.77L956.99 1235.07L977.091 1204.77H1028.07V1432ZM1040.89 1432V1204.77H1066.53V1432H1040.89ZM1092.69 1432L1109.58 1381.31L1092.69 1355.97L1111.62 1374.9L1143.09 1280.51L1218.83 1204.77L1168.72 1280.51L1118.03 1381.31L1168.43 1431.71L1218.54 1507.74L1142.79 1431.71L1114.25 1388.88L1092.69 1432ZM1184.74 1432V1280.51H1210.38V1432H1184.74ZM1210.38 1432L1286.42 1356.26L1236.02 1432H1210.38ZM1210.38 1280.51H1236.02L1286.42 1356.26L1210.38 1280.51ZM1218.54 1507.74L1268.64 1432L1319.33 1331.2L1268.94 1280.51L1218.83 1204.77L1294.57 1280.51L1323.12 1323.63L1344.68 1280.51L1327.78 1330.91L1344.68 1356.55L1325.74 1337.61L1294.28 1432L1218.54 1507.74ZM1366.57 1166.9H1392.21V1469.87H1366.57V1166.9ZM1485.73 1432V1356.26L1435.33 1204.77L1485.73 1305.28V1204.77H1511.36V1356.26L1561.47 1432L1511.36 1381.89V1432H1485.73ZM1409.69 1267.99L1485.73 1419.47H1460.38L1409.69 1267.99ZM1511.36 1217.59H1536.71L1587.4 1369.07L1511.36 1217.59ZM1610.8 1204.77H1636.44V1299.16H1699.95V1311.98H1636.44V1324.79H1699.95V1337.61H1636.44V1432H1610.8V1337.61H1599.15V1324.79H1610.8V1311.98H1599.15V1299.16H1610.8V1204.77ZM1636.44 1432L1712.18 1356.26L1661.79 1432H1636.44ZM1636.44 1204.77H1661.79L1712.18 1280.51L1636.44 1204.77ZM1769.21 1204.77V1367.91H1818.73V1380.73H1769.21V1432H1743.57V1380.73H1717.93V1367.91H1743.57V1204.77H1769.21ZM1769.21 1356.26L1812.61 1291L1769.21 1204.77H1794.55L1819.9 1280.22L1870 1204.77L1824.85 1295.08L1845.24 1356.26L1819.6 1305.28L1794.26 1356.26H1769.21ZM550.168 1706.71H500.352V1756.52H487.534V1706.71H437.719V1693.89H487.534V1644.07H500.352V1693.89H550.168V1706.71ZM674.207 1693.89V1706.71H561.757V1693.89H674.207ZM777.27 1744.58L742.021 1709.33L706.771 1744.58L697.74 1735.55L732.99 1700.3L697.74 1665.05L706.771 1656.02L742.021 1691.27L777.27 1656.02L786.301 1665.05L751.051 1700.3L786.301 1735.55L777.27 1744.58ZM922.284 1693.89V1706.71H809.834V1693.89H922.284ZM853.241 1751.57V1725.93H878.877V1751.57H853.241ZM853.241 1674.66V1649.03H878.877V1674.66H853.241ZM1047.49 1725.93H933.873V1713.12H1047.49V1725.93ZM933.873 1687.48V1674.66H1047.49V1687.48H933.873ZM1230.93 1710.2V1811H1205.29V1710.2H1230.93ZM1056.14 1697.68L1073.03 1672.04L1056.14 1646.4L1076.53 1666.8L1106.53 1621.64H1131.88L1081.77 1672.04L1131.88 1722.44H1106.53L1076.53 1677.28L1056.14 1697.68ZM1126.93 1848.87L1177.62 1697.39L1253.65 1545.9L1202.96 1697.39L1126.93 1848.87ZM1131.88 1722.44V1621.64H1157.52V1722.44H1131.88ZM1230.93 1811L1281.04 1760.6L1230.93 1710.2H1256.27L1286.28 1755.36L1306.67 1734.97L1289.77 1760.6L1306.67 1786.24L1286.28 1765.85L1256.27 1811H1230.93ZM1362.57 1811V1682.82H1388.21V1811H1362.57ZM1312.46 1682.82L1372.77 1622.52L1362.57 1607.08L1375.39 1619.89L1388.21 1607.08L1378.01 1622.52L1438.31 1682.82H1412.68L1375.39 1626.59L1338.1 1682.82H1312.46ZM1586.93 1700.3L1511.19 1776.33L1557.22 1706.71H1444.18V1693.89H1557.22L1511.19 1624.26L1586.93 1700.3ZM1642.8 1607.08H1668.43V1735.26H1642.8V1607.08ZM1592.69 1735.26H1618.32L1655.61 1791.48L1692.9 1735.26H1718.54L1658.24 1795.56L1668.43 1811L1655.61 1798.18L1642.8 1811L1652.99 1795.56L1592.69 1735.26ZM1724.41 1700.3L1800.15 1624.26L1754.12 1693.89H1867.16V1706.71H1754.12L1800.15 1776.33L1724.41 1700.3Z" fill="white"/>
</svg>
