<svg width="1920" height="1920" viewBox="0 0 1920 1920" fill="none" xmlns="http://www.w3.org/2000/svg">
<rect width="1920" height="1920" fill="white"/>
<path d="M1202.65 1352.94L1093.01 1462.58L1165.89 1352.94H1202.65ZM1107.58 1517.72L1202.65 1374.8V1352.94H1230.54V1421.7L1299.3 1352.94L1189.97 1517.72H1134.52L1202.65 1449.59V1382.09L1134.52 1517.72H1107.58Z" fill="black"/>
<path d="M979.422 1352.94H1007.31V1517.72L1062.13 1682.5L979.422 1517.72V1352.94ZM1007.31 1517.72L1048.19 1435.33L1007.31 1352.94L1089.7 1435.33L1007.31 1517.72Z" fill="black"/>
<path d="M926.354 1352.94L843.964 1517.72L898.785 1352.94H926.354ZM816.078 1517.72V1352.94H843.964V1517.72H816.078ZM871.533 1682.18L926.354 1517.72V1352.94H954.24V1517.72L871.533 1682.18Z" fill="black"/>
<path d="M680.561 1352.94L707.813 1435.01L735.382 1352.94H762.951L713.517 1451.81L735.382 1517.72L707.813 1462.9L680.244 1517.72L702.426 1451.81L652.675 1352.94H680.561ZM624.789 1517.72V1352.94H652.675V1517.72H624.789ZM762.951 1517.72V1352.94H790.837V1517.72H762.951Z" fill="black"/>
<path d="M1473.9 1398.83L1521.12 1469.49L1568.01 1398.83L1521.12 1328.16L1473.9 1398.83ZM1437.14 1398.83L1515.73 1320.24L1494.81 1288.87L1521.12 1314.85L1547.1 1288.87L1526.19 1320.24L1604.77 1398.83L1526.19 1477.41L1547.1 1508.79L1521.12 1482.48L1494.81 1508.79L1515.73 1477.41L1437.14 1398.83Z" fill="black"/>
<path d="M1326.95 1316.37H1354.83V1481.15H1326.95V1316.37ZM1354.83 1316.37H1396.03L1437.22 1398.44L1354.83 1316.37Z" fill="black"/>
<path d="M1183.34 1398.83L1230.55 1469.49L1277.45 1398.83L1230.55 1328.16L1183.34 1398.83ZM1146.58 1398.83L1225.17 1320.24L1204.25 1288.87L1230.55 1314.85L1256.54 1288.87L1235.62 1320.24L1314.21 1398.83L1235.62 1477.41L1256.54 1508.79L1230.55 1482.48L1204.25 1508.79L1225.17 1477.41L1146.58 1398.83Z" fill="black"/>
<path d="M979.224 1316.37H1116.75V1481.15L1171.89 1564.49L1088.87 1481.15V1344.25H1007.11V1481.15L924.086 1564.49L979.224 1481.15V1316.37Z" fill="black"/>
<path d="M949.536 1371.51L876.652 1481.15H839.894L922.284 1398.76L894.715 1371.51L881.089 1398.76H839.894L881.089 1357.56L839.894 1316.37H867.463L889.328 1349.32L922.284 1316.37L898.834 1363.58L922.284 1398.76L949.536 1371.51ZM812.008 1481.15V1316.37H839.894V1481.15H812.008Z" fill="black"/>
<path d="M758.682 1316.37H786.568V1481.15H758.682V1316.37ZM594.219 1481.15L758.682 1316.37L649.357 1481.15H594.219Z" fill="black"/>
<path d="M606.95 1371.51L534.066 1481.15H497.308L579.698 1398.76L552.129 1371.51L538.503 1398.76H497.308L538.503 1357.56L497.308 1316.37H524.877L546.742 1349.32L579.698 1316.37L556.248 1363.58L579.698 1398.76L606.95 1371.51ZM469.422 1481.15V1316.37H497.308V1481.15H469.422Z" fill="black"/>
<path d="M389.355 1179.51L334.534 1343.97V1372.17H416.291V1316.4H444.177V1453.29L361.786 1617.76L416.291 1453.29V1400.06H334.534V1480.86H306.648V1343.97L389.355 1179.51Z" fill="black"/>
<path d="M1276.65 1380.54L1349.85 1490.5L1239.89 1380.54L1349.85 1270.58L1276.65 1380.54ZM1212.01 1462.93V1298.15H1239.89V1462.93H1212.01Z" fill="black"/>
<path d="M1158.85 1298.08L1076.46 1462.86L1131.28 1298.08H1158.85ZM1048.57 1462.86V1298.08H1076.46V1462.86H1048.57ZM1104.03 1627.33L1158.85 1462.86V1298.08H1186.73V1462.86L1104.03 1627.33Z" fill="black"/>
<path d="M995.509 1407.47H940.688L885.867 1243L995.509 1407.47ZM995.509 1462.92V1298.14H1023.4V1462.92H995.509Z" fill="black"/>
<path d="M845.137 1298.08L803.942 1339.28L845.137 1380.47H803.625L789.999 1353.22L762.43 1380.47L785.879 1344.98L762.43 1298.08L795.386 1331.04L817.251 1298.08H845.137ZM762.43 1462.86L845.137 1380.47L803.942 1462.86H762.43ZM845.137 1462.86V1298.08H873.023V1462.86H845.137Z" fill="black"/>
<path d="M636.491 1298.08L663.743 1380.16L691.312 1298.08H718.881L669.447 1396.95L691.312 1462.86L663.743 1408.04L636.174 1462.86L658.356 1396.95L608.605 1298.08H636.491ZM580.719 1462.86V1298.08H608.605V1462.86H580.719ZM718.881 1462.86V1298.08H746.767V1462.86H718.881Z" fill="black"/>
<path d="M1459.99 1261.55L1377.6 1426.33L1432.43 1261.55H1459.99ZM1349.72 1426.33V1261.55H1377.6V1426.33H1349.72ZM1377.6 1261.55L1460.31 1097.08L1405.49 1261.55H1377.6ZM1405.17 1590.79L1459.99 1426.33V1261.55H1487.88V1426.33L1405.17 1590.79Z" fill="black"/>
<path d="M1192.61 1426.31L1083.29 1261.53L1161.24 1339.49L1182.79 1296.39L1165.36 1261.53L1185.33 1291.64L1234.44 1193.72L1196.42 1308.43L1275 1426.31H1248.07L1193.57 1317.31L1179.94 1358.18L1248.07 1426.31H1192.61ZM1254.41 1358.18L1337.11 1193.72L1282.29 1358.18H1254.41Z" fill="black"/>
<path d="M1015.86 1124.65L961.042 1289.12V1317.32H1042.8V1261.55H1070.68V1398.44L988.294 1562.9L1042.8 1398.44V1345.2H961.042V1426.01H933.156V1289.12L1015.86 1124.65Z" fill="black"/>
<path d="M806.945 1261.51H834.831V1426.29L889.652 1591.07L806.945 1426.29V1261.51ZM834.831 1426.29L875.709 1343.9L834.831 1261.51L917.221 1343.9L834.831 1426.29Z" fill="black"/>
<path d="M629.536 1371.47L643.479 1385.09L629.536 1426.29H601.967L613.692 1402.52L601.967 1385.41L684.357 1261.51L629.536 1371.47ZM497.078 1591.07L588.658 1453.54L519.577 1591.07H497.078ZM519.577 1591.07L684.357 1426.29L575.032 1591.07H519.577ZM629.536 1426.29L794.316 1261.51L684.674 1426.29H629.536Z" fill="black"/>
<path d="M508.064 1261.51L398.422 1371.15L471.305 1261.51H508.064ZM412.999 1426.29L508.064 1283.37V1261.51H535.95V1330.27L604.714 1261.51L495.389 1426.29H439.934L508.064 1358.16V1290.66L439.934 1426.29H412.999Z" fill="black"/>
<path d="M1675.56 1224.93H1703.45V1389.71L1758.27 1554.49L1675.56 1389.71V1224.93ZM1703.45 1389.71L1744.33 1307.32L1703.45 1224.93L1785.84 1307.32L1703.45 1389.71Z" fill="black"/>
<path d="M1410.93 1372.66C1410.93 1364.85 1412.83 1359.36 1416.63 1356.19C1420.44 1353.02 1424.98 1351.43 1430.26 1351.43C1435.75 1351.43 1440.4 1353.02 1444.2 1356.19C1448.22 1359.36 1450.22 1364.85 1450.22 1372.66C1450.22 1380.27 1448.22 1385.76 1444.2 1389.14C1440.4 1392.52 1435.75 1394.21 1430.26 1394.21C1424.98 1394.21 1420.44 1392.52 1416.63 1389.14C1412.83 1385.76 1410.93 1380.27 1410.93 1372.66Z" fill="black"/>
<path d="M1326.15 1372.66C1326.15 1364.85 1328.05 1359.36 1331.85 1356.19C1335.66 1353.02 1340.2 1351.43 1345.48 1351.43C1350.97 1351.43 1355.62 1353.02 1359.42 1356.19C1363.44 1359.36 1365.44 1364.85 1365.44 1372.66C1365.44 1380.27 1363.44 1385.76 1359.42 1389.14C1355.62 1392.52 1350.97 1394.21 1345.48 1394.21C1340.2 1394.21 1335.66 1392.52 1331.85 1389.14C1328.05 1385.76 1326.15 1380.27 1326.15 1372.66Z" fill="black"/>
<path d="M1241.28 1372.66C1241.28 1364.85 1243.18 1359.36 1246.99 1356.19C1250.79 1353.02 1255.33 1351.43 1260.61 1351.43C1266.1 1351.43 1270.75 1353.02 1274.55 1356.19C1278.57 1359.36 1280.58 1364.85 1280.58 1372.66C1280.58 1380.27 1278.57 1385.76 1274.55 1389.14C1270.75 1392.52 1266.1 1394.21 1260.61 1394.21C1255.33 1394.21 1250.79 1392.52 1246.99 1389.14C1243.18 1385.76 1241.28 1380.27 1241.28 1372.66Z" fill="black"/>
<path d="M1134.43 1224.93L1024.79 1334.58L1097.67 1224.93H1134.43ZM1039.37 1389.71L1134.43 1246.8V1224.93H1162.32V1293.7L1231.08 1224.93L1121.76 1389.71H1066.3L1134.43 1321.58V1254.09L1066.3 1389.71H1039.37Z" fill="black"/>
<path d="M957.426 1088.08L902.605 1252.55V1280.75H984.361V1224.98H1012.25V1361.87L929.857 1526.33L984.361 1361.87V1308.63H902.605V1389.44H874.719V1252.55L957.426 1088.08Z" fill="black"/>
<path d="M731.048 1307.39L778.264 1378.06L825.163 1307.39L778.264 1236.73L731.048 1307.39ZM694.289 1307.39L772.877 1228.81L751.962 1197.43L778.264 1223.42L804.248 1197.43L783.334 1228.81L861.921 1307.39L783.334 1385.98L804.248 1417.35L778.264 1391.05L751.962 1417.35L772.877 1385.98L694.289 1307.39Z" fill="black"/>
<path d="M580.719 1224.93H608.605V1389.71L663.426 1554.49L580.719 1389.71V1224.93ZM608.605 1389.71L649.483 1307.32L608.605 1224.93L690.995 1307.32L608.605 1389.71Z" fill="black"/>
<path d="M437.04 1307.39L484.256 1378.06L531.155 1307.39L484.256 1236.73L437.04 1307.39ZM400.281 1307.39L478.869 1228.81L457.954 1197.43L484.256 1223.42L510.24 1197.43L489.326 1228.81L567.914 1307.39L489.326 1385.98L510.24 1417.35L484.256 1391.05L457.954 1417.35L478.869 1385.98L400.281 1307.39Z" fill="black"/>
<path d="M290.148 1225L345.286 1142.61L334.195 1125.82L400.108 1060.22L352.892 1130.89L358.913 1142.29L317.717 1225V1389.78H290.148V1225ZM317.717 1389.78L358.913 1307.07L317.717 1225L400.424 1307.39L317.717 1389.78Z" fill="black"/>
<path d="M146.477 1307.39L193.693 1378.06L240.592 1307.39L193.693 1236.73L146.477 1307.39ZM109.719 1307.39L188.306 1228.81L167.392 1197.43L193.693 1223.42L219.678 1197.43L198.763 1228.81L277.351 1307.39L198.763 1385.98L219.678 1417.35L193.693 1391.05L167.392 1417.35L188.306 1385.98L109.719 1307.39Z" fill="black"/>
<path d="M1404.36 1206.64L1363.16 1247.84L1404.36 1289.03H1362.84L1349.22 1261.78L1321.65 1289.03L1345.1 1253.54L1321.65 1206.64L1354.6 1239.6L1376.47 1206.64H1404.36ZM1321.65 1371.42L1404.36 1289.03L1363.16 1371.42H1321.65ZM1404.36 1371.42V1206.64H1432.24V1371.42H1404.36Z" fill="black"/>
<path d="M1187.48 1289.1L1234.69 1359.77L1281.59 1289.1L1234.69 1218.44L1187.48 1289.1ZM1150.72 1289.1L1229.31 1210.52L1208.39 1179.14L1234.69 1205.13L1260.68 1179.14L1239.76 1210.52L1318.35 1289.1L1239.76 1367.69L1260.68 1399.06L1234.69 1372.76L1208.39 1399.06L1229.31 1367.69L1150.72 1289.1Z" fill="black"/>
<path d="M898.719 1354.38C898.719 1346.56 900.62 1341.07 904.423 1337.9C908.225 1334.73 912.767 1333.15 918.049 1333.15C923.541 1333.15 928.189 1334.73 931.992 1337.9C936.006 1341.07 938.013 1346.56 938.013 1354.38C938.013 1361.98 936.006 1367.48 931.992 1370.86C928.189 1374.24 923.541 1375.93 918.049 1375.93C912.767 1375.93 908.225 1374.24 904.423 1370.86C900.62 1367.48 898.719 1361.98 898.719 1354.38Z" fill="black"/>
<path d="M813.922 1354.38C813.922 1346.56 815.823 1341.07 819.626 1337.9C823.428 1334.73 827.97 1333.15 833.252 1333.15C838.745 1333.15 843.392 1334.73 847.195 1337.9C851.209 1341.07 853.216 1346.56 853.216 1354.38C853.216 1361.98 851.209 1367.48 847.195 1370.86C843.392 1374.24 838.745 1375.93 833.252 1375.93C827.97 1375.93 823.428 1374.24 819.626 1370.86C815.823 1367.48 813.922 1361.98 813.922 1354.38Z" fill="black"/>
<path d="M729.156 1354.38C729.156 1346.56 731.058 1341.07 734.86 1337.9C738.663 1334.73 743.205 1333.15 748.486 1333.15C753.979 1333.15 758.627 1334.73 762.429 1337.9C766.443 1341.07 768.45 1346.56 768.45 1354.38C768.45 1361.98 766.443 1367.48 762.429 1370.86C758.627 1374.24 753.979 1375.93 748.486 1375.93C743.205 1375.93 738.663 1374.24 734.86 1370.86C731.058 1367.48 729.156 1361.98 729.156 1354.38Z" fill="black"/>
<path d="M644.352 1354.38C644.352 1346.56 646.253 1341.07 650.055 1337.9C653.858 1334.73 658.4 1333.15 663.682 1333.15C669.174 1333.15 673.822 1334.73 677.624 1337.9C681.638 1341.07 683.645 1346.56 683.645 1354.38C683.645 1361.98 681.638 1367.48 677.624 1370.86C673.822 1374.24 669.174 1375.93 663.682 1375.93C658.4 1375.93 653.858 1374.24 650.055 1370.86C646.253 1367.48 644.352 1361.98 644.352 1354.38Z" fill="black"/>
<path d="M490.634 1289.1L537.85 1359.77L584.749 1289.1L537.85 1218.44L490.634 1289.1ZM453.875 1289.1L532.463 1210.52L511.548 1179.14L537.85 1205.13L563.834 1179.14L542.92 1210.52L621.507 1289.1L542.92 1367.69L563.834 1399.06L537.85 1372.76L511.548 1399.06L532.463 1367.69L453.875 1289.1Z" fill="black"/>
<path d="M1429.59 1262.29V1237.57H1506.27V1262.29H1429.59Z" fill="black"/>
<path d="M1142.8 1170.07L1033.16 1279.72L1106.04 1170.07H1142.8ZM1047.73 1334.85L1142.8 1191.94V1170.07H1170.68V1238.84L1239.45 1170.07L1130.12 1334.85H1074.67L1142.8 1266.72V1199.23L1074.67 1334.85H1047.73Z" fill="black"/>
<path d="M974.468 1170.07L892.078 1252.46L933.273 1170.07H974.468ZM892.078 1334.85L933.273 1252.46H974.468L892.078 1334.85ZM947.533 1417.24L1002.35 1252.46H1029.92L947.533 1417.24ZM974.468 1252.46V1170.07H1002.35V1252.46H974.468Z" fill="black"/>
<path d="M804.861 1170.07L695.219 1279.72L768.102 1170.07H804.861ZM709.795 1334.85L804.861 1191.94V1170.07H832.747V1238.84L901.511 1170.07L792.186 1334.85H736.731L804.861 1266.72V1199.23L736.731 1334.85H709.795Z" fill="black"/>
<path d="M654.549 1170.07H682.435V1334.85H654.549V1170.07ZM490.086 1334.85L654.549 1170.07L545.224 1334.85H490.086Z" fill="black"/>
<path d="M392.578 1170.07H420.464V1334.85H392.578V1170.07ZM420.464 1170.07H461.659L502.854 1252.15L420.464 1170.07Z" fill="black"/>
<path d="M1047.63 1215.96L1094.84 1286.63L1141.74 1215.96L1094.84 1145.3L1047.63 1215.96ZM1010.87 1215.96L1089.45 1137.38L1068.54 1106.01L1094.84 1131.99L1120.83 1106.01L1099.91 1137.38L1178.5 1215.96L1099.91 1294.55L1120.83 1325.92L1094.84 1299.62L1068.54 1325.92L1089.45 1294.55L1010.87 1215.96Z" fill="black"/>
<path d="M900.648 1133.51H928.534V1298.29H900.648V1133.51ZM928.534 1133.51H969.729L1010.92 1215.58L928.534 1133.51Z" fill="black"/>
<path d="M757.04 1215.96L804.256 1286.63L851.155 1215.96L804.256 1145.3L757.04 1215.96ZM720.281 1215.96L798.869 1137.38L777.954 1106.01L804.256 1131.99L830.24 1106.01L809.326 1137.38L887.914 1215.96L809.326 1294.55L830.24 1325.92L804.256 1299.62L777.954 1325.92L798.869 1294.55L720.281 1215.96Z" fill="black"/>
<path d="M1520.15 978.359L1465.33 1142.82V1171.03H1547.09V1115.25H1574.97V1252.15L1492.58 1416.61L1547.09 1252.15V1198.91H1465.33V1279.72H1437.45V1142.82L1520.15 978.359Z" fill="black"/>
<path d="M1357.36 978.359L1302.54 1142.82V1171.03H1384.3V1115.25H1412.18V1252.15L1329.79 1416.61L1384.3 1252.15V1198.91H1302.54V1279.72H1274.66V1142.82L1357.36 978.359Z" fill="black"/>
<path d="M1221.28 1115.22L1180.08 1156.42L1221.28 1197.61H1179.77L1166.14 1170.36L1138.57 1197.61L1162.02 1162.12L1138.57 1115.22L1171.53 1148.18L1193.39 1115.22H1221.28ZM1138.57 1280L1221.28 1197.61L1180.08 1280H1138.57ZM1221.28 1280V1115.22H1249.16V1280H1221.28Z" fill="black"/>
<path d="M1094.74 1115.22H1122.63V1280H1094.74V1115.22ZM930.281 1280L1094.74 1115.22L985.419 1280H930.281Z" fill="black"/>
<path d="M888.73 1197.68L961.931 1307.64L851.972 1197.68L961.931 1087.72L888.73 1197.68ZM824.086 1280.07V1115.29H851.972V1280.07H824.086Z" fill="black"/>
<path d="M811.536 1170.36L738.652 1280H701.894L784.284 1197.61L756.715 1170.36L743.089 1197.61H701.894L743.089 1156.42L701.894 1115.22H729.463L751.328 1148.18L784.284 1115.22L760.834 1162.44L784.284 1197.61L811.536 1170.36ZM674.008 1280V1115.22H701.894V1280H674.008Z" fill="black"/>
<path d="M547.559 1115.22L464.852 1197.93L506.364 1115.22H547.559ZM547.559 1280V1115.22H575.444V1280H547.559ZM575.444 1115.22H616.64L658.152 1197.93L575.444 1115.22Z" fill="black"/>
<path d="M461.853 1170.04L388.652 1280H351.894L434.284 1197.61L351.894 1115.22H379.78L434.601 1197.29L461.853 1170.04ZM324.008 1280V1115.22H351.894V1280H324.008Z" fill="black"/>
<path d="M1368.36 1161.11L1441.56 1271.07L1331.6 1161.11L1441.56 1051.15L1368.36 1161.11ZM1303.72 1243.5V1078.72H1331.6V1243.5H1303.72Z" fill="black"/>
<path d="M1250.63 1078.65L1168.24 1243.43L1223.06 1078.65H1250.63ZM1140.35 1243.43V1078.65H1168.24V1243.43H1140.35ZM1195.81 1407.89L1250.63 1243.43V1078.65H1278.51V1243.43L1195.81 1407.89Z" fill="black"/>
<path d="M1087.22 1188.04H1032.4L977.578 1023.58L1087.22 1188.04ZM1087.22 1243.49V1078.71H1115.11V1243.49H1087.22Z" fill="black"/>
<path d="M937.135 1078.69L854.745 1243.47L909.566 1078.69H937.135ZM826.859 1243.47V1078.69H854.745V1243.47H826.859ZM854.745 1078.69L937.452 914.223L882.631 1078.69H854.745ZM882.314 1407.93L937.135 1243.47V1078.69H965.021V1243.47L882.314 1407.93Z" fill="black"/>
<path d="M730.158 1078.65L620.516 1188.29L693.399 1078.65H730.158ZM635.092 1243.43L730.158 1100.52V1078.65H758.044V1147.41L826.808 1078.65L717.482 1243.43H662.028L730.158 1175.3V1107.8L662.028 1243.43H635.092Z" fill="black"/>
<path d="M561.812 1078.65L479.422 1161.04L520.617 1078.65H561.812ZM479.422 1243.43L520.617 1161.04H561.812L479.422 1243.43ZM534.877 1325.82L589.698 1161.04H617.267L534.877 1325.82ZM561.812 1161.04V1078.65H589.698V1161.04H561.812Z" fill="black"/>
<path d="M1610.56 1060.4L1528.17 1225.18L1582.99 1060.4H1610.56ZM1500.28 1225.18V1060.4H1528.17V1225.18H1500.28ZM1528.17 1060.4L1610.87 895.939L1556.05 1060.4H1528.17ZM1555.74 1389.65L1610.56 1225.18V1060.4H1638.44V1225.18L1555.74 1389.65Z" fill="black"/>
<path d="M1343.11 1225.17L1233.79 1060.39L1311.74 1138.34L1333.29 1095.24L1315.86 1060.39L1335.83 1090.49L1384.94 992.574L1346.92 1107.29L1425.5 1225.17H1398.57L1344.07 1116.16L1330.44 1157.04L1398.57 1225.17H1343.11ZM1404.91 1157.04L1487.61 992.574L1432.79 1157.04H1404.91Z" fill="black"/>
<path d="M1166.43 923.506L1111.6 1087.97V1116.17H1193.36V1060.4H1221.25V1197.29L1138.86 1361.76L1193.36 1197.29V1144.06H1111.6V1224.86H1083.72V1087.97L1166.43 923.506Z" fill="black"/>
<path d="M1030.57 1169.75H975.751L920.93 1005.29L1030.57 1169.75ZM1030.57 1225.21V1060.43H1058.46V1225.21H1030.57Z" fill="black"/>
<path d="M921.098 1115.5L848.215 1225.15H811.456L893.846 1142.76L866.277 1115.5L852.651 1142.76H811.456L852.651 1101.56L811.456 1060.37H839.025L860.89 1093.32L893.846 1060.37L870.397 1107.58L893.846 1142.76L921.098 1115.5ZM783.57 1225.15V1060.37H811.456V1225.15H783.57Z" fill="black"/>
<path d="M703.488 923.506L648.667 1087.97V1116.17H730.424V1060.4H758.309V1197.29L675.919 1361.76L730.424 1197.29V1144.06H648.667V1224.86H620.781V1087.97L703.488 923.506Z" fill="black"/>
<path d="M567.401 1060.37H595.287V1225.15H567.401V1060.37ZM402.938 1225.15L567.401 1060.37L458.076 1225.15H402.938Z" fill="black"/>
<path d="M284.618 1142.82L331.834 1213.49L378.733 1142.82L331.834 1072.16L284.618 1142.82ZM247.859 1142.82L326.447 1064.24L305.532 1032.87L331.834 1058.85L357.819 1032.87L336.904 1064.24L415.492 1142.82L336.904 1221.41L357.819 1252.78L331.834 1226.48L305.532 1252.78L326.447 1221.41L247.859 1142.82Z" fill="black"/>
<path d="M1474.01 1171.52C1474.01 1163.71 1475.91 1158.21 1479.71 1155.04C1483.51 1151.88 1488.06 1150.29 1493.34 1150.29C1498.83 1150.29 1503.48 1151.88 1507.28 1155.04C1511.29 1158.21 1513.3 1163.71 1513.3 1171.52C1513.3 1179.13 1511.29 1184.62 1507.28 1188C1503.48 1191.38 1498.83 1193.07 1493.34 1193.07C1488.06 1193.07 1483.51 1191.38 1479.71 1188C1475.91 1184.62 1474.01 1179.13 1474.01 1171.52Z" fill="black"/>
<path d="M1389.22 1171.52C1389.22 1163.71 1391.12 1158.21 1394.92 1155.04C1398.73 1151.88 1403.27 1150.29 1408.55 1150.29C1414.04 1150.29 1418.69 1151.88 1422.49 1155.04C1426.51 1158.21 1428.51 1163.71 1428.51 1171.52C1428.51 1179.13 1426.51 1184.62 1422.49 1188C1418.69 1191.38 1414.04 1193.07 1408.55 1193.07C1403.27 1193.07 1398.73 1191.38 1394.92 1188C1391.12 1184.62 1389.22 1179.13 1389.22 1171.52Z" fill="black"/>
<path d="M1304.42 1171.52C1304.42 1163.71 1306.32 1158.21 1310.13 1155.04C1313.93 1151.88 1318.47 1150.29 1323.75 1150.29C1329.24 1150.29 1333.89 1151.88 1337.69 1155.04C1341.71 1158.21 1343.72 1163.71 1343.72 1171.52C1343.72 1179.13 1341.71 1184.62 1337.69 1188C1333.89 1191.38 1329.24 1193.07 1323.75 1193.07C1318.47 1193.07 1313.93 1191.38 1310.13 1188C1306.32 1184.62 1304.42 1179.13 1304.42 1171.52Z" fill="black"/>
<path d="M1197.58 1023.79L1087.94 1133.43L1160.82 1023.79H1197.58ZM1102.51 1188.57L1197.58 1045.65V1023.79H1225.47V1092.55L1294.23 1023.79L1184.9 1188.57H1129.45L1197.58 1120.44V1052.94L1129.45 1188.57H1102.51Z" fill="black"/>
<path d="M1020.5 886.936L965.675 1051.4V1079.6H1047.43V1023.83H1075.32V1160.72L992.927 1325.19L1047.43 1160.72V1107.49H965.675V1188.29H937.789V1051.4L1020.5 886.936Z" fill="black"/>
<path d="M794.188 1106.25L841.404 1176.91L888.303 1106.25L841.404 1035.58L794.188 1106.25ZM757.43 1106.25L836.017 1027.66L815.103 996.287L841.404 1022.27L867.389 996.287L846.474 1027.66L925.062 1106.25L846.474 1184.83L867.389 1216.21L841.404 1189.9L815.103 1216.21L836.017 1184.83L757.43 1106.25Z" fill="black"/>
<path d="M643.875 1023.79H671.761V1188.57L726.582 1353.35L643.875 1188.57V1023.79ZM671.761 1188.57L712.639 1106.18L671.761 1023.79L754.151 1106.18L671.761 1188.57Z" fill="black"/>
<path d="M500.181 1106.25L547.396 1176.91L594.295 1106.25L547.396 1035.58L500.181 1106.25ZM463.422 1106.25L542.009 1027.66L521.095 996.287L547.396 1022.27L573.381 996.287L552.467 1027.66L631.054 1106.25L552.467 1184.83L573.381 1216.21L547.396 1189.9L521.095 1216.21L542.009 1184.83L463.422 1106.25Z" fill="black"/>
<path d="M353.227 1023.86L408.365 941.468L397.274 924.673L463.186 859.078L415.97 929.744L421.991 941.151L380.796 1023.86V1188.64H353.227V1023.86ZM380.796 1188.64L421.991 1105.93L380.796 1023.86L463.503 1106.25L380.796 1188.64Z" fill="black"/>
<path d="M209.618 1106.25L256.834 1176.91L303.733 1106.25L256.834 1035.58L209.618 1106.25ZM172.859 1106.25L251.447 1027.66L230.532 996.287L256.834 1022.27L282.819 996.287L261.904 1027.66L340.492 1106.25L261.904 1184.83L282.819 1216.21L256.834 1189.9L230.532 1216.21L251.447 1184.83L172.859 1106.25Z" fill="black"/>
<path d="M1150.93 987.219L1109.74 1028.41L1150.93 1069.61H1109.42L1095.8 1042.36L1068.23 1069.61L1091.68 1034.12L1068.23 987.219L1101.18 1020.17L1123.05 987.219H1150.93ZM1068.23 1152L1150.93 1069.61L1109.74 1152H1068.23ZM1150.93 1152V987.219H1178.82V1152H1150.93Z" fill="black"/>
<path d="M934.056 1069.68L981.271 1140.34L1028.17 1069.68L981.271 999.013L934.056 1069.68ZM897.297 1069.68L975.884 991.09L954.97 959.719L981.271 985.703L1007.26 959.719L986.342 991.09L1064.93 1069.68L986.342 1148.27L1007.26 1179.64L981.271 1153.34L954.97 1179.64L975.884 1148.27L897.297 1069.68Z" fill="black"/>
<path d="M1619.94 1116.67C1619.94 1108.85 1621.84 1103.36 1625.64 1100.19C1629.44 1097.02 1633.99 1095.44 1639.27 1095.44C1644.76 1095.44 1649.41 1097.02 1653.21 1100.19C1657.22 1103.36 1659.23 1108.85 1659.23 1116.67C1659.23 1124.27 1657.22 1129.77 1653.21 1133.15C1649.41 1136.53 1644.76 1138.22 1639.27 1138.22C1633.99 1138.22 1629.44 1136.53 1625.64 1133.15C1621.84 1129.77 1619.94 1124.27 1619.94 1116.67Z" fill="black"/>
<path d="M1535.15 1116.67C1535.15 1108.85 1537.05 1103.36 1540.85 1100.19C1544.66 1097.02 1549.2 1095.44 1554.48 1095.44C1559.97 1095.44 1564.62 1097.02 1568.42 1100.19C1572.44 1103.36 1574.44 1108.85 1574.44 1116.67C1574.44 1124.27 1572.44 1129.77 1568.42 1133.15C1564.62 1136.53 1559.97 1138.22 1554.48 1138.22C1549.2 1138.22 1544.66 1136.53 1540.85 1133.15C1537.05 1129.77 1535.15 1124.27 1535.15 1116.67Z" fill="black"/>
<path d="M1450.35 1116.67C1450.35 1108.85 1452.25 1103.36 1456.06 1100.19C1459.86 1097.02 1464.4 1095.44 1469.68 1095.44C1475.17 1095.44 1479.82 1097.02 1483.62 1100.19C1487.64 1103.36 1489.65 1108.85 1489.65 1116.67C1489.65 1124.27 1487.64 1129.77 1483.62 1133.15C1479.82 1136.53 1475.17 1138.22 1469.68 1138.22C1464.4 1138.22 1459.86 1136.53 1456.06 1133.15C1452.25 1129.77 1450.35 1124.27 1450.35 1116.67Z" fill="black"/>
<path d="M1365.56 1116.67C1365.56 1108.85 1367.46 1103.36 1371.27 1100.19C1375.07 1097.02 1379.61 1095.44 1384.89 1095.44C1390.39 1095.44 1395.03 1097.02 1398.84 1100.19C1402.85 1103.36 1404.86 1108.85 1404.86 1116.67C1404.86 1124.27 1402.85 1129.77 1398.84 1133.15C1395.03 1136.53 1390.39 1138.22 1384.89 1138.22C1379.61 1138.22 1375.07 1136.53 1371.27 1133.15C1367.46 1129.77 1365.56 1124.27 1365.56 1116.67Z" fill="black"/>
<path d="M1211.77 1051.39L1258.99 1122.06L1305.89 1051.39L1258.99 980.727L1211.77 1051.39ZM1175.02 1051.39L1253.6 972.805L1232.69 941.434L1258.99 967.418L1284.97 941.434L1264.06 972.805L1342.65 1051.39L1264.06 1129.98L1284.97 1161.35L1258.99 1135.05L1232.69 1161.35L1253.6 1129.98L1175.02 1051.39Z" fill="black"/>
<path d="M1085.56 1061.15V1036.43H1162.25V1061.15H1085.56Z" fill="black"/>
<path d="M820.93 1116.67C820.93 1108.85 822.831 1103.36 826.634 1100.19C830.436 1097.02 834.978 1095.44 840.26 1095.44C845.752 1095.44 850.4 1097.02 854.203 1100.19C858.217 1103.36 860.223 1108.85 860.223 1116.67C860.223 1124.27 858.217 1129.77 854.203 1133.15C850.4 1136.53 845.752 1138.22 840.26 1138.22C834.978 1138.22 830.436 1136.53 826.634 1133.15C822.831 1129.77 820.93 1124.27 820.93 1116.67Z" fill="black"/>
<path d="M736.148 1116.67C736.148 1108.85 738.05 1103.36 741.852 1100.19C745.655 1097.02 750.197 1095.44 755.478 1095.44C760.971 1095.44 765.619 1097.02 769.421 1100.19C773.435 1103.36 775.442 1108.85 775.442 1116.67C775.442 1124.27 773.435 1129.77 769.421 1133.15C765.619 1136.53 760.971 1138.22 755.478 1138.22C750.197 1138.22 745.655 1136.53 741.852 1133.15C738.05 1129.77 736.148 1124.27 736.148 1116.67Z" fill="black"/>
<path d="M651.359 1116.67C651.359 1108.85 653.261 1103.36 657.063 1100.19C660.866 1097.02 665.408 1095.44 670.689 1095.44C676.182 1095.44 680.83 1097.02 684.632 1100.19C688.646 1103.36 690.653 1108.85 690.653 1116.67C690.653 1124.27 688.646 1129.77 684.632 1133.15C680.83 1136.53 676.182 1138.22 670.689 1138.22C665.408 1138.22 660.866 1136.53 657.063 1133.15C653.261 1129.77 651.359 1124.27 651.359 1116.67Z" fill="black"/>
<path d="M566.578 1116.67C566.578 1108.85 568.479 1103.36 572.282 1100.19C576.085 1097.02 580.627 1095.44 585.908 1095.44C591.401 1095.44 596.048 1097.02 599.851 1100.19C603.865 1103.36 605.872 1108.85 605.872 1116.67C605.872 1124.27 603.865 1129.77 599.851 1133.15C596.048 1136.53 591.401 1138.22 585.908 1138.22C580.627 1138.22 576.085 1136.53 572.282 1133.15C568.479 1129.77 566.578 1124.27 566.578 1116.67Z" fill="black"/>
<path d="M503.284 968.969L420.894 1133.75L475.715 968.969H503.284ZM393.008 1133.75V968.969H420.894V1133.75H393.008ZM420.894 968.969L503.601 804.506L448.78 968.969H420.894ZM448.463 1298.21L503.284 1133.75V968.969H531.17V1133.75L448.463 1298.21Z" fill="black"/>
<path d="M339.932 968.934L257.542 1133.71L312.363 968.934H339.932ZM229.656 1133.71V968.934H257.542V1133.71H229.656ZM285.111 1298.18L339.932 1133.71V968.934H367.818V1133.71L285.111 1298.18Z" fill="black"/>
<path d="M1725.29 795.504L1670.46 959.967V988.17H1752.22V932.398H1780.11V1069.29L1697.72 1233.76L1752.22 1069.29V1016.06H1670.46V1096.86H1642.58V959.967L1725.29 795.504Z" fill="black"/>
<path d="M1545.85 932.363L1436.21 1042.01L1509.09 932.363H1545.85ZM1450.79 1097.14L1545.85 954.228V932.363H1573.74V1001.13L1642.5 932.363L1533.18 1097.14H1477.72L1545.85 1029.01V961.517L1477.72 1097.14H1450.79Z" fill="black"/>
<path d="M1368.79 795.504L1313.96 959.967V988.17H1395.72V932.398H1423.61V1069.29L1341.22 1233.76L1395.72 1069.29V1016.06H1313.96V1096.86H1286.08V959.967L1368.79 795.504Z" fill="black"/>
<path d="M1233 932.363L1150.61 1097.14L1205.43 932.363H1233ZM1122.73 1097.14V932.363H1150.61V1097.14H1122.73ZM1178.18 1261.61L1233 1097.14V932.363H1260.89V1097.14L1178.18 1261.61Z" fill="black"/>
<path d="M987.272 932.363L1014.52 1014.44L1042.09 932.363H1069.66L1020.23 1031.23L1042.09 1097.14L1014.52 1042.32L986.955 1097.14L1009.14 1031.23L959.386 932.363H987.272ZM931.5 1097.14V932.363H959.386V1097.14H931.5ZM1069.66 1097.14V932.363H1097.55V1097.14H1069.66Z" fill="black"/>
<path d="M787.837 1014.82L835.053 1085.49L881.952 1014.82L835.053 944.157L787.837 1014.82ZM751.078 1014.82L829.666 936.235L808.751 904.863L835.053 930.848L861.037 904.863L840.123 936.235L918.71 1014.82L840.123 1093.41L861.037 1124.78L835.053 1098.48L808.751 1124.78L829.666 1093.41L751.078 1014.82Z" fill="black"/>
<path d="M583.708 932.363H721.236V1097.14L776.374 1180.48L693.351 1097.14V960.249H611.594V1097.14L528.57 1180.48L583.708 1097.14V932.363Z" fill="black"/>
<path d="M554.056 987.184L480.856 1097.14H444.097L526.487 1014.75L444.097 932.363H471.983L526.804 1014.44L554.056 987.184ZM416.211 1097.14V932.363H444.097V1097.14H416.211Z" fill="black"/>
<path d="M272.54 1014.82L319.756 1085.49L366.655 1014.82L319.756 944.157L272.54 1014.82ZM235.781 1014.82L314.369 936.235L293.454 904.863L319.756 930.848L345.74 904.863L324.826 936.235L403.414 1014.82L324.826 1093.41L345.74 1124.78L319.756 1098.48L293.454 1124.78L314.369 1093.41L235.781 1014.82Z" fill="black"/>
<path d="M201.265 960.255L174.013 987.507L229.468 1042.65L146.761 1125.04L187.956 1042.33L164.823 996.697L146.761 1014.76V1097.15H118.875V932.369H146.761V1000.82L158.486 983.388L146.761 960.255L162.922 976.416L173.696 960.255L118.875 877.865L201.265 960.255Z" fill="black"/>
<path d="M1313.22 895.793L1272.03 936.988L1313.22 978.183H1271.71L1258.08 950.931L1230.52 978.183L1253.97 942.692L1230.52 895.793L1263.47 928.749L1285.34 895.793H1313.22ZM1230.52 1060.57L1313.22 978.183L1272.03 1060.57H1230.52ZM1313.22 1060.57V895.793H1341.11V1060.57H1313.22Z" fill="black"/>
<path d="M1144.76 1060.6L1035.43 895.817L1113.38 973.771L1134.93 930.675L1117.5 895.817L1137.47 925.921L1186.58 828.004L1148.56 942.716L1227.15 1060.6H1200.21L1145.71 951.589L1132.08 992.467L1200.21 1060.6H1144.76Z" fill="black"/>
<path d="M912.631 895.793L939.883 977.866L967.452 895.793H995.021L945.587 994.661L967.452 1060.57L939.883 1005.75L912.314 1060.57L934.496 994.661L884.745 895.793H912.631ZM856.859 1060.57V895.793H884.745V1060.57H856.859ZM995.021 1060.57V895.793H1022.91V1060.57H995.021Z" fill="black"/>
<path d="M713.259 978.252L760.475 1048.92L807.374 978.252L760.475 907.587L713.259 978.252ZM676.5 978.252L755.088 899.665L734.173 868.293L760.475 894.278L786.459 868.293L765.545 899.665L844.132 978.252L765.545 1056.84L786.459 1088.21L760.475 1061.91L734.173 1088.21L755.088 1056.84L676.5 978.252Z" fill="black"/>
<path d="M622.285 978.252L695.486 1088.21L585.527 978.252L695.486 868.293L622.285 978.252ZM557.641 1060.64V895.862H585.527V1060.64H557.641Z" fill="black"/>
<path d="M1256.43 877.508L1173.72 960.215L1215.23 877.508H1256.43ZM1256.43 1042.29V877.508H1284.31V1042.29H1256.43ZM1284.31 877.508H1325.51L1367.02 960.215L1284.31 877.508Z" fill="black"/>
<path d="M1129.85 877.508L1088.65 918.703L1129.85 959.898H1088.34L1074.71 932.646L1047.14 959.898L1070.59 924.407L1047.14 877.508L1080.1 910.464L1101.96 877.508H1129.85ZM1047.14 1042.29L1129.85 959.898L1088.65 1042.29H1047.14ZM1129.85 1042.29V877.508H1157.73V1042.29H1129.85Z" fill="black"/>
<path d="M876.638 877.508H1014.17V1042.29L1069.3 1125.63L986.28 1042.29V905.394H904.524V1042.29L821.5 1125.63L876.638 1042.29V877.508Z" fill="black"/>
<path d="M715.915 959.967L763.131 1030.63L810.03 959.967L763.131 889.302L715.915 959.967ZM679.156 959.967L757.744 881.379L736.829 850.008L763.131 875.992L789.115 850.008L768.201 881.379L846.789 959.967L768.201 1038.55L789.115 1069.93L763.131 1043.62L736.829 1069.93L757.744 1038.55L679.156 959.967Z" fill="black"/>
<path d="M679.275 932.329L606.074 1042.29H569.316L651.706 959.898L569.316 877.508H597.201L652.023 959.581L679.275 932.329ZM541.43 1042.29V877.508H569.316V1042.29H541.43Z" fill="black"/>
<path d="M1615.95 896.077L1543.07 1005.72H1506.31L1588.7 923.33L1561.13 896.077L1547.5 923.33H1506.31L1547.5 882.135L1506.31 840.939H1533.88L1555.74 873.896L1588.7 840.939L1565.25 888.155L1588.7 923.33L1615.95 896.077ZM1478.42 1005.72V840.939H1506.31V1005.72H1478.42Z" fill="black"/>
<path d="M1425.03 840.939H1452.91V1005.72H1425.03V840.939ZM1260.56 1005.72L1425.03 840.939L1315.7 1005.72H1260.56Z" fill="black"/>
<path d="M1159.72 840.939H1187.6V1005.72L1242.43 1170.5L1159.72 1005.72V840.939ZM1187.6 1005.72L1228.48 923.33L1187.6 840.939L1269.99 923.33L1187.6 1005.72Z" fill="black"/>
<path d="M1016.05 923.399L1063.26 994.064L1110.16 923.399L1063.26 852.733L1016.05 923.399ZM979.289 923.399L1057.88 844.811L1036.96 813.439L1063.26 839.424L1089.25 813.439L1068.33 844.811L1146.92 923.399L1068.33 1001.99L1089.25 1033.36L1063.26 1007.06L1036.96 1033.36L1057.88 1001.99L979.289 923.399Z" fill="black"/>
<path d="M869.156 840.939H897.042V1005.72H869.156V840.939ZM897.042 840.939H938.237L979.432 923.013L897.042 840.939Z" fill="black"/>
<path d="M694.968 868.824L667.716 896.076L723.171 951.214L640.464 1033.6L681.659 950.897L658.526 905.266L640.464 923.328V1005.72H612.578V840.938H640.464V909.385L652.189 891.956L640.464 868.824L656.625 884.985L667.399 868.824L612.578 786.434L694.968 868.824Z" fill="black"/>
<path d="M1379.94 970.376C1379.94 962.559 1381.84 957.067 1385.64 953.898C1389.44 950.729 1393.99 949.145 1399.27 949.145C1404.76 949.145 1409.41 950.729 1413.21 953.898C1417.22 957.067 1419.23 962.559 1419.23 970.376C1419.23 977.981 1417.22 983.474 1413.21 986.854C1409.41 990.234 1404.76 991.924 1399.27 991.924C1393.99 991.924 1389.44 990.234 1385.64 986.854C1381.84 983.474 1379.94 977.981 1379.94 970.376Z" fill="black"/>
<path d="M1316.47 822.645H1344.36V987.425H1316.47V822.645ZM1152.01 987.425L1316.47 822.645L1207.15 987.425H1152.01Z" fill="black"/>
<path d="M1118.65 822.645L1009.01 932.287L1081.89 822.645H1118.65ZM1023.58 987.425L1118.65 844.51V822.645H1146.54V891.409L1215.3 822.645L1105.97 987.425H1050.52L1118.65 919.295V851.798L1050.52 987.425H1023.58Z" fill="black"/>
<path d="M895.285 822.645L812.578 905.352L854.09 822.645H895.285ZM895.285 987.425V822.645H923.171V987.425H895.285ZM923.171 822.645H964.366L1005.88 905.352L923.171 822.645Z" fill="black"/>
<path d="M809.493 877.466L736.293 987.425H699.534L781.924 905.035L699.534 822.645H727.42L782.241 904.718L809.493 877.466ZM671.648 987.425V822.645H699.534V987.425H671.648Z" fill="black"/>
<path d="M494.317 932.604L508.26 946.23L494.317 987.425H466.748L478.473 963.658L466.748 946.547L549.139 822.645L494.317 932.604ZM361.859 1152.21L453.439 1014.68L384.358 1152.21H361.859ZM384.358 1152.21L549.139 987.425L439.813 1152.21H384.358ZM494.317 987.425L659.098 822.645L549.455 987.425H494.317Z" fill="black"/>
<path d="M1467.43 868.535L1540.63 978.494L1430.67 868.535L1540.63 758.576L1467.43 868.535ZM1402.79 950.925V786.145H1430.67V950.925H1402.79Z" fill="black"/>
<path d="M1349.63 786.076L1267.24 950.856L1322.06 786.076H1349.63ZM1239.35 950.856V786.076H1267.24V950.856H1239.35ZM1294.81 1115.32L1349.63 950.856V786.076H1377.51V950.856L1294.81 1115.32Z" fill="black"/>
<path d="M1113.16 786.076H1141.04V950.856L1195.86 1115.64L1113.16 950.856V786.076ZM1141.04 950.856L1181.92 868.466L1141.04 786.076L1223.43 868.466L1141.04 950.856Z" fill="black"/>
<path d="M1016.35 786.076L906.711 895.718L979.595 786.076H1016.35ZM921.288 950.856L1016.35 807.941V786.076H1044.24V854.84L1113 786.076L1003.68 950.856H948.223L1016.35 882.726V815.23L948.223 950.856H921.288Z" fill="black"/>
<path d="M839.355 649.223L784.534 813.686V841.889H866.291V786.117H894.177V923.011L811.786 1087.47L866.291 923.011V869.775H784.534V950.58H756.648V813.686L839.355 649.223Z" fill="black"/>
<path d="M612.97 868.535L660.186 939.201L707.084 868.535L660.186 797.87L612.97 868.535ZM576.211 868.535L654.798 789.948L633.884 758.576L660.186 784.561L686.17 758.576L665.256 789.948L743.843 868.535L665.256 947.123L686.17 978.494L660.186 952.193L633.884 978.494L654.798 947.123L576.211 868.535Z" fill="black"/>
<path d="M490.706 786.076V950.856L545.527 1115.64L476.763 978.742L407.999 1115.64L462.82 950.856V786.076H490.706ZM380.43 868.466L462.82 786.076L421.942 868.466L462.82 950.856L380.43 868.466ZM490.706 950.856L531.584 868.466L490.706 786.076L573.096 868.466L490.706 950.856Z" fill="black"/>
<path d="M1309.57 749.538L1227.17 914.318L1282 749.538H1309.57ZM1199.29 914.318V749.538H1227.17V914.318H1199.29ZM1227.17 749.538L1309.88 585.074L1255.06 749.538H1227.17ZM1254.74 1078.78L1309.57 914.318V749.538H1337.45V914.318L1254.74 1078.78Z" fill="black"/>
<path d="M1146.21 749.506L1063.82 914.286L1118.64 749.506H1146.21ZM1035.93 914.286V749.506H1063.82V914.286H1035.93ZM1091.38 1078.75L1146.21 914.286V749.506H1174.09V914.286L1091.38 1078.75Z" fill="black"/>
<path d="M955.863 612.645L901.042 777.108V805.311H982.798V749.539H1010.68V886.433L928.294 1050.9L982.798 886.433V833.197H901.042V914.002H873.156V777.108L955.863 612.645Z" fill="black"/>
<path d="M798.544 749.506L716.154 831.896L757.032 749.506H798.544ZM661.016 997.31L716.154 831.896H771.292L661.016 997.31ZM771.292 996.676L826.43 831.896H853.999L771.292 996.676ZM798.544 831.896V749.506H826.43V831.896H798.544Z" fill="black"/>
<path d="M699.028 804.644L626.145 914.286H589.386L671.776 831.896L644.207 804.644L630.581 831.896H589.386L630.581 790.701L589.386 749.506H616.955L638.82 782.462L671.776 749.506L648.327 796.722L671.776 831.896L699.028 804.644ZM561.5 914.286V749.506H589.386V914.286H561.5Z" fill="black"/>
<path d="M1735.89 731.221H1763.78V896.001H1735.89V731.221ZM1571.43 896.001L1735.89 731.221L1626.57 896.001H1571.43Z" fill="black"/>
<path d="M1615.85 786.042L1542.65 896.001H1505.89L1588.28 813.611L1505.89 731.221H1533.78L1588.6 813.294L1615.85 786.042ZM1478.01 896.001V731.221H1505.89V896.001H1478.01Z" fill="black"/>
<path d="M1334.34 813.68L1381.55 884.345L1428.45 813.68L1381.55 743.014L1334.34 813.68ZM1297.58 813.68L1376.17 735.092L1355.25 703.721L1381.55 729.705L1407.54 703.721L1386.62 735.092L1465.21 813.68L1386.62 892.267L1407.54 923.639L1381.55 897.338L1355.25 923.639L1376.17 892.267L1297.58 813.68Z" fill="black"/>
<path d="M1083.63 862.775C1081.73 870.169 1079.3 878.197 1076.34 886.858C1073.38 895.52 1070.11 904.076 1066.52 912.526C1063.14 921.187 1059.76 929.321 1056.38 936.926H1035.78C1037.89 928.898 1039.9 920.237 1041.8 910.941C1043.91 901.857 1045.82 892.879 1047.51 884.006C1049.2 874.922 1050.57 866.683 1051.63 859.289H1081.41L1083.63 862.775Z" fill="black"/>
<path d="M982.104 731.221H1009.99V896.001H982.104V731.221ZM817.641 896.001L982.104 731.221L872.779 896.001H817.641Z" fill="black"/>
<path d="M723.911 896.033L614.586 731.253L692.54 809.207L714.088 766.11L696.659 731.253L716.623 761.357L765.74 663.439L727.714 778.152L806.301 896.033H779.366L724.862 787.025L711.236 827.903L779.366 896.033H723.911ZM785.704 827.903L868.411 663.439L813.59 827.903H785.704Z" fill="black"/>
<path d="M526.277 731.221L443.57 813.928L485.082 731.221H526.277ZM526.277 896.001V731.221H554.163V896.001H526.277ZM554.163 731.221H595.358L636.87 813.928L554.163 731.221Z" fill="black"/>
<path d="M440.486 786.042L367.285 896.001H330.527L412.917 813.611L330.527 731.221H358.412L413.234 813.294L440.486 786.042ZM302.641 896.001V731.221H330.527V896.001H302.641Z" fill="black"/>
<path d="M158.985 813.68L206.201 884.345L253.1 813.68L206.201 743.014L158.985 813.68ZM122.227 813.68L200.814 735.092L179.9 703.721L206.201 729.705L232.186 703.721L211.271 735.092L289.859 813.68L211.271 892.267L232.186 923.639L206.201 897.338L179.9 923.639L200.814 892.267L122.227 813.68Z" fill="black"/>
<path d="M1510 777.111L1583.2 887.071L1473.24 777.111L1583.2 667.152L1510 777.111ZM1445.35 859.502V694.721H1473.24V859.502H1445.35Z" fill="black"/>
<path d="M1392.22 694.652L1309.83 859.433L1364.65 694.652H1392.22ZM1281.95 859.433V694.652H1309.83V859.433H1281.95ZM1337.4 1023.9L1392.22 859.433V694.652H1420.11V859.433L1337.4 1023.9Z" fill="black"/>
<path d="M1228.55 694.652H1256.44V859.433H1228.55V694.652ZM1064.09 859.433L1228.55 694.652L1119.22 859.433H1064.09Z" fill="black"/>
<path d="M966.578 694.714L1021.72 612.324L1010.63 595.529L1076.54 529.934L1029.32 600.599L1035.34 612.007L994.147 694.714V859.494H966.578V694.714ZM994.147 859.494L1035.34 776.787L994.147 694.714L1076.85 777.104L994.147 859.494Z" fill="black"/>
<path d="M869.861 694.652L760.219 804.295L833.102 694.652H869.861ZM774.795 859.433L869.861 716.517V694.652H897.747V763.416L966.511 694.652L857.186 859.433H801.731L869.861 791.302V723.806L801.731 859.433H774.795Z" fill="black"/>
<path d="M646.648 694.652H674.534V859.433L729.355 1024.21L646.648 859.433V694.652ZM674.534 859.433L715.413 777.042L674.534 694.652L756.924 777.042L674.534 859.433Z" fill="black"/>
<path d="M502.97 777.111L550.186 847.777L597.085 777.111L550.186 706.446L502.97 777.111ZM466.211 777.111L544.798 698.524L523.884 667.152L550.186 693.137L576.17 667.152L555.256 698.524L633.843 777.111L555.256 855.699L576.17 887.071L550.186 860.769L523.884 887.071L544.798 855.699L466.211 777.111Z" fill="black"/>
<path d="M412.004 777.111L485.204 887.071L375.245 777.111L485.204 667.152L412.004 777.111ZM347.359 859.502V694.721H375.245V859.502H347.359Z" fill="black"/>
<path d="M1465.21 658.114L1382.82 822.894L1437.64 658.114H1465.21ZM1354.94 822.894V658.114H1382.82V822.894H1354.94ZM1382.82 658.114L1465.53 493.65L1410.71 658.114H1382.82ZM1410.39 987.357L1465.21 822.894V658.114H1493.1V822.894L1410.39 987.357Z" fill="black"/>
<path d="M1301.85 658.082L1219.46 822.862L1274.29 658.082H1301.85ZM1191.58 822.862V658.082H1219.46V822.862H1191.58ZM1247.03 987.326L1301.85 822.862V658.082H1329.74V822.862L1247.03 987.326Z" fill="black"/>
<path d="M1111.5 521.221L1056.67 685.684V713.887H1138.43V658.115H1166.32V795.009L1083.93 959.473L1138.43 795.009V741.773H1056.67V822.578H1028.79V685.684L1111.5 521.221Z" fill="black"/>
<path d="M954.177 658.082L871.786 740.472L912.665 658.082H954.177ZM816.648 905.886L871.786 740.472H926.924L816.648 905.886ZM926.924 905.252L982.062 740.472H1009.63L926.924 905.252ZM954.177 740.472V658.082H982.062V740.472H954.177Z" fill="black"/>
<path d="M854.669 713.22L781.785 822.862H745.027L827.417 740.472L799.848 713.22L786.222 740.472H745.027L786.222 699.277L745.027 658.082H772.595L794.461 691.038L827.417 658.082L803.967 705.298L827.417 740.472L854.669 713.22ZM717.141 822.862V658.082H745.027V822.862H717.141Z" fill="black"/>
<path d="M663.815 658.082H691.701V822.862H663.815V658.082ZM499.352 822.862L663.815 658.082L554.49 822.862H499.352Z" fill="black"/>
<path d="M543.712 712.903L470.512 822.862H433.753L516.143 740.472L433.753 658.082H461.639L516.46 740.155L543.712 712.903ZM405.867 822.862V658.082H433.753V822.862H405.867Z" fill="black"/>
<path d="M1626.91 722.252L1674.12 792.917L1721.02 722.252L1674.12 651.587L1626.91 722.252ZM1590.15 722.252L1668.74 643.665L1647.82 612.293L1674.12 638.278L1700.11 612.293L1679.19 643.665L1757.78 722.252L1679.19 800.84L1700.11 832.211L1674.12 805.91L1647.82 832.211L1668.74 800.84L1590.15 722.252Z" fill="black"/>
<path d="M1338.23 787.518C1338.23 779.702 1340.13 774.209 1343.93 771.04C1347.73 767.872 1352.28 766.287 1357.56 766.287C1363.05 766.287 1367.7 767.872 1371.5 771.04C1375.51 774.209 1377.52 779.702 1377.52 787.518C1377.52 795.124 1375.51 800.616 1371.5 803.996C1367.7 807.377 1363.05 809.067 1357.56 809.067C1352.28 809.067 1347.73 807.377 1343.93 803.996C1340.13 800.616 1338.23 795.124 1338.23 787.518Z" fill="black"/>
<path d="M1274.93 639.829L1192.54 804.609L1247.36 639.829H1274.93ZM1164.66 804.609V639.829H1192.54V804.609H1164.66ZM1192.54 639.829L1275.25 475.365L1220.43 639.829H1192.54ZM1220.11 969.072L1274.93 804.609V639.829H1302.82V804.609L1220.11 969.072Z" fill="black"/>
<path d="M1152.11 694.931L1079.23 804.573H1042.47L1124.86 722.183L1097.29 694.931L1083.67 722.183H1042.47L1083.67 680.988L1042.47 639.793H1070.04L1091.91 672.749L1124.86 639.793L1101.41 687.009L1124.86 722.183L1152.11 694.931ZM1014.59 804.573V639.793H1042.47V804.573H1014.59Z" fill="black"/>
<path d="M934.504 502.938L879.683 667.401V695.604H961.439V639.832H989.325V776.726L906.935 941.19L961.439 776.726V723.49H879.683V804.295H851.797V667.401L934.504 502.938Z" fill="black"/>
<path d="M756.536 804.6L647.211 639.819L725.165 717.773L746.713 674.677L729.284 639.819L749.248 669.923L798.365 572.006L760.339 686.718L838.926 804.6H811.991L757.487 695.591L743.861 736.469L811.991 804.6H756.536Z" fill="black"/>
<path d="M606.541 639.793H634.427V804.573H606.541V639.793ZM442.078 804.573L606.541 639.793L497.216 804.573H442.078Z" fill="black"/>
<path d="M414.362 639.793L331.972 804.573L386.793 639.793H414.362ZM304.086 804.573V639.793H331.972V804.573H304.086ZM359.541 969.037L414.362 804.573V639.793H442.248V804.573L359.541 969.037Z" fill="black"/>
<path d="M291.501 694.614L218.301 804.573H181.542L263.932 722.183L181.542 639.793H209.428L264.249 721.866L291.501 694.614ZM153.656 804.573V639.793H181.542V804.573H153.656Z" fill="black"/>
<path d="M1539.85 603.219L1498.65 644.414L1539.85 685.609H1498.34L1484.71 658.357L1457.14 685.609L1480.59 650.118L1457.14 603.219L1490.1 636.175L1511.96 603.219H1539.85ZM1457.14 767.999L1539.85 685.609L1498.65 767.999H1457.14ZM1539.85 767.999V603.219H1567.73V767.999H1539.85Z" fill="black"/>
<path d="M1454.13 658.04L1380.93 767.999H1344.17L1426.56 685.609L1344.17 603.219H1372.05L1426.87 685.292L1454.13 658.04ZM1316.28 767.999V603.219H1344.17V767.999H1316.28Z" fill="black"/>
<path d="M1262.89 603.219H1290.77V767.999H1262.89V603.219ZM1098.42 767.999L1262.89 603.219L1153.56 767.999H1098.42Z" fill="black"/>
<path d="M1065.07 603.219L955.43 712.861L1028.31 603.219H1065.07ZM970.006 767.999L1065.07 625.084V603.219H1092.96V671.983L1161.72 603.219L1052.4 767.999H996.942L1065.07 699.869V632.372L996.942 767.999H970.006Z" fill="black"/>
<path d="M896.812 603.219L814.422 685.609L855.617 603.219H896.812ZM814.422 767.999L855.617 685.609H896.812L814.422 767.999ZM869.877 850.389L924.698 685.609H952.267L869.877 850.389ZM896.812 685.609V603.219H924.698V685.609H896.812Z" fill="black"/>
<path d="M727.134 603.219L617.492 712.861L690.376 603.219H727.134ZM632.069 767.999L727.134 625.084V603.219H755.02V671.983L823.784 603.219L714.459 767.999H659.004L727.134 699.869V632.372L659.004 767.999H632.069Z" fill="black"/>
<path d="M563.363 685.678L636.564 795.637L526.605 685.678L636.564 575.719L563.363 685.678ZM498.719 768.068V603.288H526.605V768.068H498.719Z" fill="black"/>
<path d="M355.048 685.678L402.264 756.343L449.163 685.678L402.264 615.013L355.048 685.678ZM318.289 685.678L396.877 607.09L375.962 575.719L402.264 601.703L428.248 575.719L407.334 607.09L485.921 685.678L407.334 764.265L428.248 795.637L402.264 769.336L375.962 795.637L396.877 764.265L318.289 685.678Z" fill="black"/>
<path d="M1076.28 584.934L993.57 667.641L1035.08 584.934H1076.28ZM1076.28 749.714V584.934H1104.16V749.714H1076.28ZM1104.16 584.934H1145.36L1186.87 667.641L1104.16 584.934Z" fill="black"/>
<path d="M990.536 640.072L917.652 749.714H880.894L963.284 667.324L935.715 640.072L922.089 667.324H880.894L922.089 626.129L880.894 584.934H908.463L930.328 617.89L963.284 584.934L939.834 632.149L963.284 667.324L990.536 640.072ZM853.008 749.714V584.934H880.894V749.714H853.008Z" fill="black"/>
<path d="M786.145 667.393L859.345 777.352L749.386 667.393L859.345 557.434L786.145 667.393ZM721.5 749.783V585.003H749.386V749.783H721.5Z" fill="black"/>
<path d="M1677.22 548.359L1567.58 658.002L1640.46 548.359H1677.22ZM1582.15 713.14L1677.22 570.224V548.359H1705.11V617.123L1773.87 548.359L1664.54 713.14H1609.09L1677.22 645.009V577.513L1609.09 713.14H1582.15Z" fill="black"/>
<path d="M1315.56 696.095C1315.56 688.278 1317.46 682.785 1321.27 679.617C1325.07 676.448 1329.61 674.863 1334.89 674.863C1340.39 674.863 1345.03 676.448 1348.84 679.617C1352.85 682.785 1354.86 688.278 1354.86 696.095C1354.86 703.7 1352.85 709.193 1348.84 712.573C1345.03 715.953 1340.39 717.643 1334.89 717.643C1329.61 717.643 1325.07 715.953 1321.27 712.573C1317.46 709.193 1315.56 703.7 1315.56 696.095Z" fill="black"/>
<path d="M1252.1 548.359H1279.99V713.14H1252.1V548.359ZM1087.64 713.14L1252.1 548.359L1142.78 713.14H1087.64Z" fill="black"/>
<path d="M1059.86 548.359L977.472 713.14L1032.29 548.359H1059.86ZM949.586 713.14V548.359H977.472V713.14H949.586ZM1005.04 877.603L1059.86 713.14V548.359H1087.75V713.14L1005.04 877.603Z" fill="black"/>
<path d="M874.958 548.359L792.568 630.75L833.446 548.359H874.958ZM737.43 796.164L792.568 630.75H847.706L737.43 796.164ZM847.706 795.53L902.844 630.75H930.413L847.706 795.53ZM874.958 630.75V548.359H902.844V630.75H874.958Z" fill="black"/>
<path d="M775.466 603.497L702.582 713.14H665.823L748.214 630.75L720.645 603.497L707.018 630.75H665.823L707.018 589.554L665.823 548.359H693.392L715.258 581.315L748.214 548.359L724.764 595.575L748.214 630.75L775.466 603.497ZM637.938 713.14V548.359H665.823V713.14H637.938Z" fill="black"/>
<path d="M515.086 548.431L570.224 466.041L559.133 449.246L625.045 383.65L577.829 454.316L583.85 465.724L542.655 548.431V713.211H515.086V548.431ZM542.655 713.211L583.85 630.504L542.655 548.431L625.362 630.821L542.655 713.211Z" fill="black"/>
<path d="M371.477 630.819L418.693 701.484L465.592 630.819L418.693 560.153L371.477 630.819ZM334.719 630.819L413.306 552.231L392.392 520.859L418.693 546.844L444.678 520.859L423.763 552.231L502.351 630.819L423.763 709.406L444.678 740.778L418.693 714.476L392.392 740.778L413.306 709.406L334.719 630.819Z" fill="black"/>
<path d="M167.365 548.359H304.893V713.14L360.031 796.48L277.007 713.14V576.245H195.25V713.14L112.227 796.48L167.365 713.14V548.359Z" fill="black"/>
<path d="M1572.23 511.789H1600.11V676.569L1654.93 841.35L1572.23 676.569V511.789ZM1600.11 676.569L1640.99 594.179L1600.11 511.789L1682.5 594.179L1600.11 676.569Z" fill="black"/>
<path d="M1519.07 511.789L1436.67 676.569L1491.5 511.789H1519.07ZM1408.79 676.569V511.789H1436.67V676.569H1408.79ZM1464.24 841.033L1519.07 676.569V511.789H1546.95V676.569L1464.24 841.033Z" fill="black"/>
<path d="M1273.35 511.789L1300.6 593.862L1328.17 511.789H1355.74L1306.31 610.657L1328.17 676.569L1300.6 621.748L1273.03 676.569L1295.21 610.657L1245.46 511.789H1273.35ZM1217.58 676.569V511.789H1245.46V676.569H1217.58ZM1355.74 676.569V511.789H1383.63V676.569H1355.74Z" fill="black"/>
<path d="M1037.57 511.827L955.183 676.607L1010 511.827H1037.57ZM927.297 676.607V511.827H955.183V676.607H927.297ZM955.183 511.827L1037.89 347.363L983.069 511.827H955.183ZM982.752 841.07L1037.57 676.607V511.827H1065.46V676.607L982.752 841.07Z" fill="black"/>
<path d="M770.193 676.601L660.867 511.821L738.821 589.775L760.369 546.679L742.94 511.821L762.904 541.925L812.021 444.008L773.995 558.72L852.583 676.601H825.647L771.143 567.593L757.517 608.471L825.647 676.601H770.193ZM831.985 608.471L914.692 444.008L859.871 608.471H831.985Z" fill="black"/>
<path d="M626.265 539.683L599.013 566.935L654.468 622.073L571.761 704.463L612.956 621.756L589.823 576.125L571.761 594.187V676.577H543.875V511.797H571.761V580.244L583.486 562.816L571.761 539.683L587.922 555.844L598.696 539.683L543.875 457.293L626.265 539.683Z" fill="black"/>
<path d="M400.266 594.248L447.482 664.914L494.381 594.248L447.482 523.583L400.266 594.248ZM363.508 594.248L442.095 515.661L421.181 484.289L447.482 510.274L473.467 484.289L452.553 515.661L531.14 594.248L452.553 672.836L473.467 704.207L447.482 677.906L421.181 704.207L442.095 672.836L363.508 594.248Z" fill="black"/>
<path d="M363.564 566.61L290.363 676.569H253.605L335.995 594.179L253.605 511.789H281.491L336.312 593.862L363.564 566.61ZM225.719 676.569V511.789H253.605V676.569H225.719Z" fill="black"/>
<path d="M1777.2 548.327L1704 658.286H1667.24L1749.63 575.896L1667.24 493.506H1695.12L1749.94 575.579L1777.2 548.327ZM1639.35 658.286V493.506H1667.24V658.286H1639.35Z" fill="black"/>
<path d="M1542.58 493.506L1432.94 603.148L1505.82 493.506H1542.58ZM1447.51 658.286L1542.58 515.371V493.506H1570.47V562.27L1639.23 493.506L1529.9 658.286H1474.45L1542.58 590.156V522.659L1474.45 658.286H1447.51Z" fill="black"/>
<path d="M1310.12 493.506L1337.38 575.579L1364.94 493.506H1392.51L1343.08 592.374L1364.94 658.286L1337.38 603.465L1309.81 658.286L1331.99 592.374L1282.24 493.506H1310.12ZM1254.35 658.286V493.506H1282.24V658.286H1254.35ZM1392.51 658.286V493.506H1420.4V658.286H1392.51Z" fill="black"/>
<path d="M1127.99 493.506L1045.28 576.213L1086.79 493.506H1127.99ZM1127.99 658.286V493.506H1155.87V658.286H1127.99ZM1155.87 493.506H1197.07L1238.58 576.213L1155.87 493.506Z" fill="black"/>
<path d="M1042.2 548.327L968.996 658.286H932.237L1014.63 575.896L932.237 493.506H960.123L1014.94 575.579L1042.2 548.327ZM904.352 658.286V493.506H932.237V658.286H904.352Z" fill="black"/>
<path d="M807.65 493.506L698.008 603.148L770.891 493.506H807.65ZM712.585 658.286L807.65 515.371V493.506H835.536V562.27L904.3 493.506L794.975 658.286H739.52L807.65 590.156V522.659L739.52 658.286H712.585Z" fill="black"/>
<path d="M657.323 493.506H685.209V658.286H657.323V493.506ZM492.859 658.286L657.323 493.506L547.997 658.286H492.859Z" fill="black"/>
<path d="M231.439 493.506L121.797 603.148L194.68 493.506H231.439ZM136.374 658.286L231.439 515.371V493.506H259.325V562.27L328.089 493.506L218.764 658.286H163.309L231.439 590.156V522.659L163.309 658.286H136.374Z" fill="black"/>
</svg>
