<svg width="1920" height="1920" viewBox="0 0 1920 1920" fill="none" xmlns="http://www.w3.org/2000/svg">
<rect width="1920" height="1920" fill="black"/>
<path d="M127.016 572.57H1792.71V596.37H127.016V572.57ZM143.982 1143.57H1780.22V1167.37H143.982V1143.57ZM239.74 1714.57H1665.27V1738.37H239.74V1714.57Z" fill="white"/>
<path d="M1305.4 1407.57V1655.09H1263.51V1407.57H1305.4ZM1305.4 1531.81L1387.74 1407.57H1429.16L1305.4 1531.81ZM1429.16 1655.09V1407.57H1471.04V1655.09H1429.16ZM1471.04 1531.81L1553.39 1407.57H1594.8L1471.04 1531.81ZM1594.8 1655.09V1407.57H1636.69V1655.09H1594.8Z" fill="white"/>
<path d="M1026.23 1531.24L1106.68 1651.67L1186.64 1531.24L1106.68 1410.81L1026.23 1531.24ZM971.016 1531.24L1100.49 1401.77L1076.69 1366.07L1106.68 1395.58L1136.19 1366.07L1112.39 1401.77L1241.86 1531.24L1112.39 1660.71L1136.19 1696.41L1106.68 1666.43L1076.69 1696.41L1100.49 1660.71L971.016 1531.24Z" fill="white"/>
<path d="M985.287 1489.92L875.331 1655.09H820.115L943.875 1531.33L820.115 1407.57H862.003L944.351 1530.85L985.287 1489.92ZM778.227 1655.09V1407.57H820.115V1655.09H778.227Z" fill="white"/>
<path d="M721.13 1593.14V1655.02H679.242V1593.14H721.13Z" fill="white"/>
<path d="M622.101 1407.57V1655.09L497.865 1902.61L580.213 1655.09V1407.57H622.101ZM456.453 1531.33L580.213 1407.57L518.809 1531.33L580.213 1655.09L456.453 1531.33Z" fill="white"/>
<path d="M475.373 1489.92L365.416 1655.09H310.2L433.961 1531.33L310.2 1407.57H352.088L434.436 1530.85L475.373 1489.92ZM268.312 1655.09V1407.57H310.2V1655.09H268.312Z" fill="white"/>
<path d="M1777.8 919.318L1668.32 1084.01H1613.11L1736.87 960.254L1695.45 919.318L1674.99 960.254H1613.11L1674.99 898.374L1613.11 836.494H1654.99L1687.36 885.998L1736.87 836.494L1701.64 906.942L1736.87 960.254L1777.8 919.318ZM1571.22 1084.01V836.494H1613.11V1084.01H1571.22Z" fill="white"/>
<path d="M1379.3 1084.03V836.514L1503.54 588.994L1421.19 836.514V1084.03H1379.3ZM1421.19 1084.03L1482.6 960.274L1421.19 836.514L1544.95 960.274L1421.19 1084.03Z" fill="white"/>
<path d="M1372.04 919.318L1262.56 1084.01H1207.34L1331.1 960.254L1289.69 919.318L1269.22 960.254H1207.34L1269.22 898.374L1207.34 836.494H1249.23L1281.6 885.998L1331.1 836.494L1295.88 906.942L1331.1 960.254L1372.04 919.318ZM1165.45 1084.01V836.494H1207.34V1084.01H1165.45Z" fill="white"/>
<path d="M1063.09 1084.04V836.515L1186.85 712.279L1104.98 836.515V1084.04L981.219 1208.27L1063.09 1084.04Z" fill="white"/>
<path d="M925.036 1084.04V836.515L1048.8 712.279L966.924 836.515V1084.04L843.164 1208.27L925.036 1084.04Z" fill="white"/>
<path d="M909.959 919.318L800.479 1084.01H745.263L869.023 960.254L827.611 919.318L807.143 960.254H745.263L807.143 898.374L745.263 836.494H787.151L819.519 885.998L869.023 836.494L833.799 906.942L869.023 960.254L909.959 919.318ZM703.375 1084.01V836.494H745.263V1084.01H703.375Z" fill="white"/>
<path d="M604.593 1084.01V836.494H646.481V1084.01H604.593ZM438.945 1084.01V836.494H480.833V1084.01H438.945ZM480.833 1084.01L604.593 959.778L522.245 1084.01H480.833Z" fill="white"/>
<path d="M201.521 960.313L281.965 1080.74L361.933 960.313L281.965 839.885L201.521 960.313ZM146.305 960.313L275.777 830.841L251.977 795.141L281.965 824.653L311.477 795.141L287.677 830.841L417.149 960.313L287.677 1089.78L311.477 1125.48L281.965 1095.5L251.977 1125.48L275.777 1089.78L146.305 960.313Z" fill="white"/>
<path d="M1556.65 265.518L1680.88 17.998L1598.54 265.518V513.038H1556.65V265.518ZM1598.54 389.754L1680.88 265.518H1722.3L1598.54 389.754ZM1722.3 513.038V265.518H1764.18V513.038H1722.3Z" fill="white"/>
<path d="M1439.89 513.039V265.519L1563.65 141.283L1481.78 265.519V513.039L1358.02 637.275L1439.89 513.039Z" fill="white"/>
<path d="M1424.81 348.322L1315.33 513.018H1260.11L1383.87 389.258L1342.46 348.322L1321.99 389.258H1260.11L1321.99 327.378L1260.11 265.498H1302L1334.37 315.002L1383.87 265.498L1348.65 335.946L1383.87 389.258L1424.81 348.322ZM1218.23 513.018V265.498H1260.11V513.018H1218.23Z" fill="white"/>
<path d="M953.656 265.518L1077.89 17.998L995.544 265.518V513.038H953.656V265.518ZM995.544 389.754L1077.89 265.518H1119.3L995.544 389.754ZM1119.3 513.038V265.518H1161.19V513.038H1119.3Z" fill="white"/>
<path d="M946.497 347.846L836.542 513.018H781.326L905.086 389.258L781.326 265.498H823.214L905.562 388.782L946.497 347.846ZM739.438 513.018V265.498H781.326V513.018H739.438Z" fill="white"/>
<path d="M639.864 513.065V265.545H681.752V513.065H639.864ZM557.516 389.305L640.34 141.785H682.228L557.516 389.305Z" fill="white"/>
<path d="M197.474 265.498V513.018H155.586V265.498H197.474ZM197.474 389.734L279.822 265.498H321.234L197.474 389.734ZM321.234 513.018V265.498H363.122V513.018H321.234ZM363.122 389.734L445.47 265.498H486.882L363.122 389.734ZM486.882 513.018V265.498H528.77V513.018H486.882Z" fill="white"/>
</svg>
