<svg width="1920" height="1920" viewBox="0 0 1920 1920" fill="none" xmlns="http://www.w3.org/2000/svg">
<rect width="1920" height="1920" fill="white"/>
<path d="M458.556 1153.17L739.781 1577.05L539.255 1376.52L483.825 1487.38L528.658 1577.05L477.304 1499.61L350.956 1751.49L448.774 1456.41L246.618 1153.17H315.905L456.11 1433.58L491.162 1328.43L315.905 1153.17H458.556ZM299.602 1328.43L86.8487 1751.49L227.869 1328.43H299.602Z" fill="black"/>
<path d="M619.206 966.567L583.34 1001.62L619.206 1107.59H690.124L659.964 1046.45L690.124 1002.43L478.186 683.711L619.206 966.567ZM959.938 1531.46L724.36 1177.69L902.062 1531.46H959.938ZM902.062 1531.46L478.186 1107.59L759.411 1531.46H902.062ZM619.206 1107.59L195.33 683.711L477.371 1107.59H619.206Z" fill="black"/>
<path d="M577.555 473.015L719.39 261.077L690.86 217.874L860.411 49.1387L738.954 230.916L754.441 260.262L648.472 473.015V896.891H577.555V473.015ZM648.472 896.891L754.441 684.138L648.472 473.015L861.226 684.953L648.472 896.891Z" fill="black"/>
<path d="M86.9141 473.015L228.75 261.077L200.219 217.874L369.77 49.1387L248.313 230.916L263.801 260.262L157.832 473.015V896.891H86.9141V473.015ZM157.832 896.891L263.801 684.138L157.832 473.015L370.585 684.953L157.832 896.891Z" fill="black"/>
<path d="M1336.99 1132.06L1336.99 1171L1106.89 1171L1106.89 1132.06L1336.99 1132.06ZM1221.94 1171L1336.99 1286.05L1221.94 1209.94L1106.89 1286.05L1221.94 1171ZM1106.89 1286.05L1221.94 1324.11L1336.99 1286.05L1221.94 1401.11L1106.89 1286.05Z" fill="black"/>
<path d="M1742.92 1132.06L1742.92 1171L1512.82 1171L1512.82 1132.06L1742.92 1132.06ZM1627.87 1171L1742.92 1286.05L1627.87 1209.94L1512.82 1286.05L1627.87 1171ZM1512.82 1286.05L1627.87 1324.11L1742.92 1286.05L1627.87 1401.11L1512.82 1286.05Z" fill="black"/>
<path d="M1464.51 1623.64L1310.96 1725.86L1310.96 1777.19L1426.01 1662.14L1541.06 1777.19L1541.06 1738.25L1426.45 1661.7L1464.51 1623.64ZM1310.96 1816.13L1541.06 1816.13L1541.06 1777.19L1310.96 1777.19L1310.96 1816.13Z" fill="black"/>
<path d="M1329.64 1355.56H1521.69V1585.67L1598.69 1702.05L1482.75 1585.67V1394.5H1368.58V1585.67L1252.64 1702.05L1329.64 1585.67V1355.56Z" fill="black"/>
<path d="M1718.21 493.95L1855.66 286.867L1757.65 384.833L1730.56 330.673L1752.47 286.867L1727.37 324.7L1665.62 201.645L1713.43 345.806L1614.62 493.95H1648.49L1717.01 356.957L1734.15 408.329L1648.49 493.95H1718.21Z" fill="black"/>
<path d="M1473.47 713.146L1596.03 590.625L1534.75 713.146H1473.47ZM1596.03 468.104L1534.75 590.625H1473.47L1596.03 468.104ZM1513.54 345.583L1431.99 590.625H1390.98L1513.54 345.583ZM1473.47 590.625V713.146H1431.99V590.625H1473.47Z" fill="black"/>
<path d="M1565.91 493.932L1713.99 345.977L1640.52 493.932H1565.91ZM1813.09 48.9291L1713.99 345.977H1614.89L1813.09 48.9291ZM1614.89 50.0671L1515.79 345.977H1466.25L1614.89 50.0671ZM1565.91 345.977V493.932H1515.79V345.977H1565.91Z" fill="black"/>
<path d="M1565.91 493.932L1713.99 345.977L1640.52 493.932H1565.91ZM1813.09 48.9291L1713.99 345.977H1614.89L1813.09 48.9291ZM1614.89 50.0671L1515.79 345.977H1466.25L1614.89 50.0671ZM1565.91 345.977V493.932H1515.79V345.977H1565.91Z" fill="black"/>
</svg>
