<svg width="1920" height="1920" viewBox="0 0 1920 1920" fill="none" xmlns="http://www.w3.org/2000/svg">
<g clip-path="url(#clip0_2773_2712)">
<rect x="1500.55" y="146.273" width="439.691" height="577.462" transform="rotate(34.7218 1500.55 146.273)" fill="url(#paint0_linear_2773_2712)" stroke="#7B61FF" stroke-width="6.4"/>
<ellipse cx="1543.55" cy="492.827" rx="154.342" ry="153.499" transform="rotate(49.7218 1543.55 492.827)" fill="#A5E9FF" stroke="#7B61FF" stroke-width="6.4"/>
<path d="M1424.59 353.74C1391.77 381.552 1369.79 420.038 1362.52 462.439C1355.25 504.84 1363.15 548.448 1384.83 585.605C1406.51 622.762 1440.59 651.094 1481.08 665.626C1521.57 680.158 1565.89 679.962 1606.25 665.073L1542.91 493.367L1424.59 353.74Z" fill="url(#paint1_linear_2773_2712)" stroke="#7B61FF" stroke-width="6.4" stroke-linejoin="round"/>
<path d="M1682.54 375.046C1667 356.71 1648 341.613 1626.63 330.619C1605.26 319.625 1581.93 312.948 1557.97 310.97C1534.02 308.991 1509.91 311.75 1487.03 319.089C1464.14 326.427 1442.92 338.202 1424.59 353.74L1542.91 493.366L1682.54 375.046Z" fill="white" stroke="#7B61FF" stroke-width="6.4"/>
<path d="M872.706 582.801L1724.89 829.928L1428.25 1852.93L576.069 1605.81L872.706 582.801Z" fill="white" stroke="#7B61FF" stroke-width="6.4"/>
<rect width="65.5342" height="162.84" transform="matrix(-0.960434 -0.278506 -0.278506 0.960434 948.266 804.289)" fill="url(#paint2_linear_2773_2712)"/>
<rect width="65.5342" height="244.26" transform="matrix(-0.960434 -0.278506 -0.278506 0.960434 1135.28 773.746)" fill="url(#paint3_linear_2773_2712)"/>
<rect width="65.5342" height="68.8938" transform="matrix(-0.960434 -0.278506 -0.278506 0.960434 1415.15 1037.48)" fill="url(#paint4_linear_2773_2712)"/>
<rect width="65.5342" height="117.433" transform="matrix(-0.960434 -0.278506 -0.278506 0.960434 1017.79 871.721)" fill="url(#paint5_linear_2773_2712)"/>
<rect width="65.5342" height="170.669" transform="matrix(-0.960434 -0.278506 -0.278506 0.960434 1279.15 892.08)" fill="url(#paint6_linear_2773_2712)"/>
<rect width="65.5342" height="89.2488" transform="matrix(-0.960434 -0.278506 -0.278506 0.960434 1502.97 1041.76)" fill="url(#paint7_linear_2773_2712)"/>
<rect width="65.5342" height="89.2488" transform="matrix(-0.960434 -0.278506 -0.278506 0.960434 1174.28 946.449)" fill="url(#paint8_linear_2773_2712)"/>
<rect width="65.5342" height="126.827" transform="matrix(-0.960434 -0.278506 -0.278506 0.960434 1349.12 958.01)" fill="url(#paint9_linear_2773_2712)"/>
<rect width="65.5342" height="308.456" transform="matrix(-0.960434 -0.278506 -0.278506 0.960434 1646.2 855.055)" fill="url(#paint10_linear_2773_2712)"/>
<rect x="1198.41" y="1061" width="440.251" height="698.021" transform="rotate(16.1711 1198.41 1061)" fill="url(#paint11_linear_2773_2712)"/>
<path d="M1198.04 1062.49L1002.93 1735.33" stroke="#7B61FF" stroke-width="6.4"/>
<path d="M980.539 999.551L861.359 1410.55" stroke="#7B61FF" stroke-width="6.4"/>
<path d="M1539.02 1467.87L688.523 1221.24" stroke="#7B61FF" stroke-width="6.4"/>
<path d="M1501.58 1596.99L651.086 1350.36" stroke="#7B61FF" stroke-width="6.4"/>
<path d="M1591.3 1301.47L737.078 1053.77" stroke="#7B61FF" stroke-width="6.4"/>
<path d="M1624.82 1185.86L770.602 938.152" stroke="#7B61FF" stroke-width="6.4"/>
<path d="M872.745 582.808L1724.91 829.919L1428.26 1852.94L576.09 1605.83L872.745 582.808Z" stroke="#7B61FF" stroke-width="6.4"/>
<rect x="511.695" y="56.1426" width="612.884" height="734.884" transform="rotate(15 511.695 56.1426)" fill="#EBFF6E"/>
<path d="M593.008 343.068L516.955 626.902" stroke="#7B61FF" stroke-width="6.4"/>
<path d="M1018.97 192.996L955.61 256.356C947.789 264.177 934.416 258.638 934.416 247.577V247.577C934.416 236.59 921.195 231.018 913.331 238.691L894.774 256.797C886.842 264.537 873.505 258.917 873.505 247.834V247.834C873.505 236.751 860.169 231.13 852.236 238.87L833.864 256.797C825.931 264.537 812.595 258.917 812.595 247.834V247.834C812.595 236.751 799.258 231.13 791.326 238.87L772.953 256.797C765.02 264.537 751.684 258.917 751.684 247.834V247.834C751.684 236.751 738.347 231.13 730.415 238.87L712.042 256.797C704.11 264.537 690.773 258.917 690.773 247.834V247.834C690.773 236.751 677.437 231.13 669.504 238.87L650.948 256.976C643.084 264.649 629.862 259.077 629.862 248.09V248.09C629.862 237.03 616.489 231.49 608.668 239.311L524.508 323.472" stroke="#7B61FF" stroke-width="6.4"/>
<rect x="736.539" y="380.998" width="306.263" height="473.432" transform="rotate(15 736.539 380.998)" fill="url(#paint12_linear_2773_2712)"/>
<path d="M737.035 381.65L613.773 841.67" stroke="#7B61FF" stroke-width="6.4"/>
<path d="M1037.33 461.772L448.156 303.902" stroke="#7B61FF" stroke-width="6.4"/>
<path d="M982.461 666.338L395.854 509.157" stroke="#7B61FF" stroke-width="6.4"/>
<path d="M958.586 755.389L371.98 598.208" stroke="#7B61FF" stroke-width="6.4"/>
<path d="M426.781 393.648L1011 550.189" stroke="#7B61FF" stroke-width="6.4"/>
<rect x="75.3613" y="1073.43" width="379.165" height="561.292" transform="rotate(-38.2445 75.3613 1073.43)" fill="url(#paint13_linear_2773_2712)" stroke="#7B61FF" stroke-width="6.4"/>
<rect x="58.2073" y="1161.29" width="379.165" height="561.292" transform="rotate(-24.7725 58.2073 1161.29)" fill="white" stroke="#7B61FF" stroke-width="6.4"/>
<rect x="105.375" y="1002.53" width="6.98145" height="83.3135" transform="rotate(-38.2445 105.375 1002.53)" fill="#7B61FF"/>
<rect x="147.445" y="968.719" width="6.98145" height="83.3135" transform="rotate(-38.2445 147.445 968.719)" fill="#7B61FF"/>
<rect width="6.98145" height="83.3134" transform="matrix(0.785384 -0.619009 0.619027 0.78537 243.75 893.779)" fill="#7B61FF"/>
<rect x="296.391" y="854.531" width="6.98145" height="83.3136" transform="rotate(-38.2445 296.391 854.531)" fill="#7B61FF"/>
<path d="M359.667 1558.08L439.571 1341.1M439.571 1341.1L515.726 1506.03M439.571 1341.1L274.633 1417.25" stroke="#7B61FF" stroke-width="6.4"/>
<path d="M256.526 1322.08L336.43 1105.09M336.43 1105.09L412.586 1270.03M336.43 1105.09L171.492 1181.25" stroke="#7B61FF" stroke-width="6.4"/>
<rect x="513.958" y="60.0618" width="606.484" height="728.484" transform="rotate(15 513.958 60.0618)" stroke="#7B61FF" stroke-width="6.4"/>
<path fill-rule="evenodd" clip-rule="evenodd" d="M1406.6 158.232C1406.6 175.852 1392.31 190.135 1374.69 190.135C1365.92 190.135 1357.97 186.594 1352.21 180.863L351.629 737.434C352.319 741.192 352.679 745.065 352.679 749.021C352.679 750.758 352.609 752.479 352.473 754.181L1610.84 1384.11C1625.41 1349.84 1659.38 1325.82 1698.96 1325.82C1751.82 1325.82 1794.67 1368.67 1794.67 1421.52C1794.67 1474.38 1751.82 1517.23 1698.96 1517.23C1650.86 1517.23 1611.04 1481.74 1604.27 1435.51L460.99 1654.71C461.426 1659.01 461.649 1663.36 461.649 1667.77C461.649 1738.24 404.516 1795.38 334.039 1795.38C263.562 1795.38 206.43 1738.24 206.43 1667.77C206.43 1597.29 263.562 1540.16 334.039 1540.16C393.502 1540.16 443.466 1580.83 457.63 1635.87L1603.4 1416.19C1603.65 1411.58 1604.23 1407.06 1605.12 1402.65L347.899 773.297C338.348 796.495 315.518 812.826 288.874 812.826C253.636 812.826 225.069 784.26 225.069 749.021C225.069 713.783 253.636 685.217 288.874 685.217C313.294 685.217 334.511 698.936 345.236 719.087L1343.3 163.917C1342.96 162.072 1342.79 160.173 1342.79 158.232C1342.79 140.613 1357.07 126.33 1374.69 126.33C1392.31 126.33 1406.6 140.613 1406.6 158.232Z" fill="url(#paint14_linear_2773_2712)"/>
</g>
<defs>
<linearGradient id="paint0_linear_2773_2712" x1="1644.9" y1="405.948" x2="1898.6" y2="731.59" gradientUnits="userSpaceOnUse">
<stop stop-color="white"/>
<stop offset="1" stop-color="#A5E9FF"/>
</linearGradient>
<linearGradient id="paint1_linear_2773_2712" x1="1403.28" y1="611.688" x2="1682.53" y2="375.046" gradientUnits="userSpaceOnUse">
<stop stop-color="#FCBDCC"/>
<stop offset="1" stop-color="white" stop-opacity="0"/>
</linearGradient>
<linearGradient id="paint2_linear_2773_2712" x1="32.7671" y1="0" x2="32.7671" y2="162.84" gradientUnits="userSpaceOnUse">
<stop offset="0.230892" stop-color="#FCBDCC"/>
<stop offset="1" stop-color="white" stop-opacity="0"/>
</linearGradient>
<linearGradient id="paint3_linear_2773_2712" x1="32.7671" y1="0" x2="32.7671" y2="244.26" gradientUnits="userSpaceOnUse">
<stop offset="0.230892" stop-color="#FCBDCC"/>
<stop offset="1" stop-color="white" stop-opacity="0"/>
</linearGradient>
<linearGradient id="paint4_linear_2773_2712" x1="32.7671" y1="0" x2="32.7671" y2="68.8938" gradientUnits="userSpaceOnUse">
<stop offset="0.230892" stop-color="#FCBDCC"/>
<stop offset="1" stop-color="white" stop-opacity="0"/>
</linearGradient>
<linearGradient id="paint5_linear_2773_2712" x1="32.7671" y1="0" x2="32.7671" y2="117.433" gradientUnits="userSpaceOnUse">
<stop offset="0.230892" stop-color="#FCBDCC"/>
<stop offset="1" stop-color="white" stop-opacity="0"/>
</linearGradient>
<linearGradient id="paint6_linear_2773_2712" x1="32.7671" y1="0" x2="32.7671" y2="170.669" gradientUnits="userSpaceOnUse">
<stop offset="0.230892" stop-color="#FCBDCC"/>
<stop offset="1" stop-color="white" stop-opacity="0"/>
</linearGradient>
<linearGradient id="paint7_linear_2773_2712" x1="32.7671" y1="0" x2="32.7671" y2="89.2488" gradientUnits="userSpaceOnUse">
<stop offset="0.230892" stop-color="#FCBDCC"/>
<stop offset="1" stop-color="white" stop-opacity="0"/>
</linearGradient>
<linearGradient id="paint8_linear_2773_2712" x1="32.7671" y1="0" x2="32.7671" y2="89.2488" gradientUnits="userSpaceOnUse">
<stop offset="0.230892" stop-color="#FCBDCC"/>
<stop offset="1" stop-color="white" stop-opacity="0"/>
</linearGradient>
<linearGradient id="paint9_linear_2773_2712" x1="32.7671" y1="0" x2="32.7671" y2="126.827" gradientUnits="userSpaceOnUse">
<stop offset="0.230892" stop-color="#FCBDCC"/>
<stop offset="1" stop-color="white" stop-opacity="0"/>
</linearGradient>
<linearGradient id="paint10_linear_2773_2712" x1="32.7671" y1="0" x2="32.7671" y2="308.456" gradientUnits="userSpaceOnUse">
<stop offset="0.230892" stop-color="#FCBDCC"/>
<stop offset="1" stop-color="white" stop-opacity="0"/>
</linearGradient>
<linearGradient id="paint11_linear_2773_2712" x1="1418.53" y1="1061" x2="1418.53" y2="1759.02" gradientUnits="userSpaceOnUse">
<stop stop-color="#FFC8D8"/>
<stop offset="1" stop-color="#FFC8D8" stop-opacity="0"/>
</linearGradient>
<linearGradient id="paint12_linear_2773_2712" x1="889.671" y1="380.998" x2="889.671" y2="854.43" gradientUnits="userSpaceOnUse">
<stop stop-color="#93FB9C"/>
<stop offset="1" stop-color="#93FB9C" stop-opacity="0"/>
</linearGradient>
<linearGradient id="paint13_linear_2773_2712" x1="145.313" y1="1507.72" x2="486.684" y2="1111.83" gradientUnits="userSpaceOnUse">
<stop stop-color="#A5E9FF"/>
<stop offset="1" stop-color="white"/>
</linearGradient>
<linearGradient id="paint14_linear_2773_2712" x1="1000.55" y1="126.33" x2="1000.55" y2="1795.38" gradientUnits="userSpaceOnUse">
<stop stop-color="#FFAA5C"/>
<stop offset="0.315625" stop-color="#FF7082"/>
<stop offset="0.664583" stop-color="#FF49C0"/>
<stop offset="1" stop-color="#AE5EFF"/>
</linearGradient>
<clipPath id="clip0_2773_2712">
<rect width="1920" height="1920" fill="white"/>
</clipPath>
</defs>
</svg>
